G04 #@! TF.GenerationSoftware,KiCad,Pcbnew,8.0.3*
G04 #@! TF.CreationDate,2024-06-26T21:01:40-07:00*
G04 #@! TF.ProjectId,PCTGotekAdapter,50435447-6f74-4656-9b41-646170746572,B*
G04 #@! TF.SameCoordinates,Original*
G04 #@! TF.FileFunction,Legend,Bot*
G04 #@! TF.FilePolarity,Positive*
%FSLAX46Y46*%
G04 Gerber Fmt 4.6, Leading zero omitted, Abs format (unit mm)*
G04 Created by KiCad (PCBNEW 8.0.3) date 2024-06-26 21:01:40*
%MOMM*%
%LPD*%
G01*
G04 APERTURE LIST*
G04 Aperture macros list*
%AMRoundRect*
0 Rectangle with rounded corners*
0 $1 Rounding radius*
0 $2 $3 $4 $5 $6 $7 $8 $9 X,Y pos of 4 corners*
0 Add a 4 corners polygon primitive as box body*
4,1,4,$2,$3,$4,$5,$6,$7,$8,$9,$2,$3,0*
0 Add four circle primitives for the rounded corners*
1,1,$1+$1,$2,$3*
1,1,$1+$1,$4,$5*
1,1,$1+$1,$6,$7*
1,1,$1+$1,$8,$9*
0 Add four rect primitives between the rounded corners*
20,1,$1+$1,$2,$3,$4,$5,0*
20,1,$1+$1,$4,$5,$6,$7,0*
20,1,$1+$1,$6,$7,$8,$9,0*
20,1,$1+$1,$8,$9,$2,$3,0*%
G04 Aperture macros list end*
%ADD10C,0.150000*%
%ADD11RoundRect,0.038000X0.800000X0.800000X-0.800000X0.800000X-0.800000X-0.800000X0.800000X-0.800000X0*%
%ADD12C,1.676000*%
%ADD13RoundRect,0.038000X0.850000X0.850000X-0.850000X0.850000X-0.850000X-0.850000X0.850000X-0.850000X0*%
%ADD14O,1.776000X1.776000*%
%ADD15C,0.876000*%
%ADD16C,6.476000*%
%ADD17RoundRect,0.038000X0.850000X-0.850000X0.850000X0.850000X-0.850000X0.850000X-0.850000X-0.850000X0*%
%ADD18C,2.476000*%
%ADD19O,2.476000X2.476000*%
%ADD20RoundRect,0.038000X-0.850000X0.850000X-0.850000X-0.850000X0.850000X-0.850000X0.850000X0.850000X0*%
%ADD21RoundRect,0.038000X0.640000X0.640000X-0.640000X0.640000X-0.640000X-0.640000X0.640000X-0.640000X0*%
%ADD22C,1.356000*%
%ADD23RoundRect,0.038000X0.635000X0.635000X-0.635000X0.635000X-0.635000X-0.635000X0.635000X-0.635000X0*%
%ADD24C,1.346000*%
%ADD25C,1.076000*%
G04 APERTURE END LIST*
D10*
X140690640Y-117910893D02*
X184317794Y-118002907D01*
X140886583Y-102757976D02*
X184516535Y-102692661D01*
X204761324Y-101895364D02*
X205609509Y-102439072D01*
X193040000Y-104140000D02*
X190500000Y-101600000D01*
X199454728Y-102787046D02*
X201955787Y-102787046D01*
X201955787Y-105222860D01*
X199454728Y-105222860D01*
X199454728Y-102787046D01*
X184516535Y-102692661D02*
X184516535Y-105370547D01*
X198120000Y-111760000D02*
X190500000Y-111760000D01*
X206892662Y-101960609D02*
X204761324Y-101895364D01*
X184317794Y-118002907D02*
X184320593Y-115233007D01*
X140886582Y-105370547D02*
X140886583Y-102757976D01*
X184516535Y-105370547D02*
X140886582Y-105370547D01*
X140690640Y-117910893D02*
X140690641Y-115298322D01*
X205718251Y-101395152D02*
X204761324Y-101895364D01*
X204761324Y-101895364D02*
X205718251Y-101395152D01*
X140690641Y-115298322D02*
X184320593Y-115233007D01*
X198120000Y-104140000D02*
X193040000Y-104140000D01*
X199454728Y-100416476D02*
X204500344Y-100416476D01*
X204500344Y-102787046D01*
X199454728Y-102787046D01*
X199454728Y-100416476D01*
X197827818Y-105702398D02*
X197875437Y-105750018D01*
X197875437Y-105750018D02*
X198018294Y-105797637D01*
X198018294Y-105797637D02*
X198113532Y-105797637D01*
X198113532Y-105797637D02*
X198256389Y-105750018D01*
X198256389Y-105750018D02*
X198351627Y-105654779D01*
X198351627Y-105654779D02*
X198399246Y-105559541D01*
X198399246Y-105559541D02*
X198446865Y-105369065D01*
X198446865Y-105369065D02*
X198446865Y-105226208D01*
X198446865Y-105226208D02*
X198399246Y-105035732D01*
X198399246Y-105035732D02*
X198351627Y-104940494D01*
X198351627Y-104940494D02*
X198256389Y-104845256D01*
X198256389Y-104845256D02*
X198113532Y-104797637D01*
X198113532Y-104797637D02*
X198018294Y-104797637D01*
X198018294Y-104797637D02*
X197875437Y-104845256D01*
X197875437Y-104845256D02*
X197827818Y-104892875D01*
X196970675Y-105130970D02*
X196970675Y-105797637D01*
X197399246Y-105130970D02*
X197399246Y-105654779D01*
X197399246Y-105654779D02*
X197351627Y-105750018D01*
X197351627Y-105750018D02*
X197256389Y-105797637D01*
X197256389Y-105797637D02*
X197113532Y-105797637D01*
X197113532Y-105797637D02*
X197018294Y-105750018D01*
X197018294Y-105750018D02*
X196970675Y-105702398D01*
X196637341Y-105130970D02*
X196256389Y-105130970D01*
X196494484Y-104797637D02*
X196494484Y-105654779D01*
X196494484Y-105654779D02*
X196446865Y-105750018D01*
X196446865Y-105750018D02*
X196351627Y-105797637D01*
X196351627Y-105797637D02*
X196256389Y-105797637D01*
X195304007Y-105130970D02*
X194923055Y-105130970D01*
X195161150Y-104797637D02*
X195161150Y-105654779D01*
X195161150Y-105654779D02*
X195113531Y-105750018D01*
X195113531Y-105750018D02*
X195018293Y-105797637D01*
X195018293Y-105797637D02*
X194923055Y-105797637D01*
X194589721Y-105797637D02*
X194589721Y-104797637D01*
X194161150Y-105797637D02*
X194161150Y-105273827D01*
X194161150Y-105273827D02*
X194208769Y-105178589D01*
X194208769Y-105178589D02*
X194304007Y-105130970D01*
X194304007Y-105130970D02*
X194446864Y-105130970D01*
X194446864Y-105130970D02*
X194542102Y-105178589D01*
X194542102Y-105178589D02*
X194589721Y-105226208D01*
X193304007Y-105750018D02*
X193399245Y-105797637D01*
X193399245Y-105797637D02*
X193589721Y-105797637D01*
X193589721Y-105797637D02*
X193684959Y-105750018D01*
X193684959Y-105750018D02*
X193732578Y-105654779D01*
X193732578Y-105654779D02*
X193732578Y-105273827D01*
X193732578Y-105273827D02*
X193684959Y-105178589D01*
X193684959Y-105178589D02*
X193589721Y-105130970D01*
X193589721Y-105130970D02*
X193399245Y-105130970D01*
X193399245Y-105130970D02*
X193304007Y-105178589D01*
X193304007Y-105178589D02*
X193256388Y-105273827D01*
X193256388Y-105273827D02*
X193256388Y-105369065D01*
X193256388Y-105369065D02*
X193732578Y-105464303D01*
X192875435Y-105750018D02*
X192780197Y-105797637D01*
X192780197Y-105797637D02*
X192589721Y-105797637D01*
X192589721Y-105797637D02*
X192494483Y-105750018D01*
X192494483Y-105750018D02*
X192446864Y-105654779D01*
X192446864Y-105654779D02*
X192446864Y-105607160D01*
X192446864Y-105607160D02*
X192494483Y-105511922D01*
X192494483Y-105511922D02*
X192589721Y-105464303D01*
X192589721Y-105464303D02*
X192732578Y-105464303D01*
X192732578Y-105464303D02*
X192827816Y-105416684D01*
X192827816Y-105416684D02*
X192875435Y-105321446D01*
X192875435Y-105321446D02*
X192875435Y-105273827D01*
X192875435Y-105273827D02*
X192827816Y-105178589D01*
X192827816Y-105178589D02*
X192732578Y-105130970D01*
X192732578Y-105130970D02*
X192589721Y-105130970D01*
X192589721Y-105130970D02*
X192494483Y-105178589D01*
X191637340Y-105750018D02*
X191732578Y-105797637D01*
X191732578Y-105797637D02*
X191923054Y-105797637D01*
X191923054Y-105797637D02*
X192018292Y-105750018D01*
X192018292Y-105750018D02*
X192065911Y-105654779D01*
X192065911Y-105654779D02*
X192065911Y-105273827D01*
X192065911Y-105273827D02*
X192018292Y-105178589D01*
X192018292Y-105178589D02*
X191923054Y-105130970D01*
X191923054Y-105130970D02*
X191732578Y-105130970D01*
X191732578Y-105130970D02*
X191637340Y-105178589D01*
X191637340Y-105178589D02*
X191589721Y-105273827D01*
X191589721Y-105273827D02*
X191589721Y-105369065D01*
X191589721Y-105369065D02*
X192065911Y-105464303D01*
X190542101Y-105130970D02*
X190161149Y-105130970D01*
X190399244Y-104797637D02*
X190399244Y-105654779D01*
X190399244Y-105654779D02*
X190351625Y-105750018D01*
X190351625Y-105750018D02*
X190256387Y-105797637D01*
X190256387Y-105797637D02*
X190161149Y-105797637D01*
X189827815Y-105797637D02*
X189827815Y-105130970D01*
X189827815Y-105321446D02*
X189780196Y-105226208D01*
X189780196Y-105226208D02*
X189732577Y-105178589D01*
X189732577Y-105178589D02*
X189637339Y-105130970D01*
X189637339Y-105130970D02*
X189542101Y-105130970D01*
X188780196Y-105797637D02*
X188780196Y-105273827D01*
X188780196Y-105273827D02*
X188827815Y-105178589D01*
X188827815Y-105178589D02*
X188923053Y-105130970D01*
X188923053Y-105130970D02*
X189113529Y-105130970D01*
X189113529Y-105130970D02*
X189208767Y-105178589D01*
X188780196Y-105750018D02*
X188875434Y-105797637D01*
X188875434Y-105797637D02*
X189113529Y-105797637D01*
X189113529Y-105797637D02*
X189208767Y-105750018D01*
X189208767Y-105750018D02*
X189256386Y-105654779D01*
X189256386Y-105654779D02*
X189256386Y-105559541D01*
X189256386Y-105559541D02*
X189208767Y-105464303D01*
X189208767Y-105464303D02*
X189113529Y-105416684D01*
X189113529Y-105416684D02*
X188875434Y-105416684D01*
X188875434Y-105416684D02*
X188780196Y-105369065D01*
X187875434Y-105750018D02*
X187970672Y-105797637D01*
X187970672Y-105797637D02*
X188161148Y-105797637D01*
X188161148Y-105797637D02*
X188256386Y-105750018D01*
X188256386Y-105750018D02*
X188304005Y-105702398D01*
X188304005Y-105702398D02*
X188351624Y-105607160D01*
X188351624Y-105607160D02*
X188351624Y-105321446D01*
X188351624Y-105321446D02*
X188304005Y-105226208D01*
X188304005Y-105226208D02*
X188256386Y-105178589D01*
X188256386Y-105178589D02*
X188161148Y-105130970D01*
X188161148Y-105130970D02*
X187970672Y-105130970D01*
X187970672Y-105130970D02*
X187875434Y-105178589D01*
X187065910Y-105750018D02*
X187161148Y-105797637D01*
X187161148Y-105797637D02*
X187351624Y-105797637D01*
X187351624Y-105797637D02*
X187446862Y-105750018D01*
X187446862Y-105750018D02*
X187494481Y-105654779D01*
X187494481Y-105654779D02*
X187494481Y-105273827D01*
X187494481Y-105273827D02*
X187446862Y-105178589D01*
X187446862Y-105178589D02*
X187351624Y-105130970D01*
X187351624Y-105130970D02*
X187161148Y-105130970D01*
X187161148Y-105130970D02*
X187065910Y-105178589D01*
X187065910Y-105178589D02*
X187018291Y-105273827D01*
X187018291Y-105273827D02*
X187018291Y-105369065D01*
X187018291Y-105369065D02*
X187494481Y-105464303D01*
X186637338Y-105750018D02*
X186542100Y-105797637D01*
X186542100Y-105797637D02*
X186351624Y-105797637D01*
X186351624Y-105797637D02*
X186256386Y-105750018D01*
X186256386Y-105750018D02*
X186208767Y-105654779D01*
X186208767Y-105654779D02*
X186208767Y-105607160D01*
X186208767Y-105607160D02*
X186256386Y-105511922D01*
X186256386Y-105511922D02*
X186351624Y-105464303D01*
X186351624Y-105464303D02*
X186494481Y-105464303D01*
X186494481Y-105464303D02*
X186589719Y-105416684D01*
X186589719Y-105416684D02*
X186637338Y-105321446D01*
X186637338Y-105321446D02*
X186637338Y-105273827D01*
X186637338Y-105273827D02*
X186589719Y-105178589D01*
X186589719Y-105178589D02*
X186494481Y-105130970D01*
X186494481Y-105130970D02*
X186351624Y-105130970D01*
X186351624Y-105130970D02*
X186256386Y-105178589D01*
X198399246Y-107407581D02*
X198399246Y-106740914D01*
X198399246Y-106407581D02*
X198446865Y-106455200D01*
X198446865Y-106455200D02*
X198399246Y-106502819D01*
X198399246Y-106502819D02*
X198351627Y-106455200D01*
X198351627Y-106455200D02*
X198399246Y-106407581D01*
X198399246Y-106407581D02*
X198399246Y-106502819D01*
X198065913Y-106740914D02*
X197684961Y-106740914D01*
X197923056Y-107407581D02*
X197923056Y-106550438D01*
X197923056Y-106550438D02*
X197875437Y-106455200D01*
X197875437Y-106455200D02*
X197780199Y-106407581D01*
X197780199Y-106407581D02*
X197684961Y-106407581D01*
X196684960Y-106740914D02*
X196446865Y-107407581D01*
X196208770Y-106740914D02*
X196446865Y-107407581D01*
X196446865Y-107407581D02*
X196542103Y-107645676D01*
X196542103Y-107645676D02*
X196589722Y-107693295D01*
X196589722Y-107693295D02*
X196684960Y-107740914D01*
X195684960Y-107407581D02*
X195780198Y-107359962D01*
X195780198Y-107359962D02*
X195827817Y-107312342D01*
X195827817Y-107312342D02*
X195875436Y-107217104D01*
X195875436Y-107217104D02*
X195875436Y-106931390D01*
X195875436Y-106931390D02*
X195827817Y-106836152D01*
X195827817Y-106836152D02*
X195780198Y-106788533D01*
X195780198Y-106788533D02*
X195684960Y-106740914D01*
X195684960Y-106740914D02*
X195542103Y-106740914D01*
X195542103Y-106740914D02*
X195446865Y-106788533D01*
X195446865Y-106788533D02*
X195399246Y-106836152D01*
X195399246Y-106836152D02*
X195351627Y-106931390D01*
X195351627Y-106931390D02*
X195351627Y-107217104D01*
X195351627Y-107217104D02*
X195399246Y-107312342D01*
X195399246Y-107312342D02*
X195446865Y-107359962D01*
X195446865Y-107359962D02*
X195542103Y-107407581D01*
X195542103Y-107407581D02*
X195684960Y-107407581D01*
X194494484Y-106740914D02*
X194494484Y-107407581D01*
X194923055Y-106740914D02*
X194923055Y-107264723D01*
X194923055Y-107264723D02*
X194875436Y-107359962D01*
X194875436Y-107359962D02*
X194780198Y-107407581D01*
X194780198Y-107407581D02*
X194637341Y-107407581D01*
X194637341Y-107407581D02*
X194542103Y-107359962D01*
X194542103Y-107359962D02*
X194494484Y-107312342D01*
X193351626Y-106740914D02*
X193161150Y-107407581D01*
X193161150Y-107407581D02*
X192970674Y-106931390D01*
X192970674Y-106931390D02*
X192780198Y-107407581D01*
X192780198Y-107407581D02*
X192589722Y-106740914D01*
X191780198Y-107407581D02*
X191780198Y-106883771D01*
X191780198Y-106883771D02*
X191827817Y-106788533D01*
X191827817Y-106788533D02*
X191923055Y-106740914D01*
X191923055Y-106740914D02*
X192113531Y-106740914D01*
X192113531Y-106740914D02*
X192208769Y-106788533D01*
X191780198Y-107359962D02*
X191875436Y-107407581D01*
X191875436Y-107407581D02*
X192113531Y-107407581D01*
X192113531Y-107407581D02*
X192208769Y-107359962D01*
X192208769Y-107359962D02*
X192256388Y-107264723D01*
X192256388Y-107264723D02*
X192256388Y-107169485D01*
X192256388Y-107169485D02*
X192208769Y-107074247D01*
X192208769Y-107074247D02*
X192113531Y-107026628D01*
X192113531Y-107026628D02*
X191875436Y-107026628D01*
X191875436Y-107026628D02*
X191780198Y-106979009D01*
X191304007Y-106740914D02*
X191304007Y-107407581D01*
X191304007Y-106836152D02*
X191256388Y-106788533D01*
X191256388Y-106788533D02*
X191161150Y-106740914D01*
X191161150Y-106740914D02*
X191018293Y-106740914D01*
X191018293Y-106740914D02*
X190923055Y-106788533D01*
X190923055Y-106788533D02*
X190875436Y-106883771D01*
X190875436Y-106883771D02*
X190875436Y-107407581D01*
X190542102Y-106740914D02*
X190161150Y-106740914D01*
X190399245Y-106407581D02*
X190399245Y-107264723D01*
X190399245Y-107264723D02*
X190351626Y-107359962D01*
X190351626Y-107359962D02*
X190256388Y-107407581D01*
X190256388Y-107407581D02*
X190161150Y-107407581D01*
X189208768Y-106740914D02*
X188827816Y-106740914D01*
X189065911Y-106407581D02*
X189065911Y-107264723D01*
X189065911Y-107264723D02*
X189018292Y-107359962D01*
X189018292Y-107359962D02*
X188923054Y-107407581D01*
X188923054Y-107407581D02*
X188827816Y-107407581D01*
X188351625Y-107407581D02*
X188446863Y-107359962D01*
X188446863Y-107359962D02*
X188494482Y-107312342D01*
X188494482Y-107312342D02*
X188542101Y-107217104D01*
X188542101Y-107217104D02*
X188542101Y-106931390D01*
X188542101Y-106931390D02*
X188494482Y-106836152D01*
X188494482Y-106836152D02*
X188446863Y-106788533D01*
X188446863Y-106788533D02*
X188351625Y-106740914D01*
X188351625Y-106740914D02*
X188208768Y-106740914D01*
X188208768Y-106740914D02*
X188113530Y-106788533D01*
X188113530Y-106788533D02*
X188065911Y-106836152D01*
X188065911Y-106836152D02*
X188018292Y-106931390D01*
X188018292Y-106931390D02*
X188018292Y-107217104D01*
X188018292Y-107217104D02*
X188065911Y-107312342D01*
X188065911Y-107312342D02*
X188113530Y-107359962D01*
X188113530Y-107359962D02*
X188208768Y-107407581D01*
X188208768Y-107407581D02*
X188351625Y-107407581D01*
X186399244Y-106740914D02*
X186399244Y-107407581D01*
X186827815Y-106740914D02*
X186827815Y-107264723D01*
X186827815Y-107264723D02*
X186780196Y-107359962D01*
X186780196Y-107359962D02*
X186684958Y-107407581D01*
X186684958Y-107407581D02*
X186542101Y-107407581D01*
X186542101Y-107407581D02*
X186446863Y-107359962D01*
X186446863Y-107359962D02*
X186399244Y-107312342D01*
X185970672Y-107359962D02*
X185875434Y-107407581D01*
X185875434Y-107407581D02*
X185684958Y-107407581D01*
X185684958Y-107407581D02*
X185589720Y-107359962D01*
X185589720Y-107359962D02*
X185542101Y-107264723D01*
X185542101Y-107264723D02*
X185542101Y-107217104D01*
X185542101Y-107217104D02*
X185589720Y-107121866D01*
X185589720Y-107121866D02*
X185684958Y-107074247D01*
X185684958Y-107074247D02*
X185827815Y-107074247D01*
X185827815Y-107074247D02*
X185923053Y-107026628D01*
X185923053Y-107026628D02*
X185970672Y-106931390D01*
X185970672Y-106931390D02*
X185970672Y-106883771D01*
X185970672Y-106883771D02*
X185923053Y-106788533D01*
X185923053Y-106788533D02*
X185827815Y-106740914D01*
X185827815Y-106740914D02*
X185684958Y-106740914D01*
X185684958Y-106740914D02*
X185589720Y-106788533D01*
X184732577Y-107359962D02*
X184827815Y-107407581D01*
X184827815Y-107407581D02*
X185018291Y-107407581D01*
X185018291Y-107407581D02*
X185113529Y-107359962D01*
X185113529Y-107359962D02*
X185161148Y-107264723D01*
X185161148Y-107264723D02*
X185161148Y-106883771D01*
X185161148Y-106883771D02*
X185113529Y-106788533D01*
X185113529Y-106788533D02*
X185018291Y-106740914D01*
X185018291Y-106740914D02*
X184827815Y-106740914D01*
X184827815Y-106740914D02*
X184732577Y-106788533D01*
X184732577Y-106788533D02*
X184684958Y-106883771D01*
X184684958Y-106883771D02*
X184684958Y-106979009D01*
X184684958Y-106979009D02*
X185161148Y-107074247D01*
X198018294Y-108969906D02*
X198113532Y-109017525D01*
X198113532Y-109017525D02*
X198304008Y-109017525D01*
X198304008Y-109017525D02*
X198399246Y-108969906D01*
X198399246Y-108969906D02*
X198446865Y-108874667D01*
X198446865Y-108874667D02*
X198446865Y-108493715D01*
X198446865Y-108493715D02*
X198399246Y-108398477D01*
X198399246Y-108398477D02*
X198304008Y-108350858D01*
X198304008Y-108350858D02*
X198113532Y-108350858D01*
X198113532Y-108350858D02*
X198018294Y-108398477D01*
X198018294Y-108398477D02*
X197970675Y-108493715D01*
X197970675Y-108493715D02*
X197970675Y-108588953D01*
X197970675Y-108588953D02*
X198446865Y-108684191D01*
X197637341Y-109017525D02*
X197113532Y-108350858D01*
X197637341Y-108350858D02*
X197113532Y-109017525D01*
X196875436Y-108350858D02*
X196494484Y-108350858D01*
X196732579Y-108017525D02*
X196732579Y-108874667D01*
X196732579Y-108874667D02*
X196684960Y-108969906D01*
X196684960Y-108969906D02*
X196589722Y-109017525D01*
X196589722Y-109017525D02*
X196494484Y-109017525D01*
X195780198Y-108969906D02*
X195875436Y-109017525D01*
X195875436Y-109017525D02*
X196065912Y-109017525D01*
X196065912Y-109017525D02*
X196161150Y-108969906D01*
X196161150Y-108969906D02*
X196208769Y-108874667D01*
X196208769Y-108874667D02*
X196208769Y-108493715D01*
X196208769Y-108493715D02*
X196161150Y-108398477D01*
X196161150Y-108398477D02*
X196065912Y-108350858D01*
X196065912Y-108350858D02*
X195875436Y-108350858D01*
X195875436Y-108350858D02*
X195780198Y-108398477D01*
X195780198Y-108398477D02*
X195732579Y-108493715D01*
X195732579Y-108493715D02*
X195732579Y-108588953D01*
X195732579Y-108588953D02*
X196208769Y-108684191D01*
X195304007Y-109017525D02*
X195304007Y-108350858D01*
X195304007Y-108541334D02*
X195256388Y-108446096D01*
X195256388Y-108446096D02*
X195208769Y-108398477D01*
X195208769Y-108398477D02*
X195113531Y-108350858D01*
X195113531Y-108350858D02*
X195018293Y-108350858D01*
X194684959Y-108350858D02*
X194684959Y-109017525D01*
X194684959Y-108446096D02*
X194637340Y-108398477D01*
X194637340Y-108398477D02*
X194542102Y-108350858D01*
X194542102Y-108350858D02*
X194399245Y-108350858D01*
X194399245Y-108350858D02*
X194304007Y-108398477D01*
X194304007Y-108398477D02*
X194256388Y-108493715D01*
X194256388Y-108493715D02*
X194256388Y-109017525D01*
X193351626Y-109017525D02*
X193351626Y-108493715D01*
X193351626Y-108493715D02*
X193399245Y-108398477D01*
X193399245Y-108398477D02*
X193494483Y-108350858D01*
X193494483Y-108350858D02*
X193684959Y-108350858D01*
X193684959Y-108350858D02*
X193780197Y-108398477D01*
X193351626Y-108969906D02*
X193446864Y-109017525D01*
X193446864Y-109017525D02*
X193684959Y-109017525D01*
X193684959Y-109017525D02*
X193780197Y-108969906D01*
X193780197Y-108969906D02*
X193827816Y-108874667D01*
X193827816Y-108874667D02*
X193827816Y-108779429D01*
X193827816Y-108779429D02*
X193780197Y-108684191D01*
X193780197Y-108684191D02*
X193684959Y-108636572D01*
X193684959Y-108636572D02*
X193446864Y-108636572D01*
X193446864Y-108636572D02*
X193351626Y-108588953D01*
X192732578Y-109017525D02*
X192827816Y-108969906D01*
X192827816Y-108969906D02*
X192875435Y-108874667D01*
X192875435Y-108874667D02*
X192875435Y-108017525D01*
X191589720Y-108350858D02*
X191589720Y-109350858D01*
X191589720Y-108398477D02*
X191494482Y-108350858D01*
X191494482Y-108350858D02*
X191304006Y-108350858D01*
X191304006Y-108350858D02*
X191208768Y-108398477D01*
X191208768Y-108398477D02*
X191161149Y-108446096D01*
X191161149Y-108446096D02*
X191113530Y-108541334D01*
X191113530Y-108541334D02*
X191113530Y-108827048D01*
X191113530Y-108827048D02*
X191161149Y-108922286D01*
X191161149Y-108922286D02*
X191208768Y-108969906D01*
X191208768Y-108969906D02*
X191304006Y-109017525D01*
X191304006Y-109017525D02*
X191494482Y-109017525D01*
X191494482Y-109017525D02*
X191589720Y-108969906D01*
X190542101Y-109017525D02*
X190637339Y-108969906D01*
X190637339Y-108969906D02*
X190684958Y-108922286D01*
X190684958Y-108922286D02*
X190732577Y-108827048D01*
X190732577Y-108827048D02*
X190732577Y-108541334D01*
X190732577Y-108541334D02*
X190684958Y-108446096D01*
X190684958Y-108446096D02*
X190637339Y-108398477D01*
X190637339Y-108398477D02*
X190542101Y-108350858D01*
X190542101Y-108350858D02*
X190399244Y-108350858D01*
X190399244Y-108350858D02*
X190304006Y-108398477D01*
X190304006Y-108398477D02*
X190256387Y-108446096D01*
X190256387Y-108446096D02*
X190208768Y-108541334D01*
X190208768Y-108541334D02*
X190208768Y-108827048D01*
X190208768Y-108827048D02*
X190256387Y-108922286D01*
X190256387Y-108922286D02*
X190304006Y-108969906D01*
X190304006Y-108969906D02*
X190399244Y-109017525D01*
X190399244Y-109017525D02*
X190542101Y-109017525D01*
X189875434Y-108350858D02*
X189684958Y-109017525D01*
X189684958Y-109017525D02*
X189494482Y-108541334D01*
X189494482Y-108541334D02*
X189304006Y-109017525D01*
X189304006Y-109017525D02*
X189113530Y-108350858D01*
X188351625Y-108969906D02*
X188446863Y-109017525D01*
X188446863Y-109017525D02*
X188637339Y-109017525D01*
X188637339Y-109017525D02*
X188732577Y-108969906D01*
X188732577Y-108969906D02*
X188780196Y-108874667D01*
X188780196Y-108874667D02*
X188780196Y-108493715D01*
X188780196Y-108493715D02*
X188732577Y-108398477D01*
X188732577Y-108398477D02*
X188637339Y-108350858D01*
X188637339Y-108350858D02*
X188446863Y-108350858D01*
X188446863Y-108350858D02*
X188351625Y-108398477D01*
X188351625Y-108398477D02*
X188304006Y-108493715D01*
X188304006Y-108493715D02*
X188304006Y-108588953D01*
X188304006Y-108588953D02*
X188780196Y-108684191D01*
X187875434Y-109017525D02*
X187875434Y-108350858D01*
X187875434Y-108541334D02*
X187827815Y-108446096D01*
X187827815Y-108446096D02*
X187780196Y-108398477D01*
X187780196Y-108398477D02*
X187684958Y-108350858D01*
X187684958Y-108350858D02*
X187589720Y-108350858D01*
X186637338Y-108350858D02*
X186256386Y-108350858D01*
X186494481Y-109017525D02*
X186494481Y-108160382D01*
X186494481Y-108160382D02*
X186446862Y-108065144D01*
X186446862Y-108065144D02*
X186351624Y-108017525D01*
X186351624Y-108017525D02*
X186256386Y-108017525D01*
X185780195Y-109017525D02*
X185875433Y-108969906D01*
X185875433Y-108969906D02*
X185923052Y-108922286D01*
X185923052Y-108922286D02*
X185970671Y-108827048D01*
X185970671Y-108827048D02*
X185970671Y-108541334D01*
X185970671Y-108541334D02*
X185923052Y-108446096D01*
X185923052Y-108446096D02*
X185875433Y-108398477D01*
X185875433Y-108398477D02*
X185780195Y-108350858D01*
X185780195Y-108350858D02*
X185637338Y-108350858D01*
X185637338Y-108350858D02*
X185542100Y-108398477D01*
X185542100Y-108398477D02*
X185494481Y-108446096D01*
X185494481Y-108446096D02*
X185446862Y-108541334D01*
X185446862Y-108541334D02*
X185446862Y-108827048D01*
X185446862Y-108827048D02*
X185494481Y-108922286D01*
X185494481Y-108922286D02*
X185542100Y-108969906D01*
X185542100Y-108969906D02*
X185637338Y-109017525D01*
X185637338Y-109017525D02*
X185780195Y-109017525D01*
X185018290Y-109017525D02*
X185018290Y-108350858D01*
X185018290Y-108541334D02*
X184970671Y-108446096D01*
X184970671Y-108446096D02*
X184923052Y-108398477D01*
X184923052Y-108398477D02*
X184827814Y-108350858D01*
X184827814Y-108350858D02*
X184732576Y-108350858D01*
X198542103Y-109960802D02*
X198161151Y-109960802D01*
X198399246Y-109627469D02*
X198399246Y-110484611D01*
X198399246Y-110484611D02*
X198351627Y-110579850D01*
X198351627Y-110579850D02*
X198256389Y-110627469D01*
X198256389Y-110627469D02*
X198161151Y-110627469D01*
X197827817Y-110627469D02*
X197827817Y-109627469D01*
X197399246Y-110627469D02*
X197399246Y-110103659D01*
X197399246Y-110103659D02*
X197446865Y-110008421D01*
X197446865Y-110008421D02*
X197542103Y-109960802D01*
X197542103Y-109960802D02*
X197684960Y-109960802D01*
X197684960Y-109960802D02*
X197780198Y-110008421D01*
X197780198Y-110008421D02*
X197827817Y-110056040D01*
X196542103Y-110579850D02*
X196637341Y-110627469D01*
X196637341Y-110627469D02*
X196827817Y-110627469D01*
X196827817Y-110627469D02*
X196923055Y-110579850D01*
X196923055Y-110579850D02*
X196970674Y-110484611D01*
X196970674Y-110484611D02*
X196970674Y-110103659D01*
X196970674Y-110103659D02*
X196923055Y-110008421D01*
X196923055Y-110008421D02*
X196827817Y-109960802D01*
X196827817Y-109960802D02*
X196637341Y-109960802D01*
X196637341Y-109960802D02*
X196542103Y-110008421D01*
X196542103Y-110008421D02*
X196494484Y-110103659D01*
X196494484Y-110103659D02*
X196494484Y-110198897D01*
X196494484Y-110198897D02*
X196970674Y-110294135D01*
X194780198Y-109675088D02*
X194875436Y-109627469D01*
X194875436Y-109627469D02*
X195018293Y-109627469D01*
X195018293Y-109627469D02*
X195161150Y-109675088D01*
X195161150Y-109675088D02*
X195256388Y-109770326D01*
X195256388Y-109770326D02*
X195304007Y-109865564D01*
X195304007Y-109865564D02*
X195351626Y-110056040D01*
X195351626Y-110056040D02*
X195351626Y-110198897D01*
X195351626Y-110198897D02*
X195304007Y-110389373D01*
X195304007Y-110389373D02*
X195256388Y-110484611D01*
X195256388Y-110484611D02*
X195161150Y-110579850D01*
X195161150Y-110579850D02*
X195018293Y-110627469D01*
X195018293Y-110627469D02*
X194923055Y-110627469D01*
X194923055Y-110627469D02*
X194780198Y-110579850D01*
X194780198Y-110579850D02*
X194732579Y-110532230D01*
X194732579Y-110532230D02*
X194732579Y-110198897D01*
X194732579Y-110198897D02*
X194923055Y-110198897D01*
X194161150Y-110627469D02*
X194256388Y-110579850D01*
X194256388Y-110579850D02*
X194304007Y-110532230D01*
X194304007Y-110532230D02*
X194351626Y-110436992D01*
X194351626Y-110436992D02*
X194351626Y-110151278D01*
X194351626Y-110151278D02*
X194304007Y-110056040D01*
X194304007Y-110056040D02*
X194256388Y-110008421D01*
X194256388Y-110008421D02*
X194161150Y-109960802D01*
X194161150Y-109960802D02*
X194018293Y-109960802D01*
X194018293Y-109960802D02*
X193923055Y-110008421D01*
X193923055Y-110008421D02*
X193875436Y-110056040D01*
X193875436Y-110056040D02*
X193827817Y-110151278D01*
X193827817Y-110151278D02*
X193827817Y-110436992D01*
X193827817Y-110436992D02*
X193875436Y-110532230D01*
X193875436Y-110532230D02*
X193923055Y-110579850D01*
X193923055Y-110579850D02*
X194018293Y-110627469D01*
X194018293Y-110627469D02*
X194161150Y-110627469D01*
X193399245Y-110627469D02*
X193399245Y-109627469D01*
X193399245Y-109627469D02*
X193161150Y-109627469D01*
X193161150Y-109627469D02*
X193018293Y-109675088D01*
X193018293Y-109675088D02*
X192923055Y-109770326D01*
X192923055Y-109770326D02*
X192875436Y-109865564D01*
X192875436Y-109865564D02*
X192827817Y-110056040D01*
X192827817Y-110056040D02*
X192827817Y-110198897D01*
X192827817Y-110198897D02*
X192875436Y-110389373D01*
X192875436Y-110389373D02*
X192923055Y-110484611D01*
X192923055Y-110484611D02*
X193018293Y-110579850D01*
X193018293Y-110579850D02*
X193161150Y-110627469D01*
X193161150Y-110627469D02*
X193399245Y-110627469D01*
X192399245Y-110627469D02*
X192399245Y-109960802D01*
X192399245Y-110151278D02*
X192351626Y-110056040D01*
X192351626Y-110056040D02*
X192304007Y-110008421D01*
X192304007Y-110008421D02*
X192208769Y-109960802D01*
X192208769Y-109960802D02*
X192113531Y-109960802D01*
X191780197Y-110627469D02*
X191780197Y-109960802D01*
X191780197Y-109627469D02*
X191827816Y-109675088D01*
X191827816Y-109675088D02*
X191780197Y-109722707D01*
X191780197Y-109722707D02*
X191732578Y-109675088D01*
X191732578Y-109675088D02*
X191780197Y-109627469D01*
X191780197Y-109627469D02*
X191780197Y-109722707D01*
X191399245Y-109960802D02*
X191161150Y-110627469D01*
X191161150Y-110627469D02*
X190923055Y-109960802D01*
X190161150Y-110579850D02*
X190256388Y-110627469D01*
X190256388Y-110627469D02*
X190446864Y-110627469D01*
X190446864Y-110627469D02*
X190542102Y-110579850D01*
X190542102Y-110579850D02*
X190589721Y-110484611D01*
X190589721Y-110484611D02*
X190589721Y-110103659D01*
X190589721Y-110103659D02*
X190542102Y-110008421D01*
X190542102Y-110008421D02*
X190446864Y-109960802D01*
X190446864Y-109960802D02*
X190256388Y-109960802D01*
X190256388Y-109960802D02*
X190161150Y-110008421D01*
X190161150Y-110008421D02*
X190113531Y-110103659D01*
X190113531Y-110103659D02*
X190113531Y-110198897D01*
X190113531Y-110198897D02*
X190589721Y-110294135D01*
X200672994Y-112254278D02*
X201244422Y-112254278D01*
X200958708Y-112254278D02*
X200958708Y-111254278D01*
X200958708Y-111254278D02*
X201053946Y-111397135D01*
X201053946Y-111397135D02*
X201149184Y-111492373D01*
X201149184Y-111492373D02*
X201244422Y-111539992D01*
X200292041Y-111349516D02*
X200244422Y-111301897D01*
X200244422Y-111301897D02*
X200149184Y-111254278D01*
X200149184Y-111254278D02*
X199911089Y-111254278D01*
X199911089Y-111254278D02*
X199815851Y-111301897D01*
X199815851Y-111301897D02*
X199768232Y-111349516D01*
X199768232Y-111349516D02*
X199720613Y-111444754D01*
X199720613Y-111444754D02*
X199720613Y-111539992D01*
X199720613Y-111539992D02*
X199768232Y-111682849D01*
X199768232Y-111682849D02*
X200339660Y-112254278D01*
X200339660Y-112254278D02*
X199720613Y-112254278D01*
X199434898Y-111254278D02*
X199101565Y-112254278D01*
X199101565Y-112254278D02*
X198768232Y-111254278D01*
X146793010Y-75443520D02*
X146793010Y-74443520D01*
X146269201Y-74443520D02*
X146364439Y-74633996D01*
X145840630Y-75443520D02*
X145840630Y-74776853D01*
X145840630Y-74872091D02*
X145793011Y-74824472D01*
X145793011Y-74824472D02*
X145697773Y-74776853D01*
X145697773Y-74776853D02*
X145554916Y-74776853D01*
X145554916Y-74776853D02*
X145459678Y-74824472D01*
X145459678Y-74824472D02*
X145412059Y-74919710D01*
X145412059Y-74919710D02*
X145412059Y-75443520D01*
X145412059Y-74919710D02*
X145364440Y-74824472D01*
X145364440Y-74824472D02*
X145269202Y-74776853D01*
X145269202Y-74776853D02*
X145126345Y-74776853D01*
X145126345Y-74776853D02*
X145031106Y-74824472D01*
X145031106Y-74824472D02*
X144983487Y-74919710D01*
X144983487Y-74919710D02*
X144983487Y-75443520D01*
X143316821Y-75443520D02*
X143316821Y-74443520D01*
X143316821Y-75395901D02*
X143412059Y-75443520D01*
X143412059Y-75443520D02*
X143602535Y-75443520D01*
X143602535Y-75443520D02*
X143697773Y-75395901D01*
X143697773Y-75395901D02*
X143745392Y-75348281D01*
X143745392Y-75348281D02*
X143793011Y-75253043D01*
X143793011Y-75253043D02*
X143793011Y-74967329D01*
X143793011Y-74967329D02*
X143745392Y-74872091D01*
X143745392Y-74872091D02*
X143697773Y-74824472D01*
X143697773Y-74824472D02*
X143602535Y-74776853D01*
X143602535Y-74776853D02*
X143412059Y-74776853D01*
X143412059Y-74776853D02*
X143316821Y-74824472D01*
X142459678Y-75395901D02*
X142554916Y-75443520D01*
X142554916Y-75443520D02*
X142745392Y-75443520D01*
X142745392Y-75443520D02*
X142840630Y-75395901D01*
X142840630Y-75395901D02*
X142888249Y-75300662D01*
X142888249Y-75300662D02*
X142888249Y-74919710D01*
X142888249Y-74919710D02*
X142840630Y-74824472D01*
X142840630Y-74824472D02*
X142745392Y-74776853D01*
X142745392Y-74776853D02*
X142554916Y-74776853D01*
X142554916Y-74776853D02*
X142459678Y-74824472D01*
X142459678Y-74824472D02*
X142412059Y-74919710D01*
X142412059Y-74919710D02*
X142412059Y-75014948D01*
X142412059Y-75014948D02*
X142888249Y-75110186D01*
X142031106Y-75395901D02*
X141935868Y-75443520D01*
X141935868Y-75443520D02*
X141745392Y-75443520D01*
X141745392Y-75443520D02*
X141650154Y-75395901D01*
X141650154Y-75395901D02*
X141602535Y-75300662D01*
X141602535Y-75300662D02*
X141602535Y-75253043D01*
X141602535Y-75253043D02*
X141650154Y-75157805D01*
X141650154Y-75157805D02*
X141745392Y-75110186D01*
X141745392Y-75110186D02*
X141888249Y-75110186D01*
X141888249Y-75110186D02*
X141983487Y-75062567D01*
X141983487Y-75062567D02*
X142031106Y-74967329D01*
X142031106Y-74967329D02*
X142031106Y-74919710D01*
X142031106Y-74919710D02*
X141983487Y-74824472D01*
X141983487Y-74824472D02*
X141888249Y-74776853D01*
X141888249Y-74776853D02*
X141745392Y-74776853D01*
X141745392Y-74776853D02*
X141650154Y-74824472D01*
X141173963Y-75443520D02*
X141173963Y-74776853D01*
X141173963Y-74443520D02*
X141221582Y-74491139D01*
X141221582Y-74491139D02*
X141173963Y-74538758D01*
X141173963Y-74538758D02*
X141126344Y-74491139D01*
X141126344Y-74491139D02*
X141173963Y-74443520D01*
X141173963Y-74443520D02*
X141173963Y-74538758D01*
X140269202Y-74776853D02*
X140269202Y-75586377D01*
X140269202Y-75586377D02*
X140316821Y-75681615D01*
X140316821Y-75681615D02*
X140364440Y-75729234D01*
X140364440Y-75729234D02*
X140459678Y-75776853D01*
X140459678Y-75776853D02*
X140602535Y-75776853D01*
X140602535Y-75776853D02*
X140697773Y-75729234D01*
X140269202Y-75395901D02*
X140364440Y-75443520D01*
X140364440Y-75443520D02*
X140554916Y-75443520D01*
X140554916Y-75443520D02*
X140650154Y-75395901D01*
X140650154Y-75395901D02*
X140697773Y-75348281D01*
X140697773Y-75348281D02*
X140745392Y-75253043D01*
X140745392Y-75253043D02*
X140745392Y-74967329D01*
X140745392Y-74967329D02*
X140697773Y-74872091D01*
X140697773Y-74872091D02*
X140650154Y-74824472D01*
X140650154Y-74824472D02*
X140554916Y-74776853D01*
X140554916Y-74776853D02*
X140364440Y-74776853D01*
X140364440Y-74776853D02*
X140269202Y-74824472D01*
X139793011Y-74776853D02*
X139793011Y-75443520D01*
X139793011Y-74872091D02*
X139745392Y-74824472D01*
X139745392Y-74824472D02*
X139650154Y-74776853D01*
X139650154Y-74776853D02*
X139507297Y-74776853D01*
X139507297Y-74776853D02*
X139412059Y-74824472D01*
X139412059Y-74824472D02*
X139364440Y-74919710D01*
X139364440Y-74919710D02*
X139364440Y-75443520D01*
X138507297Y-75395901D02*
X138602535Y-75443520D01*
X138602535Y-75443520D02*
X138793011Y-75443520D01*
X138793011Y-75443520D02*
X138888249Y-75395901D01*
X138888249Y-75395901D02*
X138935868Y-75300662D01*
X138935868Y-75300662D02*
X138935868Y-74919710D01*
X138935868Y-74919710D02*
X138888249Y-74824472D01*
X138888249Y-74824472D02*
X138793011Y-74776853D01*
X138793011Y-74776853D02*
X138602535Y-74776853D01*
X138602535Y-74776853D02*
X138507297Y-74824472D01*
X138507297Y-74824472D02*
X138459678Y-74919710D01*
X138459678Y-74919710D02*
X138459678Y-75014948D01*
X138459678Y-75014948D02*
X138935868Y-75110186D01*
X137602535Y-75443520D02*
X137602535Y-74443520D01*
X137602535Y-75395901D02*
X137697773Y-75443520D01*
X137697773Y-75443520D02*
X137888249Y-75443520D01*
X137888249Y-75443520D02*
X137983487Y-75395901D01*
X137983487Y-75395901D02*
X138031106Y-75348281D01*
X138031106Y-75348281D02*
X138078725Y-75253043D01*
X138078725Y-75253043D02*
X138078725Y-74967329D01*
X138078725Y-74967329D02*
X138031106Y-74872091D01*
X138031106Y-74872091D02*
X137983487Y-74824472D01*
X137983487Y-74824472D02*
X137888249Y-74776853D01*
X137888249Y-74776853D02*
X137697773Y-74776853D01*
X137697773Y-74776853D02*
X137602535Y-74824472D01*
X136507296Y-74776853D02*
X136126344Y-74776853D01*
X136364439Y-75443520D02*
X136364439Y-74586377D01*
X136364439Y-74586377D02*
X136316820Y-74491139D01*
X136316820Y-74491139D02*
X136221582Y-74443520D01*
X136221582Y-74443520D02*
X136126344Y-74443520D01*
X135650153Y-75443520D02*
X135745391Y-75395901D01*
X135745391Y-75395901D02*
X135793010Y-75348281D01*
X135793010Y-75348281D02*
X135840629Y-75253043D01*
X135840629Y-75253043D02*
X135840629Y-74967329D01*
X135840629Y-74967329D02*
X135793010Y-74872091D01*
X135793010Y-74872091D02*
X135745391Y-74824472D01*
X135745391Y-74824472D02*
X135650153Y-74776853D01*
X135650153Y-74776853D02*
X135507296Y-74776853D01*
X135507296Y-74776853D02*
X135412058Y-74824472D01*
X135412058Y-74824472D02*
X135364439Y-74872091D01*
X135364439Y-74872091D02*
X135316820Y-74967329D01*
X135316820Y-74967329D02*
X135316820Y-75253043D01*
X135316820Y-75253043D02*
X135364439Y-75348281D01*
X135364439Y-75348281D02*
X135412058Y-75395901D01*
X135412058Y-75395901D02*
X135507296Y-75443520D01*
X135507296Y-75443520D02*
X135650153Y-75443520D01*
X134888248Y-75443520D02*
X134888248Y-74776853D01*
X134888248Y-74967329D02*
X134840629Y-74872091D01*
X134840629Y-74872091D02*
X134793010Y-74824472D01*
X134793010Y-74824472D02*
X134697772Y-74776853D01*
X134697772Y-74776853D02*
X134602534Y-74776853D01*
X133507295Y-75443520D02*
X133507295Y-74443520D01*
X133507295Y-74443520D02*
X133173962Y-75157805D01*
X133173962Y-75157805D02*
X132840629Y-74443520D01*
X132840629Y-74443520D02*
X132840629Y-75443520D01*
X132459676Y-74443520D02*
X131840629Y-74443520D01*
X131840629Y-74443520D02*
X132173962Y-74824472D01*
X132173962Y-74824472D02*
X132031105Y-74824472D01*
X132031105Y-74824472D02*
X131935867Y-74872091D01*
X131935867Y-74872091D02*
X131888248Y-74919710D01*
X131888248Y-74919710D02*
X131840629Y-75014948D01*
X131840629Y-75014948D02*
X131840629Y-75253043D01*
X131840629Y-75253043D02*
X131888248Y-75348281D01*
X131888248Y-75348281D02*
X131935867Y-75395901D01*
X131935867Y-75395901D02*
X132031105Y-75443520D01*
X132031105Y-75443520D02*
X132316819Y-75443520D01*
X132316819Y-75443520D02*
X132412057Y-75395901D01*
X132412057Y-75395901D02*
X132459676Y-75348281D01*
X130697771Y-75395901D02*
X130602533Y-75443520D01*
X130602533Y-75443520D02*
X130412057Y-75443520D01*
X130412057Y-75443520D02*
X130316819Y-75395901D01*
X130316819Y-75395901D02*
X130269200Y-75300662D01*
X130269200Y-75300662D02*
X130269200Y-75253043D01*
X130269200Y-75253043D02*
X130316819Y-75157805D01*
X130316819Y-75157805D02*
X130412057Y-75110186D01*
X130412057Y-75110186D02*
X130554914Y-75110186D01*
X130554914Y-75110186D02*
X130650152Y-75062567D01*
X130650152Y-75062567D02*
X130697771Y-74967329D01*
X130697771Y-74967329D02*
X130697771Y-74919710D01*
X130697771Y-74919710D02*
X130650152Y-74824472D01*
X130650152Y-74824472D02*
X130554914Y-74776853D01*
X130554914Y-74776853D02*
X130412057Y-74776853D01*
X130412057Y-74776853D02*
X130316819Y-74824472D01*
X129412057Y-75395901D02*
X129507295Y-75443520D01*
X129507295Y-75443520D02*
X129697771Y-75443520D01*
X129697771Y-75443520D02*
X129793009Y-75395901D01*
X129793009Y-75395901D02*
X129840628Y-75348281D01*
X129840628Y-75348281D02*
X129888247Y-75253043D01*
X129888247Y-75253043D02*
X129888247Y-74967329D01*
X129888247Y-74967329D02*
X129840628Y-74872091D01*
X129840628Y-74872091D02*
X129793009Y-74824472D01*
X129793009Y-74824472D02*
X129697771Y-74776853D01*
X129697771Y-74776853D02*
X129507295Y-74776853D01*
X129507295Y-74776853D02*
X129412057Y-74824472D01*
X128983485Y-75443520D02*
X128983485Y-74776853D01*
X128983485Y-74967329D02*
X128935866Y-74872091D01*
X128935866Y-74872091D02*
X128888247Y-74824472D01*
X128888247Y-74824472D02*
X128793009Y-74776853D01*
X128793009Y-74776853D02*
X128697771Y-74776853D01*
X127983485Y-75395901D02*
X128078723Y-75443520D01*
X128078723Y-75443520D02*
X128269199Y-75443520D01*
X128269199Y-75443520D02*
X128364437Y-75395901D01*
X128364437Y-75395901D02*
X128412056Y-75300662D01*
X128412056Y-75300662D02*
X128412056Y-74919710D01*
X128412056Y-74919710D02*
X128364437Y-74824472D01*
X128364437Y-74824472D02*
X128269199Y-74776853D01*
X128269199Y-74776853D02*
X128078723Y-74776853D01*
X128078723Y-74776853D02*
X127983485Y-74824472D01*
X127983485Y-74824472D02*
X127935866Y-74919710D01*
X127935866Y-74919710D02*
X127935866Y-75014948D01*
X127935866Y-75014948D02*
X128412056Y-75110186D01*
X127602532Y-74776853D02*
X127412056Y-75443520D01*
X127412056Y-75443520D02*
X127221580Y-74967329D01*
X127221580Y-74967329D02*
X127031104Y-75443520D01*
X127031104Y-75443520D02*
X126840628Y-74776853D01*
X126507294Y-75395901D02*
X126412056Y-75443520D01*
X126412056Y-75443520D02*
X126221580Y-75443520D01*
X126221580Y-75443520D02*
X126126342Y-75395901D01*
X126126342Y-75395901D02*
X126078723Y-75300662D01*
X126078723Y-75300662D02*
X126078723Y-75253043D01*
X126078723Y-75253043D02*
X126126342Y-75157805D01*
X126126342Y-75157805D02*
X126221580Y-75110186D01*
X126221580Y-75110186D02*
X126364437Y-75110186D01*
X126364437Y-75110186D02*
X126459675Y-75062567D01*
X126459675Y-75062567D02*
X126507294Y-74967329D01*
X126507294Y-74967329D02*
X126507294Y-74919710D01*
X126507294Y-74919710D02*
X126459675Y-74824472D01*
X126459675Y-74824472D02*
X126364437Y-74776853D01*
X126364437Y-74776853D02*
X126221580Y-74776853D01*
X126221580Y-74776853D02*
X126126342Y-74824472D01*
X125650151Y-75348281D02*
X125602532Y-75395901D01*
X125602532Y-75395901D02*
X125650151Y-75443520D01*
X125650151Y-75443520D02*
X125697770Y-75395901D01*
X125697770Y-75395901D02*
X125650151Y-75348281D01*
X125650151Y-75348281D02*
X125650151Y-75443520D01*
X125650151Y-75062567D02*
X125697770Y-74491139D01*
X125697770Y-74491139D02*
X125650151Y-74443520D01*
X125650151Y-74443520D02*
X125602532Y-74491139D01*
X125602532Y-74491139D02*
X125650151Y-75062567D01*
X125650151Y-75062567D02*
X125650151Y-74443520D01*
X149871215Y-113996276D02*
X149966453Y-113948657D01*
X149966453Y-113948657D02*
X150109310Y-113948657D01*
X150109310Y-113948657D02*
X150252167Y-113996276D01*
X150252167Y-113996276D02*
X150347405Y-114091514D01*
X150347405Y-114091514D02*
X150395024Y-114186752D01*
X150395024Y-114186752D02*
X150442643Y-114377228D01*
X150442643Y-114377228D02*
X150442643Y-114520085D01*
X150442643Y-114520085D02*
X150395024Y-114710561D01*
X150395024Y-114710561D02*
X150347405Y-114805799D01*
X150347405Y-114805799D02*
X150252167Y-114901038D01*
X150252167Y-114901038D02*
X150109310Y-114948657D01*
X150109310Y-114948657D02*
X150014072Y-114948657D01*
X150014072Y-114948657D02*
X149871215Y-114901038D01*
X149871215Y-114901038D02*
X149823596Y-114853418D01*
X149823596Y-114853418D02*
X149823596Y-114520085D01*
X149823596Y-114520085D02*
X150014072Y-114520085D01*
X149395024Y-114948657D02*
X149395024Y-114281990D01*
X149395024Y-114472466D02*
X149347405Y-114377228D01*
X149347405Y-114377228D02*
X149299786Y-114329609D01*
X149299786Y-114329609D02*
X149204548Y-114281990D01*
X149204548Y-114281990D02*
X149109310Y-114281990D01*
X148633119Y-114948657D02*
X148728357Y-114901038D01*
X148728357Y-114901038D02*
X148775976Y-114853418D01*
X148775976Y-114853418D02*
X148823595Y-114758180D01*
X148823595Y-114758180D02*
X148823595Y-114472466D01*
X148823595Y-114472466D02*
X148775976Y-114377228D01*
X148775976Y-114377228D02*
X148728357Y-114329609D01*
X148728357Y-114329609D02*
X148633119Y-114281990D01*
X148633119Y-114281990D02*
X148490262Y-114281990D01*
X148490262Y-114281990D02*
X148395024Y-114329609D01*
X148395024Y-114329609D02*
X148347405Y-114377228D01*
X148347405Y-114377228D02*
X148299786Y-114472466D01*
X148299786Y-114472466D02*
X148299786Y-114758180D01*
X148299786Y-114758180D02*
X148347405Y-114853418D01*
X148347405Y-114853418D02*
X148395024Y-114901038D01*
X148395024Y-114901038D02*
X148490262Y-114948657D01*
X148490262Y-114948657D02*
X148633119Y-114948657D01*
X147442643Y-114281990D02*
X147442643Y-114948657D01*
X147871214Y-114281990D02*
X147871214Y-114805799D01*
X147871214Y-114805799D02*
X147823595Y-114901038D01*
X147823595Y-114901038D02*
X147728357Y-114948657D01*
X147728357Y-114948657D02*
X147585500Y-114948657D01*
X147585500Y-114948657D02*
X147490262Y-114901038D01*
X147490262Y-114901038D02*
X147442643Y-114853418D01*
X146966452Y-114281990D02*
X146966452Y-114948657D01*
X146966452Y-114377228D02*
X146918833Y-114329609D01*
X146918833Y-114329609D02*
X146823595Y-114281990D01*
X146823595Y-114281990D02*
X146680738Y-114281990D01*
X146680738Y-114281990D02*
X146585500Y-114329609D01*
X146585500Y-114329609D02*
X146537881Y-114424847D01*
X146537881Y-114424847D02*
X146537881Y-114948657D01*
X145633119Y-114948657D02*
X145633119Y-113948657D01*
X145633119Y-114901038D02*
X145728357Y-114948657D01*
X145728357Y-114948657D02*
X145918833Y-114948657D01*
X145918833Y-114948657D02*
X146014071Y-114901038D01*
X146014071Y-114901038D02*
X146061690Y-114853418D01*
X146061690Y-114853418D02*
X146109309Y-114758180D01*
X146109309Y-114758180D02*
X146109309Y-114472466D01*
X146109309Y-114472466D02*
X146061690Y-114377228D01*
X146061690Y-114377228D02*
X146014071Y-114329609D01*
X146014071Y-114329609D02*
X145918833Y-114281990D01*
X145918833Y-114281990D02*
X145728357Y-114281990D01*
X145728357Y-114281990D02*
X145633119Y-114329609D01*
X144395023Y-114948657D02*
X144395023Y-113948657D01*
X144395023Y-113948657D02*
X144014071Y-113948657D01*
X144014071Y-113948657D02*
X143918833Y-113996276D01*
X143918833Y-113996276D02*
X143871214Y-114043895D01*
X143871214Y-114043895D02*
X143823595Y-114139133D01*
X143823595Y-114139133D02*
X143823595Y-114281990D01*
X143823595Y-114281990D02*
X143871214Y-114377228D01*
X143871214Y-114377228D02*
X143918833Y-114424847D01*
X143918833Y-114424847D02*
X144014071Y-114472466D01*
X144014071Y-114472466D02*
X144395023Y-114472466D01*
X143395023Y-114948657D02*
X143395023Y-114281990D01*
X143395023Y-113948657D02*
X143442642Y-113996276D01*
X143442642Y-113996276D02*
X143395023Y-114043895D01*
X143395023Y-114043895D02*
X143347404Y-113996276D01*
X143347404Y-113996276D02*
X143395023Y-113948657D01*
X143395023Y-113948657D02*
X143395023Y-114043895D01*
X142918833Y-114281990D02*
X142918833Y-114948657D01*
X142918833Y-114377228D02*
X142871214Y-114329609D01*
X142871214Y-114329609D02*
X142775976Y-114281990D01*
X142775976Y-114281990D02*
X142633119Y-114281990D01*
X142633119Y-114281990D02*
X142537881Y-114329609D01*
X142537881Y-114329609D02*
X142490262Y-114424847D01*
X142490262Y-114424847D02*
X142490262Y-114948657D01*
X142061690Y-114901038D02*
X141966452Y-114948657D01*
X141966452Y-114948657D02*
X141775976Y-114948657D01*
X141775976Y-114948657D02*
X141680738Y-114901038D01*
X141680738Y-114901038D02*
X141633119Y-114805799D01*
X141633119Y-114805799D02*
X141633119Y-114758180D01*
X141633119Y-114758180D02*
X141680738Y-114662942D01*
X141680738Y-114662942D02*
X141775976Y-114615323D01*
X141775976Y-114615323D02*
X141918833Y-114615323D01*
X141918833Y-114615323D02*
X142014071Y-114567704D01*
X142014071Y-114567704D02*
X142061690Y-114472466D01*
X142061690Y-114472466D02*
X142061690Y-114424847D01*
X142061690Y-114424847D02*
X142014071Y-114329609D01*
X142014071Y-114329609D02*
X141918833Y-114281990D01*
X141918833Y-114281990D02*
X141775976Y-114281990D01*
X141775976Y-114281990D02*
X141680738Y-114329609D01*
X141204547Y-114853418D02*
X141156928Y-114901038D01*
X141156928Y-114901038D02*
X141204547Y-114948657D01*
X141204547Y-114948657D02*
X141252166Y-114901038D01*
X141252166Y-114901038D02*
X141204547Y-114853418D01*
X141204547Y-114853418D02*
X141204547Y-114948657D01*
X141204547Y-114567704D02*
X141252166Y-113996276D01*
X141252166Y-113996276D02*
X141204547Y-113948657D01*
X141204547Y-113948657D02*
X141156928Y-113996276D01*
X141156928Y-113996276D02*
X141204547Y-114567704D01*
X141204547Y-114567704D02*
X141204547Y-113948657D01*
X207860660Y-83958197D02*
X208336851Y-83958197D01*
X207336851Y-83624864D02*
X207860660Y-83958197D01*
X207860660Y-83958197D02*
X207336851Y-84291530D01*
X208336851Y-84767721D02*
X208289232Y-84672483D01*
X208289232Y-84672483D02*
X208241612Y-84624864D01*
X208241612Y-84624864D02*
X208146374Y-84577245D01*
X208146374Y-84577245D02*
X207860660Y-84577245D01*
X207860660Y-84577245D02*
X207765422Y-84624864D01*
X207765422Y-84624864D02*
X207717803Y-84672483D01*
X207717803Y-84672483D02*
X207670184Y-84767721D01*
X207670184Y-84767721D02*
X207670184Y-84910578D01*
X207670184Y-84910578D02*
X207717803Y-85005816D01*
X207717803Y-85005816D02*
X207765422Y-85053435D01*
X207765422Y-85053435D02*
X207860660Y-85101054D01*
X207860660Y-85101054D02*
X208146374Y-85101054D01*
X208146374Y-85101054D02*
X208241612Y-85053435D01*
X208241612Y-85053435D02*
X208289232Y-85005816D01*
X208289232Y-85005816D02*
X208336851Y-84910578D01*
X208336851Y-84910578D02*
X208336851Y-84767721D01*
X207670184Y-85958197D02*
X208336851Y-85958197D01*
X207670184Y-85529626D02*
X208193993Y-85529626D01*
X208193993Y-85529626D02*
X208289232Y-85577245D01*
X208289232Y-85577245D02*
X208336851Y-85672483D01*
X208336851Y-85672483D02*
X208336851Y-85815340D01*
X208336851Y-85815340D02*
X208289232Y-85910578D01*
X208289232Y-85910578D02*
X208241612Y-85958197D01*
X208289232Y-87624864D02*
X208336851Y-87529626D01*
X208336851Y-87529626D02*
X208336851Y-87339150D01*
X208336851Y-87339150D02*
X208289232Y-87243912D01*
X208289232Y-87243912D02*
X208241612Y-87196293D01*
X208241612Y-87196293D02*
X208146374Y-87148674D01*
X208146374Y-87148674D02*
X207860660Y-87148674D01*
X207860660Y-87148674D02*
X207765422Y-87196293D01*
X207765422Y-87196293D02*
X207717803Y-87243912D01*
X207717803Y-87243912D02*
X207670184Y-87339150D01*
X207670184Y-87339150D02*
X207670184Y-87529626D01*
X207670184Y-87529626D02*
X207717803Y-87624864D01*
X208336851Y-88482007D02*
X207813041Y-88482007D01*
X207813041Y-88482007D02*
X207717803Y-88434388D01*
X207717803Y-88434388D02*
X207670184Y-88339150D01*
X207670184Y-88339150D02*
X207670184Y-88148674D01*
X207670184Y-88148674D02*
X207717803Y-88053436D01*
X208289232Y-88482007D02*
X208336851Y-88386769D01*
X208336851Y-88386769D02*
X208336851Y-88148674D01*
X208336851Y-88148674D02*
X208289232Y-88053436D01*
X208289232Y-88053436D02*
X208193993Y-88005817D01*
X208193993Y-88005817D02*
X208098755Y-88005817D01*
X208098755Y-88005817D02*
X208003517Y-88053436D01*
X208003517Y-88053436D02*
X207955898Y-88148674D01*
X207955898Y-88148674D02*
X207955898Y-88386769D01*
X207955898Y-88386769D02*
X207908279Y-88482007D01*
X207670184Y-88958198D02*
X208336851Y-88958198D01*
X207765422Y-88958198D02*
X207717803Y-89005817D01*
X207717803Y-89005817D02*
X207670184Y-89101055D01*
X207670184Y-89101055D02*
X207670184Y-89243912D01*
X207670184Y-89243912D02*
X207717803Y-89339150D01*
X207717803Y-89339150D02*
X207813041Y-89386769D01*
X207813041Y-89386769D02*
X208336851Y-89386769D01*
X208336851Y-91053436D02*
X207813041Y-91053436D01*
X207813041Y-91053436D02*
X207717803Y-91005817D01*
X207717803Y-91005817D02*
X207670184Y-90910579D01*
X207670184Y-90910579D02*
X207670184Y-90720103D01*
X207670184Y-90720103D02*
X207717803Y-90624865D01*
X208289232Y-91053436D02*
X208336851Y-90958198D01*
X208336851Y-90958198D02*
X208336851Y-90720103D01*
X208336851Y-90720103D02*
X208289232Y-90624865D01*
X208289232Y-90624865D02*
X208193993Y-90577246D01*
X208193993Y-90577246D02*
X208098755Y-90577246D01*
X208098755Y-90577246D02*
X208003517Y-90624865D01*
X208003517Y-90624865D02*
X207955898Y-90720103D01*
X207955898Y-90720103D02*
X207955898Y-90958198D01*
X207955898Y-90958198D02*
X207908279Y-91053436D01*
X208336851Y-91672484D02*
X208289232Y-91577246D01*
X208289232Y-91577246D02*
X208193993Y-91529627D01*
X208193993Y-91529627D02*
X207336851Y-91529627D01*
X208289232Y-92005818D02*
X208336851Y-92101056D01*
X208336851Y-92101056D02*
X208336851Y-92291532D01*
X208336851Y-92291532D02*
X208289232Y-92386770D01*
X208289232Y-92386770D02*
X208193993Y-92434389D01*
X208193993Y-92434389D02*
X208146374Y-92434389D01*
X208146374Y-92434389D02*
X208051136Y-92386770D01*
X208051136Y-92386770D02*
X208003517Y-92291532D01*
X208003517Y-92291532D02*
X208003517Y-92148675D01*
X208003517Y-92148675D02*
X207955898Y-92053437D01*
X207955898Y-92053437D02*
X207860660Y-92005818D01*
X207860660Y-92005818D02*
X207813041Y-92005818D01*
X207813041Y-92005818D02*
X207717803Y-92053437D01*
X207717803Y-92053437D02*
X207670184Y-92148675D01*
X207670184Y-92148675D02*
X207670184Y-92291532D01*
X207670184Y-92291532D02*
X207717803Y-92386770D01*
X208336851Y-93005818D02*
X208289232Y-92910580D01*
X208289232Y-92910580D02*
X208241612Y-92862961D01*
X208241612Y-92862961D02*
X208146374Y-92815342D01*
X208146374Y-92815342D02*
X207860660Y-92815342D01*
X207860660Y-92815342D02*
X207765422Y-92862961D01*
X207765422Y-92862961D02*
X207717803Y-92910580D01*
X207717803Y-92910580D02*
X207670184Y-93005818D01*
X207670184Y-93005818D02*
X207670184Y-93148675D01*
X207670184Y-93148675D02*
X207717803Y-93243913D01*
X207717803Y-93243913D02*
X207765422Y-93291532D01*
X207765422Y-93291532D02*
X207860660Y-93339151D01*
X207860660Y-93339151D02*
X208146374Y-93339151D01*
X208146374Y-93339151D02*
X208241612Y-93291532D01*
X208241612Y-93291532D02*
X208289232Y-93243913D01*
X208289232Y-93243913D02*
X208336851Y-93148675D01*
X208336851Y-93148675D02*
X208336851Y-93005818D01*
X208289232Y-94482009D02*
X208336851Y-94577247D01*
X208336851Y-94577247D02*
X208336851Y-94767723D01*
X208336851Y-94767723D02*
X208289232Y-94862961D01*
X208289232Y-94862961D02*
X208193993Y-94910580D01*
X208193993Y-94910580D02*
X208146374Y-94910580D01*
X208146374Y-94910580D02*
X208051136Y-94862961D01*
X208051136Y-94862961D02*
X208003517Y-94767723D01*
X208003517Y-94767723D02*
X208003517Y-94624866D01*
X208003517Y-94624866D02*
X207955898Y-94529628D01*
X207955898Y-94529628D02*
X207860660Y-94482009D01*
X207860660Y-94482009D02*
X207813041Y-94482009D01*
X207813041Y-94482009D02*
X207717803Y-94529628D01*
X207717803Y-94529628D02*
X207670184Y-94624866D01*
X207670184Y-94624866D02*
X207670184Y-94767723D01*
X207670184Y-94767723D02*
X207717803Y-94862961D01*
X208336851Y-95339152D02*
X207670184Y-95339152D01*
X207336851Y-95339152D02*
X207384470Y-95291533D01*
X207384470Y-95291533D02*
X207432089Y-95339152D01*
X207432089Y-95339152D02*
X207384470Y-95386771D01*
X207384470Y-95386771D02*
X207336851Y-95339152D01*
X207336851Y-95339152D02*
X207432089Y-95339152D01*
X208336851Y-95815342D02*
X207670184Y-95815342D01*
X207765422Y-95815342D02*
X207717803Y-95862961D01*
X207717803Y-95862961D02*
X207670184Y-95958199D01*
X207670184Y-95958199D02*
X207670184Y-96101056D01*
X207670184Y-96101056D02*
X207717803Y-96196294D01*
X207717803Y-96196294D02*
X207813041Y-96243913D01*
X207813041Y-96243913D02*
X208336851Y-96243913D01*
X207813041Y-96243913D02*
X207717803Y-96291532D01*
X207717803Y-96291532D02*
X207670184Y-96386770D01*
X207670184Y-96386770D02*
X207670184Y-96529627D01*
X207670184Y-96529627D02*
X207717803Y-96624866D01*
X207717803Y-96624866D02*
X207813041Y-96672485D01*
X207813041Y-96672485D02*
X208336851Y-96672485D01*
X207670184Y-97148675D02*
X208670184Y-97148675D01*
X207717803Y-97148675D02*
X207670184Y-97243913D01*
X207670184Y-97243913D02*
X207670184Y-97434389D01*
X207670184Y-97434389D02*
X207717803Y-97529627D01*
X207717803Y-97529627D02*
X207765422Y-97577246D01*
X207765422Y-97577246D02*
X207860660Y-97624865D01*
X207860660Y-97624865D02*
X208146374Y-97624865D01*
X208146374Y-97624865D02*
X208241612Y-97577246D01*
X208241612Y-97577246D02*
X208289232Y-97529627D01*
X208289232Y-97529627D02*
X208336851Y-97434389D01*
X208336851Y-97434389D02*
X208336851Y-97243913D01*
X208336851Y-97243913D02*
X208289232Y-97148675D01*
X208336851Y-98196294D02*
X208289232Y-98101056D01*
X208289232Y-98101056D02*
X208193993Y-98053437D01*
X208193993Y-98053437D02*
X207336851Y-98053437D01*
X207670184Y-98482009D02*
X208336851Y-98720104D01*
X207670184Y-98958199D02*
X208336851Y-98720104D01*
X208336851Y-98720104D02*
X208574946Y-98624866D01*
X208574946Y-98624866D02*
X208622565Y-98577247D01*
X208622565Y-98577247D02*
X208670184Y-98482009D01*
X207670184Y-100101057D02*
X208336851Y-100101057D01*
X207765422Y-100101057D02*
X207717803Y-100148676D01*
X207717803Y-100148676D02*
X207670184Y-100243914D01*
X207670184Y-100243914D02*
X207670184Y-100386771D01*
X207670184Y-100386771D02*
X207717803Y-100482009D01*
X207717803Y-100482009D02*
X207813041Y-100529628D01*
X207813041Y-100529628D02*
X208336851Y-100529628D01*
X208336851Y-101148676D02*
X208289232Y-101053438D01*
X208289232Y-101053438D02*
X208241612Y-101005819D01*
X208241612Y-101005819D02*
X208146374Y-100958200D01*
X208146374Y-100958200D02*
X207860660Y-100958200D01*
X207860660Y-100958200D02*
X207765422Y-101005819D01*
X207765422Y-101005819D02*
X207717803Y-101053438D01*
X207717803Y-101053438D02*
X207670184Y-101148676D01*
X207670184Y-101148676D02*
X207670184Y-101291533D01*
X207670184Y-101291533D02*
X207717803Y-101386771D01*
X207717803Y-101386771D02*
X207765422Y-101434390D01*
X207765422Y-101434390D02*
X207860660Y-101482009D01*
X207860660Y-101482009D02*
X208146374Y-101482009D01*
X208146374Y-101482009D02*
X208241612Y-101434390D01*
X208241612Y-101434390D02*
X208289232Y-101386771D01*
X208289232Y-101386771D02*
X208336851Y-101291533D01*
X208336851Y-101291533D02*
X208336851Y-101148676D01*
X207670184Y-101767724D02*
X207670184Y-102148676D01*
X207336851Y-101910581D02*
X208193993Y-101910581D01*
X208193993Y-101910581D02*
X208289232Y-101958200D01*
X208289232Y-101958200D02*
X208336851Y-102053438D01*
X208336851Y-102053438D02*
X208336851Y-102148676D01*
X208289232Y-103672486D02*
X208336851Y-103577248D01*
X208336851Y-103577248D02*
X208336851Y-103386772D01*
X208336851Y-103386772D02*
X208289232Y-103291534D01*
X208289232Y-103291534D02*
X208241612Y-103243915D01*
X208241612Y-103243915D02*
X208146374Y-103196296D01*
X208146374Y-103196296D02*
X207860660Y-103196296D01*
X207860660Y-103196296D02*
X207765422Y-103243915D01*
X207765422Y-103243915D02*
X207717803Y-103291534D01*
X207717803Y-103291534D02*
X207670184Y-103386772D01*
X207670184Y-103386772D02*
X207670184Y-103577248D01*
X207670184Y-103577248D02*
X207717803Y-103672486D01*
X208336851Y-104243915D02*
X208289232Y-104148677D01*
X208289232Y-104148677D02*
X208241612Y-104101058D01*
X208241612Y-104101058D02*
X208146374Y-104053439D01*
X208146374Y-104053439D02*
X207860660Y-104053439D01*
X207860660Y-104053439D02*
X207765422Y-104101058D01*
X207765422Y-104101058D02*
X207717803Y-104148677D01*
X207717803Y-104148677D02*
X207670184Y-104243915D01*
X207670184Y-104243915D02*
X207670184Y-104386772D01*
X207670184Y-104386772D02*
X207717803Y-104482010D01*
X207717803Y-104482010D02*
X207765422Y-104529629D01*
X207765422Y-104529629D02*
X207860660Y-104577248D01*
X207860660Y-104577248D02*
X208146374Y-104577248D01*
X208146374Y-104577248D02*
X208241612Y-104529629D01*
X208241612Y-104529629D02*
X208289232Y-104482010D01*
X208289232Y-104482010D02*
X208336851Y-104386772D01*
X208336851Y-104386772D02*
X208336851Y-104243915D01*
X207670184Y-105005820D02*
X208336851Y-105005820D01*
X207765422Y-105005820D02*
X207717803Y-105053439D01*
X207717803Y-105053439D02*
X207670184Y-105148677D01*
X207670184Y-105148677D02*
X207670184Y-105291534D01*
X207670184Y-105291534D02*
X207717803Y-105386772D01*
X207717803Y-105386772D02*
X207813041Y-105434391D01*
X207813041Y-105434391D02*
X208336851Y-105434391D01*
X207670184Y-105910582D02*
X208336851Y-105910582D01*
X207765422Y-105910582D02*
X207717803Y-105958201D01*
X207717803Y-105958201D02*
X207670184Y-106053439D01*
X207670184Y-106053439D02*
X207670184Y-106196296D01*
X207670184Y-106196296D02*
X207717803Y-106291534D01*
X207717803Y-106291534D02*
X207813041Y-106339153D01*
X207813041Y-106339153D02*
X208336851Y-106339153D01*
X208289232Y-107196296D02*
X208336851Y-107101058D01*
X208336851Y-107101058D02*
X208336851Y-106910582D01*
X208336851Y-106910582D02*
X208289232Y-106815344D01*
X208289232Y-106815344D02*
X208193993Y-106767725D01*
X208193993Y-106767725D02*
X207813041Y-106767725D01*
X207813041Y-106767725D02*
X207717803Y-106815344D01*
X207717803Y-106815344D02*
X207670184Y-106910582D01*
X207670184Y-106910582D02*
X207670184Y-107101058D01*
X207670184Y-107101058D02*
X207717803Y-107196296D01*
X207717803Y-107196296D02*
X207813041Y-107243915D01*
X207813041Y-107243915D02*
X207908279Y-107243915D01*
X207908279Y-107243915D02*
X208003517Y-106767725D01*
X208289232Y-108101058D02*
X208336851Y-108005820D01*
X208336851Y-108005820D02*
X208336851Y-107815344D01*
X208336851Y-107815344D02*
X208289232Y-107720106D01*
X208289232Y-107720106D02*
X208241612Y-107672487D01*
X208241612Y-107672487D02*
X208146374Y-107624868D01*
X208146374Y-107624868D02*
X207860660Y-107624868D01*
X207860660Y-107624868D02*
X207765422Y-107672487D01*
X207765422Y-107672487D02*
X207717803Y-107720106D01*
X207717803Y-107720106D02*
X207670184Y-107815344D01*
X207670184Y-107815344D02*
X207670184Y-108005820D01*
X207670184Y-108005820D02*
X207717803Y-108101058D01*
X207670184Y-108386773D02*
X207670184Y-108767725D01*
X207336851Y-108529630D02*
X208193993Y-108529630D01*
X208193993Y-108529630D02*
X208289232Y-108577249D01*
X208289232Y-108577249D02*
X208336851Y-108672487D01*
X208336851Y-108672487D02*
X208336851Y-108767725D01*
X209280128Y-83624864D02*
X209280128Y-84005816D01*
X208946795Y-83767721D02*
X209803937Y-83767721D01*
X209803937Y-83767721D02*
X209899176Y-83815340D01*
X209899176Y-83815340D02*
X209946795Y-83910578D01*
X209946795Y-83910578D02*
X209946795Y-84005816D01*
X209946795Y-84339150D02*
X208946795Y-84339150D01*
X209946795Y-84767721D02*
X209422985Y-84767721D01*
X209422985Y-84767721D02*
X209327747Y-84720102D01*
X209327747Y-84720102D02*
X209280128Y-84624864D01*
X209280128Y-84624864D02*
X209280128Y-84482007D01*
X209280128Y-84482007D02*
X209327747Y-84386769D01*
X209327747Y-84386769D02*
X209375366Y-84339150D01*
X209899176Y-85624864D02*
X209946795Y-85529626D01*
X209946795Y-85529626D02*
X209946795Y-85339150D01*
X209946795Y-85339150D02*
X209899176Y-85243912D01*
X209899176Y-85243912D02*
X209803937Y-85196293D01*
X209803937Y-85196293D02*
X209422985Y-85196293D01*
X209422985Y-85196293D02*
X209327747Y-85243912D01*
X209327747Y-85243912D02*
X209280128Y-85339150D01*
X209280128Y-85339150D02*
X209280128Y-85529626D01*
X209280128Y-85529626D02*
X209327747Y-85624864D01*
X209327747Y-85624864D02*
X209422985Y-85672483D01*
X209422985Y-85672483D02*
X209518223Y-85672483D01*
X209518223Y-85672483D02*
X209613461Y-85196293D01*
X209946795Y-86862960D02*
X208946795Y-86862960D01*
X209327747Y-86862960D02*
X209280128Y-86958198D01*
X209280128Y-86958198D02*
X209280128Y-87148674D01*
X209280128Y-87148674D02*
X209327747Y-87243912D01*
X209327747Y-87243912D02*
X209375366Y-87291531D01*
X209375366Y-87291531D02*
X209470604Y-87339150D01*
X209470604Y-87339150D02*
X209756318Y-87339150D01*
X209756318Y-87339150D02*
X209851556Y-87291531D01*
X209851556Y-87291531D02*
X209899176Y-87243912D01*
X209899176Y-87243912D02*
X209946795Y-87148674D01*
X209946795Y-87148674D02*
X209946795Y-86958198D01*
X209946795Y-86958198D02*
X209899176Y-86862960D01*
X209946795Y-87910579D02*
X209899176Y-87815341D01*
X209899176Y-87815341D02*
X209851556Y-87767722D01*
X209851556Y-87767722D02*
X209756318Y-87720103D01*
X209756318Y-87720103D02*
X209470604Y-87720103D01*
X209470604Y-87720103D02*
X209375366Y-87767722D01*
X209375366Y-87767722D02*
X209327747Y-87815341D01*
X209327747Y-87815341D02*
X209280128Y-87910579D01*
X209280128Y-87910579D02*
X209280128Y-88053436D01*
X209280128Y-88053436D02*
X209327747Y-88148674D01*
X209327747Y-88148674D02*
X209375366Y-88196293D01*
X209375366Y-88196293D02*
X209470604Y-88243912D01*
X209470604Y-88243912D02*
X209756318Y-88243912D01*
X209756318Y-88243912D02*
X209851556Y-88196293D01*
X209851556Y-88196293D02*
X209899176Y-88148674D01*
X209899176Y-88148674D02*
X209946795Y-88053436D01*
X209946795Y-88053436D02*
X209946795Y-87910579D01*
X209946795Y-88577246D02*
X209280128Y-89101055D01*
X209280128Y-88577246D02*
X209946795Y-89101055D01*
X209899176Y-89862960D02*
X209946795Y-89767722D01*
X209946795Y-89767722D02*
X209946795Y-89577246D01*
X209946795Y-89577246D02*
X209899176Y-89482008D01*
X209899176Y-89482008D02*
X209803937Y-89434389D01*
X209803937Y-89434389D02*
X209422985Y-89434389D01*
X209422985Y-89434389D02*
X209327747Y-89482008D01*
X209327747Y-89482008D02*
X209280128Y-89577246D01*
X209280128Y-89577246D02*
X209280128Y-89767722D01*
X209280128Y-89767722D02*
X209327747Y-89862960D01*
X209327747Y-89862960D02*
X209422985Y-89910579D01*
X209422985Y-89910579D02*
X209518223Y-89910579D01*
X209518223Y-89910579D02*
X209613461Y-89434389D01*
X209946795Y-90767722D02*
X208946795Y-90767722D01*
X209899176Y-90767722D02*
X209946795Y-90672484D01*
X209946795Y-90672484D02*
X209946795Y-90482008D01*
X209946795Y-90482008D02*
X209899176Y-90386770D01*
X209899176Y-90386770D02*
X209851556Y-90339151D01*
X209851556Y-90339151D02*
X209756318Y-90291532D01*
X209756318Y-90291532D02*
X209470604Y-90291532D01*
X209470604Y-90291532D02*
X209375366Y-90339151D01*
X209375366Y-90339151D02*
X209327747Y-90386770D01*
X209327747Y-90386770D02*
X209280128Y-90482008D01*
X209280128Y-90482008D02*
X209280128Y-90672484D01*
X209280128Y-90672484D02*
X209327747Y-90767722D01*
X209280128Y-92005818D02*
X210280128Y-92005818D01*
X209327747Y-92005818D02*
X209280128Y-92101056D01*
X209280128Y-92101056D02*
X209280128Y-92291532D01*
X209280128Y-92291532D02*
X209327747Y-92386770D01*
X209327747Y-92386770D02*
X209375366Y-92434389D01*
X209375366Y-92434389D02*
X209470604Y-92482008D01*
X209470604Y-92482008D02*
X209756318Y-92482008D01*
X209756318Y-92482008D02*
X209851556Y-92434389D01*
X209851556Y-92434389D02*
X209899176Y-92386770D01*
X209899176Y-92386770D02*
X209946795Y-92291532D01*
X209946795Y-92291532D02*
X209946795Y-92101056D01*
X209946795Y-92101056D02*
X209899176Y-92005818D01*
X209946795Y-92910580D02*
X209280128Y-92910580D01*
X208946795Y-92910580D02*
X208994414Y-92862961D01*
X208994414Y-92862961D02*
X209042033Y-92910580D01*
X209042033Y-92910580D02*
X208994414Y-92958199D01*
X208994414Y-92958199D02*
X208946795Y-92910580D01*
X208946795Y-92910580D02*
X209042033Y-92910580D01*
X209280128Y-93386770D02*
X209946795Y-93386770D01*
X209375366Y-93386770D02*
X209327747Y-93434389D01*
X209327747Y-93434389D02*
X209280128Y-93529627D01*
X209280128Y-93529627D02*
X209280128Y-93672484D01*
X209280128Y-93672484D02*
X209327747Y-93767722D01*
X209327747Y-93767722D02*
X209422985Y-93815341D01*
X209422985Y-93815341D02*
X209946795Y-93815341D01*
X209899176Y-94243913D02*
X209946795Y-94339151D01*
X209946795Y-94339151D02*
X209946795Y-94529627D01*
X209946795Y-94529627D02*
X209899176Y-94624865D01*
X209899176Y-94624865D02*
X209803937Y-94672484D01*
X209803937Y-94672484D02*
X209756318Y-94672484D01*
X209756318Y-94672484D02*
X209661080Y-94624865D01*
X209661080Y-94624865D02*
X209613461Y-94529627D01*
X209613461Y-94529627D02*
X209613461Y-94386770D01*
X209613461Y-94386770D02*
X209565842Y-94291532D01*
X209565842Y-94291532D02*
X209470604Y-94243913D01*
X209470604Y-94243913D02*
X209422985Y-94243913D01*
X209422985Y-94243913D02*
X209327747Y-94291532D01*
X209327747Y-94291532D02*
X209280128Y-94386770D01*
X209280128Y-94386770D02*
X209280128Y-94529627D01*
X209280128Y-94529627D02*
X209327747Y-94624865D01*
X209946795Y-95862961D02*
X209280128Y-95862961D01*
X208946795Y-95862961D02*
X208994414Y-95815342D01*
X208994414Y-95815342D02*
X209042033Y-95862961D01*
X209042033Y-95862961D02*
X208994414Y-95910580D01*
X208994414Y-95910580D02*
X208946795Y-95862961D01*
X208946795Y-95862961D02*
X209042033Y-95862961D01*
X209280128Y-96196294D02*
X209280128Y-96577246D01*
X209946795Y-96339151D02*
X209089652Y-96339151D01*
X209089652Y-96339151D02*
X208994414Y-96386770D01*
X208994414Y-96386770D02*
X208946795Y-96482008D01*
X208946795Y-96482008D02*
X208946795Y-96577246D01*
X209280128Y-97577247D02*
X209946795Y-97815342D01*
X209280128Y-98053437D02*
X209946795Y-97815342D01*
X209946795Y-97815342D02*
X210184890Y-97720104D01*
X210184890Y-97720104D02*
X210232509Y-97672485D01*
X210232509Y-97672485D02*
X210280128Y-97577247D01*
X209946795Y-98577247D02*
X209899176Y-98482009D01*
X209899176Y-98482009D02*
X209851556Y-98434390D01*
X209851556Y-98434390D02*
X209756318Y-98386771D01*
X209756318Y-98386771D02*
X209470604Y-98386771D01*
X209470604Y-98386771D02*
X209375366Y-98434390D01*
X209375366Y-98434390D02*
X209327747Y-98482009D01*
X209327747Y-98482009D02*
X209280128Y-98577247D01*
X209280128Y-98577247D02*
X209280128Y-98720104D01*
X209280128Y-98720104D02*
X209327747Y-98815342D01*
X209327747Y-98815342D02*
X209375366Y-98862961D01*
X209375366Y-98862961D02*
X209470604Y-98910580D01*
X209470604Y-98910580D02*
X209756318Y-98910580D01*
X209756318Y-98910580D02*
X209851556Y-98862961D01*
X209851556Y-98862961D02*
X209899176Y-98815342D01*
X209899176Y-98815342D02*
X209946795Y-98720104D01*
X209946795Y-98720104D02*
X209946795Y-98577247D01*
X209280128Y-99767723D02*
X209946795Y-99767723D01*
X209280128Y-99339152D02*
X209803937Y-99339152D01*
X209803937Y-99339152D02*
X209899176Y-99386771D01*
X209899176Y-99386771D02*
X209946795Y-99482009D01*
X209946795Y-99482009D02*
X209946795Y-99624866D01*
X209946795Y-99624866D02*
X209899176Y-99720104D01*
X209899176Y-99720104D02*
X209851556Y-99767723D01*
X209280128Y-100910581D02*
X209946795Y-101101057D01*
X209946795Y-101101057D02*
X209470604Y-101291533D01*
X209470604Y-101291533D02*
X209946795Y-101482009D01*
X209946795Y-101482009D02*
X209280128Y-101672485D01*
X209946795Y-102482009D02*
X209422985Y-102482009D01*
X209422985Y-102482009D02*
X209327747Y-102434390D01*
X209327747Y-102434390D02*
X209280128Y-102339152D01*
X209280128Y-102339152D02*
X209280128Y-102148676D01*
X209280128Y-102148676D02*
X209327747Y-102053438D01*
X209899176Y-102482009D02*
X209946795Y-102386771D01*
X209946795Y-102386771D02*
X209946795Y-102148676D01*
X209946795Y-102148676D02*
X209899176Y-102053438D01*
X209899176Y-102053438D02*
X209803937Y-102005819D01*
X209803937Y-102005819D02*
X209708699Y-102005819D01*
X209708699Y-102005819D02*
X209613461Y-102053438D01*
X209613461Y-102053438D02*
X209565842Y-102148676D01*
X209565842Y-102148676D02*
X209565842Y-102386771D01*
X209565842Y-102386771D02*
X209518223Y-102482009D01*
X209280128Y-102958200D02*
X209946795Y-102958200D01*
X209375366Y-102958200D02*
X209327747Y-103005819D01*
X209327747Y-103005819D02*
X209280128Y-103101057D01*
X209280128Y-103101057D02*
X209280128Y-103243914D01*
X209280128Y-103243914D02*
X209327747Y-103339152D01*
X209327747Y-103339152D02*
X209422985Y-103386771D01*
X209422985Y-103386771D02*
X209946795Y-103386771D01*
X209280128Y-103720105D02*
X209280128Y-104101057D01*
X208946795Y-103862962D02*
X209803937Y-103862962D01*
X209803937Y-103862962D02*
X209899176Y-103910581D01*
X209899176Y-103910581D02*
X209946795Y-104005819D01*
X209946795Y-104005819D02*
X209946795Y-104101057D01*
X209280128Y-105053439D02*
X209280128Y-105434391D01*
X208946795Y-105196296D02*
X209803937Y-105196296D01*
X209803937Y-105196296D02*
X209899176Y-105243915D01*
X209899176Y-105243915D02*
X209946795Y-105339153D01*
X209946795Y-105339153D02*
X209946795Y-105434391D01*
X209946795Y-105910582D02*
X209899176Y-105815344D01*
X209899176Y-105815344D02*
X209851556Y-105767725D01*
X209851556Y-105767725D02*
X209756318Y-105720106D01*
X209756318Y-105720106D02*
X209470604Y-105720106D01*
X209470604Y-105720106D02*
X209375366Y-105767725D01*
X209375366Y-105767725D02*
X209327747Y-105815344D01*
X209327747Y-105815344D02*
X209280128Y-105910582D01*
X209280128Y-105910582D02*
X209280128Y-106053439D01*
X209280128Y-106053439D02*
X209327747Y-106148677D01*
X209327747Y-106148677D02*
X209375366Y-106196296D01*
X209375366Y-106196296D02*
X209470604Y-106243915D01*
X209470604Y-106243915D02*
X209756318Y-106243915D01*
X209756318Y-106243915D02*
X209851556Y-106196296D01*
X209851556Y-106196296D02*
X209899176Y-106148677D01*
X209899176Y-106148677D02*
X209946795Y-106053439D01*
X209946795Y-106053439D02*
X209946795Y-105910582D01*
X209280128Y-107862963D02*
X209946795Y-107862963D01*
X209280128Y-107434392D02*
X209803937Y-107434392D01*
X209803937Y-107434392D02*
X209899176Y-107482011D01*
X209899176Y-107482011D02*
X209946795Y-107577249D01*
X209946795Y-107577249D02*
X209946795Y-107720106D01*
X209946795Y-107720106D02*
X209899176Y-107815344D01*
X209899176Y-107815344D02*
X209851556Y-107862963D01*
X209899176Y-108291535D02*
X209946795Y-108386773D01*
X209946795Y-108386773D02*
X209946795Y-108577249D01*
X209946795Y-108577249D02*
X209899176Y-108672487D01*
X209899176Y-108672487D02*
X209803937Y-108720106D01*
X209803937Y-108720106D02*
X209756318Y-108720106D01*
X209756318Y-108720106D02*
X209661080Y-108672487D01*
X209661080Y-108672487D02*
X209613461Y-108577249D01*
X209613461Y-108577249D02*
X209613461Y-108434392D01*
X209613461Y-108434392D02*
X209565842Y-108339154D01*
X209565842Y-108339154D02*
X209470604Y-108291535D01*
X209470604Y-108291535D02*
X209422985Y-108291535D01*
X209422985Y-108291535D02*
X209327747Y-108339154D01*
X209327747Y-108339154D02*
X209280128Y-108434392D01*
X209280128Y-108434392D02*
X209280128Y-108577249D01*
X209280128Y-108577249D02*
X209327747Y-108672487D01*
X209899176Y-109529630D02*
X209946795Y-109434392D01*
X209946795Y-109434392D02*
X209946795Y-109243916D01*
X209946795Y-109243916D02*
X209899176Y-109148678D01*
X209899176Y-109148678D02*
X209803937Y-109101059D01*
X209803937Y-109101059D02*
X209422985Y-109101059D01*
X209422985Y-109101059D02*
X209327747Y-109148678D01*
X209327747Y-109148678D02*
X209280128Y-109243916D01*
X209280128Y-109243916D02*
X209280128Y-109434392D01*
X209280128Y-109434392D02*
X209327747Y-109529630D01*
X209327747Y-109529630D02*
X209422985Y-109577249D01*
X209422985Y-109577249D02*
X209518223Y-109577249D01*
X209518223Y-109577249D02*
X209613461Y-109101059D01*
X209899176Y-111148678D02*
X209946795Y-111053440D01*
X209946795Y-111053440D02*
X209946795Y-110862964D01*
X209946795Y-110862964D02*
X209899176Y-110767726D01*
X209899176Y-110767726D02*
X209803937Y-110720107D01*
X209803937Y-110720107D02*
X209422985Y-110720107D01*
X209422985Y-110720107D02*
X209327747Y-110767726D01*
X209327747Y-110767726D02*
X209280128Y-110862964D01*
X209280128Y-110862964D02*
X209280128Y-111053440D01*
X209280128Y-111053440D02*
X209327747Y-111148678D01*
X209327747Y-111148678D02*
X209422985Y-111196297D01*
X209422985Y-111196297D02*
X209518223Y-111196297D01*
X209518223Y-111196297D02*
X209613461Y-110720107D01*
X209946795Y-111529631D02*
X209280128Y-112053440D01*
X209280128Y-111529631D02*
X209946795Y-112053440D01*
X209280128Y-112291536D02*
X209280128Y-112672488D01*
X208946795Y-112434393D02*
X209803937Y-112434393D01*
X209803937Y-112434393D02*
X209899176Y-112482012D01*
X209899176Y-112482012D02*
X209946795Y-112577250D01*
X209946795Y-112577250D02*
X209946795Y-112672488D01*
X209899176Y-113386774D02*
X209946795Y-113291536D01*
X209946795Y-113291536D02*
X209946795Y-113101060D01*
X209946795Y-113101060D02*
X209899176Y-113005822D01*
X209899176Y-113005822D02*
X209803937Y-112958203D01*
X209803937Y-112958203D02*
X209422985Y-112958203D01*
X209422985Y-112958203D02*
X209327747Y-113005822D01*
X209327747Y-113005822D02*
X209280128Y-113101060D01*
X209280128Y-113101060D02*
X209280128Y-113291536D01*
X209280128Y-113291536D02*
X209327747Y-113386774D01*
X209327747Y-113386774D02*
X209422985Y-113434393D01*
X209422985Y-113434393D02*
X209518223Y-113434393D01*
X209518223Y-113434393D02*
X209613461Y-112958203D01*
X209946795Y-113862965D02*
X209280128Y-113862965D01*
X209470604Y-113862965D02*
X209375366Y-113910584D01*
X209375366Y-113910584D02*
X209327747Y-113958203D01*
X209327747Y-113958203D02*
X209280128Y-114053441D01*
X209280128Y-114053441D02*
X209280128Y-114148679D01*
X209280128Y-114482013D02*
X209946795Y-114482013D01*
X209375366Y-114482013D02*
X209327747Y-114529632D01*
X209327747Y-114529632D02*
X209280128Y-114624870D01*
X209280128Y-114624870D02*
X209280128Y-114767727D01*
X209280128Y-114767727D02*
X209327747Y-114862965D01*
X209327747Y-114862965D02*
X209422985Y-114910584D01*
X209422985Y-114910584D02*
X209946795Y-114910584D01*
X209946795Y-115815346D02*
X209422985Y-115815346D01*
X209422985Y-115815346D02*
X209327747Y-115767727D01*
X209327747Y-115767727D02*
X209280128Y-115672489D01*
X209280128Y-115672489D02*
X209280128Y-115482013D01*
X209280128Y-115482013D02*
X209327747Y-115386775D01*
X209899176Y-115815346D02*
X209946795Y-115720108D01*
X209946795Y-115720108D02*
X209946795Y-115482013D01*
X209946795Y-115482013D02*
X209899176Y-115386775D01*
X209899176Y-115386775D02*
X209803937Y-115339156D01*
X209803937Y-115339156D02*
X209708699Y-115339156D01*
X209708699Y-115339156D02*
X209613461Y-115386775D01*
X209613461Y-115386775D02*
X209565842Y-115482013D01*
X209565842Y-115482013D02*
X209565842Y-115720108D01*
X209565842Y-115720108D02*
X209518223Y-115815346D01*
X209946795Y-116434394D02*
X209899176Y-116339156D01*
X209899176Y-116339156D02*
X209803937Y-116291537D01*
X209803937Y-116291537D02*
X208946795Y-116291537D01*
X209280128Y-117577252D02*
X210280128Y-117577252D01*
X209327747Y-117577252D02*
X209280128Y-117672490D01*
X209280128Y-117672490D02*
X209280128Y-117862966D01*
X209280128Y-117862966D02*
X209327747Y-117958204D01*
X209327747Y-117958204D02*
X209375366Y-118005823D01*
X209375366Y-118005823D02*
X209470604Y-118053442D01*
X209470604Y-118053442D02*
X209756318Y-118053442D01*
X209756318Y-118053442D02*
X209851556Y-118005823D01*
X209851556Y-118005823D02*
X209899176Y-117958204D01*
X209899176Y-117958204D02*
X209946795Y-117862966D01*
X209946795Y-117862966D02*
X209946795Y-117672490D01*
X209946795Y-117672490D02*
X209899176Y-117577252D01*
X209946795Y-118624871D02*
X209899176Y-118529633D01*
X209899176Y-118529633D02*
X209851556Y-118482014D01*
X209851556Y-118482014D02*
X209756318Y-118434395D01*
X209756318Y-118434395D02*
X209470604Y-118434395D01*
X209470604Y-118434395D02*
X209375366Y-118482014D01*
X209375366Y-118482014D02*
X209327747Y-118529633D01*
X209327747Y-118529633D02*
X209280128Y-118624871D01*
X209280128Y-118624871D02*
X209280128Y-118767728D01*
X209280128Y-118767728D02*
X209327747Y-118862966D01*
X209327747Y-118862966D02*
X209375366Y-118910585D01*
X209375366Y-118910585D02*
X209470604Y-118958204D01*
X209470604Y-118958204D02*
X209756318Y-118958204D01*
X209756318Y-118958204D02*
X209851556Y-118910585D01*
X209851556Y-118910585D02*
X209899176Y-118862966D01*
X209899176Y-118862966D02*
X209946795Y-118767728D01*
X209946795Y-118767728D02*
X209946795Y-118624871D01*
X209280128Y-119291538D02*
X209946795Y-119482014D01*
X209946795Y-119482014D02*
X209470604Y-119672490D01*
X209470604Y-119672490D02*
X209946795Y-119862966D01*
X209946795Y-119862966D02*
X209280128Y-120053442D01*
X209899176Y-120815347D02*
X209946795Y-120720109D01*
X209946795Y-120720109D02*
X209946795Y-120529633D01*
X209946795Y-120529633D02*
X209899176Y-120434395D01*
X209899176Y-120434395D02*
X209803937Y-120386776D01*
X209803937Y-120386776D02*
X209422985Y-120386776D01*
X209422985Y-120386776D02*
X209327747Y-120434395D01*
X209327747Y-120434395D02*
X209280128Y-120529633D01*
X209280128Y-120529633D02*
X209280128Y-120720109D01*
X209280128Y-120720109D02*
X209327747Y-120815347D01*
X209327747Y-120815347D02*
X209422985Y-120862966D01*
X209422985Y-120862966D02*
X209518223Y-120862966D01*
X209518223Y-120862966D02*
X209613461Y-120386776D01*
X209946795Y-121291538D02*
X209280128Y-121291538D01*
X209470604Y-121291538D02*
X209375366Y-121339157D01*
X209375366Y-121339157D02*
X209327747Y-121386776D01*
X209327747Y-121386776D02*
X209280128Y-121482014D01*
X209280128Y-121482014D02*
X209280128Y-121577252D01*
X149973624Y-101400016D02*
X150068862Y-101352397D01*
X150068862Y-101352397D02*
X150211719Y-101352397D01*
X150211719Y-101352397D02*
X150354576Y-101400016D01*
X150354576Y-101400016D02*
X150449814Y-101495254D01*
X150449814Y-101495254D02*
X150497433Y-101590492D01*
X150497433Y-101590492D02*
X150545052Y-101780968D01*
X150545052Y-101780968D02*
X150545052Y-101923825D01*
X150545052Y-101923825D02*
X150497433Y-102114301D01*
X150497433Y-102114301D02*
X150449814Y-102209539D01*
X150449814Y-102209539D02*
X150354576Y-102304778D01*
X150354576Y-102304778D02*
X150211719Y-102352397D01*
X150211719Y-102352397D02*
X150116481Y-102352397D01*
X150116481Y-102352397D02*
X149973624Y-102304778D01*
X149973624Y-102304778D02*
X149926005Y-102257158D01*
X149926005Y-102257158D02*
X149926005Y-101923825D01*
X149926005Y-101923825D02*
X150116481Y-101923825D01*
X149497433Y-102352397D02*
X149497433Y-101685730D01*
X149497433Y-101876206D02*
X149449814Y-101780968D01*
X149449814Y-101780968D02*
X149402195Y-101733349D01*
X149402195Y-101733349D02*
X149306957Y-101685730D01*
X149306957Y-101685730D02*
X149211719Y-101685730D01*
X148735528Y-102352397D02*
X148830766Y-102304778D01*
X148830766Y-102304778D02*
X148878385Y-102257158D01*
X148878385Y-102257158D02*
X148926004Y-102161920D01*
X148926004Y-102161920D02*
X148926004Y-101876206D01*
X148926004Y-101876206D02*
X148878385Y-101780968D01*
X148878385Y-101780968D02*
X148830766Y-101733349D01*
X148830766Y-101733349D02*
X148735528Y-101685730D01*
X148735528Y-101685730D02*
X148592671Y-101685730D01*
X148592671Y-101685730D02*
X148497433Y-101733349D01*
X148497433Y-101733349D02*
X148449814Y-101780968D01*
X148449814Y-101780968D02*
X148402195Y-101876206D01*
X148402195Y-101876206D02*
X148402195Y-102161920D01*
X148402195Y-102161920D02*
X148449814Y-102257158D01*
X148449814Y-102257158D02*
X148497433Y-102304778D01*
X148497433Y-102304778D02*
X148592671Y-102352397D01*
X148592671Y-102352397D02*
X148735528Y-102352397D01*
X147545052Y-101685730D02*
X147545052Y-102352397D01*
X147973623Y-101685730D02*
X147973623Y-102209539D01*
X147973623Y-102209539D02*
X147926004Y-102304778D01*
X147926004Y-102304778D02*
X147830766Y-102352397D01*
X147830766Y-102352397D02*
X147687909Y-102352397D01*
X147687909Y-102352397D02*
X147592671Y-102304778D01*
X147592671Y-102304778D02*
X147545052Y-102257158D01*
X147068861Y-101685730D02*
X147068861Y-102352397D01*
X147068861Y-101780968D02*
X147021242Y-101733349D01*
X147021242Y-101733349D02*
X146926004Y-101685730D01*
X146926004Y-101685730D02*
X146783147Y-101685730D01*
X146783147Y-101685730D02*
X146687909Y-101733349D01*
X146687909Y-101733349D02*
X146640290Y-101828587D01*
X146640290Y-101828587D02*
X146640290Y-102352397D01*
X145735528Y-102352397D02*
X145735528Y-101352397D01*
X145735528Y-102304778D02*
X145830766Y-102352397D01*
X145830766Y-102352397D02*
X146021242Y-102352397D01*
X146021242Y-102352397D02*
X146116480Y-102304778D01*
X146116480Y-102304778D02*
X146164099Y-102257158D01*
X146164099Y-102257158D02*
X146211718Y-102161920D01*
X146211718Y-102161920D02*
X146211718Y-101876206D01*
X146211718Y-101876206D02*
X146164099Y-101780968D01*
X146164099Y-101780968D02*
X146116480Y-101733349D01*
X146116480Y-101733349D02*
X146021242Y-101685730D01*
X146021242Y-101685730D02*
X145830766Y-101685730D01*
X145830766Y-101685730D02*
X145735528Y-101733349D01*
X144497432Y-102352397D02*
X144497432Y-101352397D01*
X144497432Y-101352397D02*
X144116480Y-101352397D01*
X144116480Y-101352397D02*
X144021242Y-101400016D01*
X144021242Y-101400016D02*
X143973623Y-101447635D01*
X143973623Y-101447635D02*
X143926004Y-101542873D01*
X143926004Y-101542873D02*
X143926004Y-101685730D01*
X143926004Y-101685730D02*
X143973623Y-101780968D01*
X143973623Y-101780968D02*
X144021242Y-101828587D01*
X144021242Y-101828587D02*
X144116480Y-101876206D01*
X144116480Y-101876206D02*
X144497432Y-101876206D01*
X143497432Y-102352397D02*
X143497432Y-101685730D01*
X143497432Y-101352397D02*
X143545051Y-101400016D01*
X143545051Y-101400016D02*
X143497432Y-101447635D01*
X143497432Y-101447635D02*
X143449813Y-101400016D01*
X143449813Y-101400016D02*
X143497432Y-101352397D01*
X143497432Y-101352397D02*
X143497432Y-101447635D01*
X143021242Y-101685730D02*
X143021242Y-102352397D01*
X143021242Y-101780968D02*
X142973623Y-101733349D01*
X142973623Y-101733349D02*
X142878385Y-101685730D01*
X142878385Y-101685730D02*
X142735528Y-101685730D01*
X142735528Y-101685730D02*
X142640290Y-101733349D01*
X142640290Y-101733349D02*
X142592671Y-101828587D01*
X142592671Y-101828587D02*
X142592671Y-102352397D01*
X142164099Y-102304778D02*
X142068861Y-102352397D01*
X142068861Y-102352397D02*
X141878385Y-102352397D01*
X141878385Y-102352397D02*
X141783147Y-102304778D01*
X141783147Y-102304778D02*
X141735528Y-102209539D01*
X141735528Y-102209539D02*
X141735528Y-102161920D01*
X141735528Y-102161920D02*
X141783147Y-102066682D01*
X141783147Y-102066682D02*
X141878385Y-102019063D01*
X141878385Y-102019063D02*
X142021242Y-102019063D01*
X142021242Y-102019063D02*
X142116480Y-101971444D01*
X142116480Y-101971444D02*
X142164099Y-101876206D01*
X142164099Y-101876206D02*
X142164099Y-101828587D01*
X142164099Y-101828587D02*
X142116480Y-101733349D01*
X142116480Y-101733349D02*
X142021242Y-101685730D01*
X142021242Y-101685730D02*
X141878385Y-101685730D01*
X141878385Y-101685730D02*
X141783147Y-101733349D01*
X141306956Y-102257158D02*
X141259337Y-102304778D01*
X141259337Y-102304778D02*
X141306956Y-102352397D01*
X141306956Y-102352397D02*
X141354575Y-102304778D01*
X141354575Y-102304778D02*
X141306956Y-102257158D01*
X141306956Y-102257158D02*
X141306956Y-102352397D01*
X141306956Y-101971444D02*
X141354575Y-101400016D01*
X141354575Y-101400016D02*
X141306956Y-101352397D01*
X141306956Y-101352397D02*
X141259337Y-101400016D01*
X141259337Y-101400016D02*
X141306956Y-101971444D01*
X141306956Y-101971444D02*
X141306956Y-101352397D01*
X197486421Y-102572283D02*
X197962611Y-102572283D01*
X197962611Y-102572283D02*
X198010230Y-103048473D01*
X198010230Y-103048473D02*
X197962611Y-103000854D01*
X197962611Y-103000854D02*
X197867373Y-102953235D01*
X197867373Y-102953235D02*
X197629278Y-102953235D01*
X197629278Y-102953235D02*
X197534040Y-103000854D01*
X197534040Y-103000854D02*
X197486421Y-103048473D01*
X197486421Y-103048473D02*
X197438802Y-103143711D01*
X197438802Y-103143711D02*
X197438802Y-103381806D01*
X197438802Y-103381806D02*
X197486421Y-103477044D01*
X197486421Y-103477044D02*
X197534040Y-103524664D01*
X197534040Y-103524664D02*
X197629278Y-103572283D01*
X197629278Y-103572283D02*
X197867373Y-103572283D01*
X197867373Y-103572283D02*
X197962611Y-103524664D01*
X197962611Y-103524664D02*
X198010230Y-103477044D01*
X197153087Y-102572283D02*
X196819754Y-103572283D01*
X196819754Y-103572283D02*
X196486421Y-102572283D01*
%LPC*%
D11*
X182537298Y-96520000D03*
D12*
X180537298Y-96520000D03*
D13*
X203200000Y-109220000D03*
D14*
X200660000Y-109220000D03*
X203200000Y-106680000D03*
X200660000Y-106680000D03*
X203200000Y-104140000D03*
X200660000Y-104140000D03*
X203200000Y-101600000D03*
X200660000Y-101600000D03*
X203200000Y-99060000D03*
X200660000Y-99060000D03*
X203200000Y-96520000D03*
X200660000Y-96520000D03*
X203200000Y-93980000D03*
X200660000Y-93980000D03*
X203200000Y-91440000D03*
X200660000Y-91440000D03*
X203200000Y-88900000D03*
X200660000Y-88900000D03*
X203200000Y-86360000D03*
D15*
X127982944Y-79582944D03*
X128685888Y-77885888D03*
X128685888Y-81280000D03*
X130382944Y-77182944D03*
D16*
X130382944Y-79582944D03*
D15*
X130382944Y-81982944D03*
X132080000Y-77885888D03*
X132080000Y-81280000D03*
X132782944Y-79582944D03*
D17*
X127121518Y-89985866D03*
D14*
X129661518Y-89985866D03*
X132201518Y-89985866D03*
X134741518Y-89985866D03*
D15*
X127982944Y-118537056D03*
X128685888Y-116840000D03*
X128685888Y-120234112D03*
X130382944Y-116137056D03*
D16*
X130382944Y-118537056D03*
D15*
X130382944Y-120937056D03*
X132080000Y-116840000D03*
X132080000Y-120234112D03*
X132782944Y-118537056D03*
D18*
X168970731Y-99073586D03*
D19*
X168970731Y-83833586D03*
D20*
X182880000Y-104140000D03*
D14*
X182880000Y-106680000D03*
X180340000Y-104140000D03*
X180340000Y-106680000D03*
X177800000Y-104140000D03*
X177800000Y-106680000D03*
X175260000Y-104140000D03*
X175260000Y-106680000D03*
X172720000Y-104140000D03*
X172720000Y-106680000D03*
X170180000Y-104140000D03*
X170180000Y-106680000D03*
X167640000Y-104140000D03*
X167640000Y-106680000D03*
X165100000Y-104140000D03*
X165100000Y-106680000D03*
X162560000Y-104140000D03*
X162560000Y-106680000D03*
X160020000Y-104140000D03*
X160020000Y-106680000D03*
X157480000Y-104140000D03*
X157480000Y-106680000D03*
X154940000Y-104140000D03*
X154940000Y-106680000D03*
X152400000Y-104140000D03*
X152400000Y-106680000D03*
X149860000Y-104140000D03*
X149860000Y-106680000D03*
X147320000Y-104140000D03*
X147320000Y-106680000D03*
X144780000Y-104140000D03*
X144780000Y-106680000D03*
X142240000Y-104140000D03*
X142240000Y-106680000D03*
D18*
X189127578Y-115669743D03*
D19*
X189127578Y-100429743D03*
D18*
X175260000Y-99060000D03*
D19*
X175260000Y-83820000D03*
D21*
X193360000Y-96520000D03*
D22*
X193360000Y-93980000D03*
X193360000Y-91440000D03*
X193360000Y-88900000D03*
X193360000Y-86360000D03*
X193360000Y-83820000D03*
X193360000Y-81280000D03*
X193360000Y-78740000D03*
X185420000Y-78740000D03*
X185420000Y-81280000D03*
X185420000Y-83820000D03*
X185420000Y-86360000D03*
X185420000Y-88900000D03*
X185420000Y-91440000D03*
X185420000Y-93980000D03*
X185420000Y-96520000D03*
D23*
X157800000Y-96520000D03*
D24*
X157800000Y-93980000D03*
X157800000Y-91440000D03*
X157800000Y-88900000D03*
X157800000Y-86360000D03*
X157800000Y-83820000D03*
X157800000Y-81280000D03*
X149860000Y-81280000D03*
X149860000Y-83820000D03*
X149860000Y-86360000D03*
X149860000Y-88900000D03*
X149860000Y-91440000D03*
X149860000Y-93980000D03*
X149860000Y-96520000D03*
D20*
X182880000Y-116840000D03*
D14*
X182880000Y-119380000D03*
X180340000Y-116840000D03*
X180340000Y-119380000D03*
X177800000Y-116840000D03*
X177800000Y-119380000D03*
X175260000Y-116840000D03*
X175260000Y-119380000D03*
X172720000Y-116840000D03*
X172720000Y-119380000D03*
X170180000Y-116840000D03*
X170180000Y-119380000D03*
X167640000Y-116840000D03*
X167640000Y-119380000D03*
X165100000Y-116840000D03*
X165100000Y-119380000D03*
X162560000Y-116840000D03*
X162560000Y-119380000D03*
X160020000Y-116840000D03*
X160020000Y-119380000D03*
X157480000Y-116840000D03*
X157480000Y-119380000D03*
X154940000Y-116840000D03*
X154940000Y-119380000D03*
X152400000Y-116840000D03*
X152400000Y-119380000D03*
X149860000Y-116840000D03*
X149860000Y-119380000D03*
X147320000Y-116840000D03*
X147320000Y-119380000D03*
X144780000Y-116840000D03*
X144780000Y-119380000D03*
X142240000Y-116840000D03*
X142240000Y-119380000D03*
D17*
X127070000Y-109195000D03*
D14*
X129610000Y-109195000D03*
X132150000Y-109195000D03*
X134690000Y-109195000D03*
D11*
X146780000Y-96520000D03*
D12*
X144780000Y-96520000D03*
D15*
X202497056Y-79582944D03*
X203200000Y-77885888D03*
X203200000Y-81280000D03*
X204897056Y-77182944D03*
D16*
X204897056Y-79582944D03*
D15*
X204897056Y-81982944D03*
D25*
X206594112Y-77885888D03*
D15*
X206594112Y-81280000D03*
X207297056Y-79582944D03*
X202497056Y-118537056D03*
X203200000Y-116840000D03*
X203200000Y-120234112D03*
X204897056Y-116137056D03*
D16*
X204897056Y-118537056D03*
D15*
X204897056Y-120937056D03*
X206594112Y-116840000D03*
X206594112Y-120234112D03*
X207297056Y-118537056D03*
D18*
X162560000Y-99060000D03*
D19*
X162560000Y-83820000D03*
%LPD*%
M02*
