G04 #@! TF.GenerationSoftware,KiCad,Pcbnew,8.0.3*
G04 #@! TF.CreationDate,2024-06-26T21:01:40-07:00*
G04 #@! TF.ProjectId,PCTGotekAdapter,50435447-6f74-4656-9b41-646170746572,B*
G04 #@! TF.SameCoordinates,Original*
G04 #@! TF.FileFunction,Soldermask,Top*
G04 #@! TF.FilePolarity,Negative*
%FSLAX46Y46*%
G04 Gerber Fmt 4.6, Leading zero omitted, Abs format (unit mm)*
G04 Created by KiCad (PCBNEW 8.0.3) date 2024-06-26 21:01:40*
%MOMM*%
%LPD*%
G01*
G04 APERTURE LIST*
G04 APERTURE END LIST*
G36*
X130906794Y-115341712D02*
G01*
X131249201Y-115417081D01*
X131581451Y-115529029D01*
X131899651Y-115676244D01*
X132200068Y-115856999D01*
X132479181Y-116069175D01*
X132733717Y-116310285D01*
X132960693Y-116577502D01*
X133157448Y-116867693D01*
X133321673Y-117177455D01*
X133451445Y-117503158D01*
X133545241Y-117840982D01*
X133601963Y-118186967D01*
X133620944Y-118537056D01*
X133601963Y-118887145D01*
X133545241Y-119233130D01*
X133451445Y-119570954D01*
X133321673Y-119896657D01*
X133157448Y-120206419D01*
X132960693Y-120496610D01*
X132733717Y-120763827D01*
X132479181Y-121004937D01*
X132200068Y-121217113D01*
X131899651Y-121397868D01*
X131581451Y-121545083D01*
X131249201Y-121657031D01*
X130906794Y-121732400D01*
X130558246Y-121770307D01*
X130207642Y-121770307D01*
X129859094Y-121732400D01*
X129516687Y-121657031D01*
X129184437Y-121545083D01*
X128866237Y-121397868D01*
X128565820Y-121217113D01*
X128286707Y-121004937D01*
X128032171Y-120763827D01*
X127805195Y-120496610D01*
X127608440Y-120206419D01*
X127444215Y-119896657D01*
X127314443Y-119570954D01*
X127220647Y-119233130D01*
X127163925Y-118887145D01*
X127144944Y-118537056D01*
X127163925Y-118186967D01*
X127220647Y-117840982D01*
X127314443Y-117503158D01*
X127444215Y-117177455D01*
X127608440Y-116867693D01*
X127805195Y-116577502D01*
X128032171Y-116310285D01*
X128286707Y-116069175D01*
X128565820Y-115856999D01*
X128866237Y-115676244D01*
X129184437Y-115529029D01*
X129516687Y-115417081D01*
X129859094Y-115341712D01*
X130207642Y-115303805D01*
X130558246Y-115303805D01*
X130906794Y-115341712D01*
G37*
G36*
X205420906Y-115341712D02*
G01*
X205763313Y-115417081D01*
X206095563Y-115529029D01*
X206413763Y-115676244D01*
X206714180Y-115856999D01*
X206993293Y-116069175D01*
X207247829Y-116310285D01*
X207474805Y-116577502D01*
X207671560Y-116867693D01*
X207835785Y-117177455D01*
X207965557Y-117503158D01*
X208059353Y-117840982D01*
X208116075Y-118186967D01*
X208135056Y-118537056D01*
X208116075Y-118887145D01*
X208059353Y-119233130D01*
X207965557Y-119570954D01*
X207835785Y-119896657D01*
X207671560Y-120206419D01*
X207474805Y-120496610D01*
X207247829Y-120763827D01*
X206993293Y-121004937D01*
X206714180Y-121217113D01*
X206413763Y-121397868D01*
X206095563Y-121545083D01*
X205763313Y-121657031D01*
X205420906Y-121732400D01*
X205072358Y-121770307D01*
X204721754Y-121770307D01*
X204373206Y-121732400D01*
X204030799Y-121657031D01*
X203698549Y-121545083D01*
X203380349Y-121397868D01*
X203079932Y-121217113D01*
X202800819Y-121004937D01*
X202546283Y-120763827D01*
X202319307Y-120496610D01*
X202122552Y-120206419D01*
X201958327Y-119896657D01*
X201828555Y-119570954D01*
X201734759Y-119233130D01*
X201678037Y-118887145D01*
X201659056Y-118537056D01*
X201678037Y-118186967D01*
X201734759Y-117840982D01*
X201828555Y-117503158D01*
X201958327Y-117177455D01*
X202122552Y-116867693D01*
X202319307Y-116577502D01*
X202546283Y-116310285D01*
X202800819Y-116069175D01*
X203079932Y-115856999D01*
X203380349Y-115676244D01*
X203698549Y-115529029D01*
X204030799Y-115417081D01*
X204373206Y-115341712D01*
X204721754Y-115303805D01*
X205072358Y-115303805D01*
X205420906Y-115341712D01*
G37*
G36*
X142514407Y-118535462D02*
G01*
X142684000Y-118610969D01*
X142834188Y-118720087D01*
X142958407Y-118858047D01*
X143051228Y-119018818D01*
X143108595Y-119195374D01*
X143128000Y-119380000D01*
X143108595Y-119564626D01*
X143051228Y-119741182D01*
X142958407Y-119901953D01*
X142834188Y-120039913D01*
X142684000Y-120149031D01*
X142514407Y-120224538D01*
X142332821Y-120263135D01*
X142147179Y-120263135D01*
X141965593Y-120224538D01*
X141796000Y-120149031D01*
X141645812Y-120039913D01*
X141521593Y-119901953D01*
X141428772Y-119741182D01*
X141371405Y-119564626D01*
X141352000Y-119380000D01*
X141371405Y-119195374D01*
X141428772Y-119018818D01*
X141521593Y-118858047D01*
X141645812Y-118720087D01*
X141796000Y-118610969D01*
X141965593Y-118535462D01*
X142147179Y-118496865D01*
X142332821Y-118496865D01*
X142514407Y-118535462D01*
G37*
G36*
X145054407Y-118535462D02*
G01*
X145224000Y-118610969D01*
X145374188Y-118720087D01*
X145498407Y-118858047D01*
X145591228Y-119018818D01*
X145648595Y-119195374D01*
X145668000Y-119380000D01*
X145648595Y-119564626D01*
X145591228Y-119741182D01*
X145498407Y-119901953D01*
X145374188Y-120039913D01*
X145224000Y-120149031D01*
X145054407Y-120224538D01*
X144872821Y-120263135D01*
X144687179Y-120263135D01*
X144505593Y-120224538D01*
X144336000Y-120149031D01*
X144185812Y-120039913D01*
X144061593Y-119901953D01*
X143968772Y-119741182D01*
X143911405Y-119564626D01*
X143892000Y-119380000D01*
X143911405Y-119195374D01*
X143968772Y-119018818D01*
X144061593Y-118858047D01*
X144185812Y-118720087D01*
X144336000Y-118610969D01*
X144505593Y-118535462D01*
X144687179Y-118496865D01*
X144872821Y-118496865D01*
X145054407Y-118535462D01*
G37*
G36*
X147594407Y-118535462D02*
G01*
X147764000Y-118610969D01*
X147914188Y-118720087D01*
X148038407Y-118858047D01*
X148131228Y-119018818D01*
X148188595Y-119195374D01*
X148208000Y-119380000D01*
X148188595Y-119564626D01*
X148131228Y-119741182D01*
X148038407Y-119901953D01*
X147914188Y-120039913D01*
X147764000Y-120149031D01*
X147594407Y-120224538D01*
X147412821Y-120263135D01*
X147227179Y-120263135D01*
X147045593Y-120224538D01*
X146876000Y-120149031D01*
X146725812Y-120039913D01*
X146601593Y-119901953D01*
X146508772Y-119741182D01*
X146451405Y-119564626D01*
X146432000Y-119380000D01*
X146451405Y-119195374D01*
X146508772Y-119018818D01*
X146601593Y-118858047D01*
X146725812Y-118720087D01*
X146876000Y-118610969D01*
X147045593Y-118535462D01*
X147227179Y-118496865D01*
X147412821Y-118496865D01*
X147594407Y-118535462D01*
G37*
G36*
X150134407Y-118535462D02*
G01*
X150304000Y-118610969D01*
X150454188Y-118720087D01*
X150578407Y-118858047D01*
X150671228Y-119018818D01*
X150728595Y-119195374D01*
X150748000Y-119380000D01*
X150728595Y-119564626D01*
X150671228Y-119741182D01*
X150578407Y-119901953D01*
X150454188Y-120039913D01*
X150304000Y-120149031D01*
X150134407Y-120224538D01*
X149952821Y-120263135D01*
X149767179Y-120263135D01*
X149585593Y-120224538D01*
X149416000Y-120149031D01*
X149265812Y-120039913D01*
X149141593Y-119901953D01*
X149048772Y-119741182D01*
X148991405Y-119564626D01*
X148972000Y-119380000D01*
X148991405Y-119195374D01*
X149048772Y-119018818D01*
X149141593Y-118858047D01*
X149265812Y-118720087D01*
X149416000Y-118610969D01*
X149585593Y-118535462D01*
X149767179Y-118496865D01*
X149952821Y-118496865D01*
X150134407Y-118535462D01*
G37*
G36*
X152674407Y-118535462D02*
G01*
X152844000Y-118610969D01*
X152994188Y-118720087D01*
X153118407Y-118858047D01*
X153211228Y-119018818D01*
X153268595Y-119195374D01*
X153288000Y-119380000D01*
X153268595Y-119564626D01*
X153211228Y-119741182D01*
X153118407Y-119901953D01*
X152994188Y-120039913D01*
X152844000Y-120149031D01*
X152674407Y-120224538D01*
X152492821Y-120263135D01*
X152307179Y-120263135D01*
X152125593Y-120224538D01*
X151956000Y-120149031D01*
X151805812Y-120039913D01*
X151681593Y-119901953D01*
X151588772Y-119741182D01*
X151531405Y-119564626D01*
X151512000Y-119380000D01*
X151531405Y-119195374D01*
X151588772Y-119018818D01*
X151681593Y-118858047D01*
X151805812Y-118720087D01*
X151956000Y-118610969D01*
X152125593Y-118535462D01*
X152307179Y-118496865D01*
X152492821Y-118496865D01*
X152674407Y-118535462D01*
G37*
G36*
X155214407Y-118535462D02*
G01*
X155384000Y-118610969D01*
X155534188Y-118720087D01*
X155658407Y-118858047D01*
X155751228Y-119018818D01*
X155808595Y-119195374D01*
X155828000Y-119380000D01*
X155808595Y-119564626D01*
X155751228Y-119741182D01*
X155658407Y-119901953D01*
X155534188Y-120039913D01*
X155384000Y-120149031D01*
X155214407Y-120224538D01*
X155032821Y-120263135D01*
X154847179Y-120263135D01*
X154665593Y-120224538D01*
X154496000Y-120149031D01*
X154345812Y-120039913D01*
X154221593Y-119901953D01*
X154128772Y-119741182D01*
X154071405Y-119564626D01*
X154052000Y-119380000D01*
X154071405Y-119195374D01*
X154128772Y-119018818D01*
X154221593Y-118858047D01*
X154345812Y-118720087D01*
X154496000Y-118610969D01*
X154665593Y-118535462D01*
X154847179Y-118496865D01*
X155032821Y-118496865D01*
X155214407Y-118535462D01*
G37*
G36*
X157754407Y-118535462D02*
G01*
X157924000Y-118610969D01*
X158074188Y-118720087D01*
X158198407Y-118858047D01*
X158291228Y-119018818D01*
X158348595Y-119195374D01*
X158368000Y-119380000D01*
X158348595Y-119564626D01*
X158291228Y-119741182D01*
X158198407Y-119901953D01*
X158074188Y-120039913D01*
X157924000Y-120149031D01*
X157754407Y-120224538D01*
X157572821Y-120263135D01*
X157387179Y-120263135D01*
X157205593Y-120224538D01*
X157036000Y-120149031D01*
X156885812Y-120039913D01*
X156761593Y-119901953D01*
X156668772Y-119741182D01*
X156611405Y-119564626D01*
X156592000Y-119380000D01*
X156611405Y-119195374D01*
X156668772Y-119018818D01*
X156761593Y-118858047D01*
X156885812Y-118720087D01*
X157036000Y-118610969D01*
X157205593Y-118535462D01*
X157387179Y-118496865D01*
X157572821Y-118496865D01*
X157754407Y-118535462D01*
G37*
G36*
X160294407Y-118535462D02*
G01*
X160464000Y-118610969D01*
X160614188Y-118720087D01*
X160738407Y-118858047D01*
X160831228Y-119018818D01*
X160888595Y-119195374D01*
X160908000Y-119380000D01*
X160888595Y-119564626D01*
X160831228Y-119741182D01*
X160738407Y-119901953D01*
X160614188Y-120039913D01*
X160464000Y-120149031D01*
X160294407Y-120224538D01*
X160112821Y-120263135D01*
X159927179Y-120263135D01*
X159745593Y-120224538D01*
X159576000Y-120149031D01*
X159425812Y-120039913D01*
X159301593Y-119901953D01*
X159208772Y-119741182D01*
X159151405Y-119564626D01*
X159132000Y-119380000D01*
X159151405Y-119195374D01*
X159208772Y-119018818D01*
X159301593Y-118858047D01*
X159425812Y-118720087D01*
X159576000Y-118610969D01*
X159745593Y-118535462D01*
X159927179Y-118496865D01*
X160112821Y-118496865D01*
X160294407Y-118535462D01*
G37*
G36*
X162834407Y-118535462D02*
G01*
X163004000Y-118610969D01*
X163154188Y-118720087D01*
X163278407Y-118858047D01*
X163371228Y-119018818D01*
X163428595Y-119195374D01*
X163448000Y-119380000D01*
X163428595Y-119564626D01*
X163371228Y-119741182D01*
X163278407Y-119901953D01*
X163154188Y-120039913D01*
X163004000Y-120149031D01*
X162834407Y-120224538D01*
X162652821Y-120263135D01*
X162467179Y-120263135D01*
X162285593Y-120224538D01*
X162116000Y-120149031D01*
X161965812Y-120039913D01*
X161841593Y-119901953D01*
X161748772Y-119741182D01*
X161691405Y-119564626D01*
X161672000Y-119380000D01*
X161691405Y-119195374D01*
X161748772Y-119018818D01*
X161841593Y-118858047D01*
X161965812Y-118720087D01*
X162116000Y-118610969D01*
X162285593Y-118535462D01*
X162467179Y-118496865D01*
X162652821Y-118496865D01*
X162834407Y-118535462D01*
G37*
G36*
X165374407Y-118535462D02*
G01*
X165544000Y-118610969D01*
X165694188Y-118720087D01*
X165818407Y-118858047D01*
X165911228Y-119018818D01*
X165968595Y-119195374D01*
X165988000Y-119380000D01*
X165968595Y-119564626D01*
X165911228Y-119741182D01*
X165818407Y-119901953D01*
X165694188Y-120039913D01*
X165544000Y-120149031D01*
X165374407Y-120224538D01*
X165192821Y-120263135D01*
X165007179Y-120263135D01*
X164825593Y-120224538D01*
X164656000Y-120149031D01*
X164505812Y-120039913D01*
X164381593Y-119901953D01*
X164288772Y-119741182D01*
X164231405Y-119564626D01*
X164212000Y-119380000D01*
X164231405Y-119195374D01*
X164288772Y-119018818D01*
X164381593Y-118858047D01*
X164505812Y-118720087D01*
X164656000Y-118610969D01*
X164825593Y-118535462D01*
X165007179Y-118496865D01*
X165192821Y-118496865D01*
X165374407Y-118535462D01*
G37*
G36*
X167914407Y-118535462D02*
G01*
X168084000Y-118610969D01*
X168234188Y-118720087D01*
X168358407Y-118858047D01*
X168451228Y-119018818D01*
X168508595Y-119195374D01*
X168528000Y-119380000D01*
X168508595Y-119564626D01*
X168451228Y-119741182D01*
X168358407Y-119901953D01*
X168234188Y-120039913D01*
X168084000Y-120149031D01*
X167914407Y-120224538D01*
X167732821Y-120263135D01*
X167547179Y-120263135D01*
X167365593Y-120224538D01*
X167196000Y-120149031D01*
X167045812Y-120039913D01*
X166921593Y-119901953D01*
X166828772Y-119741182D01*
X166771405Y-119564626D01*
X166752000Y-119380000D01*
X166771405Y-119195374D01*
X166828772Y-119018818D01*
X166921593Y-118858047D01*
X167045812Y-118720087D01*
X167196000Y-118610969D01*
X167365593Y-118535462D01*
X167547179Y-118496865D01*
X167732821Y-118496865D01*
X167914407Y-118535462D01*
G37*
G36*
X170454407Y-118535462D02*
G01*
X170624000Y-118610969D01*
X170774188Y-118720087D01*
X170898407Y-118858047D01*
X170991228Y-119018818D01*
X171048595Y-119195374D01*
X171068000Y-119380000D01*
X171048595Y-119564626D01*
X170991228Y-119741182D01*
X170898407Y-119901953D01*
X170774188Y-120039913D01*
X170624000Y-120149031D01*
X170454407Y-120224538D01*
X170272821Y-120263135D01*
X170087179Y-120263135D01*
X169905593Y-120224538D01*
X169736000Y-120149031D01*
X169585812Y-120039913D01*
X169461593Y-119901953D01*
X169368772Y-119741182D01*
X169311405Y-119564626D01*
X169292000Y-119380000D01*
X169311405Y-119195374D01*
X169368772Y-119018818D01*
X169461593Y-118858047D01*
X169585812Y-118720087D01*
X169736000Y-118610969D01*
X169905593Y-118535462D01*
X170087179Y-118496865D01*
X170272821Y-118496865D01*
X170454407Y-118535462D01*
G37*
G36*
X172994407Y-118535462D02*
G01*
X173164000Y-118610969D01*
X173314188Y-118720087D01*
X173438407Y-118858047D01*
X173531228Y-119018818D01*
X173588595Y-119195374D01*
X173608000Y-119380000D01*
X173588595Y-119564626D01*
X173531228Y-119741182D01*
X173438407Y-119901953D01*
X173314188Y-120039913D01*
X173164000Y-120149031D01*
X172994407Y-120224538D01*
X172812821Y-120263135D01*
X172627179Y-120263135D01*
X172445593Y-120224538D01*
X172276000Y-120149031D01*
X172125812Y-120039913D01*
X172001593Y-119901953D01*
X171908772Y-119741182D01*
X171851405Y-119564626D01*
X171832000Y-119380000D01*
X171851405Y-119195374D01*
X171908772Y-119018818D01*
X172001593Y-118858047D01*
X172125812Y-118720087D01*
X172276000Y-118610969D01*
X172445593Y-118535462D01*
X172627179Y-118496865D01*
X172812821Y-118496865D01*
X172994407Y-118535462D01*
G37*
G36*
X175534407Y-118535462D02*
G01*
X175704000Y-118610969D01*
X175854188Y-118720087D01*
X175978407Y-118858047D01*
X176071228Y-119018818D01*
X176128595Y-119195374D01*
X176148000Y-119380000D01*
X176128595Y-119564626D01*
X176071228Y-119741182D01*
X175978407Y-119901953D01*
X175854188Y-120039913D01*
X175704000Y-120149031D01*
X175534407Y-120224538D01*
X175352821Y-120263135D01*
X175167179Y-120263135D01*
X174985593Y-120224538D01*
X174816000Y-120149031D01*
X174665812Y-120039913D01*
X174541593Y-119901953D01*
X174448772Y-119741182D01*
X174391405Y-119564626D01*
X174372000Y-119380000D01*
X174391405Y-119195374D01*
X174448772Y-119018818D01*
X174541593Y-118858047D01*
X174665812Y-118720087D01*
X174816000Y-118610969D01*
X174985593Y-118535462D01*
X175167179Y-118496865D01*
X175352821Y-118496865D01*
X175534407Y-118535462D01*
G37*
G36*
X178074407Y-118535462D02*
G01*
X178244000Y-118610969D01*
X178394188Y-118720087D01*
X178518407Y-118858047D01*
X178611228Y-119018818D01*
X178668595Y-119195374D01*
X178688000Y-119380000D01*
X178668595Y-119564626D01*
X178611228Y-119741182D01*
X178518407Y-119901953D01*
X178394188Y-120039913D01*
X178244000Y-120149031D01*
X178074407Y-120224538D01*
X177892821Y-120263135D01*
X177707179Y-120263135D01*
X177525593Y-120224538D01*
X177356000Y-120149031D01*
X177205812Y-120039913D01*
X177081593Y-119901953D01*
X176988772Y-119741182D01*
X176931405Y-119564626D01*
X176912000Y-119380000D01*
X176931405Y-119195374D01*
X176988772Y-119018818D01*
X177081593Y-118858047D01*
X177205812Y-118720087D01*
X177356000Y-118610969D01*
X177525593Y-118535462D01*
X177707179Y-118496865D01*
X177892821Y-118496865D01*
X178074407Y-118535462D01*
G37*
G36*
X180614407Y-118535462D02*
G01*
X180784000Y-118610969D01*
X180934188Y-118720087D01*
X181058407Y-118858047D01*
X181151228Y-119018818D01*
X181208595Y-119195374D01*
X181228000Y-119380000D01*
X181208595Y-119564626D01*
X181151228Y-119741182D01*
X181058407Y-119901953D01*
X180934188Y-120039913D01*
X180784000Y-120149031D01*
X180614407Y-120224538D01*
X180432821Y-120263135D01*
X180247179Y-120263135D01*
X180065593Y-120224538D01*
X179896000Y-120149031D01*
X179745812Y-120039913D01*
X179621593Y-119901953D01*
X179528772Y-119741182D01*
X179471405Y-119564626D01*
X179452000Y-119380000D01*
X179471405Y-119195374D01*
X179528772Y-119018818D01*
X179621593Y-118858047D01*
X179745812Y-118720087D01*
X179896000Y-118610969D01*
X180065593Y-118535462D01*
X180247179Y-118496865D01*
X180432821Y-118496865D01*
X180614407Y-118535462D01*
G37*
G36*
X183154407Y-118535462D02*
G01*
X183324000Y-118610969D01*
X183474188Y-118720087D01*
X183598407Y-118858047D01*
X183691228Y-119018818D01*
X183748595Y-119195374D01*
X183768000Y-119380000D01*
X183748595Y-119564626D01*
X183691228Y-119741182D01*
X183598407Y-119901953D01*
X183474188Y-120039913D01*
X183324000Y-120149031D01*
X183154407Y-120224538D01*
X182972821Y-120263135D01*
X182787179Y-120263135D01*
X182605593Y-120224538D01*
X182436000Y-120149031D01*
X182285812Y-120039913D01*
X182161593Y-119901953D01*
X182068772Y-119741182D01*
X182011405Y-119564626D01*
X181992000Y-119380000D01*
X182011405Y-119195374D01*
X182068772Y-119018818D01*
X182161593Y-118858047D01*
X182285812Y-118720087D01*
X182436000Y-118610969D01*
X182605593Y-118535462D01*
X182787179Y-118496865D01*
X182972821Y-118496865D01*
X183154407Y-118535462D01*
G37*
G36*
X183744542Y-115954893D02*
G01*
X183756870Y-115963130D01*
X183765107Y-115975458D01*
X183768000Y-115990000D01*
X183768000Y-117690000D01*
X183765107Y-117704542D01*
X183756870Y-117716870D01*
X183744542Y-117725107D01*
X183730000Y-117728000D01*
X182030000Y-117728000D01*
X182015458Y-117725107D01*
X182003130Y-117716870D01*
X181994893Y-117704542D01*
X181992000Y-117690000D01*
X181992000Y-115990000D01*
X181994893Y-115975458D01*
X182003130Y-115963130D01*
X182015458Y-115954893D01*
X182030000Y-115952000D01*
X183730000Y-115952000D01*
X183744542Y-115954893D01*
G37*
G36*
X142514407Y-115995462D02*
G01*
X142684000Y-116070969D01*
X142834188Y-116180087D01*
X142958407Y-116318047D01*
X143051228Y-116478818D01*
X143108595Y-116655374D01*
X143128000Y-116840000D01*
X143108595Y-117024626D01*
X143051228Y-117201182D01*
X142958407Y-117361953D01*
X142834188Y-117499913D01*
X142684000Y-117609031D01*
X142514407Y-117684538D01*
X142332821Y-117723135D01*
X142147179Y-117723135D01*
X141965593Y-117684538D01*
X141796000Y-117609031D01*
X141645812Y-117499913D01*
X141521593Y-117361953D01*
X141428772Y-117201182D01*
X141371405Y-117024626D01*
X141352000Y-116840000D01*
X141371405Y-116655374D01*
X141428772Y-116478818D01*
X141521593Y-116318047D01*
X141645812Y-116180087D01*
X141796000Y-116070969D01*
X141965593Y-115995462D01*
X142147179Y-115956865D01*
X142332821Y-115956865D01*
X142514407Y-115995462D01*
G37*
G36*
X145054407Y-115995462D02*
G01*
X145224000Y-116070969D01*
X145374188Y-116180087D01*
X145498407Y-116318047D01*
X145591228Y-116478818D01*
X145648595Y-116655374D01*
X145668000Y-116840000D01*
X145648595Y-117024626D01*
X145591228Y-117201182D01*
X145498407Y-117361953D01*
X145374188Y-117499913D01*
X145224000Y-117609031D01*
X145054407Y-117684538D01*
X144872821Y-117723135D01*
X144687179Y-117723135D01*
X144505593Y-117684538D01*
X144336000Y-117609031D01*
X144185812Y-117499913D01*
X144061593Y-117361953D01*
X143968772Y-117201182D01*
X143911405Y-117024626D01*
X143892000Y-116840000D01*
X143911405Y-116655374D01*
X143968772Y-116478818D01*
X144061593Y-116318047D01*
X144185812Y-116180087D01*
X144336000Y-116070969D01*
X144505593Y-115995462D01*
X144687179Y-115956865D01*
X144872821Y-115956865D01*
X145054407Y-115995462D01*
G37*
G36*
X147594407Y-115995462D02*
G01*
X147764000Y-116070969D01*
X147914188Y-116180087D01*
X148038407Y-116318047D01*
X148131228Y-116478818D01*
X148188595Y-116655374D01*
X148208000Y-116840000D01*
X148188595Y-117024626D01*
X148131228Y-117201182D01*
X148038407Y-117361953D01*
X147914188Y-117499913D01*
X147764000Y-117609031D01*
X147594407Y-117684538D01*
X147412821Y-117723135D01*
X147227179Y-117723135D01*
X147045593Y-117684538D01*
X146876000Y-117609031D01*
X146725812Y-117499913D01*
X146601593Y-117361953D01*
X146508772Y-117201182D01*
X146451405Y-117024626D01*
X146432000Y-116840000D01*
X146451405Y-116655374D01*
X146508772Y-116478818D01*
X146601593Y-116318047D01*
X146725812Y-116180087D01*
X146876000Y-116070969D01*
X147045593Y-115995462D01*
X147227179Y-115956865D01*
X147412821Y-115956865D01*
X147594407Y-115995462D01*
G37*
G36*
X150134407Y-115995462D02*
G01*
X150304000Y-116070969D01*
X150454188Y-116180087D01*
X150578407Y-116318047D01*
X150671228Y-116478818D01*
X150728595Y-116655374D01*
X150748000Y-116840000D01*
X150728595Y-117024626D01*
X150671228Y-117201182D01*
X150578407Y-117361953D01*
X150454188Y-117499913D01*
X150304000Y-117609031D01*
X150134407Y-117684538D01*
X149952821Y-117723135D01*
X149767179Y-117723135D01*
X149585593Y-117684538D01*
X149416000Y-117609031D01*
X149265812Y-117499913D01*
X149141593Y-117361953D01*
X149048772Y-117201182D01*
X148991405Y-117024626D01*
X148972000Y-116840000D01*
X148991405Y-116655374D01*
X149048772Y-116478818D01*
X149141593Y-116318047D01*
X149265812Y-116180087D01*
X149416000Y-116070969D01*
X149585593Y-115995462D01*
X149767179Y-115956865D01*
X149952821Y-115956865D01*
X150134407Y-115995462D01*
G37*
G36*
X152674407Y-115995462D02*
G01*
X152844000Y-116070969D01*
X152994188Y-116180087D01*
X153118407Y-116318047D01*
X153211228Y-116478818D01*
X153268595Y-116655374D01*
X153288000Y-116840000D01*
X153268595Y-117024626D01*
X153211228Y-117201182D01*
X153118407Y-117361953D01*
X152994188Y-117499913D01*
X152844000Y-117609031D01*
X152674407Y-117684538D01*
X152492821Y-117723135D01*
X152307179Y-117723135D01*
X152125593Y-117684538D01*
X151956000Y-117609031D01*
X151805812Y-117499913D01*
X151681593Y-117361953D01*
X151588772Y-117201182D01*
X151531405Y-117024626D01*
X151512000Y-116840000D01*
X151531405Y-116655374D01*
X151588772Y-116478818D01*
X151681593Y-116318047D01*
X151805812Y-116180087D01*
X151956000Y-116070969D01*
X152125593Y-115995462D01*
X152307179Y-115956865D01*
X152492821Y-115956865D01*
X152674407Y-115995462D01*
G37*
G36*
X155214407Y-115995462D02*
G01*
X155384000Y-116070969D01*
X155534188Y-116180087D01*
X155658407Y-116318047D01*
X155751228Y-116478818D01*
X155808595Y-116655374D01*
X155828000Y-116840000D01*
X155808595Y-117024626D01*
X155751228Y-117201182D01*
X155658407Y-117361953D01*
X155534188Y-117499913D01*
X155384000Y-117609031D01*
X155214407Y-117684538D01*
X155032821Y-117723135D01*
X154847179Y-117723135D01*
X154665593Y-117684538D01*
X154496000Y-117609031D01*
X154345812Y-117499913D01*
X154221593Y-117361953D01*
X154128772Y-117201182D01*
X154071405Y-117024626D01*
X154052000Y-116840000D01*
X154071405Y-116655374D01*
X154128772Y-116478818D01*
X154221593Y-116318047D01*
X154345812Y-116180087D01*
X154496000Y-116070969D01*
X154665593Y-115995462D01*
X154847179Y-115956865D01*
X155032821Y-115956865D01*
X155214407Y-115995462D01*
G37*
G36*
X157754407Y-115995462D02*
G01*
X157924000Y-116070969D01*
X158074188Y-116180087D01*
X158198407Y-116318047D01*
X158291228Y-116478818D01*
X158348595Y-116655374D01*
X158368000Y-116840000D01*
X158348595Y-117024626D01*
X158291228Y-117201182D01*
X158198407Y-117361953D01*
X158074188Y-117499913D01*
X157924000Y-117609031D01*
X157754407Y-117684538D01*
X157572821Y-117723135D01*
X157387179Y-117723135D01*
X157205593Y-117684538D01*
X157036000Y-117609031D01*
X156885812Y-117499913D01*
X156761593Y-117361953D01*
X156668772Y-117201182D01*
X156611405Y-117024626D01*
X156592000Y-116840000D01*
X156611405Y-116655374D01*
X156668772Y-116478818D01*
X156761593Y-116318047D01*
X156885812Y-116180087D01*
X157036000Y-116070969D01*
X157205593Y-115995462D01*
X157387179Y-115956865D01*
X157572821Y-115956865D01*
X157754407Y-115995462D01*
G37*
G36*
X160294407Y-115995462D02*
G01*
X160464000Y-116070969D01*
X160614188Y-116180087D01*
X160738407Y-116318047D01*
X160831228Y-116478818D01*
X160888595Y-116655374D01*
X160908000Y-116840000D01*
X160888595Y-117024626D01*
X160831228Y-117201182D01*
X160738407Y-117361953D01*
X160614188Y-117499913D01*
X160464000Y-117609031D01*
X160294407Y-117684538D01*
X160112821Y-117723135D01*
X159927179Y-117723135D01*
X159745593Y-117684538D01*
X159576000Y-117609031D01*
X159425812Y-117499913D01*
X159301593Y-117361953D01*
X159208772Y-117201182D01*
X159151405Y-117024626D01*
X159132000Y-116840000D01*
X159151405Y-116655374D01*
X159208772Y-116478818D01*
X159301593Y-116318047D01*
X159425812Y-116180087D01*
X159576000Y-116070969D01*
X159745593Y-115995462D01*
X159927179Y-115956865D01*
X160112821Y-115956865D01*
X160294407Y-115995462D01*
G37*
G36*
X162834407Y-115995462D02*
G01*
X163004000Y-116070969D01*
X163154188Y-116180087D01*
X163278407Y-116318047D01*
X163371228Y-116478818D01*
X163428595Y-116655374D01*
X163448000Y-116840000D01*
X163428595Y-117024626D01*
X163371228Y-117201182D01*
X163278407Y-117361953D01*
X163154188Y-117499913D01*
X163004000Y-117609031D01*
X162834407Y-117684538D01*
X162652821Y-117723135D01*
X162467179Y-117723135D01*
X162285593Y-117684538D01*
X162116000Y-117609031D01*
X161965812Y-117499913D01*
X161841593Y-117361953D01*
X161748772Y-117201182D01*
X161691405Y-117024626D01*
X161672000Y-116840000D01*
X161691405Y-116655374D01*
X161748772Y-116478818D01*
X161841593Y-116318047D01*
X161965812Y-116180087D01*
X162116000Y-116070969D01*
X162285593Y-115995462D01*
X162467179Y-115956865D01*
X162652821Y-115956865D01*
X162834407Y-115995462D01*
G37*
G36*
X165374407Y-115995462D02*
G01*
X165544000Y-116070969D01*
X165694188Y-116180087D01*
X165818407Y-116318047D01*
X165911228Y-116478818D01*
X165968595Y-116655374D01*
X165988000Y-116840000D01*
X165968595Y-117024626D01*
X165911228Y-117201182D01*
X165818407Y-117361953D01*
X165694188Y-117499913D01*
X165544000Y-117609031D01*
X165374407Y-117684538D01*
X165192821Y-117723135D01*
X165007179Y-117723135D01*
X164825593Y-117684538D01*
X164656000Y-117609031D01*
X164505812Y-117499913D01*
X164381593Y-117361953D01*
X164288772Y-117201182D01*
X164231405Y-117024626D01*
X164212000Y-116840000D01*
X164231405Y-116655374D01*
X164288772Y-116478818D01*
X164381593Y-116318047D01*
X164505812Y-116180087D01*
X164656000Y-116070969D01*
X164825593Y-115995462D01*
X165007179Y-115956865D01*
X165192821Y-115956865D01*
X165374407Y-115995462D01*
G37*
G36*
X167914407Y-115995462D02*
G01*
X168084000Y-116070969D01*
X168234188Y-116180087D01*
X168358407Y-116318047D01*
X168451228Y-116478818D01*
X168508595Y-116655374D01*
X168528000Y-116840000D01*
X168508595Y-117024626D01*
X168451228Y-117201182D01*
X168358407Y-117361953D01*
X168234188Y-117499913D01*
X168084000Y-117609031D01*
X167914407Y-117684538D01*
X167732821Y-117723135D01*
X167547179Y-117723135D01*
X167365593Y-117684538D01*
X167196000Y-117609031D01*
X167045812Y-117499913D01*
X166921593Y-117361953D01*
X166828772Y-117201182D01*
X166771405Y-117024626D01*
X166752000Y-116840000D01*
X166771405Y-116655374D01*
X166828772Y-116478818D01*
X166921593Y-116318047D01*
X167045812Y-116180087D01*
X167196000Y-116070969D01*
X167365593Y-115995462D01*
X167547179Y-115956865D01*
X167732821Y-115956865D01*
X167914407Y-115995462D01*
G37*
G36*
X170454407Y-115995462D02*
G01*
X170624000Y-116070969D01*
X170774188Y-116180087D01*
X170898407Y-116318047D01*
X170991228Y-116478818D01*
X171048595Y-116655374D01*
X171068000Y-116840000D01*
X171048595Y-117024626D01*
X170991228Y-117201182D01*
X170898407Y-117361953D01*
X170774188Y-117499913D01*
X170624000Y-117609031D01*
X170454407Y-117684538D01*
X170272821Y-117723135D01*
X170087179Y-117723135D01*
X169905593Y-117684538D01*
X169736000Y-117609031D01*
X169585812Y-117499913D01*
X169461593Y-117361953D01*
X169368772Y-117201182D01*
X169311405Y-117024626D01*
X169292000Y-116840000D01*
X169311405Y-116655374D01*
X169368772Y-116478818D01*
X169461593Y-116318047D01*
X169585812Y-116180087D01*
X169736000Y-116070969D01*
X169905593Y-115995462D01*
X170087179Y-115956865D01*
X170272821Y-115956865D01*
X170454407Y-115995462D01*
G37*
G36*
X172994407Y-115995462D02*
G01*
X173164000Y-116070969D01*
X173314188Y-116180087D01*
X173438407Y-116318047D01*
X173531228Y-116478818D01*
X173588595Y-116655374D01*
X173608000Y-116840000D01*
X173588595Y-117024626D01*
X173531228Y-117201182D01*
X173438407Y-117361953D01*
X173314188Y-117499913D01*
X173164000Y-117609031D01*
X172994407Y-117684538D01*
X172812821Y-117723135D01*
X172627179Y-117723135D01*
X172445593Y-117684538D01*
X172276000Y-117609031D01*
X172125812Y-117499913D01*
X172001593Y-117361953D01*
X171908772Y-117201182D01*
X171851405Y-117024626D01*
X171832000Y-116840000D01*
X171851405Y-116655374D01*
X171908772Y-116478818D01*
X172001593Y-116318047D01*
X172125812Y-116180087D01*
X172276000Y-116070969D01*
X172445593Y-115995462D01*
X172627179Y-115956865D01*
X172812821Y-115956865D01*
X172994407Y-115995462D01*
G37*
G36*
X175534407Y-115995462D02*
G01*
X175704000Y-116070969D01*
X175854188Y-116180087D01*
X175978407Y-116318047D01*
X176071228Y-116478818D01*
X176128595Y-116655374D01*
X176148000Y-116840000D01*
X176128595Y-117024626D01*
X176071228Y-117201182D01*
X175978407Y-117361953D01*
X175854188Y-117499913D01*
X175704000Y-117609031D01*
X175534407Y-117684538D01*
X175352821Y-117723135D01*
X175167179Y-117723135D01*
X174985593Y-117684538D01*
X174816000Y-117609031D01*
X174665812Y-117499913D01*
X174541593Y-117361953D01*
X174448772Y-117201182D01*
X174391405Y-117024626D01*
X174372000Y-116840000D01*
X174391405Y-116655374D01*
X174448772Y-116478818D01*
X174541593Y-116318047D01*
X174665812Y-116180087D01*
X174816000Y-116070969D01*
X174985593Y-115995462D01*
X175167179Y-115956865D01*
X175352821Y-115956865D01*
X175534407Y-115995462D01*
G37*
G36*
X178074407Y-115995462D02*
G01*
X178244000Y-116070969D01*
X178394188Y-116180087D01*
X178518407Y-116318047D01*
X178611228Y-116478818D01*
X178668595Y-116655374D01*
X178688000Y-116840000D01*
X178668595Y-117024626D01*
X178611228Y-117201182D01*
X178518407Y-117361953D01*
X178394188Y-117499913D01*
X178244000Y-117609031D01*
X178074407Y-117684538D01*
X177892821Y-117723135D01*
X177707179Y-117723135D01*
X177525593Y-117684538D01*
X177356000Y-117609031D01*
X177205812Y-117499913D01*
X177081593Y-117361953D01*
X176988772Y-117201182D01*
X176931405Y-117024626D01*
X176912000Y-116840000D01*
X176931405Y-116655374D01*
X176988772Y-116478818D01*
X177081593Y-116318047D01*
X177205812Y-116180087D01*
X177356000Y-116070969D01*
X177525593Y-115995462D01*
X177707179Y-115956865D01*
X177892821Y-115956865D01*
X178074407Y-115995462D01*
G37*
G36*
X180614407Y-115995462D02*
G01*
X180784000Y-116070969D01*
X180934188Y-116180087D01*
X181058407Y-116318047D01*
X181151228Y-116478818D01*
X181208595Y-116655374D01*
X181228000Y-116840000D01*
X181208595Y-117024626D01*
X181151228Y-117201182D01*
X181058407Y-117361953D01*
X180934188Y-117499913D01*
X180784000Y-117609031D01*
X180614407Y-117684538D01*
X180432821Y-117723135D01*
X180247179Y-117723135D01*
X180065593Y-117684538D01*
X179896000Y-117609031D01*
X179745812Y-117499913D01*
X179621593Y-117361953D01*
X179528772Y-117201182D01*
X179471405Y-117024626D01*
X179452000Y-116840000D01*
X179471405Y-116655374D01*
X179528772Y-116478818D01*
X179621593Y-116318047D01*
X179745812Y-116180087D01*
X179896000Y-116070969D01*
X180065593Y-115995462D01*
X180247179Y-115956865D01*
X180432821Y-115956865D01*
X180614407Y-115995462D01*
G37*
G36*
X189342554Y-114450551D02*
G01*
X189550999Y-114506404D01*
X189746578Y-114597604D01*
X189923349Y-114721380D01*
X190075941Y-114873972D01*
X190199717Y-115050743D01*
X190290917Y-115246322D01*
X190346770Y-115454767D01*
X190365578Y-115669743D01*
X190346770Y-115884719D01*
X190290917Y-116093164D01*
X190199717Y-116288743D01*
X190075941Y-116465514D01*
X189923349Y-116618106D01*
X189746578Y-116741882D01*
X189550999Y-116833082D01*
X189342554Y-116888935D01*
X189127578Y-116907743D01*
X188912602Y-116888935D01*
X188704157Y-116833082D01*
X188508578Y-116741882D01*
X188331807Y-116618106D01*
X188179215Y-116465514D01*
X188055439Y-116288743D01*
X187964239Y-116093164D01*
X187908386Y-115884719D01*
X187889578Y-115669743D01*
X187908386Y-115454767D01*
X187964239Y-115246322D01*
X188055439Y-115050743D01*
X188179215Y-114873972D01*
X188331807Y-114721380D01*
X188508578Y-114597604D01*
X188704157Y-114506404D01*
X188912602Y-114450551D01*
X189127578Y-114431743D01*
X189342554Y-114450551D01*
G37*
G36*
X204064542Y-108334893D02*
G01*
X204076870Y-108343130D01*
X204085107Y-108355458D01*
X204088000Y-108370000D01*
X204088000Y-110070000D01*
X204085107Y-110084542D01*
X204076870Y-110096870D01*
X204064542Y-110105107D01*
X204050000Y-110108000D01*
X202350000Y-110108000D01*
X202335458Y-110105107D01*
X202323130Y-110096870D01*
X202314893Y-110084542D01*
X202312000Y-110070000D01*
X202312000Y-108370000D01*
X202314893Y-108355458D01*
X202323130Y-108343130D01*
X202335458Y-108334893D01*
X202350000Y-108332000D01*
X204050000Y-108332000D01*
X204064542Y-108334893D01*
G37*
G36*
X200934407Y-108375462D02*
G01*
X201104000Y-108450969D01*
X201254188Y-108560087D01*
X201378407Y-108698047D01*
X201471228Y-108858818D01*
X201528595Y-109035374D01*
X201548000Y-109220000D01*
X201528595Y-109404626D01*
X201471228Y-109581182D01*
X201378407Y-109741953D01*
X201254188Y-109879913D01*
X201104000Y-109989031D01*
X200934407Y-110064538D01*
X200752821Y-110103135D01*
X200567179Y-110103135D01*
X200385593Y-110064538D01*
X200216000Y-109989031D01*
X200065812Y-109879913D01*
X199941593Y-109741953D01*
X199848772Y-109581182D01*
X199791405Y-109404626D01*
X199772000Y-109220000D01*
X199791405Y-109035374D01*
X199848772Y-108858818D01*
X199941593Y-108698047D01*
X200065812Y-108560087D01*
X200216000Y-108450969D01*
X200385593Y-108375462D01*
X200567179Y-108336865D01*
X200752821Y-108336865D01*
X200934407Y-108375462D01*
G37*
G36*
X127934542Y-108309893D02*
G01*
X127946870Y-108318130D01*
X127955107Y-108330458D01*
X127958000Y-108345000D01*
X127958000Y-110045000D01*
X127955107Y-110059542D01*
X127946870Y-110071870D01*
X127934542Y-110080107D01*
X127920000Y-110083000D01*
X126220000Y-110083000D01*
X126205458Y-110080107D01*
X126193130Y-110071870D01*
X126184893Y-110059542D01*
X126182000Y-110045000D01*
X126182000Y-108345000D01*
X126184893Y-108330458D01*
X126193130Y-108318130D01*
X126205458Y-108309893D01*
X126220000Y-108307000D01*
X127920000Y-108307000D01*
X127934542Y-108309893D01*
G37*
G36*
X129884407Y-108350462D02*
G01*
X130054000Y-108425969D01*
X130204188Y-108535087D01*
X130328407Y-108673047D01*
X130421228Y-108833818D01*
X130478595Y-109010374D01*
X130498000Y-109195000D01*
X130478595Y-109379626D01*
X130421228Y-109556182D01*
X130328407Y-109716953D01*
X130204188Y-109854913D01*
X130054000Y-109964031D01*
X129884407Y-110039538D01*
X129702821Y-110078135D01*
X129517179Y-110078135D01*
X129335593Y-110039538D01*
X129166000Y-109964031D01*
X129015812Y-109854913D01*
X128891593Y-109716953D01*
X128798772Y-109556182D01*
X128741405Y-109379626D01*
X128722000Y-109195000D01*
X128741405Y-109010374D01*
X128798772Y-108833818D01*
X128891593Y-108673047D01*
X129015812Y-108535087D01*
X129166000Y-108425969D01*
X129335593Y-108350462D01*
X129517179Y-108311865D01*
X129702821Y-108311865D01*
X129884407Y-108350462D01*
G37*
G36*
X132424407Y-108350462D02*
G01*
X132594000Y-108425969D01*
X132744188Y-108535087D01*
X132868407Y-108673047D01*
X132961228Y-108833818D01*
X133018595Y-109010374D01*
X133038000Y-109195000D01*
X133018595Y-109379626D01*
X132961228Y-109556182D01*
X132868407Y-109716953D01*
X132744188Y-109854913D01*
X132594000Y-109964031D01*
X132424407Y-110039538D01*
X132242821Y-110078135D01*
X132057179Y-110078135D01*
X131875593Y-110039538D01*
X131706000Y-109964031D01*
X131555812Y-109854913D01*
X131431593Y-109716953D01*
X131338772Y-109556182D01*
X131281405Y-109379626D01*
X131262000Y-109195000D01*
X131281405Y-109010374D01*
X131338772Y-108833818D01*
X131431593Y-108673047D01*
X131555812Y-108535087D01*
X131706000Y-108425969D01*
X131875593Y-108350462D01*
X132057179Y-108311865D01*
X132242821Y-108311865D01*
X132424407Y-108350462D01*
G37*
G36*
X134964407Y-108350462D02*
G01*
X135134000Y-108425969D01*
X135284188Y-108535087D01*
X135408407Y-108673047D01*
X135501228Y-108833818D01*
X135558595Y-109010374D01*
X135578000Y-109195000D01*
X135558595Y-109379626D01*
X135501228Y-109556182D01*
X135408407Y-109716953D01*
X135284188Y-109854913D01*
X135134000Y-109964031D01*
X134964407Y-110039538D01*
X134782821Y-110078135D01*
X134597179Y-110078135D01*
X134415593Y-110039538D01*
X134246000Y-109964031D01*
X134095812Y-109854913D01*
X133971593Y-109716953D01*
X133878772Y-109556182D01*
X133821405Y-109379626D01*
X133802000Y-109195000D01*
X133821405Y-109010374D01*
X133878772Y-108833818D01*
X133971593Y-108673047D01*
X134095812Y-108535087D01*
X134246000Y-108425969D01*
X134415593Y-108350462D01*
X134597179Y-108311865D01*
X134782821Y-108311865D01*
X134964407Y-108350462D01*
G37*
G36*
X142514407Y-105835462D02*
G01*
X142684000Y-105910969D01*
X142834188Y-106020087D01*
X142958407Y-106158047D01*
X143051228Y-106318818D01*
X143108595Y-106495374D01*
X143128000Y-106680000D01*
X143108595Y-106864626D01*
X143051228Y-107041182D01*
X142958407Y-107201953D01*
X142834188Y-107339913D01*
X142684000Y-107449031D01*
X142514407Y-107524538D01*
X142332821Y-107563135D01*
X142147179Y-107563135D01*
X141965593Y-107524538D01*
X141796000Y-107449031D01*
X141645812Y-107339913D01*
X141521593Y-107201953D01*
X141428772Y-107041182D01*
X141371405Y-106864626D01*
X141352000Y-106680000D01*
X141371405Y-106495374D01*
X141428772Y-106318818D01*
X141521593Y-106158047D01*
X141645812Y-106020087D01*
X141796000Y-105910969D01*
X141965593Y-105835462D01*
X142147179Y-105796865D01*
X142332821Y-105796865D01*
X142514407Y-105835462D01*
G37*
G36*
X145054407Y-105835462D02*
G01*
X145224000Y-105910969D01*
X145374188Y-106020087D01*
X145498407Y-106158047D01*
X145591228Y-106318818D01*
X145648595Y-106495374D01*
X145668000Y-106680000D01*
X145648595Y-106864626D01*
X145591228Y-107041182D01*
X145498407Y-107201953D01*
X145374188Y-107339913D01*
X145224000Y-107449031D01*
X145054407Y-107524538D01*
X144872821Y-107563135D01*
X144687179Y-107563135D01*
X144505593Y-107524538D01*
X144336000Y-107449031D01*
X144185812Y-107339913D01*
X144061593Y-107201953D01*
X143968772Y-107041182D01*
X143911405Y-106864626D01*
X143892000Y-106680000D01*
X143911405Y-106495374D01*
X143968772Y-106318818D01*
X144061593Y-106158047D01*
X144185812Y-106020087D01*
X144336000Y-105910969D01*
X144505593Y-105835462D01*
X144687179Y-105796865D01*
X144872821Y-105796865D01*
X145054407Y-105835462D01*
G37*
G36*
X147594407Y-105835462D02*
G01*
X147764000Y-105910969D01*
X147914188Y-106020087D01*
X148038407Y-106158047D01*
X148131228Y-106318818D01*
X148188595Y-106495374D01*
X148208000Y-106680000D01*
X148188595Y-106864626D01*
X148131228Y-107041182D01*
X148038407Y-107201953D01*
X147914188Y-107339913D01*
X147764000Y-107449031D01*
X147594407Y-107524538D01*
X147412821Y-107563135D01*
X147227179Y-107563135D01*
X147045593Y-107524538D01*
X146876000Y-107449031D01*
X146725812Y-107339913D01*
X146601593Y-107201953D01*
X146508772Y-107041182D01*
X146451405Y-106864626D01*
X146432000Y-106680000D01*
X146451405Y-106495374D01*
X146508772Y-106318818D01*
X146601593Y-106158047D01*
X146725812Y-106020087D01*
X146876000Y-105910969D01*
X147045593Y-105835462D01*
X147227179Y-105796865D01*
X147412821Y-105796865D01*
X147594407Y-105835462D01*
G37*
G36*
X150134407Y-105835462D02*
G01*
X150304000Y-105910969D01*
X150454188Y-106020087D01*
X150578407Y-106158047D01*
X150671228Y-106318818D01*
X150728595Y-106495374D01*
X150748000Y-106680000D01*
X150728595Y-106864626D01*
X150671228Y-107041182D01*
X150578407Y-107201953D01*
X150454188Y-107339913D01*
X150304000Y-107449031D01*
X150134407Y-107524538D01*
X149952821Y-107563135D01*
X149767179Y-107563135D01*
X149585593Y-107524538D01*
X149416000Y-107449031D01*
X149265812Y-107339913D01*
X149141593Y-107201953D01*
X149048772Y-107041182D01*
X148991405Y-106864626D01*
X148972000Y-106680000D01*
X148991405Y-106495374D01*
X149048772Y-106318818D01*
X149141593Y-106158047D01*
X149265812Y-106020087D01*
X149416000Y-105910969D01*
X149585593Y-105835462D01*
X149767179Y-105796865D01*
X149952821Y-105796865D01*
X150134407Y-105835462D01*
G37*
G36*
X152674407Y-105835462D02*
G01*
X152844000Y-105910969D01*
X152994188Y-106020087D01*
X153118407Y-106158047D01*
X153211228Y-106318818D01*
X153268595Y-106495374D01*
X153288000Y-106680000D01*
X153268595Y-106864626D01*
X153211228Y-107041182D01*
X153118407Y-107201953D01*
X152994188Y-107339913D01*
X152844000Y-107449031D01*
X152674407Y-107524538D01*
X152492821Y-107563135D01*
X152307179Y-107563135D01*
X152125593Y-107524538D01*
X151956000Y-107449031D01*
X151805812Y-107339913D01*
X151681593Y-107201953D01*
X151588772Y-107041182D01*
X151531405Y-106864626D01*
X151512000Y-106680000D01*
X151531405Y-106495374D01*
X151588772Y-106318818D01*
X151681593Y-106158047D01*
X151805812Y-106020087D01*
X151956000Y-105910969D01*
X152125593Y-105835462D01*
X152307179Y-105796865D01*
X152492821Y-105796865D01*
X152674407Y-105835462D01*
G37*
G36*
X155214407Y-105835462D02*
G01*
X155384000Y-105910969D01*
X155534188Y-106020087D01*
X155658407Y-106158047D01*
X155751228Y-106318818D01*
X155808595Y-106495374D01*
X155828000Y-106680000D01*
X155808595Y-106864626D01*
X155751228Y-107041182D01*
X155658407Y-107201953D01*
X155534188Y-107339913D01*
X155384000Y-107449031D01*
X155214407Y-107524538D01*
X155032821Y-107563135D01*
X154847179Y-107563135D01*
X154665593Y-107524538D01*
X154496000Y-107449031D01*
X154345812Y-107339913D01*
X154221593Y-107201953D01*
X154128772Y-107041182D01*
X154071405Y-106864626D01*
X154052000Y-106680000D01*
X154071405Y-106495374D01*
X154128772Y-106318818D01*
X154221593Y-106158047D01*
X154345812Y-106020087D01*
X154496000Y-105910969D01*
X154665593Y-105835462D01*
X154847179Y-105796865D01*
X155032821Y-105796865D01*
X155214407Y-105835462D01*
G37*
G36*
X157754407Y-105835462D02*
G01*
X157924000Y-105910969D01*
X158074188Y-106020087D01*
X158198407Y-106158047D01*
X158291228Y-106318818D01*
X158348595Y-106495374D01*
X158368000Y-106680000D01*
X158348595Y-106864626D01*
X158291228Y-107041182D01*
X158198407Y-107201953D01*
X158074188Y-107339913D01*
X157924000Y-107449031D01*
X157754407Y-107524538D01*
X157572821Y-107563135D01*
X157387179Y-107563135D01*
X157205593Y-107524538D01*
X157036000Y-107449031D01*
X156885812Y-107339913D01*
X156761593Y-107201953D01*
X156668772Y-107041182D01*
X156611405Y-106864626D01*
X156592000Y-106680000D01*
X156611405Y-106495374D01*
X156668772Y-106318818D01*
X156761593Y-106158047D01*
X156885812Y-106020087D01*
X157036000Y-105910969D01*
X157205593Y-105835462D01*
X157387179Y-105796865D01*
X157572821Y-105796865D01*
X157754407Y-105835462D01*
G37*
G36*
X160294407Y-105835462D02*
G01*
X160464000Y-105910969D01*
X160614188Y-106020087D01*
X160738407Y-106158047D01*
X160831228Y-106318818D01*
X160888595Y-106495374D01*
X160908000Y-106680000D01*
X160888595Y-106864626D01*
X160831228Y-107041182D01*
X160738407Y-107201953D01*
X160614188Y-107339913D01*
X160464000Y-107449031D01*
X160294407Y-107524538D01*
X160112821Y-107563135D01*
X159927179Y-107563135D01*
X159745593Y-107524538D01*
X159576000Y-107449031D01*
X159425812Y-107339913D01*
X159301593Y-107201953D01*
X159208772Y-107041182D01*
X159151405Y-106864626D01*
X159132000Y-106680000D01*
X159151405Y-106495374D01*
X159208772Y-106318818D01*
X159301593Y-106158047D01*
X159425812Y-106020087D01*
X159576000Y-105910969D01*
X159745593Y-105835462D01*
X159927179Y-105796865D01*
X160112821Y-105796865D01*
X160294407Y-105835462D01*
G37*
G36*
X162834407Y-105835462D02*
G01*
X163004000Y-105910969D01*
X163154188Y-106020087D01*
X163278407Y-106158047D01*
X163371228Y-106318818D01*
X163428595Y-106495374D01*
X163448000Y-106680000D01*
X163428595Y-106864626D01*
X163371228Y-107041182D01*
X163278407Y-107201953D01*
X163154188Y-107339913D01*
X163004000Y-107449031D01*
X162834407Y-107524538D01*
X162652821Y-107563135D01*
X162467179Y-107563135D01*
X162285593Y-107524538D01*
X162116000Y-107449031D01*
X161965812Y-107339913D01*
X161841593Y-107201953D01*
X161748772Y-107041182D01*
X161691405Y-106864626D01*
X161672000Y-106680000D01*
X161691405Y-106495374D01*
X161748772Y-106318818D01*
X161841593Y-106158047D01*
X161965812Y-106020087D01*
X162116000Y-105910969D01*
X162285593Y-105835462D01*
X162467179Y-105796865D01*
X162652821Y-105796865D01*
X162834407Y-105835462D01*
G37*
G36*
X165374407Y-105835462D02*
G01*
X165544000Y-105910969D01*
X165694188Y-106020087D01*
X165818407Y-106158047D01*
X165911228Y-106318818D01*
X165968595Y-106495374D01*
X165988000Y-106680000D01*
X165968595Y-106864626D01*
X165911228Y-107041182D01*
X165818407Y-107201953D01*
X165694188Y-107339913D01*
X165544000Y-107449031D01*
X165374407Y-107524538D01*
X165192821Y-107563135D01*
X165007179Y-107563135D01*
X164825593Y-107524538D01*
X164656000Y-107449031D01*
X164505812Y-107339913D01*
X164381593Y-107201953D01*
X164288772Y-107041182D01*
X164231405Y-106864626D01*
X164212000Y-106680000D01*
X164231405Y-106495374D01*
X164288772Y-106318818D01*
X164381593Y-106158047D01*
X164505812Y-106020087D01*
X164656000Y-105910969D01*
X164825593Y-105835462D01*
X165007179Y-105796865D01*
X165192821Y-105796865D01*
X165374407Y-105835462D01*
G37*
G36*
X167914407Y-105835462D02*
G01*
X168084000Y-105910969D01*
X168234188Y-106020087D01*
X168358407Y-106158047D01*
X168451228Y-106318818D01*
X168508595Y-106495374D01*
X168528000Y-106680000D01*
X168508595Y-106864626D01*
X168451228Y-107041182D01*
X168358407Y-107201953D01*
X168234188Y-107339913D01*
X168084000Y-107449031D01*
X167914407Y-107524538D01*
X167732821Y-107563135D01*
X167547179Y-107563135D01*
X167365593Y-107524538D01*
X167196000Y-107449031D01*
X167045812Y-107339913D01*
X166921593Y-107201953D01*
X166828772Y-107041182D01*
X166771405Y-106864626D01*
X166752000Y-106680000D01*
X166771405Y-106495374D01*
X166828772Y-106318818D01*
X166921593Y-106158047D01*
X167045812Y-106020087D01*
X167196000Y-105910969D01*
X167365593Y-105835462D01*
X167547179Y-105796865D01*
X167732821Y-105796865D01*
X167914407Y-105835462D01*
G37*
G36*
X170454407Y-105835462D02*
G01*
X170624000Y-105910969D01*
X170774188Y-106020087D01*
X170898407Y-106158047D01*
X170991228Y-106318818D01*
X171048595Y-106495374D01*
X171068000Y-106680000D01*
X171048595Y-106864626D01*
X170991228Y-107041182D01*
X170898407Y-107201953D01*
X170774188Y-107339913D01*
X170624000Y-107449031D01*
X170454407Y-107524538D01*
X170272821Y-107563135D01*
X170087179Y-107563135D01*
X169905593Y-107524538D01*
X169736000Y-107449031D01*
X169585812Y-107339913D01*
X169461593Y-107201953D01*
X169368772Y-107041182D01*
X169311405Y-106864626D01*
X169292000Y-106680000D01*
X169311405Y-106495374D01*
X169368772Y-106318818D01*
X169461593Y-106158047D01*
X169585812Y-106020087D01*
X169736000Y-105910969D01*
X169905593Y-105835462D01*
X170087179Y-105796865D01*
X170272821Y-105796865D01*
X170454407Y-105835462D01*
G37*
G36*
X172994407Y-105835462D02*
G01*
X173164000Y-105910969D01*
X173314188Y-106020087D01*
X173438407Y-106158047D01*
X173531228Y-106318818D01*
X173588595Y-106495374D01*
X173608000Y-106680000D01*
X173588595Y-106864626D01*
X173531228Y-107041182D01*
X173438407Y-107201953D01*
X173314188Y-107339913D01*
X173164000Y-107449031D01*
X172994407Y-107524538D01*
X172812821Y-107563135D01*
X172627179Y-107563135D01*
X172445593Y-107524538D01*
X172276000Y-107449031D01*
X172125812Y-107339913D01*
X172001593Y-107201953D01*
X171908772Y-107041182D01*
X171851405Y-106864626D01*
X171832000Y-106680000D01*
X171851405Y-106495374D01*
X171908772Y-106318818D01*
X172001593Y-106158047D01*
X172125812Y-106020087D01*
X172276000Y-105910969D01*
X172445593Y-105835462D01*
X172627179Y-105796865D01*
X172812821Y-105796865D01*
X172994407Y-105835462D01*
G37*
G36*
X175534407Y-105835462D02*
G01*
X175704000Y-105910969D01*
X175854188Y-106020087D01*
X175978407Y-106158047D01*
X176071228Y-106318818D01*
X176128595Y-106495374D01*
X176148000Y-106680000D01*
X176128595Y-106864626D01*
X176071228Y-107041182D01*
X175978407Y-107201953D01*
X175854188Y-107339913D01*
X175704000Y-107449031D01*
X175534407Y-107524538D01*
X175352821Y-107563135D01*
X175167179Y-107563135D01*
X174985593Y-107524538D01*
X174816000Y-107449031D01*
X174665812Y-107339913D01*
X174541593Y-107201953D01*
X174448772Y-107041182D01*
X174391405Y-106864626D01*
X174372000Y-106680000D01*
X174391405Y-106495374D01*
X174448772Y-106318818D01*
X174541593Y-106158047D01*
X174665812Y-106020087D01*
X174816000Y-105910969D01*
X174985593Y-105835462D01*
X175167179Y-105796865D01*
X175352821Y-105796865D01*
X175534407Y-105835462D01*
G37*
G36*
X178074407Y-105835462D02*
G01*
X178244000Y-105910969D01*
X178394188Y-106020087D01*
X178518407Y-106158047D01*
X178611228Y-106318818D01*
X178668595Y-106495374D01*
X178688000Y-106680000D01*
X178668595Y-106864626D01*
X178611228Y-107041182D01*
X178518407Y-107201953D01*
X178394188Y-107339913D01*
X178244000Y-107449031D01*
X178074407Y-107524538D01*
X177892821Y-107563135D01*
X177707179Y-107563135D01*
X177525593Y-107524538D01*
X177356000Y-107449031D01*
X177205812Y-107339913D01*
X177081593Y-107201953D01*
X176988772Y-107041182D01*
X176931405Y-106864626D01*
X176912000Y-106680000D01*
X176931405Y-106495374D01*
X176988772Y-106318818D01*
X177081593Y-106158047D01*
X177205812Y-106020087D01*
X177356000Y-105910969D01*
X177525593Y-105835462D01*
X177707179Y-105796865D01*
X177892821Y-105796865D01*
X178074407Y-105835462D01*
G37*
G36*
X180614407Y-105835462D02*
G01*
X180784000Y-105910969D01*
X180934188Y-106020087D01*
X181058407Y-106158047D01*
X181151228Y-106318818D01*
X181208595Y-106495374D01*
X181228000Y-106680000D01*
X181208595Y-106864626D01*
X181151228Y-107041182D01*
X181058407Y-107201953D01*
X180934188Y-107339913D01*
X180784000Y-107449031D01*
X180614407Y-107524538D01*
X180432821Y-107563135D01*
X180247179Y-107563135D01*
X180065593Y-107524538D01*
X179896000Y-107449031D01*
X179745812Y-107339913D01*
X179621593Y-107201953D01*
X179528772Y-107041182D01*
X179471405Y-106864626D01*
X179452000Y-106680000D01*
X179471405Y-106495374D01*
X179528772Y-106318818D01*
X179621593Y-106158047D01*
X179745812Y-106020087D01*
X179896000Y-105910969D01*
X180065593Y-105835462D01*
X180247179Y-105796865D01*
X180432821Y-105796865D01*
X180614407Y-105835462D01*
G37*
G36*
X183154407Y-105835462D02*
G01*
X183324000Y-105910969D01*
X183474188Y-106020087D01*
X183598407Y-106158047D01*
X183691228Y-106318818D01*
X183748595Y-106495374D01*
X183768000Y-106680000D01*
X183748595Y-106864626D01*
X183691228Y-107041182D01*
X183598407Y-107201953D01*
X183474188Y-107339913D01*
X183324000Y-107449031D01*
X183154407Y-107524538D01*
X182972821Y-107563135D01*
X182787179Y-107563135D01*
X182605593Y-107524538D01*
X182436000Y-107449031D01*
X182285812Y-107339913D01*
X182161593Y-107201953D01*
X182068772Y-107041182D01*
X182011405Y-106864626D01*
X181992000Y-106680000D01*
X182011405Y-106495374D01*
X182068772Y-106318818D01*
X182161593Y-106158047D01*
X182285812Y-106020087D01*
X182436000Y-105910969D01*
X182605593Y-105835462D01*
X182787179Y-105796865D01*
X182972821Y-105796865D01*
X183154407Y-105835462D01*
G37*
G36*
X200934407Y-105835462D02*
G01*
X201104000Y-105910969D01*
X201254188Y-106020087D01*
X201378407Y-106158047D01*
X201471228Y-106318818D01*
X201528595Y-106495374D01*
X201548000Y-106680000D01*
X201528595Y-106864626D01*
X201471228Y-107041182D01*
X201378407Y-107201953D01*
X201254188Y-107339913D01*
X201104000Y-107449031D01*
X200934407Y-107524538D01*
X200752821Y-107563135D01*
X200567179Y-107563135D01*
X200385593Y-107524538D01*
X200216000Y-107449031D01*
X200065812Y-107339913D01*
X199941593Y-107201953D01*
X199848772Y-107041182D01*
X199791405Y-106864626D01*
X199772000Y-106680000D01*
X199791405Y-106495374D01*
X199848772Y-106318818D01*
X199941593Y-106158047D01*
X200065812Y-106020087D01*
X200216000Y-105910969D01*
X200385593Y-105835462D01*
X200567179Y-105796865D01*
X200752821Y-105796865D01*
X200934407Y-105835462D01*
G37*
G36*
X203474407Y-105835462D02*
G01*
X203644000Y-105910969D01*
X203794188Y-106020087D01*
X203918407Y-106158047D01*
X204011228Y-106318818D01*
X204068595Y-106495374D01*
X204088000Y-106680000D01*
X204068595Y-106864626D01*
X204011228Y-107041182D01*
X203918407Y-107201953D01*
X203794188Y-107339913D01*
X203644000Y-107449031D01*
X203474407Y-107524538D01*
X203292821Y-107563135D01*
X203107179Y-107563135D01*
X202925593Y-107524538D01*
X202756000Y-107449031D01*
X202605812Y-107339913D01*
X202481593Y-107201953D01*
X202388772Y-107041182D01*
X202331405Y-106864626D01*
X202312000Y-106680000D01*
X202331405Y-106495374D01*
X202388772Y-106318818D01*
X202481593Y-106158047D01*
X202605812Y-106020087D01*
X202756000Y-105910969D01*
X202925593Y-105835462D01*
X203107179Y-105796865D01*
X203292821Y-105796865D01*
X203474407Y-105835462D01*
G37*
G36*
X183744542Y-103254893D02*
G01*
X183756870Y-103263130D01*
X183765107Y-103275458D01*
X183768000Y-103290000D01*
X183768000Y-104990000D01*
X183765107Y-105004542D01*
X183756870Y-105016870D01*
X183744542Y-105025107D01*
X183730000Y-105028000D01*
X182030000Y-105028000D01*
X182015458Y-105025107D01*
X182003130Y-105016870D01*
X181994893Y-105004542D01*
X181992000Y-104990000D01*
X181992000Y-103290000D01*
X181994893Y-103275458D01*
X182003130Y-103263130D01*
X182015458Y-103254893D01*
X182030000Y-103252000D01*
X183730000Y-103252000D01*
X183744542Y-103254893D01*
G37*
G36*
X142514407Y-103295462D02*
G01*
X142684000Y-103370969D01*
X142834188Y-103480087D01*
X142958407Y-103618047D01*
X143051228Y-103778818D01*
X143108595Y-103955374D01*
X143128000Y-104140000D01*
X143108595Y-104324626D01*
X143051228Y-104501182D01*
X142958407Y-104661953D01*
X142834188Y-104799913D01*
X142684000Y-104909031D01*
X142514407Y-104984538D01*
X142332821Y-105023135D01*
X142147179Y-105023135D01*
X141965593Y-104984538D01*
X141796000Y-104909031D01*
X141645812Y-104799913D01*
X141521593Y-104661953D01*
X141428772Y-104501182D01*
X141371405Y-104324626D01*
X141352000Y-104140000D01*
X141371405Y-103955374D01*
X141428772Y-103778818D01*
X141521593Y-103618047D01*
X141645812Y-103480087D01*
X141796000Y-103370969D01*
X141965593Y-103295462D01*
X142147179Y-103256865D01*
X142332821Y-103256865D01*
X142514407Y-103295462D01*
G37*
G36*
X145054407Y-103295462D02*
G01*
X145224000Y-103370969D01*
X145374188Y-103480087D01*
X145498407Y-103618047D01*
X145591228Y-103778818D01*
X145648595Y-103955374D01*
X145668000Y-104140000D01*
X145648595Y-104324626D01*
X145591228Y-104501182D01*
X145498407Y-104661953D01*
X145374188Y-104799913D01*
X145224000Y-104909031D01*
X145054407Y-104984538D01*
X144872821Y-105023135D01*
X144687179Y-105023135D01*
X144505593Y-104984538D01*
X144336000Y-104909031D01*
X144185812Y-104799913D01*
X144061593Y-104661953D01*
X143968772Y-104501182D01*
X143911405Y-104324626D01*
X143892000Y-104140000D01*
X143911405Y-103955374D01*
X143968772Y-103778818D01*
X144061593Y-103618047D01*
X144185812Y-103480087D01*
X144336000Y-103370969D01*
X144505593Y-103295462D01*
X144687179Y-103256865D01*
X144872821Y-103256865D01*
X145054407Y-103295462D01*
G37*
G36*
X147594407Y-103295462D02*
G01*
X147764000Y-103370969D01*
X147914188Y-103480087D01*
X148038407Y-103618047D01*
X148131228Y-103778818D01*
X148188595Y-103955374D01*
X148208000Y-104140000D01*
X148188595Y-104324626D01*
X148131228Y-104501182D01*
X148038407Y-104661953D01*
X147914188Y-104799913D01*
X147764000Y-104909031D01*
X147594407Y-104984538D01*
X147412821Y-105023135D01*
X147227179Y-105023135D01*
X147045593Y-104984538D01*
X146876000Y-104909031D01*
X146725812Y-104799913D01*
X146601593Y-104661953D01*
X146508772Y-104501182D01*
X146451405Y-104324626D01*
X146432000Y-104140000D01*
X146451405Y-103955374D01*
X146508772Y-103778818D01*
X146601593Y-103618047D01*
X146725812Y-103480087D01*
X146876000Y-103370969D01*
X147045593Y-103295462D01*
X147227179Y-103256865D01*
X147412821Y-103256865D01*
X147594407Y-103295462D01*
G37*
G36*
X150134407Y-103295462D02*
G01*
X150304000Y-103370969D01*
X150454188Y-103480087D01*
X150578407Y-103618047D01*
X150671228Y-103778818D01*
X150728595Y-103955374D01*
X150748000Y-104140000D01*
X150728595Y-104324626D01*
X150671228Y-104501182D01*
X150578407Y-104661953D01*
X150454188Y-104799913D01*
X150304000Y-104909031D01*
X150134407Y-104984538D01*
X149952821Y-105023135D01*
X149767179Y-105023135D01*
X149585593Y-104984538D01*
X149416000Y-104909031D01*
X149265812Y-104799913D01*
X149141593Y-104661953D01*
X149048772Y-104501182D01*
X148991405Y-104324626D01*
X148972000Y-104140000D01*
X148991405Y-103955374D01*
X149048772Y-103778818D01*
X149141593Y-103618047D01*
X149265812Y-103480087D01*
X149416000Y-103370969D01*
X149585593Y-103295462D01*
X149767179Y-103256865D01*
X149952821Y-103256865D01*
X150134407Y-103295462D01*
G37*
G36*
X152674407Y-103295462D02*
G01*
X152844000Y-103370969D01*
X152994188Y-103480087D01*
X153118407Y-103618047D01*
X153211228Y-103778818D01*
X153268595Y-103955374D01*
X153288000Y-104140000D01*
X153268595Y-104324626D01*
X153211228Y-104501182D01*
X153118407Y-104661953D01*
X152994188Y-104799913D01*
X152844000Y-104909031D01*
X152674407Y-104984538D01*
X152492821Y-105023135D01*
X152307179Y-105023135D01*
X152125593Y-104984538D01*
X151956000Y-104909031D01*
X151805812Y-104799913D01*
X151681593Y-104661953D01*
X151588772Y-104501182D01*
X151531405Y-104324626D01*
X151512000Y-104140000D01*
X151531405Y-103955374D01*
X151588772Y-103778818D01*
X151681593Y-103618047D01*
X151805812Y-103480087D01*
X151956000Y-103370969D01*
X152125593Y-103295462D01*
X152307179Y-103256865D01*
X152492821Y-103256865D01*
X152674407Y-103295462D01*
G37*
G36*
X155214407Y-103295462D02*
G01*
X155384000Y-103370969D01*
X155534188Y-103480087D01*
X155658407Y-103618047D01*
X155751228Y-103778818D01*
X155808595Y-103955374D01*
X155828000Y-104140000D01*
X155808595Y-104324626D01*
X155751228Y-104501182D01*
X155658407Y-104661953D01*
X155534188Y-104799913D01*
X155384000Y-104909031D01*
X155214407Y-104984538D01*
X155032821Y-105023135D01*
X154847179Y-105023135D01*
X154665593Y-104984538D01*
X154496000Y-104909031D01*
X154345812Y-104799913D01*
X154221593Y-104661953D01*
X154128772Y-104501182D01*
X154071405Y-104324626D01*
X154052000Y-104140000D01*
X154071405Y-103955374D01*
X154128772Y-103778818D01*
X154221593Y-103618047D01*
X154345812Y-103480087D01*
X154496000Y-103370969D01*
X154665593Y-103295462D01*
X154847179Y-103256865D01*
X155032821Y-103256865D01*
X155214407Y-103295462D01*
G37*
G36*
X157754407Y-103295462D02*
G01*
X157924000Y-103370969D01*
X158074188Y-103480087D01*
X158198407Y-103618047D01*
X158291228Y-103778818D01*
X158348595Y-103955374D01*
X158368000Y-104140000D01*
X158348595Y-104324626D01*
X158291228Y-104501182D01*
X158198407Y-104661953D01*
X158074188Y-104799913D01*
X157924000Y-104909031D01*
X157754407Y-104984538D01*
X157572821Y-105023135D01*
X157387179Y-105023135D01*
X157205593Y-104984538D01*
X157036000Y-104909031D01*
X156885812Y-104799913D01*
X156761593Y-104661953D01*
X156668772Y-104501182D01*
X156611405Y-104324626D01*
X156592000Y-104140000D01*
X156611405Y-103955374D01*
X156668772Y-103778818D01*
X156761593Y-103618047D01*
X156885812Y-103480087D01*
X157036000Y-103370969D01*
X157205593Y-103295462D01*
X157387179Y-103256865D01*
X157572821Y-103256865D01*
X157754407Y-103295462D01*
G37*
G36*
X160294407Y-103295462D02*
G01*
X160464000Y-103370969D01*
X160614188Y-103480087D01*
X160738407Y-103618047D01*
X160831228Y-103778818D01*
X160888595Y-103955374D01*
X160908000Y-104140000D01*
X160888595Y-104324626D01*
X160831228Y-104501182D01*
X160738407Y-104661953D01*
X160614188Y-104799913D01*
X160464000Y-104909031D01*
X160294407Y-104984538D01*
X160112821Y-105023135D01*
X159927179Y-105023135D01*
X159745593Y-104984538D01*
X159576000Y-104909031D01*
X159425812Y-104799913D01*
X159301593Y-104661953D01*
X159208772Y-104501182D01*
X159151405Y-104324626D01*
X159132000Y-104140000D01*
X159151405Y-103955374D01*
X159208772Y-103778818D01*
X159301593Y-103618047D01*
X159425812Y-103480087D01*
X159576000Y-103370969D01*
X159745593Y-103295462D01*
X159927179Y-103256865D01*
X160112821Y-103256865D01*
X160294407Y-103295462D01*
G37*
G36*
X162834407Y-103295462D02*
G01*
X163004000Y-103370969D01*
X163154188Y-103480087D01*
X163278407Y-103618047D01*
X163371228Y-103778818D01*
X163428595Y-103955374D01*
X163448000Y-104140000D01*
X163428595Y-104324626D01*
X163371228Y-104501182D01*
X163278407Y-104661953D01*
X163154188Y-104799913D01*
X163004000Y-104909031D01*
X162834407Y-104984538D01*
X162652821Y-105023135D01*
X162467179Y-105023135D01*
X162285593Y-104984538D01*
X162116000Y-104909031D01*
X161965812Y-104799913D01*
X161841593Y-104661953D01*
X161748772Y-104501182D01*
X161691405Y-104324626D01*
X161672000Y-104140000D01*
X161691405Y-103955374D01*
X161748772Y-103778818D01*
X161841593Y-103618047D01*
X161965812Y-103480087D01*
X162116000Y-103370969D01*
X162285593Y-103295462D01*
X162467179Y-103256865D01*
X162652821Y-103256865D01*
X162834407Y-103295462D01*
G37*
G36*
X165374407Y-103295462D02*
G01*
X165544000Y-103370969D01*
X165694188Y-103480087D01*
X165818407Y-103618047D01*
X165911228Y-103778818D01*
X165968595Y-103955374D01*
X165988000Y-104140000D01*
X165968595Y-104324626D01*
X165911228Y-104501182D01*
X165818407Y-104661953D01*
X165694188Y-104799913D01*
X165544000Y-104909031D01*
X165374407Y-104984538D01*
X165192821Y-105023135D01*
X165007179Y-105023135D01*
X164825593Y-104984538D01*
X164656000Y-104909031D01*
X164505812Y-104799913D01*
X164381593Y-104661953D01*
X164288772Y-104501182D01*
X164231405Y-104324626D01*
X164212000Y-104140000D01*
X164231405Y-103955374D01*
X164288772Y-103778818D01*
X164381593Y-103618047D01*
X164505812Y-103480087D01*
X164656000Y-103370969D01*
X164825593Y-103295462D01*
X165007179Y-103256865D01*
X165192821Y-103256865D01*
X165374407Y-103295462D01*
G37*
G36*
X167914407Y-103295462D02*
G01*
X168084000Y-103370969D01*
X168234188Y-103480087D01*
X168358407Y-103618047D01*
X168451228Y-103778818D01*
X168508595Y-103955374D01*
X168528000Y-104140000D01*
X168508595Y-104324626D01*
X168451228Y-104501182D01*
X168358407Y-104661953D01*
X168234188Y-104799913D01*
X168084000Y-104909031D01*
X167914407Y-104984538D01*
X167732821Y-105023135D01*
X167547179Y-105023135D01*
X167365593Y-104984538D01*
X167196000Y-104909031D01*
X167045812Y-104799913D01*
X166921593Y-104661953D01*
X166828772Y-104501182D01*
X166771405Y-104324626D01*
X166752000Y-104140000D01*
X166771405Y-103955374D01*
X166828772Y-103778818D01*
X166921593Y-103618047D01*
X167045812Y-103480087D01*
X167196000Y-103370969D01*
X167365593Y-103295462D01*
X167547179Y-103256865D01*
X167732821Y-103256865D01*
X167914407Y-103295462D01*
G37*
G36*
X170454407Y-103295462D02*
G01*
X170624000Y-103370969D01*
X170774188Y-103480087D01*
X170898407Y-103618047D01*
X170991228Y-103778818D01*
X171048595Y-103955374D01*
X171068000Y-104140000D01*
X171048595Y-104324626D01*
X170991228Y-104501182D01*
X170898407Y-104661953D01*
X170774188Y-104799913D01*
X170624000Y-104909031D01*
X170454407Y-104984538D01*
X170272821Y-105023135D01*
X170087179Y-105023135D01*
X169905593Y-104984538D01*
X169736000Y-104909031D01*
X169585812Y-104799913D01*
X169461593Y-104661953D01*
X169368772Y-104501182D01*
X169311405Y-104324626D01*
X169292000Y-104140000D01*
X169311405Y-103955374D01*
X169368772Y-103778818D01*
X169461593Y-103618047D01*
X169585812Y-103480087D01*
X169736000Y-103370969D01*
X169905593Y-103295462D01*
X170087179Y-103256865D01*
X170272821Y-103256865D01*
X170454407Y-103295462D01*
G37*
G36*
X172994407Y-103295462D02*
G01*
X173164000Y-103370969D01*
X173314188Y-103480087D01*
X173438407Y-103618047D01*
X173531228Y-103778818D01*
X173588595Y-103955374D01*
X173608000Y-104140000D01*
X173588595Y-104324626D01*
X173531228Y-104501182D01*
X173438407Y-104661953D01*
X173314188Y-104799913D01*
X173164000Y-104909031D01*
X172994407Y-104984538D01*
X172812821Y-105023135D01*
X172627179Y-105023135D01*
X172445593Y-104984538D01*
X172276000Y-104909031D01*
X172125812Y-104799913D01*
X172001593Y-104661953D01*
X171908772Y-104501182D01*
X171851405Y-104324626D01*
X171832000Y-104140000D01*
X171851405Y-103955374D01*
X171908772Y-103778818D01*
X172001593Y-103618047D01*
X172125812Y-103480087D01*
X172276000Y-103370969D01*
X172445593Y-103295462D01*
X172627179Y-103256865D01*
X172812821Y-103256865D01*
X172994407Y-103295462D01*
G37*
G36*
X175534407Y-103295462D02*
G01*
X175704000Y-103370969D01*
X175854188Y-103480087D01*
X175978407Y-103618047D01*
X176071228Y-103778818D01*
X176128595Y-103955374D01*
X176148000Y-104140000D01*
X176128595Y-104324626D01*
X176071228Y-104501182D01*
X175978407Y-104661953D01*
X175854188Y-104799913D01*
X175704000Y-104909031D01*
X175534407Y-104984538D01*
X175352821Y-105023135D01*
X175167179Y-105023135D01*
X174985593Y-104984538D01*
X174816000Y-104909031D01*
X174665812Y-104799913D01*
X174541593Y-104661953D01*
X174448772Y-104501182D01*
X174391405Y-104324626D01*
X174372000Y-104140000D01*
X174391405Y-103955374D01*
X174448772Y-103778818D01*
X174541593Y-103618047D01*
X174665812Y-103480087D01*
X174816000Y-103370969D01*
X174985593Y-103295462D01*
X175167179Y-103256865D01*
X175352821Y-103256865D01*
X175534407Y-103295462D01*
G37*
G36*
X178074407Y-103295462D02*
G01*
X178244000Y-103370969D01*
X178394188Y-103480087D01*
X178518407Y-103618047D01*
X178611228Y-103778818D01*
X178668595Y-103955374D01*
X178688000Y-104140000D01*
X178668595Y-104324626D01*
X178611228Y-104501182D01*
X178518407Y-104661953D01*
X178394188Y-104799913D01*
X178244000Y-104909031D01*
X178074407Y-104984538D01*
X177892821Y-105023135D01*
X177707179Y-105023135D01*
X177525593Y-104984538D01*
X177356000Y-104909031D01*
X177205812Y-104799913D01*
X177081593Y-104661953D01*
X176988772Y-104501182D01*
X176931405Y-104324626D01*
X176912000Y-104140000D01*
X176931405Y-103955374D01*
X176988772Y-103778818D01*
X177081593Y-103618047D01*
X177205812Y-103480087D01*
X177356000Y-103370969D01*
X177525593Y-103295462D01*
X177707179Y-103256865D01*
X177892821Y-103256865D01*
X178074407Y-103295462D01*
G37*
G36*
X180614407Y-103295462D02*
G01*
X180784000Y-103370969D01*
X180934188Y-103480087D01*
X181058407Y-103618047D01*
X181151228Y-103778818D01*
X181208595Y-103955374D01*
X181228000Y-104140000D01*
X181208595Y-104324626D01*
X181151228Y-104501182D01*
X181058407Y-104661953D01*
X180934188Y-104799913D01*
X180784000Y-104909031D01*
X180614407Y-104984538D01*
X180432821Y-105023135D01*
X180247179Y-105023135D01*
X180065593Y-104984538D01*
X179896000Y-104909031D01*
X179745812Y-104799913D01*
X179621593Y-104661953D01*
X179528772Y-104501182D01*
X179471405Y-104324626D01*
X179452000Y-104140000D01*
X179471405Y-103955374D01*
X179528772Y-103778818D01*
X179621593Y-103618047D01*
X179745812Y-103480087D01*
X179896000Y-103370969D01*
X180065593Y-103295462D01*
X180247179Y-103256865D01*
X180432821Y-103256865D01*
X180614407Y-103295462D01*
G37*
G36*
X200934407Y-103295462D02*
G01*
X201104000Y-103370969D01*
X201254188Y-103480087D01*
X201378407Y-103618047D01*
X201471228Y-103778818D01*
X201528595Y-103955374D01*
X201548000Y-104140000D01*
X201528595Y-104324626D01*
X201471228Y-104501182D01*
X201378407Y-104661953D01*
X201254188Y-104799913D01*
X201104000Y-104909031D01*
X200934407Y-104984538D01*
X200752821Y-105023135D01*
X200567179Y-105023135D01*
X200385593Y-104984538D01*
X200216000Y-104909031D01*
X200065812Y-104799913D01*
X199941593Y-104661953D01*
X199848772Y-104501182D01*
X199791405Y-104324626D01*
X199772000Y-104140000D01*
X199791405Y-103955374D01*
X199848772Y-103778818D01*
X199941593Y-103618047D01*
X200065812Y-103480087D01*
X200216000Y-103370969D01*
X200385593Y-103295462D01*
X200567179Y-103256865D01*
X200752821Y-103256865D01*
X200934407Y-103295462D01*
G37*
G36*
X203474407Y-103295462D02*
G01*
X203644000Y-103370969D01*
X203794188Y-103480087D01*
X203918407Y-103618047D01*
X204011228Y-103778818D01*
X204068595Y-103955374D01*
X204088000Y-104140000D01*
X204068595Y-104324626D01*
X204011228Y-104501182D01*
X203918407Y-104661953D01*
X203794188Y-104799913D01*
X203644000Y-104909031D01*
X203474407Y-104984538D01*
X203292821Y-105023135D01*
X203107179Y-105023135D01*
X202925593Y-104984538D01*
X202756000Y-104909031D01*
X202605812Y-104799913D01*
X202481593Y-104661953D01*
X202388772Y-104501182D01*
X202331405Y-104324626D01*
X202312000Y-104140000D01*
X202331405Y-103955374D01*
X202388772Y-103778818D01*
X202481593Y-103618047D01*
X202605812Y-103480087D01*
X202756000Y-103370969D01*
X202925593Y-103295462D01*
X203107179Y-103256865D01*
X203292821Y-103256865D01*
X203474407Y-103295462D01*
G37*
G36*
X200934407Y-100755462D02*
G01*
X201104000Y-100830969D01*
X201254188Y-100940087D01*
X201378407Y-101078047D01*
X201471228Y-101238818D01*
X201528595Y-101415374D01*
X201548000Y-101600000D01*
X201528595Y-101784626D01*
X201471228Y-101961182D01*
X201378407Y-102121953D01*
X201254188Y-102259913D01*
X201104000Y-102369031D01*
X200934407Y-102444538D01*
X200752821Y-102483135D01*
X200567179Y-102483135D01*
X200385593Y-102444538D01*
X200216000Y-102369031D01*
X200065812Y-102259913D01*
X199941593Y-102121953D01*
X199848772Y-101961182D01*
X199791405Y-101784626D01*
X199772000Y-101600000D01*
X199791405Y-101415374D01*
X199848772Y-101238818D01*
X199941593Y-101078047D01*
X200065812Y-100940087D01*
X200216000Y-100830969D01*
X200385593Y-100755462D01*
X200567179Y-100716865D01*
X200752821Y-100716865D01*
X200934407Y-100755462D01*
G37*
G36*
X203474407Y-100755462D02*
G01*
X203644000Y-100830969D01*
X203794188Y-100940087D01*
X203918407Y-101078047D01*
X204011228Y-101238818D01*
X204068595Y-101415374D01*
X204088000Y-101600000D01*
X204068595Y-101784626D01*
X204011228Y-101961182D01*
X203918407Y-102121953D01*
X203794188Y-102259913D01*
X203644000Y-102369031D01*
X203474407Y-102444538D01*
X203292821Y-102483135D01*
X203107179Y-102483135D01*
X202925593Y-102444538D01*
X202756000Y-102369031D01*
X202605812Y-102259913D01*
X202481593Y-102121953D01*
X202388772Y-101961182D01*
X202331405Y-101784626D01*
X202312000Y-101600000D01*
X202331405Y-101415374D01*
X202388772Y-101238818D01*
X202481593Y-101078047D01*
X202605812Y-100940087D01*
X202756000Y-100830969D01*
X202925593Y-100755462D01*
X203107179Y-100716865D01*
X203292821Y-100716865D01*
X203474407Y-100755462D01*
G37*
G36*
X189342554Y-99210551D02*
G01*
X189550999Y-99266404D01*
X189746578Y-99357604D01*
X189923349Y-99481380D01*
X190075941Y-99633972D01*
X190199717Y-99810743D01*
X190290917Y-100006322D01*
X190346770Y-100214767D01*
X190365578Y-100429743D01*
X190346770Y-100644719D01*
X190290917Y-100853164D01*
X190199717Y-101048743D01*
X190075941Y-101225514D01*
X189923349Y-101378106D01*
X189746578Y-101501882D01*
X189550999Y-101593082D01*
X189342554Y-101648935D01*
X189127578Y-101667743D01*
X188912602Y-101648935D01*
X188704157Y-101593082D01*
X188508578Y-101501882D01*
X188331807Y-101378106D01*
X188179215Y-101225514D01*
X188055439Y-101048743D01*
X187964239Y-100853164D01*
X187908386Y-100644719D01*
X187889578Y-100429743D01*
X187908386Y-100214767D01*
X187964239Y-100006322D01*
X188055439Y-99810743D01*
X188179215Y-99633972D01*
X188331807Y-99481380D01*
X188508578Y-99357604D01*
X188704157Y-99266404D01*
X188912602Y-99210551D01*
X189127578Y-99191743D01*
X189342554Y-99210551D01*
G37*
G36*
X169185707Y-97854394D02*
G01*
X169394152Y-97910247D01*
X169589731Y-98001447D01*
X169766502Y-98125223D01*
X169919094Y-98277815D01*
X170042870Y-98454586D01*
X170134070Y-98650165D01*
X170189923Y-98858610D01*
X170208731Y-99073586D01*
X170189923Y-99288562D01*
X170134070Y-99497007D01*
X170042870Y-99692586D01*
X169919094Y-99869357D01*
X169766502Y-100021949D01*
X169589731Y-100145725D01*
X169394152Y-100236925D01*
X169185707Y-100292778D01*
X168970731Y-100311586D01*
X168755755Y-100292778D01*
X168547310Y-100236925D01*
X168351731Y-100145725D01*
X168174960Y-100021949D01*
X168022368Y-99869357D01*
X167898592Y-99692586D01*
X167807392Y-99497007D01*
X167751539Y-99288562D01*
X167732731Y-99073586D01*
X167751539Y-98858610D01*
X167807392Y-98650165D01*
X167898592Y-98454586D01*
X168022368Y-98277815D01*
X168174960Y-98125223D01*
X168351731Y-98001447D01*
X168547310Y-97910247D01*
X168755755Y-97854394D01*
X168970731Y-97835586D01*
X169185707Y-97854394D01*
G37*
G36*
X162774976Y-97840808D02*
G01*
X162983421Y-97896661D01*
X163179000Y-97987861D01*
X163355771Y-98111637D01*
X163508363Y-98264229D01*
X163632139Y-98441000D01*
X163723339Y-98636579D01*
X163779192Y-98845024D01*
X163798000Y-99060000D01*
X163779192Y-99274976D01*
X163723339Y-99483421D01*
X163632139Y-99679000D01*
X163508363Y-99855771D01*
X163355771Y-100008363D01*
X163179000Y-100132139D01*
X162983421Y-100223339D01*
X162774976Y-100279192D01*
X162560000Y-100298000D01*
X162345024Y-100279192D01*
X162136579Y-100223339D01*
X161941000Y-100132139D01*
X161764229Y-100008363D01*
X161611637Y-99855771D01*
X161487861Y-99679000D01*
X161396661Y-99483421D01*
X161340808Y-99274976D01*
X161322000Y-99060000D01*
X161340808Y-98845024D01*
X161396661Y-98636579D01*
X161487861Y-98441000D01*
X161611637Y-98264229D01*
X161764229Y-98111637D01*
X161941000Y-97987861D01*
X162136579Y-97896661D01*
X162345024Y-97840808D01*
X162560000Y-97822000D01*
X162774976Y-97840808D01*
G37*
G36*
X175474976Y-97840808D02*
G01*
X175683421Y-97896661D01*
X175879000Y-97987861D01*
X176055771Y-98111637D01*
X176208363Y-98264229D01*
X176332139Y-98441000D01*
X176423339Y-98636579D01*
X176479192Y-98845024D01*
X176498000Y-99060000D01*
X176479192Y-99274976D01*
X176423339Y-99483421D01*
X176332139Y-99679000D01*
X176208363Y-99855771D01*
X176055771Y-100008363D01*
X175879000Y-100132139D01*
X175683421Y-100223339D01*
X175474976Y-100279192D01*
X175260000Y-100298000D01*
X175045024Y-100279192D01*
X174836579Y-100223339D01*
X174641000Y-100132139D01*
X174464229Y-100008363D01*
X174311637Y-99855771D01*
X174187861Y-99679000D01*
X174096661Y-99483421D01*
X174040808Y-99274976D01*
X174022000Y-99060000D01*
X174040808Y-98845024D01*
X174096661Y-98636579D01*
X174187861Y-98441000D01*
X174311637Y-98264229D01*
X174464229Y-98111637D01*
X174641000Y-97987861D01*
X174836579Y-97896661D01*
X175045024Y-97840808D01*
X175260000Y-97822000D01*
X175474976Y-97840808D01*
G37*
G36*
X200934407Y-98215462D02*
G01*
X201104000Y-98290969D01*
X201254188Y-98400087D01*
X201378407Y-98538047D01*
X201471228Y-98698818D01*
X201528595Y-98875374D01*
X201548000Y-99060000D01*
X201528595Y-99244626D01*
X201471228Y-99421182D01*
X201378407Y-99581953D01*
X201254188Y-99719913D01*
X201104000Y-99829031D01*
X200934407Y-99904538D01*
X200752821Y-99943135D01*
X200567179Y-99943135D01*
X200385593Y-99904538D01*
X200216000Y-99829031D01*
X200065812Y-99719913D01*
X199941593Y-99581953D01*
X199848772Y-99421182D01*
X199791405Y-99244626D01*
X199772000Y-99060000D01*
X199791405Y-98875374D01*
X199848772Y-98698818D01*
X199941593Y-98538047D01*
X200065812Y-98400087D01*
X200216000Y-98290969D01*
X200385593Y-98215462D01*
X200567179Y-98176865D01*
X200752821Y-98176865D01*
X200934407Y-98215462D01*
G37*
G36*
X203474407Y-98215462D02*
G01*
X203644000Y-98290969D01*
X203794188Y-98400087D01*
X203918407Y-98538047D01*
X204011228Y-98698818D01*
X204068595Y-98875374D01*
X204088000Y-99060000D01*
X204068595Y-99244626D01*
X204011228Y-99421182D01*
X203918407Y-99581953D01*
X203794188Y-99719913D01*
X203644000Y-99829031D01*
X203474407Y-99904538D01*
X203292821Y-99943135D01*
X203107179Y-99943135D01*
X202925593Y-99904538D01*
X202756000Y-99829031D01*
X202605812Y-99719913D01*
X202481593Y-99581953D01*
X202388772Y-99421182D01*
X202331405Y-99244626D01*
X202312000Y-99060000D01*
X202331405Y-98875374D01*
X202388772Y-98698818D01*
X202481593Y-98538047D01*
X202605812Y-98400087D01*
X202756000Y-98290969D01*
X202925593Y-98215462D01*
X203107179Y-98176865D01*
X203292821Y-98176865D01*
X203474407Y-98215462D01*
G37*
G36*
X129354542Y-95234893D02*
G01*
X129366870Y-95243130D01*
X129375107Y-95255458D01*
X129378000Y-95270000D01*
X129378000Y-97770000D01*
X129375107Y-97784542D01*
X129366870Y-97796870D01*
X129354542Y-97805107D01*
X129340000Y-97808000D01*
X126840000Y-97808000D01*
X126825458Y-97805107D01*
X126813130Y-97796870D01*
X126804893Y-97784542D01*
X126802000Y-97770000D01*
X126802000Y-95270000D01*
X126804893Y-95255458D01*
X126813130Y-95243130D01*
X126825458Y-95234893D01*
X126840000Y-95232000D01*
X129340000Y-95232000D01*
X129354542Y-95234893D01*
G37*
G36*
X134434542Y-95234893D02*
G01*
X134446870Y-95243130D01*
X134455107Y-95255458D01*
X134458000Y-95270000D01*
X134458000Y-97770000D01*
X134455107Y-97784542D01*
X134446870Y-97796870D01*
X134434542Y-97805107D01*
X134420000Y-97808000D01*
X131920000Y-97808000D01*
X131905458Y-97805107D01*
X131893130Y-97796870D01*
X131884893Y-97784542D01*
X131882000Y-97770000D01*
X131882000Y-95270000D01*
X131884893Y-95255458D01*
X131893130Y-95243130D01*
X131905458Y-95234893D01*
X131920000Y-95232000D01*
X134420000Y-95232000D01*
X134434542Y-95234893D01*
G37*
G36*
X139514542Y-95234893D02*
G01*
X139526870Y-95243130D01*
X139535107Y-95255458D01*
X139538000Y-95270000D01*
X139538000Y-97770000D01*
X139535107Y-97784542D01*
X139526870Y-97796870D01*
X139514542Y-97805107D01*
X139500000Y-97808000D01*
X137000000Y-97808000D01*
X136985458Y-97805107D01*
X136973130Y-97796870D01*
X136964893Y-97784542D01*
X136962000Y-97770000D01*
X136962000Y-95270000D01*
X136964893Y-95255458D01*
X136973130Y-95243130D01*
X136985458Y-95234893D01*
X137000000Y-95232000D01*
X139500000Y-95232000D01*
X139514542Y-95234893D01*
G37*
G36*
X200934407Y-95675462D02*
G01*
X201104000Y-95750969D01*
X201254188Y-95860087D01*
X201378407Y-95998047D01*
X201471228Y-96158818D01*
X201528595Y-96335374D01*
X201548000Y-96520000D01*
X201528595Y-96704626D01*
X201471228Y-96881182D01*
X201378407Y-97041953D01*
X201254188Y-97179913D01*
X201104000Y-97289031D01*
X200934407Y-97364538D01*
X200752821Y-97403135D01*
X200567179Y-97403135D01*
X200385593Y-97364538D01*
X200216000Y-97289031D01*
X200065812Y-97179913D01*
X199941593Y-97041953D01*
X199848772Y-96881182D01*
X199791405Y-96704626D01*
X199772000Y-96520000D01*
X199791405Y-96335374D01*
X199848772Y-96158818D01*
X199941593Y-95998047D01*
X200065812Y-95860087D01*
X200216000Y-95750969D01*
X200385593Y-95675462D01*
X200567179Y-95636865D01*
X200752821Y-95636865D01*
X200934407Y-95675462D01*
G37*
G36*
X203474407Y-95675462D02*
G01*
X203644000Y-95750969D01*
X203794188Y-95860087D01*
X203918407Y-95998047D01*
X204011228Y-96158818D01*
X204068595Y-96335374D01*
X204088000Y-96520000D01*
X204068595Y-96704626D01*
X204011228Y-96881182D01*
X203918407Y-97041953D01*
X203794188Y-97179913D01*
X203644000Y-97289031D01*
X203474407Y-97364538D01*
X203292821Y-97403135D01*
X203107179Y-97403135D01*
X202925593Y-97364538D01*
X202756000Y-97289031D01*
X202605812Y-97179913D01*
X202481593Y-97041953D01*
X202388772Y-96881182D01*
X202331405Y-96704626D01*
X202312000Y-96520000D01*
X202331405Y-96335374D01*
X202388772Y-96158818D01*
X202481593Y-95998047D01*
X202605812Y-95860087D01*
X202756000Y-95750969D01*
X202925593Y-95675462D01*
X203107179Y-95636865D01*
X203292821Y-95636865D01*
X203474407Y-95675462D01*
G37*
G36*
X147594542Y-95684893D02*
G01*
X147606870Y-95693130D01*
X147615107Y-95705458D01*
X147618000Y-95720000D01*
X147618000Y-97320000D01*
X147615107Y-97334542D01*
X147606870Y-97346870D01*
X147594542Y-97355107D01*
X147580000Y-97358000D01*
X145980000Y-97358000D01*
X145965458Y-97355107D01*
X145953130Y-97346870D01*
X145944893Y-97334542D01*
X145942000Y-97320000D01*
X145942000Y-95720000D01*
X145944893Y-95705458D01*
X145953130Y-95693130D01*
X145965458Y-95684893D01*
X145980000Y-95682000D01*
X147580000Y-95682000D01*
X147594542Y-95684893D01*
G37*
G36*
X183351840Y-95684893D02*
G01*
X183364168Y-95693130D01*
X183372405Y-95705458D01*
X183375298Y-95720000D01*
X183375298Y-97320000D01*
X183372405Y-97334542D01*
X183364168Y-97346870D01*
X183351840Y-97355107D01*
X183337298Y-97358000D01*
X181737298Y-97358000D01*
X181722756Y-97355107D01*
X181710428Y-97346870D01*
X181702191Y-97334542D01*
X181699298Y-97320000D01*
X181699298Y-95720000D01*
X181702191Y-95705458D01*
X181710428Y-95693130D01*
X181722756Y-95684893D01*
X181737298Y-95682000D01*
X183337298Y-95682000D01*
X183351840Y-95684893D01*
G37*
G36*
X145038956Y-95723015D02*
G01*
X145199000Y-95794271D01*
X145340731Y-95897245D01*
X145457956Y-96027436D01*
X145545551Y-96179155D01*
X145599688Y-96345770D01*
X145618000Y-96520000D01*
X145599688Y-96694230D01*
X145545551Y-96860845D01*
X145457956Y-97012564D01*
X145340731Y-97142755D01*
X145199000Y-97245729D01*
X145038956Y-97316985D01*
X144867595Y-97353409D01*
X144692405Y-97353409D01*
X144521044Y-97316985D01*
X144361000Y-97245729D01*
X144219269Y-97142755D01*
X144102044Y-97012564D01*
X144014449Y-96860845D01*
X143960312Y-96694230D01*
X143942000Y-96520000D01*
X143960312Y-96345770D01*
X144014449Y-96179155D01*
X144102044Y-96027436D01*
X144219269Y-95897245D01*
X144361000Y-95794271D01*
X144521044Y-95723015D01*
X144692405Y-95686591D01*
X144867595Y-95686591D01*
X145038956Y-95723015D01*
G37*
G36*
X180796254Y-95723015D02*
G01*
X180956298Y-95794271D01*
X181098029Y-95897245D01*
X181215254Y-96027436D01*
X181302849Y-96179155D01*
X181356986Y-96345770D01*
X181375298Y-96520000D01*
X181356986Y-96694230D01*
X181302849Y-96860845D01*
X181215254Y-97012564D01*
X181098029Y-97142755D01*
X180956298Y-97245729D01*
X180796254Y-97316985D01*
X180624893Y-97353409D01*
X180449703Y-97353409D01*
X180278342Y-97316985D01*
X180118298Y-97245729D01*
X179976567Y-97142755D01*
X179859342Y-97012564D01*
X179771747Y-96860845D01*
X179717610Y-96694230D01*
X179699298Y-96520000D01*
X179717610Y-96345770D01*
X179771747Y-96179155D01*
X179859342Y-96027436D01*
X179976567Y-95897245D01*
X180118298Y-95794271D01*
X180278342Y-95723015D01*
X180449703Y-95686591D01*
X180624893Y-95686591D01*
X180796254Y-95723015D01*
G37*
G36*
X194014542Y-95844893D02*
G01*
X194026870Y-95853130D01*
X194035107Y-95865458D01*
X194038000Y-95880000D01*
X194038000Y-97160000D01*
X194035107Y-97174542D01*
X194026870Y-97186870D01*
X194014542Y-97195107D01*
X194000000Y-97198000D01*
X192720000Y-97198000D01*
X192705458Y-97195107D01*
X192693130Y-97186870D01*
X192684893Y-97174542D01*
X192682000Y-97160000D01*
X192682000Y-95880000D01*
X192684893Y-95865458D01*
X192693130Y-95853130D01*
X192705458Y-95844893D01*
X192720000Y-95842000D01*
X194000000Y-95842000D01*
X194014542Y-95844893D01*
G37*
G36*
X185461066Y-95846943D02*
G01*
X185501724Y-95846943D01*
X185535959Y-95855381D01*
X185570800Y-95859307D01*
X185615870Y-95875077D01*
X185660422Y-95886059D01*
X185686766Y-95899885D01*
X185714037Y-95909428D01*
X185760127Y-95938388D01*
X185805148Y-95962017D01*
X185823237Y-95978042D01*
X185842525Y-95990162D01*
X185886078Y-96033715D01*
X185927490Y-96070403D01*
X185938017Y-96085654D01*
X185949837Y-96097474D01*
X185986994Y-96156610D01*
X186020339Y-96204918D01*
X186024892Y-96216925D01*
X186030571Y-96225962D01*
X186057418Y-96302686D01*
X186078299Y-96357744D01*
X186079157Y-96364813D01*
X186080692Y-96369199D01*
X186093599Y-96483761D01*
X186098000Y-96520000D01*
X186093599Y-96556241D01*
X186080692Y-96670800D01*
X186079157Y-96675185D01*
X186078299Y-96682256D01*
X186057413Y-96737325D01*
X186030571Y-96814037D01*
X186024893Y-96823072D01*
X186020339Y-96835082D01*
X185986987Y-96883399D01*
X185949837Y-96942525D01*
X185938019Y-96954342D01*
X185927490Y-96969597D01*
X185886069Y-97006292D01*
X185842525Y-97049837D01*
X185823241Y-97061953D01*
X185805148Y-97077983D01*
X185760117Y-97101616D01*
X185714037Y-97130571D01*
X185686771Y-97140111D01*
X185660422Y-97153941D01*
X185615860Y-97164924D01*
X185570800Y-97180692D01*
X185535967Y-97184616D01*
X185501724Y-97193057D01*
X185461057Y-97193057D01*
X185420000Y-97197683D01*
X185378943Y-97193057D01*
X185338276Y-97193057D01*
X185304033Y-97184616D01*
X185269199Y-97180692D01*
X185224135Y-97164923D01*
X185179578Y-97153941D01*
X185153230Y-97140112D01*
X185125962Y-97130571D01*
X185079876Y-97101613D01*
X185034852Y-97077983D01*
X185016761Y-97061955D01*
X184997474Y-97049837D01*
X184953921Y-97006284D01*
X184912510Y-96969597D01*
X184901982Y-96954345D01*
X184890162Y-96942525D01*
X184853000Y-96883383D01*
X184819661Y-96835082D01*
X184815107Y-96823076D01*
X184809428Y-96814037D01*
X184782573Y-96737291D01*
X184761701Y-96682256D01*
X184760843Y-96675189D01*
X184759307Y-96670800D01*
X184746386Y-96556127D01*
X184742000Y-96520000D01*
X184746386Y-96483875D01*
X184759307Y-96369199D01*
X184760843Y-96364808D01*
X184761701Y-96357744D01*
X184782568Y-96302720D01*
X184809428Y-96225962D01*
X184815108Y-96216921D01*
X184819661Y-96204918D01*
X184852993Y-96156626D01*
X184890162Y-96097474D01*
X184901985Y-96085650D01*
X184912510Y-96070403D01*
X184953913Y-96033722D01*
X184997474Y-95990162D01*
X185016765Y-95978040D01*
X185034852Y-95962017D01*
X185079866Y-95938391D01*
X185125962Y-95909428D01*
X185153235Y-95899884D01*
X185179578Y-95886059D01*
X185224126Y-95875078D01*
X185269199Y-95859307D01*
X185304040Y-95855381D01*
X185338276Y-95846943D01*
X185378934Y-95846943D01*
X185420000Y-95842316D01*
X185461066Y-95846943D01*
G37*
G36*
X158449542Y-95849893D02*
G01*
X158461870Y-95858130D01*
X158470107Y-95870458D01*
X158473000Y-95885000D01*
X158473000Y-97155000D01*
X158470107Y-97169542D01*
X158461870Y-97181870D01*
X158449542Y-97190107D01*
X158435000Y-97193000D01*
X157165000Y-97193000D01*
X157150458Y-97190107D01*
X157138130Y-97181870D01*
X157129893Y-97169542D01*
X157127000Y-97155000D01*
X157127000Y-95885000D01*
X157129893Y-95870458D01*
X157138130Y-95858130D01*
X157150458Y-95849893D01*
X157165000Y-95847000D01*
X158435000Y-95847000D01*
X158449542Y-95849893D01*
G37*
G36*
X149900746Y-95851907D02*
G01*
X149941121Y-95851907D01*
X149975120Y-95860287D01*
X150009689Y-95864182D01*
X150054405Y-95879828D01*
X150098649Y-95890734D01*
X150124811Y-95904465D01*
X150151866Y-95913932D01*
X150197588Y-95942661D01*
X150242308Y-95966132D01*
X150260277Y-95982051D01*
X150279408Y-95994072D01*
X150322601Y-96037265D01*
X150363748Y-96073718D01*
X150374208Y-96088872D01*
X150385927Y-96100591D01*
X150422770Y-96159227D01*
X150455912Y-96207241D01*
X150460437Y-96219173D01*
X150466067Y-96228133D01*
X150492690Y-96304217D01*
X150513444Y-96358941D01*
X150514296Y-96365966D01*
X150515817Y-96370310D01*
X150528600Y-96483765D01*
X150533000Y-96520000D01*
X150528599Y-96556237D01*
X150515817Y-96669689D01*
X150514297Y-96674032D01*
X150513444Y-96681059D01*
X150492685Y-96735794D01*
X150466067Y-96811866D01*
X150460438Y-96820823D01*
X150455912Y-96832759D01*
X150422763Y-96880782D01*
X150385927Y-96939408D01*
X150374210Y-96951124D01*
X150363748Y-96966282D01*
X150322593Y-97002741D01*
X150279408Y-97045927D01*
X150260281Y-97057945D01*
X150242308Y-97073868D01*
X150197579Y-97097343D01*
X150151866Y-97126067D01*
X150124817Y-97135531D01*
X150098649Y-97149266D01*
X150054395Y-97160173D01*
X150009689Y-97175817D01*
X149975127Y-97179711D01*
X149941121Y-97188093D01*
X149900737Y-97188093D01*
X149860000Y-97192683D01*
X149819263Y-97188093D01*
X149778879Y-97188093D01*
X149744873Y-97179711D01*
X149710310Y-97175817D01*
X149665600Y-97160172D01*
X149621351Y-97149266D01*
X149595184Y-97135532D01*
X149568133Y-97126067D01*
X149522414Y-97097340D01*
X149477692Y-97073868D01*
X149459721Y-97057947D01*
X149440591Y-97045927D01*
X149397398Y-97002734D01*
X149356252Y-96966282D01*
X149345791Y-96951127D01*
X149334072Y-96939408D01*
X149297225Y-96880766D01*
X149264088Y-96832759D01*
X149259563Y-96820827D01*
X149253932Y-96811866D01*
X149227301Y-96735760D01*
X149206556Y-96681059D01*
X149205703Y-96674036D01*
X149204182Y-96669689D01*
X149191386Y-96556123D01*
X149187000Y-96520000D01*
X149191385Y-96483879D01*
X149204182Y-96370310D01*
X149205703Y-96365961D01*
X149206556Y-96358941D01*
X149227297Y-96304251D01*
X149253932Y-96228133D01*
X149259564Y-96219169D01*
X149264088Y-96207241D01*
X149297218Y-96159243D01*
X149334072Y-96100591D01*
X149345794Y-96088868D01*
X149356252Y-96073718D01*
X149397389Y-96037273D01*
X149440591Y-95994072D01*
X149459725Y-95982049D01*
X149477692Y-95966132D01*
X149522404Y-95942664D01*
X149568133Y-95913932D01*
X149595190Y-95904464D01*
X149621351Y-95890734D01*
X149665591Y-95879829D01*
X149710310Y-95864182D01*
X149744880Y-95860286D01*
X149778879Y-95851907D01*
X149819254Y-95851907D01*
X149860000Y-95847316D01*
X149900746Y-95851907D01*
G37*
G36*
X200934407Y-93135462D02*
G01*
X201104000Y-93210969D01*
X201254188Y-93320087D01*
X201378407Y-93458047D01*
X201471228Y-93618818D01*
X201528595Y-93795374D01*
X201548000Y-93980000D01*
X201528595Y-94164626D01*
X201471228Y-94341182D01*
X201378407Y-94501953D01*
X201254188Y-94639913D01*
X201104000Y-94749031D01*
X200934407Y-94824538D01*
X200752821Y-94863135D01*
X200567179Y-94863135D01*
X200385593Y-94824538D01*
X200216000Y-94749031D01*
X200065812Y-94639913D01*
X199941593Y-94501953D01*
X199848772Y-94341182D01*
X199791405Y-94164626D01*
X199772000Y-93980000D01*
X199791405Y-93795374D01*
X199848772Y-93618818D01*
X199941593Y-93458047D01*
X200065812Y-93320087D01*
X200216000Y-93210969D01*
X200385593Y-93135462D01*
X200567179Y-93096865D01*
X200752821Y-93096865D01*
X200934407Y-93135462D01*
G37*
G36*
X203474407Y-93135462D02*
G01*
X203644000Y-93210969D01*
X203794188Y-93320087D01*
X203918407Y-93458047D01*
X204011228Y-93618818D01*
X204068595Y-93795374D01*
X204088000Y-93980000D01*
X204068595Y-94164626D01*
X204011228Y-94341182D01*
X203918407Y-94501953D01*
X203794188Y-94639913D01*
X203644000Y-94749031D01*
X203474407Y-94824538D01*
X203292821Y-94863135D01*
X203107179Y-94863135D01*
X202925593Y-94824538D01*
X202756000Y-94749031D01*
X202605812Y-94639913D01*
X202481593Y-94501953D01*
X202388772Y-94341182D01*
X202331405Y-94164626D01*
X202312000Y-93980000D01*
X202331405Y-93795374D01*
X202388772Y-93618818D01*
X202481593Y-93458047D01*
X202605812Y-93320087D01*
X202756000Y-93210969D01*
X202925593Y-93135462D01*
X203107179Y-93096865D01*
X203292821Y-93096865D01*
X203474407Y-93135462D01*
G37*
G36*
X185461066Y-93306943D02*
G01*
X185501724Y-93306943D01*
X185535959Y-93315381D01*
X185570800Y-93319307D01*
X185615870Y-93335077D01*
X185660422Y-93346059D01*
X185686766Y-93359885D01*
X185714037Y-93369428D01*
X185760127Y-93398388D01*
X185805148Y-93422017D01*
X185823237Y-93438042D01*
X185842525Y-93450162D01*
X185886078Y-93493715D01*
X185927490Y-93530403D01*
X185938017Y-93545654D01*
X185949837Y-93557474D01*
X185986994Y-93616610D01*
X186020339Y-93664918D01*
X186024892Y-93676925D01*
X186030571Y-93685962D01*
X186057418Y-93762686D01*
X186078299Y-93817744D01*
X186079157Y-93824813D01*
X186080692Y-93829199D01*
X186093599Y-93943761D01*
X186098000Y-93980000D01*
X186093599Y-94016241D01*
X186080692Y-94130800D01*
X186079157Y-94135185D01*
X186078299Y-94142256D01*
X186057413Y-94197325D01*
X186030571Y-94274037D01*
X186024893Y-94283072D01*
X186020339Y-94295082D01*
X185986987Y-94343399D01*
X185949837Y-94402525D01*
X185938019Y-94414342D01*
X185927490Y-94429597D01*
X185886069Y-94466292D01*
X185842525Y-94509837D01*
X185823241Y-94521953D01*
X185805148Y-94537983D01*
X185760117Y-94561616D01*
X185714037Y-94590571D01*
X185686771Y-94600111D01*
X185660422Y-94613941D01*
X185615860Y-94624924D01*
X185570800Y-94640692D01*
X185535967Y-94644616D01*
X185501724Y-94653057D01*
X185461057Y-94653057D01*
X185420000Y-94657683D01*
X185378943Y-94653057D01*
X185338276Y-94653057D01*
X185304033Y-94644616D01*
X185269199Y-94640692D01*
X185224135Y-94624923D01*
X185179578Y-94613941D01*
X185153230Y-94600112D01*
X185125962Y-94590571D01*
X185079876Y-94561613D01*
X185034852Y-94537983D01*
X185016761Y-94521955D01*
X184997474Y-94509837D01*
X184953921Y-94466284D01*
X184912510Y-94429597D01*
X184901982Y-94414345D01*
X184890162Y-94402525D01*
X184853000Y-94343383D01*
X184819661Y-94295082D01*
X184815107Y-94283076D01*
X184809428Y-94274037D01*
X184782573Y-94197291D01*
X184761701Y-94142256D01*
X184760843Y-94135189D01*
X184759307Y-94130800D01*
X184746386Y-94016127D01*
X184742000Y-93980000D01*
X184746386Y-93943875D01*
X184759307Y-93829199D01*
X184760843Y-93824808D01*
X184761701Y-93817744D01*
X184782568Y-93762720D01*
X184809428Y-93685962D01*
X184815108Y-93676921D01*
X184819661Y-93664918D01*
X184852993Y-93616626D01*
X184890162Y-93557474D01*
X184901985Y-93545650D01*
X184912510Y-93530403D01*
X184953913Y-93493722D01*
X184997474Y-93450162D01*
X185016765Y-93438040D01*
X185034852Y-93422017D01*
X185079866Y-93398391D01*
X185125962Y-93369428D01*
X185153235Y-93359884D01*
X185179578Y-93346059D01*
X185224126Y-93335078D01*
X185269199Y-93319307D01*
X185304040Y-93315381D01*
X185338276Y-93306943D01*
X185378934Y-93306943D01*
X185420000Y-93302316D01*
X185461066Y-93306943D01*
G37*
G36*
X193401066Y-93306943D02*
G01*
X193441724Y-93306943D01*
X193475959Y-93315381D01*
X193510800Y-93319307D01*
X193555870Y-93335077D01*
X193600422Y-93346059D01*
X193626766Y-93359885D01*
X193654037Y-93369428D01*
X193700127Y-93398388D01*
X193745148Y-93422017D01*
X193763237Y-93438042D01*
X193782525Y-93450162D01*
X193826078Y-93493715D01*
X193867490Y-93530403D01*
X193878017Y-93545654D01*
X193889837Y-93557474D01*
X193926994Y-93616610D01*
X193960339Y-93664918D01*
X193964892Y-93676925D01*
X193970571Y-93685962D01*
X193997418Y-93762686D01*
X194018299Y-93817744D01*
X194019157Y-93824813D01*
X194020692Y-93829199D01*
X194033599Y-93943761D01*
X194038000Y-93980000D01*
X194033599Y-94016241D01*
X194020692Y-94130800D01*
X194019157Y-94135185D01*
X194018299Y-94142256D01*
X193997413Y-94197325D01*
X193970571Y-94274037D01*
X193964893Y-94283072D01*
X193960339Y-94295082D01*
X193926987Y-94343399D01*
X193889837Y-94402525D01*
X193878019Y-94414342D01*
X193867490Y-94429597D01*
X193826069Y-94466292D01*
X193782525Y-94509837D01*
X193763241Y-94521953D01*
X193745148Y-94537983D01*
X193700117Y-94561616D01*
X193654037Y-94590571D01*
X193626771Y-94600111D01*
X193600422Y-94613941D01*
X193555860Y-94624924D01*
X193510800Y-94640692D01*
X193475967Y-94644616D01*
X193441724Y-94653057D01*
X193401057Y-94653057D01*
X193360000Y-94657683D01*
X193318943Y-94653057D01*
X193278276Y-94653057D01*
X193244033Y-94644616D01*
X193209199Y-94640692D01*
X193164135Y-94624923D01*
X193119578Y-94613941D01*
X193093230Y-94600112D01*
X193065962Y-94590571D01*
X193019876Y-94561613D01*
X192974852Y-94537983D01*
X192956761Y-94521955D01*
X192937474Y-94509837D01*
X192893921Y-94466284D01*
X192852510Y-94429597D01*
X192841982Y-94414345D01*
X192830162Y-94402525D01*
X192793000Y-94343383D01*
X192759661Y-94295082D01*
X192755107Y-94283076D01*
X192749428Y-94274037D01*
X192722573Y-94197291D01*
X192701701Y-94142256D01*
X192700843Y-94135189D01*
X192699307Y-94130800D01*
X192686386Y-94016127D01*
X192682000Y-93980000D01*
X192686386Y-93943875D01*
X192699307Y-93829199D01*
X192700843Y-93824808D01*
X192701701Y-93817744D01*
X192722568Y-93762720D01*
X192749428Y-93685962D01*
X192755108Y-93676921D01*
X192759661Y-93664918D01*
X192792993Y-93616626D01*
X192830162Y-93557474D01*
X192841985Y-93545650D01*
X192852510Y-93530403D01*
X192893913Y-93493722D01*
X192937474Y-93450162D01*
X192956765Y-93438040D01*
X192974852Y-93422017D01*
X193019866Y-93398391D01*
X193065962Y-93369428D01*
X193093235Y-93359884D01*
X193119578Y-93346059D01*
X193164126Y-93335078D01*
X193209199Y-93319307D01*
X193244040Y-93315381D01*
X193278276Y-93306943D01*
X193318934Y-93306943D01*
X193360000Y-93302316D01*
X193401066Y-93306943D01*
G37*
G36*
X149900746Y-93311907D02*
G01*
X149941121Y-93311907D01*
X149975120Y-93320287D01*
X150009689Y-93324182D01*
X150054405Y-93339828D01*
X150098649Y-93350734D01*
X150124811Y-93364465D01*
X150151866Y-93373932D01*
X150197588Y-93402661D01*
X150242308Y-93426132D01*
X150260277Y-93442051D01*
X150279408Y-93454072D01*
X150322601Y-93497265D01*
X150363748Y-93533718D01*
X150374208Y-93548872D01*
X150385927Y-93560591D01*
X150422770Y-93619227D01*
X150455912Y-93667241D01*
X150460437Y-93679173D01*
X150466067Y-93688133D01*
X150492690Y-93764217D01*
X150513444Y-93818941D01*
X150514296Y-93825966D01*
X150515817Y-93830310D01*
X150528600Y-93943765D01*
X150533000Y-93980000D01*
X150528599Y-94016237D01*
X150515817Y-94129689D01*
X150514297Y-94134032D01*
X150513444Y-94141059D01*
X150492685Y-94195794D01*
X150466067Y-94271866D01*
X150460438Y-94280823D01*
X150455912Y-94292759D01*
X150422763Y-94340782D01*
X150385927Y-94399408D01*
X150374210Y-94411124D01*
X150363748Y-94426282D01*
X150322593Y-94462741D01*
X150279408Y-94505927D01*
X150260281Y-94517945D01*
X150242308Y-94533868D01*
X150197579Y-94557343D01*
X150151866Y-94586067D01*
X150124817Y-94595531D01*
X150098649Y-94609266D01*
X150054395Y-94620173D01*
X150009689Y-94635817D01*
X149975127Y-94639711D01*
X149941121Y-94648093D01*
X149900737Y-94648093D01*
X149860000Y-94652683D01*
X149819263Y-94648093D01*
X149778879Y-94648093D01*
X149744873Y-94639711D01*
X149710310Y-94635817D01*
X149665600Y-94620172D01*
X149621351Y-94609266D01*
X149595184Y-94595532D01*
X149568133Y-94586067D01*
X149522414Y-94557340D01*
X149477692Y-94533868D01*
X149459721Y-94517947D01*
X149440591Y-94505927D01*
X149397398Y-94462734D01*
X149356252Y-94426282D01*
X149345791Y-94411127D01*
X149334072Y-94399408D01*
X149297225Y-94340766D01*
X149264088Y-94292759D01*
X149259563Y-94280827D01*
X149253932Y-94271866D01*
X149227301Y-94195760D01*
X149206556Y-94141059D01*
X149205703Y-94134036D01*
X149204182Y-94129689D01*
X149191386Y-94016123D01*
X149187000Y-93980000D01*
X149191385Y-93943879D01*
X149204182Y-93830310D01*
X149205703Y-93825961D01*
X149206556Y-93818941D01*
X149227297Y-93764251D01*
X149253932Y-93688133D01*
X149259564Y-93679169D01*
X149264088Y-93667241D01*
X149297218Y-93619243D01*
X149334072Y-93560591D01*
X149345794Y-93548868D01*
X149356252Y-93533718D01*
X149397389Y-93497273D01*
X149440591Y-93454072D01*
X149459725Y-93442049D01*
X149477692Y-93426132D01*
X149522404Y-93402664D01*
X149568133Y-93373932D01*
X149595190Y-93364464D01*
X149621351Y-93350734D01*
X149665591Y-93339829D01*
X149710310Y-93324182D01*
X149744880Y-93320286D01*
X149778879Y-93311907D01*
X149819254Y-93311907D01*
X149860000Y-93307316D01*
X149900746Y-93311907D01*
G37*
G36*
X157840746Y-93311907D02*
G01*
X157881121Y-93311907D01*
X157915120Y-93320287D01*
X157949689Y-93324182D01*
X157994405Y-93339828D01*
X158038649Y-93350734D01*
X158064811Y-93364465D01*
X158091866Y-93373932D01*
X158137588Y-93402661D01*
X158182308Y-93426132D01*
X158200277Y-93442051D01*
X158219408Y-93454072D01*
X158262601Y-93497265D01*
X158303748Y-93533718D01*
X158314208Y-93548872D01*
X158325927Y-93560591D01*
X158362770Y-93619227D01*
X158395912Y-93667241D01*
X158400437Y-93679173D01*
X158406067Y-93688133D01*
X158432690Y-93764217D01*
X158453444Y-93818941D01*
X158454296Y-93825966D01*
X158455817Y-93830310D01*
X158468600Y-93943765D01*
X158473000Y-93980000D01*
X158468599Y-94016237D01*
X158455817Y-94129689D01*
X158454297Y-94134032D01*
X158453444Y-94141059D01*
X158432685Y-94195794D01*
X158406067Y-94271866D01*
X158400438Y-94280823D01*
X158395912Y-94292759D01*
X158362763Y-94340782D01*
X158325927Y-94399408D01*
X158314210Y-94411124D01*
X158303748Y-94426282D01*
X158262593Y-94462741D01*
X158219408Y-94505927D01*
X158200281Y-94517945D01*
X158182308Y-94533868D01*
X158137579Y-94557343D01*
X158091866Y-94586067D01*
X158064817Y-94595531D01*
X158038649Y-94609266D01*
X157994395Y-94620173D01*
X157949689Y-94635817D01*
X157915127Y-94639711D01*
X157881121Y-94648093D01*
X157840737Y-94648093D01*
X157800000Y-94652683D01*
X157759263Y-94648093D01*
X157718879Y-94648093D01*
X157684873Y-94639711D01*
X157650310Y-94635817D01*
X157605600Y-94620172D01*
X157561351Y-94609266D01*
X157535184Y-94595532D01*
X157508133Y-94586067D01*
X157462414Y-94557340D01*
X157417692Y-94533868D01*
X157399721Y-94517947D01*
X157380591Y-94505927D01*
X157337398Y-94462734D01*
X157296252Y-94426282D01*
X157285791Y-94411127D01*
X157274072Y-94399408D01*
X157237225Y-94340766D01*
X157204088Y-94292759D01*
X157199563Y-94280827D01*
X157193932Y-94271866D01*
X157167301Y-94195760D01*
X157146556Y-94141059D01*
X157145703Y-94134036D01*
X157144182Y-94129689D01*
X157131386Y-94016123D01*
X157127000Y-93980000D01*
X157131385Y-93943879D01*
X157144182Y-93830310D01*
X157145703Y-93825961D01*
X157146556Y-93818941D01*
X157167297Y-93764251D01*
X157193932Y-93688133D01*
X157199564Y-93679169D01*
X157204088Y-93667241D01*
X157237218Y-93619243D01*
X157274072Y-93560591D01*
X157285794Y-93548868D01*
X157296252Y-93533718D01*
X157337389Y-93497273D01*
X157380591Y-93454072D01*
X157399725Y-93442049D01*
X157417692Y-93426132D01*
X157462404Y-93402664D01*
X157508133Y-93373932D01*
X157535190Y-93364464D01*
X157561351Y-93350734D01*
X157605591Y-93339829D01*
X157650310Y-93324182D01*
X157684880Y-93320286D01*
X157718879Y-93311907D01*
X157759254Y-93311907D01*
X157800000Y-93307316D01*
X157840746Y-93311907D01*
G37*
G36*
X200934407Y-90595462D02*
G01*
X201104000Y-90670969D01*
X201254188Y-90780087D01*
X201378407Y-90918047D01*
X201471228Y-91078818D01*
X201528595Y-91255374D01*
X201548000Y-91440000D01*
X201528595Y-91624626D01*
X201471228Y-91801182D01*
X201378407Y-91961953D01*
X201254188Y-92099913D01*
X201104000Y-92209031D01*
X200934407Y-92284538D01*
X200752821Y-92323135D01*
X200567179Y-92323135D01*
X200385593Y-92284538D01*
X200216000Y-92209031D01*
X200065812Y-92099913D01*
X199941593Y-91961953D01*
X199848772Y-91801182D01*
X199791405Y-91624626D01*
X199772000Y-91440000D01*
X199791405Y-91255374D01*
X199848772Y-91078818D01*
X199941593Y-90918047D01*
X200065812Y-90780087D01*
X200216000Y-90670969D01*
X200385593Y-90595462D01*
X200567179Y-90556865D01*
X200752821Y-90556865D01*
X200934407Y-90595462D01*
G37*
G36*
X203474407Y-90595462D02*
G01*
X203644000Y-90670969D01*
X203794188Y-90780087D01*
X203918407Y-90918047D01*
X204011228Y-91078818D01*
X204068595Y-91255374D01*
X204088000Y-91440000D01*
X204068595Y-91624626D01*
X204011228Y-91801182D01*
X203918407Y-91961953D01*
X203794188Y-92099913D01*
X203644000Y-92209031D01*
X203474407Y-92284538D01*
X203292821Y-92323135D01*
X203107179Y-92323135D01*
X202925593Y-92284538D01*
X202756000Y-92209031D01*
X202605812Y-92099913D01*
X202481593Y-91961953D01*
X202388772Y-91801182D01*
X202331405Y-91624626D01*
X202312000Y-91440000D01*
X202331405Y-91255374D01*
X202388772Y-91078818D01*
X202481593Y-90918047D01*
X202605812Y-90780087D01*
X202756000Y-90670969D01*
X202925593Y-90595462D01*
X203107179Y-90556865D01*
X203292821Y-90556865D01*
X203474407Y-90595462D01*
G37*
G36*
X185461066Y-90766943D02*
G01*
X185501724Y-90766943D01*
X185535959Y-90775381D01*
X185570800Y-90779307D01*
X185615870Y-90795077D01*
X185660422Y-90806059D01*
X185686766Y-90819885D01*
X185714037Y-90829428D01*
X185760127Y-90858388D01*
X185805148Y-90882017D01*
X185823237Y-90898042D01*
X185842525Y-90910162D01*
X185886078Y-90953715D01*
X185927490Y-90990403D01*
X185938017Y-91005654D01*
X185949837Y-91017474D01*
X185986994Y-91076610D01*
X186020339Y-91124918D01*
X186024892Y-91136925D01*
X186030571Y-91145962D01*
X186057418Y-91222686D01*
X186078299Y-91277744D01*
X186079157Y-91284813D01*
X186080692Y-91289199D01*
X186093599Y-91403761D01*
X186098000Y-91440000D01*
X186093599Y-91476241D01*
X186080692Y-91590800D01*
X186079157Y-91595185D01*
X186078299Y-91602256D01*
X186057413Y-91657325D01*
X186030571Y-91734037D01*
X186024893Y-91743072D01*
X186020339Y-91755082D01*
X185986987Y-91803399D01*
X185949837Y-91862525D01*
X185938019Y-91874342D01*
X185927490Y-91889597D01*
X185886069Y-91926292D01*
X185842525Y-91969837D01*
X185823241Y-91981953D01*
X185805148Y-91997983D01*
X185760117Y-92021616D01*
X185714037Y-92050571D01*
X185686771Y-92060111D01*
X185660422Y-92073941D01*
X185615860Y-92084924D01*
X185570800Y-92100692D01*
X185535967Y-92104616D01*
X185501724Y-92113057D01*
X185461057Y-92113057D01*
X185420000Y-92117683D01*
X185378943Y-92113057D01*
X185338276Y-92113057D01*
X185304033Y-92104616D01*
X185269199Y-92100692D01*
X185224135Y-92084923D01*
X185179578Y-92073941D01*
X185153230Y-92060112D01*
X185125962Y-92050571D01*
X185079876Y-92021613D01*
X185034852Y-91997983D01*
X185016761Y-91981955D01*
X184997474Y-91969837D01*
X184953921Y-91926284D01*
X184912510Y-91889597D01*
X184901982Y-91874345D01*
X184890162Y-91862525D01*
X184853000Y-91803383D01*
X184819661Y-91755082D01*
X184815107Y-91743076D01*
X184809428Y-91734037D01*
X184782573Y-91657291D01*
X184761701Y-91602256D01*
X184760843Y-91595189D01*
X184759307Y-91590800D01*
X184746386Y-91476127D01*
X184742000Y-91440000D01*
X184746386Y-91403875D01*
X184759307Y-91289199D01*
X184760843Y-91284808D01*
X184761701Y-91277744D01*
X184782568Y-91222720D01*
X184809428Y-91145962D01*
X184815108Y-91136921D01*
X184819661Y-91124918D01*
X184852993Y-91076626D01*
X184890162Y-91017474D01*
X184901985Y-91005650D01*
X184912510Y-90990403D01*
X184953913Y-90953722D01*
X184997474Y-90910162D01*
X185016765Y-90898040D01*
X185034852Y-90882017D01*
X185079866Y-90858391D01*
X185125962Y-90829428D01*
X185153235Y-90819884D01*
X185179578Y-90806059D01*
X185224126Y-90795078D01*
X185269199Y-90779307D01*
X185304040Y-90775381D01*
X185338276Y-90766943D01*
X185378934Y-90766943D01*
X185420000Y-90762316D01*
X185461066Y-90766943D01*
G37*
G36*
X193401066Y-90766943D02*
G01*
X193441724Y-90766943D01*
X193475959Y-90775381D01*
X193510800Y-90779307D01*
X193555870Y-90795077D01*
X193600422Y-90806059D01*
X193626766Y-90819885D01*
X193654037Y-90829428D01*
X193700127Y-90858388D01*
X193745148Y-90882017D01*
X193763237Y-90898042D01*
X193782525Y-90910162D01*
X193826078Y-90953715D01*
X193867490Y-90990403D01*
X193878017Y-91005654D01*
X193889837Y-91017474D01*
X193926994Y-91076610D01*
X193960339Y-91124918D01*
X193964892Y-91136925D01*
X193970571Y-91145962D01*
X193997418Y-91222686D01*
X194018299Y-91277744D01*
X194019157Y-91284813D01*
X194020692Y-91289199D01*
X194033599Y-91403761D01*
X194038000Y-91440000D01*
X194033599Y-91476241D01*
X194020692Y-91590800D01*
X194019157Y-91595185D01*
X194018299Y-91602256D01*
X193997413Y-91657325D01*
X193970571Y-91734037D01*
X193964893Y-91743072D01*
X193960339Y-91755082D01*
X193926987Y-91803399D01*
X193889837Y-91862525D01*
X193878019Y-91874342D01*
X193867490Y-91889597D01*
X193826069Y-91926292D01*
X193782525Y-91969837D01*
X193763241Y-91981953D01*
X193745148Y-91997983D01*
X193700117Y-92021616D01*
X193654037Y-92050571D01*
X193626771Y-92060111D01*
X193600422Y-92073941D01*
X193555860Y-92084924D01*
X193510800Y-92100692D01*
X193475967Y-92104616D01*
X193441724Y-92113057D01*
X193401057Y-92113057D01*
X193360000Y-92117683D01*
X193318943Y-92113057D01*
X193278276Y-92113057D01*
X193244033Y-92104616D01*
X193209199Y-92100692D01*
X193164135Y-92084923D01*
X193119578Y-92073941D01*
X193093230Y-92060112D01*
X193065962Y-92050571D01*
X193019876Y-92021613D01*
X192974852Y-91997983D01*
X192956761Y-91981955D01*
X192937474Y-91969837D01*
X192893921Y-91926284D01*
X192852510Y-91889597D01*
X192841982Y-91874345D01*
X192830162Y-91862525D01*
X192793000Y-91803383D01*
X192759661Y-91755082D01*
X192755107Y-91743076D01*
X192749428Y-91734037D01*
X192722573Y-91657291D01*
X192701701Y-91602256D01*
X192700843Y-91595189D01*
X192699307Y-91590800D01*
X192686386Y-91476127D01*
X192682000Y-91440000D01*
X192686386Y-91403875D01*
X192699307Y-91289199D01*
X192700843Y-91284808D01*
X192701701Y-91277744D01*
X192722568Y-91222720D01*
X192749428Y-91145962D01*
X192755108Y-91136921D01*
X192759661Y-91124918D01*
X192792993Y-91076626D01*
X192830162Y-91017474D01*
X192841985Y-91005650D01*
X192852510Y-90990403D01*
X192893913Y-90953722D01*
X192937474Y-90910162D01*
X192956765Y-90898040D01*
X192974852Y-90882017D01*
X193019866Y-90858391D01*
X193065962Y-90829428D01*
X193093235Y-90819884D01*
X193119578Y-90806059D01*
X193164126Y-90795078D01*
X193209199Y-90779307D01*
X193244040Y-90775381D01*
X193278276Y-90766943D01*
X193318934Y-90766943D01*
X193360000Y-90762316D01*
X193401066Y-90766943D01*
G37*
G36*
X149900746Y-90771907D02*
G01*
X149941121Y-90771907D01*
X149975120Y-90780287D01*
X150009689Y-90784182D01*
X150054405Y-90799828D01*
X150098649Y-90810734D01*
X150124811Y-90824465D01*
X150151866Y-90833932D01*
X150197588Y-90862661D01*
X150242308Y-90886132D01*
X150260277Y-90902051D01*
X150279408Y-90914072D01*
X150322601Y-90957265D01*
X150363748Y-90993718D01*
X150374208Y-91008872D01*
X150385927Y-91020591D01*
X150422770Y-91079227D01*
X150455912Y-91127241D01*
X150460437Y-91139173D01*
X150466067Y-91148133D01*
X150492690Y-91224217D01*
X150513444Y-91278941D01*
X150514296Y-91285966D01*
X150515817Y-91290310D01*
X150528600Y-91403765D01*
X150533000Y-91440000D01*
X150528599Y-91476237D01*
X150515817Y-91589689D01*
X150514297Y-91594032D01*
X150513444Y-91601059D01*
X150492685Y-91655794D01*
X150466067Y-91731866D01*
X150460438Y-91740823D01*
X150455912Y-91752759D01*
X150422763Y-91800782D01*
X150385927Y-91859408D01*
X150374210Y-91871124D01*
X150363748Y-91886282D01*
X150322593Y-91922741D01*
X150279408Y-91965927D01*
X150260281Y-91977945D01*
X150242308Y-91993868D01*
X150197579Y-92017343D01*
X150151866Y-92046067D01*
X150124817Y-92055531D01*
X150098649Y-92069266D01*
X150054395Y-92080173D01*
X150009689Y-92095817D01*
X149975127Y-92099711D01*
X149941121Y-92108093D01*
X149900737Y-92108093D01*
X149860000Y-92112683D01*
X149819263Y-92108093D01*
X149778879Y-92108093D01*
X149744873Y-92099711D01*
X149710310Y-92095817D01*
X149665600Y-92080172D01*
X149621351Y-92069266D01*
X149595184Y-92055532D01*
X149568133Y-92046067D01*
X149522414Y-92017340D01*
X149477692Y-91993868D01*
X149459721Y-91977947D01*
X149440591Y-91965927D01*
X149397398Y-91922734D01*
X149356252Y-91886282D01*
X149345791Y-91871127D01*
X149334072Y-91859408D01*
X149297225Y-91800766D01*
X149264088Y-91752759D01*
X149259563Y-91740827D01*
X149253932Y-91731866D01*
X149227301Y-91655760D01*
X149206556Y-91601059D01*
X149205703Y-91594036D01*
X149204182Y-91589689D01*
X149191386Y-91476123D01*
X149187000Y-91440000D01*
X149191385Y-91403879D01*
X149204182Y-91290310D01*
X149205703Y-91285961D01*
X149206556Y-91278941D01*
X149227297Y-91224251D01*
X149253932Y-91148133D01*
X149259564Y-91139169D01*
X149264088Y-91127241D01*
X149297218Y-91079243D01*
X149334072Y-91020591D01*
X149345794Y-91008868D01*
X149356252Y-90993718D01*
X149397389Y-90957273D01*
X149440591Y-90914072D01*
X149459725Y-90902049D01*
X149477692Y-90886132D01*
X149522404Y-90862664D01*
X149568133Y-90833932D01*
X149595190Y-90824464D01*
X149621351Y-90810734D01*
X149665591Y-90799829D01*
X149710310Y-90784182D01*
X149744880Y-90780286D01*
X149778879Y-90771907D01*
X149819254Y-90771907D01*
X149860000Y-90767316D01*
X149900746Y-90771907D01*
G37*
G36*
X157840746Y-90771907D02*
G01*
X157881121Y-90771907D01*
X157915120Y-90780287D01*
X157949689Y-90784182D01*
X157994405Y-90799828D01*
X158038649Y-90810734D01*
X158064811Y-90824465D01*
X158091866Y-90833932D01*
X158137588Y-90862661D01*
X158182308Y-90886132D01*
X158200277Y-90902051D01*
X158219408Y-90914072D01*
X158262601Y-90957265D01*
X158303748Y-90993718D01*
X158314208Y-91008872D01*
X158325927Y-91020591D01*
X158362770Y-91079227D01*
X158395912Y-91127241D01*
X158400437Y-91139173D01*
X158406067Y-91148133D01*
X158432690Y-91224217D01*
X158453444Y-91278941D01*
X158454296Y-91285966D01*
X158455817Y-91290310D01*
X158468600Y-91403765D01*
X158473000Y-91440000D01*
X158468599Y-91476237D01*
X158455817Y-91589689D01*
X158454297Y-91594032D01*
X158453444Y-91601059D01*
X158432685Y-91655794D01*
X158406067Y-91731866D01*
X158400438Y-91740823D01*
X158395912Y-91752759D01*
X158362763Y-91800782D01*
X158325927Y-91859408D01*
X158314210Y-91871124D01*
X158303748Y-91886282D01*
X158262593Y-91922741D01*
X158219408Y-91965927D01*
X158200281Y-91977945D01*
X158182308Y-91993868D01*
X158137579Y-92017343D01*
X158091866Y-92046067D01*
X158064817Y-92055531D01*
X158038649Y-92069266D01*
X157994395Y-92080173D01*
X157949689Y-92095817D01*
X157915127Y-92099711D01*
X157881121Y-92108093D01*
X157840737Y-92108093D01*
X157800000Y-92112683D01*
X157759263Y-92108093D01*
X157718879Y-92108093D01*
X157684873Y-92099711D01*
X157650310Y-92095817D01*
X157605600Y-92080172D01*
X157561351Y-92069266D01*
X157535184Y-92055532D01*
X157508133Y-92046067D01*
X157462414Y-92017340D01*
X157417692Y-91993868D01*
X157399721Y-91977947D01*
X157380591Y-91965927D01*
X157337398Y-91922734D01*
X157296252Y-91886282D01*
X157285791Y-91871127D01*
X157274072Y-91859408D01*
X157237225Y-91800766D01*
X157204088Y-91752759D01*
X157199563Y-91740827D01*
X157193932Y-91731866D01*
X157167301Y-91655760D01*
X157146556Y-91601059D01*
X157145703Y-91594036D01*
X157144182Y-91589689D01*
X157131386Y-91476123D01*
X157127000Y-91440000D01*
X157131385Y-91403879D01*
X157144182Y-91290310D01*
X157145703Y-91285961D01*
X157146556Y-91278941D01*
X157167297Y-91224251D01*
X157193932Y-91148133D01*
X157199564Y-91139169D01*
X157204088Y-91127241D01*
X157237218Y-91079243D01*
X157274072Y-91020591D01*
X157285794Y-91008868D01*
X157296252Y-90993718D01*
X157337389Y-90957273D01*
X157380591Y-90914072D01*
X157399725Y-90902049D01*
X157417692Y-90886132D01*
X157462404Y-90862664D01*
X157508133Y-90833932D01*
X157535190Y-90824464D01*
X157561351Y-90810734D01*
X157605591Y-90799829D01*
X157650310Y-90784182D01*
X157684880Y-90780286D01*
X157718879Y-90771907D01*
X157759254Y-90771907D01*
X157800000Y-90767316D01*
X157840746Y-90771907D01*
G37*
G36*
X127986060Y-89100759D02*
G01*
X127998388Y-89108996D01*
X128006625Y-89121324D01*
X128009518Y-89135866D01*
X128009518Y-90835866D01*
X128006625Y-90850408D01*
X127998388Y-90862736D01*
X127986060Y-90870973D01*
X127971518Y-90873866D01*
X126271518Y-90873866D01*
X126256976Y-90870973D01*
X126244648Y-90862736D01*
X126236411Y-90850408D01*
X126233518Y-90835866D01*
X126233518Y-89135866D01*
X126236411Y-89121324D01*
X126244648Y-89108996D01*
X126256976Y-89100759D01*
X126271518Y-89097866D01*
X127971518Y-89097866D01*
X127986060Y-89100759D01*
G37*
G36*
X129935925Y-89141328D02*
G01*
X130105518Y-89216835D01*
X130255706Y-89325953D01*
X130379925Y-89463913D01*
X130472746Y-89624684D01*
X130530113Y-89801240D01*
X130549518Y-89985866D01*
X130530113Y-90170492D01*
X130472746Y-90347048D01*
X130379925Y-90507819D01*
X130255706Y-90645779D01*
X130105518Y-90754897D01*
X129935925Y-90830404D01*
X129754339Y-90869001D01*
X129568697Y-90869001D01*
X129387111Y-90830404D01*
X129217518Y-90754897D01*
X129067330Y-90645779D01*
X128943111Y-90507819D01*
X128850290Y-90347048D01*
X128792923Y-90170492D01*
X128773518Y-89985866D01*
X128792923Y-89801240D01*
X128850290Y-89624684D01*
X128943111Y-89463913D01*
X129067330Y-89325953D01*
X129217518Y-89216835D01*
X129387111Y-89141328D01*
X129568697Y-89102731D01*
X129754339Y-89102731D01*
X129935925Y-89141328D01*
G37*
G36*
X132475925Y-89141328D02*
G01*
X132645518Y-89216835D01*
X132795706Y-89325953D01*
X132919925Y-89463913D01*
X133012746Y-89624684D01*
X133070113Y-89801240D01*
X133089518Y-89985866D01*
X133070113Y-90170492D01*
X133012746Y-90347048D01*
X132919925Y-90507819D01*
X132795706Y-90645779D01*
X132645518Y-90754897D01*
X132475925Y-90830404D01*
X132294339Y-90869001D01*
X132108697Y-90869001D01*
X131927111Y-90830404D01*
X131757518Y-90754897D01*
X131607330Y-90645779D01*
X131483111Y-90507819D01*
X131390290Y-90347048D01*
X131332923Y-90170492D01*
X131313518Y-89985866D01*
X131332923Y-89801240D01*
X131390290Y-89624684D01*
X131483111Y-89463913D01*
X131607330Y-89325953D01*
X131757518Y-89216835D01*
X131927111Y-89141328D01*
X132108697Y-89102731D01*
X132294339Y-89102731D01*
X132475925Y-89141328D01*
G37*
G36*
X135015925Y-89141328D02*
G01*
X135185518Y-89216835D01*
X135335706Y-89325953D01*
X135459925Y-89463913D01*
X135552746Y-89624684D01*
X135610113Y-89801240D01*
X135629518Y-89985866D01*
X135610113Y-90170492D01*
X135552746Y-90347048D01*
X135459925Y-90507819D01*
X135335706Y-90645779D01*
X135185518Y-90754897D01*
X135015925Y-90830404D01*
X134834339Y-90869001D01*
X134648697Y-90869001D01*
X134467111Y-90830404D01*
X134297518Y-90754897D01*
X134147330Y-90645779D01*
X134023111Y-90507819D01*
X133930290Y-90347048D01*
X133872923Y-90170492D01*
X133853518Y-89985866D01*
X133872923Y-89801240D01*
X133930290Y-89624684D01*
X134023111Y-89463913D01*
X134147330Y-89325953D01*
X134297518Y-89216835D01*
X134467111Y-89141328D01*
X134648697Y-89102731D01*
X134834339Y-89102731D01*
X135015925Y-89141328D01*
G37*
G36*
X200934407Y-88055462D02*
G01*
X201104000Y-88130969D01*
X201254188Y-88240087D01*
X201378407Y-88378047D01*
X201471228Y-88538818D01*
X201528595Y-88715374D01*
X201548000Y-88900000D01*
X201528595Y-89084626D01*
X201471228Y-89261182D01*
X201378407Y-89421953D01*
X201254188Y-89559913D01*
X201104000Y-89669031D01*
X200934407Y-89744538D01*
X200752821Y-89783135D01*
X200567179Y-89783135D01*
X200385593Y-89744538D01*
X200216000Y-89669031D01*
X200065812Y-89559913D01*
X199941593Y-89421953D01*
X199848772Y-89261182D01*
X199791405Y-89084626D01*
X199772000Y-88900000D01*
X199791405Y-88715374D01*
X199848772Y-88538818D01*
X199941593Y-88378047D01*
X200065812Y-88240087D01*
X200216000Y-88130969D01*
X200385593Y-88055462D01*
X200567179Y-88016865D01*
X200752821Y-88016865D01*
X200934407Y-88055462D01*
G37*
G36*
X203474407Y-88055462D02*
G01*
X203644000Y-88130969D01*
X203794188Y-88240087D01*
X203918407Y-88378047D01*
X204011228Y-88538818D01*
X204068595Y-88715374D01*
X204088000Y-88900000D01*
X204068595Y-89084626D01*
X204011228Y-89261182D01*
X203918407Y-89421953D01*
X203794188Y-89559913D01*
X203644000Y-89669031D01*
X203474407Y-89744538D01*
X203292821Y-89783135D01*
X203107179Y-89783135D01*
X202925593Y-89744538D01*
X202756000Y-89669031D01*
X202605812Y-89559913D01*
X202481593Y-89421953D01*
X202388772Y-89261182D01*
X202331405Y-89084626D01*
X202312000Y-88900000D01*
X202331405Y-88715374D01*
X202388772Y-88538818D01*
X202481593Y-88378047D01*
X202605812Y-88240087D01*
X202756000Y-88130969D01*
X202925593Y-88055462D01*
X203107179Y-88016865D01*
X203292821Y-88016865D01*
X203474407Y-88055462D01*
G37*
G36*
X185461066Y-88226943D02*
G01*
X185501724Y-88226943D01*
X185535959Y-88235381D01*
X185570800Y-88239307D01*
X185615870Y-88255077D01*
X185660422Y-88266059D01*
X185686766Y-88279885D01*
X185714037Y-88289428D01*
X185760127Y-88318388D01*
X185805148Y-88342017D01*
X185823237Y-88358042D01*
X185842525Y-88370162D01*
X185886078Y-88413715D01*
X185927490Y-88450403D01*
X185938017Y-88465654D01*
X185949837Y-88477474D01*
X185986994Y-88536610D01*
X186020339Y-88584918D01*
X186024892Y-88596925D01*
X186030571Y-88605962D01*
X186057418Y-88682686D01*
X186078299Y-88737744D01*
X186079157Y-88744813D01*
X186080692Y-88749199D01*
X186093599Y-88863761D01*
X186098000Y-88900000D01*
X186093599Y-88936241D01*
X186080692Y-89050800D01*
X186079157Y-89055185D01*
X186078299Y-89062256D01*
X186057413Y-89117325D01*
X186030571Y-89194037D01*
X186024893Y-89203072D01*
X186020339Y-89215082D01*
X185986987Y-89263399D01*
X185949837Y-89322525D01*
X185938019Y-89334342D01*
X185927490Y-89349597D01*
X185886069Y-89386292D01*
X185842525Y-89429837D01*
X185823241Y-89441953D01*
X185805148Y-89457983D01*
X185760117Y-89481616D01*
X185714037Y-89510571D01*
X185686771Y-89520111D01*
X185660422Y-89533941D01*
X185615860Y-89544924D01*
X185570800Y-89560692D01*
X185535967Y-89564616D01*
X185501724Y-89573057D01*
X185461057Y-89573057D01*
X185420000Y-89577683D01*
X185378943Y-89573057D01*
X185338276Y-89573057D01*
X185304033Y-89564616D01*
X185269199Y-89560692D01*
X185224135Y-89544923D01*
X185179578Y-89533941D01*
X185153230Y-89520112D01*
X185125962Y-89510571D01*
X185079876Y-89481613D01*
X185034852Y-89457983D01*
X185016761Y-89441955D01*
X184997474Y-89429837D01*
X184953921Y-89386284D01*
X184912510Y-89349597D01*
X184901982Y-89334345D01*
X184890162Y-89322525D01*
X184853000Y-89263383D01*
X184819661Y-89215082D01*
X184815107Y-89203076D01*
X184809428Y-89194037D01*
X184782573Y-89117291D01*
X184761701Y-89062256D01*
X184760843Y-89055189D01*
X184759307Y-89050800D01*
X184746386Y-88936127D01*
X184742000Y-88900000D01*
X184746386Y-88863875D01*
X184759307Y-88749199D01*
X184760843Y-88744808D01*
X184761701Y-88737744D01*
X184782568Y-88682720D01*
X184809428Y-88605962D01*
X184815108Y-88596921D01*
X184819661Y-88584918D01*
X184852993Y-88536626D01*
X184890162Y-88477474D01*
X184901985Y-88465650D01*
X184912510Y-88450403D01*
X184953913Y-88413722D01*
X184997474Y-88370162D01*
X185016765Y-88358040D01*
X185034852Y-88342017D01*
X185079866Y-88318391D01*
X185125962Y-88289428D01*
X185153235Y-88279884D01*
X185179578Y-88266059D01*
X185224126Y-88255078D01*
X185269199Y-88239307D01*
X185304040Y-88235381D01*
X185338276Y-88226943D01*
X185378934Y-88226943D01*
X185420000Y-88222316D01*
X185461066Y-88226943D01*
G37*
G36*
X193401066Y-88226943D02*
G01*
X193441724Y-88226943D01*
X193475959Y-88235381D01*
X193510800Y-88239307D01*
X193555870Y-88255077D01*
X193600422Y-88266059D01*
X193626766Y-88279885D01*
X193654037Y-88289428D01*
X193700127Y-88318388D01*
X193745148Y-88342017D01*
X193763237Y-88358042D01*
X193782525Y-88370162D01*
X193826078Y-88413715D01*
X193867490Y-88450403D01*
X193878017Y-88465654D01*
X193889837Y-88477474D01*
X193926994Y-88536610D01*
X193960339Y-88584918D01*
X193964892Y-88596925D01*
X193970571Y-88605962D01*
X193997418Y-88682686D01*
X194018299Y-88737744D01*
X194019157Y-88744813D01*
X194020692Y-88749199D01*
X194033599Y-88863761D01*
X194038000Y-88900000D01*
X194033599Y-88936241D01*
X194020692Y-89050800D01*
X194019157Y-89055185D01*
X194018299Y-89062256D01*
X193997413Y-89117325D01*
X193970571Y-89194037D01*
X193964893Y-89203072D01*
X193960339Y-89215082D01*
X193926987Y-89263399D01*
X193889837Y-89322525D01*
X193878019Y-89334342D01*
X193867490Y-89349597D01*
X193826069Y-89386292D01*
X193782525Y-89429837D01*
X193763241Y-89441953D01*
X193745148Y-89457983D01*
X193700117Y-89481616D01*
X193654037Y-89510571D01*
X193626771Y-89520111D01*
X193600422Y-89533941D01*
X193555860Y-89544924D01*
X193510800Y-89560692D01*
X193475967Y-89564616D01*
X193441724Y-89573057D01*
X193401057Y-89573057D01*
X193360000Y-89577683D01*
X193318943Y-89573057D01*
X193278276Y-89573057D01*
X193244033Y-89564616D01*
X193209199Y-89560692D01*
X193164135Y-89544923D01*
X193119578Y-89533941D01*
X193093230Y-89520112D01*
X193065962Y-89510571D01*
X193019876Y-89481613D01*
X192974852Y-89457983D01*
X192956761Y-89441955D01*
X192937474Y-89429837D01*
X192893921Y-89386284D01*
X192852510Y-89349597D01*
X192841982Y-89334345D01*
X192830162Y-89322525D01*
X192793000Y-89263383D01*
X192759661Y-89215082D01*
X192755107Y-89203076D01*
X192749428Y-89194037D01*
X192722573Y-89117291D01*
X192701701Y-89062256D01*
X192700843Y-89055189D01*
X192699307Y-89050800D01*
X192686386Y-88936127D01*
X192682000Y-88900000D01*
X192686386Y-88863875D01*
X192699307Y-88749199D01*
X192700843Y-88744808D01*
X192701701Y-88737744D01*
X192722568Y-88682720D01*
X192749428Y-88605962D01*
X192755108Y-88596921D01*
X192759661Y-88584918D01*
X192792993Y-88536626D01*
X192830162Y-88477474D01*
X192841985Y-88465650D01*
X192852510Y-88450403D01*
X192893913Y-88413722D01*
X192937474Y-88370162D01*
X192956765Y-88358040D01*
X192974852Y-88342017D01*
X193019866Y-88318391D01*
X193065962Y-88289428D01*
X193093235Y-88279884D01*
X193119578Y-88266059D01*
X193164126Y-88255078D01*
X193209199Y-88239307D01*
X193244040Y-88235381D01*
X193278276Y-88226943D01*
X193318934Y-88226943D01*
X193360000Y-88222316D01*
X193401066Y-88226943D01*
G37*
G36*
X149900746Y-88231907D02*
G01*
X149941121Y-88231907D01*
X149975120Y-88240287D01*
X150009689Y-88244182D01*
X150054405Y-88259828D01*
X150098649Y-88270734D01*
X150124811Y-88284465D01*
X150151866Y-88293932D01*
X150197588Y-88322661D01*
X150242308Y-88346132D01*
X150260277Y-88362051D01*
X150279408Y-88374072D01*
X150322601Y-88417265D01*
X150363748Y-88453718D01*
X150374208Y-88468872D01*
X150385927Y-88480591D01*
X150422770Y-88539227D01*
X150455912Y-88587241D01*
X150460437Y-88599173D01*
X150466067Y-88608133D01*
X150492690Y-88684217D01*
X150513444Y-88738941D01*
X150514296Y-88745966D01*
X150515817Y-88750310D01*
X150528600Y-88863765D01*
X150533000Y-88900000D01*
X150528599Y-88936237D01*
X150515817Y-89049689D01*
X150514297Y-89054032D01*
X150513444Y-89061059D01*
X150492685Y-89115794D01*
X150466067Y-89191866D01*
X150460438Y-89200823D01*
X150455912Y-89212759D01*
X150422763Y-89260782D01*
X150385927Y-89319408D01*
X150374210Y-89331124D01*
X150363748Y-89346282D01*
X150322593Y-89382741D01*
X150279408Y-89425927D01*
X150260281Y-89437945D01*
X150242308Y-89453868D01*
X150197579Y-89477343D01*
X150151866Y-89506067D01*
X150124817Y-89515531D01*
X150098649Y-89529266D01*
X150054395Y-89540173D01*
X150009689Y-89555817D01*
X149975127Y-89559711D01*
X149941121Y-89568093D01*
X149900737Y-89568093D01*
X149860000Y-89572683D01*
X149819263Y-89568093D01*
X149778879Y-89568093D01*
X149744873Y-89559711D01*
X149710310Y-89555817D01*
X149665600Y-89540172D01*
X149621351Y-89529266D01*
X149595184Y-89515532D01*
X149568133Y-89506067D01*
X149522414Y-89477340D01*
X149477692Y-89453868D01*
X149459721Y-89437947D01*
X149440591Y-89425927D01*
X149397398Y-89382734D01*
X149356252Y-89346282D01*
X149345791Y-89331127D01*
X149334072Y-89319408D01*
X149297225Y-89260766D01*
X149264088Y-89212759D01*
X149259563Y-89200827D01*
X149253932Y-89191866D01*
X149227301Y-89115760D01*
X149206556Y-89061059D01*
X149205703Y-89054036D01*
X149204182Y-89049689D01*
X149191386Y-88936123D01*
X149187000Y-88900000D01*
X149191385Y-88863879D01*
X149204182Y-88750310D01*
X149205703Y-88745961D01*
X149206556Y-88738941D01*
X149227297Y-88684251D01*
X149253932Y-88608133D01*
X149259564Y-88599169D01*
X149264088Y-88587241D01*
X149297218Y-88539243D01*
X149334072Y-88480591D01*
X149345794Y-88468868D01*
X149356252Y-88453718D01*
X149397389Y-88417273D01*
X149440591Y-88374072D01*
X149459725Y-88362049D01*
X149477692Y-88346132D01*
X149522404Y-88322664D01*
X149568133Y-88293932D01*
X149595190Y-88284464D01*
X149621351Y-88270734D01*
X149665591Y-88259829D01*
X149710310Y-88244182D01*
X149744880Y-88240286D01*
X149778879Y-88231907D01*
X149819254Y-88231907D01*
X149860000Y-88227316D01*
X149900746Y-88231907D01*
G37*
G36*
X157840746Y-88231907D02*
G01*
X157881121Y-88231907D01*
X157915120Y-88240287D01*
X157949689Y-88244182D01*
X157994405Y-88259828D01*
X158038649Y-88270734D01*
X158064811Y-88284465D01*
X158091866Y-88293932D01*
X158137588Y-88322661D01*
X158182308Y-88346132D01*
X158200277Y-88362051D01*
X158219408Y-88374072D01*
X158262601Y-88417265D01*
X158303748Y-88453718D01*
X158314208Y-88468872D01*
X158325927Y-88480591D01*
X158362770Y-88539227D01*
X158395912Y-88587241D01*
X158400437Y-88599173D01*
X158406067Y-88608133D01*
X158432690Y-88684217D01*
X158453444Y-88738941D01*
X158454296Y-88745966D01*
X158455817Y-88750310D01*
X158468600Y-88863765D01*
X158473000Y-88900000D01*
X158468599Y-88936237D01*
X158455817Y-89049689D01*
X158454297Y-89054032D01*
X158453444Y-89061059D01*
X158432685Y-89115794D01*
X158406067Y-89191866D01*
X158400438Y-89200823D01*
X158395912Y-89212759D01*
X158362763Y-89260782D01*
X158325927Y-89319408D01*
X158314210Y-89331124D01*
X158303748Y-89346282D01*
X158262593Y-89382741D01*
X158219408Y-89425927D01*
X158200281Y-89437945D01*
X158182308Y-89453868D01*
X158137579Y-89477343D01*
X158091866Y-89506067D01*
X158064817Y-89515531D01*
X158038649Y-89529266D01*
X157994395Y-89540173D01*
X157949689Y-89555817D01*
X157915127Y-89559711D01*
X157881121Y-89568093D01*
X157840737Y-89568093D01*
X157800000Y-89572683D01*
X157759263Y-89568093D01*
X157718879Y-89568093D01*
X157684873Y-89559711D01*
X157650310Y-89555817D01*
X157605600Y-89540172D01*
X157561351Y-89529266D01*
X157535184Y-89515532D01*
X157508133Y-89506067D01*
X157462414Y-89477340D01*
X157417692Y-89453868D01*
X157399721Y-89437947D01*
X157380591Y-89425927D01*
X157337398Y-89382734D01*
X157296252Y-89346282D01*
X157285791Y-89331127D01*
X157274072Y-89319408D01*
X157237225Y-89260766D01*
X157204088Y-89212759D01*
X157199563Y-89200827D01*
X157193932Y-89191866D01*
X157167301Y-89115760D01*
X157146556Y-89061059D01*
X157145703Y-89054036D01*
X157144182Y-89049689D01*
X157131386Y-88936123D01*
X157127000Y-88900000D01*
X157131385Y-88863879D01*
X157144182Y-88750310D01*
X157145703Y-88745961D01*
X157146556Y-88738941D01*
X157167297Y-88684251D01*
X157193932Y-88608133D01*
X157199564Y-88599169D01*
X157204088Y-88587241D01*
X157237218Y-88539243D01*
X157274072Y-88480591D01*
X157285794Y-88468868D01*
X157296252Y-88453718D01*
X157337389Y-88417273D01*
X157380591Y-88374072D01*
X157399725Y-88362049D01*
X157417692Y-88346132D01*
X157462404Y-88322664D01*
X157508133Y-88293932D01*
X157535190Y-88284464D01*
X157561351Y-88270734D01*
X157605591Y-88259829D01*
X157650310Y-88244182D01*
X157684880Y-88240286D01*
X157718879Y-88231907D01*
X157759254Y-88231907D01*
X157800000Y-88227316D01*
X157840746Y-88231907D01*
G37*
G36*
X203474407Y-85515462D02*
G01*
X203644000Y-85590969D01*
X203794188Y-85700087D01*
X203918407Y-85838047D01*
X204011228Y-85998818D01*
X204068595Y-86175374D01*
X204088000Y-86360000D01*
X204068595Y-86544626D01*
X204011228Y-86721182D01*
X203918407Y-86881953D01*
X203794188Y-87019913D01*
X203644000Y-87129031D01*
X203474407Y-87204538D01*
X203292821Y-87243135D01*
X203107179Y-87243135D01*
X202925593Y-87204538D01*
X202756000Y-87129031D01*
X202605812Y-87019913D01*
X202481593Y-86881953D01*
X202388772Y-86721182D01*
X202331405Y-86544626D01*
X202312000Y-86360000D01*
X202331405Y-86175374D01*
X202388772Y-85998818D01*
X202481593Y-85838047D01*
X202605812Y-85700087D01*
X202756000Y-85590969D01*
X202925593Y-85515462D01*
X203107179Y-85476865D01*
X203292821Y-85476865D01*
X203474407Y-85515462D01*
G37*
G36*
X185461066Y-85686943D02*
G01*
X185501724Y-85686943D01*
X185535959Y-85695381D01*
X185570800Y-85699307D01*
X185615870Y-85715077D01*
X185660422Y-85726059D01*
X185686766Y-85739885D01*
X185714037Y-85749428D01*
X185760127Y-85778388D01*
X185805148Y-85802017D01*
X185823237Y-85818042D01*
X185842525Y-85830162D01*
X185886078Y-85873715D01*
X185927490Y-85910403D01*
X185938017Y-85925654D01*
X185949837Y-85937474D01*
X185986994Y-85996610D01*
X186020339Y-86044918D01*
X186024892Y-86056925D01*
X186030571Y-86065962D01*
X186057418Y-86142686D01*
X186078299Y-86197744D01*
X186079157Y-86204813D01*
X186080692Y-86209199D01*
X186093599Y-86323761D01*
X186098000Y-86360000D01*
X186093599Y-86396241D01*
X186080692Y-86510800D01*
X186079157Y-86515185D01*
X186078299Y-86522256D01*
X186057413Y-86577325D01*
X186030571Y-86654037D01*
X186024893Y-86663072D01*
X186020339Y-86675082D01*
X185986987Y-86723399D01*
X185949837Y-86782525D01*
X185938019Y-86794342D01*
X185927490Y-86809597D01*
X185886069Y-86846292D01*
X185842525Y-86889837D01*
X185823241Y-86901953D01*
X185805148Y-86917983D01*
X185760117Y-86941616D01*
X185714037Y-86970571D01*
X185686771Y-86980111D01*
X185660422Y-86993941D01*
X185615860Y-87004924D01*
X185570800Y-87020692D01*
X185535967Y-87024616D01*
X185501724Y-87033057D01*
X185461057Y-87033057D01*
X185420000Y-87037683D01*
X185378943Y-87033057D01*
X185338276Y-87033057D01*
X185304033Y-87024616D01*
X185269199Y-87020692D01*
X185224135Y-87004923D01*
X185179578Y-86993941D01*
X185153230Y-86980112D01*
X185125962Y-86970571D01*
X185079876Y-86941613D01*
X185034852Y-86917983D01*
X185016761Y-86901955D01*
X184997474Y-86889837D01*
X184953921Y-86846284D01*
X184912510Y-86809597D01*
X184901982Y-86794345D01*
X184890162Y-86782525D01*
X184853000Y-86723383D01*
X184819661Y-86675082D01*
X184815107Y-86663076D01*
X184809428Y-86654037D01*
X184782573Y-86577291D01*
X184761701Y-86522256D01*
X184760843Y-86515189D01*
X184759307Y-86510800D01*
X184746386Y-86396127D01*
X184742000Y-86360000D01*
X184746386Y-86323875D01*
X184759307Y-86209199D01*
X184760843Y-86204808D01*
X184761701Y-86197744D01*
X184782568Y-86142720D01*
X184809428Y-86065962D01*
X184815108Y-86056921D01*
X184819661Y-86044918D01*
X184852993Y-85996626D01*
X184890162Y-85937474D01*
X184901985Y-85925650D01*
X184912510Y-85910403D01*
X184953913Y-85873722D01*
X184997474Y-85830162D01*
X185016765Y-85818040D01*
X185034852Y-85802017D01*
X185079866Y-85778391D01*
X185125962Y-85749428D01*
X185153235Y-85739884D01*
X185179578Y-85726059D01*
X185224126Y-85715078D01*
X185269199Y-85699307D01*
X185304040Y-85695381D01*
X185338276Y-85686943D01*
X185378934Y-85686943D01*
X185420000Y-85682316D01*
X185461066Y-85686943D01*
G37*
G36*
X193401066Y-85686943D02*
G01*
X193441724Y-85686943D01*
X193475959Y-85695381D01*
X193510800Y-85699307D01*
X193555870Y-85715077D01*
X193600422Y-85726059D01*
X193626766Y-85739885D01*
X193654037Y-85749428D01*
X193700127Y-85778388D01*
X193745148Y-85802017D01*
X193763237Y-85818042D01*
X193782525Y-85830162D01*
X193826078Y-85873715D01*
X193867490Y-85910403D01*
X193878017Y-85925654D01*
X193889837Y-85937474D01*
X193926994Y-85996610D01*
X193960339Y-86044918D01*
X193964892Y-86056925D01*
X193970571Y-86065962D01*
X193997418Y-86142686D01*
X194018299Y-86197744D01*
X194019157Y-86204813D01*
X194020692Y-86209199D01*
X194033599Y-86323761D01*
X194038000Y-86360000D01*
X194033599Y-86396241D01*
X194020692Y-86510800D01*
X194019157Y-86515185D01*
X194018299Y-86522256D01*
X193997413Y-86577325D01*
X193970571Y-86654037D01*
X193964893Y-86663072D01*
X193960339Y-86675082D01*
X193926987Y-86723399D01*
X193889837Y-86782525D01*
X193878019Y-86794342D01*
X193867490Y-86809597D01*
X193826069Y-86846292D01*
X193782525Y-86889837D01*
X193763241Y-86901953D01*
X193745148Y-86917983D01*
X193700117Y-86941616D01*
X193654037Y-86970571D01*
X193626771Y-86980111D01*
X193600422Y-86993941D01*
X193555860Y-87004924D01*
X193510800Y-87020692D01*
X193475967Y-87024616D01*
X193441724Y-87033057D01*
X193401057Y-87033057D01*
X193360000Y-87037683D01*
X193318943Y-87033057D01*
X193278276Y-87033057D01*
X193244033Y-87024616D01*
X193209199Y-87020692D01*
X193164135Y-87004923D01*
X193119578Y-86993941D01*
X193093230Y-86980112D01*
X193065962Y-86970571D01*
X193019876Y-86941613D01*
X192974852Y-86917983D01*
X192956761Y-86901955D01*
X192937474Y-86889837D01*
X192893921Y-86846284D01*
X192852510Y-86809597D01*
X192841982Y-86794345D01*
X192830162Y-86782525D01*
X192793000Y-86723383D01*
X192759661Y-86675082D01*
X192755107Y-86663076D01*
X192749428Y-86654037D01*
X192722573Y-86577291D01*
X192701701Y-86522256D01*
X192700843Y-86515189D01*
X192699307Y-86510800D01*
X192686386Y-86396127D01*
X192682000Y-86360000D01*
X192686386Y-86323875D01*
X192699307Y-86209199D01*
X192700843Y-86204808D01*
X192701701Y-86197744D01*
X192722568Y-86142720D01*
X192749428Y-86065962D01*
X192755108Y-86056921D01*
X192759661Y-86044918D01*
X192792993Y-85996626D01*
X192830162Y-85937474D01*
X192841985Y-85925650D01*
X192852510Y-85910403D01*
X192893913Y-85873722D01*
X192937474Y-85830162D01*
X192956765Y-85818040D01*
X192974852Y-85802017D01*
X193019866Y-85778391D01*
X193065962Y-85749428D01*
X193093235Y-85739884D01*
X193119578Y-85726059D01*
X193164126Y-85715078D01*
X193209199Y-85699307D01*
X193244040Y-85695381D01*
X193278276Y-85686943D01*
X193318934Y-85686943D01*
X193360000Y-85682316D01*
X193401066Y-85686943D01*
G37*
G36*
X149900746Y-85691907D02*
G01*
X149941121Y-85691907D01*
X149975120Y-85700287D01*
X150009689Y-85704182D01*
X150054405Y-85719828D01*
X150098649Y-85730734D01*
X150124811Y-85744465D01*
X150151866Y-85753932D01*
X150197588Y-85782661D01*
X150242308Y-85806132D01*
X150260277Y-85822051D01*
X150279408Y-85834072D01*
X150322601Y-85877265D01*
X150363748Y-85913718D01*
X150374208Y-85928872D01*
X150385927Y-85940591D01*
X150422770Y-85999227D01*
X150455912Y-86047241D01*
X150460437Y-86059173D01*
X150466067Y-86068133D01*
X150492690Y-86144217D01*
X150513444Y-86198941D01*
X150514296Y-86205966D01*
X150515817Y-86210310D01*
X150528600Y-86323765D01*
X150533000Y-86360000D01*
X150528599Y-86396237D01*
X150515817Y-86509689D01*
X150514297Y-86514032D01*
X150513444Y-86521059D01*
X150492685Y-86575794D01*
X150466067Y-86651866D01*
X150460438Y-86660823D01*
X150455912Y-86672759D01*
X150422763Y-86720782D01*
X150385927Y-86779408D01*
X150374210Y-86791124D01*
X150363748Y-86806282D01*
X150322593Y-86842741D01*
X150279408Y-86885927D01*
X150260281Y-86897945D01*
X150242308Y-86913868D01*
X150197579Y-86937343D01*
X150151866Y-86966067D01*
X150124817Y-86975531D01*
X150098649Y-86989266D01*
X150054395Y-87000173D01*
X150009689Y-87015817D01*
X149975127Y-87019711D01*
X149941121Y-87028093D01*
X149900737Y-87028093D01*
X149860000Y-87032683D01*
X149819263Y-87028093D01*
X149778879Y-87028093D01*
X149744873Y-87019711D01*
X149710310Y-87015817D01*
X149665600Y-87000172D01*
X149621351Y-86989266D01*
X149595184Y-86975532D01*
X149568133Y-86966067D01*
X149522414Y-86937340D01*
X149477692Y-86913868D01*
X149459721Y-86897947D01*
X149440591Y-86885927D01*
X149397398Y-86842734D01*
X149356252Y-86806282D01*
X149345791Y-86791127D01*
X149334072Y-86779408D01*
X149297225Y-86720766D01*
X149264088Y-86672759D01*
X149259563Y-86660827D01*
X149253932Y-86651866D01*
X149227301Y-86575760D01*
X149206556Y-86521059D01*
X149205703Y-86514036D01*
X149204182Y-86509689D01*
X149191386Y-86396123D01*
X149187000Y-86360000D01*
X149191385Y-86323879D01*
X149204182Y-86210310D01*
X149205703Y-86205961D01*
X149206556Y-86198941D01*
X149227297Y-86144251D01*
X149253932Y-86068133D01*
X149259564Y-86059169D01*
X149264088Y-86047241D01*
X149297218Y-85999243D01*
X149334072Y-85940591D01*
X149345794Y-85928868D01*
X149356252Y-85913718D01*
X149397389Y-85877273D01*
X149440591Y-85834072D01*
X149459725Y-85822049D01*
X149477692Y-85806132D01*
X149522404Y-85782664D01*
X149568133Y-85753932D01*
X149595190Y-85744464D01*
X149621351Y-85730734D01*
X149665591Y-85719829D01*
X149710310Y-85704182D01*
X149744880Y-85700286D01*
X149778879Y-85691907D01*
X149819254Y-85691907D01*
X149860000Y-85687316D01*
X149900746Y-85691907D01*
G37*
G36*
X157840746Y-85691907D02*
G01*
X157881121Y-85691907D01*
X157915120Y-85700287D01*
X157949689Y-85704182D01*
X157994405Y-85719828D01*
X158038649Y-85730734D01*
X158064811Y-85744465D01*
X158091866Y-85753932D01*
X158137588Y-85782661D01*
X158182308Y-85806132D01*
X158200277Y-85822051D01*
X158219408Y-85834072D01*
X158262601Y-85877265D01*
X158303748Y-85913718D01*
X158314208Y-85928872D01*
X158325927Y-85940591D01*
X158362770Y-85999227D01*
X158395912Y-86047241D01*
X158400437Y-86059173D01*
X158406067Y-86068133D01*
X158432690Y-86144217D01*
X158453444Y-86198941D01*
X158454296Y-86205966D01*
X158455817Y-86210310D01*
X158468600Y-86323765D01*
X158473000Y-86360000D01*
X158468599Y-86396237D01*
X158455817Y-86509689D01*
X158454297Y-86514032D01*
X158453444Y-86521059D01*
X158432685Y-86575794D01*
X158406067Y-86651866D01*
X158400438Y-86660823D01*
X158395912Y-86672759D01*
X158362763Y-86720782D01*
X158325927Y-86779408D01*
X158314210Y-86791124D01*
X158303748Y-86806282D01*
X158262593Y-86842741D01*
X158219408Y-86885927D01*
X158200281Y-86897945D01*
X158182308Y-86913868D01*
X158137579Y-86937343D01*
X158091866Y-86966067D01*
X158064817Y-86975531D01*
X158038649Y-86989266D01*
X157994395Y-87000173D01*
X157949689Y-87015817D01*
X157915127Y-87019711D01*
X157881121Y-87028093D01*
X157840737Y-87028093D01*
X157800000Y-87032683D01*
X157759263Y-87028093D01*
X157718879Y-87028093D01*
X157684873Y-87019711D01*
X157650310Y-87015817D01*
X157605600Y-87000172D01*
X157561351Y-86989266D01*
X157535184Y-86975532D01*
X157508133Y-86966067D01*
X157462414Y-86937340D01*
X157417692Y-86913868D01*
X157399721Y-86897947D01*
X157380591Y-86885927D01*
X157337398Y-86842734D01*
X157296252Y-86806282D01*
X157285791Y-86791127D01*
X157274072Y-86779408D01*
X157237225Y-86720766D01*
X157204088Y-86672759D01*
X157199563Y-86660827D01*
X157193932Y-86651866D01*
X157167301Y-86575760D01*
X157146556Y-86521059D01*
X157145703Y-86514036D01*
X157144182Y-86509689D01*
X157131386Y-86396123D01*
X157127000Y-86360000D01*
X157131385Y-86323879D01*
X157144182Y-86210310D01*
X157145703Y-86205961D01*
X157146556Y-86198941D01*
X157167297Y-86144251D01*
X157193932Y-86068133D01*
X157199564Y-86059169D01*
X157204088Y-86047241D01*
X157237218Y-85999243D01*
X157274072Y-85940591D01*
X157285794Y-85928868D01*
X157296252Y-85913718D01*
X157337389Y-85877273D01*
X157380591Y-85834072D01*
X157399725Y-85822049D01*
X157417692Y-85806132D01*
X157462404Y-85782664D01*
X157508133Y-85753932D01*
X157535190Y-85744464D01*
X157561351Y-85730734D01*
X157605591Y-85719829D01*
X157650310Y-85704182D01*
X157684880Y-85700286D01*
X157718879Y-85691907D01*
X157759254Y-85691907D01*
X157800000Y-85687316D01*
X157840746Y-85691907D01*
G37*
G36*
X169185707Y-82614394D02*
G01*
X169394152Y-82670247D01*
X169589731Y-82761447D01*
X169766502Y-82885223D01*
X169919094Y-83037815D01*
X170042870Y-83214586D01*
X170134070Y-83410165D01*
X170189923Y-83618610D01*
X170208731Y-83833586D01*
X170189923Y-84048562D01*
X170134070Y-84257007D01*
X170042870Y-84452586D01*
X169919094Y-84629357D01*
X169766502Y-84781949D01*
X169589731Y-84905725D01*
X169394152Y-84996925D01*
X169185707Y-85052778D01*
X168970731Y-85071586D01*
X168755755Y-85052778D01*
X168547310Y-84996925D01*
X168351731Y-84905725D01*
X168174960Y-84781949D01*
X168022368Y-84629357D01*
X167898592Y-84452586D01*
X167807392Y-84257007D01*
X167751539Y-84048562D01*
X167732731Y-83833586D01*
X167751539Y-83618610D01*
X167807392Y-83410165D01*
X167898592Y-83214586D01*
X168022368Y-83037815D01*
X168174960Y-82885223D01*
X168351731Y-82761447D01*
X168547310Y-82670247D01*
X168755755Y-82614394D01*
X168970731Y-82595586D01*
X169185707Y-82614394D01*
G37*
G36*
X162774976Y-82600808D02*
G01*
X162983421Y-82656661D01*
X163179000Y-82747861D01*
X163355771Y-82871637D01*
X163508363Y-83024229D01*
X163632139Y-83201000D01*
X163723339Y-83396579D01*
X163779192Y-83605024D01*
X163798000Y-83820000D01*
X163779192Y-84034976D01*
X163723339Y-84243421D01*
X163632139Y-84439000D01*
X163508363Y-84615771D01*
X163355771Y-84768363D01*
X163179000Y-84892139D01*
X162983421Y-84983339D01*
X162774976Y-85039192D01*
X162560000Y-85058000D01*
X162345024Y-85039192D01*
X162136579Y-84983339D01*
X161941000Y-84892139D01*
X161764229Y-84768363D01*
X161611637Y-84615771D01*
X161487861Y-84439000D01*
X161396661Y-84243421D01*
X161340808Y-84034976D01*
X161322000Y-83820000D01*
X161340808Y-83605024D01*
X161396661Y-83396579D01*
X161487861Y-83201000D01*
X161611637Y-83024229D01*
X161764229Y-82871637D01*
X161941000Y-82747861D01*
X162136579Y-82656661D01*
X162345024Y-82600808D01*
X162560000Y-82582000D01*
X162774976Y-82600808D01*
G37*
G36*
X175474976Y-82600808D02*
G01*
X175683421Y-82656661D01*
X175879000Y-82747861D01*
X176055771Y-82871637D01*
X176208363Y-83024229D01*
X176332139Y-83201000D01*
X176423339Y-83396579D01*
X176479192Y-83605024D01*
X176498000Y-83820000D01*
X176479192Y-84034976D01*
X176423339Y-84243421D01*
X176332139Y-84439000D01*
X176208363Y-84615771D01*
X176055771Y-84768363D01*
X175879000Y-84892139D01*
X175683421Y-84983339D01*
X175474976Y-85039192D01*
X175260000Y-85058000D01*
X175045024Y-85039192D01*
X174836579Y-84983339D01*
X174641000Y-84892139D01*
X174464229Y-84768363D01*
X174311637Y-84615771D01*
X174187861Y-84439000D01*
X174096661Y-84243421D01*
X174040808Y-84034976D01*
X174022000Y-83820000D01*
X174040808Y-83605024D01*
X174096661Y-83396579D01*
X174187861Y-83201000D01*
X174311637Y-83024229D01*
X174464229Y-82871637D01*
X174641000Y-82747861D01*
X174836579Y-82656661D01*
X175045024Y-82600808D01*
X175260000Y-82582000D01*
X175474976Y-82600808D01*
G37*
G36*
X185461066Y-83146943D02*
G01*
X185501724Y-83146943D01*
X185535959Y-83155381D01*
X185570800Y-83159307D01*
X185615870Y-83175077D01*
X185660422Y-83186059D01*
X185686766Y-83199885D01*
X185714037Y-83209428D01*
X185760127Y-83238388D01*
X185805148Y-83262017D01*
X185823237Y-83278042D01*
X185842525Y-83290162D01*
X185886078Y-83333715D01*
X185927490Y-83370403D01*
X185938017Y-83385654D01*
X185949837Y-83397474D01*
X185986994Y-83456610D01*
X186020339Y-83504918D01*
X186024892Y-83516925D01*
X186030571Y-83525962D01*
X186057418Y-83602686D01*
X186078299Y-83657744D01*
X186079157Y-83664813D01*
X186080692Y-83669199D01*
X186093599Y-83783761D01*
X186098000Y-83820000D01*
X186093599Y-83856241D01*
X186080692Y-83970800D01*
X186079157Y-83975185D01*
X186078299Y-83982256D01*
X186057413Y-84037325D01*
X186030571Y-84114037D01*
X186024893Y-84123072D01*
X186020339Y-84135082D01*
X185986987Y-84183399D01*
X185949837Y-84242525D01*
X185938019Y-84254342D01*
X185927490Y-84269597D01*
X185886069Y-84306292D01*
X185842525Y-84349837D01*
X185823241Y-84361953D01*
X185805148Y-84377983D01*
X185760117Y-84401616D01*
X185714037Y-84430571D01*
X185686771Y-84440111D01*
X185660422Y-84453941D01*
X185615860Y-84464924D01*
X185570800Y-84480692D01*
X185535967Y-84484616D01*
X185501724Y-84493057D01*
X185461057Y-84493057D01*
X185420000Y-84497683D01*
X185378943Y-84493057D01*
X185338276Y-84493057D01*
X185304033Y-84484616D01*
X185269199Y-84480692D01*
X185224135Y-84464923D01*
X185179578Y-84453941D01*
X185153230Y-84440112D01*
X185125962Y-84430571D01*
X185079876Y-84401613D01*
X185034852Y-84377983D01*
X185016761Y-84361955D01*
X184997474Y-84349837D01*
X184953921Y-84306284D01*
X184912510Y-84269597D01*
X184901982Y-84254345D01*
X184890162Y-84242525D01*
X184853000Y-84183383D01*
X184819661Y-84135082D01*
X184815107Y-84123076D01*
X184809428Y-84114037D01*
X184782573Y-84037291D01*
X184761701Y-83982256D01*
X184760843Y-83975189D01*
X184759307Y-83970800D01*
X184746386Y-83856127D01*
X184742000Y-83820000D01*
X184746386Y-83783875D01*
X184759307Y-83669199D01*
X184760843Y-83664808D01*
X184761701Y-83657744D01*
X184782568Y-83602720D01*
X184809428Y-83525962D01*
X184815108Y-83516921D01*
X184819661Y-83504918D01*
X184852993Y-83456626D01*
X184890162Y-83397474D01*
X184901985Y-83385650D01*
X184912510Y-83370403D01*
X184953913Y-83333722D01*
X184997474Y-83290162D01*
X185016765Y-83278040D01*
X185034852Y-83262017D01*
X185079866Y-83238391D01*
X185125962Y-83209428D01*
X185153235Y-83199884D01*
X185179578Y-83186059D01*
X185224126Y-83175078D01*
X185269199Y-83159307D01*
X185304040Y-83155381D01*
X185338276Y-83146943D01*
X185378934Y-83146943D01*
X185420000Y-83142316D01*
X185461066Y-83146943D01*
G37*
G36*
X193401066Y-83146943D02*
G01*
X193441724Y-83146943D01*
X193475959Y-83155381D01*
X193510800Y-83159307D01*
X193555870Y-83175077D01*
X193600422Y-83186059D01*
X193626766Y-83199885D01*
X193654037Y-83209428D01*
X193700127Y-83238388D01*
X193745148Y-83262017D01*
X193763237Y-83278042D01*
X193782525Y-83290162D01*
X193826078Y-83333715D01*
X193867490Y-83370403D01*
X193878017Y-83385654D01*
X193889837Y-83397474D01*
X193926994Y-83456610D01*
X193960339Y-83504918D01*
X193964892Y-83516925D01*
X193970571Y-83525962D01*
X193997418Y-83602686D01*
X194018299Y-83657744D01*
X194019157Y-83664813D01*
X194020692Y-83669199D01*
X194033599Y-83783761D01*
X194038000Y-83820000D01*
X194033599Y-83856241D01*
X194020692Y-83970800D01*
X194019157Y-83975185D01*
X194018299Y-83982256D01*
X193997413Y-84037325D01*
X193970571Y-84114037D01*
X193964893Y-84123072D01*
X193960339Y-84135082D01*
X193926987Y-84183399D01*
X193889837Y-84242525D01*
X193878019Y-84254342D01*
X193867490Y-84269597D01*
X193826069Y-84306292D01*
X193782525Y-84349837D01*
X193763241Y-84361953D01*
X193745148Y-84377983D01*
X193700117Y-84401616D01*
X193654037Y-84430571D01*
X193626771Y-84440111D01*
X193600422Y-84453941D01*
X193555860Y-84464924D01*
X193510800Y-84480692D01*
X193475967Y-84484616D01*
X193441724Y-84493057D01*
X193401057Y-84493057D01*
X193360000Y-84497683D01*
X193318943Y-84493057D01*
X193278276Y-84493057D01*
X193244033Y-84484616D01*
X193209199Y-84480692D01*
X193164135Y-84464923D01*
X193119578Y-84453941D01*
X193093230Y-84440112D01*
X193065962Y-84430571D01*
X193019876Y-84401613D01*
X192974852Y-84377983D01*
X192956761Y-84361955D01*
X192937474Y-84349837D01*
X192893921Y-84306284D01*
X192852510Y-84269597D01*
X192841982Y-84254345D01*
X192830162Y-84242525D01*
X192793000Y-84183383D01*
X192759661Y-84135082D01*
X192755107Y-84123076D01*
X192749428Y-84114037D01*
X192722573Y-84037291D01*
X192701701Y-83982256D01*
X192700843Y-83975189D01*
X192699307Y-83970800D01*
X192686386Y-83856127D01*
X192682000Y-83820000D01*
X192686386Y-83783875D01*
X192699307Y-83669199D01*
X192700843Y-83664808D01*
X192701701Y-83657744D01*
X192722568Y-83602720D01*
X192749428Y-83525962D01*
X192755108Y-83516921D01*
X192759661Y-83504918D01*
X192792993Y-83456626D01*
X192830162Y-83397474D01*
X192841985Y-83385650D01*
X192852510Y-83370403D01*
X192893913Y-83333722D01*
X192937474Y-83290162D01*
X192956765Y-83278040D01*
X192974852Y-83262017D01*
X193019866Y-83238391D01*
X193065962Y-83209428D01*
X193093235Y-83199884D01*
X193119578Y-83186059D01*
X193164126Y-83175078D01*
X193209199Y-83159307D01*
X193244040Y-83155381D01*
X193278276Y-83146943D01*
X193318934Y-83146943D01*
X193360000Y-83142316D01*
X193401066Y-83146943D01*
G37*
G36*
X149900746Y-83151907D02*
G01*
X149941121Y-83151907D01*
X149975120Y-83160287D01*
X150009689Y-83164182D01*
X150054405Y-83179828D01*
X150098649Y-83190734D01*
X150124811Y-83204465D01*
X150151866Y-83213932D01*
X150197588Y-83242661D01*
X150242308Y-83266132D01*
X150260277Y-83282051D01*
X150279408Y-83294072D01*
X150322601Y-83337265D01*
X150363748Y-83373718D01*
X150374208Y-83388872D01*
X150385927Y-83400591D01*
X150422770Y-83459227D01*
X150455912Y-83507241D01*
X150460437Y-83519173D01*
X150466067Y-83528133D01*
X150492690Y-83604217D01*
X150513444Y-83658941D01*
X150514296Y-83665966D01*
X150515817Y-83670310D01*
X150528600Y-83783765D01*
X150533000Y-83820000D01*
X150528599Y-83856237D01*
X150515817Y-83969689D01*
X150514297Y-83974032D01*
X150513444Y-83981059D01*
X150492685Y-84035794D01*
X150466067Y-84111866D01*
X150460438Y-84120823D01*
X150455912Y-84132759D01*
X150422763Y-84180782D01*
X150385927Y-84239408D01*
X150374210Y-84251124D01*
X150363748Y-84266282D01*
X150322593Y-84302741D01*
X150279408Y-84345927D01*
X150260281Y-84357945D01*
X150242308Y-84373868D01*
X150197579Y-84397343D01*
X150151866Y-84426067D01*
X150124817Y-84435531D01*
X150098649Y-84449266D01*
X150054395Y-84460173D01*
X150009689Y-84475817D01*
X149975127Y-84479711D01*
X149941121Y-84488093D01*
X149900737Y-84488093D01*
X149860000Y-84492683D01*
X149819263Y-84488093D01*
X149778879Y-84488093D01*
X149744873Y-84479711D01*
X149710310Y-84475817D01*
X149665600Y-84460172D01*
X149621351Y-84449266D01*
X149595184Y-84435532D01*
X149568133Y-84426067D01*
X149522414Y-84397340D01*
X149477692Y-84373868D01*
X149459721Y-84357947D01*
X149440591Y-84345927D01*
X149397398Y-84302734D01*
X149356252Y-84266282D01*
X149345791Y-84251127D01*
X149334072Y-84239408D01*
X149297225Y-84180766D01*
X149264088Y-84132759D01*
X149259563Y-84120827D01*
X149253932Y-84111866D01*
X149227301Y-84035760D01*
X149206556Y-83981059D01*
X149205703Y-83974036D01*
X149204182Y-83969689D01*
X149191386Y-83856123D01*
X149187000Y-83820000D01*
X149191385Y-83783879D01*
X149204182Y-83670310D01*
X149205703Y-83665961D01*
X149206556Y-83658941D01*
X149227297Y-83604251D01*
X149253932Y-83528133D01*
X149259564Y-83519169D01*
X149264088Y-83507241D01*
X149297218Y-83459243D01*
X149334072Y-83400591D01*
X149345794Y-83388868D01*
X149356252Y-83373718D01*
X149397389Y-83337273D01*
X149440591Y-83294072D01*
X149459725Y-83282049D01*
X149477692Y-83266132D01*
X149522404Y-83242664D01*
X149568133Y-83213932D01*
X149595190Y-83204464D01*
X149621351Y-83190734D01*
X149665591Y-83179829D01*
X149710310Y-83164182D01*
X149744880Y-83160286D01*
X149778879Y-83151907D01*
X149819254Y-83151907D01*
X149860000Y-83147316D01*
X149900746Y-83151907D01*
G37*
G36*
X157840746Y-83151907D02*
G01*
X157881121Y-83151907D01*
X157915120Y-83160287D01*
X157949689Y-83164182D01*
X157994405Y-83179828D01*
X158038649Y-83190734D01*
X158064811Y-83204465D01*
X158091866Y-83213932D01*
X158137588Y-83242661D01*
X158182308Y-83266132D01*
X158200277Y-83282051D01*
X158219408Y-83294072D01*
X158262601Y-83337265D01*
X158303748Y-83373718D01*
X158314208Y-83388872D01*
X158325927Y-83400591D01*
X158362770Y-83459227D01*
X158395912Y-83507241D01*
X158400437Y-83519173D01*
X158406067Y-83528133D01*
X158432690Y-83604217D01*
X158453444Y-83658941D01*
X158454296Y-83665966D01*
X158455817Y-83670310D01*
X158468600Y-83783765D01*
X158473000Y-83820000D01*
X158468599Y-83856237D01*
X158455817Y-83969689D01*
X158454297Y-83974032D01*
X158453444Y-83981059D01*
X158432685Y-84035794D01*
X158406067Y-84111866D01*
X158400438Y-84120823D01*
X158395912Y-84132759D01*
X158362763Y-84180782D01*
X158325927Y-84239408D01*
X158314210Y-84251124D01*
X158303748Y-84266282D01*
X158262593Y-84302741D01*
X158219408Y-84345927D01*
X158200281Y-84357945D01*
X158182308Y-84373868D01*
X158137579Y-84397343D01*
X158091866Y-84426067D01*
X158064817Y-84435531D01*
X158038649Y-84449266D01*
X157994395Y-84460173D01*
X157949689Y-84475817D01*
X157915127Y-84479711D01*
X157881121Y-84488093D01*
X157840737Y-84488093D01*
X157800000Y-84492683D01*
X157759263Y-84488093D01*
X157718879Y-84488093D01*
X157684873Y-84479711D01*
X157650310Y-84475817D01*
X157605600Y-84460172D01*
X157561351Y-84449266D01*
X157535184Y-84435532D01*
X157508133Y-84426067D01*
X157462414Y-84397340D01*
X157417692Y-84373868D01*
X157399721Y-84357947D01*
X157380591Y-84345927D01*
X157337398Y-84302734D01*
X157296252Y-84266282D01*
X157285791Y-84251127D01*
X157274072Y-84239408D01*
X157237225Y-84180766D01*
X157204088Y-84132759D01*
X157199563Y-84120827D01*
X157193932Y-84111866D01*
X157167301Y-84035760D01*
X157146556Y-83981059D01*
X157145703Y-83974036D01*
X157144182Y-83969689D01*
X157131386Y-83856123D01*
X157127000Y-83820000D01*
X157131385Y-83783879D01*
X157144182Y-83670310D01*
X157145703Y-83665961D01*
X157146556Y-83658941D01*
X157167297Y-83604251D01*
X157193932Y-83528133D01*
X157199564Y-83519169D01*
X157204088Y-83507241D01*
X157237218Y-83459243D01*
X157274072Y-83400591D01*
X157285794Y-83388868D01*
X157296252Y-83373718D01*
X157337389Y-83337273D01*
X157380591Y-83294072D01*
X157399725Y-83282049D01*
X157417692Y-83266132D01*
X157462404Y-83242664D01*
X157508133Y-83213932D01*
X157535190Y-83204464D01*
X157561351Y-83190734D01*
X157605591Y-83179829D01*
X157650310Y-83164182D01*
X157684880Y-83160286D01*
X157718879Y-83151907D01*
X157759254Y-83151907D01*
X157800000Y-83147316D01*
X157840746Y-83151907D01*
G37*
G36*
X130906794Y-76387600D02*
G01*
X131249201Y-76462969D01*
X131581451Y-76574917D01*
X131899651Y-76722132D01*
X132200068Y-76902887D01*
X132479181Y-77115063D01*
X132733717Y-77356173D01*
X132960693Y-77623390D01*
X133157448Y-77913581D01*
X133321673Y-78223343D01*
X133451445Y-78549046D01*
X133545241Y-78886870D01*
X133601963Y-79232855D01*
X133620944Y-79582944D01*
X133601963Y-79933033D01*
X133545241Y-80279018D01*
X133451445Y-80616842D01*
X133321673Y-80942545D01*
X133157448Y-81252307D01*
X132960693Y-81542498D01*
X132733717Y-81809715D01*
X132479181Y-82050825D01*
X132200068Y-82263001D01*
X131899651Y-82443756D01*
X131581451Y-82590971D01*
X131249201Y-82702919D01*
X130906794Y-82778288D01*
X130558246Y-82816195D01*
X130207642Y-82816195D01*
X129859094Y-82778288D01*
X129516687Y-82702919D01*
X129184437Y-82590971D01*
X128866237Y-82443756D01*
X128565820Y-82263001D01*
X128286707Y-82050825D01*
X128032171Y-81809715D01*
X127805195Y-81542498D01*
X127608440Y-81252307D01*
X127444215Y-80942545D01*
X127314443Y-80616842D01*
X127220647Y-80279018D01*
X127163925Y-79933033D01*
X127144944Y-79582944D01*
X127163925Y-79232855D01*
X127220647Y-78886870D01*
X127314443Y-78549046D01*
X127444215Y-78223343D01*
X127608440Y-77913581D01*
X127805195Y-77623390D01*
X128032171Y-77356173D01*
X128286707Y-77115063D01*
X128565820Y-76902887D01*
X128866237Y-76722132D01*
X129184437Y-76574917D01*
X129516687Y-76462969D01*
X129859094Y-76387600D01*
X130207642Y-76349693D01*
X130558246Y-76349693D01*
X130906794Y-76387600D01*
G37*
G36*
X205420906Y-76387600D02*
G01*
X205763313Y-76462969D01*
X206095563Y-76574917D01*
X206413763Y-76722132D01*
X206714180Y-76902887D01*
X206993293Y-77115063D01*
X207247829Y-77356173D01*
X207474805Y-77623390D01*
X207671560Y-77913581D01*
X207835785Y-78223343D01*
X207965557Y-78549046D01*
X208059353Y-78886870D01*
X208116075Y-79232855D01*
X208135056Y-79582944D01*
X208116075Y-79933033D01*
X208059353Y-80279018D01*
X207965557Y-80616842D01*
X207835785Y-80942545D01*
X207671560Y-81252307D01*
X207474805Y-81542498D01*
X207247829Y-81809715D01*
X206993293Y-82050825D01*
X206714180Y-82263001D01*
X206413763Y-82443756D01*
X206095563Y-82590971D01*
X205763313Y-82702919D01*
X205420906Y-82778288D01*
X205072358Y-82816195D01*
X204721754Y-82816195D01*
X204373206Y-82778288D01*
X204030799Y-82702919D01*
X203698549Y-82590971D01*
X203380349Y-82443756D01*
X203079932Y-82263001D01*
X202800819Y-82050825D01*
X202546283Y-81809715D01*
X202319307Y-81542498D01*
X202122552Y-81252307D01*
X201958327Y-80942545D01*
X201828555Y-80616842D01*
X201734759Y-80279018D01*
X201678037Y-79933033D01*
X201659056Y-79582944D01*
X201678037Y-79232855D01*
X201734759Y-78886870D01*
X201828555Y-78549046D01*
X201958327Y-78223343D01*
X202122552Y-77913581D01*
X202319307Y-77623390D01*
X202546283Y-77356173D01*
X202800819Y-77115063D01*
X203079932Y-76902887D01*
X203380349Y-76722132D01*
X203698549Y-76574917D01*
X204030799Y-76462969D01*
X204373206Y-76387600D01*
X204721754Y-76349693D01*
X205072358Y-76349693D01*
X205420906Y-76387600D01*
G37*
G36*
X185461066Y-80606943D02*
G01*
X185501724Y-80606943D01*
X185535959Y-80615381D01*
X185570800Y-80619307D01*
X185615870Y-80635077D01*
X185660422Y-80646059D01*
X185686766Y-80659885D01*
X185714037Y-80669428D01*
X185760127Y-80698388D01*
X185805148Y-80722017D01*
X185823237Y-80738042D01*
X185842525Y-80750162D01*
X185886078Y-80793715D01*
X185927490Y-80830403D01*
X185938017Y-80845654D01*
X185949837Y-80857474D01*
X185986994Y-80916610D01*
X186020339Y-80964918D01*
X186024892Y-80976925D01*
X186030571Y-80985962D01*
X186057418Y-81062686D01*
X186078299Y-81117744D01*
X186079157Y-81124813D01*
X186080692Y-81129199D01*
X186093599Y-81243761D01*
X186098000Y-81280000D01*
X186093599Y-81316241D01*
X186080692Y-81430800D01*
X186079157Y-81435185D01*
X186078299Y-81442256D01*
X186057413Y-81497325D01*
X186030571Y-81574037D01*
X186024893Y-81583072D01*
X186020339Y-81595082D01*
X185986987Y-81643399D01*
X185949837Y-81702525D01*
X185938019Y-81714342D01*
X185927490Y-81729597D01*
X185886069Y-81766292D01*
X185842525Y-81809837D01*
X185823241Y-81821953D01*
X185805148Y-81837983D01*
X185760117Y-81861616D01*
X185714037Y-81890571D01*
X185686771Y-81900111D01*
X185660422Y-81913941D01*
X185615860Y-81924924D01*
X185570800Y-81940692D01*
X185535967Y-81944616D01*
X185501724Y-81953057D01*
X185461057Y-81953057D01*
X185420000Y-81957683D01*
X185378943Y-81953057D01*
X185338276Y-81953057D01*
X185304033Y-81944616D01*
X185269199Y-81940692D01*
X185224135Y-81924923D01*
X185179578Y-81913941D01*
X185153230Y-81900112D01*
X185125962Y-81890571D01*
X185079876Y-81861613D01*
X185034852Y-81837983D01*
X185016761Y-81821955D01*
X184997474Y-81809837D01*
X184953921Y-81766284D01*
X184912510Y-81729597D01*
X184901982Y-81714345D01*
X184890162Y-81702525D01*
X184853000Y-81643383D01*
X184819661Y-81595082D01*
X184815107Y-81583076D01*
X184809428Y-81574037D01*
X184782573Y-81497291D01*
X184761701Y-81442256D01*
X184760843Y-81435189D01*
X184759307Y-81430800D01*
X184746386Y-81316127D01*
X184742000Y-81280000D01*
X184746386Y-81243875D01*
X184759307Y-81129199D01*
X184760843Y-81124808D01*
X184761701Y-81117744D01*
X184782568Y-81062720D01*
X184809428Y-80985962D01*
X184815108Y-80976921D01*
X184819661Y-80964918D01*
X184852993Y-80916626D01*
X184890162Y-80857474D01*
X184901985Y-80845650D01*
X184912510Y-80830403D01*
X184953913Y-80793722D01*
X184997474Y-80750162D01*
X185016765Y-80738040D01*
X185034852Y-80722017D01*
X185079866Y-80698391D01*
X185125962Y-80669428D01*
X185153235Y-80659884D01*
X185179578Y-80646059D01*
X185224126Y-80635078D01*
X185269199Y-80619307D01*
X185304040Y-80615381D01*
X185338276Y-80606943D01*
X185378934Y-80606943D01*
X185420000Y-80602316D01*
X185461066Y-80606943D01*
G37*
G36*
X193401066Y-80606943D02*
G01*
X193441724Y-80606943D01*
X193475959Y-80615381D01*
X193510800Y-80619307D01*
X193555870Y-80635077D01*
X193600422Y-80646059D01*
X193626766Y-80659885D01*
X193654037Y-80669428D01*
X193700127Y-80698388D01*
X193745148Y-80722017D01*
X193763237Y-80738042D01*
X193782525Y-80750162D01*
X193826078Y-80793715D01*
X193867490Y-80830403D01*
X193878017Y-80845654D01*
X193889837Y-80857474D01*
X193926994Y-80916610D01*
X193960339Y-80964918D01*
X193964892Y-80976925D01*
X193970571Y-80985962D01*
X193997418Y-81062686D01*
X194018299Y-81117744D01*
X194019157Y-81124813D01*
X194020692Y-81129199D01*
X194033599Y-81243761D01*
X194038000Y-81280000D01*
X194033599Y-81316241D01*
X194020692Y-81430800D01*
X194019157Y-81435185D01*
X194018299Y-81442256D01*
X193997413Y-81497325D01*
X193970571Y-81574037D01*
X193964893Y-81583072D01*
X193960339Y-81595082D01*
X193926987Y-81643399D01*
X193889837Y-81702525D01*
X193878019Y-81714342D01*
X193867490Y-81729597D01*
X193826069Y-81766292D01*
X193782525Y-81809837D01*
X193763241Y-81821953D01*
X193745148Y-81837983D01*
X193700117Y-81861616D01*
X193654037Y-81890571D01*
X193626771Y-81900111D01*
X193600422Y-81913941D01*
X193555860Y-81924924D01*
X193510800Y-81940692D01*
X193475967Y-81944616D01*
X193441724Y-81953057D01*
X193401057Y-81953057D01*
X193360000Y-81957683D01*
X193318943Y-81953057D01*
X193278276Y-81953057D01*
X193244033Y-81944616D01*
X193209199Y-81940692D01*
X193164135Y-81924923D01*
X193119578Y-81913941D01*
X193093230Y-81900112D01*
X193065962Y-81890571D01*
X193019876Y-81861613D01*
X192974852Y-81837983D01*
X192956761Y-81821955D01*
X192937474Y-81809837D01*
X192893921Y-81766284D01*
X192852510Y-81729597D01*
X192841982Y-81714345D01*
X192830162Y-81702525D01*
X192793000Y-81643383D01*
X192759661Y-81595082D01*
X192755107Y-81583076D01*
X192749428Y-81574037D01*
X192722573Y-81497291D01*
X192701701Y-81442256D01*
X192700843Y-81435189D01*
X192699307Y-81430800D01*
X192686386Y-81316127D01*
X192682000Y-81280000D01*
X192686386Y-81243875D01*
X192699307Y-81129199D01*
X192700843Y-81124808D01*
X192701701Y-81117744D01*
X192722568Y-81062720D01*
X192749428Y-80985962D01*
X192755108Y-80976921D01*
X192759661Y-80964918D01*
X192792993Y-80916626D01*
X192830162Y-80857474D01*
X192841985Y-80845650D01*
X192852510Y-80830403D01*
X192893913Y-80793722D01*
X192937474Y-80750162D01*
X192956765Y-80738040D01*
X192974852Y-80722017D01*
X193019866Y-80698391D01*
X193065962Y-80669428D01*
X193093235Y-80659884D01*
X193119578Y-80646059D01*
X193164126Y-80635078D01*
X193209199Y-80619307D01*
X193244040Y-80615381D01*
X193278276Y-80606943D01*
X193318934Y-80606943D01*
X193360000Y-80602316D01*
X193401066Y-80606943D01*
G37*
G36*
X149900746Y-80611907D02*
G01*
X149941121Y-80611907D01*
X149975120Y-80620287D01*
X150009689Y-80624182D01*
X150054405Y-80639828D01*
X150098649Y-80650734D01*
X150124811Y-80664465D01*
X150151866Y-80673932D01*
X150197588Y-80702661D01*
X150242308Y-80726132D01*
X150260277Y-80742051D01*
X150279408Y-80754072D01*
X150322601Y-80797265D01*
X150363748Y-80833718D01*
X150374208Y-80848872D01*
X150385927Y-80860591D01*
X150422770Y-80919227D01*
X150455912Y-80967241D01*
X150460437Y-80979173D01*
X150466067Y-80988133D01*
X150492690Y-81064217D01*
X150513444Y-81118941D01*
X150514296Y-81125966D01*
X150515817Y-81130310D01*
X150528600Y-81243765D01*
X150533000Y-81280000D01*
X150528599Y-81316237D01*
X150515817Y-81429689D01*
X150514297Y-81434032D01*
X150513444Y-81441059D01*
X150492685Y-81495794D01*
X150466067Y-81571866D01*
X150460438Y-81580823D01*
X150455912Y-81592759D01*
X150422763Y-81640782D01*
X150385927Y-81699408D01*
X150374210Y-81711124D01*
X150363748Y-81726282D01*
X150322593Y-81762741D01*
X150279408Y-81805927D01*
X150260281Y-81817945D01*
X150242308Y-81833868D01*
X150197579Y-81857343D01*
X150151866Y-81886067D01*
X150124817Y-81895531D01*
X150098649Y-81909266D01*
X150054395Y-81920173D01*
X150009689Y-81935817D01*
X149975127Y-81939711D01*
X149941121Y-81948093D01*
X149900737Y-81948093D01*
X149860000Y-81952683D01*
X149819263Y-81948093D01*
X149778879Y-81948093D01*
X149744873Y-81939711D01*
X149710310Y-81935817D01*
X149665600Y-81920172D01*
X149621351Y-81909266D01*
X149595184Y-81895532D01*
X149568133Y-81886067D01*
X149522414Y-81857340D01*
X149477692Y-81833868D01*
X149459721Y-81817947D01*
X149440591Y-81805927D01*
X149397398Y-81762734D01*
X149356252Y-81726282D01*
X149345791Y-81711127D01*
X149334072Y-81699408D01*
X149297225Y-81640766D01*
X149264088Y-81592759D01*
X149259563Y-81580827D01*
X149253932Y-81571866D01*
X149227301Y-81495760D01*
X149206556Y-81441059D01*
X149205703Y-81434036D01*
X149204182Y-81429689D01*
X149191386Y-81316123D01*
X149187000Y-81280000D01*
X149191385Y-81243879D01*
X149204182Y-81130310D01*
X149205703Y-81125961D01*
X149206556Y-81118941D01*
X149227297Y-81064251D01*
X149253932Y-80988133D01*
X149259564Y-80979169D01*
X149264088Y-80967241D01*
X149297218Y-80919243D01*
X149334072Y-80860591D01*
X149345794Y-80848868D01*
X149356252Y-80833718D01*
X149397389Y-80797273D01*
X149440591Y-80754072D01*
X149459725Y-80742049D01*
X149477692Y-80726132D01*
X149522404Y-80702664D01*
X149568133Y-80673932D01*
X149595190Y-80664464D01*
X149621351Y-80650734D01*
X149665591Y-80639829D01*
X149710310Y-80624182D01*
X149744880Y-80620286D01*
X149778879Y-80611907D01*
X149819254Y-80611907D01*
X149860000Y-80607316D01*
X149900746Y-80611907D01*
G37*
G36*
X157840746Y-80611907D02*
G01*
X157881121Y-80611907D01*
X157915120Y-80620287D01*
X157949689Y-80624182D01*
X157994405Y-80639828D01*
X158038649Y-80650734D01*
X158064811Y-80664465D01*
X158091866Y-80673932D01*
X158137588Y-80702661D01*
X158182308Y-80726132D01*
X158200277Y-80742051D01*
X158219408Y-80754072D01*
X158262601Y-80797265D01*
X158303748Y-80833718D01*
X158314208Y-80848872D01*
X158325927Y-80860591D01*
X158362770Y-80919227D01*
X158395912Y-80967241D01*
X158400437Y-80979173D01*
X158406067Y-80988133D01*
X158432690Y-81064217D01*
X158453444Y-81118941D01*
X158454296Y-81125966D01*
X158455817Y-81130310D01*
X158468600Y-81243765D01*
X158473000Y-81280000D01*
X158468599Y-81316237D01*
X158455817Y-81429689D01*
X158454297Y-81434032D01*
X158453444Y-81441059D01*
X158432685Y-81495794D01*
X158406067Y-81571866D01*
X158400438Y-81580823D01*
X158395912Y-81592759D01*
X158362763Y-81640782D01*
X158325927Y-81699408D01*
X158314210Y-81711124D01*
X158303748Y-81726282D01*
X158262593Y-81762741D01*
X158219408Y-81805927D01*
X158200281Y-81817945D01*
X158182308Y-81833868D01*
X158137579Y-81857343D01*
X158091866Y-81886067D01*
X158064817Y-81895531D01*
X158038649Y-81909266D01*
X157994395Y-81920173D01*
X157949689Y-81935817D01*
X157915127Y-81939711D01*
X157881121Y-81948093D01*
X157840737Y-81948093D01*
X157800000Y-81952683D01*
X157759263Y-81948093D01*
X157718879Y-81948093D01*
X157684873Y-81939711D01*
X157650310Y-81935817D01*
X157605600Y-81920172D01*
X157561351Y-81909266D01*
X157535184Y-81895532D01*
X157508133Y-81886067D01*
X157462414Y-81857340D01*
X157417692Y-81833868D01*
X157399721Y-81817947D01*
X157380591Y-81805927D01*
X157337398Y-81762734D01*
X157296252Y-81726282D01*
X157285791Y-81711127D01*
X157274072Y-81699408D01*
X157237225Y-81640766D01*
X157204088Y-81592759D01*
X157199563Y-81580827D01*
X157193932Y-81571866D01*
X157167301Y-81495760D01*
X157146556Y-81441059D01*
X157145703Y-81434036D01*
X157144182Y-81429689D01*
X157131386Y-81316123D01*
X157127000Y-81280000D01*
X157131385Y-81243879D01*
X157144182Y-81130310D01*
X157145703Y-81125961D01*
X157146556Y-81118941D01*
X157167297Y-81064251D01*
X157193932Y-80988133D01*
X157199564Y-80979169D01*
X157204088Y-80967241D01*
X157237218Y-80919243D01*
X157274072Y-80860591D01*
X157285794Y-80848868D01*
X157296252Y-80833718D01*
X157337389Y-80797273D01*
X157380591Y-80754072D01*
X157399725Y-80742049D01*
X157417692Y-80726132D01*
X157462404Y-80702664D01*
X157508133Y-80673932D01*
X157535190Y-80664464D01*
X157561351Y-80650734D01*
X157605591Y-80639829D01*
X157650310Y-80624182D01*
X157684880Y-80620286D01*
X157718879Y-80611907D01*
X157759254Y-80611907D01*
X157800000Y-80607316D01*
X157840746Y-80611907D01*
G37*
G36*
X185461066Y-78066943D02*
G01*
X185501724Y-78066943D01*
X185535959Y-78075381D01*
X185570800Y-78079307D01*
X185615870Y-78095077D01*
X185660422Y-78106059D01*
X185686766Y-78119885D01*
X185714037Y-78129428D01*
X185760127Y-78158388D01*
X185805148Y-78182017D01*
X185823237Y-78198042D01*
X185842525Y-78210162D01*
X185886078Y-78253715D01*
X185927490Y-78290403D01*
X185938017Y-78305654D01*
X185949837Y-78317474D01*
X185986994Y-78376610D01*
X186020339Y-78424918D01*
X186024892Y-78436925D01*
X186030571Y-78445962D01*
X186057418Y-78522686D01*
X186078299Y-78577744D01*
X186079157Y-78584813D01*
X186080692Y-78589199D01*
X186093599Y-78703761D01*
X186098000Y-78740000D01*
X186093599Y-78776241D01*
X186080692Y-78890800D01*
X186079157Y-78895185D01*
X186078299Y-78902256D01*
X186057413Y-78957325D01*
X186030571Y-79034037D01*
X186024893Y-79043072D01*
X186020339Y-79055082D01*
X185986987Y-79103399D01*
X185949837Y-79162525D01*
X185938019Y-79174342D01*
X185927490Y-79189597D01*
X185886069Y-79226292D01*
X185842525Y-79269837D01*
X185823241Y-79281953D01*
X185805148Y-79297983D01*
X185760117Y-79321616D01*
X185714037Y-79350571D01*
X185686771Y-79360111D01*
X185660422Y-79373941D01*
X185615860Y-79384924D01*
X185570800Y-79400692D01*
X185535967Y-79404616D01*
X185501724Y-79413057D01*
X185461057Y-79413057D01*
X185420000Y-79417683D01*
X185378943Y-79413057D01*
X185338276Y-79413057D01*
X185304033Y-79404616D01*
X185269199Y-79400692D01*
X185224135Y-79384923D01*
X185179578Y-79373941D01*
X185153230Y-79360112D01*
X185125962Y-79350571D01*
X185079876Y-79321613D01*
X185034852Y-79297983D01*
X185016761Y-79281955D01*
X184997474Y-79269837D01*
X184953921Y-79226284D01*
X184912510Y-79189597D01*
X184901982Y-79174345D01*
X184890162Y-79162525D01*
X184853000Y-79103383D01*
X184819661Y-79055082D01*
X184815107Y-79043076D01*
X184809428Y-79034037D01*
X184782573Y-78957291D01*
X184761701Y-78902256D01*
X184760843Y-78895189D01*
X184759307Y-78890800D01*
X184746386Y-78776127D01*
X184742000Y-78740000D01*
X184746386Y-78703875D01*
X184759307Y-78589199D01*
X184760843Y-78584808D01*
X184761701Y-78577744D01*
X184782568Y-78522720D01*
X184809428Y-78445962D01*
X184815108Y-78436921D01*
X184819661Y-78424918D01*
X184852993Y-78376626D01*
X184890162Y-78317474D01*
X184901985Y-78305650D01*
X184912510Y-78290403D01*
X184953913Y-78253722D01*
X184997474Y-78210162D01*
X185016765Y-78198040D01*
X185034852Y-78182017D01*
X185079866Y-78158391D01*
X185125962Y-78129428D01*
X185153235Y-78119884D01*
X185179578Y-78106059D01*
X185224126Y-78095078D01*
X185269199Y-78079307D01*
X185304040Y-78075381D01*
X185338276Y-78066943D01*
X185378934Y-78066943D01*
X185420000Y-78062316D01*
X185461066Y-78066943D01*
G37*
G36*
X193401066Y-78066943D02*
G01*
X193441724Y-78066943D01*
X193475959Y-78075381D01*
X193510800Y-78079307D01*
X193555870Y-78095077D01*
X193600422Y-78106059D01*
X193626766Y-78119885D01*
X193654037Y-78129428D01*
X193700127Y-78158388D01*
X193745148Y-78182017D01*
X193763237Y-78198042D01*
X193782525Y-78210162D01*
X193826078Y-78253715D01*
X193867490Y-78290403D01*
X193878017Y-78305654D01*
X193889837Y-78317474D01*
X193926994Y-78376610D01*
X193960339Y-78424918D01*
X193964892Y-78436925D01*
X193970571Y-78445962D01*
X193997418Y-78522686D01*
X194018299Y-78577744D01*
X194019157Y-78584813D01*
X194020692Y-78589199D01*
X194033599Y-78703761D01*
X194038000Y-78740000D01*
X194033599Y-78776241D01*
X194020692Y-78890800D01*
X194019157Y-78895185D01*
X194018299Y-78902256D01*
X193997413Y-78957325D01*
X193970571Y-79034037D01*
X193964893Y-79043072D01*
X193960339Y-79055082D01*
X193926987Y-79103399D01*
X193889837Y-79162525D01*
X193878019Y-79174342D01*
X193867490Y-79189597D01*
X193826069Y-79226292D01*
X193782525Y-79269837D01*
X193763241Y-79281953D01*
X193745148Y-79297983D01*
X193700117Y-79321616D01*
X193654037Y-79350571D01*
X193626771Y-79360111D01*
X193600422Y-79373941D01*
X193555860Y-79384924D01*
X193510800Y-79400692D01*
X193475967Y-79404616D01*
X193441724Y-79413057D01*
X193401057Y-79413057D01*
X193360000Y-79417683D01*
X193318943Y-79413057D01*
X193278276Y-79413057D01*
X193244033Y-79404616D01*
X193209199Y-79400692D01*
X193164135Y-79384923D01*
X193119578Y-79373941D01*
X193093230Y-79360112D01*
X193065962Y-79350571D01*
X193019876Y-79321613D01*
X192974852Y-79297983D01*
X192956761Y-79281955D01*
X192937474Y-79269837D01*
X192893921Y-79226284D01*
X192852510Y-79189597D01*
X192841982Y-79174345D01*
X192830162Y-79162525D01*
X192793000Y-79103383D01*
X192759661Y-79055082D01*
X192755107Y-79043076D01*
X192749428Y-79034037D01*
X192722573Y-78957291D01*
X192701701Y-78902256D01*
X192700843Y-78895189D01*
X192699307Y-78890800D01*
X192686386Y-78776127D01*
X192682000Y-78740000D01*
X192686386Y-78703875D01*
X192699307Y-78589199D01*
X192700843Y-78584808D01*
X192701701Y-78577744D01*
X192722568Y-78522720D01*
X192749428Y-78445962D01*
X192755108Y-78436921D01*
X192759661Y-78424918D01*
X192792993Y-78376626D01*
X192830162Y-78317474D01*
X192841985Y-78305650D01*
X192852510Y-78290403D01*
X192893913Y-78253722D01*
X192937474Y-78210162D01*
X192956765Y-78198040D01*
X192974852Y-78182017D01*
X193019866Y-78158391D01*
X193065962Y-78129428D01*
X193093235Y-78119884D01*
X193119578Y-78106059D01*
X193164126Y-78095078D01*
X193209199Y-78079307D01*
X193244040Y-78075381D01*
X193278276Y-78066943D01*
X193318934Y-78066943D01*
X193360000Y-78062316D01*
X193401066Y-78066943D01*
G37*
M02*
