%TF.GenerationSoftware,KiCad,Pcbnew,8.0.3*%
%TF.CreationDate,2024-06-26T21:02:27-07:00*%
%TF.ProjectId,PCTGotekAdapter,50435447-6f74-4656-9b41-646170746572,B*%
%TF.SameCoordinates,Original*%
%TF.FileFunction,Drillmap*%
%TF.FilePolarity,Positive*%
%FSLAX45Y45*%
G04 Gerber Fmt 4.5, Leading zero omitted, Abs format (unit mm)*
G04 Created by KiCad (PCBNEW 8.0.3) date 2024-06-26 21:02:27*
%MOMM*%
%LPD*%
G01*
G04 APERTURE LIST*
%ADD10C,0.150000*%
%ADD11C,0.200000*%
%ADD12C,0.100000*%
%ADD13C,0.120000*%
%ADD14C,0.320000*%
G04 APERTURE END LIST*
D10*
X12446000Y-7366000D02*
X21082000Y-7366000D01*
X21082000Y-12446000D01*
X12446000Y-12446000D01*
X12446000Y-7366000D01*
D11*
D12*
X12692152Y-10140000D02*
X12732152Y-10180000D01*
X12732152Y-10140000D02*
X12692152Y-10180000D01*
X13454152Y-10140000D02*
X13494152Y-10180000D01*
X13494152Y-10140000D02*
X13454152Y-10180000D01*
X13950000Y-10140000D02*
X13990000Y-10180000D01*
X13990000Y-10140000D02*
X13950000Y-10180000D01*
X14966000Y-9886000D02*
X15006000Y-9926000D01*
X15006000Y-9886000D02*
X14966000Y-9926000D01*
X15343777Y-9628743D02*
X15383777Y-9668743D01*
X15383777Y-9628743D02*
X15343777Y-9668743D01*
X15347034Y-10003262D02*
X15387034Y-10043262D01*
X15387034Y-10003262D02*
X15347034Y-10043262D01*
X15474000Y-10140000D02*
X15514000Y-10180000D01*
X15514000Y-10140000D02*
X15474000Y-10180000D01*
X15982000Y-10140000D02*
X16022000Y-10180000D01*
X16022000Y-10140000D02*
X15982000Y-10180000D01*
X16353468Y-10130228D02*
X16393468Y-10170228D01*
X16393468Y-10130228D02*
X16353468Y-10170228D01*
X17252000Y-10140000D02*
X17292000Y-10180000D01*
X17292000Y-10140000D02*
X17252000Y-10180000D01*
X17434979Y-8634608D02*
X17474979Y-8674608D01*
X17474979Y-8634608D02*
X17434979Y-8674608D01*
X17506000Y-9632000D02*
X17546000Y-9672000D01*
X17546000Y-9632000D02*
X17506000Y-9672000D01*
X17506000Y-10902000D02*
X17546000Y-10942000D01*
X17546000Y-10902000D02*
X17506000Y-10942000D01*
X18522000Y-9886000D02*
X18562000Y-9926000D01*
X18562000Y-9886000D02*
X18522000Y-9926000D01*
X18776000Y-8362000D02*
X18816000Y-8402000D01*
X18816000Y-8362000D02*
X18776000Y-8402000D01*
X18951825Y-10511194D02*
X18991825Y-10551194D01*
X18991825Y-10511194D02*
X18951825Y-10551194D01*
X19048841Y-8634841D02*
X19088841Y-8674841D01*
X19088841Y-8634841D02*
X19048841Y-8674841D01*
X19048841Y-9645956D02*
X19088841Y-9685956D01*
X19088841Y-9645956D02*
X19048841Y-9685956D01*
X19143892Y-10040834D02*
X19183892Y-10080834D01*
X19183892Y-10040834D02*
X19143892Y-10080834D01*
X19284000Y-10140000D02*
X19324000Y-10180000D01*
X19324000Y-10140000D02*
X19284000Y-10180000D01*
X19284000Y-10648000D02*
X19324000Y-10688000D01*
X19324000Y-10648000D02*
X19284000Y-10688000D01*
X19284000Y-10902000D02*
X19324000Y-10942000D01*
X19324000Y-10902000D02*
X19284000Y-10942000D01*
X19538000Y-8616000D02*
X19578000Y-8656000D01*
X19578000Y-8616000D02*
X19538000Y-8656000D01*
X19538000Y-8870000D02*
X19578000Y-8910000D01*
X19578000Y-8870000D02*
X19538000Y-8910000D01*
X19538000Y-9378000D02*
X19578000Y-9418000D01*
X19578000Y-9378000D02*
X19538000Y-9418000D01*
X19792000Y-8362000D02*
X19832000Y-8402000D01*
X19832000Y-8362000D02*
X19792000Y-8402000D01*
X19792000Y-8616000D02*
X19832000Y-8656000D01*
X19832000Y-8616000D02*
X19792000Y-8656000D01*
X19792000Y-9632000D02*
X19832000Y-9672000D01*
X19832000Y-9632000D02*
X19792000Y-9672000D01*
X19792000Y-9886000D02*
X19832000Y-9926000D01*
X19832000Y-9886000D02*
X19792000Y-9926000D01*
X12823294Y-7958294D02*
G75*
G02*
X12773294Y-7958294I-25000J0D01*
G01*
X12773294Y-7958294D02*
G75*
G02*
X12823294Y-7958294I25000J0D01*
G01*
X12823294Y-11853706D02*
G75*
G02*
X12773294Y-11853706I-25000J0D01*
G01*
X12773294Y-11853706D02*
G75*
G02*
X12823294Y-11853706I25000J0D01*
G01*
X12893589Y-7788589D02*
G75*
G02*
X12843589Y-7788589I-25000J0D01*
G01*
X12843589Y-7788589D02*
G75*
G02*
X12893589Y-7788589I25000J0D01*
G01*
X12893589Y-8128000D02*
G75*
G02*
X12843589Y-8128000I-25000J0D01*
G01*
X12843589Y-8128000D02*
G75*
G02*
X12893589Y-8128000I25000J0D01*
G01*
X12893589Y-11684000D02*
G75*
G02*
X12843589Y-11684000I-25000J0D01*
G01*
X12843589Y-11684000D02*
G75*
G02*
X12893589Y-11684000I25000J0D01*
G01*
X12893589Y-12023411D02*
G75*
G02*
X12843589Y-12023411I-25000J0D01*
G01*
X12843589Y-12023411D02*
G75*
G02*
X12893589Y-12023411I25000J0D01*
G01*
X13063294Y-7718294D02*
G75*
G02*
X13013294Y-7718294I-25000J0D01*
G01*
X13013294Y-7718294D02*
G75*
G02*
X13063294Y-7718294I25000J0D01*
G01*
X13063294Y-8198294D02*
G75*
G02*
X13013294Y-8198294I-25000J0D01*
G01*
X13013294Y-8198294D02*
G75*
G02*
X13063294Y-8198294I25000J0D01*
G01*
X13063294Y-11613706D02*
G75*
G02*
X13013294Y-11613706I-25000J0D01*
G01*
X13013294Y-11613706D02*
G75*
G02*
X13063294Y-11613706I25000J0D01*
G01*
X13063294Y-12093706D02*
G75*
G02*
X13013294Y-12093706I-25000J0D01*
G01*
X13013294Y-12093706D02*
G75*
G02*
X13063294Y-12093706I25000J0D01*
G01*
X13233000Y-7788589D02*
G75*
G02*
X13183000Y-7788589I-25000J0D01*
G01*
X13183000Y-7788589D02*
G75*
G02*
X13233000Y-7788589I25000J0D01*
G01*
X13233000Y-8128000D02*
G75*
G02*
X13183000Y-8128000I-25000J0D01*
G01*
X13183000Y-8128000D02*
G75*
G02*
X13233000Y-8128000I25000J0D01*
G01*
X13233000Y-11684000D02*
G75*
G02*
X13183000Y-11684000I-25000J0D01*
G01*
X13183000Y-11684000D02*
G75*
G02*
X13233000Y-11684000I25000J0D01*
G01*
X13233000Y-12023411D02*
G75*
G02*
X13183000Y-12023411I-25000J0D01*
G01*
X13183000Y-12023411D02*
G75*
G02*
X13233000Y-12023411I25000J0D01*
G01*
X13303294Y-7958294D02*
G75*
G02*
X13253294Y-7958294I-25000J0D01*
G01*
X13253294Y-7958294D02*
G75*
G02*
X13303294Y-7958294I25000J0D01*
G01*
X13303294Y-11853706D02*
G75*
G02*
X13253294Y-11853706I-25000J0D01*
G01*
X13253294Y-11853706D02*
G75*
G02*
X13303294Y-11853706I25000J0D01*
G01*
X20274706Y-7958294D02*
G75*
G02*
X20224706Y-7958294I-25000J0D01*
G01*
X20224706Y-7958294D02*
G75*
G02*
X20274706Y-7958294I25000J0D01*
G01*
X20274706Y-11853706D02*
G75*
G02*
X20224706Y-11853706I-25000J0D01*
G01*
X20224706Y-11853706D02*
G75*
G02*
X20274706Y-11853706I25000J0D01*
G01*
X20345000Y-7788589D02*
G75*
G02*
X20295000Y-7788589I-25000J0D01*
G01*
X20295000Y-7788589D02*
G75*
G02*
X20345000Y-7788589I25000J0D01*
G01*
X20345000Y-8128000D02*
G75*
G02*
X20295000Y-8128000I-25000J0D01*
G01*
X20295000Y-8128000D02*
G75*
G02*
X20345000Y-8128000I25000J0D01*
G01*
X20345000Y-11684000D02*
G75*
G02*
X20295000Y-11684000I-25000J0D01*
G01*
X20295000Y-11684000D02*
G75*
G02*
X20345000Y-11684000I25000J0D01*
G01*
X20345000Y-12023411D02*
G75*
G02*
X20295000Y-12023411I-25000J0D01*
G01*
X20295000Y-12023411D02*
G75*
G02*
X20345000Y-12023411I25000J0D01*
G01*
X20514706Y-7718294D02*
G75*
G02*
X20464706Y-7718294I-25000J0D01*
G01*
X20464706Y-7718294D02*
G75*
G02*
X20514706Y-7718294I25000J0D01*
G01*
X20514706Y-8198294D02*
G75*
G02*
X20464706Y-8198294I-25000J0D01*
G01*
X20464706Y-8198294D02*
G75*
G02*
X20514706Y-8198294I25000J0D01*
G01*
X20514706Y-11613706D02*
G75*
G02*
X20464706Y-11613706I-25000J0D01*
G01*
X20464706Y-11613706D02*
G75*
G02*
X20514706Y-11613706I25000J0D01*
G01*
X20514706Y-12093706D02*
G75*
G02*
X20464706Y-12093706I-25000J0D01*
G01*
X20464706Y-12093706D02*
G75*
G02*
X20514706Y-12093706I25000J0D01*
G01*
X20684411Y-7788589D02*
G75*
G02*
X20634411Y-7788589I-25000J0D01*
G01*
X20634411Y-7788589D02*
G75*
G02*
X20684411Y-7788589I25000J0D01*
G01*
X20684411Y-8128000D02*
G75*
G02*
X20634411Y-8128000I-25000J0D01*
G01*
X20634411Y-8128000D02*
G75*
G02*
X20684411Y-8128000I25000J0D01*
G01*
X20684411Y-11684000D02*
G75*
G02*
X20634411Y-11684000I-25000J0D01*
G01*
X20634411Y-11684000D02*
G75*
G02*
X20684411Y-11684000I25000J0D01*
G01*
X20684411Y-12023411D02*
G75*
G02*
X20634411Y-12023411I-25000J0D01*
G01*
X20634411Y-12023411D02*
G75*
G02*
X20684411Y-12023411I25000J0D01*
G01*
X20754706Y-7958294D02*
G75*
G02*
X20704706Y-7958294I-25000J0D01*
G01*
X20704706Y-7958294D02*
G75*
G02*
X20754706Y-7958294I25000J0D01*
G01*
X20754706Y-11853706D02*
G75*
G02*
X20704706Y-11853706I-25000J0D01*
G01*
X20704706Y-11853706D02*
G75*
G02*
X20754706Y-11853706I25000J0D01*
G01*
X14986000Y-8089500D02*
X14986000Y-8166500D01*
X14947500Y-8128000D02*
X15024500Y-8128000D01*
X14986000Y-8343500D02*
X14986000Y-8420500D01*
X14947500Y-8382000D02*
X15024500Y-8382000D01*
X14986000Y-8597500D02*
X14986000Y-8674500D01*
X14947500Y-8636000D02*
X15024500Y-8636000D01*
X14986000Y-8851500D02*
X14986000Y-8928500D01*
X14947500Y-8890000D02*
X15024500Y-8890000D01*
X14986000Y-9105500D02*
X14986000Y-9182500D01*
X14947500Y-9144000D02*
X15024500Y-9144000D01*
X14986000Y-9359500D02*
X14986000Y-9436500D01*
X14947500Y-9398000D02*
X15024500Y-9398000D01*
X14986000Y-9613500D02*
X14986000Y-9690500D01*
X14947500Y-9652000D02*
X15024500Y-9652000D01*
X15780000Y-8089500D02*
X15780000Y-8166500D01*
X15741500Y-8128000D02*
X15818500Y-8128000D01*
X15780000Y-8343500D02*
X15780000Y-8420500D01*
X15741500Y-8382000D02*
X15818500Y-8382000D01*
X15780000Y-8597500D02*
X15780000Y-8674500D01*
X15741500Y-8636000D02*
X15818500Y-8636000D01*
X15780000Y-8851500D02*
X15780000Y-8928500D01*
X15741500Y-8890000D02*
X15818500Y-8890000D01*
X15780000Y-9105500D02*
X15780000Y-9182500D01*
X15741500Y-9144000D02*
X15818500Y-9144000D01*
X15780000Y-9359500D02*
X15780000Y-9436500D01*
X15741500Y-9398000D02*
X15818500Y-9398000D01*
X15780000Y-9613500D02*
X15780000Y-9690500D01*
X15741500Y-9652000D02*
X15818500Y-9652000D01*
X18569577Y-7901577D02*
X18569577Y-7846423D01*
X18514423Y-7846423D01*
X18514423Y-7901577D01*
X18569577Y-7901577D01*
X18569577Y-8155577D02*
X18569577Y-8100423D01*
X18514423Y-8100423D01*
X18514423Y-8155577D01*
X18569577Y-8155577D01*
X18569577Y-8409577D02*
X18569577Y-8354423D01*
X18514423Y-8354423D01*
X18514423Y-8409577D01*
X18569577Y-8409577D01*
X18569577Y-8663577D02*
X18569577Y-8608423D01*
X18514423Y-8608423D01*
X18514423Y-8663577D01*
X18569577Y-8663577D01*
X18569577Y-8917577D02*
X18569577Y-8862423D01*
X18514423Y-8862423D01*
X18514423Y-8917577D01*
X18569577Y-8917577D01*
X18569577Y-9171577D02*
X18569577Y-9116423D01*
X18514423Y-9116423D01*
X18514423Y-9171577D01*
X18569577Y-9171577D01*
X18569577Y-9425577D02*
X18569577Y-9370423D01*
X18514423Y-9370423D01*
X18514423Y-9425577D01*
X18569577Y-9425577D01*
X18569577Y-9679577D02*
X18569577Y-9624423D01*
X18514423Y-9624423D01*
X18514423Y-9679577D01*
X18569577Y-9679577D01*
X19363577Y-7901577D02*
X19363577Y-7846423D01*
X19308423Y-7846423D01*
X19308423Y-7901577D01*
X19363577Y-7901577D01*
X19363577Y-8155577D02*
X19363577Y-8100423D01*
X19308423Y-8100423D01*
X19308423Y-8155577D01*
X19363577Y-8155577D01*
X19363577Y-8409577D02*
X19363577Y-8354423D01*
X19308423Y-8354423D01*
X19308423Y-8409577D01*
X19363577Y-8409577D01*
X19363577Y-8663577D02*
X19363577Y-8608423D01*
X19308423Y-8608423D01*
X19308423Y-8663577D01*
X19363577Y-8663577D01*
X19363577Y-8917577D02*
X19363577Y-8862423D01*
X19308423Y-8862423D01*
X19308423Y-8917577D01*
X19363577Y-8917577D01*
X19363577Y-9171577D02*
X19363577Y-9116423D01*
X19308423Y-9116423D01*
X19308423Y-9171577D01*
X19363577Y-9171577D01*
X19363577Y-9425577D02*
X19363577Y-9370423D01*
X19308423Y-9370423D01*
X19308423Y-9425577D01*
X19363577Y-9425577D01*
X19363577Y-9679577D02*
X19363577Y-9624423D01*
X19308423Y-9624423D01*
X19308423Y-9679577D01*
X19363577Y-9679577D01*
X14478000Y-9692000D02*
X14518000Y-9652000D01*
X14478000Y-9612000D01*
X14438000Y-9652000D01*
X14478000Y-9692000D01*
X14678000Y-9692000D02*
X14718000Y-9652000D01*
X14678000Y-9612000D01*
X14638000Y-9652000D01*
X14678000Y-9692000D01*
X18053730Y-9692000D02*
X18093730Y-9652000D01*
X18053730Y-9612000D01*
X18013730Y-9652000D01*
X18053730Y-9692000D01*
X18253730Y-9692000D02*
X18293730Y-9652000D01*
X18253730Y-9612000D01*
X18213730Y-9652000D01*
X18253730Y-9692000D01*
X12657000Y-10869500D02*
X12757000Y-10969500D01*
X12757000Y-10869500D02*
X12657000Y-10969500D01*
X12757000Y-10919500D02*
G75*
G02*
X12657000Y-10919500I-50000J0D01*
G01*
X12657000Y-10919500D02*
G75*
G02*
X12757000Y-10919500I50000J0D01*
G01*
X12662152Y-8948587D02*
X12762152Y-9048587D01*
X12762152Y-8948587D02*
X12662152Y-9048587D01*
X12762152Y-8998587D02*
G75*
G02*
X12662152Y-8998587I-50000J0D01*
G01*
X12662152Y-8998587D02*
G75*
G02*
X12762152Y-8998587I50000J0D01*
G01*
X12911000Y-10869500D02*
X13011000Y-10969500D01*
X13011000Y-10869500D02*
X12911000Y-10969500D01*
X13011000Y-10919500D02*
G75*
G02*
X12911000Y-10919500I-50000J0D01*
G01*
X12911000Y-10919500D02*
G75*
G02*
X13011000Y-10919500I50000J0D01*
G01*
X12916152Y-8948587D02*
X13016152Y-9048587D01*
X13016152Y-8948587D02*
X12916152Y-9048587D01*
X13016152Y-8998587D02*
G75*
G02*
X12916152Y-8998587I-50000J0D01*
G01*
X12916152Y-8998587D02*
G75*
G02*
X13016152Y-8998587I50000J0D01*
G01*
X13165000Y-10869500D02*
X13265000Y-10969500D01*
X13265000Y-10869500D02*
X13165000Y-10969500D01*
X13265000Y-10919500D02*
G75*
G02*
X13165000Y-10919500I-50000J0D01*
G01*
X13165000Y-10919500D02*
G75*
G02*
X13265000Y-10919500I50000J0D01*
G01*
X13170152Y-8948587D02*
X13270152Y-9048587D01*
X13270152Y-8948587D02*
X13170152Y-9048587D01*
X13270152Y-8998587D02*
G75*
G02*
X13170152Y-8998587I-50000J0D01*
G01*
X13170152Y-8998587D02*
G75*
G02*
X13270152Y-8998587I50000J0D01*
G01*
X13419000Y-10869500D02*
X13519000Y-10969500D01*
X13519000Y-10869500D02*
X13419000Y-10969500D01*
X13519000Y-10919500D02*
G75*
G02*
X13419000Y-10919500I-50000J0D01*
G01*
X13419000Y-10919500D02*
G75*
G02*
X13519000Y-10919500I50000J0D01*
G01*
X13424152Y-8948587D02*
X13524152Y-9048587D01*
X13524152Y-8948587D02*
X13424152Y-9048587D01*
X13524152Y-8998587D02*
G75*
G02*
X13424152Y-8998587I-50000J0D01*
G01*
X13424152Y-8998587D02*
G75*
G02*
X13524152Y-8998587I50000J0D01*
G01*
X14174000Y-10364000D02*
X14274000Y-10464000D01*
X14274000Y-10364000D02*
X14174000Y-10464000D01*
X14274000Y-10414000D02*
G75*
G02*
X14174000Y-10414000I-50000J0D01*
G01*
X14174000Y-10414000D02*
G75*
G02*
X14274000Y-10414000I50000J0D01*
G01*
X14174000Y-10618000D02*
X14274000Y-10718000D01*
X14274000Y-10618000D02*
X14174000Y-10718000D01*
X14274000Y-10668000D02*
G75*
G02*
X14174000Y-10668000I-50000J0D01*
G01*
X14174000Y-10668000D02*
G75*
G02*
X14274000Y-10668000I50000J0D01*
G01*
X14174000Y-11634000D02*
X14274000Y-11734000D01*
X14274000Y-11634000D02*
X14174000Y-11734000D01*
X14274000Y-11684000D02*
G75*
G02*
X14174000Y-11684000I-50000J0D01*
G01*
X14174000Y-11684000D02*
G75*
G02*
X14274000Y-11684000I50000J0D01*
G01*
X14174000Y-11888000D02*
X14274000Y-11988000D01*
X14274000Y-11888000D02*
X14174000Y-11988000D01*
X14274000Y-11938000D02*
G75*
G02*
X14174000Y-11938000I-50000J0D01*
G01*
X14174000Y-11938000D02*
G75*
G02*
X14274000Y-11938000I50000J0D01*
G01*
X14428000Y-10364000D02*
X14528000Y-10464000D01*
X14528000Y-10364000D02*
X14428000Y-10464000D01*
X14528000Y-10414000D02*
G75*
G02*
X14428000Y-10414000I-50000J0D01*
G01*
X14428000Y-10414000D02*
G75*
G02*
X14528000Y-10414000I50000J0D01*
G01*
X14428000Y-10618000D02*
X14528000Y-10718000D01*
X14528000Y-10618000D02*
X14428000Y-10718000D01*
X14528000Y-10668000D02*
G75*
G02*
X14428000Y-10668000I-50000J0D01*
G01*
X14428000Y-10668000D02*
G75*
G02*
X14528000Y-10668000I50000J0D01*
G01*
X14428000Y-11634000D02*
X14528000Y-11734000D01*
X14528000Y-11634000D02*
X14428000Y-11734000D01*
X14528000Y-11684000D02*
G75*
G02*
X14428000Y-11684000I-50000J0D01*
G01*
X14428000Y-11684000D02*
G75*
G02*
X14528000Y-11684000I50000J0D01*
G01*
X14428000Y-11888000D02*
X14528000Y-11988000D01*
X14528000Y-11888000D02*
X14428000Y-11988000D01*
X14528000Y-11938000D02*
G75*
G02*
X14428000Y-11938000I-50000J0D01*
G01*
X14428000Y-11938000D02*
G75*
G02*
X14528000Y-11938000I50000J0D01*
G01*
X14682000Y-10364000D02*
X14782000Y-10464000D01*
X14782000Y-10364000D02*
X14682000Y-10464000D01*
X14782000Y-10414000D02*
G75*
G02*
X14682000Y-10414000I-50000J0D01*
G01*
X14682000Y-10414000D02*
G75*
G02*
X14782000Y-10414000I50000J0D01*
G01*
X14682000Y-10618000D02*
X14782000Y-10718000D01*
X14782000Y-10618000D02*
X14682000Y-10718000D01*
X14782000Y-10668000D02*
G75*
G02*
X14682000Y-10668000I-50000J0D01*
G01*
X14682000Y-10668000D02*
G75*
G02*
X14782000Y-10668000I50000J0D01*
G01*
X14682000Y-11634000D02*
X14782000Y-11734000D01*
X14782000Y-11634000D02*
X14682000Y-11734000D01*
X14782000Y-11684000D02*
G75*
G02*
X14682000Y-11684000I-50000J0D01*
G01*
X14682000Y-11684000D02*
G75*
G02*
X14782000Y-11684000I50000J0D01*
G01*
X14682000Y-11888000D02*
X14782000Y-11988000D01*
X14782000Y-11888000D02*
X14682000Y-11988000D01*
X14782000Y-11938000D02*
G75*
G02*
X14682000Y-11938000I-50000J0D01*
G01*
X14682000Y-11938000D02*
G75*
G02*
X14782000Y-11938000I50000J0D01*
G01*
X14936000Y-10364000D02*
X15036000Y-10464000D01*
X15036000Y-10364000D02*
X14936000Y-10464000D01*
X15036000Y-10414000D02*
G75*
G02*
X14936000Y-10414000I-50000J0D01*
G01*
X14936000Y-10414000D02*
G75*
G02*
X15036000Y-10414000I50000J0D01*
G01*
X14936000Y-10618000D02*
X15036000Y-10718000D01*
X15036000Y-10618000D02*
X14936000Y-10718000D01*
X15036000Y-10668000D02*
G75*
G02*
X14936000Y-10668000I-50000J0D01*
G01*
X14936000Y-10668000D02*
G75*
G02*
X15036000Y-10668000I50000J0D01*
G01*
X14936000Y-11634000D02*
X15036000Y-11734000D01*
X15036000Y-11634000D02*
X14936000Y-11734000D01*
X15036000Y-11684000D02*
G75*
G02*
X14936000Y-11684000I-50000J0D01*
G01*
X14936000Y-11684000D02*
G75*
G02*
X15036000Y-11684000I50000J0D01*
G01*
X14936000Y-11888000D02*
X15036000Y-11988000D01*
X15036000Y-11888000D02*
X14936000Y-11988000D01*
X15036000Y-11938000D02*
G75*
G02*
X14936000Y-11938000I-50000J0D01*
G01*
X14936000Y-11938000D02*
G75*
G02*
X15036000Y-11938000I50000J0D01*
G01*
X15190000Y-10364000D02*
X15290000Y-10464000D01*
X15290000Y-10364000D02*
X15190000Y-10464000D01*
X15290000Y-10414000D02*
G75*
G02*
X15190000Y-10414000I-50000J0D01*
G01*
X15190000Y-10414000D02*
G75*
G02*
X15290000Y-10414000I50000J0D01*
G01*
X15190000Y-10618000D02*
X15290000Y-10718000D01*
X15290000Y-10618000D02*
X15190000Y-10718000D01*
X15290000Y-10668000D02*
G75*
G02*
X15190000Y-10668000I-50000J0D01*
G01*
X15190000Y-10668000D02*
G75*
G02*
X15290000Y-10668000I50000J0D01*
G01*
X15190000Y-11634000D02*
X15290000Y-11734000D01*
X15290000Y-11634000D02*
X15190000Y-11734000D01*
X15290000Y-11684000D02*
G75*
G02*
X15190000Y-11684000I-50000J0D01*
G01*
X15190000Y-11684000D02*
G75*
G02*
X15290000Y-11684000I50000J0D01*
G01*
X15190000Y-11888000D02*
X15290000Y-11988000D01*
X15290000Y-11888000D02*
X15190000Y-11988000D01*
X15290000Y-11938000D02*
G75*
G02*
X15190000Y-11938000I-50000J0D01*
G01*
X15190000Y-11938000D02*
G75*
G02*
X15290000Y-11938000I50000J0D01*
G01*
X15444000Y-10364000D02*
X15544000Y-10464000D01*
X15544000Y-10364000D02*
X15444000Y-10464000D01*
X15544000Y-10414000D02*
G75*
G02*
X15444000Y-10414000I-50000J0D01*
G01*
X15444000Y-10414000D02*
G75*
G02*
X15544000Y-10414000I50000J0D01*
G01*
X15444000Y-10618000D02*
X15544000Y-10718000D01*
X15544000Y-10618000D02*
X15444000Y-10718000D01*
X15544000Y-10668000D02*
G75*
G02*
X15444000Y-10668000I-50000J0D01*
G01*
X15444000Y-10668000D02*
G75*
G02*
X15544000Y-10668000I50000J0D01*
G01*
X15444000Y-11634000D02*
X15544000Y-11734000D01*
X15544000Y-11634000D02*
X15444000Y-11734000D01*
X15544000Y-11684000D02*
G75*
G02*
X15444000Y-11684000I-50000J0D01*
G01*
X15444000Y-11684000D02*
G75*
G02*
X15544000Y-11684000I50000J0D01*
G01*
X15444000Y-11888000D02*
X15544000Y-11988000D01*
X15544000Y-11888000D02*
X15444000Y-11988000D01*
X15544000Y-11938000D02*
G75*
G02*
X15444000Y-11938000I-50000J0D01*
G01*
X15444000Y-11938000D02*
G75*
G02*
X15544000Y-11938000I50000J0D01*
G01*
X15698000Y-10364000D02*
X15798000Y-10464000D01*
X15798000Y-10364000D02*
X15698000Y-10464000D01*
X15798000Y-10414000D02*
G75*
G02*
X15698000Y-10414000I-50000J0D01*
G01*
X15698000Y-10414000D02*
G75*
G02*
X15798000Y-10414000I50000J0D01*
G01*
X15698000Y-10618000D02*
X15798000Y-10718000D01*
X15798000Y-10618000D02*
X15698000Y-10718000D01*
X15798000Y-10668000D02*
G75*
G02*
X15698000Y-10668000I-50000J0D01*
G01*
X15698000Y-10668000D02*
G75*
G02*
X15798000Y-10668000I50000J0D01*
G01*
X15698000Y-11634000D02*
X15798000Y-11734000D01*
X15798000Y-11634000D02*
X15698000Y-11734000D01*
X15798000Y-11684000D02*
G75*
G02*
X15698000Y-11684000I-50000J0D01*
G01*
X15698000Y-11684000D02*
G75*
G02*
X15798000Y-11684000I50000J0D01*
G01*
X15698000Y-11888000D02*
X15798000Y-11988000D01*
X15798000Y-11888000D02*
X15698000Y-11988000D01*
X15798000Y-11938000D02*
G75*
G02*
X15698000Y-11938000I-50000J0D01*
G01*
X15698000Y-11938000D02*
G75*
G02*
X15798000Y-11938000I50000J0D01*
G01*
X15952000Y-10364000D02*
X16052000Y-10464000D01*
X16052000Y-10364000D02*
X15952000Y-10464000D01*
X16052000Y-10414000D02*
G75*
G02*
X15952000Y-10414000I-50000J0D01*
G01*
X15952000Y-10414000D02*
G75*
G02*
X16052000Y-10414000I50000J0D01*
G01*
X15952000Y-10618000D02*
X16052000Y-10718000D01*
X16052000Y-10618000D02*
X15952000Y-10718000D01*
X16052000Y-10668000D02*
G75*
G02*
X15952000Y-10668000I-50000J0D01*
G01*
X15952000Y-10668000D02*
G75*
G02*
X16052000Y-10668000I50000J0D01*
G01*
X15952000Y-11634000D02*
X16052000Y-11734000D01*
X16052000Y-11634000D02*
X15952000Y-11734000D01*
X16052000Y-11684000D02*
G75*
G02*
X15952000Y-11684000I-50000J0D01*
G01*
X15952000Y-11684000D02*
G75*
G02*
X16052000Y-11684000I50000J0D01*
G01*
X15952000Y-11888000D02*
X16052000Y-11988000D01*
X16052000Y-11888000D02*
X15952000Y-11988000D01*
X16052000Y-11938000D02*
G75*
G02*
X15952000Y-11938000I-50000J0D01*
G01*
X15952000Y-11938000D02*
G75*
G02*
X16052000Y-11938000I50000J0D01*
G01*
X16206000Y-10364000D02*
X16306000Y-10464000D01*
X16306000Y-10364000D02*
X16206000Y-10464000D01*
X16306000Y-10414000D02*
G75*
G02*
X16206000Y-10414000I-50000J0D01*
G01*
X16206000Y-10414000D02*
G75*
G02*
X16306000Y-10414000I50000J0D01*
G01*
X16206000Y-10618000D02*
X16306000Y-10718000D01*
X16306000Y-10618000D02*
X16206000Y-10718000D01*
X16306000Y-10668000D02*
G75*
G02*
X16206000Y-10668000I-50000J0D01*
G01*
X16206000Y-10668000D02*
G75*
G02*
X16306000Y-10668000I50000J0D01*
G01*
X16206000Y-11634000D02*
X16306000Y-11734000D01*
X16306000Y-11634000D02*
X16206000Y-11734000D01*
X16306000Y-11684000D02*
G75*
G02*
X16206000Y-11684000I-50000J0D01*
G01*
X16206000Y-11684000D02*
G75*
G02*
X16306000Y-11684000I50000J0D01*
G01*
X16206000Y-11888000D02*
X16306000Y-11988000D01*
X16306000Y-11888000D02*
X16206000Y-11988000D01*
X16306000Y-11938000D02*
G75*
G02*
X16206000Y-11938000I-50000J0D01*
G01*
X16206000Y-11938000D02*
G75*
G02*
X16306000Y-11938000I50000J0D01*
G01*
X16460000Y-10364000D02*
X16560000Y-10464000D01*
X16560000Y-10364000D02*
X16460000Y-10464000D01*
X16560000Y-10414000D02*
G75*
G02*
X16460000Y-10414000I-50000J0D01*
G01*
X16460000Y-10414000D02*
G75*
G02*
X16560000Y-10414000I50000J0D01*
G01*
X16460000Y-10618000D02*
X16560000Y-10718000D01*
X16560000Y-10618000D02*
X16460000Y-10718000D01*
X16560000Y-10668000D02*
G75*
G02*
X16460000Y-10668000I-50000J0D01*
G01*
X16460000Y-10668000D02*
G75*
G02*
X16560000Y-10668000I50000J0D01*
G01*
X16460000Y-11634000D02*
X16560000Y-11734000D01*
X16560000Y-11634000D02*
X16460000Y-11734000D01*
X16560000Y-11684000D02*
G75*
G02*
X16460000Y-11684000I-50000J0D01*
G01*
X16460000Y-11684000D02*
G75*
G02*
X16560000Y-11684000I50000J0D01*
G01*
X16460000Y-11888000D02*
X16560000Y-11988000D01*
X16560000Y-11888000D02*
X16460000Y-11988000D01*
X16560000Y-11938000D02*
G75*
G02*
X16460000Y-11938000I-50000J0D01*
G01*
X16460000Y-11938000D02*
G75*
G02*
X16560000Y-11938000I50000J0D01*
G01*
X16714000Y-10364000D02*
X16814000Y-10464000D01*
X16814000Y-10364000D02*
X16714000Y-10464000D01*
X16814000Y-10414000D02*
G75*
G02*
X16714000Y-10414000I-50000J0D01*
G01*
X16714000Y-10414000D02*
G75*
G02*
X16814000Y-10414000I50000J0D01*
G01*
X16714000Y-10618000D02*
X16814000Y-10718000D01*
X16814000Y-10618000D02*
X16714000Y-10718000D01*
X16814000Y-10668000D02*
G75*
G02*
X16714000Y-10668000I-50000J0D01*
G01*
X16714000Y-10668000D02*
G75*
G02*
X16814000Y-10668000I50000J0D01*
G01*
X16714000Y-11634000D02*
X16814000Y-11734000D01*
X16814000Y-11634000D02*
X16714000Y-11734000D01*
X16814000Y-11684000D02*
G75*
G02*
X16714000Y-11684000I-50000J0D01*
G01*
X16714000Y-11684000D02*
G75*
G02*
X16814000Y-11684000I50000J0D01*
G01*
X16714000Y-11888000D02*
X16814000Y-11988000D01*
X16814000Y-11888000D02*
X16714000Y-11988000D01*
X16814000Y-11938000D02*
G75*
G02*
X16714000Y-11938000I-50000J0D01*
G01*
X16714000Y-11938000D02*
G75*
G02*
X16814000Y-11938000I50000J0D01*
G01*
X16968000Y-10364000D02*
X17068000Y-10464000D01*
X17068000Y-10364000D02*
X16968000Y-10464000D01*
X17068000Y-10414000D02*
G75*
G02*
X16968000Y-10414000I-50000J0D01*
G01*
X16968000Y-10414000D02*
G75*
G02*
X17068000Y-10414000I50000J0D01*
G01*
X16968000Y-10618000D02*
X17068000Y-10718000D01*
X17068000Y-10618000D02*
X16968000Y-10718000D01*
X17068000Y-10668000D02*
G75*
G02*
X16968000Y-10668000I-50000J0D01*
G01*
X16968000Y-10668000D02*
G75*
G02*
X17068000Y-10668000I50000J0D01*
G01*
X16968000Y-11634000D02*
X17068000Y-11734000D01*
X17068000Y-11634000D02*
X16968000Y-11734000D01*
X17068000Y-11684000D02*
G75*
G02*
X16968000Y-11684000I-50000J0D01*
G01*
X16968000Y-11684000D02*
G75*
G02*
X17068000Y-11684000I50000J0D01*
G01*
X16968000Y-11888000D02*
X17068000Y-11988000D01*
X17068000Y-11888000D02*
X16968000Y-11988000D01*
X17068000Y-11938000D02*
G75*
G02*
X16968000Y-11938000I-50000J0D01*
G01*
X16968000Y-11938000D02*
G75*
G02*
X17068000Y-11938000I50000J0D01*
G01*
X17222000Y-10364000D02*
X17322000Y-10464000D01*
X17322000Y-10364000D02*
X17222000Y-10464000D01*
X17322000Y-10414000D02*
G75*
G02*
X17222000Y-10414000I-50000J0D01*
G01*
X17222000Y-10414000D02*
G75*
G02*
X17322000Y-10414000I50000J0D01*
G01*
X17222000Y-10618000D02*
X17322000Y-10718000D01*
X17322000Y-10618000D02*
X17222000Y-10718000D01*
X17322000Y-10668000D02*
G75*
G02*
X17222000Y-10668000I-50000J0D01*
G01*
X17222000Y-10668000D02*
G75*
G02*
X17322000Y-10668000I50000J0D01*
G01*
X17222000Y-11634000D02*
X17322000Y-11734000D01*
X17322000Y-11634000D02*
X17222000Y-11734000D01*
X17322000Y-11684000D02*
G75*
G02*
X17222000Y-11684000I-50000J0D01*
G01*
X17222000Y-11684000D02*
G75*
G02*
X17322000Y-11684000I50000J0D01*
G01*
X17222000Y-11888000D02*
X17322000Y-11988000D01*
X17322000Y-11888000D02*
X17222000Y-11988000D01*
X17322000Y-11938000D02*
G75*
G02*
X17222000Y-11938000I-50000J0D01*
G01*
X17222000Y-11938000D02*
G75*
G02*
X17322000Y-11938000I50000J0D01*
G01*
X17476000Y-10364000D02*
X17576000Y-10464000D01*
X17576000Y-10364000D02*
X17476000Y-10464000D01*
X17576000Y-10414000D02*
G75*
G02*
X17476000Y-10414000I-50000J0D01*
G01*
X17476000Y-10414000D02*
G75*
G02*
X17576000Y-10414000I50000J0D01*
G01*
X17476000Y-10618000D02*
X17576000Y-10718000D01*
X17576000Y-10618000D02*
X17476000Y-10718000D01*
X17576000Y-10668000D02*
G75*
G02*
X17476000Y-10668000I-50000J0D01*
G01*
X17476000Y-10668000D02*
G75*
G02*
X17576000Y-10668000I50000J0D01*
G01*
X17476000Y-11634000D02*
X17576000Y-11734000D01*
X17576000Y-11634000D02*
X17476000Y-11734000D01*
X17576000Y-11684000D02*
G75*
G02*
X17476000Y-11684000I-50000J0D01*
G01*
X17476000Y-11684000D02*
G75*
G02*
X17576000Y-11684000I50000J0D01*
G01*
X17476000Y-11888000D02*
X17576000Y-11988000D01*
X17576000Y-11888000D02*
X17476000Y-11988000D01*
X17576000Y-11938000D02*
G75*
G02*
X17476000Y-11938000I-50000J0D01*
G01*
X17476000Y-11938000D02*
G75*
G02*
X17576000Y-11938000I50000J0D01*
G01*
X17730000Y-10364000D02*
X17830000Y-10464000D01*
X17830000Y-10364000D02*
X17730000Y-10464000D01*
X17830000Y-10414000D02*
G75*
G02*
X17730000Y-10414000I-50000J0D01*
G01*
X17730000Y-10414000D02*
G75*
G02*
X17830000Y-10414000I50000J0D01*
G01*
X17730000Y-10618000D02*
X17830000Y-10718000D01*
X17830000Y-10618000D02*
X17730000Y-10718000D01*
X17830000Y-10668000D02*
G75*
G02*
X17730000Y-10668000I-50000J0D01*
G01*
X17730000Y-10668000D02*
G75*
G02*
X17830000Y-10668000I50000J0D01*
G01*
X17730000Y-11634000D02*
X17830000Y-11734000D01*
X17830000Y-11634000D02*
X17730000Y-11734000D01*
X17830000Y-11684000D02*
G75*
G02*
X17730000Y-11684000I-50000J0D01*
G01*
X17730000Y-11684000D02*
G75*
G02*
X17830000Y-11684000I50000J0D01*
G01*
X17730000Y-11888000D02*
X17830000Y-11988000D01*
X17830000Y-11888000D02*
X17730000Y-11988000D01*
X17830000Y-11938000D02*
G75*
G02*
X17730000Y-11938000I-50000J0D01*
G01*
X17730000Y-11938000D02*
G75*
G02*
X17830000Y-11938000I50000J0D01*
G01*
X17984000Y-10364000D02*
X18084000Y-10464000D01*
X18084000Y-10364000D02*
X17984000Y-10464000D01*
X18084000Y-10414000D02*
G75*
G02*
X17984000Y-10414000I-50000J0D01*
G01*
X17984000Y-10414000D02*
G75*
G02*
X18084000Y-10414000I50000J0D01*
G01*
X17984000Y-10618000D02*
X18084000Y-10718000D01*
X18084000Y-10618000D02*
X17984000Y-10718000D01*
X18084000Y-10668000D02*
G75*
G02*
X17984000Y-10668000I-50000J0D01*
G01*
X17984000Y-10668000D02*
G75*
G02*
X18084000Y-10668000I50000J0D01*
G01*
X17984000Y-11634000D02*
X18084000Y-11734000D01*
X18084000Y-11634000D02*
X17984000Y-11734000D01*
X18084000Y-11684000D02*
G75*
G02*
X17984000Y-11684000I-50000J0D01*
G01*
X17984000Y-11684000D02*
G75*
G02*
X18084000Y-11684000I50000J0D01*
G01*
X17984000Y-11888000D02*
X18084000Y-11988000D01*
X18084000Y-11888000D02*
X17984000Y-11988000D01*
X18084000Y-11938000D02*
G75*
G02*
X17984000Y-11938000I-50000J0D01*
G01*
X17984000Y-11938000D02*
G75*
G02*
X18084000Y-11938000I50000J0D01*
G01*
X18238000Y-10364000D02*
X18338000Y-10464000D01*
X18338000Y-10364000D02*
X18238000Y-10464000D01*
X18338000Y-10414000D02*
G75*
G02*
X18238000Y-10414000I-50000J0D01*
G01*
X18238000Y-10414000D02*
G75*
G02*
X18338000Y-10414000I50000J0D01*
G01*
X18238000Y-10618000D02*
X18338000Y-10718000D01*
X18338000Y-10618000D02*
X18238000Y-10718000D01*
X18338000Y-10668000D02*
G75*
G02*
X18238000Y-10668000I-50000J0D01*
G01*
X18238000Y-10668000D02*
G75*
G02*
X18338000Y-10668000I50000J0D01*
G01*
X18238000Y-11634000D02*
X18338000Y-11734000D01*
X18338000Y-11634000D02*
X18238000Y-11734000D01*
X18338000Y-11684000D02*
G75*
G02*
X18238000Y-11684000I-50000J0D01*
G01*
X18238000Y-11684000D02*
G75*
G02*
X18338000Y-11684000I50000J0D01*
G01*
X18238000Y-11888000D02*
X18338000Y-11988000D01*
X18338000Y-11888000D02*
X18238000Y-11988000D01*
X18338000Y-11938000D02*
G75*
G02*
X18238000Y-11938000I-50000J0D01*
G01*
X18238000Y-11938000D02*
G75*
G02*
X18338000Y-11938000I50000J0D01*
G01*
X20016000Y-8840000D02*
X20116000Y-8940000D01*
X20116000Y-8840000D02*
X20016000Y-8940000D01*
X20116000Y-8890000D02*
G75*
G02*
X20016000Y-8890000I-50000J0D01*
G01*
X20016000Y-8890000D02*
G75*
G02*
X20116000Y-8890000I50000J0D01*
G01*
X20016000Y-9094000D02*
X20116000Y-9194000D01*
X20116000Y-9094000D02*
X20016000Y-9194000D01*
X20116000Y-9144000D02*
G75*
G02*
X20016000Y-9144000I-50000J0D01*
G01*
X20016000Y-9144000D02*
G75*
G02*
X20116000Y-9144000I50000J0D01*
G01*
X20016000Y-9348000D02*
X20116000Y-9448000D01*
X20116000Y-9348000D02*
X20016000Y-9448000D01*
X20116000Y-9398000D02*
G75*
G02*
X20016000Y-9398000I-50000J0D01*
G01*
X20016000Y-9398000D02*
G75*
G02*
X20116000Y-9398000I50000J0D01*
G01*
X20016000Y-9602000D02*
X20116000Y-9702000D01*
X20116000Y-9602000D02*
X20016000Y-9702000D01*
X20116000Y-9652000D02*
G75*
G02*
X20016000Y-9652000I-50000J0D01*
G01*
X20016000Y-9652000D02*
G75*
G02*
X20116000Y-9652000I50000J0D01*
G01*
X20016000Y-9856000D02*
X20116000Y-9956000D01*
X20116000Y-9856000D02*
X20016000Y-9956000D01*
X20116000Y-9906000D02*
G75*
G02*
X20016000Y-9906000I-50000J0D01*
G01*
X20016000Y-9906000D02*
G75*
G02*
X20116000Y-9906000I50000J0D01*
G01*
X20016000Y-10110000D02*
X20116000Y-10210000D01*
X20116000Y-10110000D02*
X20016000Y-10210000D01*
X20116000Y-10160000D02*
G75*
G02*
X20016000Y-10160000I-50000J0D01*
G01*
X20016000Y-10160000D02*
G75*
G02*
X20116000Y-10160000I50000J0D01*
G01*
X20016000Y-10364000D02*
X20116000Y-10464000D01*
X20116000Y-10364000D02*
X20016000Y-10464000D01*
X20116000Y-10414000D02*
G75*
G02*
X20016000Y-10414000I-50000J0D01*
G01*
X20016000Y-10414000D02*
G75*
G02*
X20116000Y-10414000I50000J0D01*
G01*
X20016000Y-10618000D02*
X20116000Y-10718000D01*
X20116000Y-10618000D02*
X20016000Y-10718000D01*
X20116000Y-10668000D02*
G75*
G02*
X20016000Y-10668000I-50000J0D01*
G01*
X20016000Y-10668000D02*
G75*
G02*
X20116000Y-10668000I50000J0D01*
G01*
X20016000Y-10872000D02*
X20116000Y-10972000D01*
X20116000Y-10872000D02*
X20016000Y-10972000D01*
X20116000Y-10922000D02*
G75*
G02*
X20016000Y-10922000I-50000J0D01*
G01*
X20016000Y-10922000D02*
G75*
G02*
X20116000Y-10922000I50000J0D01*
G01*
X20270000Y-8586000D02*
X20370000Y-8686000D01*
X20370000Y-8586000D02*
X20270000Y-8686000D01*
X20370000Y-8636000D02*
G75*
G02*
X20270000Y-8636000I-50000J0D01*
G01*
X20270000Y-8636000D02*
G75*
G02*
X20370000Y-8636000I50000J0D01*
G01*
X20270000Y-8840000D02*
X20370000Y-8940000D01*
X20370000Y-8840000D02*
X20270000Y-8940000D01*
X20370000Y-8890000D02*
G75*
G02*
X20270000Y-8890000I-50000J0D01*
G01*
X20270000Y-8890000D02*
G75*
G02*
X20370000Y-8890000I50000J0D01*
G01*
X20270000Y-9094000D02*
X20370000Y-9194000D01*
X20370000Y-9094000D02*
X20270000Y-9194000D01*
X20370000Y-9144000D02*
G75*
G02*
X20270000Y-9144000I-50000J0D01*
G01*
X20270000Y-9144000D02*
G75*
G02*
X20370000Y-9144000I50000J0D01*
G01*
X20270000Y-9348000D02*
X20370000Y-9448000D01*
X20370000Y-9348000D02*
X20270000Y-9448000D01*
X20370000Y-9398000D02*
G75*
G02*
X20270000Y-9398000I-50000J0D01*
G01*
X20270000Y-9398000D02*
G75*
G02*
X20370000Y-9398000I50000J0D01*
G01*
X20270000Y-9602000D02*
X20370000Y-9702000D01*
X20370000Y-9602000D02*
X20270000Y-9702000D01*
X20370000Y-9652000D02*
G75*
G02*
X20270000Y-9652000I-50000J0D01*
G01*
X20270000Y-9652000D02*
G75*
G02*
X20370000Y-9652000I50000J0D01*
G01*
X20270000Y-9856000D02*
X20370000Y-9956000D01*
X20370000Y-9856000D02*
X20270000Y-9956000D01*
X20370000Y-9906000D02*
G75*
G02*
X20270000Y-9906000I-50000J0D01*
G01*
X20270000Y-9906000D02*
G75*
G02*
X20370000Y-9906000I50000J0D01*
G01*
X20270000Y-10110000D02*
X20370000Y-10210000D01*
X20370000Y-10110000D02*
X20270000Y-10210000D01*
X20370000Y-10160000D02*
G75*
G02*
X20270000Y-10160000I-50000J0D01*
G01*
X20270000Y-10160000D02*
G75*
G02*
X20370000Y-10160000I50000J0D01*
G01*
X20270000Y-10364000D02*
X20370000Y-10464000D01*
X20370000Y-10364000D02*
X20270000Y-10464000D01*
X20370000Y-10414000D02*
G75*
G02*
X20270000Y-10414000I-50000J0D01*
G01*
X20270000Y-10414000D02*
G75*
G02*
X20370000Y-10414000I50000J0D01*
G01*
X20270000Y-10618000D02*
X20370000Y-10718000D01*
X20370000Y-10618000D02*
X20270000Y-10718000D01*
X20370000Y-10668000D02*
G75*
G02*
X20270000Y-10668000I-50000J0D01*
G01*
X20270000Y-10668000D02*
G75*
G02*
X20370000Y-10668000I50000J0D01*
G01*
X20270000Y-10872000D02*
X20370000Y-10972000D01*
X20370000Y-10872000D02*
X20270000Y-10972000D01*
X20370000Y-10922000D02*
G75*
G02*
X20270000Y-10922000I-50000J0D01*
G01*
X20270000Y-10922000D02*
G75*
G02*
X20370000Y-10922000I50000J0D01*
G01*
D13*
X16196000Y-8322000D02*
X16316000Y-8442000D01*
X16316000Y-8322000D02*
X16196000Y-8442000D01*
X16256000Y-8322000D02*
X16256000Y-8442000D01*
X16196000Y-8382000D02*
X16316000Y-8382000D01*
X16196000Y-9846000D02*
X16316000Y-9966000D01*
X16316000Y-9846000D02*
X16196000Y-9966000D01*
X16256000Y-9846000D02*
X16256000Y-9966000D01*
X16196000Y-9906000D02*
X16316000Y-9906000D01*
X16837073Y-8323359D02*
X16957073Y-8443359D01*
X16957073Y-8323359D02*
X16837073Y-8443359D01*
X16897073Y-8323359D02*
X16897073Y-8443359D01*
X16837073Y-8383359D02*
X16957073Y-8383359D01*
X16837073Y-9847359D02*
X16957073Y-9967359D01*
X16957073Y-9847359D02*
X16837073Y-9967359D01*
X16897073Y-9847359D02*
X16897073Y-9967359D01*
X16837073Y-9907359D02*
X16957073Y-9907359D01*
X17466000Y-8322000D02*
X17586000Y-8442000D01*
X17586000Y-8322000D02*
X17466000Y-8442000D01*
X17526000Y-8322000D02*
X17526000Y-8442000D01*
X17466000Y-8382000D02*
X17586000Y-8382000D01*
X17466000Y-9846000D02*
X17586000Y-9966000D01*
X17586000Y-9846000D02*
X17466000Y-9966000D01*
X17526000Y-9846000D02*
X17526000Y-9966000D01*
X17466000Y-9906000D02*
X17586000Y-9906000D01*
X18852758Y-9982974D02*
X18972758Y-10102974D01*
X18972758Y-9982974D02*
X18852758Y-10102974D01*
X18912758Y-9982974D02*
X18912758Y-10102974D01*
X18852758Y-10042974D02*
X18972758Y-10042974D01*
X18852758Y-11506974D02*
X18972758Y-11626974D01*
X18972758Y-11506974D02*
X18852758Y-11626974D01*
X18912758Y-11506974D02*
X18912758Y-11626974D01*
X18852758Y-11566974D02*
X18972758Y-11566974D01*
D14*
X12878294Y-7798294D02*
X13198294Y-8118294D01*
X13198294Y-7798294D02*
X12878294Y-8118294D01*
X13151433Y-8071433D02*
X13151433Y-7845156D01*
X12925156Y-7845156D01*
X12925156Y-8071433D01*
X13151433Y-8071433D01*
X12878294Y-11693706D02*
X13198294Y-12013706D01*
X13198294Y-11693706D02*
X12878294Y-12013706D01*
X13151433Y-11966844D02*
X13151433Y-11740567D01*
X12925156Y-11740567D01*
X12925156Y-11966844D01*
X13151433Y-11966844D01*
X20329706Y-7798294D02*
X20649706Y-8118294D01*
X20649706Y-7798294D02*
X20329706Y-8118294D01*
X20602844Y-8071433D02*
X20602844Y-7845156D01*
X20376567Y-7845156D01*
X20376567Y-8071433D01*
X20602844Y-8071433D01*
X20329706Y-11693706D02*
X20649706Y-12013706D01*
X20649706Y-11693706D02*
X20329706Y-12013706D01*
X20602844Y-11966844D02*
X20602844Y-11740567D01*
X20376567Y-11740567D01*
X20376567Y-11966844D01*
X20602844Y-11966844D01*
D11*
X12699277Y-12764984D02*
X12699277Y-12564984D01*
X12699277Y-12564984D02*
X12746896Y-12564984D01*
X12746896Y-12564984D02*
X12775467Y-12574508D01*
X12775467Y-12574508D02*
X12794515Y-12593555D01*
X12794515Y-12593555D02*
X12804039Y-12612603D01*
X12804039Y-12612603D02*
X12813562Y-12650698D01*
X12813562Y-12650698D02*
X12813562Y-12679269D01*
X12813562Y-12679269D02*
X12804039Y-12717365D01*
X12804039Y-12717365D02*
X12794515Y-12736412D01*
X12794515Y-12736412D02*
X12775467Y-12755460D01*
X12775467Y-12755460D02*
X12746896Y-12764984D01*
X12746896Y-12764984D02*
X12699277Y-12764984D01*
X12899277Y-12764984D02*
X12899277Y-12631650D01*
X12899277Y-12669746D02*
X12908801Y-12650698D01*
X12908801Y-12650698D02*
X12918324Y-12641174D01*
X12918324Y-12641174D02*
X12937372Y-12631650D01*
X12937372Y-12631650D02*
X12956420Y-12631650D01*
X13023086Y-12764984D02*
X13023086Y-12631650D01*
X13023086Y-12564984D02*
X13013562Y-12574508D01*
X13013562Y-12574508D02*
X13023086Y-12584031D01*
X13023086Y-12584031D02*
X13032610Y-12574508D01*
X13032610Y-12574508D02*
X13023086Y-12564984D01*
X13023086Y-12564984D02*
X13023086Y-12584031D01*
X13146896Y-12764984D02*
X13127848Y-12755460D01*
X13127848Y-12755460D02*
X13118324Y-12736412D01*
X13118324Y-12736412D02*
X13118324Y-12564984D01*
X13251658Y-12764984D02*
X13232610Y-12755460D01*
X13232610Y-12755460D02*
X13223086Y-12736412D01*
X13223086Y-12736412D02*
X13223086Y-12564984D01*
X13480229Y-12764984D02*
X13480229Y-12564984D01*
X13480229Y-12564984D02*
X13546896Y-12707841D01*
X13546896Y-12707841D02*
X13613562Y-12564984D01*
X13613562Y-12564984D02*
X13613562Y-12764984D01*
X13794515Y-12764984D02*
X13794515Y-12660222D01*
X13794515Y-12660222D02*
X13784991Y-12641174D01*
X13784991Y-12641174D02*
X13765943Y-12631650D01*
X13765943Y-12631650D02*
X13727848Y-12631650D01*
X13727848Y-12631650D02*
X13708801Y-12641174D01*
X13794515Y-12755460D02*
X13775467Y-12764984D01*
X13775467Y-12764984D02*
X13727848Y-12764984D01*
X13727848Y-12764984D02*
X13708801Y-12755460D01*
X13708801Y-12755460D02*
X13699277Y-12736412D01*
X13699277Y-12736412D02*
X13699277Y-12717365D01*
X13699277Y-12717365D02*
X13708801Y-12698317D01*
X13708801Y-12698317D02*
X13727848Y-12688793D01*
X13727848Y-12688793D02*
X13775467Y-12688793D01*
X13775467Y-12688793D02*
X13794515Y-12679269D01*
X13889753Y-12631650D02*
X13889753Y-12831650D01*
X13889753Y-12641174D02*
X13908801Y-12631650D01*
X13908801Y-12631650D02*
X13946896Y-12631650D01*
X13946896Y-12631650D02*
X13965943Y-12641174D01*
X13965943Y-12641174D02*
X13975467Y-12650698D01*
X13975467Y-12650698D02*
X13984991Y-12669746D01*
X13984991Y-12669746D02*
X13984991Y-12726888D01*
X13984991Y-12726888D02*
X13975467Y-12745936D01*
X13975467Y-12745936D02*
X13965943Y-12755460D01*
X13965943Y-12755460D02*
X13946896Y-12764984D01*
X13946896Y-12764984D02*
X13908801Y-12764984D01*
X13908801Y-12764984D02*
X13889753Y-12755460D01*
X14070705Y-12745936D02*
X14080229Y-12755460D01*
X14080229Y-12755460D02*
X14070705Y-12764984D01*
X14070705Y-12764984D02*
X14061182Y-12755460D01*
X14061182Y-12755460D02*
X14070705Y-12745936D01*
X14070705Y-12745936D02*
X14070705Y-12764984D01*
X14070705Y-12641174D02*
X14080229Y-12650698D01*
X14080229Y-12650698D02*
X14070705Y-12660222D01*
X14070705Y-12660222D02*
X14061182Y-12650698D01*
X14061182Y-12650698D02*
X14070705Y-12641174D01*
X14070705Y-12641174D02*
X14070705Y-12660222D01*
D12*
X12398500Y-13073500D02*
X12438500Y-13113500D01*
X12438500Y-13073500D02*
X12398500Y-13113500D01*
D11*
X12737372Y-12984984D02*
X12756420Y-12984984D01*
X12756420Y-12984984D02*
X12775467Y-12994508D01*
X12775467Y-12994508D02*
X12784991Y-13004031D01*
X12784991Y-13004031D02*
X12794515Y-13023079D01*
X12794515Y-13023079D02*
X12804039Y-13061174D01*
X12804039Y-13061174D02*
X12804039Y-13108793D01*
X12804039Y-13108793D02*
X12794515Y-13146888D01*
X12794515Y-13146888D02*
X12784991Y-13165936D01*
X12784991Y-13165936D02*
X12775467Y-13175460D01*
X12775467Y-13175460D02*
X12756420Y-13184984D01*
X12756420Y-13184984D02*
X12737372Y-13184984D01*
X12737372Y-13184984D02*
X12718324Y-13175460D01*
X12718324Y-13175460D02*
X12708801Y-13165936D01*
X12708801Y-13165936D02*
X12699277Y-13146888D01*
X12699277Y-13146888D02*
X12689753Y-13108793D01*
X12689753Y-13108793D02*
X12689753Y-13061174D01*
X12689753Y-13061174D02*
X12699277Y-13023079D01*
X12699277Y-13023079D02*
X12708801Y-13004031D01*
X12708801Y-13004031D02*
X12718324Y-12994508D01*
X12718324Y-12994508D02*
X12737372Y-12984984D01*
X12889753Y-13165936D02*
X12899277Y-13175460D01*
X12899277Y-13175460D02*
X12889753Y-13184984D01*
X12889753Y-13184984D02*
X12880229Y-13175460D01*
X12880229Y-13175460D02*
X12889753Y-13165936D01*
X12889753Y-13165936D02*
X12889753Y-13184984D01*
X13070705Y-13051650D02*
X13070705Y-13184984D01*
X13023086Y-12975460D02*
X12975467Y-13118317D01*
X12975467Y-13118317D02*
X13099277Y-13118317D01*
X13213562Y-12984984D02*
X13232610Y-12984984D01*
X13232610Y-12984984D02*
X13251658Y-12994508D01*
X13251658Y-12994508D02*
X13261182Y-13004031D01*
X13261182Y-13004031D02*
X13270705Y-13023079D01*
X13270705Y-13023079D02*
X13280229Y-13061174D01*
X13280229Y-13061174D02*
X13280229Y-13108793D01*
X13280229Y-13108793D02*
X13270705Y-13146888D01*
X13270705Y-13146888D02*
X13261182Y-13165936D01*
X13261182Y-13165936D02*
X13251658Y-13175460D01*
X13251658Y-13175460D02*
X13232610Y-13184984D01*
X13232610Y-13184984D02*
X13213562Y-13184984D01*
X13213562Y-13184984D02*
X13194515Y-13175460D01*
X13194515Y-13175460D02*
X13184991Y-13165936D01*
X13184991Y-13165936D02*
X13175467Y-13146888D01*
X13175467Y-13146888D02*
X13165943Y-13108793D01*
X13165943Y-13108793D02*
X13165943Y-13061174D01*
X13165943Y-13061174D02*
X13175467Y-13023079D01*
X13175467Y-13023079D02*
X13184991Y-13004031D01*
X13184991Y-13004031D02*
X13194515Y-12994508D01*
X13194515Y-12994508D02*
X13213562Y-12984984D01*
X13404039Y-12984984D02*
X13423086Y-12984984D01*
X13423086Y-12984984D02*
X13442134Y-12994508D01*
X13442134Y-12994508D02*
X13451658Y-13004031D01*
X13451658Y-13004031D02*
X13461182Y-13023079D01*
X13461182Y-13023079D02*
X13470705Y-13061174D01*
X13470705Y-13061174D02*
X13470705Y-13108793D01*
X13470705Y-13108793D02*
X13461182Y-13146888D01*
X13461182Y-13146888D02*
X13451658Y-13165936D01*
X13451658Y-13165936D02*
X13442134Y-13175460D01*
X13442134Y-13175460D02*
X13423086Y-13184984D01*
X13423086Y-13184984D02*
X13404039Y-13184984D01*
X13404039Y-13184984D02*
X13384991Y-13175460D01*
X13384991Y-13175460D02*
X13375467Y-13165936D01*
X13375467Y-13165936D02*
X13365943Y-13146888D01*
X13365943Y-13146888D02*
X13356420Y-13108793D01*
X13356420Y-13108793D02*
X13356420Y-13061174D01*
X13356420Y-13061174D02*
X13365943Y-13023079D01*
X13365943Y-13023079D02*
X13375467Y-13004031D01*
X13375467Y-13004031D02*
X13384991Y-12994508D01*
X13384991Y-12994508D02*
X13404039Y-12984984D01*
X13556420Y-13184984D02*
X13556420Y-13051650D01*
X13556420Y-13070698D02*
X13565943Y-13061174D01*
X13565943Y-13061174D02*
X13584991Y-13051650D01*
X13584991Y-13051650D02*
X13613563Y-13051650D01*
X13613563Y-13051650D02*
X13632610Y-13061174D01*
X13632610Y-13061174D02*
X13642134Y-13080222D01*
X13642134Y-13080222D02*
X13642134Y-13184984D01*
X13642134Y-13080222D02*
X13651658Y-13061174D01*
X13651658Y-13061174D02*
X13670705Y-13051650D01*
X13670705Y-13051650D02*
X13699277Y-13051650D01*
X13699277Y-13051650D02*
X13718324Y-13061174D01*
X13718324Y-13061174D02*
X13727848Y-13080222D01*
X13727848Y-13080222D02*
X13727848Y-13184984D01*
X13823086Y-13184984D02*
X13823086Y-13051650D01*
X13823086Y-13070698D02*
X13832610Y-13061174D01*
X13832610Y-13061174D02*
X13851658Y-13051650D01*
X13851658Y-13051650D02*
X13880229Y-13051650D01*
X13880229Y-13051650D02*
X13899277Y-13061174D01*
X13899277Y-13061174D02*
X13908801Y-13080222D01*
X13908801Y-13080222D02*
X13908801Y-13184984D01*
X13908801Y-13080222D02*
X13918324Y-13061174D01*
X13918324Y-13061174D02*
X13937372Y-13051650D01*
X13937372Y-13051650D02*
X13965943Y-13051650D01*
X13965943Y-13051650D02*
X13984991Y-13061174D01*
X13984991Y-13061174D02*
X13994515Y-13080222D01*
X13994515Y-13080222D02*
X13994515Y-13184984D01*
X14384991Y-12975460D02*
X14213563Y-13232603D01*
X14642134Y-12984984D02*
X14661182Y-12984984D01*
X14661182Y-12984984D02*
X14680229Y-12994508D01*
X14680229Y-12994508D02*
X14689753Y-13004031D01*
X14689753Y-13004031D02*
X14699277Y-13023079D01*
X14699277Y-13023079D02*
X14708801Y-13061174D01*
X14708801Y-13061174D02*
X14708801Y-13108793D01*
X14708801Y-13108793D02*
X14699277Y-13146888D01*
X14699277Y-13146888D02*
X14689753Y-13165936D01*
X14689753Y-13165936D02*
X14680229Y-13175460D01*
X14680229Y-13175460D02*
X14661182Y-13184984D01*
X14661182Y-13184984D02*
X14642134Y-13184984D01*
X14642134Y-13184984D02*
X14623086Y-13175460D01*
X14623086Y-13175460D02*
X14613563Y-13165936D01*
X14613563Y-13165936D02*
X14604039Y-13146888D01*
X14604039Y-13146888D02*
X14594515Y-13108793D01*
X14594515Y-13108793D02*
X14594515Y-13061174D01*
X14594515Y-13061174D02*
X14604039Y-13023079D01*
X14604039Y-13023079D02*
X14613563Y-13004031D01*
X14613563Y-13004031D02*
X14623086Y-12994508D01*
X14623086Y-12994508D02*
X14642134Y-12984984D01*
X14794515Y-13165936D02*
X14804039Y-13175460D01*
X14804039Y-13175460D02*
X14794515Y-13184984D01*
X14794515Y-13184984D02*
X14784991Y-13175460D01*
X14784991Y-13175460D02*
X14794515Y-13165936D01*
X14794515Y-13165936D02*
X14794515Y-13184984D01*
X14927848Y-12984984D02*
X14946896Y-12984984D01*
X14946896Y-12984984D02*
X14965944Y-12994508D01*
X14965944Y-12994508D02*
X14975467Y-13004031D01*
X14975467Y-13004031D02*
X14984991Y-13023079D01*
X14984991Y-13023079D02*
X14994515Y-13061174D01*
X14994515Y-13061174D02*
X14994515Y-13108793D01*
X14994515Y-13108793D02*
X14984991Y-13146888D01*
X14984991Y-13146888D02*
X14975467Y-13165936D01*
X14975467Y-13165936D02*
X14965944Y-13175460D01*
X14965944Y-13175460D02*
X14946896Y-13184984D01*
X14946896Y-13184984D02*
X14927848Y-13184984D01*
X14927848Y-13184984D02*
X14908801Y-13175460D01*
X14908801Y-13175460D02*
X14899277Y-13165936D01*
X14899277Y-13165936D02*
X14889753Y-13146888D01*
X14889753Y-13146888D02*
X14880229Y-13108793D01*
X14880229Y-13108793D02*
X14880229Y-13061174D01*
X14880229Y-13061174D02*
X14889753Y-13023079D01*
X14889753Y-13023079D02*
X14899277Y-13004031D01*
X14899277Y-13004031D02*
X14908801Y-12994508D01*
X14908801Y-12994508D02*
X14927848Y-12984984D01*
X15184991Y-13184984D02*
X15070706Y-13184984D01*
X15127848Y-13184984D02*
X15127848Y-12984984D01*
X15127848Y-12984984D02*
X15108801Y-13013555D01*
X15108801Y-13013555D02*
X15089753Y-13032603D01*
X15089753Y-13032603D02*
X15070706Y-13042127D01*
X15365944Y-12984984D02*
X15270706Y-12984984D01*
X15270706Y-12984984D02*
X15261182Y-13080222D01*
X15261182Y-13080222D02*
X15270706Y-13070698D01*
X15270706Y-13070698D02*
X15289753Y-13061174D01*
X15289753Y-13061174D02*
X15337372Y-13061174D01*
X15337372Y-13061174D02*
X15356420Y-13070698D01*
X15356420Y-13070698D02*
X15365944Y-13080222D01*
X15365944Y-13080222D02*
X15375467Y-13099269D01*
X15375467Y-13099269D02*
X15375467Y-13146888D01*
X15375467Y-13146888D02*
X15365944Y-13165936D01*
X15365944Y-13165936D02*
X15356420Y-13175460D01*
X15356420Y-13175460D02*
X15337372Y-13184984D01*
X15337372Y-13184984D02*
X15289753Y-13184984D01*
X15289753Y-13184984D02*
X15270706Y-13175460D01*
X15270706Y-13175460D02*
X15261182Y-13165936D01*
X15442134Y-12984984D02*
X15575467Y-12984984D01*
X15575467Y-12984984D02*
X15489753Y-13184984D01*
X15642134Y-12984984D02*
X15642134Y-13023079D01*
X15718325Y-12984984D02*
X15718325Y-13023079D01*
X16013563Y-13261174D02*
X16004039Y-13251650D01*
X16004039Y-13251650D02*
X15984991Y-13223079D01*
X15984991Y-13223079D02*
X15975468Y-13204031D01*
X15975468Y-13204031D02*
X15965944Y-13175460D01*
X15965944Y-13175460D02*
X15956420Y-13127841D01*
X15956420Y-13127841D02*
X15956420Y-13089746D01*
X15956420Y-13089746D02*
X15965944Y-13042127D01*
X15965944Y-13042127D02*
X15975468Y-13013555D01*
X15975468Y-13013555D02*
X15984991Y-12994508D01*
X15984991Y-12994508D02*
X16004039Y-12965936D01*
X16004039Y-12965936D02*
X16013563Y-12956412D01*
X16080229Y-13004031D02*
X16089753Y-12994508D01*
X16089753Y-12994508D02*
X16108801Y-12984984D01*
X16108801Y-12984984D02*
X16156420Y-12984984D01*
X16156420Y-12984984D02*
X16175468Y-12994508D01*
X16175468Y-12994508D02*
X16184991Y-13004031D01*
X16184991Y-13004031D02*
X16194515Y-13023079D01*
X16194515Y-13023079D02*
X16194515Y-13042127D01*
X16194515Y-13042127D02*
X16184991Y-13070698D01*
X16184991Y-13070698D02*
X16070706Y-13184984D01*
X16070706Y-13184984D02*
X16194515Y-13184984D01*
X16289753Y-13184984D02*
X16327848Y-13184984D01*
X16327848Y-13184984D02*
X16346896Y-13175460D01*
X16346896Y-13175460D02*
X16356420Y-13165936D01*
X16356420Y-13165936D02*
X16375468Y-13137365D01*
X16375468Y-13137365D02*
X16384991Y-13099269D01*
X16384991Y-13099269D02*
X16384991Y-13023079D01*
X16384991Y-13023079D02*
X16375468Y-13004031D01*
X16375468Y-13004031D02*
X16365944Y-12994508D01*
X16365944Y-12994508D02*
X16346896Y-12984984D01*
X16346896Y-12984984D02*
X16308801Y-12984984D01*
X16308801Y-12984984D02*
X16289753Y-12994508D01*
X16289753Y-12994508D02*
X16280229Y-13004031D01*
X16280229Y-13004031D02*
X16270706Y-13023079D01*
X16270706Y-13023079D02*
X16270706Y-13070698D01*
X16270706Y-13070698D02*
X16280229Y-13089746D01*
X16280229Y-13089746D02*
X16289753Y-13099269D01*
X16289753Y-13099269D02*
X16308801Y-13108793D01*
X16308801Y-13108793D02*
X16346896Y-13108793D01*
X16346896Y-13108793D02*
X16365944Y-13099269D01*
X16365944Y-13099269D02*
X16375468Y-13089746D01*
X16375468Y-13089746D02*
X16384991Y-13070698D01*
X16623087Y-13184984D02*
X16623087Y-12984984D01*
X16708801Y-13184984D02*
X16708801Y-13080222D01*
X16708801Y-13080222D02*
X16699277Y-13061174D01*
X16699277Y-13061174D02*
X16680230Y-13051650D01*
X16680230Y-13051650D02*
X16651658Y-13051650D01*
X16651658Y-13051650D02*
X16632610Y-13061174D01*
X16632610Y-13061174D02*
X16623087Y-13070698D01*
X16832611Y-13184984D02*
X16813563Y-13175460D01*
X16813563Y-13175460D02*
X16804039Y-13165936D01*
X16804039Y-13165936D02*
X16794515Y-13146888D01*
X16794515Y-13146888D02*
X16794515Y-13089746D01*
X16794515Y-13089746D02*
X16804039Y-13070698D01*
X16804039Y-13070698D02*
X16813563Y-13061174D01*
X16813563Y-13061174D02*
X16832611Y-13051650D01*
X16832611Y-13051650D02*
X16861182Y-13051650D01*
X16861182Y-13051650D02*
X16880230Y-13061174D01*
X16880230Y-13061174D02*
X16889753Y-13070698D01*
X16889753Y-13070698D02*
X16899277Y-13089746D01*
X16899277Y-13089746D02*
X16899277Y-13146888D01*
X16899277Y-13146888D02*
X16889753Y-13165936D01*
X16889753Y-13165936D02*
X16880230Y-13175460D01*
X16880230Y-13175460D02*
X16861182Y-13184984D01*
X16861182Y-13184984D02*
X16832611Y-13184984D01*
X17013563Y-13184984D02*
X16994515Y-13175460D01*
X16994515Y-13175460D02*
X16984992Y-13156412D01*
X16984992Y-13156412D02*
X16984992Y-12984984D01*
X17165944Y-13175460D02*
X17146896Y-13184984D01*
X17146896Y-13184984D02*
X17108801Y-13184984D01*
X17108801Y-13184984D02*
X17089753Y-13175460D01*
X17089753Y-13175460D02*
X17080230Y-13156412D01*
X17080230Y-13156412D02*
X17080230Y-13080222D01*
X17080230Y-13080222D02*
X17089753Y-13061174D01*
X17089753Y-13061174D02*
X17108801Y-13051650D01*
X17108801Y-13051650D02*
X17146896Y-13051650D01*
X17146896Y-13051650D02*
X17165944Y-13061174D01*
X17165944Y-13061174D02*
X17175468Y-13080222D01*
X17175468Y-13080222D02*
X17175468Y-13099269D01*
X17175468Y-13099269D02*
X17080230Y-13118317D01*
X17251658Y-13175460D02*
X17270706Y-13184984D01*
X17270706Y-13184984D02*
X17308801Y-13184984D01*
X17308801Y-13184984D02*
X17327849Y-13175460D01*
X17327849Y-13175460D02*
X17337373Y-13156412D01*
X17337373Y-13156412D02*
X17337373Y-13146888D01*
X17337373Y-13146888D02*
X17327849Y-13127841D01*
X17327849Y-13127841D02*
X17308801Y-13118317D01*
X17308801Y-13118317D02*
X17280230Y-13118317D01*
X17280230Y-13118317D02*
X17261182Y-13108793D01*
X17261182Y-13108793D02*
X17251658Y-13089746D01*
X17251658Y-13089746D02*
X17251658Y-13080222D01*
X17251658Y-13080222D02*
X17261182Y-13061174D01*
X17261182Y-13061174D02*
X17280230Y-13051650D01*
X17280230Y-13051650D02*
X17308801Y-13051650D01*
X17308801Y-13051650D02*
X17327849Y-13061174D01*
X17404039Y-13261174D02*
X17413563Y-13251650D01*
X17413563Y-13251650D02*
X17432611Y-13223079D01*
X17432611Y-13223079D02*
X17442134Y-13204031D01*
X17442134Y-13204031D02*
X17451658Y-13175460D01*
X17451658Y-13175460D02*
X17461182Y-13127841D01*
X17461182Y-13127841D02*
X17461182Y-13089746D01*
X17461182Y-13089746D02*
X17451658Y-13042127D01*
X17451658Y-13042127D02*
X17442134Y-13013555D01*
X17442134Y-13013555D02*
X17432611Y-12994508D01*
X17432611Y-12994508D02*
X17413563Y-12965936D01*
X17413563Y-12965936D02*
X17404039Y-12956412D01*
D12*
X12438500Y-13357500D02*
G75*
G02*
X12388500Y-13357500I-25000J0D01*
G01*
X12388500Y-13357500D02*
G75*
G02*
X12438500Y-13357500I25000J0D01*
G01*
D11*
X12737372Y-13248984D02*
X12756420Y-13248984D01*
X12756420Y-13248984D02*
X12775467Y-13258508D01*
X12775467Y-13258508D02*
X12784991Y-13268031D01*
X12784991Y-13268031D02*
X12794515Y-13287079D01*
X12794515Y-13287079D02*
X12804039Y-13325174D01*
X12804039Y-13325174D02*
X12804039Y-13372793D01*
X12804039Y-13372793D02*
X12794515Y-13410888D01*
X12794515Y-13410888D02*
X12784991Y-13429936D01*
X12784991Y-13429936D02*
X12775467Y-13439460D01*
X12775467Y-13439460D02*
X12756420Y-13448984D01*
X12756420Y-13448984D02*
X12737372Y-13448984D01*
X12737372Y-13448984D02*
X12718324Y-13439460D01*
X12718324Y-13439460D02*
X12708801Y-13429936D01*
X12708801Y-13429936D02*
X12699277Y-13410888D01*
X12699277Y-13410888D02*
X12689753Y-13372793D01*
X12689753Y-13372793D02*
X12689753Y-13325174D01*
X12689753Y-13325174D02*
X12699277Y-13287079D01*
X12699277Y-13287079D02*
X12708801Y-13268031D01*
X12708801Y-13268031D02*
X12718324Y-13258508D01*
X12718324Y-13258508D02*
X12737372Y-13248984D01*
X12889753Y-13429936D02*
X12899277Y-13439460D01*
X12899277Y-13439460D02*
X12889753Y-13448984D01*
X12889753Y-13448984D02*
X12880229Y-13439460D01*
X12880229Y-13439460D02*
X12889753Y-13429936D01*
X12889753Y-13429936D02*
X12889753Y-13448984D01*
X13080229Y-13248984D02*
X12984991Y-13248984D01*
X12984991Y-13248984D02*
X12975467Y-13344222D01*
X12975467Y-13344222D02*
X12984991Y-13334698D01*
X12984991Y-13334698D02*
X13004039Y-13325174D01*
X13004039Y-13325174D02*
X13051658Y-13325174D01*
X13051658Y-13325174D02*
X13070705Y-13334698D01*
X13070705Y-13334698D02*
X13080229Y-13344222D01*
X13080229Y-13344222D02*
X13089753Y-13363269D01*
X13089753Y-13363269D02*
X13089753Y-13410888D01*
X13089753Y-13410888D02*
X13080229Y-13429936D01*
X13080229Y-13429936D02*
X13070705Y-13439460D01*
X13070705Y-13439460D02*
X13051658Y-13448984D01*
X13051658Y-13448984D02*
X13004039Y-13448984D01*
X13004039Y-13448984D02*
X12984991Y-13439460D01*
X12984991Y-13439460D02*
X12975467Y-13429936D01*
X13213562Y-13248984D02*
X13232610Y-13248984D01*
X13232610Y-13248984D02*
X13251658Y-13258508D01*
X13251658Y-13258508D02*
X13261182Y-13268031D01*
X13261182Y-13268031D02*
X13270705Y-13287079D01*
X13270705Y-13287079D02*
X13280229Y-13325174D01*
X13280229Y-13325174D02*
X13280229Y-13372793D01*
X13280229Y-13372793D02*
X13270705Y-13410888D01*
X13270705Y-13410888D02*
X13261182Y-13429936D01*
X13261182Y-13429936D02*
X13251658Y-13439460D01*
X13251658Y-13439460D02*
X13232610Y-13448984D01*
X13232610Y-13448984D02*
X13213562Y-13448984D01*
X13213562Y-13448984D02*
X13194515Y-13439460D01*
X13194515Y-13439460D02*
X13184991Y-13429936D01*
X13184991Y-13429936D02*
X13175467Y-13410888D01*
X13175467Y-13410888D02*
X13165943Y-13372793D01*
X13165943Y-13372793D02*
X13165943Y-13325174D01*
X13165943Y-13325174D02*
X13175467Y-13287079D01*
X13175467Y-13287079D02*
X13184991Y-13268031D01*
X13184991Y-13268031D02*
X13194515Y-13258508D01*
X13194515Y-13258508D02*
X13213562Y-13248984D01*
X13404039Y-13248984D02*
X13423086Y-13248984D01*
X13423086Y-13248984D02*
X13442134Y-13258508D01*
X13442134Y-13258508D02*
X13451658Y-13268031D01*
X13451658Y-13268031D02*
X13461182Y-13287079D01*
X13461182Y-13287079D02*
X13470705Y-13325174D01*
X13470705Y-13325174D02*
X13470705Y-13372793D01*
X13470705Y-13372793D02*
X13461182Y-13410888D01*
X13461182Y-13410888D02*
X13451658Y-13429936D01*
X13451658Y-13429936D02*
X13442134Y-13439460D01*
X13442134Y-13439460D02*
X13423086Y-13448984D01*
X13423086Y-13448984D02*
X13404039Y-13448984D01*
X13404039Y-13448984D02*
X13384991Y-13439460D01*
X13384991Y-13439460D02*
X13375467Y-13429936D01*
X13375467Y-13429936D02*
X13365943Y-13410888D01*
X13365943Y-13410888D02*
X13356420Y-13372793D01*
X13356420Y-13372793D02*
X13356420Y-13325174D01*
X13356420Y-13325174D02*
X13365943Y-13287079D01*
X13365943Y-13287079D02*
X13375467Y-13268031D01*
X13375467Y-13268031D02*
X13384991Y-13258508D01*
X13384991Y-13258508D02*
X13404039Y-13248984D01*
X13556420Y-13448984D02*
X13556420Y-13315650D01*
X13556420Y-13334698D02*
X13565943Y-13325174D01*
X13565943Y-13325174D02*
X13584991Y-13315650D01*
X13584991Y-13315650D02*
X13613563Y-13315650D01*
X13613563Y-13315650D02*
X13632610Y-13325174D01*
X13632610Y-13325174D02*
X13642134Y-13344222D01*
X13642134Y-13344222D02*
X13642134Y-13448984D01*
X13642134Y-13344222D02*
X13651658Y-13325174D01*
X13651658Y-13325174D02*
X13670705Y-13315650D01*
X13670705Y-13315650D02*
X13699277Y-13315650D01*
X13699277Y-13315650D02*
X13718324Y-13325174D01*
X13718324Y-13325174D02*
X13727848Y-13344222D01*
X13727848Y-13344222D02*
X13727848Y-13448984D01*
X13823086Y-13448984D02*
X13823086Y-13315650D01*
X13823086Y-13334698D02*
X13832610Y-13325174D01*
X13832610Y-13325174D02*
X13851658Y-13315650D01*
X13851658Y-13315650D02*
X13880229Y-13315650D01*
X13880229Y-13315650D02*
X13899277Y-13325174D01*
X13899277Y-13325174D02*
X13908801Y-13344222D01*
X13908801Y-13344222D02*
X13908801Y-13448984D01*
X13908801Y-13344222D02*
X13918324Y-13325174D01*
X13918324Y-13325174D02*
X13937372Y-13315650D01*
X13937372Y-13315650D02*
X13965943Y-13315650D01*
X13965943Y-13315650D02*
X13984991Y-13325174D01*
X13984991Y-13325174D02*
X13994515Y-13344222D01*
X13994515Y-13344222D02*
X13994515Y-13448984D01*
X14384991Y-13239460D02*
X14213563Y-13496603D01*
X14642134Y-13248984D02*
X14661182Y-13248984D01*
X14661182Y-13248984D02*
X14680229Y-13258508D01*
X14680229Y-13258508D02*
X14689753Y-13268031D01*
X14689753Y-13268031D02*
X14699277Y-13287079D01*
X14699277Y-13287079D02*
X14708801Y-13325174D01*
X14708801Y-13325174D02*
X14708801Y-13372793D01*
X14708801Y-13372793D02*
X14699277Y-13410888D01*
X14699277Y-13410888D02*
X14689753Y-13429936D01*
X14689753Y-13429936D02*
X14680229Y-13439460D01*
X14680229Y-13439460D02*
X14661182Y-13448984D01*
X14661182Y-13448984D02*
X14642134Y-13448984D01*
X14642134Y-13448984D02*
X14623086Y-13439460D01*
X14623086Y-13439460D02*
X14613563Y-13429936D01*
X14613563Y-13429936D02*
X14604039Y-13410888D01*
X14604039Y-13410888D02*
X14594515Y-13372793D01*
X14594515Y-13372793D02*
X14594515Y-13325174D01*
X14594515Y-13325174D02*
X14604039Y-13287079D01*
X14604039Y-13287079D02*
X14613563Y-13268031D01*
X14613563Y-13268031D02*
X14623086Y-13258508D01*
X14623086Y-13258508D02*
X14642134Y-13248984D01*
X14794515Y-13429936D02*
X14804039Y-13439460D01*
X14804039Y-13439460D02*
X14794515Y-13448984D01*
X14794515Y-13448984D02*
X14784991Y-13439460D01*
X14784991Y-13439460D02*
X14794515Y-13429936D01*
X14794515Y-13429936D02*
X14794515Y-13448984D01*
X14927848Y-13248984D02*
X14946896Y-13248984D01*
X14946896Y-13248984D02*
X14965944Y-13258508D01*
X14965944Y-13258508D02*
X14975467Y-13268031D01*
X14975467Y-13268031D02*
X14984991Y-13287079D01*
X14984991Y-13287079D02*
X14994515Y-13325174D01*
X14994515Y-13325174D02*
X14994515Y-13372793D01*
X14994515Y-13372793D02*
X14984991Y-13410888D01*
X14984991Y-13410888D02*
X14975467Y-13429936D01*
X14975467Y-13429936D02*
X14965944Y-13439460D01*
X14965944Y-13439460D02*
X14946896Y-13448984D01*
X14946896Y-13448984D02*
X14927848Y-13448984D01*
X14927848Y-13448984D02*
X14908801Y-13439460D01*
X14908801Y-13439460D02*
X14899277Y-13429936D01*
X14899277Y-13429936D02*
X14889753Y-13410888D01*
X14889753Y-13410888D02*
X14880229Y-13372793D01*
X14880229Y-13372793D02*
X14880229Y-13325174D01*
X14880229Y-13325174D02*
X14889753Y-13287079D01*
X14889753Y-13287079D02*
X14899277Y-13268031D01*
X14899277Y-13268031D02*
X14908801Y-13258508D01*
X14908801Y-13258508D02*
X14927848Y-13248984D01*
X15184991Y-13448984D02*
X15070706Y-13448984D01*
X15127848Y-13448984D02*
X15127848Y-13248984D01*
X15127848Y-13248984D02*
X15108801Y-13277555D01*
X15108801Y-13277555D02*
X15089753Y-13296603D01*
X15089753Y-13296603D02*
X15070706Y-13306127D01*
X15280229Y-13448984D02*
X15318325Y-13448984D01*
X15318325Y-13448984D02*
X15337372Y-13439460D01*
X15337372Y-13439460D02*
X15346896Y-13429936D01*
X15346896Y-13429936D02*
X15365944Y-13401365D01*
X15365944Y-13401365D02*
X15375467Y-13363269D01*
X15375467Y-13363269D02*
X15375467Y-13287079D01*
X15375467Y-13287079D02*
X15365944Y-13268031D01*
X15365944Y-13268031D02*
X15356420Y-13258508D01*
X15356420Y-13258508D02*
X15337372Y-13248984D01*
X15337372Y-13248984D02*
X15299277Y-13248984D01*
X15299277Y-13248984D02*
X15280229Y-13258508D01*
X15280229Y-13258508D02*
X15270706Y-13268031D01*
X15270706Y-13268031D02*
X15261182Y-13287079D01*
X15261182Y-13287079D02*
X15261182Y-13334698D01*
X15261182Y-13334698D02*
X15270706Y-13353746D01*
X15270706Y-13353746D02*
X15280229Y-13363269D01*
X15280229Y-13363269D02*
X15299277Y-13372793D01*
X15299277Y-13372793D02*
X15337372Y-13372793D01*
X15337372Y-13372793D02*
X15356420Y-13363269D01*
X15356420Y-13363269D02*
X15365944Y-13353746D01*
X15365944Y-13353746D02*
X15375467Y-13334698D01*
X15442134Y-13248984D02*
X15575467Y-13248984D01*
X15575467Y-13248984D02*
X15489753Y-13448984D01*
X15642134Y-13248984D02*
X15642134Y-13287079D01*
X15718325Y-13248984D02*
X15718325Y-13287079D01*
X16013563Y-13525174D02*
X16004039Y-13515650D01*
X16004039Y-13515650D02*
X15984991Y-13487079D01*
X15984991Y-13487079D02*
X15975468Y-13468031D01*
X15975468Y-13468031D02*
X15965944Y-13439460D01*
X15965944Y-13439460D02*
X15956420Y-13391841D01*
X15956420Y-13391841D02*
X15956420Y-13353746D01*
X15956420Y-13353746D02*
X15965944Y-13306127D01*
X15965944Y-13306127D02*
X15975468Y-13277555D01*
X15975468Y-13277555D02*
X15984991Y-13258508D01*
X15984991Y-13258508D02*
X16004039Y-13229936D01*
X16004039Y-13229936D02*
X16013563Y-13220412D01*
X16070706Y-13248984D02*
X16194515Y-13248984D01*
X16194515Y-13248984D02*
X16127848Y-13325174D01*
X16127848Y-13325174D02*
X16156420Y-13325174D01*
X16156420Y-13325174D02*
X16175468Y-13334698D01*
X16175468Y-13334698D02*
X16184991Y-13344222D01*
X16184991Y-13344222D02*
X16194515Y-13363269D01*
X16194515Y-13363269D02*
X16194515Y-13410888D01*
X16194515Y-13410888D02*
X16184991Y-13429936D01*
X16184991Y-13429936D02*
X16175468Y-13439460D01*
X16175468Y-13439460D02*
X16156420Y-13448984D01*
X16156420Y-13448984D02*
X16099277Y-13448984D01*
X16099277Y-13448984D02*
X16080229Y-13439460D01*
X16080229Y-13439460D02*
X16070706Y-13429936D01*
X16270706Y-13268031D02*
X16280229Y-13258508D01*
X16280229Y-13258508D02*
X16299277Y-13248984D01*
X16299277Y-13248984D02*
X16346896Y-13248984D01*
X16346896Y-13248984D02*
X16365944Y-13258508D01*
X16365944Y-13258508D02*
X16375468Y-13268031D01*
X16375468Y-13268031D02*
X16384991Y-13287079D01*
X16384991Y-13287079D02*
X16384991Y-13306127D01*
X16384991Y-13306127D02*
X16375468Y-13334698D01*
X16375468Y-13334698D02*
X16261182Y-13448984D01*
X16261182Y-13448984D02*
X16384991Y-13448984D01*
X16623087Y-13448984D02*
X16623087Y-13248984D01*
X16708801Y-13448984D02*
X16708801Y-13344222D01*
X16708801Y-13344222D02*
X16699277Y-13325174D01*
X16699277Y-13325174D02*
X16680230Y-13315650D01*
X16680230Y-13315650D02*
X16651658Y-13315650D01*
X16651658Y-13315650D02*
X16632610Y-13325174D01*
X16632610Y-13325174D02*
X16623087Y-13334698D01*
X16832611Y-13448984D02*
X16813563Y-13439460D01*
X16813563Y-13439460D02*
X16804039Y-13429936D01*
X16804039Y-13429936D02*
X16794515Y-13410888D01*
X16794515Y-13410888D02*
X16794515Y-13353746D01*
X16794515Y-13353746D02*
X16804039Y-13334698D01*
X16804039Y-13334698D02*
X16813563Y-13325174D01*
X16813563Y-13325174D02*
X16832611Y-13315650D01*
X16832611Y-13315650D02*
X16861182Y-13315650D01*
X16861182Y-13315650D02*
X16880230Y-13325174D01*
X16880230Y-13325174D02*
X16889753Y-13334698D01*
X16889753Y-13334698D02*
X16899277Y-13353746D01*
X16899277Y-13353746D02*
X16899277Y-13410888D01*
X16899277Y-13410888D02*
X16889753Y-13429936D01*
X16889753Y-13429936D02*
X16880230Y-13439460D01*
X16880230Y-13439460D02*
X16861182Y-13448984D01*
X16861182Y-13448984D02*
X16832611Y-13448984D01*
X17013563Y-13448984D02*
X16994515Y-13439460D01*
X16994515Y-13439460D02*
X16984992Y-13420412D01*
X16984992Y-13420412D02*
X16984992Y-13248984D01*
X17165944Y-13439460D02*
X17146896Y-13448984D01*
X17146896Y-13448984D02*
X17108801Y-13448984D01*
X17108801Y-13448984D02*
X17089753Y-13439460D01*
X17089753Y-13439460D02*
X17080230Y-13420412D01*
X17080230Y-13420412D02*
X17080230Y-13344222D01*
X17080230Y-13344222D02*
X17089753Y-13325174D01*
X17089753Y-13325174D02*
X17108801Y-13315650D01*
X17108801Y-13315650D02*
X17146896Y-13315650D01*
X17146896Y-13315650D02*
X17165944Y-13325174D01*
X17165944Y-13325174D02*
X17175468Y-13344222D01*
X17175468Y-13344222D02*
X17175468Y-13363269D01*
X17175468Y-13363269D02*
X17080230Y-13382317D01*
X17251658Y-13439460D02*
X17270706Y-13448984D01*
X17270706Y-13448984D02*
X17308801Y-13448984D01*
X17308801Y-13448984D02*
X17327849Y-13439460D01*
X17327849Y-13439460D02*
X17337373Y-13420412D01*
X17337373Y-13420412D02*
X17337373Y-13410888D01*
X17337373Y-13410888D02*
X17327849Y-13391841D01*
X17327849Y-13391841D02*
X17308801Y-13382317D01*
X17308801Y-13382317D02*
X17280230Y-13382317D01*
X17280230Y-13382317D02*
X17261182Y-13372793D01*
X17261182Y-13372793D02*
X17251658Y-13353746D01*
X17251658Y-13353746D02*
X17251658Y-13344222D01*
X17251658Y-13344222D02*
X17261182Y-13325174D01*
X17261182Y-13325174D02*
X17280230Y-13315650D01*
X17280230Y-13315650D02*
X17308801Y-13315650D01*
X17308801Y-13315650D02*
X17327849Y-13325174D01*
X17404039Y-13525174D02*
X17413563Y-13515650D01*
X17413563Y-13515650D02*
X17432611Y-13487079D01*
X17432611Y-13487079D02*
X17442134Y-13468031D01*
X17442134Y-13468031D02*
X17451658Y-13439460D01*
X17451658Y-13439460D02*
X17461182Y-13391841D01*
X17461182Y-13391841D02*
X17461182Y-13353746D01*
X17461182Y-13353746D02*
X17451658Y-13306127D01*
X17451658Y-13306127D02*
X17442134Y-13277555D01*
X17442134Y-13277555D02*
X17432611Y-13258508D01*
X17432611Y-13258508D02*
X17413563Y-13229936D01*
X17413563Y-13229936D02*
X17404039Y-13220412D01*
D12*
X12400000Y-13583000D02*
X12400000Y-13660000D01*
X12361500Y-13621500D02*
X12438500Y-13621500D01*
D11*
X12737372Y-13512984D02*
X12756420Y-13512984D01*
X12756420Y-13512984D02*
X12775467Y-13522508D01*
X12775467Y-13522508D02*
X12784991Y-13532031D01*
X12784991Y-13532031D02*
X12794515Y-13551079D01*
X12794515Y-13551079D02*
X12804039Y-13589174D01*
X12804039Y-13589174D02*
X12804039Y-13636793D01*
X12804039Y-13636793D02*
X12794515Y-13674888D01*
X12794515Y-13674888D02*
X12784991Y-13693936D01*
X12784991Y-13693936D02*
X12775467Y-13703460D01*
X12775467Y-13703460D02*
X12756420Y-13712984D01*
X12756420Y-13712984D02*
X12737372Y-13712984D01*
X12737372Y-13712984D02*
X12718324Y-13703460D01*
X12718324Y-13703460D02*
X12708801Y-13693936D01*
X12708801Y-13693936D02*
X12699277Y-13674888D01*
X12699277Y-13674888D02*
X12689753Y-13636793D01*
X12689753Y-13636793D02*
X12689753Y-13589174D01*
X12689753Y-13589174D02*
X12699277Y-13551079D01*
X12699277Y-13551079D02*
X12708801Y-13532031D01*
X12708801Y-13532031D02*
X12718324Y-13522508D01*
X12718324Y-13522508D02*
X12737372Y-13512984D01*
X12889753Y-13693936D02*
X12899277Y-13703460D01*
X12899277Y-13703460D02*
X12889753Y-13712984D01*
X12889753Y-13712984D02*
X12880229Y-13703460D01*
X12880229Y-13703460D02*
X12889753Y-13693936D01*
X12889753Y-13693936D02*
X12889753Y-13712984D01*
X12965943Y-13512984D02*
X13099277Y-13512984D01*
X13099277Y-13512984D02*
X13013562Y-13712984D01*
X13156420Y-13512984D02*
X13289753Y-13512984D01*
X13289753Y-13512984D02*
X13204039Y-13712984D01*
X13404039Y-13512984D02*
X13423086Y-13512984D01*
X13423086Y-13512984D02*
X13442134Y-13522508D01*
X13442134Y-13522508D02*
X13451658Y-13532031D01*
X13451658Y-13532031D02*
X13461182Y-13551079D01*
X13461182Y-13551079D02*
X13470705Y-13589174D01*
X13470705Y-13589174D02*
X13470705Y-13636793D01*
X13470705Y-13636793D02*
X13461182Y-13674888D01*
X13461182Y-13674888D02*
X13451658Y-13693936D01*
X13451658Y-13693936D02*
X13442134Y-13703460D01*
X13442134Y-13703460D02*
X13423086Y-13712984D01*
X13423086Y-13712984D02*
X13404039Y-13712984D01*
X13404039Y-13712984D02*
X13384991Y-13703460D01*
X13384991Y-13703460D02*
X13375467Y-13693936D01*
X13375467Y-13693936D02*
X13365943Y-13674888D01*
X13365943Y-13674888D02*
X13356420Y-13636793D01*
X13356420Y-13636793D02*
X13356420Y-13589174D01*
X13356420Y-13589174D02*
X13365943Y-13551079D01*
X13365943Y-13551079D02*
X13375467Y-13532031D01*
X13375467Y-13532031D02*
X13384991Y-13522508D01*
X13384991Y-13522508D02*
X13404039Y-13512984D01*
X13556420Y-13712984D02*
X13556420Y-13579650D01*
X13556420Y-13598698D02*
X13565943Y-13589174D01*
X13565943Y-13589174D02*
X13584991Y-13579650D01*
X13584991Y-13579650D02*
X13613563Y-13579650D01*
X13613563Y-13579650D02*
X13632610Y-13589174D01*
X13632610Y-13589174D02*
X13642134Y-13608222D01*
X13642134Y-13608222D02*
X13642134Y-13712984D01*
X13642134Y-13608222D02*
X13651658Y-13589174D01*
X13651658Y-13589174D02*
X13670705Y-13579650D01*
X13670705Y-13579650D02*
X13699277Y-13579650D01*
X13699277Y-13579650D02*
X13718324Y-13589174D01*
X13718324Y-13589174D02*
X13727848Y-13608222D01*
X13727848Y-13608222D02*
X13727848Y-13712984D01*
X13823086Y-13712984D02*
X13823086Y-13579650D01*
X13823086Y-13598698D02*
X13832610Y-13589174D01*
X13832610Y-13589174D02*
X13851658Y-13579650D01*
X13851658Y-13579650D02*
X13880229Y-13579650D01*
X13880229Y-13579650D02*
X13899277Y-13589174D01*
X13899277Y-13589174D02*
X13908801Y-13608222D01*
X13908801Y-13608222D02*
X13908801Y-13712984D01*
X13908801Y-13608222D02*
X13918324Y-13589174D01*
X13918324Y-13589174D02*
X13937372Y-13579650D01*
X13937372Y-13579650D02*
X13965943Y-13579650D01*
X13965943Y-13579650D02*
X13984991Y-13589174D01*
X13984991Y-13589174D02*
X13994515Y-13608222D01*
X13994515Y-13608222D02*
X13994515Y-13712984D01*
X14384991Y-13503460D02*
X14213563Y-13760603D01*
X14642134Y-13512984D02*
X14661182Y-13512984D01*
X14661182Y-13512984D02*
X14680229Y-13522508D01*
X14680229Y-13522508D02*
X14689753Y-13532031D01*
X14689753Y-13532031D02*
X14699277Y-13551079D01*
X14699277Y-13551079D02*
X14708801Y-13589174D01*
X14708801Y-13589174D02*
X14708801Y-13636793D01*
X14708801Y-13636793D02*
X14699277Y-13674888D01*
X14699277Y-13674888D02*
X14689753Y-13693936D01*
X14689753Y-13693936D02*
X14680229Y-13703460D01*
X14680229Y-13703460D02*
X14661182Y-13712984D01*
X14661182Y-13712984D02*
X14642134Y-13712984D01*
X14642134Y-13712984D02*
X14623086Y-13703460D01*
X14623086Y-13703460D02*
X14613563Y-13693936D01*
X14613563Y-13693936D02*
X14604039Y-13674888D01*
X14604039Y-13674888D02*
X14594515Y-13636793D01*
X14594515Y-13636793D02*
X14594515Y-13589174D01*
X14594515Y-13589174D02*
X14604039Y-13551079D01*
X14604039Y-13551079D02*
X14613563Y-13532031D01*
X14613563Y-13532031D02*
X14623086Y-13522508D01*
X14623086Y-13522508D02*
X14642134Y-13512984D01*
X14794515Y-13693936D02*
X14804039Y-13703460D01*
X14804039Y-13703460D02*
X14794515Y-13712984D01*
X14794515Y-13712984D02*
X14784991Y-13703460D01*
X14784991Y-13703460D02*
X14794515Y-13693936D01*
X14794515Y-13693936D02*
X14794515Y-13712984D01*
X14927848Y-13512984D02*
X14946896Y-13512984D01*
X14946896Y-13512984D02*
X14965944Y-13522508D01*
X14965944Y-13522508D02*
X14975467Y-13532031D01*
X14975467Y-13532031D02*
X14984991Y-13551079D01*
X14984991Y-13551079D02*
X14994515Y-13589174D01*
X14994515Y-13589174D02*
X14994515Y-13636793D01*
X14994515Y-13636793D02*
X14984991Y-13674888D01*
X14984991Y-13674888D02*
X14975467Y-13693936D01*
X14975467Y-13693936D02*
X14965944Y-13703460D01*
X14965944Y-13703460D02*
X14946896Y-13712984D01*
X14946896Y-13712984D02*
X14927848Y-13712984D01*
X14927848Y-13712984D02*
X14908801Y-13703460D01*
X14908801Y-13703460D02*
X14899277Y-13693936D01*
X14899277Y-13693936D02*
X14889753Y-13674888D01*
X14889753Y-13674888D02*
X14880229Y-13636793D01*
X14880229Y-13636793D02*
X14880229Y-13589174D01*
X14880229Y-13589174D02*
X14889753Y-13551079D01*
X14889753Y-13551079D02*
X14899277Y-13532031D01*
X14899277Y-13532031D02*
X14908801Y-13522508D01*
X14908801Y-13522508D02*
X14927848Y-13512984D01*
X15061182Y-13512984D02*
X15184991Y-13512984D01*
X15184991Y-13512984D02*
X15118325Y-13589174D01*
X15118325Y-13589174D02*
X15146896Y-13589174D01*
X15146896Y-13589174D02*
X15165944Y-13598698D01*
X15165944Y-13598698D02*
X15175467Y-13608222D01*
X15175467Y-13608222D02*
X15184991Y-13627269D01*
X15184991Y-13627269D02*
X15184991Y-13674888D01*
X15184991Y-13674888D02*
X15175467Y-13693936D01*
X15175467Y-13693936D02*
X15165944Y-13703460D01*
X15165944Y-13703460D02*
X15146896Y-13712984D01*
X15146896Y-13712984D02*
X15089753Y-13712984D01*
X15089753Y-13712984D02*
X15070706Y-13703460D01*
X15070706Y-13703460D02*
X15061182Y-13693936D01*
X15308801Y-13512984D02*
X15327848Y-13512984D01*
X15327848Y-13512984D02*
X15346896Y-13522508D01*
X15346896Y-13522508D02*
X15356420Y-13532031D01*
X15356420Y-13532031D02*
X15365944Y-13551079D01*
X15365944Y-13551079D02*
X15375467Y-13589174D01*
X15375467Y-13589174D02*
X15375467Y-13636793D01*
X15375467Y-13636793D02*
X15365944Y-13674888D01*
X15365944Y-13674888D02*
X15356420Y-13693936D01*
X15356420Y-13693936D02*
X15346896Y-13703460D01*
X15346896Y-13703460D02*
X15327848Y-13712984D01*
X15327848Y-13712984D02*
X15308801Y-13712984D01*
X15308801Y-13712984D02*
X15289753Y-13703460D01*
X15289753Y-13703460D02*
X15280229Y-13693936D01*
X15280229Y-13693936D02*
X15270706Y-13674888D01*
X15270706Y-13674888D02*
X15261182Y-13636793D01*
X15261182Y-13636793D02*
X15261182Y-13589174D01*
X15261182Y-13589174D02*
X15270706Y-13551079D01*
X15270706Y-13551079D02*
X15280229Y-13532031D01*
X15280229Y-13532031D02*
X15289753Y-13522508D01*
X15289753Y-13522508D02*
X15308801Y-13512984D01*
X15442134Y-13512984D02*
X15565944Y-13512984D01*
X15565944Y-13512984D02*
X15499277Y-13589174D01*
X15499277Y-13589174D02*
X15527848Y-13589174D01*
X15527848Y-13589174D02*
X15546896Y-13598698D01*
X15546896Y-13598698D02*
X15556420Y-13608222D01*
X15556420Y-13608222D02*
X15565944Y-13627269D01*
X15565944Y-13627269D02*
X15565944Y-13674888D01*
X15565944Y-13674888D02*
X15556420Y-13693936D01*
X15556420Y-13693936D02*
X15546896Y-13703460D01*
X15546896Y-13703460D02*
X15527848Y-13712984D01*
X15527848Y-13712984D02*
X15470706Y-13712984D01*
X15470706Y-13712984D02*
X15451658Y-13703460D01*
X15451658Y-13703460D02*
X15442134Y-13693936D01*
X15642134Y-13512984D02*
X15642134Y-13551079D01*
X15718325Y-13512984D02*
X15718325Y-13551079D01*
X16013563Y-13789174D02*
X16004039Y-13779650D01*
X16004039Y-13779650D02*
X15984991Y-13751079D01*
X15984991Y-13751079D02*
X15975468Y-13732031D01*
X15975468Y-13732031D02*
X15965944Y-13703460D01*
X15965944Y-13703460D02*
X15956420Y-13655841D01*
X15956420Y-13655841D02*
X15956420Y-13617746D01*
X15956420Y-13617746D02*
X15965944Y-13570127D01*
X15965944Y-13570127D02*
X15975468Y-13541555D01*
X15975468Y-13541555D02*
X15984991Y-13522508D01*
X15984991Y-13522508D02*
X16004039Y-13493936D01*
X16004039Y-13493936D02*
X16013563Y-13484412D01*
X16194515Y-13712984D02*
X16080229Y-13712984D01*
X16137372Y-13712984D02*
X16137372Y-13512984D01*
X16137372Y-13512984D02*
X16118325Y-13541555D01*
X16118325Y-13541555D02*
X16099277Y-13560603D01*
X16099277Y-13560603D02*
X16080229Y-13570127D01*
X16365944Y-13579650D02*
X16365944Y-13712984D01*
X16318325Y-13503460D02*
X16270706Y-13646317D01*
X16270706Y-13646317D02*
X16394515Y-13646317D01*
X16623087Y-13712984D02*
X16623087Y-13512984D01*
X16708801Y-13712984D02*
X16708801Y-13608222D01*
X16708801Y-13608222D02*
X16699277Y-13589174D01*
X16699277Y-13589174D02*
X16680230Y-13579650D01*
X16680230Y-13579650D02*
X16651658Y-13579650D01*
X16651658Y-13579650D02*
X16632610Y-13589174D01*
X16632610Y-13589174D02*
X16623087Y-13598698D01*
X16832611Y-13712984D02*
X16813563Y-13703460D01*
X16813563Y-13703460D02*
X16804039Y-13693936D01*
X16804039Y-13693936D02*
X16794515Y-13674888D01*
X16794515Y-13674888D02*
X16794515Y-13617746D01*
X16794515Y-13617746D02*
X16804039Y-13598698D01*
X16804039Y-13598698D02*
X16813563Y-13589174D01*
X16813563Y-13589174D02*
X16832611Y-13579650D01*
X16832611Y-13579650D02*
X16861182Y-13579650D01*
X16861182Y-13579650D02*
X16880230Y-13589174D01*
X16880230Y-13589174D02*
X16889753Y-13598698D01*
X16889753Y-13598698D02*
X16899277Y-13617746D01*
X16899277Y-13617746D02*
X16899277Y-13674888D01*
X16899277Y-13674888D02*
X16889753Y-13693936D01*
X16889753Y-13693936D02*
X16880230Y-13703460D01*
X16880230Y-13703460D02*
X16861182Y-13712984D01*
X16861182Y-13712984D02*
X16832611Y-13712984D01*
X17013563Y-13712984D02*
X16994515Y-13703460D01*
X16994515Y-13703460D02*
X16984992Y-13684412D01*
X16984992Y-13684412D02*
X16984992Y-13512984D01*
X17165944Y-13703460D02*
X17146896Y-13712984D01*
X17146896Y-13712984D02*
X17108801Y-13712984D01*
X17108801Y-13712984D02*
X17089753Y-13703460D01*
X17089753Y-13703460D02*
X17080230Y-13684412D01*
X17080230Y-13684412D02*
X17080230Y-13608222D01*
X17080230Y-13608222D02*
X17089753Y-13589174D01*
X17089753Y-13589174D02*
X17108801Y-13579650D01*
X17108801Y-13579650D02*
X17146896Y-13579650D01*
X17146896Y-13579650D02*
X17165944Y-13589174D01*
X17165944Y-13589174D02*
X17175468Y-13608222D01*
X17175468Y-13608222D02*
X17175468Y-13627269D01*
X17175468Y-13627269D02*
X17080230Y-13646317D01*
X17251658Y-13703460D02*
X17270706Y-13712984D01*
X17270706Y-13712984D02*
X17308801Y-13712984D01*
X17308801Y-13712984D02*
X17327849Y-13703460D01*
X17327849Y-13703460D02*
X17337373Y-13684412D01*
X17337373Y-13684412D02*
X17337373Y-13674888D01*
X17337373Y-13674888D02*
X17327849Y-13655841D01*
X17327849Y-13655841D02*
X17308801Y-13646317D01*
X17308801Y-13646317D02*
X17280230Y-13646317D01*
X17280230Y-13646317D02*
X17261182Y-13636793D01*
X17261182Y-13636793D02*
X17251658Y-13617746D01*
X17251658Y-13617746D02*
X17251658Y-13608222D01*
X17251658Y-13608222D02*
X17261182Y-13589174D01*
X17261182Y-13589174D02*
X17280230Y-13579650D01*
X17280230Y-13579650D02*
X17308801Y-13579650D01*
X17308801Y-13579650D02*
X17327849Y-13589174D01*
X17404039Y-13789174D02*
X17413563Y-13779650D01*
X17413563Y-13779650D02*
X17432611Y-13751079D01*
X17432611Y-13751079D02*
X17442134Y-13732031D01*
X17442134Y-13732031D02*
X17451658Y-13703460D01*
X17451658Y-13703460D02*
X17461182Y-13655841D01*
X17461182Y-13655841D02*
X17461182Y-13617746D01*
X17461182Y-13617746D02*
X17451658Y-13570127D01*
X17451658Y-13570127D02*
X17442134Y-13541555D01*
X17442134Y-13541555D02*
X17432611Y-13522508D01*
X17432611Y-13522508D02*
X17413563Y-13493936D01*
X17413563Y-13493936D02*
X17404039Y-13484412D01*
D12*
X12427077Y-13913077D02*
X12427077Y-13857923D01*
X12371923Y-13857923D01*
X12371923Y-13913077D01*
X12427077Y-13913077D01*
D11*
X12737372Y-13776984D02*
X12756420Y-13776984D01*
X12756420Y-13776984D02*
X12775467Y-13786508D01*
X12775467Y-13786508D02*
X12784991Y-13796031D01*
X12784991Y-13796031D02*
X12794515Y-13815079D01*
X12794515Y-13815079D02*
X12804039Y-13853174D01*
X12804039Y-13853174D02*
X12804039Y-13900793D01*
X12804039Y-13900793D02*
X12794515Y-13938888D01*
X12794515Y-13938888D02*
X12784991Y-13957936D01*
X12784991Y-13957936D02*
X12775467Y-13967460D01*
X12775467Y-13967460D02*
X12756420Y-13976984D01*
X12756420Y-13976984D02*
X12737372Y-13976984D01*
X12737372Y-13976984D02*
X12718324Y-13967460D01*
X12718324Y-13967460D02*
X12708801Y-13957936D01*
X12708801Y-13957936D02*
X12699277Y-13938888D01*
X12699277Y-13938888D02*
X12689753Y-13900793D01*
X12689753Y-13900793D02*
X12689753Y-13853174D01*
X12689753Y-13853174D02*
X12699277Y-13815079D01*
X12699277Y-13815079D02*
X12708801Y-13796031D01*
X12708801Y-13796031D02*
X12718324Y-13786508D01*
X12718324Y-13786508D02*
X12737372Y-13776984D01*
X12889753Y-13957936D02*
X12899277Y-13967460D01*
X12899277Y-13967460D02*
X12889753Y-13976984D01*
X12889753Y-13976984D02*
X12880229Y-13967460D01*
X12880229Y-13967460D02*
X12889753Y-13957936D01*
X12889753Y-13957936D02*
X12889753Y-13976984D01*
X12965943Y-13776984D02*
X13099277Y-13776984D01*
X13099277Y-13776984D02*
X13013562Y-13976984D01*
X13204039Y-13862698D02*
X13184991Y-13853174D01*
X13184991Y-13853174D02*
X13175467Y-13843650D01*
X13175467Y-13843650D02*
X13165943Y-13824603D01*
X13165943Y-13824603D02*
X13165943Y-13815079D01*
X13165943Y-13815079D02*
X13175467Y-13796031D01*
X13175467Y-13796031D02*
X13184991Y-13786508D01*
X13184991Y-13786508D02*
X13204039Y-13776984D01*
X13204039Y-13776984D02*
X13242134Y-13776984D01*
X13242134Y-13776984D02*
X13261182Y-13786508D01*
X13261182Y-13786508D02*
X13270705Y-13796031D01*
X13270705Y-13796031D02*
X13280229Y-13815079D01*
X13280229Y-13815079D02*
X13280229Y-13824603D01*
X13280229Y-13824603D02*
X13270705Y-13843650D01*
X13270705Y-13843650D02*
X13261182Y-13853174D01*
X13261182Y-13853174D02*
X13242134Y-13862698D01*
X13242134Y-13862698D02*
X13204039Y-13862698D01*
X13204039Y-13862698D02*
X13184991Y-13872222D01*
X13184991Y-13872222D02*
X13175467Y-13881746D01*
X13175467Y-13881746D02*
X13165943Y-13900793D01*
X13165943Y-13900793D02*
X13165943Y-13938888D01*
X13165943Y-13938888D02*
X13175467Y-13957936D01*
X13175467Y-13957936D02*
X13184991Y-13967460D01*
X13184991Y-13967460D02*
X13204039Y-13976984D01*
X13204039Y-13976984D02*
X13242134Y-13976984D01*
X13242134Y-13976984D02*
X13261182Y-13967460D01*
X13261182Y-13967460D02*
X13270705Y-13957936D01*
X13270705Y-13957936D02*
X13280229Y-13938888D01*
X13280229Y-13938888D02*
X13280229Y-13900793D01*
X13280229Y-13900793D02*
X13270705Y-13881746D01*
X13270705Y-13881746D02*
X13261182Y-13872222D01*
X13261182Y-13872222D02*
X13242134Y-13862698D01*
X13404039Y-13776984D02*
X13423086Y-13776984D01*
X13423086Y-13776984D02*
X13442134Y-13786508D01*
X13442134Y-13786508D02*
X13451658Y-13796031D01*
X13451658Y-13796031D02*
X13461182Y-13815079D01*
X13461182Y-13815079D02*
X13470705Y-13853174D01*
X13470705Y-13853174D02*
X13470705Y-13900793D01*
X13470705Y-13900793D02*
X13461182Y-13938888D01*
X13461182Y-13938888D02*
X13451658Y-13957936D01*
X13451658Y-13957936D02*
X13442134Y-13967460D01*
X13442134Y-13967460D02*
X13423086Y-13976984D01*
X13423086Y-13976984D02*
X13404039Y-13976984D01*
X13404039Y-13976984D02*
X13384991Y-13967460D01*
X13384991Y-13967460D02*
X13375467Y-13957936D01*
X13375467Y-13957936D02*
X13365943Y-13938888D01*
X13365943Y-13938888D02*
X13356420Y-13900793D01*
X13356420Y-13900793D02*
X13356420Y-13853174D01*
X13356420Y-13853174D02*
X13365943Y-13815079D01*
X13365943Y-13815079D02*
X13375467Y-13796031D01*
X13375467Y-13796031D02*
X13384991Y-13786508D01*
X13384991Y-13786508D02*
X13404039Y-13776984D01*
X13556420Y-13976984D02*
X13556420Y-13843650D01*
X13556420Y-13862698D02*
X13565943Y-13853174D01*
X13565943Y-13853174D02*
X13584991Y-13843650D01*
X13584991Y-13843650D02*
X13613563Y-13843650D01*
X13613563Y-13843650D02*
X13632610Y-13853174D01*
X13632610Y-13853174D02*
X13642134Y-13872222D01*
X13642134Y-13872222D02*
X13642134Y-13976984D01*
X13642134Y-13872222D02*
X13651658Y-13853174D01*
X13651658Y-13853174D02*
X13670705Y-13843650D01*
X13670705Y-13843650D02*
X13699277Y-13843650D01*
X13699277Y-13843650D02*
X13718324Y-13853174D01*
X13718324Y-13853174D02*
X13727848Y-13872222D01*
X13727848Y-13872222D02*
X13727848Y-13976984D01*
X13823086Y-13976984D02*
X13823086Y-13843650D01*
X13823086Y-13862698D02*
X13832610Y-13853174D01*
X13832610Y-13853174D02*
X13851658Y-13843650D01*
X13851658Y-13843650D02*
X13880229Y-13843650D01*
X13880229Y-13843650D02*
X13899277Y-13853174D01*
X13899277Y-13853174D02*
X13908801Y-13872222D01*
X13908801Y-13872222D02*
X13908801Y-13976984D01*
X13908801Y-13872222D02*
X13918324Y-13853174D01*
X13918324Y-13853174D02*
X13937372Y-13843650D01*
X13937372Y-13843650D02*
X13965943Y-13843650D01*
X13965943Y-13843650D02*
X13984991Y-13853174D01*
X13984991Y-13853174D02*
X13994515Y-13872222D01*
X13994515Y-13872222D02*
X13994515Y-13976984D01*
X14384991Y-13767460D02*
X14213563Y-14024603D01*
X14642134Y-13776984D02*
X14661182Y-13776984D01*
X14661182Y-13776984D02*
X14680229Y-13786508D01*
X14680229Y-13786508D02*
X14689753Y-13796031D01*
X14689753Y-13796031D02*
X14699277Y-13815079D01*
X14699277Y-13815079D02*
X14708801Y-13853174D01*
X14708801Y-13853174D02*
X14708801Y-13900793D01*
X14708801Y-13900793D02*
X14699277Y-13938888D01*
X14699277Y-13938888D02*
X14689753Y-13957936D01*
X14689753Y-13957936D02*
X14680229Y-13967460D01*
X14680229Y-13967460D02*
X14661182Y-13976984D01*
X14661182Y-13976984D02*
X14642134Y-13976984D01*
X14642134Y-13976984D02*
X14623086Y-13967460D01*
X14623086Y-13967460D02*
X14613563Y-13957936D01*
X14613563Y-13957936D02*
X14604039Y-13938888D01*
X14604039Y-13938888D02*
X14594515Y-13900793D01*
X14594515Y-13900793D02*
X14594515Y-13853174D01*
X14594515Y-13853174D02*
X14604039Y-13815079D01*
X14604039Y-13815079D02*
X14613563Y-13796031D01*
X14613563Y-13796031D02*
X14623086Y-13786508D01*
X14623086Y-13786508D02*
X14642134Y-13776984D01*
X14794515Y-13957936D02*
X14804039Y-13967460D01*
X14804039Y-13967460D02*
X14794515Y-13976984D01*
X14794515Y-13976984D02*
X14784991Y-13967460D01*
X14784991Y-13967460D02*
X14794515Y-13957936D01*
X14794515Y-13957936D02*
X14794515Y-13976984D01*
X14927848Y-13776984D02*
X14946896Y-13776984D01*
X14946896Y-13776984D02*
X14965944Y-13786508D01*
X14965944Y-13786508D02*
X14975467Y-13796031D01*
X14975467Y-13796031D02*
X14984991Y-13815079D01*
X14984991Y-13815079D02*
X14994515Y-13853174D01*
X14994515Y-13853174D02*
X14994515Y-13900793D01*
X14994515Y-13900793D02*
X14984991Y-13938888D01*
X14984991Y-13938888D02*
X14975467Y-13957936D01*
X14975467Y-13957936D02*
X14965944Y-13967460D01*
X14965944Y-13967460D02*
X14946896Y-13976984D01*
X14946896Y-13976984D02*
X14927848Y-13976984D01*
X14927848Y-13976984D02*
X14908801Y-13967460D01*
X14908801Y-13967460D02*
X14899277Y-13957936D01*
X14899277Y-13957936D02*
X14889753Y-13938888D01*
X14889753Y-13938888D02*
X14880229Y-13900793D01*
X14880229Y-13900793D02*
X14880229Y-13853174D01*
X14880229Y-13853174D02*
X14889753Y-13815079D01*
X14889753Y-13815079D02*
X14899277Y-13796031D01*
X14899277Y-13796031D02*
X14908801Y-13786508D01*
X14908801Y-13786508D02*
X14927848Y-13776984D01*
X15061182Y-13776984D02*
X15184991Y-13776984D01*
X15184991Y-13776984D02*
X15118325Y-13853174D01*
X15118325Y-13853174D02*
X15146896Y-13853174D01*
X15146896Y-13853174D02*
X15165944Y-13862698D01*
X15165944Y-13862698D02*
X15175467Y-13872222D01*
X15175467Y-13872222D02*
X15184991Y-13891269D01*
X15184991Y-13891269D02*
X15184991Y-13938888D01*
X15184991Y-13938888D02*
X15175467Y-13957936D01*
X15175467Y-13957936D02*
X15165944Y-13967460D01*
X15165944Y-13967460D02*
X15146896Y-13976984D01*
X15146896Y-13976984D02*
X15089753Y-13976984D01*
X15089753Y-13976984D02*
X15070706Y-13967460D01*
X15070706Y-13967460D02*
X15061182Y-13957936D01*
X15308801Y-13776984D02*
X15327848Y-13776984D01*
X15327848Y-13776984D02*
X15346896Y-13786508D01*
X15346896Y-13786508D02*
X15356420Y-13796031D01*
X15356420Y-13796031D02*
X15365944Y-13815079D01*
X15365944Y-13815079D02*
X15375467Y-13853174D01*
X15375467Y-13853174D02*
X15375467Y-13900793D01*
X15375467Y-13900793D02*
X15365944Y-13938888D01*
X15365944Y-13938888D02*
X15356420Y-13957936D01*
X15356420Y-13957936D02*
X15346896Y-13967460D01*
X15346896Y-13967460D02*
X15327848Y-13976984D01*
X15327848Y-13976984D02*
X15308801Y-13976984D01*
X15308801Y-13976984D02*
X15289753Y-13967460D01*
X15289753Y-13967460D02*
X15280229Y-13957936D01*
X15280229Y-13957936D02*
X15270706Y-13938888D01*
X15270706Y-13938888D02*
X15261182Y-13900793D01*
X15261182Y-13900793D02*
X15261182Y-13853174D01*
X15261182Y-13853174D02*
X15270706Y-13815079D01*
X15270706Y-13815079D02*
X15280229Y-13796031D01*
X15280229Y-13796031D02*
X15289753Y-13786508D01*
X15289753Y-13786508D02*
X15308801Y-13776984D01*
X15442134Y-13776984D02*
X15575467Y-13776984D01*
X15575467Y-13776984D02*
X15489753Y-13976984D01*
X15642134Y-13776984D02*
X15642134Y-13815079D01*
X15718325Y-13776984D02*
X15718325Y-13815079D01*
X16013563Y-14053174D02*
X16004039Y-14043650D01*
X16004039Y-14043650D02*
X15984991Y-14015079D01*
X15984991Y-14015079D02*
X15975468Y-13996031D01*
X15975468Y-13996031D02*
X15965944Y-13967460D01*
X15965944Y-13967460D02*
X15956420Y-13919841D01*
X15956420Y-13919841D02*
X15956420Y-13881746D01*
X15956420Y-13881746D02*
X15965944Y-13834127D01*
X15965944Y-13834127D02*
X15975468Y-13805555D01*
X15975468Y-13805555D02*
X15984991Y-13786508D01*
X15984991Y-13786508D02*
X16004039Y-13757936D01*
X16004039Y-13757936D02*
X16013563Y-13748412D01*
X16194515Y-13976984D02*
X16080229Y-13976984D01*
X16137372Y-13976984D02*
X16137372Y-13776984D01*
X16137372Y-13776984D02*
X16118325Y-13805555D01*
X16118325Y-13805555D02*
X16099277Y-13824603D01*
X16099277Y-13824603D02*
X16080229Y-13834127D01*
X16365944Y-13776984D02*
X16327848Y-13776984D01*
X16327848Y-13776984D02*
X16308801Y-13786508D01*
X16308801Y-13786508D02*
X16299277Y-13796031D01*
X16299277Y-13796031D02*
X16280229Y-13824603D01*
X16280229Y-13824603D02*
X16270706Y-13862698D01*
X16270706Y-13862698D02*
X16270706Y-13938888D01*
X16270706Y-13938888D02*
X16280229Y-13957936D01*
X16280229Y-13957936D02*
X16289753Y-13967460D01*
X16289753Y-13967460D02*
X16308801Y-13976984D01*
X16308801Y-13976984D02*
X16346896Y-13976984D01*
X16346896Y-13976984D02*
X16365944Y-13967460D01*
X16365944Y-13967460D02*
X16375468Y-13957936D01*
X16375468Y-13957936D02*
X16384991Y-13938888D01*
X16384991Y-13938888D02*
X16384991Y-13891269D01*
X16384991Y-13891269D02*
X16375468Y-13872222D01*
X16375468Y-13872222D02*
X16365944Y-13862698D01*
X16365944Y-13862698D02*
X16346896Y-13853174D01*
X16346896Y-13853174D02*
X16308801Y-13853174D01*
X16308801Y-13853174D02*
X16289753Y-13862698D01*
X16289753Y-13862698D02*
X16280229Y-13872222D01*
X16280229Y-13872222D02*
X16270706Y-13891269D01*
X16623087Y-13976984D02*
X16623087Y-13776984D01*
X16708801Y-13976984D02*
X16708801Y-13872222D01*
X16708801Y-13872222D02*
X16699277Y-13853174D01*
X16699277Y-13853174D02*
X16680230Y-13843650D01*
X16680230Y-13843650D02*
X16651658Y-13843650D01*
X16651658Y-13843650D02*
X16632610Y-13853174D01*
X16632610Y-13853174D02*
X16623087Y-13862698D01*
X16832611Y-13976984D02*
X16813563Y-13967460D01*
X16813563Y-13967460D02*
X16804039Y-13957936D01*
X16804039Y-13957936D02*
X16794515Y-13938888D01*
X16794515Y-13938888D02*
X16794515Y-13881746D01*
X16794515Y-13881746D02*
X16804039Y-13862698D01*
X16804039Y-13862698D02*
X16813563Y-13853174D01*
X16813563Y-13853174D02*
X16832611Y-13843650D01*
X16832611Y-13843650D02*
X16861182Y-13843650D01*
X16861182Y-13843650D02*
X16880230Y-13853174D01*
X16880230Y-13853174D02*
X16889753Y-13862698D01*
X16889753Y-13862698D02*
X16899277Y-13881746D01*
X16899277Y-13881746D02*
X16899277Y-13938888D01*
X16899277Y-13938888D02*
X16889753Y-13957936D01*
X16889753Y-13957936D02*
X16880230Y-13967460D01*
X16880230Y-13967460D02*
X16861182Y-13976984D01*
X16861182Y-13976984D02*
X16832611Y-13976984D01*
X17013563Y-13976984D02*
X16994515Y-13967460D01*
X16994515Y-13967460D02*
X16984992Y-13948412D01*
X16984992Y-13948412D02*
X16984992Y-13776984D01*
X17165944Y-13967460D02*
X17146896Y-13976984D01*
X17146896Y-13976984D02*
X17108801Y-13976984D01*
X17108801Y-13976984D02*
X17089753Y-13967460D01*
X17089753Y-13967460D02*
X17080230Y-13948412D01*
X17080230Y-13948412D02*
X17080230Y-13872222D01*
X17080230Y-13872222D02*
X17089753Y-13853174D01*
X17089753Y-13853174D02*
X17108801Y-13843650D01*
X17108801Y-13843650D02*
X17146896Y-13843650D01*
X17146896Y-13843650D02*
X17165944Y-13853174D01*
X17165944Y-13853174D02*
X17175468Y-13872222D01*
X17175468Y-13872222D02*
X17175468Y-13891269D01*
X17175468Y-13891269D02*
X17080230Y-13910317D01*
X17251658Y-13967460D02*
X17270706Y-13976984D01*
X17270706Y-13976984D02*
X17308801Y-13976984D01*
X17308801Y-13976984D02*
X17327849Y-13967460D01*
X17327849Y-13967460D02*
X17337373Y-13948412D01*
X17337373Y-13948412D02*
X17337373Y-13938888D01*
X17337373Y-13938888D02*
X17327849Y-13919841D01*
X17327849Y-13919841D02*
X17308801Y-13910317D01*
X17308801Y-13910317D02*
X17280230Y-13910317D01*
X17280230Y-13910317D02*
X17261182Y-13900793D01*
X17261182Y-13900793D02*
X17251658Y-13881746D01*
X17251658Y-13881746D02*
X17251658Y-13872222D01*
X17251658Y-13872222D02*
X17261182Y-13853174D01*
X17261182Y-13853174D02*
X17280230Y-13843650D01*
X17280230Y-13843650D02*
X17308801Y-13843650D01*
X17308801Y-13843650D02*
X17327849Y-13853174D01*
X17404039Y-14053174D02*
X17413563Y-14043650D01*
X17413563Y-14043650D02*
X17432611Y-14015079D01*
X17432611Y-14015079D02*
X17442134Y-13996031D01*
X17442134Y-13996031D02*
X17451658Y-13967460D01*
X17451658Y-13967460D02*
X17461182Y-13919841D01*
X17461182Y-13919841D02*
X17461182Y-13881746D01*
X17461182Y-13881746D02*
X17451658Y-13834127D01*
X17451658Y-13834127D02*
X17442134Y-13805555D01*
X17442134Y-13805555D02*
X17432611Y-13786508D01*
X17432611Y-13786508D02*
X17413563Y-13757936D01*
X17413563Y-13757936D02*
X17404039Y-13748412D01*
D12*
X12398500Y-14189500D02*
X12438500Y-14149500D01*
X12398500Y-14109500D01*
X12358500Y-14149500D01*
X12398500Y-14189500D01*
D11*
X12737372Y-14040984D02*
X12756420Y-14040984D01*
X12756420Y-14040984D02*
X12775467Y-14050508D01*
X12775467Y-14050508D02*
X12784991Y-14060031D01*
X12784991Y-14060031D02*
X12794515Y-14079079D01*
X12794515Y-14079079D02*
X12804039Y-14117174D01*
X12804039Y-14117174D02*
X12804039Y-14164793D01*
X12804039Y-14164793D02*
X12794515Y-14202888D01*
X12794515Y-14202888D02*
X12784991Y-14221936D01*
X12784991Y-14221936D02*
X12775467Y-14231460D01*
X12775467Y-14231460D02*
X12756420Y-14240984D01*
X12756420Y-14240984D02*
X12737372Y-14240984D01*
X12737372Y-14240984D02*
X12718324Y-14231460D01*
X12718324Y-14231460D02*
X12708801Y-14221936D01*
X12708801Y-14221936D02*
X12699277Y-14202888D01*
X12699277Y-14202888D02*
X12689753Y-14164793D01*
X12689753Y-14164793D02*
X12689753Y-14117174D01*
X12689753Y-14117174D02*
X12699277Y-14079079D01*
X12699277Y-14079079D02*
X12708801Y-14060031D01*
X12708801Y-14060031D02*
X12718324Y-14050508D01*
X12718324Y-14050508D02*
X12737372Y-14040984D01*
X12889753Y-14221936D02*
X12899277Y-14231460D01*
X12899277Y-14231460D02*
X12889753Y-14240984D01*
X12889753Y-14240984D02*
X12880229Y-14231460D01*
X12880229Y-14231460D02*
X12889753Y-14221936D01*
X12889753Y-14221936D02*
X12889753Y-14240984D01*
X13013562Y-14126698D02*
X12994515Y-14117174D01*
X12994515Y-14117174D02*
X12984991Y-14107650D01*
X12984991Y-14107650D02*
X12975467Y-14088603D01*
X12975467Y-14088603D02*
X12975467Y-14079079D01*
X12975467Y-14079079D02*
X12984991Y-14060031D01*
X12984991Y-14060031D02*
X12994515Y-14050508D01*
X12994515Y-14050508D02*
X13013562Y-14040984D01*
X13013562Y-14040984D02*
X13051658Y-14040984D01*
X13051658Y-14040984D02*
X13070705Y-14050508D01*
X13070705Y-14050508D02*
X13080229Y-14060031D01*
X13080229Y-14060031D02*
X13089753Y-14079079D01*
X13089753Y-14079079D02*
X13089753Y-14088603D01*
X13089753Y-14088603D02*
X13080229Y-14107650D01*
X13080229Y-14107650D02*
X13070705Y-14117174D01*
X13070705Y-14117174D02*
X13051658Y-14126698D01*
X13051658Y-14126698D02*
X13013562Y-14126698D01*
X13013562Y-14126698D02*
X12994515Y-14136222D01*
X12994515Y-14136222D02*
X12984991Y-14145746D01*
X12984991Y-14145746D02*
X12975467Y-14164793D01*
X12975467Y-14164793D02*
X12975467Y-14202888D01*
X12975467Y-14202888D02*
X12984991Y-14221936D01*
X12984991Y-14221936D02*
X12994515Y-14231460D01*
X12994515Y-14231460D02*
X13013562Y-14240984D01*
X13013562Y-14240984D02*
X13051658Y-14240984D01*
X13051658Y-14240984D02*
X13070705Y-14231460D01*
X13070705Y-14231460D02*
X13080229Y-14221936D01*
X13080229Y-14221936D02*
X13089753Y-14202888D01*
X13089753Y-14202888D02*
X13089753Y-14164793D01*
X13089753Y-14164793D02*
X13080229Y-14145746D01*
X13080229Y-14145746D02*
X13070705Y-14136222D01*
X13070705Y-14136222D02*
X13051658Y-14126698D01*
X13213562Y-14040984D02*
X13232610Y-14040984D01*
X13232610Y-14040984D02*
X13251658Y-14050508D01*
X13251658Y-14050508D02*
X13261182Y-14060031D01*
X13261182Y-14060031D02*
X13270705Y-14079079D01*
X13270705Y-14079079D02*
X13280229Y-14117174D01*
X13280229Y-14117174D02*
X13280229Y-14164793D01*
X13280229Y-14164793D02*
X13270705Y-14202888D01*
X13270705Y-14202888D02*
X13261182Y-14221936D01*
X13261182Y-14221936D02*
X13251658Y-14231460D01*
X13251658Y-14231460D02*
X13232610Y-14240984D01*
X13232610Y-14240984D02*
X13213562Y-14240984D01*
X13213562Y-14240984D02*
X13194515Y-14231460D01*
X13194515Y-14231460D02*
X13184991Y-14221936D01*
X13184991Y-14221936D02*
X13175467Y-14202888D01*
X13175467Y-14202888D02*
X13165943Y-14164793D01*
X13165943Y-14164793D02*
X13165943Y-14117174D01*
X13165943Y-14117174D02*
X13175467Y-14079079D01*
X13175467Y-14079079D02*
X13184991Y-14060031D01*
X13184991Y-14060031D02*
X13194515Y-14050508D01*
X13194515Y-14050508D02*
X13213562Y-14040984D01*
X13404039Y-14040984D02*
X13423086Y-14040984D01*
X13423086Y-14040984D02*
X13442134Y-14050508D01*
X13442134Y-14050508D02*
X13451658Y-14060031D01*
X13451658Y-14060031D02*
X13461182Y-14079079D01*
X13461182Y-14079079D02*
X13470705Y-14117174D01*
X13470705Y-14117174D02*
X13470705Y-14164793D01*
X13470705Y-14164793D02*
X13461182Y-14202888D01*
X13461182Y-14202888D02*
X13451658Y-14221936D01*
X13451658Y-14221936D02*
X13442134Y-14231460D01*
X13442134Y-14231460D02*
X13423086Y-14240984D01*
X13423086Y-14240984D02*
X13404039Y-14240984D01*
X13404039Y-14240984D02*
X13384991Y-14231460D01*
X13384991Y-14231460D02*
X13375467Y-14221936D01*
X13375467Y-14221936D02*
X13365943Y-14202888D01*
X13365943Y-14202888D02*
X13356420Y-14164793D01*
X13356420Y-14164793D02*
X13356420Y-14117174D01*
X13356420Y-14117174D02*
X13365943Y-14079079D01*
X13365943Y-14079079D02*
X13375467Y-14060031D01*
X13375467Y-14060031D02*
X13384991Y-14050508D01*
X13384991Y-14050508D02*
X13404039Y-14040984D01*
X13556420Y-14240984D02*
X13556420Y-14107650D01*
X13556420Y-14126698D02*
X13565943Y-14117174D01*
X13565943Y-14117174D02*
X13584991Y-14107650D01*
X13584991Y-14107650D02*
X13613563Y-14107650D01*
X13613563Y-14107650D02*
X13632610Y-14117174D01*
X13632610Y-14117174D02*
X13642134Y-14136222D01*
X13642134Y-14136222D02*
X13642134Y-14240984D01*
X13642134Y-14136222D02*
X13651658Y-14117174D01*
X13651658Y-14117174D02*
X13670705Y-14107650D01*
X13670705Y-14107650D02*
X13699277Y-14107650D01*
X13699277Y-14107650D02*
X13718324Y-14117174D01*
X13718324Y-14117174D02*
X13727848Y-14136222D01*
X13727848Y-14136222D02*
X13727848Y-14240984D01*
X13823086Y-14240984D02*
X13823086Y-14107650D01*
X13823086Y-14126698D02*
X13832610Y-14117174D01*
X13832610Y-14117174D02*
X13851658Y-14107650D01*
X13851658Y-14107650D02*
X13880229Y-14107650D01*
X13880229Y-14107650D02*
X13899277Y-14117174D01*
X13899277Y-14117174D02*
X13908801Y-14136222D01*
X13908801Y-14136222D02*
X13908801Y-14240984D01*
X13908801Y-14136222D02*
X13918324Y-14117174D01*
X13918324Y-14117174D02*
X13937372Y-14107650D01*
X13937372Y-14107650D02*
X13965943Y-14107650D01*
X13965943Y-14107650D02*
X13984991Y-14117174D01*
X13984991Y-14117174D02*
X13994515Y-14136222D01*
X13994515Y-14136222D02*
X13994515Y-14240984D01*
X14384991Y-14031460D02*
X14213563Y-14288603D01*
X14642134Y-14040984D02*
X14661182Y-14040984D01*
X14661182Y-14040984D02*
X14680229Y-14050508D01*
X14680229Y-14050508D02*
X14689753Y-14060031D01*
X14689753Y-14060031D02*
X14699277Y-14079079D01*
X14699277Y-14079079D02*
X14708801Y-14117174D01*
X14708801Y-14117174D02*
X14708801Y-14164793D01*
X14708801Y-14164793D02*
X14699277Y-14202888D01*
X14699277Y-14202888D02*
X14689753Y-14221936D01*
X14689753Y-14221936D02*
X14680229Y-14231460D01*
X14680229Y-14231460D02*
X14661182Y-14240984D01*
X14661182Y-14240984D02*
X14642134Y-14240984D01*
X14642134Y-14240984D02*
X14623086Y-14231460D01*
X14623086Y-14231460D02*
X14613563Y-14221936D01*
X14613563Y-14221936D02*
X14604039Y-14202888D01*
X14604039Y-14202888D02*
X14594515Y-14164793D01*
X14594515Y-14164793D02*
X14594515Y-14117174D01*
X14594515Y-14117174D02*
X14604039Y-14079079D01*
X14604039Y-14079079D02*
X14613563Y-14060031D01*
X14613563Y-14060031D02*
X14623086Y-14050508D01*
X14623086Y-14050508D02*
X14642134Y-14040984D01*
X14794515Y-14221936D02*
X14804039Y-14231460D01*
X14804039Y-14231460D02*
X14794515Y-14240984D01*
X14794515Y-14240984D02*
X14784991Y-14231460D01*
X14784991Y-14231460D02*
X14794515Y-14221936D01*
X14794515Y-14221936D02*
X14794515Y-14240984D01*
X14927848Y-14040984D02*
X14946896Y-14040984D01*
X14946896Y-14040984D02*
X14965944Y-14050508D01*
X14965944Y-14050508D02*
X14975467Y-14060031D01*
X14975467Y-14060031D02*
X14984991Y-14079079D01*
X14984991Y-14079079D02*
X14994515Y-14117174D01*
X14994515Y-14117174D02*
X14994515Y-14164793D01*
X14994515Y-14164793D02*
X14984991Y-14202888D01*
X14984991Y-14202888D02*
X14975467Y-14221936D01*
X14975467Y-14221936D02*
X14965944Y-14231460D01*
X14965944Y-14231460D02*
X14946896Y-14240984D01*
X14946896Y-14240984D02*
X14927848Y-14240984D01*
X14927848Y-14240984D02*
X14908801Y-14231460D01*
X14908801Y-14231460D02*
X14899277Y-14221936D01*
X14899277Y-14221936D02*
X14889753Y-14202888D01*
X14889753Y-14202888D02*
X14880229Y-14164793D01*
X14880229Y-14164793D02*
X14880229Y-14117174D01*
X14880229Y-14117174D02*
X14889753Y-14079079D01*
X14889753Y-14079079D02*
X14899277Y-14060031D01*
X14899277Y-14060031D02*
X14908801Y-14050508D01*
X14908801Y-14050508D02*
X14927848Y-14040984D01*
X15061182Y-14040984D02*
X15184991Y-14040984D01*
X15184991Y-14040984D02*
X15118325Y-14117174D01*
X15118325Y-14117174D02*
X15146896Y-14117174D01*
X15146896Y-14117174D02*
X15165944Y-14126698D01*
X15165944Y-14126698D02*
X15175467Y-14136222D01*
X15175467Y-14136222D02*
X15184991Y-14155269D01*
X15184991Y-14155269D02*
X15184991Y-14202888D01*
X15184991Y-14202888D02*
X15175467Y-14221936D01*
X15175467Y-14221936D02*
X15165944Y-14231460D01*
X15165944Y-14231460D02*
X15146896Y-14240984D01*
X15146896Y-14240984D02*
X15089753Y-14240984D01*
X15089753Y-14240984D02*
X15070706Y-14231460D01*
X15070706Y-14231460D02*
X15061182Y-14221936D01*
X15375467Y-14240984D02*
X15261182Y-14240984D01*
X15318325Y-14240984D02*
X15318325Y-14040984D01*
X15318325Y-14040984D02*
X15299277Y-14069555D01*
X15299277Y-14069555D02*
X15280229Y-14088603D01*
X15280229Y-14088603D02*
X15261182Y-14098127D01*
X15556420Y-14040984D02*
X15461182Y-14040984D01*
X15461182Y-14040984D02*
X15451658Y-14136222D01*
X15451658Y-14136222D02*
X15461182Y-14126698D01*
X15461182Y-14126698D02*
X15480229Y-14117174D01*
X15480229Y-14117174D02*
X15527848Y-14117174D01*
X15527848Y-14117174D02*
X15546896Y-14126698D01*
X15546896Y-14126698D02*
X15556420Y-14136222D01*
X15556420Y-14136222D02*
X15565944Y-14155269D01*
X15565944Y-14155269D02*
X15565944Y-14202888D01*
X15565944Y-14202888D02*
X15556420Y-14221936D01*
X15556420Y-14221936D02*
X15546896Y-14231460D01*
X15546896Y-14231460D02*
X15527848Y-14240984D01*
X15527848Y-14240984D02*
X15480229Y-14240984D01*
X15480229Y-14240984D02*
X15461182Y-14231460D01*
X15461182Y-14231460D02*
X15451658Y-14221936D01*
X15642134Y-14040984D02*
X15642134Y-14079079D01*
X15718325Y-14040984D02*
X15718325Y-14079079D01*
X16013563Y-14317174D02*
X16004039Y-14307650D01*
X16004039Y-14307650D02*
X15984991Y-14279079D01*
X15984991Y-14279079D02*
X15975468Y-14260031D01*
X15975468Y-14260031D02*
X15965944Y-14231460D01*
X15965944Y-14231460D02*
X15956420Y-14183841D01*
X15956420Y-14183841D02*
X15956420Y-14145746D01*
X15956420Y-14145746D02*
X15965944Y-14098127D01*
X15965944Y-14098127D02*
X15975468Y-14069555D01*
X15975468Y-14069555D02*
X15984991Y-14050508D01*
X15984991Y-14050508D02*
X16004039Y-14021936D01*
X16004039Y-14021936D02*
X16013563Y-14012412D01*
X16175468Y-14107650D02*
X16175468Y-14240984D01*
X16127848Y-14031460D02*
X16080229Y-14174317D01*
X16080229Y-14174317D02*
X16204039Y-14174317D01*
X16432610Y-14240984D02*
X16432610Y-14040984D01*
X16518325Y-14240984D02*
X16518325Y-14136222D01*
X16518325Y-14136222D02*
X16508801Y-14117174D01*
X16508801Y-14117174D02*
X16489753Y-14107650D01*
X16489753Y-14107650D02*
X16461182Y-14107650D01*
X16461182Y-14107650D02*
X16442134Y-14117174D01*
X16442134Y-14117174D02*
X16432610Y-14126698D01*
X16642134Y-14240984D02*
X16623087Y-14231460D01*
X16623087Y-14231460D02*
X16613563Y-14221936D01*
X16613563Y-14221936D02*
X16604039Y-14202888D01*
X16604039Y-14202888D02*
X16604039Y-14145746D01*
X16604039Y-14145746D02*
X16613563Y-14126698D01*
X16613563Y-14126698D02*
X16623087Y-14117174D01*
X16623087Y-14117174D02*
X16642134Y-14107650D01*
X16642134Y-14107650D02*
X16670706Y-14107650D01*
X16670706Y-14107650D02*
X16689753Y-14117174D01*
X16689753Y-14117174D02*
X16699277Y-14126698D01*
X16699277Y-14126698D02*
X16708801Y-14145746D01*
X16708801Y-14145746D02*
X16708801Y-14202888D01*
X16708801Y-14202888D02*
X16699277Y-14221936D01*
X16699277Y-14221936D02*
X16689753Y-14231460D01*
X16689753Y-14231460D02*
X16670706Y-14240984D01*
X16670706Y-14240984D02*
X16642134Y-14240984D01*
X16823087Y-14240984D02*
X16804039Y-14231460D01*
X16804039Y-14231460D02*
X16794515Y-14212412D01*
X16794515Y-14212412D02*
X16794515Y-14040984D01*
X16975468Y-14231460D02*
X16956420Y-14240984D01*
X16956420Y-14240984D02*
X16918325Y-14240984D01*
X16918325Y-14240984D02*
X16899277Y-14231460D01*
X16899277Y-14231460D02*
X16889753Y-14212412D01*
X16889753Y-14212412D02*
X16889753Y-14136222D01*
X16889753Y-14136222D02*
X16899277Y-14117174D01*
X16899277Y-14117174D02*
X16918325Y-14107650D01*
X16918325Y-14107650D02*
X16956420Y-14107650D01*
X16956420Y-14107650D02*
X16975468Y-14117174D01*
X16975468Y-14117174D02*
X16984992Y-14136222D01*
X16984992Y-14136222D02*
X16984992Y-14155269D01*
X16984992Y-14155269D02*
X16889753Y-14174317D01*
X17061182Y-14231460D02*
X17080230Y-14240984D01*
X17080230Y-14240984D02*
X17118325Y-14240984D01*
X17118325Y-14240984D02*
X17137373Y-14231460D01*
X17137373Y-14231460D02*
X17146896Y-14212412D01*
X17146896Y-14212412D02*
X17146896Y-14202888D01*
X17146896Y-14202888D02*
X17137373Y-14183841D01*
X17137373Y-14183841D02*
X17118325Y-14174317D01*
X17118325Y-14174317D02*
X17089753Y-14174317D01*
X17089753Y-14174317D02*
X17070706Y-14164793D01*
X17070706Y-14164793D02*
X17061182Y-14145746D01*
X17061182Y-14145746D02*
X17061182Y-14136222D01*
X17061182Y-14136222D02*
X17070706Y-14117174D01*
X17070706Y-14117174D02*
X17089753Y-14107650D01*
X17089753Y-14107650D02*
X17118325Y-14107650D01*
X17118325Y-14107650D02*
X17137373Y-14117174D01*
X17213563Y-14317174D02*
X17223087Y-14307650D01*
X17223087Y-14307650D02*
X17242134Y-14279079D01*
X17242134Y-14279079D02*
X17251658Y-14260031D01*
X17251658Y-14260031D02*
X17261182Y-14231460D01*
X17261182Y-14231460D02*
X17270706Y-14183841D01*
X17270706Y-14183841D02*
X17270706Y-14145746D01*
X17270706Y-14145746D02*
X17261182Y-14098127D01*
X17261182Y-14098127D02*
X17251658Y-14069555D01*
X17251658Y-14069555D02*
X17242134Y-14050508D01*
X17242134Y-14050508D02*
X17223087Y-14021936D01*
X17223087Y-14021936D02*
X17213563Y-14012412D01*
D12*
X12338500Y-14363500D02*
X12438500Y-14463500D01*
X12438500Y-14363500D02*
X12338500Y-14463500D01*
X12438500Y-14413500D02*
G75*
G02*
X12338500Y-14413500I-50000J0D01*
G01*
X12338500Y-14413500D02*
G75*
G02*
X12438500Y-14413500I50000J0D01*
G01*
D11*
X12804039Y-14504984D02*
X12689753Y-14504984D01*
X12746896Y-14504984D02*
X12746896Y-14304984D01*
X12746896Y-14304984D02*
X12727848Y-14333555D01*
X12727848Y-14333555D02*
X12708801Y-14352603D01*
X12708801Y-14352603D02*
X12689753Y-14362127D01*
X12889753Y-14485936D02*
X12899277Y-14495460D01*
X12899277Y-14495460D02*
X12889753Y-14504984D01*
X12889753Y-14504984D02*
X12880229Y-14495460D01*
X12880229Y-14495460D02*
X12889753Y-14485936D01*
X12889753Y-14485936D02*
X12889753Y-14504984D01*
X13023086Y-14304984D02*
X13042134Y-14304984D01*
X13042134Y-14304984D02*
X13061182Y-14314508D01*
X13061182Y-14314508D02*
X13070705Y-14324031D01*
X13070705Y-14324031D02*
X13080229Y-14343079D01*
X13080229Y-14343079D02*
X13089753Y-14381174D01*
X13089753Y-14381174D02*
X13089753Y-14428793D01*
X13089753Y-14428793D02*
X13080229Y-14466888D01*
X13080229Y-14466888D02*
X13070705Y-14485936D01*
X13070705Y-14485936D02*
X13061182Y-14495460D01*
X13061182Y-14495460D02*
X13042134Y-14504984D01*
X13042134Y-14504984D02*
X13023086Y-14504984D01*
X13023086Y-14504984D02*
X13004039Y-14495460D01*
X13004039Y-14495460D02*
X12994515Y-14485936D01*
X12994515Y-14485936D02*
X12984991Y-14466888D01*
X12984991Y-14466888D02*
X12975467Y-14428793D01*
X12975467Y-14428793D02*
X12975467Y-14381174D01*
X12975467Y-14381174D02*
X12984991Y-14343079D01*
X12984991Y-14343079D02*
X12994515Y-14324031D01*
X12994515Y-14324031D02*
X13004039Y-14314508D01*
X13004039Y-14314508D02*
X13023086Y-14304984D01*
X13213562Y-14304984D02*
X13232610Y-14304984D01*
X13232610Y-14304984D02*
X13251658Y-14314508D01*
X13251658Y-14314508D02*
X13261182Y-14324031D01*
X13261182Y-14324031D02*
X13270705Y-14343079D01*
X13270705Y-14343079D02*
X13280229Y-14381174D01*
X13280229Y-14381174D02*
X13280229Y-14428793D01*
X13280229Y-14428793D02*
X13270705Y-14466888D01*
X13270705Y-14466888D02*
X13261182Y-14485936D01*
X13261182Y-14485936D02*
X13251658Y-14495460D01*
X13251658Y-14495460D02*
X13232610Y-14504984D01*
X13232610Y-14504984D02*
X13213562Y-14504984D01*
X13213562Y-14504984D02*
X13194515Y-14495460D01*
X13194515Y-14495460D02*
X13184991Y-14485936D01*
X13184991Y-14485936D02*
X13175467Y-14466888D01*
X13175467Y-14466888D02*
X13165943Y-14428793D01*
X13165943Y-14428793D02*
X13165943Y-14381174D01*
X13165943Y-14381174D02*
X13175467Y-14343079D01*
X13175467Y-14343079D02*
X13184991Y-14324031D01*
X13184991Y-14324031D02*
X13194515Y-14314508D01*
X13194515Y-14314508D02*
X13213562Y-14304984D01*
X13404039Y-14304984D02*
X13423086Y-14304984D01*
X13423086Y-14304984D02*
X13442134Y-14314508D01*
X13442134Y-14314508D02*
X13451658Y-14324031D01*
X13451658Y-14324031D02*
X13461182Y-14343079D01*
X13461182Y-14343079D02*
X13470705Y-14381174D01*
X13470705Y-14381174D02*
X13470705Y-14428793D01*
X13470705Y-14428793D02*
X13461182Y-14466888D01*
X13461182Y-14466888D02*
X13451658Y-14485936D01*
X13451658Y-14485936D02*
X13442134Y-14495460D01*
X13442134Y-14495460D02*
X13423086Y-14504984D01*
X13423086Y-14504984D02*
X13404039Y-14504984D01*
X13404039Y-14504984D02*
X13384991Y-14495460D01*
X13384991Y-14495460D02*
X13375467Y-14485936D01*
X13375467Y-14485936D02*
X13365943Y-14466888D01*
X13365943Y-14466888D02*
X13356420Y-14428793D01*
X13356420Y-14428793D02*
X13356420Y-14381174D01*
X13356420Y-14381174D02*
X13365943Y-14343079D01*
X13365943Y-14343079D02*
X13375467Y-14324031D01*
X13375467Y-14324031D02*
X13384991Y-14314508D01*
X13384991Y-14314508D02*
X13404039Y-14304984D01*
X13556420Y-14504984D02*
X13556420Y-14371650D01*
X13556420Y-14390698D02*
X13565943Y-14381174D01*
X13565943Y-14381174D02*
X13584991Y-14371650D01*
X13584991Y-14371650D02*
X13613563Y-14371650D01*
X13613563Y-14371650D02*
X13632610Y-14381174D01*
X13632610Y-14381174D02*
X13642134Y-14400222D01*
X13642134Y-14400222D02*
X13642134Y-14504984D01*
X13642134Y-14400222D02*
X13651658Y-14381174D01*
X13651658Y-14381174D02*
X13670705Y-14371650D01*
X13670705Y-14371650D02*
X13699277Y-14371650D01*
X13699277Y-14371650D02*
X13718324Y-14381174D01*
X13718324Y-14381174D02*
X13727848Y-14400222D01*
X13727848Y-14400222D02*
X13727848Y-14504984D01*
X13823086Y-14504984D02*
X13823086Y-14371650D01*
X13823086Y-14390698D02*
X13832610Y-14381174D01*
X13832610Y-14381174D02*
X13851658Y-14371650D01*
X13851658Y-14371650D02*
X13880229Y-14371650D01*
X13880229Y-14371650D02*
X13899277Y-14381174D01*
X13899277Y-14381174D02*
X13908801Y-14400222D01*
X13908801Y-14400222D02*
X13908801Y-14504984D01*
X13908801Y-14400222D02*
X13918324Y-14381174D01*
X13918324Y-14381174D02*
X13937372Y-14371650D01*
X13937372Y-14371650D02*
X13965943Y-14371650D01*
X13965943Y-14371650D02*
X13984991Y-14381174D01*
X13984991Y-14381174D02*
X13994515Y-14400222D01*
X13994515Y-14400222D02*
X13994515Y-14504984D01*
X14384991Y-14295460D02*
X14213563Y-14552603D01*
X14642134Y-14304984D02*
X14661182Y-14304984D01*
X14661182Y-14304984D02*
X14680229Y-14314508D01*
X14680229Y-14314508D02*
X14689753Y-14324031D01*
X14689753Y-14324031D02*
X14699277Y-14343079D01*
X14699277Y-14343079D02*
X14708801Y-14381174D01*
X14708801Y-14381174D02*
X14708801Y-14428793D01*
X14708801Y-14428793D02*
X14699277Y-14466888D01*
X14699277Y-14466888D02*
X14689753Y-14485936D01*
X14689753Y-14485936D02*
X14680229Y-14495460D01*
X14680229Y-14495460D02*
X14661182Y-14504984D01*
X14661182Y-14504984D02*
X14642134Y-14504984D01*
X14642134Y-14504984D02*
X14623086Y-14495460D01*
X14623086Y-14495460D02*
X14613563Y-14485936D01*
X14613563Y-14485936D02*
X14604039Y-14466888D01*
X14604039Y-14466888D02*
X14594515Y-14428793D01*
X14594515Y-14428793D02*
X14594515Y-14381174D01*
X14594515Y-14381174D02*
X14604039Y-14343079D01*
X14604039Y-14343079D02*
X14613563Y-14324031D01*
X14613563Y-14324031D02*
X14623086Y-14314508D01*
X14623086Y-14314508D02*
X14642134Y-14304984D01*
X14794515Y-14485936D02*
X14804039Y-14495460D01*
X14804039Y-14495460D02*
X14794515Y-14504984D01*
X14794515Y-14504984D02*
X14784991Y-14495460D01*
X14784991Y-14495460D02*
X14794515Y-14485936D01*
X14794515Y-14485936D02*
X14794515Y-14504984D01*
X14927848Y-14304984D02*
X14946896Y-14304984D01*
X14946896Y-14304984D02*
X14965944Y-14314508D01*
X14965944Y-14314508D02*
X14975467Y-14324031D01*
X14975467Y-14324031D02*
X14984991Y-14343079D01*
X14984991Y-14343079D02*
X14994515Y-14381174D01*
X14994515Y-14381174D02*
X14994515Y-14428793D01*
X14994515Y-14428793D02*
X14984991Y-14466888D01*
X14984991Y-14466888D02*
X14975467Y-14485936D01*
X14975467Y-14485936D02*
X14965944Y-14495460D01*
X14965944Y-14495460D02*
X14946896Y-14504984D01*
X14946896Y-14504984D02*
X14927848Y-14504984D01*
X14927848Y-14504984D02*
X14908801Y-14495460D01*
X14908801Y-14495460D02*
X14899277Y-14485936D01*
X14899277Y-14485936D02*
X14889753Y-14466888D01*
X14889753Y-14466888D02*
X14880229Y-14428793D01*
X14880229Y-14428793D02*
X14880229Y-14381174D01*
X14880229Y-14381174D02*
X14889753Y-14343079D01*
X14889753Y-14343079D02*
X14899277Y-14324031D01*
X14899277Y-14324031D02*
X14908801Y-14314508D01*
X14908801Y-14314508D02*
X14927848Y-14304984D01*
X15061182Y-14304984D02*
X15184991Y-14304984D01*
X15184991Y-14304984D02*
X15118325Y-14381174D01*
X15118325Y-14381174D02*
X15146896Y-14381174D01*
X15146896Y-14381174D02*
X15165944Y-14390698D01*
X15165944Y-14390698D02*
X15175467Y-14400222D01*
X15175467Y-14400222D02*
X15184991Y-14419269D01*
X15184991Y-14419269D02*
X15184991Y-14466888D01*
X15184991Y-14466888D02*
X15175467Y-14485936D01*
X15175467Y-14485936D02*
X15165944Y-14495460D01*
X15165944Y-14495460D02*
X15146896Y-14504984D01*
X15146896Y-14504984D02*
X15089753Y-14504984D01*
X15089753Y-14504984D02*
X15070706Y-14495460D01*
X15070706Y-14495460D02*
X15061182Y-14485936D01*
X15280229Y-14504984D02*
X15318325Y-14504984D01*
X15318325Y-14504984D02*
X15337372Y-14495460D01*
X15337372Y-14495460D02*
X15346896Y-14485936D01*
X15346896Y-14485936D02*
X15365944Y-14457365D01*
X15365944Y-14457365D02*
X15375467Y-14419269D01*
X15375467Y-14419269D02*
X15375467Y-14343079D01*
X15375467Y-14343079D02*
X15365944Y-14324031D01*
X15365944Y-14324031D02*
X15356420Y-14314508D01*
X15356420Y-14314508D02*
X15337372Y-14304984D01*
X15337372Y-14304984D02*
X15299277Y-14304984D01*
X15299277Y-14304984D02*
X15280229Y-14314508D01*
X15280229Y-14314508D02*
X15270706Y-14324031D01*
X15270706Y-14324031D02*
X15261182Y-14343079D01*
X15261182Y-14343079D02*
X15261182Y-14390698D01*
X15261182Y-14390698D02*
X15270706Y-14409746D01*
X15270706Y-14409746D02*
X15280229Y-14419269D01*
X15280229Y-14419269D02*
X15299277Y-14428793D01*
X15299277Y-14428793D02*
X15337372Y-14428793D01*
X15337372Y-14428793D02*
X15356420Y-14419269D01*
X15356420Y-14419269D02*
X15365944Y-14409746D01*
X15365944Y-14409746D02*
X15375467Y-14390698D01*
X15546896Y-14371650D02*
X15546896Y-14504984D01*
X15499277Y-14295460D02*
X15451658Y-14438317D01*
X15451658Y-14438317D02*
X15575467Y-14438317D01*
X15642134Y-14304984D02*
X15642134Y-14343079D01*
X15718325Y-14304984D02*
X15718325Y-14343079D01*
X16013563Y-14581174D02*
X16004039Y-14571650D01*
X16004039Y-14571650D02*
X15984991Y-14543079D01*
X15984991Y-14543079D02*
X15975468Y-14524031D01*
X15975468Y-14524031D02*
X15965944Y-14495460D01*
X15965944Y-14495460D02*
X15956420Y-14447841D01*
X15956420Y-14447841D02*
X15956420Y-14409746D01*
X15956420Y-14409746D02*
X15965944Y-14362127D01*
X15965944Y-14362127D02*
X15975468Y-14333555D01*
X15975468Y-14333555D02*
X15984991Y-14314508D01*
X15984991Y-14314508D02*
X16004039Y-14285936D01*
X16004039Y-14285936D02*
X16013563Y-14276412D01*
X16099277Y-14504984D02*
X16137372Y-14504984D01*
X16137372Y-14504984D02*
X16156420Y-14495460D01*
X16156420Y-14495460D02*
X16165944Y-14485936D01*
X16165944Y-14485936D02*
X16184991Y-14457365D01*
X16184991Y-14457365D02*
X16194515Y-14419269D01*
X16194515Y-14419269D02*
X16194515Y-14343079D01*
X16194515Y-14343079D02*
X16184991Y-14324031D01*
X16184991Y-14324031D02*
X16175468Y-14314508D01*
X16175468Y-14314508D02*
X16156420Y-14304984D01*
X16156420Y-14304984D02*
X16118325Y-14304984D01*
X16118325Y-14304984D02*
X16099277Y-14314508D01*
X16099277Y-14314508D02*
X16089753Y-14324031D01*
X16089753Y-14324031D02*
X16080229Y-14343079D01*
X16080229Y-14343079D02*
X16080229Y-14390698D01*
X16080229Y-14390698D02*
X16089753Y-14409746D01*
X16089753Y-14409746D02*
X16099277Y-14419269D01*
X16099277Y-14419269D02*
X16118325Y-14428793D01*
X16118325Y-14428793D02*
X16156420Y-14428793D01*
X16156420Y-14428793D02*
X16175468Y-14419269D01*
X16175468Y-14419269D02*
X16184991Y-14409746D01*
X16184991Y-14409746D02*
X16194515Y-14390698D01*
X16375468Y-14304984D02*
X16280229Y-14304984D01*
X16280229Y-14304984D02*
X16270706Y-14400222D01*
X16270706Y-14400222D02*
X16280229Y-14390698D01*
X16280229Y-14390698D02*
X16299277Y-14381174D01*
X16299277Y-14381174D02*
X16346896Y-14381174D01*
X16346896Y-14381174D02*
X16365944Y-14390698D01*
X16365944Y-14390698D02*
X16375468Y-14400222D01*
X16375468Y-14400222D02*
X16384991Y-14419269D01*
X16384991Y-14419269D02*
X16384991Y-14466888D01*
X16384991Y-14466888D02*
X16375468Y-14485936D01*
X16375468Y-14485936D02*
X16365944Y-14495460D01*
X16365944Y-14495460D02*
X16346896Y-14504984D01*
X16346896Y-14504984D02*
X16299277Y-14504984D01*
X16299277Y-14504984D02*
X16280229Y-14495460D01*
X16280229Y-14495460D02*
X16270706Y-14485936D01*
X16623087Y-14504984D02*
X16623087Y-14304984D01*
X16708801Y-14504984D02*
X16708801Y-14400222D01*
X16708801Y-14400222D02*
X16699277Y-14381174D01*
X16699277Y-14381174D02*
X16680230Y-14371650D01*
X16680230Y-14371650D02*
X16651658Y-14371650D01*
X16651658Y-14371650D02*
X16632610Y-14381174D01*
X16632610Y-14381174D02*
X16623087Y-14390698D01*
X16832611Y-14504984D02*
X16813563Y-14495460D01*
X16813563Y-14495460D02*
X16804039Y-14485936D01*
X16804039Y-14485936D02*
X16794515Y-14466888D01*
X16794515Y-14466888D02*
X16794515Y-14409746D01*
X16794515Y-14409746D02*
X16804039Y-14390698D01*
X16804039Y-14390698D02*
X16813563Y-14381174D01*
X16813563Y-14381174D02*
X16832611Y-14371650D01*
X16832611Y-14371650D02*
X16861182Y-14371650D01*
X16861182Y-14371650D02*
X16880230Y-14381174D01*
X16880230Y-14381174D02*
X16889753Y-14390698D01*
X16889753Y-14390698D02*
X16899277Y-14409746D01*
X16899277Y-14409746D02*
X16899277Y-14466888D01*
X16899277Y-14466888D02*
X16889753Y-14485936D01*
X16889753Y-14485936D02*
X16880230Y-14495460D01*
X16880230Y-14495460D02*
X16861182Y-14504984D01*
X16861182Y-14504984D02*
X16832611Y-14504984D01*
X17013563Y-14504984D02*
X16994515Y-14495460D01*
X16994515Y-14495460D02*
X16984992Y-14476412D01*
X16984992Y-14476412D02*
X16984992Y-14304984D01*
X17165944Y-14495460D02*
X17146896Y-14504984D01*
X17146896Y-14504984D02*
X17108801Y-14504984D01*
X17108801Y-14504984D02*
X17089753Y-14495460D01*
X17089753Y-14495460D02*
X17080230Y-14476412D01*
X17080230Y-14476412D02*
X17080230Y-14400222D01*
X17080230Y-14400222D02*
X17089753Y-14381174D01*
X17089753Y-14381174D02*
X17108801Y-14371650D01*
X17108801Y-14371650D02*
X17146896Y-14371650D01*
X17146896Y-14371650D02*
X17165944Y-14381174D01*
X17165944Y-14381174D02*
X17175468Y-14400222D01*
X17175468Y-14400222D02*
X17175468Y-14419269D01*
X17175468Y-14419269D02*
X17080230Y-14438317D01*
X17251658Y-14495460D02*
X17270706Y-14504984D01*
X17270706Y-14504984D02*
X17308801Y-14504984D01*
X17308801Y-14504984D02*
X17327849Y-14495460D01*
X17327849Y-14495460D02*
X17337373Y-14476412D01*
X17337373Y-14476412D02*
X17337373Y-14466888D01*
X17337373Y-14466888D02*
X17327849Y-14447841D01*
X17327849Y-14447841D02*
X17308801Y-14438317D01*
X17308801Y-14438317D02*
X17280230Y-14438317D01*
X17280230Y-14438317D02*
X17261182Y-14428793D01*
X17261182Y-14428793D02*
X17251658Y-14409746D01*
X17251658Y-14409746D02*
X17251658Y-14400222D01*
X17251658Y-14400222D02*
X17261182Y-14381174D01*
X17261182Y-14381174D02*
X17280230Y-14371650D01*
X17280230Y-14371650D02*
X17308801Y-14371650D01*
X17308801Y-14371650D02*
X17327849Y-14381174D01*
X17404039Y-14581174D02*
X17413563Y-14571650D01*
X17413563Y-14571650D02*
X17432611Y-14543079D01*
X17432611Y-14543079D02*
X17442134Y-14524031D01*
X17442134Y-14524031D02*
X17451658Y-14495460D01*
X17451658Y-14495460D02*
X17461182Y-14447841D01*
X17461182Y-14447841D02*
X17461182Y-14409746D01*
X17461182Y-14409746D02*
X17451658Y-14362127D01*
X17451658Y-14362127D02*
X17442134Y-14333555D01*
X17442134Y-14333555D02*
X17432611Y-14314508D01*
X17432611Y-14314508D02*
X17413563Y-14285936D01*
X17413563Y-14285936D02*
X17404039Y-14276412D01*
D13*
X12318500Y-14617500D02*
X12438500Y-14737500D01*
X12438500Y-14617500D02*
X12318500Y-14737500D01*
X12378500Y-14617500D02*
X12378500Y-14737500D01*
X12318500Y-14677500D02*
X12438500Y-14677500D01*
D11*
X12804039Y-14768984D02*
X12689753Y-14768984D01*
X12746896Y-14768984D02*
X12746896Y-14568984D01*
X12746896Y-14568984D02*
X12727848Y-14597555D01*
X12727848Y-14597555D02*
X12708801Y-14616603D01*
X12708801Y-14616603D02*
X12689753Y-14626127D01*
X12889753Y-14749936D02*
X12899277Y-14759460D01*
X12899277Y-14759460D02*
X12889753Y-14768984D01*
X12889753Y-14768984D02*
X12880229Y-14759460D01*
X12880229Y-14759460D02*
X12889753Y-14749936D01*
X12889753Y-14749936D02*
X12889753Y-14768984D01*
X12975467Y-14588031D02*
X12984991Y-14578508D01*
X12984991Y-14578508D02*
X13004039Y-14568984D01*
X13004039Y-14568984D02*
X13051658Y-14568984D01*
X13051658Y-14568984D02*
X13070705Y-14578508D01*
X13070705Y-14578508D02*
X13080229Y-14588031D01*
X13080229Y-14588031D02*
X13089753Y-14607079D01*
X13089753Y-14607079D02*
X13089753Y-14626127D01*
X13089753Y-14626127D02*
X13080229Y-14654698D01*
X13080229Y-14654698D02*
X12965943Y-14768984D01*
X12965943Y-14768984D02*
X13089753Y-14768984D01*
X13213562Y-14568984D02*
X13232610Y-14568984D01*
X13232610Y-14568984D02*
X13251658Y-14578508D01*
X13251658Y-14578508D02*
X13261182Y-14588031D01*
X13261182Y-14588031D02*
X13270705Y-14607079D01*
X13270705Y-14607079D02*
X13280229Y-14645174D01*
X13280229Y-14645174D02*
X13280229Y-14692793D01*
X13280229Y-14692793D02*
X13270705Y-14730888D01*
X13270705Y-14730888D02*
X13261182Y-14749936D01*
X13261182Y-14749936D02*
X13251658Y-14759460D01*
X13251658Y-14759460D02*
X13232610Y-14768984D01*
X13232610Y-14768984D02*
X13213562Y-14768984D01*
X13213562Y-14768984D02*
X13194515Y-14759460D01*
X13194515Y-14759460D02*
X13184991Y-14749936D01*
X13184991Y-14749936D02*
X13175467Y-14730888D01*
X13175467Y-14730888D02*
X13165943Y-14692793D01*
X13165943Y-14692793D02*
X13165943Y-14645174D01*
X13165943Y-14645174D02*
X13175467Y-14607079D01*
X13175467Y-14607079D02*
X13184991Y-14588031D01*
X13184991Y-14588031D02*
X13194515Y-14578508D01*
X13194515Y-14578508D02*
X13213562Y-14568984D01*
X13404039Y-14568984D02*
X13423086Y-14568984D01*
X13423086Y-14568984D02*
X13442134Y-14578508D01*
X13442134Y-14578508D02*
X13451658Y-14588031D01*
X13451658Y-14588031D02*
X13461182Y-14607079D01*
X13461182Y-14607079D02*
X13470705Y-14645174D01*
X13470705Y-14645174D02*
X13470705Y-14692793D01*
X13470705Y-14692793D02*
X13461182Y-14730888D01*
X13461182Y-14730888D02*
X13451658Y-14749936D01*
X13451658Y-14749936D02*
X13442134Y-14759460D01*
X13442134Y-14759460D02*
X13423086Y-14768984D01*
X13423086Y-14768984D02*
X13404039Y-14768984D01*
X13404039Y-14768984D02*
X13384991Y-14759460D01*
X13384991Y-14759460D02*
X13375467Y-14749936D01*
X13375467Y-14749936D02*
X13365943Y-14730888D01*
X13365943Y-14730888D02*
X13356420Y-14692793D01*
X13356420Y-14692793D02*
X13356420Y-14645174D01*
X13356420Y-14645174D02*
X13365943Y-14607079D01*
X13365943Y-14607079D02*
X13375467Y-14588031D01*
X13375467Y-14588031D02*
X13384991Y-14578508D01*
X13384991Y-14578508D02*
X13404039Y-14568984D01*
X13556420Y-14768984D02*
X13556420Y-14635650D01*
X13556420Y-14654698D02*
X13565943Y-14645174D01*
X13565943Y-14645174D02*
X13584991Y-14635650D01*
X13584991Y-14635650D02*
X13613563Y-14635650D01*
X13613563Y-14635650D02*
X13632610Y-14645174D01*
X13632610Y-14645174D02*
X13642134Y-14664222D01*
X13642134Y-14664222D02*
X13642134Y-14768984D01*
X13642134Y-14664222D02*
X13651658Y-14645174D01*
X13651658Y-14645174D02*
X13670705Y-14635650D01*
X13670705Y-14635650D02*
X13699277Y-14635650D01*
X13699277Y-14635650D02*
X13718324Y-14645174D01*
X13718324Y-14645174D02*
X13727848Y-14664222D01*
X13727848Y-14664222D02*
X13727848Y-14768984D01*
X13823086Y-14768984D02*
X13823086Y-14635650D01*
X13823086Y-14654698D02*
X13832610Y-14645174D01*
X13832610Y-14645174D02*
X13851658Y-14635650D01*
X13851658Y-14635650D02*
X13880229Y-14635650D01*
X13880229Y-14635650D02*
X13899277Y-14645174D01*
X13899277Y-14645174D02*
X13908801Y-14664222D01*
X13908801Y-14664222D02*
X13908801Y-14768984D01*
X13908801Y-14664222D02*
X13918324Y-14645174D01*
X13918324Y-14645174D02*
X13937372Y-14635650D01*
X13937372Y-14635650D02*
X13965943Y-14635650D01*
X13965943Y-14635650D02*
X13984991Y-14645174D01*
X13984991Y-14645174D02*
X13994515Y-14664222D01*
X13994515Y-14664222D02*
X13994515Y-14768984D01*
X14384991Y-14559460D02*
X14213563Y-14816603D01*
X14642134Y-14568984D02*
X14661182Y-14568984D01*
X14661182Y-14568984D02*
X14680229Y-14578508D01*
X14680229Y-14578508D02*
X14689753Y-14588031D01*
X14689753Y-14588031D02*
X14699277Y-14607079D01*
X14699277Y-14607079D02*
X14708801Y-14645174D01*
X14708801Y-14645174D02*
X14708801Y-14692793D01*
X14708801Y-14692793D02*
X14699277Y-14730888D01*
X14699277Y-14730888D02*
X14689753Y-14749936D01*
X14689753Y-14749936D02*
X14680229Y-14759460D01*
X14680229Y-14759460D02*
X14661182Y-14768984D01*
X14661182Y-14768984D02*
X14642134Y-14768984D01*
X14642134Y-14768984D02*
X14623086Y-14759460D01*
X14623086Y-14759460D02*
X14613563Y-14749936D01*
X14613563Y-14749936D02*
X14604039Y-14730888D01*
X14604039Y-14730888D02*
X14594515Y-14692793D01*
X14594515Y-14692793D02*
X14594515Y-14645174D01*
X14594515Y-14645174D02*
X14604039Y-14607079D01*
X14604039Y-14607079D02*
X14613563Y-14588031D01*
X14613563Y-14588031D02*
X14623086Y-14578508D01*
X14623086Y-14578508D02*
X14642134Y-14568984D01*
X14794515Y-14749936D02*
X14804039Y-14759460D01*
X14804039Y-14759460D02*
X14794515Y-14768984D01*
X14794515Y-14768984D02*
X14784991Y-14759460D01*
X14784991Y-14759460D02*
X14794515Y-14749936D01*
X14794515Y-14749936D02*
X14794515Y-14768984D01*
X14927848Y-14568984D02*
X14946896Y-14568984D01*
X14946896Y-14568984D02*
X14965944Y-14578508D01*
X14965944Y-14578508D02*
X14975467Y-14588031D01*
X14975467Y-14588031D02*
X14984991Y-14607079D01*
X14984991Y-14607079D02*
X14994515Y-14645174D01*
X14994515Y-14645174D02*
X14994515Y-14692793D01*
X14994515Y-14692793D02*
X14984991Y-14730888D01*
X14984991Y-14730888D02*
X14975467Y-14749936D01*
X14975467Y-14749936D02*
X14965944Y-14759460D01*
X14965944Y-14759460D02*
X14946896Y-14768984D01*
X14946896Y-14768984D02*
X14927848Y-14768984D01*
X14927848Y-14768984D02*
X14908801Y-14759460D01*
X14908801Y-14759460D02*
X14899277Y-14749936D01*
X14899277Y-14749936D02*
X14889753Y-14730888D01*
X14889753Y-14730888D02*
X14880229Y-14692793D01*
X14880229Y-14692793D02*
X14880229Y-14645174D01*
X14880229Y-14645174D02*
X14889753Y-14607079D01*
X14889753Y-14607079D02*
X14899277Y-14588031D01*
X14899277Y-14588031D02*
X14908801Y-14578508D01*
X14908801Y-14578508D02*
X14927848Y-14568984D01*
X15165944Y-14635650D02*
X15165944Y-14768984D01*
X15118325Y-14559460D02*
X15070706Y-14702317D01*
X15070706Y-14702317D02*
X15194515Y-14702317D01*
X15251658Y-14568984D02*
X15384991Y-14568984D01*
X15384991Y-14568984D02*
X15299277Y-14768984D01*
X15451658Y-14588031D02*
X15461182Y-14578508D01*
X15461182Y-14578508D02*
X15480229Y-14568984D01*
X15480229Y-14568984D02*
X15527848Y-14568984D01*
X15527848Y-14568984D02*
X15546896Y-14578508D01*
X15546896Y-14578508D02*
X15556420Y-14588031D01*
X15556420Y-14588031D02*
X15565944Y-14607079D01*
X15565944Y-14607079D02*
X15565944Y-14626127D01*
X15565944Y-14626127D02*
X15556420Y-14654698D01*
X15556420Y-14654698D02*
X15442134Y-14768984D01*
X15442134Y-14768984D02*
X15565944Y-14768984D01*
X15642134Y-14568984D02*
X15642134Y-14607079D01*
X15718325Y-14568984D02*
X15718325Y-14607079D01*
X16013563Y-14845174D02*
X16004039Y-14835650D01*
X16004039Y-14835650D02*
X15984991Y-14807079D01*
X15984991Y-14807079D02*
X15975468Y-14788031D01*
X15975468Y-14788031D02*
X15965944Y-14759460D01*
X15965944Y-14759460D02*
X15956420Y-14711841D01*
X15956420Y-14711841D02*
X15956420Y-14673746D01*
X15956420Y-14673746D02*
X15965944Y-14626127D01*
X15965944Y-14626127D02*
X15975468Y-14597555D01*
X15975468Y-14597555D02*
X15984991Y-14578508D01*
X15984991Y-14578508D02*
X16004039Y-14549936D01*
X16004039Y-14549936D02*
X16013563Y-14540412D01*
X16118325Y-14654698D02*
X16099277Y-14645174D01*
X16099277Y-14645174D02*
X16089753Y-14635650D01*
X16089753Y-14635650D02*
X16080229Y-14616603D01*
X16080229Y-14616603D02*
X16080229Y-14607079D01*
X16080229Y-14607079D02*
X16089753Y-14588031D01*
X16089753Y-14588031D02*
X16099277Y-14578508D01*
X16099277Y-14578508D02*
X16118325Y-14568984D01*
X16118325Y-14568984D02*
X16156420Y-14568984D01*
X16156420Y-14568984D02*
X16175468Y-14578508D01*
X16175468Y-14578508D02*
X16184991Y-14588031D01*
X16184991Y-14588031D02*
X16194515Y-14607079D01*
X16194515Y-14607079D02*
X16194515Y-14616603D01*
X16194515Y-14616603D02*
X16184991Y-14635650D01*
X16184991Y-14635650D02*
X16175468Y-14645174D01*
X16175468Y-14645174D02*
X16156420Y-14654698D01*
X16156420Y-14654698D02*
X16118325Y-14654698D01*
X16118325Y-14654698D02*
X16099277Y-14664222D01*
X16099277Y-14664222D02*
X16089753Y-14673746D01*
X16089753Y-14673746D02*
X16080229Y-14692793D01*
X16080229Y-14692793D02*
X16080229Y-14730888D01*
X16080229Y-14730888D02*
X16089753Y-14749936D01*
X16089753Y-14749936D02*
X16099277Y-14759460D01*
X16099277Y-14759460D02*
X16118325Y-14768984D01*
X16118325Y-14768984D02*
X16156420Y-14768984D01*
X16156420Y-14768984D02*
X16175468Y-14759460D01*
X16175468Y-14759460D02*
X16184991Y-14749936D01*
X16184991Y-14749936D02*
X16194515Y-14730888D01*
X16194515Y-14730888D02*
X16194515Y-14692793D01*
X16194515Y-14692793D02*
X16184991Y-14673746D01*
X16184991Y-14673746D02*
X16175468Y-14664222D01*
X16175468Y-14664222D02*
X16156420Y-14654698D01*
X16432610Y-14768984D02*
X16432610Y-14568984D01*
X16518325Y-14768984D02*
X16518325Y-14664222D01*
X16518325Y-14664222D02*
X16508801Y-14645174D01*
X16508801Y-14645174D02*
X16489753Y-14635650D01*
X16489753Y-14635650D02*
X16461182Y-14635650D01*
X16461182Y-14635650D02*
X16442134Y-14645174D01*
X16442134Y-14645174D02*
X16432610Y-14654698D01*
X16642134Y-14768984D02*
X16623087Y-14759460D01*
X16623087Y-14759460D02*
X16613563Y-14749936D01*
X16613563Y-14749936D02*
X16604039Y-14730888D01*
X16604039Y-14730888D02*
X16604039Y-14673746D01*
X16604039Y-14673746D02*
X16613563Y-14654698D01*
X16613563Y-14654698D02*
X16623087Y-14645174D01*
X16623087Y-14645174D02*
X16642134Y-14635650D01*
X16642134Y-14635650D02*
X16670706Y-14635650D01*
X16670706Y-14635650D02*
X16689753Y-14645174D01*
X16689753Y-14645174D02*
X16699277Y-14654698D01*
X16699277Y-14654698D02*
X16708801Y-14673746D01*
X16708801Y-14673746D02*
X16708801Y-14730888D01*
X16708801Y-14730888D02*
X16699277Y-14749936D01*
X16699277Y-14749936D02*
X16689753Y-14759460D01*
X16689753Y-14759460D02*
X16670706Y-14768984D01*
X16670706Y-14768984D02*
X16642134Y-14768984D01*
X16823087Y-14768984D02*
X16804039Y-14759460D01*
X16804039Y-14759460D02*
X16794515Y-14740412D01*
X16794515Y-14740412D02*
X16794515Y-14568984D01*
X16975468Y-14759460D02*
X16956420Y-14768984D01*
X16956420Y-14768984D02*
X16918325Y-14768984D01*
X16918325Y-14768984D02*
X16899277Y-14759460D01*
X16899277Y-14759460D02*
X16889753Y-14740412D01*
X16889753Y-14740412D02*
X16889753Y-14664222D01*
X16889753Y-14664222D02*
X16899277Y-14645174D01*
X16899277Y-14645174D02*
X16918325Y-14635650D01*
X16918325Y-14635650D02*
X16956420Y-14635650D01*
X16956420Y-14635650D02*
X16975468Y-14645174D01*
X16975468Y-14645174D02*
X16984992Y-14664222D01*
X16984992Y-14664222D02*
X16984992Y-14683269D01*
X16984992Y-14683269D02*
X16889753Y-14702317D01*
X17061182Y-14759460D02*
X17080230Y-14768984D01*
X17080230Y-14768984D02*
X17118325Y-14768984D01*
X17118325Y-14768984D02*
X17137373Y-14759460D01*
X17137373Y-14759460D02*
X17146896Y-14740412D01*
X17146896Y-14740412D02*
X17146896Y-14730888D01*
X17146896Y-14730888D02*
X17137373Y-14711841D01*
X17137373Y-14711841D02*
X17118325Y-14702317D01*
X17118325Y-14702317D02*
X17089753Y-14702317D01*
X17089753Y-14702317D02*
X17070706Y-14692793D01*
X17070706Y-14692793D02*
X17061182Y-14673746D01*
X17061182Y-14673746D02*
X17061182Y-14664222D01*
X17061182Y-14664222D02*
X17070706Y-14645174D01*
X17070706Y-14645174D02*
X17089753Y-14635650D01*
X17089753Y-14635650D02*
X17118325Y-14635650D01*
X17118325Y-14635650D02*
X17137373Y-14645174D01*
X17213563Y-14845174D02*
X17223087Y-14835650D01*
X17223087Y-14835650D02*
X17242134Y-14807079D01*
X17242134Y-14807079D02*
X17251658Y-14788031D01*
X17251658Y-14788031D02*
X17261182Y-14759460D01*
X17261182Y-14759460D02*
X17270706Y-14711841D01*
X17270706Y-14711841D02*
X17270706Y-14673746D01*
X17270706Y-14673746D02*
X17261182Y-14626127D01*
X17261182Y-14626127D02*
X17251658Y-14597555D01*
X17251658Y-14597555D02*
X17242134Y-14578508D01*
X17242134Y-14578508D02*
X17223087Y-14549936D01*
X17223087Y-14549936D02*
X17213563Y-14540412D01*
X12238500Y-14841500D02*
X12438500Y-15041500D01*
X12438500Y-14841500D02*
X12238500Y-15041500D01*
X12409211Y-15012211D02*
X12409211Y-14870789D01*
X12267789Y-14870789D01*
X12267789Y-15012211D01*
X12409211Y-15012211D01*
X12680229Y-14832984D02*
X12804039Y-14832984D01*
X12804039Y-14832984D02*
X12737372Y-14909174D01*
X12737372Y-14909174D02*
X12765943Y-14909174D01*
X12765943Y-14909174D02*
X12784991Y-14918698D01*
X12784991Y-14918698D02*
X12794515Y-14928222D01*
X12794515Y-14928222D02*
X12804039Y-14947269D01*
X12804039Y-14947269D02*
X12804039Y-14994888D01*
X12804039Y-14994888D02*
X12794515Y-15013936D01*
X12794515Y-15013936D02*
X12784991Y-15023460D01*
X12784991Y-15023460D02*
X12765943Y-15032984D01*
X12765943Y-15032984D02*
X12708801Y-15032984D01*
X12708801Y-15032984D02*
X12689753Y-15023460D01*
X12689753Y-15023460D02*
X12680229Y-15013936D01*
X12889753Y-15013936D02*
X12899277Y-15023460D01*
X12899277Y-15023460D02*
X12889753Y-15032984D01*
X12889753Y-15032984D02*
X12880229Y-15023460D01*
X12880229Y-15023460D02*
X12889753Y-15013936D01*
X12889753Y-15013936D02*
X12889753Y-15032984D01*
X12975467Y-14852031D02*
X12984991Y-14842508D01*
X12984991Y-14842508D02*
X13004039Y-14832984D01*
X13004039Y-14832984D02*
X13051658Y-14832984D01*
X13051658Y-14832984D02*
X13070705Y-14842508D01*
X13070705Y-14842508D02*
X13080229Y-14852031D01*
X13080229Y-14852031D02*
X13089753Y-14871079D01*
X13089753Y-14871079D02*
X13089753Y-14890127D01*
X13089753Y-14890127D02*
X13080229Y-14918698D01*
X13080229Y-14918698D02*
X12965943Y-15032984D01*
X12965943Y-15032984D02*
X13089753Y-15032984D01*
X13213562Y-14832984D02*
X13232610Y-14832984D01*
X13232610Y-14832984D02*
X13251658Y-14842508D01*
X13251658Y-14842508D02*
X13261182Y-14852031D01*
X13261182Y-14852031D02*
X13270705Y-14871079D01*
X13270705Y-14871079D02*
X13280229Y-14909174D01*
X13280229Y-14909174D02*
X13280229Y-14956793D01*
X13280229Y-14956793D02*
X13270705Y-14994888D01*
X13270705Y-14994888D02*
X13261182Y-15013936D01*
X13261182Y-15013936D02*
X13251658Y-15023460D01*
X13251658Y-15023460D02*
X13232610Y-15032984D01*
X13232610Y-15032984D02*
X13213562Y-15032984D01*
X13213562Y-15032984D02*
X13194515Y-15023460D01*
X13194515Y-15023460D02*
X13184991Y-15013936D01*
X13184991Y-15013936D02*
X13175467Y-14994888D01*
X13175467Y-14994888D02*
X13165943Y-14956793D01*
X13165943Y-14956793D02*
X13165943Y-14909174D01*
X13165943Y-14909174D02*
X13175467Y-14871079D01*
X13175467Y-14871079D02*
X13184991Y-14852031D01*
X13184991Y-14852031D02*
X13194515Y-14842508D01*
X13194515Y-14842508D02*
X13213562Y-14832984D01*
X13404039Y-14832984D02*
X13423086Y-14832984D01*
X13423086Y-14832984D02*
X13442134Y-14842508D01*
X13442134Y-14842508D02*
X13451658Y-14852031D01*
X13451658Y-14852031D02*
X13461182Y-14871079D01*
X13461182Y-14871079D02*
X13470705Y-14909174D01*
X13470705Y-14909174D02*
X13470705Y-14956793D01*
X13470705Y-14956793D02*
X13461182Y-14994888D01*
X13461182Y-14994888D02*
X13451658Y-15013936D01*
X13451658Y-15013936D02*
X13442134Y-15023460D01*
X13442134Y-15023460D02*
X13423086Y-15032984D01*
X13423086Y-15032984D02*
X13404039Y-15032984D01*
X13404039Y-15032984D02*
X13384991Y-15023460D01*
X13384991Y-15023460D02*
X13375467Y-15013936D01*
X13375467Y-15013936D02*
X13365943Y-14994888D01*
X13365943Y-14994888D02*
X13356420Y-14956793D01*
X13356420Y-14956793D02*
X13356420Y-14909174D01*
X13356420Y-14909174D02*
X13365943Y-14871079D01*
X13365943Y-14871079D02*
X13375467Y-14852031D01*
X13375467Y-14852031D02*
X13384991Y-14842508D01*
X13384991Y-14842508D02*
X13404039Y-14832984D01*
X13556420Y-15032984D02*
X13556420Y-14899650D01*
X13556420Y-14918698D02*
X13565943Y-14909174D01*
X13565943Y-14909174D02*
X13584991Y-14899650D01*
X13584991Y-14899650D02*
X13613563Y-14899650D01*
X13613563Y-14899650D02*
X13632610Y-14909174D01*
X13632610Y-14909174D02*
X13642134Y-14928222D01*
X13642134Y-14928222D02*
X13642134Y-15032984D01*
X13642134Y-14928222D02*
X13651658Y-14909174D01*
X13651658Y-14909174D02*
X13670705Y-14899650D01*
X13670705Y-14899650D02*
X13699277Y-14899650D01*
X13699277Y-14899650D02*
X13718324Y-14909174D01*
X13718324Y-14909174D02*
X13727848Y-14928222D01*
X13727848Y-14928222D02*
X13727848Y-15032984D01*
X13823086Y-15032984D02*
X13823086Y-14899650D01*
X13823086Y-14918698D02*
X13832610Y-14909174D01*
X13832610Y-14909174D02*
X13851658Y-14899650D01*
X13851658Y-14899650D02*
X13880229Y-14899650D01*
X13880229Y-14899650D02*
X13899277Y-14909174D01*
X13899277Y-14909174D02*
X13908801Y-14928222D01*
X13908801Y-14928222D02*
X13908801Y-15032984D01*
X13908801Y-14928222D02*
X13918324Y-14909174D01*
X13918324Y-14909174D02*
X13937372Y-14899650D01*
X13937372Y-14899650D02*
X13965943Y-14899650D01*
X13965943Y-14899650D02*
X13984991Y-14909174D01*
X13984991Y-14909174D02*
X13994515Y-14928222D01*
X13994515Y-14928222D02*
X13994515Y-15032984D01*
X14384991Y-14823460D02*
X14213563Y-15080603D01*
X14642134Y-14832984D02*
X14661182Y-14832984D01*
X14661182Y-14832984D02*
X14680229Y-14842508D01*
X14680229Y-14842508D02*
X14689753Y-14852031D01*
X14689753Y-14852031D02*
X14699277Y-14871079D01*
X14699277Y-14871079D02*
X14708801Y-14909174D01*
X14708801Y-14909174D02*
X14708801Y-14956793D01*
X14708801Y-14956793D02*
X14699277Y-14994888D01*
X14699277Y-14994888D02*
X14689753Y-15013936D01*
X14689753Y-15013936D02*
X14680229Y-15023460D01*
X14680229Y-15023460D02*
X14661182Y-15032984D01*
X14661182Y-15032984D02*
X14642134Y-15032984D01*
X14642134Y-15032984D02*
X14623086Y-15023460D01*
X14623086Y-15023460D02*
X14613563Y-15013936D01*
X14613563Y-15013936D02*
X14604039Y-14994888D01*
X14604039Y-14994888D02*
X14594515Y-14956793D01*
X14594515Y-14956793D02*
X14594515Y-14909174D01*
X14594515Y-14909174D02*
X14604039Y-14871079D01*
X14604039Y-14871079D02*
X14613563Y-14852031D01*
X14613563Y-14852031D02*
X14623086Y-14842508D01*
X14623086Y-14842508D02*
X14642134Y-14832984D01*
X14794515Y-15013936D02*
X14804039Y-15023460D01*
X14804039Y-15023460D02*
X14794515Y-15032984D01*
X14794515Y-15032984D02*
X14784991Y-15023460D01*
X14784991Y-15023460D02*
X14794515Y-15013936D01*
X14794515Y-15013936D02*
X14794515Y-15032984D01*
X14994515Y-15032984D02*
X14880229Y-15032984D01*
X14937372Y-15032984D02*
X14937372Y-14832984D01*
X14937372Y-14832984D02*
X14918325Y-14861555D01*
X14918325Y-14861555D02*
X14899277Y-14880603D01*
X14899277Y-14880603D02*
X14880229Y-14890127D01*
X15070706Y-14852031D02*
X15080229Y-14842508D01*
X15080229Y-14842508D02*
X15099277Y-14832984D01*
X15099277Y-14832984D02*
X15146896Y-14832984D01*
X15146896Y-14832984D02*
X15165944Y-14842508D01*
X15165944Y-14842508D02*
X15175467Y-14852031D01*
X15175467Y-14852031D02*
X15184991Y-14871079D01*
X15184991Y-14871079D02*
X15184991Y-14890127D01*
X15184991Y-14890127D02*
X15175467Y-14918698D01*
X15175467Y-14918698D02*
X15061182Y-15032984D01*
X15061182Y-15032984D02*
X15184991Y-15032984D01*
X15356420Y-14832984D02*
X15318325Y-14832984D01*
X15318325Y-14832984D02*
X15299277Y-14842508D01*
X15299277Y-14842508D02*
X15289753Y-14852031D01*
X15289753Y-14852031D02*
X15270706Y-14880603D01*
X15270706Y-14880603D02*
X15261182Y-14918698D01*
X15261182Y-14918698D02*
X15261182Y-14994888D01*
X15261182Y-14994888D02*
X15270706Y-15013936D01*
X15270706Y-15013936D02*
X15280229Y-15023460D01*
X15280229Y-15023460D02*
X15299277Y-15032984D01*
X15299277Y-15032984D02*
X15337372Y-15032984D01*
X15337372Y-15032984D02*
X15356420Y-15023460D01*
X15356420Y-15023460D02*
X15365944Y-15013936D01*
X15365944Y-15013936D02*
X15375467Y-14994888D01*
X15375467Y-14994888D02*
X15375467Y-14947269D01*
X15375467Y-14947269D02*
X15365944Y-14928222D01*
X15365944Y-14928222D02*
X15356420Y-14918698D01*
X15356420Y-14918698D02*
X15337372Y-14909174D01*
X15337372Y-14909174D02*
X15299277Y-14909174D01*
X15299277Y-14909174D02*
X15280229Y-14918698D01*
X15280229Y-14918698D02*
X15270706Y-14928222D01*
X15270706Y-14928222D02*
X15261182Y-14947269D01*
X15499277Y-14832984D02*
X15518325Y-14832984D01*
X15518325Y-14832984D02*
X15537372Y-14842508D01*
X15537372Y-14842508D02*
X15546896Y-14852031D01*
X15546896Y-14852031D02*
X15556420Y-14871079D01*
X15556420Y-14871079D02*
X15565944Y-14909174D01*
X15565944Y-14909174D02*
X15565944Y-14956793D01*
X15565944Y-14956793D02*
X15556420Y-14994888D01*
X15556420Y-14994888D02*
X15546896Y-15013936D01*
X15546896Y-15013936D02*
X15537372Y-15023460D01*
X15537372Y-15023460D02*
X15518325Y-15032984D01*
X15518325Y-15032984D02*
X15499277Y-15032984D01*
X15499277Y-15032984D02*
X15480229Y-15023460D01*
X15480229Y-15023460D02*
X15470706Y-15013936D01*
X15470706Y-15013936D02*
X15461182Y-14994888D01*
X15461182Y-14994888D02*
X15451658Y-14956793D01*
X15451658Y-14956793D02*
X15451658Y-14909174D01*
X15451658Y-14909174D02*
X15461182Y-14871079D01*
X15461182Y-14871079D02*
X15470706Y-14852031D01*
X15470706Y-14852031D02*
X15480229Y-14842508D01*
X15480229Y-14842508D02*
X15499277Y-14832984D01*
X15642134Y-14832984D02*
X15642134Y-14871079D01*
X15718325Y-14832984D02*
X15718325Y-14871079D01*
X16013563Y-15109174D02*
X16004039Y-15099650D01*
X16004039Y-15099650D02*
X15984991Y-15071079D01*
X15984991Y-15071079D02*
X15975468Y-15052031D01*
X15975468Y-15052031D02*
X15965944Y-15023460D01*
X15965944Y-15023460D02*
X15956420Y-14975841D01*
X15956420Y-14975841D02*
X15956420Y-14937746D01*
X15956420Y-14937746D02*
X15965944Y-14890127D01*
X15965944Y-14890127D02*
X15975468Y-14861555D01*
X15975468Y-14861555D02*
X15984991Y-14842508D01*
X15984991Y-14842508D02*
X16004039Y-14813936D01*
X16004039Y-14813936D02*
X16013563Y-14804412D01*
X16175468Y-14899650D02*
X16175468Y-15032984D01*
X16127848Y-14823460D02*
X16080229Y-14966317D01*
X16080229Y-14966317D02*
X16204039Y-14966317D01*
X16432610Y-15032984D02*
X16432610Y-14832984D01*
X16518325Y-15032984D02*
X16518325Y-14928222D01*
X16518325Y-14928222D02*
X16508801Y-14909174D01*
X16508801Y-14909174D02*
X16489753Y-14899650D01*
X16489753Y-14899650D02*
X16461182Y-14899650D01*
X16461182Y-14899650D02*
X16442134Y-14909174D01*
X16442134Y-14909174D02*
X16432610Y-14918698D01*
X16642134Y-15032984D02*
X16623087Y-15023460D01*
X16623087Y-15023460D02*
X16613563Y-15013936D01*
X16613563Y-15013936D02*
X16604039Y-14994888D01*
X16604039Y-14994888D02*
X16604039Y-14937746D01*
X16604039Y-14937746D02*
X16613563Y-14918698D01*
X16613563Y-14918698D02*
X16623087Y-14909174D01*
X16623087Y-14909174D02*
X16642134Y-14899650D01*
X16642134Y-14899650D02*
X16670706Y-14899650D01*
X16670706Y-14899650D02*
X16689753Y-14909174D01*
X16689753Y-14909174D02*
X16699277Y-14918698D01*
X16699277Y-14918698D02*
X16708801Y-14937746D01*
X16708801Y-14937746D02*
X16708801Y-14994888D01*
X16708801Y-14994888D02*
X16699277Y-15013936D01*
X16699277Y-15013936D02*
X16689753Y-15023460D01*
X16689753Y-15023460D02*
X16670706Y-15032984D01*
X16670706Y-15032984D02*
X16642134Y-15032984D01*
X16823087Y-15032984D02*
X16804039Y-15023460D01*
X16804039Y-15023460D02*
X16794515Y-15004412D01*
X16794515Y-15004412D02*
X16794515Y-14832984D01*
X16975468Y-15023460D02*
X16956420Y-15032984D01*
X16956420Y-15032984D02*
X16918325Y-15032984D01*
X16918325Y-15032984D02*
X16899277Y-15023460D01*
X16899277Y-15023460D02*
X16889753Y-15004412D01*
X16889753Y-15004412D02*
X16889753Y-14928222D01*
X16889753Y-14928222D02*
X16899277Y-14909174D01*
X16899277Y-14909174D02*
X16918325Y-14899650D01*
X16918325Y-14899650D02*
X16956420Y-14899650D01*
X16956420Y-14899650D02*
X16975468Y-14909174D01*
X16975468Y-14909174D02*
X16984992Y-14928222D01*
X16984992Y-14928222D02*
X16984992Y-14947269D01*
X16984992Y-14947269D02*
X16889753Y-14966317D01*
X17061182Y-15023460D02*
X17080230Y-15032984D01*
X17080230Y-15032984D02*
X17118325Y-15032984D01*
X17118325Y-15032984D02*
X17137373Y-15023460D01*
X17137373Y-15023460D02*
X17146896Y-15004412D01*
X17146896Y-15004412D02*
X17146896Y-14994888D01*
X17146896Y-14994888D02*
X17137373Y-14975841D01*
X17137373Y-14975841D02*
X17118325Y-14966317D01*
X17118325Y-14966317D02*
X17089753Y-14966317D01*
X17089753Y-14966317D02*
X17070706Y-14956793D01*
X17070706Y-14956793D02*
X17061182Y-14937746D01*
X17061182Y-14937746D02*
X17061182Y-14928222D01*
X17061182Y-14928222D02*
X17070706Y-14909174D01*
X17070706Y-14909174D02*
X17089753Y-14899650D01*
X17089753Y-14899650D02*
X17118325Y-14899650D01*
X17118325Y-14899650D02*
X17137373Y-14909174D01*
X17213563Y-15109174D02*
X17223087Y-15099650D01*
X17223087Y-15099650D02*
X17242134Y-15071079D01*
X17242134Y-15071079D02*
X17251658Y-15052031D01*
X17251658Y-15052031D02*
X17261182Y-15023460D01*
X17261182Y-15023460D02*
X17270706Y-14975841D01*
X17270706Y-14975841D02*
X17270706Y-14937746D01*
X17270706Y-14937746D02*
X17261182Y-14890127D01*
X17261182Y-14890127D02*
X17251658Y-14861555D01*
X17251658Y-14861555D02*
X17242134Y-14842508D01*
X17242134Y-14842508D02*
X17223087Y-14813936D01*
X17223087Y-14813936D02*
X17213563Y-14804412D01*
M02*
