M48
; DRILL file {KiCad 8.0.3} date 2024-06-26T21:00:11-0700
; FORMAT={-:-/ absolute / metric / decimal}
; #@! TF.CreationDate,2024-06-26T21:00:11-07:00
; #@! TF.GenerationSoftware,Kicad,Pcbnew,8.0.3
; #@! TF.FileFunction,Plated,1,4,PTH
FMAT,2
METRIC
; #@! TA.AperFunction,Plated,PTH,ViaDrill
T1C0.400
; #@! TA.AperFunction,Plated,PTH,ComponentDrill
T2C0.500
; #@! TA.AperFunction,Plated,PTH,ComponentDrill
T3C0.770
; #@! TA.AperFunction,Plated,PTH,ComponentDrill
T4C0.780
; #@! TA.AperFunction,Plated,PTH,ComponentDrill
T5C0.800
; #@! TA.AperFunction,Plated,PTH,ComponentDrill
T6C1.000
; #@! TA.AperFunction,Plated,PTH,ComponentDrill
T7C1.200
; #@! TA.AperFunction,Plated,PTH,ComponentDrill
T8C3.200
%
G90
G05
T1
X127.122Y-101.6
X134.742Y-101.6
X139.7Y-101.6
X149.86Y-99.06
X153.638Y-96.487
X153.67Y-100.233
X154.94Y-101.6
X160.02Y-101.6
X163.735Y-101.502
X172.72Y-101.6
X174.55Y-86.546
X175.26Y-96.52
X175.26Y-109.22
X185.42Y-99.06
X187.96Y-83.82
X189.718Y-105.312
X190.688Y-86.548
X190.688Y-96.66
X191.639Y-100.608
X193.04Y-101.6
X193.04Y-106.68
X193.04Y-109.22
X195.58Y-86.36
X195.58Y-88.9
X195.58Y-93.98
X198.12Y-83.82
X198.12Y-86.36
X198.12Y-96.52
X198.12Y-99.06
T2
X127.983Y-79.583
X127.983Y-118.537
X128.686Y-77.886
X128.686Y-81.28
X128.686Y-116.84
X128.686Y-120.234
X130.383Y-77.183
X130.383Y-81.983
X130.383Y-116.137
X130.383Y-120.937
X132.08Y-77.886
X132.08Y-81.28
X132.08Y-116.84
X132.08Y-120.234
X132.783Y-79.583
X132.783Y-118.537
X202.497Y-79.583
X202.497Y-118.537
X203.2Y-77.886
X203.2Y-81.28
X203.2Y-116.84
X203.2Y-120.234
X204.897Y-77.183
X204.897Y-81.983
X204.897Y-116.137
X204.897Y-120.937
X206.594Y-77.886
X206.594Y-81.28
X206.594Y-116.84
X206.594Y-120.234
X207.297Y-79.583
X207.297Y-118.537
T3
X149.86Y-81.28
X149.86Y-83.82
X149.86Y-86.36
X149.86Y-88.9
X149.86Y-91.44
X149.86Y-93.98
X149.86Y-96.52
X157.8Y-81.28
X157.8Y-83.82
X157.8Y-86.36
X157.8Y-88.9
X157.8Y-91.44
X157.8Y-93.98
X157.8Y-96.52
T4
X185.42Y-78.74
X185.42Y-81.28
X185.42Y-83.82
X185.42Y-86.36
X185.42Y-88.9
X185.42Y-91.44
X185.42Y-93.98
X185.42Y-96.52
X193.36Y-78.74
X193.36Y-81.28
X193.36Y-83.82
X193.36Y-86.36
X193.36Y-88.9
X193.36Y-91.44
X193.36Y-93.98
X193.36Y-96.52
T5
X144.78Y-96.52
X146.78Y-96.52
X180.537Y-96.52
X182.537Y-96.52
T6
X127.07Y-109.195
X127.122Y-89.986
X129.61Y-109.195
X129.662Y-89.986
X132.15Y-109.195
X132.202Y-89.986
X134.69Y-109.195
X134.742Y-89.986
X142.24Y-104.14
X142.24Y-106.68
X142.24Y-116.84
X142.24Y-119.38
X144.78Y-104.14
X144.78Y-106.68
X144.78Y-116.84
X144.78Y-119.38
X147.32Y-104.14
X147.32Y-106.68
X147.32Y-116.84
X147.32Y-119.38
X149.86Y-104.14
X149.86Y-106.68
X149.86Y-116.84
X149.86Y-119.38
X152.4Y-104.14
X152.4Y-106.68
X152.4Y-116.84
X152.4Y-119.38
X154.94Y-104.14
X154.94Y-106.68
X154.94Y-116.84
X154.94Y-119.38
X157.48Y-104.14
X157.48Y-106.68
X157.48Y-116.84
X157.48Y-119.38
X160.02Y-104.14
X160.02Y-106.68
X160.02Y-116.84
X160.02Y-119.38
X162.56Y-104.14
X162.56Y-106.68
X162.56Y-116.84
X162.56Y-119.38
X165.1Y-104.14
X165.1Y-106.68
X165.1Y-116.84
X165.1Y-119.38
X167.64Y-104.14
X167.64Y-106.68
X167.64Y-116.84
X167.64Y-119.38
X170.18Y-104.14
X170.18Y-106.68
X170.18Y-116.84
X170.18Y-119.38
X172.72Y-104.14
X172.72Y-106.68
X172.72Y-116.84
X172.72Y-119.38
X175.26Y-104.14
X175.26Y-106.68
X175.26Y-116.84
X175.26Y-119.38
X177.8Y-104.14
X177.8Y-106.68
X177.8Y-116.84
X177.8Y-119.38
X180.34Y-104.14
X180.34Y-106.68
X180.34Y-116.84
X180.34Y-119.38
X182.88Y-104.14
X182.88Y-106.68
X182.88Y-116.84
X182.88Y-119.38
X200.66Y-88.9
X200.66Y-91.44
X200.66Y-93.98
X200.66Y-96.52
X200.66Y-99.06
X200.66Y-101.6
X200.66Y-104.14
X200.66Y-106.68
X200.66Y-109.22
X203.2Y-86.36
X203.2Y-88.9
X203.2Y-91.44
X203.2Y-93.98
X203.2Y-96.52
X203.2Y-99.06
X203.2Y-101.6
X203.2Y-104.14
X203.2Y-106.68
X203.2Y-109.22
T7
X162.56Y-83.82
X162.56Y-99.06
X168.971Y-83.834
X168.971Y-99.074
X175.26Y-83.82
X175.26Y-99.06
X189.128Y-100.43
X189.128Y-115.67
T8
X130.383Y-79.583
X130.383Y-118.537
X204.897Y-79.583
X204.897Y-118.537
M30
