%TF.GenerationSoftware,KiCad,Pcbnew,7.0.5-0*%
%TF.CreationDate,2023-06-05T22:26:43-07:00*%
%TF.ProjectId,PCTGotekAdapter,50435447-6f74-4656-9b41-646170746572,A*%
%TF.SameCoordinates,Original*%
%TF.FileFunction,Legend,Top*%
%TF.FilePolarity,Positive*%
%FSLAX46Y46*%
G04 Gerber Fmt 4.6, Leading zero omitted, Abs format (unit mm)*
G04 Created by KiCad (PCBNEW 7.0.5-0) date 2023-06-05 22:26:43*
%MOMM*%
%LPD*%
G01*
G04 APERTURE LIST*
G04 Aperture macros list*
%AMRoundRect*
0 Rectangle with rounded corners*
0 $1 Rounding radius*
0 $2 $3 $4 $5 $6 $7 $8 $9 X,Y pos of 4 corners*
0 Add a 4 corners polygon primitive as box body*
4,1,4,$2,$3,$4,$5,$6,$7,$8,$9,$2,$3,0*
0 Add four circle primitives for the rounded corners*
1,1,$1+$1,$2,$3*
1,1,$1+$1,$4,$5*
1,1,$1+$1,$6,$7*
1,1,$1+$1,$8,$9*
0 Add four rect primitives between the rounded corners*
20,1,$1+$1,$2,$3,$4,$5,0*
20,1,$1+$1,$4,$5,$6,$7,0*
20,1,$1+$1,$6,$7,$8,$9,0*
20,1,$1+$1,$8,$9,$2,$3,0*%
G04 Aperture macros list end*
%ADD10C,0.200000*%
%ADD11C,0.220000*%
%ADD12C,0.300000*%
%ADD13C,0.150000*%
%ADD14C,0.127000*%
%ADD15C,0.120000*%
%ADD16C,1.346000*%
%ADD17RoundRect,0.038000X0.635000X-0.635000X0.635000X0.635000X-0.635000X0.635000X-0.635000X-0.635000X0*%
%ADD18RoundRect,0.038000X-0.640000X0.640000X-0.640000X-0.640000X0.640000X-0.640000X0.640000X0.640000X0*%
%ADD19C,1.356000*%
%ADD20C,0.876000*%
%ADD21C,6.476000*%
%ADD22C,1.076000*%
%ADD23RoundRect,0.038000X-1.250000X-1.250000X1.250000X-1.250000X1.250000X1.250000X-1.250000X1.250000X0*%
%ADD24O,2.476000X2.476000*%
%ADD25C,2.476000*%
%ADD26O,1.776000X1.776000*%
%ADD27RoundRect,0.038000X0.850000X-0.850000X0.850000X0.850000X-0.850000X0.850000X-0.850000X-0.850000X0*%
%ADD28RoundRect,0.038000X-0.850000X0.850000X-0.850000X-0.850000X0.850000X-0.850000X0.850000X0.850000X0*%
%ADD29RoundRect,0.038000X0.800000X-0.800000X0.800000X0.800000X-0.800000X0.800000X-0.800000X-0.800000X0*%
%ADD30C,1.676000*%
G04 APERTURE END LIST*
D10*
X96884491Y-71440790D02*
X98312254Y-71440790D01*
X98312254Y-73582434D01*
X96884491Y-73582434D01*
X96884491Y-71440790D01*
X70530361Y-70905378D02*
X71958124Y-70905378D01*
X71958124Y-73047022D01*
X70530361Y-73047022D01*
X70530361Y-70905378D01*
D11*
X127587697Y-90702828D02*
X126873411Y-91202828D01*
X127587697Y-91559971D02*
X126087697Y-91559971D01*
X126087697Y-91559971D02*
X126087697Y-90988542D01*
X126087697Y-90988542D02*
X126159126Y-90845685D01*
X126159126Y-90845685D02*
X126230554Y-90774256D01*
X126230554Y-90774256D02*
X126373411Y-90702828D01*
X126373411Y-90702828D02*
X126587697Y-90702828D01*
X126587697Y-90702828D02*
X126730554Y-90774256D01*
X126730554Y-90774256D02*
X126801983Y-90845685D01*
X126801983Y-90845685D02*
X126873411Y-90988542D01*
X126873411Y-90988542D02*
X126873411Y-91559971D01*
X126801983Y-90059971D02*
X126801983Y-89559971D01*
X127587697Y-89345685D02*
X127587697Y-90059971D01*
X127587697Y-90059971D02*
X126087697Y-90059971D01*
X126087697Y-90059971D02*
X126087697Y-89345685D01*
X126087697Y-88917113D02*
X127587697Y-88417113D01*
X127587697Y-88417113D02*
X126087697Y-87917113D01*
X127159126Y-86345685D02*
X127159126Y-85631400D01*
X127587697Y-86488542D02*
X126087697Y-85988542D01*
X126087697Y-85988542D02*
X127587697Y-85488542D01*
X130002697Y-90845685D02*
X130002697Y-91559971D01*
X130002697Y-91559971D02*
X128502697Y-91559971D01*
X128502697Y-90059970D02*
X128502697Y-89774256D01*
X128502697Y-89774256D02*
X128574126Y-89631399D01*
X128574126Y-89631399D02*
X128716983Y-89488542D01*
X128716983Y-89488542D02*
X129002697Y-89417113D01*
X129002697Y-89417113D02*
X129502697Y-89417113D01*
X129502697Y-89417113D02*
X129788411Y-89488542D01*
X129788411Y-89488542D02*
X129931269Y-89631399D01*
X129931269Y-89631399D02*
X130002697Y-89774256D01*
X130002697Y-89774256D02*
X130002697Y-90059970D01*
X130002697Y-90059970D02*
X129931269Y-90202828D01*
X129931269Y-90202828D02*
X129788411Y-90345685D01*
X129788411Y-90345685D02*
X129502697Y-90417113D01*
X129502697Y-90417113D02*
X129002697Y-90417113D01*
X129002697Y-90417113D02*
X128716983Y-90345685D01*
X128716983Y-90345685D02*
X128574126Y-90202828D01*
X128574126Y-90202828D02*
X128502697Y-90059970D01*
X128502697Y-88988541D02*
X128502697Y-88131399D01*
X130002697Y-88559970D02*
X128502697Y-88559970D01*
X128502697Y-86059970D02*
X129574126Y-86059970D01*
X129574126Y-86059970D02*
X129788411Y-86131399D01*
X129788411Y-86131399D02*
X129931269Y-86274256D01*
X129931269Y-86274256D02*
X130002697Y-86488542D01*
X130002697Y-86488542D02*
X130002697Y-86631399D01*
X130002697Y-84631399D02*
X130002697Y-85345685D01*
X130002697Y-85345685D02*
X128502697Y-85345685D01*
X129859840Y-83274256D02*
X129931269Y-83345684D01*
X129931269Y-83345684D02*
X130002697Y-83559970D01*
X130002697Y-83559970D02*
X130002697Y-83702827D01*
X130002697Y-83702827D02*
X129931269Y-83917113D01*
X129931269Y-83917113D02*
X129788411Y-84059970D01*
X129788411Y-84059970D02*
X129645554Y-84131399D01*
X129645554Y-84131399D02*
X129359840Y-84202827D01*
X129359840Y-84202827D02*
X129145554Y-84202827D01*
X129145554Y-84202827D02*
X128859840Y-84131399D01*
X128859840Y-84131399D02*
X128716983Y-84059970D01*
X128716983Y-84059970D02*
X128574126Y-83917113D01*
X128574126Y-83917113D02*
X128502697Y-83702827D01*
X128502697Y-83702827D02*
X128502697Y-83559970D01*
X128502697Y-83559970D02*
X128574126Y-83345684D01*
X128574126Y-83345684D02*
X128645554Y-83274256D01*
X128502697Y-82202827D02*
X129574126Y-82202827D01*
X129574126Y-82202827D02*
X129788411Y-82274256D01*
X129788411Y-82274256D02*
X129931269Y-82417113D01*
X129931269Y-82417113D02*
X130002697Y-82631399D01*
X130002697Y-82631399D02*
X130002697Y-82774256D01*
X130002697Y-80774256D02*
X130002697Y-81488542D01*
X130002697Y-81488542D02*
X128502697Y-81488542D01*
X129859840Y-79417113D02*
X129931269Y-79488541D01*
X129931269Y-79488541D02*
X130002697Y-79702827D01*
X130002697Y-79702827D02*
X130002697Y-79845684D01*
X130002697Y-79845684D02*
X129931269Y-80059970D01*
X129931269Y-80059970D02*
X129788411Y-80202827D01*
X129788411Y-80202827D02*
X129645554Y-80274256D01*
X129645554Y-80274256D02*
X129359840Y-80345684D01*
X129359840Y-80345684D02*
X129145554Y-80345684D01*
X129145554Y-80345684D02*
X128859840Y-80274256D01*
X128859840Y-80274256D02*
X128716983Y-80202827D01*
X128716983Y-80202827D02*
X128574126Y-80059970D01*
X128574126Y-80059970D02*
X128502697Y-79845684D01*
X128502697Y-79845684D02*
X128502697Y-79702827D01*
X128502697Y-79702827D02*
X128574126Y-79488541D01*
X128574126Y-79488541D02*
X128645554Y-79417113D01*
X128502697Y-78345684D02*
X129574126Y-78345684D01*
X129574126Y-78345684D02*
X129788411Y-78417113D01*
X129788411Y-78417113D02*
X129931269Y-78559970D01*
X129931269Y-78559970D02*
X130002697Y-78774256D01*
X130002697Y-78774256D02*
X130002697Y-78917113D01*
X130002697Y-76917113D02*
X130002697Y-77631399D01*
X130002697Y-77631399D02*
X128502697Y-77631399D01*
X129859840Y-75559970D02*
X129931269Y-75631398D01*
X129931269Y-75631398D02*
X130002697Y-75845684D01*
X130002697Y-75845684D02*
X130002697Y-75988541D01*
X130002697Y-75988541D02*
X129931269Y-76202827D01*
X129931269Y-76202827D02*
X129788411Y-76345684D01*
X129788411Y-76345684D02*
X129645554Y-76417113D01*
X129645554Y-76417113D02*
X129359840Y-76488541D01*
X129359840Y-76488541D02*
X129145554Y-76488541D01*
X129145554Y-76488541D02*
X128859840Y-76417113D01*
X128859840Y-76417113D02*
X128716983Y-76345684D01*
X128716983Y-76345684D02*
X128574126Y-76202827D01*
X128574126Y-76202827D02*
X128502697Y-75988541D01*
X128502697Y-75988541D02*
X128502697Y-75845684D01*
X128502697Y-75845684D02*
X128574126Y-75631398D01*
X128574126Y-75631398D02*
X128645554Y-75559970D01*
X128502697Y-74488541D02*
X129574126Y-74488541D01*
X129574126Y-74488541D02*
X129788411Y-74559970D01*
X129788411Y-74559970D02*
X129931269Y-74702827D01*
X129931269Y-74702827D02*
X130002697Y-74917113D01*
X130002697Y-74917113D02*
X130002697Y-75059970D01*
X130002697Y-73059970D02*
X130002697Y-73774256D01*
X130002697Y-73774256D02*
X128502697Y-73774256D01*
X129859840Y-71702827D02*
X129931269Y-71774255D01*
X129931269Y-71774255D02*
X130002697Y-71988541D01*
X130002697Y-71988541D02*
X130002697Y-72131398D01*
X130002697Y-72131398D02*
X129931269Y-72345684D01*
X129931269Y-72345684D02*
X129788411Y-72488541D01*
X129788411Y-72488541D02*
X129645554Y-72559970D01*
X129645554Y-72559970D02*
X129359840Y-72631398D01*
X129359840Y-72631398D02*
X129145554Y-72631398D01*
X129145554Y-72631398D02*
X128859840Y-72559970D01*
X128859840Y-72559970D02*
X128716983Y-72488541D01*
X128716983Y-72488541D02*
X128574126Y-72345684D01*
X128574126Y-72345684D02*
X128502697Y-72131398D01*
X128502697Y-72131398D02*
X128502697Y-71988541D01*
X128502697Y-71988541D02*
X128574126Y-71774255D01*
X128574126Y-71774255D02*
X128645554Y-71702827D01*
D12*
X28851653Y-58037257D02*
X28851653Y-55037257D01*
X28851653Y-55037257D02*
X29994510Y-55037257D01*
X29994510Y-55037257D02*
X30280225Y-55180114D01*
X30280225Y-55180114D02*
X30423082Y-55322971D01*
X30423082Y-55322971D02*
X30565939Y-55608685D01*
X30565939Y-55608685D02*
X30565939Y-56037257D01*
X30565939Y-56037257D02*
X30423082Y-56322971D01*
X30423082Y-56322971D02*
X30280225Y-56465828D01*
X30280225Y-56465828D02*
X29994510Y-56608685D01*
X29994510Y-56608685D02*
X28851653Y-56608685D01*
X33565939Y-57751542D02*
X33423082Y-57894400D01*
X33423082Y-57894400D02*
X32994510Y-58037257D01*
X32994510Y-58037257D02*
X32708796Y-58037257D01*
X32708796Y-58037257D02*
X32280225Y-57894400D01*
X32280225Y-57894400D02*
X31994510Y-57608685D01*
X31994510Y-57608685D02*
X31851653Y-57322971D01*
X31851653Y-57322971D02*
X31708796Y-56751542D01*
X31708796Y-56751542D02*
X31708796Y-56322971D01*
X31708796Y-56322971D02*
X31851653Y-55751542D01*
X31851653Y-55751542D02*
X31994510Y-55465828D01*
X31994510Y-55465828D02*
X32280225Y-55180114D01*
X32280225Y-55180114D02*
X32708796Y-55037257D01*
X32708796Y-55037257D02*
X32994510Y-55037257D01*
X32994510Y-55037257D02*
X33423082Y-55180114D01*
X33423082Y-55180114D02*
X33565939Y-55322971D01*
X36708796Y-55037257D02*
X38423082Y-55037257D01*
X37565939Y-58037257D02*
X37565939Y-55037257D01*
X39423081Y-58037257D02*
X39423081Y-56037257D01*
X39423081Y-56608685D02*
X39565938Y-56322971D01*
X39565938Y-56322971D02*
X39708796Y-56180114D01*
X39708796Y-56180114D02*
X39994510Y-56037257D01*
X39994510Y-56037257D02*
X40280224Y-56037257D01*
X42565939Y-58037257D02*
X42565939Y-56465828D01*
X42565939Y-56465828D02*
X42423081Y-56180114D01*
X42423081Y-56180114D02*
X42137367Y-56037257D01*
X42137367Y-56037257D02*
X41565939Y-56037257D01*
X41565939Y-56037257D02*
X41280224Y-56180114D01*
X42565939Y-57894400D02*
X42280224Y-58037257D01*
X42280224Y-58037257D02*
X41565939Y-58037257D01*
X41565939Y-58037257D02*
X41280224Y-57894400D01*
X41280224Y-57894400D02*
X41137367Y-57608685D01*
X41137367Y-57608685D02*
X41137367Y-57322971D01*
X41137367Y-57322971D02*
X41280224Y-57037257D01*
X41280224Y-57037257D02*
X41565939Y-56894400D01*
X41565939Y-56894400D02*
X42280224Y-56894400D01*
X42280224Y-56894400D02*
X42565939Y-56751542D01*
X43994510Y-56037257D02*
X43994510Y-58037257D01*
X43994510Y-56322971D02*
X44137367Y-56180114D01*
X44137367Y-56180114D02*
X44423082Y-56037257D01*
X44423082Y-56037257D02*
X44851653Y-56037257D01*
X44851653Y-56037257D02*
X45137367Y-56180114D01*
X45137367Y-56180114D02*
X45280225Y-56465828D01*
X45280225Y-56465828D02*
X45280225Y-58037257D01*
X46565939Y-57894400D02*
X46851653Y-58037257D01*
X46851653Y-58037257D02*
X47423082Y-58037257D01*
X47423082Y-58037257D02*
X47708796Y-57894400D01*
X47708796Y-57894400D02*
X47851653Y-57608685D01*
X47851653Y-57608685D02*
X47851653Y-57465828D01*
X47851653Y-57465828D02*
X47708796Y-57180114D01*
X47708796Y-57180114D02*
X47423082Y-57037257D01*
X47423082Y-57037257D02*
X46994511Y-57037257D01*
X46994511Y-57037257D02*
X46708796Y-56894400D01*
X46708796Y-56894400D02*
X46565939Y-56608685D01*
X46565939Y-56608685D02*
X46565939Y-56465828D01*
X46565939Y-56465828D02*
X46708796Y-56180114D01*
X46708796Y-56180114D02*
X46994511Y-56037257D01*
X46994511Y-56037257D02*
X47423082Y-56037257D01*
X47423082Y-56037257D02*
X47708796Y-56180114D01*
X49137367Y-56037257D02*
X49137367Y-59037257D01*
X49137367Y-56180114D02*
X49423082Y-56037257D01*
X49423082Y-56037257D02*
X49994510Y-56037257D01*
X49994510Y-56037257D02*
X50280224Y-56180114D01*
X50280224Y-56180114D02*
X50423082Y-56322971D01*
X50423082Y-56322971D02*
X50565939Y-56608685D01*
X50565939Y-56608685D02*
X50565939Y-57465828D01*
X50565939Y-57465828D02*
X50423082Y-57751542D01*
X50423082Y-57751542D02*
X50280224Y-57894400D01*
X50280224Y-57894400D02*
X49994510Y-58037257D01*
X49994510Y-58037257D02*
X49423082Y-58037257D01*
X49423082Y-58037257D02*
X49137367Y-57894400D01*
X52280225Y-58037257D02*
X51994510Y-57894400D01*
X51994510Y-57894400D02*
X51851653Y-57751542D01*
X51851653Y-57751542D02*
X51708796Y-57465828D01*
X51708796Y-57465828D02*
X51708796Y-56608685D01*
X51708796Y-56608685D02*
X51851653Y-56322971D01*
X51851653Y-56322971D02*
X51994510Y-56180114D01*
X51994510Y-56180114D02*
X52280225Y-56037257D01*
X52280225Y-56037257D02*
X52708796Y-56037257D01*
X52708796Y-56037257D02*
X52994510Y-56180114D01*
X52994510Y-56180114D02*
X53137368Y-56322971D01*
X53137368Y-56322971D02*
X53280225Y-56608685D01*
X53280225Y-56608685D02*
X53280225Y-57465828D01*
X53280225Y-57465828D02*
X53137368Y-57751542D01*
X53137368Y-57751542D02*
X52994510Y-57894400D01*
X52994510Y-57894400D02*
X52708796Y-58037257D01*
X52708796Y-58037257D02*
X52280225Y-58037257D01*
X54565939Y-58037257D02*
X54565939Y-56037257D01*
X54565939Y-56608685D02*
X54708796Y-56322971D01*
X54708796Y-56322971D02*
X54851654Y-56180114D01*
X54851654Y-56180114D02*
X55137368Y-56037257D01*
X55137368Y-56037257D02*
X55423082Y-56037257D01*
X55994511Y-56037257D02*
X57137368Y-56037257D01*
X56423082Y-55037257D02*
X56423082Y-57608685D01*
X56423082Y-57608685D02*
X56565939Y-57894400D01*
X56565939Y-57894400D02*
X56851654Y-58037257D01*
X56851654Y-58037257D02*
X57137368Y-58037257D01*
X59280225Y-57894400D02*
X58994511Y-58037257D01*
X58994511Y-58037257D02*
X58423083Y-58037257D01*
X58423083Y-58037257D02*
X58137368Y-57894400D01*
X58137368Y-57894400D02*
X57994511Y-57608685D01*
X57994511Y-57608685D02*
X57994511Y-56465828D01*
X57994511Y-56465828D02*
X58137368Y-56180114D01*
X58137368Y-56180114D02*
X58423083Y-56037257D01*
X58423083Y-56037257D02*
X58994511Y-56037257D01*
X58994511Y-56037257D02*
X59280225Y-56180114D01*
X59280225Y-56180114D02*
X59423083Y-56465828D01*
X59423083Y-56465828D02*
X59423083Y-56751542D01*
X59423083Y-56751542D02*
X57994511Y-57037257D01*
X60708797Y-58037257D02*
X60708797Y-56037257D01*
X60708797Y-56608685D02*
X60851654Y-56322971D01*
X60851654Y-56322971D02*
X60994512Y-56180114D01*
X60994512Y-56180114D02*
X61280226Y-56037257D01*
X61280226Y-56037257D02*
X61565940Y-56037257D01*
X64423083Y-56037257D02*
X65565940Y-56037257D01*
X64851654Y-55037257D02*
X64851654Y-57608685D01*
X64851654Y-57608685D02*
X64994511Y-57894400D01*
X64994511Y-57894400D02*
X65280226Y-58037257D01*
X65280226Y-58037257D02*
X65565940Y-58037257D01*
X66994512Y-58037257D02*
X66708797Y-57894400D01*
X66708797Y-57894400D02*
X66565940Y-57751542D01*
X66565940Y-57751542D02*
X66423083Y-57465828D01*
X66423083Y-57465828D02*
X66423083Y-56608685D01*
X66423083Y-56608685D02*
X66565940Y-56322971D01*
X66565940Y-56322971D02*
X66708797Y-56180114D01*
X66708797Y-56180114D02*
X66994512Y-56037257D01*
X66994512Y-56037257D02*
X67423083Y-56037257D01*
X67423083Y-56037257D02*
X67708797Y-56180114D01*
X67708797Y-56180114D02*
X67851655Y-56322971D01*
X67851655Y-56322971D02*
X67994512Y-56608685D01*
X67994512Y-56608685D02*
X67994512Y-57465828D01*
X67994512Y-57465828D02*
X67851655Y-57751542D01*
X67851655Y-57751542D02*
X67708797Y-57894400D01*
X67708797Y-57894400D02*
X67423083Y-58037257D01*
X67423083Y-58037257D02*
X66994512Y-58037257D01*
X71565940Y-58037257D02*
X71565940Y-55037257D01*
X71565940Y-55037257D02*
X72565940Y-57180114D01*
X72565940Y-57180114D02*
X73565940Y-55037257D01*
X73565940Y-55037257D02*
X73565940Y-58037257D01*
X74851654Y-57894400D02*
X75280226Y-58037257D01*
X75280226Y-58037257D02*
X75994511Y-58037257D01*
X75994511Y-58037257D02*
X76280226Y-57894400D01*
X76280226Y-57894400D02*
X76423083Y-57751542D01*
X76423083Y-57751542D02*
X76565940Y-57465828D01*
X76565940Y-57465828D02*
X76565940Y-57180114D01*
X76565940Y-57180114D02*
X76423083Y-56894400D01*
X76423083Y-56894400D02*
X76280226Y-56751542D01*
X76280226Y-56751542D02*
X75994511Y-56608685D01*
X75994511Y-56608685D02*
X75423083Y-56465828D01*
X75423083Y-56465828D02*
X75137368Y-56322971D01*
X75137368Y-56322971D02*
X74994511Y-56180114D01*
X74994511Y-56180114D02*
X74851654Y-55894400D01*
X74851654Y-55894400D02*
X74851654Y-55608685D01*
X74851654Y-55608685D02*
X74994511Y-55322971D01*
X74994511Y-55322971D02*
X75137368Y-55180114D01*
X75137368Y-55180114D02*
X75423083Y-55037257D01*
X75423083Y-55037257D02*
X76137368Y-55037257D01*
X76137368Y-55037257D02*
X76565940Y-55180114D01*
X80137368Y-58037257D02*
X80137368Y-55037257D01*
X80137368Y-55037257D02*
X80851654Y-55037257D01*
X80851654Y-55037257D02*
X81280225Y-55180114D01*
X81280225Y-55180114D02*
X81565940Y-55465828D01*
X81565940Y-55465828D02*
X81708797Y-55751542D01*
X81708797Y-55751542D02*
X81851654Y-56322971D01*
X81851654Y-56322971D02*
X81851654Y-56751542D01*
X81851654Y-56751542D02*
X81708797Y-57322971D01*
X81708797Y-57322971D02*
X81565940Y-57608685D01*
X81565940Y-57608685D02*
X81280225Y-57894400D01*
X81280225Y-57894400D02*
X80851654Y-58037257D01*
X80851654Y-58037257D02*
X80137368Y-58037257D01*
X83708797Y-55037257D02*
X84280225Y-55037257D01*
X84280225Y-55037257D02*
X84565940Y-55180114D01*
X84565940Y-55180114D02*
X84851654Y-55465828D01*
X84851654Y-55465828D02*
X84994511Y-56037257D01*
X84994511Y-56037257D02*
X84994511Y-57037257D01*
X84994511Y-57037257D02*
X84851654Y-57608685D01*
X84851654Y-57608685D02*
X84565940Y-57894400D01*
X84565940Y-57894400D02*
X84280225Y-58037257D01*
X84280225Y-58037257D02*
X83708797Y-58037257D01*
X83708797Y-58037257D02*
X83423083Y-57894400D01*
X83423083Y-57894400D02*
X83137368Y-57608685D01*
X83137368Y-57608685D02*
X82994511Y-57037257D01*
X82994511Y-57037257D02*
X82994511Y-56037257D01*
X82994511Y-56037257D02*
X83137368Y-55465828D01*
X83137368Y-55465828D02*
X83423083Y-55180114D01*
X83423083Y-55180114D02*
X83708797Y-55037257D01*
X86137368Y-57894400D02*
X86565940Y-58037257D01*
X86565940Y-58037257D02*
X87280225Y-58037257D01*
X87280225Y-58037257D02*
X87565940Y-57894400D01*
X87565940Y-57894400D02*
X87708797Y-57751542D01*
X87708797Y-57751542D02*
X87851654Y-57465828D01*
X87851654Y-57465828D02*
X87851654Y-57180114D01*
X87851654Y-57180114D02*
X87708797Y-56894400D01*
X87708797Y-56894400D02*
X87565940Y-56751542D01*
X87565940Y-56751542D02*
X87280225Y-56608685D01*
X87280225Y-56608685D02*
X86708797Y-56465828D01*
X86708797Y-56465828D02*
X86423082Y-56322971D01*
X86423082Y-56322971D02*
X86280225Y-56180114D01*
X86280225Y-56180114D02*
X86137368Y-55894400D01*
X86137368Y-55894400D02*
X86137368Y-55608685D01*
X86137368Y-55608685D02*
X86280225Y-55322971D01*
X86280225Y-55322971D02*
X86423082Y-55180114D01*
X86423082Y-55180114D02*
X86708797Y-55037257D01*
X86708797Y-55037257D02*
X87423082Y-55037257D01*
X87423082Y-55037257D02*
X87851654Y-55180114D01*
X91423082Y-58037257D02*
X91423082Y-55037257D01*
X91423082Y-55037257D02*
X92137368Y-55037257D01*
X92137368Y-55037257D02*
X92565939Y-55180114D01*
X92565939Y-55180114D02*
X92851654Y-55465828D01*
X92851654Y-55465828D02*
X92994511Y-55751542D01*
X92994511Y-55751542D02*
X93137368Y-56322971D01*
X93137368Y-56322971D02*
X93137368Y-56751542D01*
X93137368Y-56751542D02*
X92994511Y-57322971D01*
X92994511Y-57322971D02*
X92851654Y-57608685D01*
X92851654Y-57608685D02*
X92565939Y-57894400D01*
X92565939Y-57894400D02*
X92137368Y-58037257D01*
X92137368Y-58037257D02*
X91423082Y-58037257D01*
X94423082Y-58037257D02*
X94423082Y-56037257D01*
X94423082Y-56608685D02*
X94565939Y-56322971D01*
X94565939Y-56322971D02*
X94708797Y-56180114D01*
X94708797Y-56180114D02*
X94994511Y-56037257D01*
X94994511Y-56037257D02*
X95280225Y-56037257D01*
X96280225Y-58037257D02*
X96280225Y-56037257D01*
X96280225Y-55037257D02*
X96137368Y-55180114D01*
X96137368Y-55180114D02*
X96280225Y-55322971D01*
X96280225Y-55322971D02*
X96423082Y-55180114D01*
X96423082Y-55180114D02*
X96280225Y-55037257D01*
X96280225Y-55037257D02*
X96280225Y-55322971D01*
X97423082Y-56037257D02*
X98137368Y-58037257D01*
X98137368Y-58037257D02*
X98851653Y-56037257D01*
X101137367Y-57894400D02*
X100851653Y-58037257D01*
X100851653Y-58037257D02*
X100280225Y-58037257D01*
X100280225Y-58037257D02*
X99994510Y-57894400D01*
X99994510Y-57894400D02*
X99851653Y-57608685D01*
X99851653Y-57608685D02*
X99851653Y-56465828D01*
X99851653Y-56465828D02*
X99994510Y-56180114D01*
X99994510Y-56180114D02*
X100280225Y-56037257D01*
X100280225Y-56037257D02*
X100851653Y-56037257D01*
X100851653Y-56037257D02*
X101137367Y-56180114D01*
X101137367Y-56180114D02*
X101280225Y-56465828D01*
X101280225Y-56465828D02*
X101280225Y-56751542D01*
X101280225Y-56751542D02*
X99851653Y-57037257D01*
X104708796Y-57180114D02*
X106137368Y-57180114D01*
X104423082Y-58037257D02*
X105423082Y-55037257D01*
X105423082Y-55037257D02*
X106423082Y-58037257D01*
X108708797Y-58037257D02*
X108708797Y-55037257D01*
X108708797Y-57894400D02*
X108423082Y-58037257D01*
X108423082Y-58037257D02*
X107851654Y-58037257D01*
X107851654Y-58037257D02*
X107565939Y-57894400D01*
X107565939Y-57894400D02*
X107423082Y-57751542D01*
X107423082Y-57751542D02*
X107280225Y-57465828D01*
X107280225Y-57465828D02*
X107280225Y-56608685D01*
X107280225Y-56608685D02*
X107423082Y-56322971D01*
X107423082Y-56322971D02*
X107565939Y-56180114D01*
X107565939Y-56180114D02*
X107851654Y-56037257D01*
X107851654Y-56037257D02*
X108423082Y-56037257D01*
X108423082Y-56037257D02*
X108708797Y-56180114D01*
X111423083Y-58037257D02*
X111423083Y-56465828D01*
X111423083Y-56465828D02*
X111280225Y-56180114D01*
X111280225Y-56180114D02*
X110994511Y-56037257D01*
X110994511Y-56037257D02*
X110423083Y-56037257D01*
X110423083Y-56037257D02*
X110137368Y-56180114D01*
X111423083Y-57894400D02*
X111137368Y-58037257D01*
X111137368Y-58037257D02*
X110423083Y-58037257D01*
X110423083Y-58037257D02*
X110137368Y-57894400D01*
X110137368Y-57894400D02*
X109994511Y-57608685D01*
X109994511Y-57608685D02*
X109994511Y-57322971D01*
X109994511Y-57322971D02*
X110137368Y-57037257D01*
X110137368Y-57037257D02*
X110423083Y-56894400D01*
X110423083Y-56894400D02*
X111137368Y-56894400D01*
X111137368Y-56894400D02*
X111423083Y-56751542D01*
X112851654Y-56037257D02*
X112851654Y-59037257D01*
X112851654Y-56180114D02*
X113137369Y-56037257D01*
X113137369Y-56037257D02*
X113708797Y-56037257D01*
X113708797Y-56037257D02*
X113994511Y-56180114D01*
X113994511Y-56180114D02*
X114137369Y-56322971D01*
X114137369Y-56322971D02*
X114280226Y-56608685D01*
X114280226Y-56608685D02*
X114280226Y-57465828D01*
X114280226Y-57465828D02*
X114137369Y-57751542D01*
X114137369Y-57751542D02*
X113994511Y-57894400D01*
X113994511Y-57894400D02*
X113708797Y-58037257D01*
X113708797Y-58037257D02*
X113137369Y-58037257D01*
X113137369Y-58037257D02*
X112851654Y-57894400D01*
X115137369Y-56037257D02*
X116280226Y-56037257D01*
X115565940Y-55037257D02*
X115565940Y-57608685D01*
X115565940Y-57608685D02*
X115708797Y-57894400D01*
X115708797Y-57894400D02*
X115994512Y-58037257D01*
X115994512Y-58037257D02*
X116280226Y-58037257D01*
X118423083Y-57894400D02*
X118137369Y-58037257D01*
X118137369Y-58037257D02*
X117565941Y-58037257D01*
X117565941Y-58037257D02*
X117280226Y-57894400D01*
X117280226Y-57894400D02*
X117137369Y-57608685D01*
X117137369Y-57608685D02*
X117137369Y-56465828D01*
X117137369Y-56465828D02*
X117280226Y-56180114D01*
X117280226Y-56180114D02*
X117565941Y-56037257D01*
X117565941Y-56037257D02*
X118137369Y-56037257D01*
X118137369Y-56037257D02*
X118423083Y-56180114D01*
X118423083Y-56180114D02*
X118565941Y-56465828D01*
X118565941Y-56465828D02*
X118565941Y-56751542D01*
X118565941Y-56751542D02*
X117137369Y-57037257D01*
X119851655Y-58037257D02*
X119851655Y-56037257D01*
X119851655Y-56608685D02*
X119994512Y-56322971D01*
X119994512Y-56322971D02*
X120137370Y-56180114D01*
X120137370Y-56180114D02*
X120423084Y-56037257D01*
X120423084Y-56037257D02*
X120708798Y-56037257D01*
D13*
X99291426Y-94779819D02*
X99291426Y-93779819D01*
X99291426Y-93779819D02*
X99672378Y-93779819D01*
X99672378Y-93779819D02*
X99767616Y-93827438D01*
X99767616Y-93827438D02*
X99815235Y-93875057D01*
X99815235Y-93875057D02*
X99862854Y-93970295D01*
X99862854Y-93970295D02*
X99862854Y-94113152D01*
X99862854Y-94113152D02*
X99815235Y-94208390D01*
X99815235Y-94208390D02*
X99767616Y-94256009D01*
X99767616Y-94256009D02*
X99672378Y-94303628D01*
X99672378Y-94303628D02*
X99291426Y-94303628D01*
X100862854Y-94684580D02*
X100815235Y-94732200D01*
X100815235Y-94732200D02*
X100672378Y-94779819D01*
X100672378Y-94779819D02*
X100577140Y-94779819D01*
X100577140Y-94779819D02*
X100434283Y-94732200D01*
X100434283Y-94732200D02*
X100339045Y-94636961D01*
X100339045Y-94636961D02*
X100291426Y-94541723D01*
X100291426Y-94541723D02*
X100243807Y-94351247D01*
X100243807Y-94351247D02*
X100243807Y-94208390D01*
X100243807Y-94208390D02*
X100291426Y-94017914D01*
X100291426Y-94017914D02*
X100339045Y-93922676D01*
X100339045Y-93922676D02*
X100434283Y-93827438D01*
X100434283Y-93827438D02*
X100577140Y-93779819D01*
X100577140Y-93779819D02*
X100672378Y-93779819D01*
X100672378Y-93779819D02*
X100815235Y-93827438D01*
X100815235Y-93827438D02*
X100862854Y-93875057D01*
X101910474Y-93779819D02*
X102481902Y-93779819D01*
X102196188Y-94779819D02*
X102196188Y-93779819D01*
X102815236Y-94779819D02*
X102815236Y-94113152D01*
X102815236Y-94303628D02*
X102862855Y-94208390D01*
X102862855Y-94208390D02*
X102910474Y-94160771D01*
X102910474Y-94160771D02*
X103005712Y-94113152D01*
X103005712Y-94113152D02*
X103100950Y-94113152D01*
X103862855Y-94779819D02*
X103862855Y-94256009D01*
X103862855Y-94256009D02*
X103815236Y-94160771D01*
X103815236Y-94160771D02*
X103719998Y-94113152D01*
X103719998Y-94113152D02*
X103529522Y-94113152D01*
X103529522Y-94113152D02*
X103434284Y-94160771D01*
X103862855Y-94732200D02*
X103767617Y-94779819D01*
X103767617Y-94779819D02*
X103529522Y-94779819D01*
X103529522Y-94779819D02*
X103434284Y-94732200D01*
X103434284Y-94732200D02*
X103386665Y-94636961D01*
X103386665Y-94636961D02*
X103386665Y-94541723D01*
X103386665Y-94541723D02*
X103434284Y-94446485D01*
X103434284Y-94446485D02*
X103529522Y-94398866D01*
X103529522Y-94398866D02*
X103767617Y-94398866D01*
X103767617Y-94398866D02*
X103862855Y-94351247D01*
X104339046Y-94113152D02*
X104339046Y-94779819D01*
X104339046Y-94208390D02*
X104386665Y-94160771D01*
X104386665Y-94160771D02*
X104481903Y-94113152D01*
X104481903Y-94113152D02*
X104624760Y-94113152D01*
X104624760Y-94113152D02*
X104719998Y-94160771D01*
X104719998Y-94160771D02*
X104767617Y-94256009D01*
X104767617Y-94256009D02*
X104767617Y-94779819D01*
X105196189Y-94732200D02*
X105291427Y-94779819D01*
X105291427Y-94779819D02*
X105481903Y-94779819D01*
X105481903Y-94779819D02*
X105577141Y-94732200D01*
X105577141Y-94732200D02*
X105624760Y-94636961D01*
X105624760Y-94636961D02*
X105624760Y-94589342D01*
X105624760Y-94589342D02*
X105577141Y-94494104D01*
X105577141Y-94494104D02*
X105481903Y-94446485D01*
X105481903Y-94446485D02*
X105339046Y-94446485D01*
X105339046Y-94446485D02*
X105243808Y-94398866D01*
X105243808Y-94398866D02*
X105196189Y-94303628D01*
X105196189Y-94303628D02*
X105196189Y-94256009D01*
X105196189Y-94256009D02*
X105243808Y-94160771D01*
X105243808Y-94160771D02*
X105339046Y-94113152D01*
X105339046Y-94113152D02*
X105481903Y-94113152D01*
X105481903Y-94113152D02*
X105577141Y-94160771D01*
X106053332Y-94113152D02*
X106053332Y-95113152D01*
X106053332Y-94160771D02*
X106148570Y-94113152D01*
X106148570Y-94113152D02*
X106339046Y-94113152D01*
X106339046Y-94113152D02*
X106434284Y-94160771D01*
X106434284Y-94160771D02*
X106481903Y-94208390D01*
X106481903Y-94208390D02*
X106529522Y-94303628D01*
X106529522Y-94303628D02*
X106529522Y-94589342D01*
X106529522Y-94589342D02*
X106481903Y-94684580D01*
X106481903Y-94684580D02*
X106434284Y-94732200D01*
X106434284Y-94732200D02*
X106339046Y-94779819D01*
X106339046Y-94779819D02*
X106148570Y-94779819D01*
X106148570Y-94779819D02*
X106053332Y-94732200D01*
X107100951Y-94779819D02*
X107005713Y-94732200D01*
X107005713Y-94732200D02*
X106958094Y-94684580D01*
X106958094Y-94684580D02*
X106910475Y-94589342D01*
X106910475Y-94589342D02*
X106910475Y-94303628D01*
X106910475Y-94303628D02*
X106958094Y-94208390D01*
X106958094Y-94208390D02*
X107005713Y-94160771D01*
X107005713Y-94160771D02*
X107100951Y-94113152D01*
X107100951Y-94113152D02*
X107243808Y-94113152D01*
X107243808Y-94113152D02*
X107339046Y-94160771D01*
X107339046Y-94160771D02*
X107386665Y-94208390D01*
X107386665Y-94208390D02*
X107434284Y-94303628D01*
X107434284Y-94303628D02*
X107434284Y-94589342D01*
X107434284Y-94589342D02*
X107386665Y-94684580D01*
X107386665Y-94684580D02*
X107339046Y-94732200D01*
X107339046Y-94732200D02*
X107243808Y-94779819D01*
X107243808Y-94779819D02*
X107100951Y-94779819D01*
X107862856Y-94779819D02*
X107862856Y-94113152D01*
X107862856Y-94303628D02*
X107910475Y-94208390D01*
X107910475Y-94208390D02*
X107958094Y-94160771D01*
X107958094Y-94160771D02*
X108053332Y-94113152D01*
X108053332Y-94113152D02*
X108148570Y-94113152D01*
X108339047Y-94113152D02*
X108719999Y-94113152D01*
X108481904Y-93779819D02*
X108481904Y-94636961D01*
X108481904Y-94636961D02*
X108529523Y-94732200D01*
X108529523Y-94732200D02*
X108624761Y-94779819D01*
X108624761Y-94779819D02*
X108719999Y-94779819D01*
X109434285Y-94732200D02*
X109339047Y-94779819D01*
X109339047Y-94779819D02*
X109148571Y-94779819D01*
X109148571Y-94779819D02*
X109053333Y-94732200D01*
X109053333Y-94732200D02*
X109005714Y-94636961D01*
X109005714Y-94636961D02*
X109005714Y-94256009D01*
X109005714Y-94256009D02*
X109053333Y-94160771D01*
X109053333Y-94160771D02*
X109148571Y-94113152D01*
X109148571Y-94113152D02*
X109339047Y-94113152D01*
X109339047Y-94113152D02*
X109434285Y-94160771D01*
X109434285Y-94160771D02*
X109481904Y-94256009D01*
X109481904Y-94256009D02*
X109481904Y-94351247D01*
X109481904Y-94351247D02*
X109005714Y-94446485D01*
X109910476Y-94779819D02*
X109910476Y-94113152D01*
X109910476Y-94303628D02*
X109958095Y-94208390D01*
X109958095Y-94208390D02*
X110005714Y-94160771D01*
X110005714Y-94160771D02*
X110100952Y-94113152D01*
X110100952Y-94113152D02*
X110196190Y-94113152D01*
X111862857Y-94684580D02*
X111815238Y-94732200D01*
X111815238Y-94732200D02*
X111672381Y-94779819D01*
X111672381Y-94779819D02*
X111577143Y-94779819D01*
X111577143Y-94779819D02*
X111434286Y-94732200D01*
X111434286Y-94732200D02*
X111339048Y-94636961D01*
X111339048Y-94636961D02*
X111291429Y-94541723D01*
X111291429Y-94541723D02*
X111243810Y-94351247D01*
X111243810Y-94351247D02*
X111243810Y-94208390D01*
X111243810Y-94208390D02*
X111291429Y-94017914D01*
X111291429Y-94017914D02*
X111339048Y-93922676D01*
X111339048Y-93922676D02*
X111434286Y-93827438D01*
X111434286Y-93827438D02*
X111577143Y-93779819D01*
X111577143Y-93779819D02*
X111672381Y-93779819D01*
X111672381Y-93779819D02*
X111815238Y-93827438D01*
X111815238Y-93827438D02*
X111862857Y-93875057D01*
X112434286Y-94779819D02*
X112339048Y-94732200D01*
X112339048Y-94732200D02*
X112291429Y-94684580D01*
X112291429Y-94684580D02*
X112243810Y-94589342D01*
X112243810Y-94589342D02*
X112243810Y-94303628D01*
X112243810Y-94303628D02*
X112291429Y-94208390D01*
X112291429Y-94208390D02*
X112339048Y-94160771D01*
X112339048Y-94160771D02*
X112434286Y-94113152D01*
X112434286Y-94113152D02*
X112577143Y-94113152D01*
X112577143Y-94113152D02*
X112672381Y-94160771D01*
X112672381Y-94160771D02*
X112720000Y-94208390D01*
X112720000Y-94208390D02*
X112767619Y-94303628D01*
X112767619Y-94303628D02*
X112767619Y-94589342D01*
X112767619Y-94589342D02*
X112720000Y-94684580D01*
X112720000Y-94684580D02*
X112672381Y-94732200D01*
X112672381Y-94732200D02*
X112577143Y-94779819D01*
X112577143Y-94779819D02*
X112434286Y-94779819D01*
X113196191Y-94113152D02*
X113196191Y-94779819D01*
X113196191Y-94208390D02*
X113243810Y-94160771D01*
X113243810Y-94160771D02*
X113339048Y-94113152D01*
X113339048Y-94113152D02*
X113481905Y-94113152D01*
X113481905Y-94113152D02*
X113577143Y-94160771D01*
X113577143Y-94160771D02*
X113624762Y-94256009D01*
X113624762Y-94256009D02*
X113624762Y-94779819D01*
X114100953Y-94113152D02*
X114100953Y-94779819D01*
X114100953Y-94208390D02*
X114148572Y-94160771D01*
X114148572Y-94160771D02*
X114243810Y-94113152D01*
X114243810Y-94113152D02*
X114386667Y-94113152D01*
X114386667Y-94113152D02*
X114481905Y-94160771D01*
X114481905Y-94160771D02*
X114529524Y-94256009D01*
X114529524Y-94256009D02*
X114529524Y-94779819D01*
X115386667Y-94732200D02*
X115291429Y-94779819D01*
X115291429Y-94779819D02*
X115100953Y-94779819D01*
X115100953Y-94779819D02*
X115005715Y-94732200D01*
X115005715Y-94732200D02*
X114958096Y-94636961D01*
X114958096Y-94636961D02*
X114958096Y-94256009D01*
X114958096Y-94256009D02*
X115005715Y-94160771D01*
X115005715Y-94160771D02*
X115100953Y-94113152D01*
X115100953Y-94113152D02*
X115291429Y-94113152D01*
X115291429Y-94113152D02*
X115386667Y-94160771D01*
X115386667Y-94160771D02*
X115434286Y-94256009D01*
X115434286Y-94256009D02*
X115434286Y-94351247D01*
X115434286Y-94351247D02*
X114958096Y-94446485D01*
X116291429Y-94732200D02*
X116196191Y-94779819D01*
X116196191Y-94779819D02*
X116005715Y-94779819D01*
X116005715Y-94779819D02*
X115910477Y-94732200D01*
X115910477Y-94732200D02*
X115862858Y-94684580D01*
X115862858Y-94684580D02*
X115815239Y-94589342D01*
X115815239Y-94589342D02*
X115815239Y-94303628D01*
X115815239Y-94303628D02*
X115862858Y-94208390D01*
X115862858Y-94208390D02*
X115910477Y-94160771D01*
X115910477Y-94160771D02*
X116005715Y-94113152D01*
X116005715Y-94113152D02*
X116196191Y-94113152D01*
X116196191Y-94113152D02*
X116291429Y-94160771D01*
X116577144Y-94113152D02*
X116958096Y-94113152D01*
X116720001Y-93779819D02*
X116720001Y-94636961D01*
X116720001Y-94636961D02*
X116767620Y-94732200D01*
X116767620Y-94732200D02*
X116862858Y-94779819D01*
X116862858Y-94779819D02*
X116958096Y-94779819D01*
X117434287Y-94779819D02*
X117339049Y-94732200D01*
X117339049Y-94732200D02*
X117291430Y-94684580D01*
X117291430Y-94684580D02*
X117243811Y-94589342D01*
X117243811Y-94589342D02*
X117243811Y-94303628D01*
X117243811Y-94303628D02*
X117291430Y-94208390D01*
X117291430Y-94208390D02*
X117339049Y-94160771D01*
X117339049Y-94160771D02*
X117434287Y-94113152D01*
X117434287Y-94113152D02*
X117577144Y-94113152D01*
X117577144Y-94113152D02*
X117672382Y-94160771D01*
X117672382Y-94160771D02*
X117720001Y-94208390D01*
X117720001Y-94208390D02*
X117767620Y-94303628D01*
X117767620Y-94303628D02*
X117767620Y-94589342D01*
X117767620Y-94589342D02*
X117720001Y-94684580D01*
X117720001Y-94684580D02*
X117672382Y-94732200D01*
X117672382Y-94732200D02*
X117577144Y-94779819D01*
X117577144Y-94779819D02*
X117434287Y-94779819D01*
X118196192Y-94779819D02*
X118196192Y-94113152D01*
X118196192Y-94303628D02*
X118243811Y-94208390D01*
X118243811Y-94208390D02*
X118291430Y-94160771D01*
X118291430Y-94160771D02*
X118386668Y-94113152D01*
X118386668Y-94113152D02*
X118481906Y-94113152D01*
X118767621Y-94732200D02*
X118862859Y-94779819D01*
X118862859Y-94779819D02*
X119053335Y-94779819D01*
X119053335Y-94779819D02*
X119148573Y-94732200D01*
X119148573Y-94732200D02*
X119196192Y-94636961D01*
X119196192Y-94636961D02*
X119196192Y-94589342D01*
X119196192Y-94589342D02*
X119148573Y-94494104D01*
X119148573Y-94494104D02*
X119053335Y-94446485D01*
X119053335Y-94446485D02*
X118910478Y-94446485D01*
X118910478Y-94446485D02*
X118815240Y-94398866D01*
X118815240Y-94398866D02*
X118767621Y-94303628D01*
X118767621Y-94303628D02*
X118767621Y-94256009D01*
X118767621Y-94256009D02*
X118815240Y-94160771D01*
X118815240Y-94160771D02*
X118910478Y-94113152D01*
X118910478Y-94113152D02*
X119053335Y-94113152D01*
X119053335Y-94113152D02*
X119148573Y-94160771D01*
X100624762Y-96389819D02*
X100624762Y-95389819D01*
X100624762Y-95389819D02*
X100958095Y-96104104D01*
X100958095Y-96104104D02*
X101291428Y-95389819D01*
X101291428Y-95389819D02*
X101291428Y-96389819D01*
X102196190Y-96389819D02*
X102196190Y-95866009D01*
X102196190Y-95866009D02*
X102148571Y-95770771D01*
X102148571Y-95770771D02*
X102053333Y-95723152D01*
X102053333Y-95723152D02*
X101862857Y-95723152D01*
X101862857Y-95723152D02*
X101767619Y-95770771D01*
X102196190Y-96342200D02*
X102100952Y-96389819D01*
X102100952Y-96389819D02*
X101862857Y-96389819D01*
X101862857Y-96389819D02*
X101767619Y-96342200D01*
X101767619Y-96342200D02*
X101720000Y-96246961D01*
X101720000Y-96246961D02*
X101720000Y-96151723D01*
X101720000Y-96151723D02*
X101767619Y-96056485D01*
X101767619Y-96056485D02*
X101862857Y-96008866D01*
X101862857Y-96008866D02*
X102100952Y-96008866D01*
X102100952Y-96008866D02*
X102196190Y-95961247D01*
X102577143Y-96389819D02*
X103100952Y-95723152D01*
X102577143Y-95723152D02*
X103100952Y-96389819D01*
X103481905Y-96389819D02*
X103481905Y-95723152D01*
X103481905Y-95389819D02*
X103434286Y-95437438D01*
X103434286Y-95437438D02*
X103481905Y-95485057D01*
X103481905Y-95485057D02*
X103529524Y-95437438D01*
X103529524Y-95437438D02*
X103481905Y-95389819D01*
X103481905Y-95389819D02*
X103481905Y-95485057D01*
X103958095Y-96389819D02*
X103958095Y-95723152D01*
X103958095Y-95818390D02*
X104005714Y-95770771D01*
X104005714Y-95770771D02*
X104100952Y-95723152D01*
X104100952Y-95723152D02*
X104243809Y-95723152D01*
X104243809Y-95723152D02*
X104339047Y-95770771D01*
X104339047Y-95770771D02*
X104386666Y-95866009D01*
X104386666Y-95866009D02*
X104386666Y-96389819D01*
X104386666Y-95866009D02*
X104434285Y-95770771D01*
X104434285Y-95770771D02*
X104529523Y-95723152D01*
X104529523Y-95723152D02*
X104672380Y-95723152D01*
X104672380Y-95723152D02*
X104767619Y-95770771D01*
X104767619Y-95770771D02*
X104815238Y-95866009D01*
X104815238Y-95866009D02*
X104815238Y-96389819D01*
X105719999Y-95723152D02*
X105719999Y-96389819D01*
X105291428Y-95723152D02*
X105291428Y-96246961D01*
X105291428Y-96246961D02*
X105339047Y-96342200D01*
X105339047Y-96342200D02*
X105434285Y-96389819D01*
X105434285Y-96389819D02*
X105577142Y-96389819D01*
X105577142Y-96389819D02*
X105672380Y-96342200D01*
X105672380Y-96342200D02*
X105719999Y-96294580D01*
X106196190Y-96389819D02*
X106196190Y-95723152D01*
X106196190Y-95818390D02*
X106243809Y-95770771D01*
X106243809Y-95770771D02*
X106339047Y-95723152D01*
X106339047Y-95723152D02*
X106481904Y-95723152D01*
X106481904Y-95723152D02*
X106577142Y-95770771D01*
X106577142Y-95770771D02*
X106624761Y-95866009D01*
X106624761Y-95866009D02*
X106624761Y-96389819D01*
X106624761Y-95866009D02*
X106672380Y-95770771D01*
X106672380Y-95770771D02*
X106767618Y-95723152D01*
X106767618Y-95723152D02*
X106910475Y-95723152D01*
X106910475Y-95723152D02*
X107005714Y-95770771D01*
X107005714Y-95770771D02*
X107053333Y-95866009D01*
X107053333Y-95866009D02*
X107053333Y-96389819D01*
X108815237Y-96389819D02*
X108243809Y-96389819D01*
X108529523Y-96389819D02*
X108529523Y-95389819D01*
X108529523Y-95389819D02*
X108434285Y-95532676D01*
X108434285Y-95532676D02*
X108339047Y-95627914D01*
X108339047Y-95627914D02*
X108243809Y-95675533D01*
X110577142Y-96294580D02*
X110529523Y-96342200D01*
X110529523Y-96342200D02*
X110386666Y-96389819D01*
X110386666Y-96389819D02*
X110291428Y-96389819D01*
X110291428Y-96389819D02*
X110148571Y-96342200D01*
X110148571Y-96342200D02*
X110053333Y-96246961D01*
X110053333Y-96246961D02*
X110005714Y-96151723D01*
X110005714Y-96151723D02*
X109958095Y-95961247D01*
X109958095Y-95961247D02*
X109958095Y-95818390D01*
X109958095Y-95818390D02*
X110005714Y-95627914D01*
X110005714Y-95627914D02*
X110053333Y-95532676D01*
X110053333Y-95532676D02*
X110148571Y-95437438D01*
X110148571Y-95437438D02*
X110291428Y-95389819D01*
X110291428Y-95389819D02*
X110386666Y-95389819D01*
X110386666Y-95389819D02*
X110529523Y-95437438D01*
X110529523Y-95437438D02*
X110577142Y-95485057D01*
X111148571Y-96389819D02*
X111053333Y-96342200D01*
X111053333Y-96342200D02*
X111005714Y-96294580D01*
X111005714Y-96294580D02*
X110958095Y-96199342D01*
X110958095Y-96199342D02*
X110958095Y-95913628D01*
X110958095Y-95913628D02*
X111005714Y-95818390D01*
X111005714Y-95818390D02*
X111053333Y-95770771D01*
X111053333Y-95770771D02*
X111148571Y-95723152D01*
X111148571Y-95723152D02*
X111291428Y-95723152D01*
X111291428Y-95723152D02*
X111386666Y-95770771D01*
X111386666Y-95770771D02*
X111434285Y-95818390D01*
X111434285Y-95818390D02*
X111481904Y-95913628D01*
X111481904Y-95913628D02*
X111481904Y-96199342D01*
X111481904Y-96199342D02*
X111434285Y-96294580D01*
X111434285Y-96294580D02*
X111386666Y-96342200D01*
X111386666Y-96342200D02*
X111291428Y-96389819D01*
X111291428Y-96389819D02*
X111148571Y-96389819D01*
X111910476Y-95723152D02*
X111910476Y-96389819D01*
X111910476Y-95818390D02*
X111958095Y-95770771D01*
X111958095Y-95770771D02*
X112053333Y-95723152D01*
X112053333Y-95723152D02*
X112196190Y-95723152D01*
X112196190Y-95723152D02*
X112291428Y-95770771D01*
X112291428Y-95770771D02*
X112339047Y-95866009D01*
X112339047Y-95866009D02*
X112339047Y-96389819D01*
X112815238Y-95723152D02*
X112815238Y-96389819D01*
X112815238Y-95818390D02*
X112862857Y-95770771D01*
X112862857Y-95770771D02*
X112958095Y-95723152D01*
X112958095Y-95723152D02*
X113100952Y-95723152D01*
X113100952Y-95723152D02*
X113196190Y-95770771D01*
X113196190Y-95770771D02*
X113243809Y-95866009D01*
X113243809Y-95866009D02*
X113243809Y-96389819D01*
X114100952Y-96342200D02*
X114005714Y-96389819D01*
X114005714Y-96389819D02*
X113815238Y-96389819D01*
X113815238Y-96389819D02*
X113720000Y-96342200D01*
X113720000Y-96342200D02*
X113672381Y-96246961D01*
X113672381Y-96246961D02*
X113672381Y-95866009D01*
X113672381Y-95866009D02*
X113720000Y-95770771D01*
X113720000Y-95770771D02*
X113815238Y-95723152D01*
X113815238Y-95723152D02*
X114005714Y-95723152D01*
X114005714Y-95723152D02*
X114100952Y-95770771D01*
X114100952Y-95770771D02*
X114148571Y-95866009D01*
X114148571Y-95866009D02*
X114148571Y-95961247D01*
X114148571Y-95961247D02*
X113672381Y-96056485D01*
X115005714Y-96342200D02*
X114910476Y-96389819D01*
X114910476Y-96389819D02*
X114720000Y-96389819D01*
X114720000Y-96389819D02*
X114624762Y-96342200D01*
X114624762Y-96342200D02*
X114577143Y-96294580D01*
X114577143Y-96294580D02*
X114529524Y-96199342D01*
X114529524Y-96199342D02*
X114529524Y-95913628D01*
X114529524Y-95913628D02*
X114577143Y-95818390D01*
X114577143Y-95818390D02*
X114624762Y-95770771D01*
X114624762Y-95770771D02*
X114720000Y-95723152D01*
X114720000Y-95723152D02*
X114910476Y-95723152D01*
X114910476Y-95723152D02*
X115005714Y-95770771D01*
X115291429Y-95723152D02*
X115672381Y-95723152D01*
X115434286Y-95389819D02*
X115434286Y-96246961D01*
X115434286Y-96246961D02*
X115481905Y-96342200D01*
X115481905Y-96342200D02*
X115577143Y-96389819D01*
X115577143Y-96389819D02*
X115672381Y-96389819D01*
X116005715Y-96389819D02*
X116005715Y-95723152D01*
X116005715Y-95389819D02*
X115958096Y-95437438D01*
X115958096Y-95437438D02*
X116005715Y-95485057D01*
X116005715Y-95485057D02*
X116053334Y-95437438D01*
X116053334Y-95437438D02*
X116005715Y-95389819D01*
X116005715Y-95389819D02*
X116005715Y-95485057D01*
X116624762Y-96389819D02*
X116529524Y-96342200D01*
X116529524Y-96342200D02*
X116481905Y-96294580D01*
X116481905Y-96294580D02*
X116434286Y-96199342D01*
X116434286Y-96199342D02*
X116434286Y-95913628D01*
X116434286Y-95913628D02*
X116481905Y-95818390D01*
X116481905Y-95818390D02*
X116529524Y-95770771D01*
X116529524Y-95770771D02*
X116624762Y-95723152D01*
X116624762Y-95723152D02*
X116767619Y-95723152D01*
X116767619Y-95723152D02*
X116862857Y-95770771D01*
X116862857Y-95770771D02*
X116910476Y-95818390D01*
X116910476Y-95818390D02*
X116958095Y-95913628D01*
X116958095Y-95913628D02*
X116958095Y-96199342D01*
X116958095Y-96199342D02*
X116910476Y-96294580D01*
X116910476Y-96294580D02*
X116862857Y-96342200D01*
X116862857Y-96342200D02*
X116767619Y-96389819D01*
X116767619Y-96389819D02*
X116624762Y-96389819D01*
X117386667Y-95723152D02*
X117386667Y-96389819D01*
X117386667Y-95818390D02*
X117434286Y-95770771D01*
X117434286Y-95770771D02*
X117529524Y-95723152D01*
X117529524Y-95723152D02*
X117672381Y-95723152D01*
X117672381Y-95723152D02*
X117767619Y-95770771D01*
X117767619Y-95770771D02*
X117815238Y-95866009D01*
X117815238Y-95866009D02*
X117815238Y-96389819D01*
X51483808Y-94779819D02*
X51483808Y-93779819D01*
X51483808Y-93779819D02*
X51817141Y-94494104D01*
X51817141Y-94494104D02*
X52150474Y-93779819D01*
X52150474Y-93779819D02*
X52150474Y-94779819D01*
X52579046Y-94732200D02*
X52721903Y-94779819D01*
X52721903Y-94779819D02*
X52959998Y-94779819D01*
X52959998Y-94779819D02*
X53055236Y-94732200D01*
X53055236Y-94732200D02*
X53102855Y-94684580D01*
X53102855Y-94684580D02*
X53150474Y-94589342D01*
X53150474Y-94589342D02*
X53150474Y-94494104D01*
X53150474Y-94494104D02*
X53102855Y-94398866D01*
X53102855Y-94398866D02*
X53055236Y-94351247D01*
X53055236Y-94351247D02*
X52959998Y-94303628D01*
X52959998Y-94303628D02*
X52769522Y-94256009D01*
X52769522Y-94256009D02*
X52674284Y-94208390D01*
X52674284Y-94208390D02*
X52626665Y-94160771D01*
X52626665Y-94160771D02*
X52579046Y-94065533D01*
X52579046Y-94065533D02*
X52579046Y-93970295D01*
X52579046Y-93970295D02*
X52626665Y-93875057D01*
X52626665Y-93875057D02*
X52674284Y-93827438D01*
X52674284Y-93827438D02*
X52769522Y-93779819D01*
X52769522Y-93779819D02*
X53007617Y-93779819D01*
X53007617Y-93779819D02*
X53150474Y-93827438D01*
X54340951Y-94779819D02*
X54340951Y-93779819D01*
X54340951Y-93779819D02*
X54579046Y-93779819D01*
X54579046Y-93779819D02*
X54721903Y-93827438D01*
X54721903Y-93827438D02*
X54817141Y-93922676D01*
X54817141Y-93922676D02*
X54864760Y-94017914D01*
X54864760Y-94017914D02*
X54912379Y-94208390D01*
X54912379Y-94208390D02*
X54912379Y-94351247D01*
X54912379Y-94351247D02*
X54864760Y-94541723D01*
X54864760Y-94541723D02*
X54817141Y-94636961D01*
X54817141Y-94636961D02*
X54721903Y-94732200D01*
X54721903Y-94732200D02*
X54579046Y-94779819D01*
X54579046Y-94779819D02*
X54340951Y-94779819D01*
X55531427Y-93779819D02*
X55721903Y-93779819D01*
X55721903Y-93779819D02*
X55817141Y-93827438D01*
X55817141Y-93827438D02*
X55912379Y-93922676D01*
X55912379Y-93922676D02*
X55959998Y-94113152D01*
X55959998Y-94113152D02*
X55959998Y-94446485D01*
X55959998Y-94446485D02*
X55912379Y-94636961D01*
X55912379Y-94636961D02*
X55817141Y-94732200D01*
X55817141Y-94732200D02*
X55721903Y-94779819D01*
X55721903Y-94779819D02*
X55531427Y-94779819D01*
X55531427Y-94779819D02*
X55436189Y-94732200D01*
X55436189Y-94732200D02*
X55340951Y-94636961D01*
X55340951Y-94636961D02*
X55293332Y-94446485D01*
X55293332Y-94446485D02*
X55293332Y-94113152D01*
X55293332Y-94113152D02*
X55340951Y-93922676D01*
X55340951Y-93922676D02*
X55436189Y-93827438D01*
X55436189Y-93827438D02*
X55531427Y-93779819D01*
X56340951Y-94732200D02*
X56483808Y-94779819D01*
X56483808Y-94779819D02*
X56721903Y-94779819D01*
X56721903Y-94779819D02*
X56817141Y-94732200D01*
X56817141Y-94732200D02*
X56864760Y-94684580D01*
X56864760Y-94684580D02*
X56912379Y-94589342D01*
X56912379Y-94589342D02*
X56912379Y-94494104D01*
X56912379Y-94494104D02*
X56864760Y-94398866D01*
X56864760Y-94398866D02*
X56817141Y-94351247D01*
X56817141Y-94351247D02*
X56721903Y-94303628D01*
X56721903Y-94303628D02*
X56531427Y-94256009D01*
X56531427Y-94256009D02*
X56436189Y-94208390D01*
X56436189Y-94208390D02*
X56388570Y-94160771D01*
X56388570Y-94160771D02*
X56340951Y-94065533D01*
X56340951Y-94065533D02*
X56340951Y-93970295D01*
X56340951Y-93970295D02*
X56388570Y-93875057D01*
X56388570Y-93875057D02*
X56436189Y-93827438D01*
X56436189Y-93827438D02*
X56531427Y-93779819D01*
X56531427Y-93779819D02*
X56769522Y-93779819D01*
X56769522Y-93779819D02*
X56912379Y-93827438D01*
X58102856Y-94779819D02*
X58102856Y-93779819D01*
X58102856Y-93779819D02*
X58340951Y-93779819D01*
X58340951Y-93779819D02*
X58483808Y-93827438D01*
X58483808Y-93827438D02*
X58579046Y-93922676D01*
X58579046Y-93922676D02*
X58626665Y-94017914D01*
X58626665Y-94017914D02*
X58674284Y-94208390D01*
X58674284Y-94208390D02*
X58674284Y-94351247D01*
X58674284Y-94351247D02*
X58626665Y-94541723D01*
X58626665Y-94541723D02*
X58579046Y-94636961D01*
X58579046Y-94636961D02*
X58483808Y-94732200D01*
X58483808Y-94732200D02*
X58340951Y-94779819D01*
X58340951Y-94779819D02*
X58102856Y-94779819D01*
X59102856Y-94779819D02*
X59102856Y-94113152D01*
X59102856Y-94303628D02*
X59150475Y-94208390D01*
X59150475Y-94208390D02*
X59198094Y-94160771D01*
X59198094Y-94160771D02*
X59293332Y-94113152D01*
X59293332Y-94113152D02*
X59388570Y-94113152D01*
X59721904Y-94779819D02*
X59721904Y-94113152D01*
X59721904Y-93779819D02*
X59674285Y-93827438D01*
X59674285Y-93827438D02*
X59721904Y-93875057D01*
X59721904Y-93875057D02*
X59769523Y-93827438D01*
X59769523Y-93827438D02*
X59721904Y-93779819D01*
X59721904Y-93779819D02*
X59721904Y-93875057D01*
X60102856Y-94113152D02*
X60340951Y-94779819D01*
X60340951Y-94779819D02*
X60579046Y-94113152D01*
X61340951Y-94732200D02*
X61245713Y-94779819D01*
X61245713Y-94779819D02*
X61055237Y-94779819D01*
X61055237Y-94779819D02*
X60959999Y-94732200D01*
X60959999Y-94732200D02*
X60912380Y-94636961D01*
X60912380Y-94636961D02*
X60912380Y-94256009D01*
X60912380Y-94256009D02*
X60959999Y-94160771D01*
X60959999Y-94160771D02*
X61055237Y-94113152D01*
X61055237Y-94113152D02*
X61245713Y-94113152D01*
X61245713Y-94113152D02*
X61340951Y-94160771D01*
X61340951Y-94160771D02*
X61388570Y-94256009D01*
X61388570Y-94256009D02*
X61388570Y-94351247D01*
X61388570Y-94351247D02*
X60912380Y-94446485D01*
X63150475Y-94684580D02*
X63102856Y-94732200D01*
X63102856Y-94732200D02*
X62959999Y-94779819D01*
X62959999Y-94779819D02*
X62864761Y-94779819D01*
X62864761Y-94779819D02*
X62721904Y-94732200D01*
X62721904Y-94732200D02*
X62626666Y-94636961D01*
X62626666Y-94636961D02*
X62579047Y-94541723D01*
X62579047Y-94541723D02*
X62531428Y-94351247D01*
X62531428Y-94351247D02*
X62531428Y-94208390D01*
X62531428Y-94208390D02*
X62579047Y-94017914D01*
X62579047Y-94017914D02*
X62626666Y-93922676D01*
X62626666Y-93922676D02*
X62721904Y-93827438D01*
X62721904Y-93827438D02*
X62864761Y-93779819D01*
X62864761Y-93779819D02*
X62959999Y-93779819D01*
X62959999Y-93779819D02*
X63102856Y-93827438D01*
X63102856Y-93827438D02*
X63150475Y-93875057D01*
X63721904Y-94779819D02*
X63626666Y-94732200D01*
X63626666Y-94732200D02*
X63579047Y-94684580D01*
X63579047Y-94684580D02*
X63531428Y-94589342D01*
X63531428Y-94589342D02*
X63531428Y-94303628D01*
X63531428Y-94303628D02*
X63579047Y-94208390D01*
X63579047Y-94208390D02*
X63626666Y-94160771D01*
X63626666Y-94160771D02*
X63721904Y-94113152D01*
X63721904Y-94113152D02*
X63864761Y-94113152D01*
X63864761Y-94113152D02*
X63959999Y-94160771D01*
X63959999Y-94160771D02*
X64007618Y-94208390D01*
X64007618Y-94208390D02*
X64055237Y-94303628D01*
X64055237Y-94303628D02*
X64055237Y-94589342D01*
X64055237Y-94589342D02*
X64007618Y-94684580D01*
X64007618Y-94684580D02*
X63959999Y-94732200D01*
X63959999Y-94732200D02*
X63864761Y-94779819D01*
X63864761Y-94779819D02*
X63721904Y-94779819D01*
X64483809Y-94113152D02*
X64483809Y-94779819D01*
X64483809Y-94208390D02*
X64531428Y-94160771D01*
X64531428Y-94160771D02*
X64626666Y-94113152D01*
X64626666Y-94113152D02*
X64769523Y-94113152D01*
X64769523Y-94113152D02*
X64864761Y-94160771D01*
X64864761Y-94160771D02*
X64912380Y-94256009D01*
X64912380Y-94256009D02*
X64912380Y-94779819D01*
X65388571Y-94113152D02*
X65388571Y-94779819D01*
X65388571Y-94208390D02*
X65436190Y-94160771D01*
X65436190Y-94160771D02*
X65531428Y-94113152D01*
X65531428Y-94113152D02*
X65674285Y-94113152D01*
X65674285Y-94113152D02*
X65769523Y-94160771D01*
X65769523Y-94160771D02*
X65817142Y-94256009D01*
X65817142Y-94256009D02*
X65817142Y-94779819D01*
X66674285Y-94732200D02*
X66579047Y-94779819D01*
X66579047Y-94779819D02*
X66388571Y-94779819D01*
X66388571Y-94779819D02*
X66293333Y-94732200D01*
X66293333Y-94732200D02*
X66245714Y-94636961D01*
X66245714Y-94636961D02*
X66245714Y-94256009D01*
X66245714Y-94256009D02*
X66293333Y-94160771D01*
X66293333Y-94160771D02*
X66388571Y-94113152D01*
X66388571Y-94113152D02*
X66579047Y-94113152D01*
X66579047Y-94113152D02*
X66674285Y-94160771D01*
X66674285Y-94160771D02*
X66721904Y-94256009D01*
X66721904Y-94256009D02*
X66721904Y-94351247D01*
X66721904Y-94351247D02*
X66245714Y-94446485D01*
X67579047Y-94732200D02*
X67483809Y-94779819D01*
X67483809Y-94779819D02*
X67293333Y-94779819D01*
X67293333Y-94779819D02*
X67198095Y-94732200D01*
X67198095Y-94732200D02*
X67150476Y-94684580D01*
X67150476Y-94684580D02*
X67102857Y-94589342D01*
X67102857Y-94589342D02*
X67102857Y-94303628D01*
X67102857Y-94303628D02*
X67150476Y-94208390D01*
X67150476Y-94208390D02*
X67198095Y-94160771D01*
X67198095Y-94160771D02*
X67293333Y-94113152D01*
X67293333Y-94113152D02*
X67483809Y-94113152D01*
X67483809Y-94113152D02*
X67579047Y-94160771D01*
X67864762Y-94113152D02*
X68245714Y-94113152D01*
X68007619Y-93779819D02*
X68007619Y-94636961D01*
X68007619Y-94636961D02*
X68055238Y-94732200D01*
X68055238Y-94732200D02*
X68150476Y-94779819D01*
X68150476Y-94779819D02*
X68245714Y-94779819D01*
X68721905Y-94779819D02*
X68626667Y-94732200D01*
X68626667Y-94732200D02*
X68579048Y-94684580D01*
X68579048Y-94684580D02*
X68531429Y-94589342D01*
X68531429Y-94589342D02*
X68531429Y-94303628D01*
X68531429Y-94303628D02*
X68579048Y-94208390D01*
X68579048Y-94208390D02*
X68626667Y-94160771D01*
X68626667Y-94160771D02*
X68721905Y-94113152D01*
X68721905Y-94113152D02*
X68864762Y-94113152D01*
X68864762Y-94113152D02*
X68960000Y-94160771D01*
X68960000Y-94160771D02*
X69007619Y-94208390D01*
X69007619Y-94208390D02*
X69055238Y-94303628D01*
X69055238Y-94303628D02*
X69055238Y-94589342D01*
X69055238Y-94589342D02*
X69007619Y-94684580D01*
X69007619Y-94684580D02*
X68960000Y-94732200D01*
X68960000Y-94732200D02*
X68864762Y-94779819D01*
X68864762Y-94779819D02*
X68721905Y-94779819D01*
X69483810Y-94779819D02*
X69483810Y-94113152D01*
X69483810Y-94303628D02*
X69531429Y-94208390D01*
X69531429Y-94208390D02*
X69579048Y-94160771D01*
X69579048Y-94160771D02*
X69674286Y-94113152D01*
X69674286Y-94113152D02*
X69769524Y-94113152D01*
X70055239Y-94732200D02*
X70150477Y-94779819D01*
X70150477Y-94779819D02*
X70340953Y-94779819D01*
X70340953Y-94779819D02*
X70436191Y-94732200D01*
X70436191Y-94732200D02*
X70483810Y-94636961D01*
X70483810Y-94636961D02*
X70483810Y-94589342D01*
X70483810Y-94589342D02*
X70436191Y-94494104D01*
X70436191Y-94494104D02*
X70340953Y-94446485D01*
X70340953Y-94446485D02*
X70198096Y-94446485D01*
X70198096Y-94446485D02*
X70102858Y-94398866D01*
X70102858Y-94398866D02*
X70055239Y-94303628D01*
X70055239Y-94303628D02*
X70055239Y-94256009D01*
X70055239Y-94256009D02*
X70102858Y-94160771D01*
X70102858Y-94160771D02*
X70198096Y-94113152D01*
X70198096Y-94113152D02*
X70340953Y-94113152D01*
X70340953Y-94113152D02*
X70436191Y-94160771D01*
X44579046Y-96389819D02*
X44579046Y-95389819D01*
X44579046Y-95389819D02*
X44912379Y-96104104D01*
X44912379Y-96104104D02*
X45245712Y-95389819D01*
X45245712Y-95389819D02*
X45245712Y-96389819D01*
X46150474Y-96389819D02*
X46150474Y-95866009D01*
X46150474Y-95866009D02*
X46102855Y-95770771D01*
X46102855Y-95770771D02*
X46007617Y-95723152D01*
X46007617Y-95723152D02*
X45817141Y-95723152D01*
X45817141Y-95723152D02*
X45721903Y-95770771D01*
X46150474Y-96342200D02*
X46055236Y-96389819D01*
X46055236Y-96389819D02*
X45817141Y-96389819D01*
X45817141Y-96389819D02*
X45721903Y-96342200D01*
X45721903Y-96342200D02*
X45674284Y-96246961D01*
X45674284Y-96246961D02*
X45674284Y-96151723D01*
X45674284Y-96151723D02*
X45721903Y-96056485D01*
X45721903Y-96056485D02*
X45817141Y-96008866D01*
X45817141Y-96008866D02*
X46055236Y-96008866D01*
X46055236Y-96008866D02*
X46150474Y-95961247D01*
X46531427Y-96389819D02*
X47055236Y-95723152D01*
X46531427Y-95723152D02*
X47055236Y-96389819D01*
X47436189Y-96389819D02*
X47436189Y-95723152D01*
X47436189Y-95389819D02*
X47388570Y-95437438D01*
X47388570Y-95437438D02*
X47436189Y-95485057D01*
X47436189Y-95485057D02*
X47483808Y-95437438D01*
X47483808Y-95437438D02*
X47436189Y-95389819D01*
X47436189Y-95389819D02*
X47436189Y-95485057D01*
X47912379Y-96389819D02*
X47912379Y-95723152D01*
X47912379Y-95818390D02*
X47959998Y-95770771D01*
X47959998Y-95770771D02*
X48055236Y-95723152D01*
X48055236Y-95723152D02*
X48198093Y-95723152D01*
X48198093Y-95723152D02*
X48293331Y-95770771D01*
X48293331Y-95770771D02*
X48340950Y-95866009D01*
X48340950Y-95866009D02*
X48340950Y-96389819D01*
X48340950Y-95866009D02*
X48388569Y-95770771D01*
X48388569Y-95770771D02*
X48483807Y-95723152D01*
X48483807Y-95723152D02*
X48626664Y-95723152D01*
X48626664Y-95723152D02*
X48721903Y-95770771D01*
X48721903Y-95770771D02*
X48769522Y-95866009D01*
X48769522Y-95866009D02*
X48769522Y-96389819D01*
X49674283Y-95723152D02*
X49674283Y-96389819D01*
X49245712Y-95723152D02*
X49245712Y-96246961D01*
X49245712Y-96246961D02*
X49293331Y-96342200D01*
X49293331Y-96342200D02*
X49388569Y-96389819D01*
X49388569Y-96389819D02*
X49531426Y-96389819D01*
X49531426Y-96389819D02*
X49626664Y-96342200D01*
X49626664Y-96342200D02*
X49674283Y-96294580D01*
X50150474Y-96389819D02*
X50150474Y-95723152D01*
X50150474Y-95818390D02*
X50198093Y-95770771D01*
X50198093Y-95770771D02*
X50293331Y-95723152D01*
X50293331Y-95723152D02*
X50436188Y-95723152D01*
X50436188Y-95723152D02*
X50531426Y-95770771D01*
X50531426Y-95770771D02*
X50579045Y-95866009D01*
X50579045Y-95866009D02*
X50579045Y-96389819D01*
X50579045Y-95866009D02*
X50626664Y-95770771D01*
X50626664Y-95770771D02*
X50721902Y-95723152D01*
X50721902Y-95723152D02*
X50864759Y-95723152D01*
X50864759Y-95723152D02*
X50959998Y-95770771D01*
X50959998Y-95770771D02*
X51007617Y-95866009D01*
X51007617Y-95866009D02*
X51007617Y-96389819D01*
X52198093Y-95485057D02*
X52245712Y-95437438D01*
X52245712Y-95437438D02*
X52340950Y-95389819D01*
X52340950Y-95389819D02*
X52579045Y-95389819D01*
X52579045Y-95389819D02*
X52674283Y-95437438D01*
X52674283Y-95437438D02*
X52721902Y-95485057D01*
X52721902Y-95485057D02*
X52769521Y-95580295D01*
X52769521Y-95580295D02*
X52769521Y-95675533D01*
X52769521Y-95675533D02*
X52721902Y-95818390D01*
X52721902Y-95818390D02*
X52150474Y-96389819D01*
X52150474Y-96389819D02*
X52769521Y-96389819D01*
X54388569Y-96389819D02*
X54388569Y-95389819D01*
X54388569Y-96342200D02*
X54293331Y-96389819D01*
X54293331Y-96389819D02*
X54102855Y-96389819D01*
X54102855Y-96389819D02*
X54007617Y-96342200D01*
X54007617Y-96342200D02*
X53959998Y-96294580D01*
X53959998Y-96294580D02*
X53912379Y-96199342D01*
X53912379Y-96199342D02*
X53912379Y-95913628D01*
X53912379Y-95913628D02*
X53959998Y-95818390D01*
X53959998Y-95818390D02*
X54007617Y-95770771D01*
X54007617Y-95770771D02*
X54102855Y-95723152D01*
X54102855Y-95723152D02*
X54293331Y-95723152D01*
X54293331Y-95723152D02*
X54388569Y-95770771D01*
X54864760Y-96389819D02*
X54864760Y-95723152D01*
X54864760Y-95913628D02*
X54912379Y-95818390D01*
X54912379Y-95818390D02*
X54959998Y-95770771D01*
X54959998Y-95770771D02*
X55055236Y-95723152D01*
X55055236Y-95723152D02*
X55150474Y-95723152D01*
X55483808Y-96389819D02*
X55483808Y-95723152D01*
X55483808Y-95389819D02*
X55436189Y-95437438D01*
X55436189Y-95437438D02*
X55483808Y-95485057D01*
X55483808Y-95485057D02*
X55531427Y-95437438D01*
X55531427Y-95437438D02*
X55483808Y-95389819D01*
X55483808Y-95389819D02*
X55483808Y-95485057D01*
X55864760Y-95723152D02*
X56102855Y-96389819D01*
X56102855Y-96389819D02*
X56340950Y-95723152D01*
X57102855Y-96342200D02*
X57007617Y-96389819D01*
X57007617Y-96389819D02*
X56817141Y-96389819D01*
X56817141Y-96389819D02*
X56721903Y-96342200D01*
X56721903Y-96342200D02*
X56674284Y-96246961D01*
X56674284Y-96246961D02*
X56674284Y-95866009D01*
X56674284Y-95866009D02*
X56721903Y-95770771D01*
X56721903Y-95770771D02*
X56817141Y-95723152D01*
X56817141Y-95723152D02*
X57007617Y-95723152D01*
X57007617Y-95723152D02*
X57102855Y-95770771D01*
X57102855Y-95770771D02*
X57150474Y-95866009D01*
X57150474Y-95866009D02*
X57150474Y-95961247D01*
X57150474Y-95961247D02*
X56674284Y-96056485D01*
X57531427Y-96342200D02*
X57626665Y-96389819D01*
X57626665Y-96389819D02*
X57817141Y-96389819D01*
X57817141Y-96389819D02*
X57912379Y-96342200D01*
X57912379Y-96342200D02*
X57959998Y-96246961D01*
X57959998Y-96246961D02*
X57959998Y-96199342D01*
X57959998Y-96199342D02*
X57912379Y-96104104D01*
X57912379Y-96104104D02*
X57817141Y-96056485D01*
X57817141Y-96056485D02*
X57674284Y-96056485D01*
X57674284Y-96056485D02*
X57579046Y-96008866D01*
X57579046Y-96008866D02*
X57531427Y-95913628D01*
X57531427Y-95913628D02*
X57531427Y-95866009D01*
X57531427Y-95866009D02*
X57579046Y-95770771D01*
X57579046Y-95770771D02*
X57674284Y-95723152D01*
X57674284Y-95723152D02*
X57817141Y-95723152D01*
X57817141Y-95723152D02*
X57912379Y-95770771D01*
X59150475Y-96008866D02*
X59912380Y-96008866D01*
X61579046Y-96389819D02*
X61579046Y-95866009D01*
X61579046Y-95866009D02*
X61531427Y-95770771D01*
X61531427Y-95770771D02*
X61436189Y-95723152D01*
X61436189Y-95723152D02*
X61245713Y-95723152D01*
X61245713Y-95723152D02*
X61150475Y-95770771D01*
X61579046Y-96342200D02*
X61483808Y-96389819D01*
X61483808Y-96389819D02*
X61245713Y-96389819D01*
X61245713Y-96389819D02*
X61150475Y-96342200D01*
X61150475Y-96342200D02*
X61102856Y-96246961D01*
X61102856Y-96246961D02*
X61102856Y-96151723D01*
X61102856Y-96151723D02*
X61150475Y-96056485D01*
X61150475Y-96056485D02*
X61245713Y-96008866D01*
X61245713Y-96008866D02*
X61483808Y-96008866D01*
X61483808Y-96008866D02*
X61579046Y-95961247D01*
X62483808Y-96389819D02*
X62483808Y-95389819D01*
X62483808Y-96342200D02*
X62388570Y-96389819D01*
X62388570Y-96389819D02*
X62198094Y-96389819D01*
X62198094Y-96389819D02*
X62102856Y-96342200D01*
X62102856Y-96342200D02*
X62055237Y-96294580D01*
X62055237Y-96294580D02*
X62007618Y-96199342D01*
X62007618Y-96199342D02*
X62007618Y-95913628D01*
X62007618Y-95913628D02*
X62055237Y-95818390D01*
X62055237Y-95818390D02*
X62102856Y-95770771D01*
X62102856Y-95770771D02*
X62198094Y-95723152D01*
X62198094Y-95723152D02*
X62388570Y-95723152D01*
X62388570Y-95723152D02*
X62483808Y-95770771D01*
X63388570Y-96389819D02*
X63388570Y-95389819D01*
X63388570Y-96342200D02*
X63293332Y-96389819D01*
X63293332Y-96389819D02*
X63102856Y-96389819D01*
X63102856Y-96389819D02*
X63007618Y-96342200D01*
X63007618Y-96342200D02*
X62959999Y-96294580D01*
X62959999Y-96294580D02*
X62912380Y-96199342D01*
X62912380Y-96199342D02*
X62912380Y-95913628D01*
X62912380Y-95913628D02*
X62959999Y-95818390D01*
X62959999Y-95818390D02*
X63007618Y-95770771D01*
X63007618Y-95770771D02*
X63102856Y-95723152D01*
X63102856Y-95723152D02*
X63293332Y-95723152D01*
X63293332Y-95723152D02*
X63388570Y-95770771D01*
X63864761Y-96389819D02*
X63864761Y-95723152D01*
X63864761Y-95913628D02*
X63912380Y-95818390D01*
X63912380Y-95818390D02*
X63959999Y-95770771D01*
X63959999Y-95770771D02*
X64055237Y-95723152D01*
X64055237Y-95723152D02*
X64150475Y-95723152D01*
X64864761Y-96342200D02*
X64769523Y-96389819D01*
X64769523Y-96389819D02*
X64579047Y-96389819D01*
X64579047Y-96389819D02*
X64483809Y-96342200D01*
X64483809Y-96342200D02*
X64436190Y-96246961D01*
X64436190Y-96246961D02*
X64436190Y-95866009D01*
X64436190Y-95866009D02*
X64483809Y-95770771D01*
X64483809Y-95770771D02*
X64579047Y-95723152D01*
X64579047Y-95723152D02*
X64769523Y-95723152D01*
X64769523Y-95723152D02*
X64864761Y-95770771D01*
X64864761Y-95770771D02*
X64912380Y-95866009D01*
X64912380Y-95866009D02*
X64912380Y-95961247D01*
X64912380Y-95961247D02*
X64436190Y-96056485D01*
X65293333Y-96342200D02*
X65388571Y-96389819D01*
X65388571Y-96389819D02*
X65579047Y-96389819D01*
X65579047Y-96389819D02*
X65674285Y-96342200D01*
X65674285Y-96342200D02*
X65721904Y-96246961D01*
X65721904Y-96246961D02*
X65721904Y-96199342D01*
X65721904Y-96199342D02*
X65674285Y-96104104D01*
X65674285Y-96104104D02*
X65579047Y-96056485D01*
X65579047Y-96056485D02*
X65436190Y-96056485D01*
X65436190Y-96056485D02*
X65340952Y-96008866D01*
X65340952Y-96008866D02*
X65293333Y-95913628D01*
X65293333Y-95913628D02*
X65293333Y-95866009D01*
X65293333Y-95866009D02*
X65340952Y-95770771D01*
X65340952Y-95770771D02*
X65436190Y-95723152D01*
X65436190Y-95723152D02*
X65579047Y-95723152D01*
X65579047Y-95723152D02*
X65674285Y-95770771D01*
X66102857Y-96342200D02*
X66198095Y-96389819D01*
X66198095Y-96389819D02*
X66388571Y-96389819D01*
X66388571Y-96389819D02*
X66483809Y-96342200D01*
X66483809Y-96342200D02*
X66531428Y-96246961D01*
X66531428Y-96246961D02*
X66531428Y-96199342D01*
X66531428Y-96199342D02*
X66483809Y-96104104D01*
X66483809Y-96104104D02*
X66388571Y-96056485D01*
X66388571Y-96056485D02*
X66245714Y-96056485D01*
X66245714Y-96056485D02*
X66150476Y-96008866D01*
X66150476Y-96008866D02*
X66102857Y-95913628D01*
X66102857Y-95913628D02*
X66102857Y-95866009D01*
X66102857Y-95866009D02*
X66150476Y-95770771D01*
X66150476Y-95770771D02*
X66245714Y-95723152D01*
X66245714Y-95723152D02*
X66388571Y-95723152D01*
X66388571Y-95723152D02*
X66483809Y-95770771D01*
X67340952Y-96342200D02*
X67245714Y-96389819D01*
X67245714Y-96389819D02*
X67055238Y-96389819D01*
X67055238Y-96389819D02*
X66960000Y-96342200D01*
X66960000Y-96342200D02*
X66912381Y-96246961D01*
X66912381Y-96246961D02*
X66912381Y-95866009D01*
X66912381Y-95866009D02*
X66960000Y-95770771D01*
X66960000Y-95770771D02*
X67055238Y-95723152D01*
X67055238Y-95723152D02*
X67245714Y-95723152D01*
X67245714Y-95723152D02*
X67340952Y-95770771D01*
X67340952Y-95770771D02*
X67388571Y-95866009D01*
X67388571Y-95866009D02*
X67388571Y-95961247D01*
X67388571Y-95961247D02*
X66912381Y-96056485D01*
X68245714Y-96389819D02*
X68245714Y-95389819D01*
X68245714Y-96342200D02*
X68150476Y-96389819D01*
X68150476Y-96389819D02*
X67960000Y-96389819D01*
X67960000Y-96389819D02*
X67864762Y-96342200D01*
X67864762Y-96342200D02*
X67817143Y-96294580D01*
X67817143Y-96294580D02*
X67769524Y-96199342D01*
X67769524Y-96199342D02*
X67769524Y-95913628D01*
X67769524Y-95913628D02*
X67817143Y-95818390D01*
X67817143Y-95818390D02*
X67864762Y-95770771D01*
X67864762Y-95770771D02*
X67960000Y-95723152D01*
X67960000Y-95723152D02*
X68150476Y-95723152D01*
X68150476Y-95723152D02*
X68245714Y-95770771D01*
X69483810Y-96389819D02*
X69483810Y-95389819D01*
X69483810Y-95770771D02*
X69579048Y-95723152D01*
X69579048Y-95723152D02*
X69769524Y-95723152D01*
X69769524Y-95723152D02*
X69864762Y-95770771D01*
X69864762Y-95770771D02*
X69912381Y-95818390D01*
X69912381Y-95818390D02*
X69960000Y-95913628D01*
X69960000Y-95913628D02*
X69960000Y-96199342D01*
X69960000Y-96199342D02*
X69912381Y-96294580D01*
X69912381Y-96294580D02*
X69864762Y-96342200D01*
X69864762Y-96342200D02*
X69769524Y-96389819D01*
X69769524Y-96389819D02*
X69579048Y-96389819D01*
X69579048Y-96389819D02*
X69483810Y-96342200D01*
X70293334Y-95723152D02*
X70531429Y-96389819D01*
X70769524Y-95723152D02*
X70531429Y-96389819D01*
X70531429Y-96389819D02*
X70436191Y-96627914D01*
X70436191Y-96627914D02*
X70388572Y-96675533D01*
X70388572Y-96675533D02*
X70293334Y-96723152D01*
X71912382Y-95723152D02*
X71912382Y-96580295D01*
X71912382Y-96580295D02*
X71864763Y-96675533D01*
X71864763Y-96675533D02*
X71769525Y-96723152D01*
X71769525Y-96723152D02*
X71721906Y-96723152D01*
X71912382Y-95389819D02*
X71864763Y-95437438D01*
X71864763Y-95437438D02*
X71912382Y-95485057D01*
X71912382Y-95485057D02*
X71960001Y-95437438D01*
X71960001Y-95437438D02*
X71912382Y-95389819D01*
X71912382Y-95389819D02*
X71912382Y-95485057D01*
X72817143Y-95723152D02*
X72817143Y-96389819D01*
X72388572Y-95723152D02*
X72388572Y-96246961D01*
X72388572Y-96246961D02*
X72436191Y-96342200D01*
X72436191Y-96342200D02*
X72531429Y-96389819D01*
X72531429Y-96389819D02*
X72674286Y-96389819D01*
X72674286Y-96389819D02*
X72769524Y-96342200D01*
X72769524Y-96342200D02*
X72817143Y-96294580D01*
X73293334Y-96389819D02*
X73293334Y-95723152D01*
X73293334Y-95818390D02*
X73340953Y-95770771D01*
X73340953Y-95770771D02*
X73436191Y-95723152D01*
X73436191Y-95723152D02*
X73579048Y-95723152D01*
X73579048Y-95723152D02*
X73674286Y-95770771D01*
X73674286Y-95770771D02*
X73721905Y-95866009D01*
X73721905Y-95866009D02*
X73721905Y-96389819D01*
X73721905Y-95866009D02*
X73769524Y-95770771D01*
X73769524Y-95770771D02*
X73864762Y-95723152D01*
X73864762Y-95723152D02*
X74007619Y-95723152D01*
X74007619Y-95723152D02*
X74102858Y-95770771D01*
X74102858Y-95770771D02*
X74150477Y-95866009D01*
X74150477Y-95866009D02*
X74150477Y-96389819D01*
X74626667Y-95723152D02*
X74626667Y-96723152D01*
X74626667Y-95770771D02*
X74721905Y-95723152D01*
X74721905Y-95723152D02*
X74912381Y-95723152D01*
X74912381Y-95723152D02*
X75007619Y-95770771D01*
X75007619Y-95770771D02*
X75055238Y-95818390D01*
X75055238Y-95818390D02*
X75102857Y-95913628D01*
X75102857Y-95913628D02*
X75102857Y-96199342D01*
X75102857Y-96199342D02*
X75055238Y-96294580D01*
X75055238Y-96294580D02*
X75007619Y-96342200D01*
X75007619Y-96342200D02*
X74912381Y-96389819D01*
X74912381Y-96389819D02*
X74721905Y-96389819D01*
X74721905Y-96389819D02*
X74626667Y-96342200D01*
X75912381Y-96342200D02*
X75817143Y-96389819D01*
X75817143Y-96389819D02*
X75626667Y-96389819D01*
X75626667Y-96389819D02*
X75531429Y-96342200D01*
X75531429Y-96342200D02*
X75483810Y-96246961D01*
X75483810Y-96246961D02*
X75483810Y-95866009D01*
X75483810Y-95866009D02*
X75531429Y-95770771D01*
X75531429Y-95770771D02*
X75626667Y-95723152D01*
X75626667Y-95723152D02*
X75817143Y-95723152D01*
X75817143Y-95723152D02*
X75912381Y-95770771D01*
X75912381Y-95770771D02*
X75960000Y-95866009D01*
X75960000Y-95866009D02*
X75960000Y-95961247D01*
X75960000Y-95961247D02*
X75483810Y-96056485D01*
X76388572Y-96389819D02*
X76388572Y-95723152D01*
X76388572Y-95913628D02*
X76436191Y-95818390D01*
X76436191Y-95818390D02*
X76483810Y-95770771D01*
X76483810Y-95770771D02*
X76579048Y-95723152D01*
X76579048Y-95723152D02*
X76674286Y-95723152D01*
X76960001Y-96342200D02*
X77055239Y-96389819D01*
X77055239Y-96389819D02*
X77245715Y-96389819D01*
X77245715Y-96389819D02*
X77340953Y-96342200D01*
X77340953Y-96342200D02*
X77388572Y-96246961D01*
X77388572Y-96246961D02*
X77388572Y-96199342D01*
X77388572Y-96199342D02*
X77340953Y-96104104D01*
X77340953Y-96104104D02*
X77245715Y-96056485D01*
X77245715Y-96056485D02*
X77102858Y-96056485D01*
X77102858Y-96056485D02*
X77007620Y-96008866D01*
X77007620Y-96008866D02*
X76960001Y-95913628D01*
X76960001Y-95913628D02*
X76960001Y-95866009D01*
X76960001Y-95866009D02*
X77007620Y-95770771D01*
X77007620Y-95770771D02*
X77102858Y-95723152D01*
X77102858Y-95723152D02*
X77245715Y-95723152D01*
X77245715Y-95723152D02*
X77340953Y-95770771D01*
X32221547Y-83220103D02*
X32126309Y-83172484D01*
X32126309Y-83172484D02*
X31983452Y-83172484D01*
X31983452Y-83172484D02*
X31840595Y-83220103D01*
X31840595Y-83220103D02*
X31745357Y-83315341D01*
X31745357Y-83315341D02*
X31697738Y-83410579D01*
X31697738Y-83410579D02*
X31650119Y-83601055D01*
X31650119Y-83601055D02*
X31650119Y-83743912D01*
X31650119Y-83743912D02*
X31697738Y-83934388D01*
X31697738Y-83934388D02*
X31745357Y-84029626D01*
X31745357Y-84029626D02*
X31840595Y-84124865D01*
X31840595Y-84124865D02*
X31983452Y-84172484D01*
X31983452Y-84172484D02*
X32078690Y-84172484D01*
X32078690Y-84172484D02*
X32221547Y-84124865D01*
X32221547Y-84124865D02*
X32269166Y-84077245D01*
X32269166Y-84077245D02*
X32269166Y-83743912D01*
X32269166Y-83743912D02*
X32078690Y-83743912D01*
X32697738Y-84172484D02*
X32697738Y-83172484D01*
X32697738Y-83172484D02*
X33269166Y-84172484D01*
X33269166Y-84172484D02*
X33269166Y-83172484D01*
X33745357Y-84172484D02*
X33745357Y-83172484D01*
X33745357Y-83172484D02*
X33983452Y-83172484D01*
X33983452Y-83172484D02*
X34126309Y-83220103D01*
X34126309Y-83220103D02*
X34221547Y-83315341D01*
X34221547Y-83315341D02*
X34269166Y-83410579D01*
X34269166Y-83410579D02*
X34316785Y-83601055D01*
X34316785Y-83601055D02*
X34316785Y-83743912D01*
X34316785Y-83743912D02*
X34269166Y-83934388D01*
X34269166Y-83934388D02*
X34221547Y-84029626D01*
X34221547Y-84029626D02*
X34126309Y-84124865D01*
X34126309Y-84124865D02*
X33983452Y-84172484D01*
X33983452Y-84172484D02*
X33745357Y-84172484D01*
X21060360Y-83856591D02*
X21822265Y-83856591D01*
X21441312Y-84237544D02*
X21441312Y-83475639D01*
X22822264Y-84237544D02*
X22250836Y-84237544D01*
X22536550Y-84237544D02*
X22536550Y-83237544D01*
X22536550Y-83237544D02*
X22441312Y-83380401D01*
X22441312Y-83380401D02*
X22346074Y-83475639D01*
X22346074Y-83475639D02*
X22250836Y-83523258D01*
X23203217Y-83332782D02*
X23250836Y-83285163D01*
X23250836Y-83285163D02*
X23346074Y-83237544D01*
X23346074Y-83237544D02*
X23584169Y-83237544D01*
X23584169Y-83237544D02*
X23679407Y-83285163D01*
X23679407Y-83285163D02*
X23727026Y-83332782D01*
X23727026Y-83332782D02*
X23774645Y-83428020D01*
X23774645Y-83428020D02*
X23774645Y-83523258D01*
X23774645Y-83523258D02*
X23727026Y-83666115D01*
X23727026Y-83666115D02*
X23155598Y-84237544D01*
X23155598Y-84237544D02*
X23774645Y-84237544D01*
X24060360Y-83237544D02*
X24393693Y-84237544D01*
X24393693Y-84237544D02*
X24727026Y-83237544D01*
X39179686Y-83759001D02*
X39941591Y-83759001D01*
X39560638Y-84139954D02*
X39560638Y-83378049D01*
X40893971Y-83139954D02*
X40417781Y-83139954D01*
X40417781Y-83139954D02*
X40370162Y-83616144D01*
X40370162Y-83616144D02*
X40417781Y-83568525D01*
X40417781Y-83568525D02*
X40513019Y-83520906D01*
X40513019Y-83520906D02*
X40751114Y-83520906D01*
X40751114Y-83520906D02*
X40846352Y-83568525D01*
X40846352Y-83568525D02*
X40893971Y-83616144D01*
X40893971Y-83616144D02*
X40941590Y-83711382D01*
X40941590Y-83711382D02*
X40941590Y-83949477D01*
X40941590Y-83949477D02*
X40893971Y-84044715D01*
X40893971Y-84044715D02*
X40846352Y-84092335D01*
X40846352Y-84092335D02*
X40751114Y-84139954D01*
X40751114Y-84139954D02*
X40513019Y-84139954D01*
X40513019Y-84139954D02*
X40417781Y-84092335D01*
X40417781Y-84092335D02*
X40370162Y-84044715D01*
X41227305Y-83139954D02*
X41560638Y-84139954D01*
X41560638Y-84139954D02*
X41893971Y-83139954D01*
X21768000Y-68294738D02*
X21768000Y-67532834D01*
X22148953Y-67913786D02*
X21387048Y-67913786D01*
X22148953Y-66532834D02*
X22148953Y-67104262D01*
X22148953Y-66818548D02*
X21148953Y-66818548D01*
X21148953Y-66818548D02*
X21291810Y-66913786D01*
X21291810Y-66913786D02*
X21387048Y-67009024D01*
X21387048Y-67009024D02*
X21434667Y-67104262D01*
X21244191Y-66151881D02*
X21196572Y-66104262D01*
X21196572Y-66104262D02*
X21148953Y-66009024D01*
X21148953Y-66009024D02*
X21148953Y-65770929D01*
X21148953Y-65770929D02*
X21196572Y-65675691D01*
X21196572Y-65675691D02*
X21244191Y-65628072D01*
X21244191Y-65628072D02*
X21339429Y-65580453D01*
X21339429Y-65580453D02*
X21434667Y-65580453D01*
X21434667Y-65580453D02*
X21577524Y-65628072D01*
X21577524Y-65628072D02*
X22148953Y-66199500D01*
X22148953Y-66199500D02*
X22148953Y-65580453D01*
X21148953Y-65294738D02*
X22148953Y-64961405D01*
X22148953Y-64961405D02*
X21148953Y-64628072D01*
X24416572Y-67770929D02*
X24368953Y-67866167D01*
X24368953Y-67866167D02*
X24368953Y-68009024D01*
X24368953Y-68009024D02*
X24416572Y-68151881D01*
X24416572Y-68151881D02*
X24511810Y-68247119D01*
X24511810Y-68247119D02*
X24607048Y-68294738D01*
X24607048Y-68294738D02*
X24797524Y-68342357D01*
X24797524Y-68342357D02*
X24940381Y-68342357D01*
X24940381Y-68342357D02*
X25130857Y-68294738D01*
X25130857Y-68294738D02*
X25226095Y-68247119D01*
X25226095Y-68247119D02*
X25321334Y-68151881D01*
X25321334Y-68151881D02*
X25368953Y-68009024D01*
X25368953Y-68009024D02*
X25368953Y-67913786D01*
X25368953Y-67913786D02*
X25321334Y-67770929D01*
X25321334Y-67770929D02*
X25273714Y-67723310D01*
X25273714Y-67723310D02*
X24940381Y-67723310D01*
X24940381Y-67723310D02*
X24940381Y-67913786D01*
X25368953Y-67294738D02*
X24368953Y-67294738D01*
X24368953Y-67294738D02*
X25368953Y-66723310D01*
X25368953Y-66723310D02*
X24368953Y-66723310D01*
X25368953Y-66247119D02*
X24368953Y-66247119D01*
X24368953Y-66247119D02*
X24368953Y-66009024D01*
X24368953Y-66009024D02*
X24416572Y-65866167D01*
X24416572Y-65866167D02*
X24511810Y-65770929D01*
X24511810Y-65770929D02*
X24607048Y-65723310D01*
X24607048Y-65723310D02*
X24797524Y-65675691D01*
X24797524Y-65675691D02*
X24940381Y-65675691D01*
X24940381Y-65675691D02*
X25130857Y-65723310D01*
X25130857Y-65723310D02*
X25226095Y-65770929D01*
X25226095Y-65770929D02*
X25321334Y-65866167D01*
X25321334Y-65866167D02*
X25368953Y-66009024D01*
X25368953Y-66009024D02*
X25368953Y-66247119D01*
X27636572Y-67770929D02*
X27588953Y-67866167D01*
X27588953Y-67866167D02*
X27588953Y-68009024D01*
X27588953Y-68009024D02*
X27636572Y-68151881D01*
X27636572Y-68151881D02*
X27731810Y-68247119D01*
X27731810Y-68247119D02*
X27827048Y-68294738D01*
X27827048Y-68294738D02*
X28017524Y-68342357D01*
X28017524Y-68342357D02*
X28160381Y-68342357D01*
X28160381Y-68342357D02*
X28350857Y-68294738D01*
X28350857Y-68294738D02*
X28446095Y-68247119D01*
X28446095Y-68247119D02*
X28541334Y-68151881D01*
X28541334Y-68151881D02*
X28588953Y-68009024D01*
X28588953Y-68009024D02*
X28588953Y-67913786D01*
X28588953Y-67913786D02*
X28541334Y-67770929D01*
X28541334Y-67770929D02*
X28493714Y-67723310D01*
X28493714Y-67723310D02*
X28160381Y-67723310D01*
X28160381Y-67723310D02*
X28160381Y-67913786D01*
X28588953Y-67294738D02*
X27588953Y-67294738D01*
X27588953Y-67294738D02*
X28588953Y-66723310D01*
X28588953Y-66723310D02*
X27588953Y-66723310D01*
X28588953Y-66247119D02*
X27588953Y-66247119D01*
X27588953Y-66247119D02*
X27588953Y-66009024D01*
X27588953Y-66009024D02*
X27636572Y-65866167D01*
X27636572Y-65866167D02*
X27731810Y-65770929D01*
X27731810Y-65770929D02*
X27827048Y-65723310D01*
X27827048Y-65723310D02*
X28017524Y-65675691D01*
X28017524Y-65675691D02*
X28160381Y-65675691D01*
X28160381Y-65675691D02*
X28350857Y-65723310D01*
X28350857Y-65723310D02*
X28446095Y-65770929D01*
X28446095Y-65770929D02*
X28541334Y-65866167D01*
X28541334Y-65866167D02*
X28588953Y-66009024D01*
X28588953Y-66009024D02*
X28588953Y-66247119D01*
X31428000Y-68294738D02*
X31428000Y-67532834D01*
X31808953Y-67913786D02*
X31047048Y-67913786D01*
X30808953Y-66580453D02*
X30808953Y-67056643D01*
X30808953Y-67056643D02*
X31285143Y-67104262D01*
X31285143Y-67104262D02*
X31237524Y-67056643D01*
X31237524Y-67056643D02*
X31189905Y-66961405D01*
X31189905Y-66961405D02*
X31189905Y-66723310D01*
X31189905Y-66723310D02*
X31237524Y-66628072D01*
X31237524Y-66628072D02*
X31285143Y-66580453D01*
X31285143Y-66580453D02*
X31380381Y-66532834D01*
X31380381Y-66532834D02*
X31618476Y-66532834D01*
X31618476Y-66532834D02*
X31713714Y-66580453D01*
X31713714Y-66580453D02*
X31761334Y-66628072D01*
X31761334Y-66628072D02*
X31808953Y-66723310D01*
X31808953Y-66723310D02*
X31808953Y-66961405D01*
X31808953Y-66961405D02*
X31761334Y-67056643D01*
X31761334Y-67056643D02*
X31713714Y-67104262D01*
X30808953Y-66247119D02*
X31808953Y-65913786D01*
X31808953Y-65913786D02*
X30808953Y-65580453D01*
X22386768Y-93643144D02*
X22386768Y-92881240D01*
X22767721Y-93262192D02*
X22005816Y-93262192D01*
X22767721Y-91881240D02*
X22767721Y-92452668D01*
X22767721Y-92166954D02*
X21767721Y-92166954D01*
X21767721Y-92166954D02*
X21910578Y-92262192D01*
X21910578Y-92262192D02*
X22005816Y-92357430D01*
X22005816Y-92357430D02*
X22053435Y-92452668D01*
X21862959Y-91500287D02*
X21815340Y-91452668D01*
X21815340Y-91452668D02*
X21767721Y-91357430D01*
X21767721Y-91357430D02*
X21767721Y-91119335D01*
X21767721Y-91119335D02*
X21815340Y-91024097D01*
X21815340Y-91024097D02*
X21862959Y-90976478D01*
X21862959Y-90976478D02*
X21958197Y-90928859D01*
X21958197Y-90928859D02*
X22053435Y-90928859D01*
X22053435Y-90928859D02*
X22196292Y-90976478D01*
X22196292Y-90976478D02*
X22767721Y-91547906D01*
X22767721Y-91547906D02*
X22767721Y-90928859D01*
X21767721Y-90643144D02*
X22767721Y-90309811D01*
X22767721Y-90309811D02*
X21767721Y-89976478D01*
X25035340Y-93119335D02*
X24987721Y-93214573D01*
X24987721Y-93214573D02*
X24987721Y-93357430D01*
X24987721Y-93357430D02*
X25035340Y-93500287D01*
X25035340Y-93500287D02*
X25130578Y-93595525D01*
X25130578Y-93595525D02*
X25225816Y-93643144D01*
X25225816Y-93643144D02*
X25416292Y-93690763D01*
X25416292Y-93690763D02*
X25559149Y-93690763D01*
X25559149Y-93690763D02*
X25749625Y-93643144D01*
X25749625Y-93643144D02*
X25844863Y-93595525D01*
X25844863Y-93595525D02*
X25940102Y-93500287D01*
X25940102Y-93500287D02*
X25987721Y-93357430D01*
X25987721Y-93357430D02*
X25987721Y-93262192D01*
X25987721Y-93262192D02*
X25940102Y-93119335D01*
X25940102Y-93119335D02*
X25892482Y-93071716D01*
X25892482Y-93071716D02*
X25559149Y-93071716D01*
X25559149Y-93071716D02*
X25559149Y-93262192D01*
X25987721Y-92643144D02*
X24987721Y-92643144D01*
X24987721Y-92643144D02*
X25987721Y-92071716D01*
X25987721Y-92071716D02*
X24987721Y-92071716D01*
X25987721Y-91595525D02*
X24987721Y-91595525D01*
X24987721Y-91595525D02*
X24987721Y-91357430D01*
X24987721Y-91357430D02*
X25035340Y-91214573D01*
X25035340Y-91214573D02*
X25130578Y-91119335D01*
X25130578Y-91119335D02*
X25225816Y-91071716D01*
X25225816Y-91071716D02*
X25416292Y-91024097D01*
X25416292Y-91024097D02*
X25559149Y-91024097D01*
X25559149Y-91024097D02*
X25749625Y-91071716D01*
X25749625Y-91071716D02*
X25844863Y-91119335D01*
X25844863Y-91119335D02*
X25940102Y-91214573D01*
X25940102Y-91214573D02*
X25987721Y-91357430D01*
X25987721Y-91357430D02*
X25987721Y-91595525D01*
X28255340Y-93119335D02*
X28207721Y-93214573D01*
X28207721Y-93214573D02*
X28207721Y-93357430D01*
X28207721Y-93357430D02*
X28255340Y-93500287D01*
X28255340Y-93500287D02*
X28350578Y-93595525D01*
X28350578Y-93595525D02*
X28445816Y-93643144D01*
X28445816Y-93643144D02*
X28636292Y-93690763D01*
X28636292Y-93690763D02*
X28779149Y-93690763D01*
X28779149Y-93690763D02*
X28969625Y-93643144D01*
X28969625Y-93643144D02*
X29064863Y-93595525D01*
X29064863Y-93595525D02*
X29160102Y-93500287D01*
X29160102Y-93500287D02*
X29207721Y-93357430D01*
X29207721Y-93357430D02*
X29207721Y-93262192D01*
X29207721Y-93262192D02*
X29160102Y-93119335D01*
X29160102Y-93119335D02*
X29112482Y-93071716D01*
X29112482Y-93071716D02*
X28779149Y-93071716D01*
X28779149Y-93071716D02*
X28779149Y-93262192D01*
X29207721Y-92643144D02*
X28207721Y-92643144D01*
X28207721Y-92643144D02*
X29207721Y-92071716D01*
X29207721Y-92071716D02*
X28207721Y-92071716D01*
X29207721Y-91595525D02*
X28207721Y-91595525D01*
X28207721Y-91595525D02*
X28207721Y-91357430D01*
X28207721Y-91357430D02*
X28255340Y-91214573D01*
X28255340Y-91214573D02*
X28350578Y-91119335D01*
X28350578Y-91119335D02*
X28445816Y-91071716D01*
X28445816Y-91071716D02*
X28636292Y-91024097D01*
X28636292Y-91024097D02*
X28779149Y-91024097D01*
X28779149Y-91024097D02*
X28969625Y-91071716D01*
X28969625Y-91071716D02*
X29064863Y-91119335D01*
X29064863Y-91119335D02*
X29160102Y-91214573D01*
X29160102Y-91214573D02*
X29207721Y-91357430D01*
X29207721Y-91357430D02*
X29207721Y-91595525D01*
X32046768Y-93643144D02*
X32046768Y-92881240D01*
X32427721Y-93262192D02*
X31665816Y-93262192D01*
X31427721Y-91928859D02*
X31427721Y-92405049D01*
X31427721Y-92405049D02*
X31903911Y-92452668D01*
X31903911Y-92452668D02*
X31856292Y-92405049D01*
X31856292Y-92405049D02*
X31808673Y-92309811D01*
X31808673Y-92309811D02*
X31808673Y-92071716D01*
X31808673Y-92071716D02*
X31856292Y-91976478D01*
X31856292Y-91976478D02*
X31903911Y-91928859D01*
X31903911Y-91928859D02*
X31999149Y-91881240D01*
X31999149Y-91881240D02*
X32237244Y-91881240D01*
X32237244Y-91881240D02*
X32332482Y-91928859D01*
X32332482Y-91928859D02*
X32380102Y-91976478D01*
X32380102Y-91976478D02*
X32427721Y-92071716D01*
X32427721Y-92071716D02*
X32427721Y-92309811D01*
X32427721Y-92309811D02*
X32380102Y-92405049D01*
X32380102Y-92405049D02*
X32332482Y-92452668D01*
X31427721Y-91595525D02*
X32427721Y-91262192D01*
X32427721Y-91262192D02*
X31427721Y-90928859D01*
D12*
X77254510Y-60100114D02*
X77468796Y-60171542D01*
X77468796Y-60171542D02*
X77540225Y-60242971D01*
X77540225Y-60242971D02*
X77611653Y-60385828D01*
X77611653Y-60385828D02*
X77611653Y-60600114D01*
X77611653Y-60600114D02*
X77540225Y-60742971D01*
X77540225Y-60742971D02*
X77468796Y-60814400D01*
X77468796Y-60814400D02*
X77325939Y-60885828D01*
X77325939Y-60885828D02*
X76754510Y-60885828D01*
X76754510Y-60885828D02*
X76754510Y-59385828D01*
X76754510Y-59385828D02*
X77254510Y-59385828D01*
X77254510Y-59385828D02*
X77397368Y-59457257D01*
X77397368Y-59457257D02*
X77468796Y-59528685D01*
X77468796Y-59528685D02*
X77540225Y-59671542D01*
X77540225Y-59671542D02*
X77540225Y-59814400D01*
X77540225Y-59814400D02*
X77468796Y-59957257D01*
X77468796Y-59957257D02*
X77397368Y-60028685D01*
X77397368Y-60028685D02*
X77254510Y-60100114D01*
X77254510Y-60100114D02*
X76754510Y-60100114D01*
X78111653Y-59885828D02*
X78468796Y-60885828D01*
X78825939Y-59885828D02*
X78468796Y-60885828D01*
X78468796Y-60885828D02*
X78325939Y-61242971D01*
X78325939Y-61242971D02*
X78254510Y-61314400D01*
X78254510Y-61314400D02*
X78111653Y-61385828D01*
X80468796Y-60457257D02*
X81183082Y-60457257D01*
X80325939Y-60885828D02*
X80825939Y-59385828D01*
X80825939Y-59385828D02*
X81325939Y-60885828D01*
X82254510Y-59385828D02*
X82254510Y-60457257D01*
X82254510Y-60457257D02*
X82183081Y-60671542D01*
X82183081Y-60671542D02*
X82040224Y-60814400D01*
X82040224Y-60814400D02*
X81825938Y-60885828D01*
X81825938Y-60885828D02*
X81683081Y-60885828D01*
X84611652Y-60100114D02*
X84111652Y-60100114D01*
X84111652Y-60885828D02*
X84111652Y-59385828D01*
X84111652Y-59385828D02*
X84825938Y-59385828D01*
X85397366Y-60885828D02*
X85397366Y-59885828D01*
X85397366Y-59385828D02*
X85325938Y-59457257D01*
X85325938Y-59457257D02*
X85397366Y-59528685D01*
X85397366Y-59528685D02*
X85468795Y-59457257D01*
X85468795Y-59457257D02*
X85397366Y-59385828D01*
X85397366Y-59385828D02*
X85397366Y-59528685D01*
X85897367Y-59885828D02*
X86468795Y-59885828D01*
X86111652Y-59385828D02*
X86111652Y-60671542D01*
X86111652Y-60671542D02*
X86183081Y-60814400D01*
X86183081Y-60814400D02*
X86325938Y-60885828D01*
X86325938Y-60885828D02*
X86468795Y-60885828D01*
X87540224Y-60814400D02*
X87397367Y-60885828D01*
X87397367Y-60885828D02*
X87111653Y-60885828D01*
X87111653Y-60885828D02*
X86968795Y-60814400D01*
X86968795Y-60814400D02*
X86897367Y-60671542D01*
X86897367Y-60671542D02*
X86897367Y-60100114D01*
X86897367Y-60100114D02*
X86968795Y-59957257D01*
X86968795Y-59957257D02*
X87111653Y-59885828D01*
X87111653Y-59885828D02*
X87397367Y-59885828D01*
X87397367Y-59885828D02*
X87540224Y-59957257D01*
X87540224Y-59957257D02*
X87611653Y-60100114D01*
X87611653Y-60100114D02*
X87611653Y-60242971D01*
X87611653Y-60242971D02*
X86897367Y-60385828D01*
X77397368Y-63300828D02*
X77397368Y-62515114D01*
X77397368Y-62515114D02*
X77325939Y-62372257D01*
X77325939Y-62372257D02*
X77183082Y-62300828D01*
X77183082Y-62300828D02*
X76897368Y-62300828D01*
X76897368Y-62300828D02*
X76754510Y-62372257D01*
X77397368Y-63229400D02*
X77254510Y-63300828D01*
X77254510Y-63300828D02*
X76897368Y-63300828D01*
X76897368Y-63300828D02*
X76754510Y-63229400D01*
X76754510Y-63229400D02*
X76683082Y-63086542D01*
X76683082Y-63086542D02*
X76683082Y-62943685D01*
X76683082Y-62943685D02*
X76754510Y-62800828D01*
X76754510Y-62800828D02*
X76897368Y-62729400D01*
X76897368Y-62729400D02*
X77254510Y-62729400D01*
X77254510Y-62729400D02*
X77397368Y-62657971D01*
X78111653Y-62300828D02*
X78111653Y-63586542D01*
X78111653Y-63586542D02*
X78040225Y-63729400D01*
X78040225Y-63729400D02*
X77897368Y-63800828D01*
X77897368Y-63800828D02*
X77825939Y-63800828D01*
X78111653Y-61800828D02*
X78040225Y-61872257D01*
X78040225Y-61872257D02*
X78111653Y-61943685D01*
X78111653Y-61943685D02*
X78183082Y-61872257D01*
X78183082Y-61872257D02*
X78111653Y-61800828D01*
X78111653Y-61800828D02*
X78111653Y-61943685D01*
X78611654Y-62300828D02*
X79183082Y-62300828D01*
X78825939Y-63300828D02*
X78825939Y-62015114D01*
X78825939Y-62015114D02*
X78897368Y-61872257D01*
X78897368Y-61872257D02*
X79040225Y-61800828D01*
X79040225Y-61800828D02*
X79183082Y-61800828D01*
X79683082Y-63300828D02*
X79683082Y-62300828D01*
X79683082Y-61800828D02*
X79611654Y-61872257D01*
X79611654Y-61872257D02*
X79683082Y-61943685D01*
X79683082Y-61943685D02*
X79754511Y-61872257D01*
X79754511Y-61872257D02*
X79683082Y-61800828D01*
X79683082Y-61800828D02*
X79683082Y-61943685D01*
X80183083Y-62300828D02*
X80754511Y-62300828D01*
X80397368Y-61800828D02*
X80397368Y-63086542D01*
X80397368Y-63086542D02*
X80468797Y-63229400D01*
X80468797Y-63229400D02*
X80611654Y-63300828D01*
X80611654Y-63300828D02*
X80754511Y-63300828D01*
X81825940Y-63229400D02*
X81683083Y-63300828D01*
X81683083Y-63300828D02*
X81397369Y-63300828D01*
X81397369Y-63300828D02*
X81254511Y-63229400D01*
X81254511Y-63229400D02*
X81183083Y-63086542D01*
X81183083Y-63086542D02*
X81183083Y-62515114D01*
X81183083Y-62515114D02*
X81254511Y-62372257D01*
X81254511Y-62372257D02*
X81397369Y-62300828D01*
X81397369Y-62300828D02*
X81683083Y-62300828D01*
X81683083Y-62300828D02*
X81825940Y-62372257D01*
X81825940Y-62372257D02*
X81897369Y-62515114D01*
X81897369Y-62515114D02*
X81897369Y-62657971D01*
X81897369Y-62657971D02*
X81183083Y-62800828D01*
X82540225Y-63157971D02*
X82611654Y-63229400D01*
X82611654Y-63229400D02*
X82540225Y-63300828D01*
X82540225Y-63300828D02*
X82468797Y-63229400D01*
X82468797Y-63229400D02*
X82540225Y-63157971D01*
X82540225Y-63157971D02*
X82540225Y-63300828D01*
X83897369Y-63229400D02*
X83754511Y-63300828D01*
X83754511Y-63300828D02*
X83468797Y-63300828D01*
X83468797Y-63300828D02*
X83325940Y-63229400D01*
X83325940Y-63229400D02*
X83254511Y-63157971D01*
X83254511Y-63157971D02*
X83183083Y-63015114D01*
X83183083Y-63015114D02*
X83183083Y-62586542D01*
X83183083Y-62586542D02*
X83254511Y-62443685D01*
X83254511Y-62443685D02*
X83325940Y-62372257D01*
X83325940Y-62372257D02*
X83468797Y-62300828D01*
X83468797Y-62300828D02*
X83754511Y-62300828D01*
X83754511Y-62300828D02*
X83897369Y-62372257D01*
X84754511Y-63300828D02*
X84611654Y-63229400D01*
X84611654Y-63229400D02*
X84540225Y-63157971D01*
X84540225Y-63157971D02*
X84468797Y-63015114D01*
X84468797Y-63015114D02*
X84468797Y-62586542D01*
X84468797Y-62586542D02*
X84540225Y-62443685D01*
X84540225Y-62443685D02*
X84611654Y-62372257D01*
X84611654Y-62372257D02*
X84754511Y-62300828D01*
X84754511Y-62300828D02*
X84968797Y-62300828D01*
X84968797Y-62300828D02*
X85111654Y-62372257D01*
X85111654Y-62372257D02*
X85183083Y-62443685D01*
X85183083Y-62443685D02*
X85254511Y-62586542D01*
X85254511Y-62586542D02*
X85254511Y-63015114D01*
X85254511Y-63015114D02*
X85183083Y-63157971D01*
X85183083Y-63157971D02*
X85111654Y-63229400D01*
X85111654Y-63229400D02*
X84968797Y-63300828D01*
X84968797Y-63300828D02*
X84754511Y-63300828D01*
X85897368Y-63300828D02*
X85897368Y-62300828D01*
X85897368Y-62443685D02*
X85968797Y-62372257D01*
X85968797Y-62372257D02*
X86111654Y-62300828D01*
X86111654Y-62300828D02*
X86325940Y-62300828D01*
X86325940Y-62300828D02*
X86468797Y-62372257D01*
X86468797Y-62372257D02*
X86540226Y-62515114D01*
X86540226Y-62515114D02*
X86540226Y-63300828D01*
X86540226Y-62515114D02*
X86611654Y-62372257D01*
X86611654Y-62372257D02*
X86754511Y-62300828D01*
X86754511Y-62300828D02*
X86968797Y-62300828D01*
X86968797Y-62300828D02*
X87111654Y-62372257D01*
X87111654Y-62372257D02*
X87183083Y-62515114D01*
X87183083Y-62515114D02*
X87183083Y-63300828D01*
D13*
%TO.C,U2*%
X94999819Y-73816904D02*
X95809342Y-73816904D01*
X95809342Y-73816904D02*
X95904580Y-73769285D01*
X95904580Y-73769285D02*
X95952200Y-73721666D01*
X95952200Y-73721666D02*
X95999819Y-73626428D01*
X95999819Y-73626428D02*
X95999819Y-73435952D01*
X95999819Y-73435952D02*
X95952200Y-73340714D01*
X95952200Y-73340714D02*
X95904580Y-73293095D01*
X95904580Y-73293095D02*
X95809342Y-73245476D01*
X95809342Y-73245476D02*
X94999819Y-73245476D01*
X95095057Y-72816904D02*
X95047438Y-72769285D01*
X95047438Y-72769285D02*
X94999819Y-72674047D01*
X94999819Y-72674047D02*
X94999819Y-72435952D01*
X94999819Y-72435952D02*
X95047438Y-72340714D01*
X95047438Y-72340714D02*
X95095057Y-72293095D01*
X95095057Y-72293095D02*
X95190295Y-72245476D01*
X95190295Y-72245476D02*
X95285533Y-72245476D01*
X95285533Y-72245476D02*
X95428390Y-72293095D01*
X95428390Y-72293095D02*
X95999819Y-72864523D01*
X95999819Y-72864523D02*
X95999819Y-72245476D01*
%TO.C,U1*%
X72519819Y-71566904D02*
X73329342Y-71566904D01*
X73329342Y-71566904D02*
X73424580Y-71519285D01*
X73424580Y-71519285D02*
X73472200Y-71471666D01*
X73472200Y-71471666D02*
X73519819Y-71376428D01*
X73519819Y-71376428D02*
X73519819Y-71185952D01*
X73519819Y-71185952D02*
X73472200Y-71090714D01*
X73472200Y-71090714D02*
X73424580Y-71043095D01*
X73424580Y-71043095D02*
X73329342Y-70995476D01*
X73329342Y-70995476D02*
X72519819Y-70995476D01*
X73519819Y-69995476D02*
X73519819Y-70566904D01*
X73519819Y-70281190D02*
X72519819Y-70281190D01*
X72519819Y-70281190D02*
X72662676Y-70376428D01*
X72662676Y-70376428D02*
X72757914Y-70471666D01*
X72757914Y-70471666D02*
X72805533Y-70566904D01*
%TO.C,R1*%
X83653333Y-75824819D02*
X83320000Y-75348628D01*
X83081905Y-75824819D02*
X83081905Y-74824819D01*
X83081905Y-74824819D02*
X83462857Y-74824819D01*
X83462857Y-74824819D02*
X83558095Y-74872438D01*
X83558095Y-74872438D02*
X83605714Y-74920057D01*
X83605714Y-74920057D02*
X83653333Y-75015295D01*
X83653333Y-75015295D02*
X83653333Y-75158152D01*
X83653333Y-75158152D02*
X83605714Y-75253390D01*
X83605714Y-75253390D02*
X83558095Y-75301009D01*
X83558095Y-75301009D02*
X83462857Y-75348628D01*
X83462857Y-75348628D02*
X83081905Y-75348628D01*
X84605714Y-75824819D02*
X84034286Y-75824819D01*
X84320000Y-75824819D02*
X84320000Y-74824819D01*
X84320000Y-74824819D02*
X84224762Y-74967676D01*
X84224762Y-74967676D02*
X84129524Y-75062914D01*
X84129524Y-75062914D02*
X84034286Y-75110533D01*
%TO.C,J3*%
X93644819Y-90503333D02*
X94359104Y-90503333D01*
X94359104Y-90503333D02*
X94501961Y-90550952D01*
X94501961Y-90550952D02*
X94597200Y-90646190D01*
X94597200Y-90646190D02*
X94644819Y-90789047D01*
X94644819Y-90789047D02*
X94644819Y-90884285D01*
X93644819Y-90122380D02*
X93644819Y-89503333D01*
X93644819Y-89503333D02*
X94025771Y-89836666D01*
X94025771Y-89836666D02*
X94025771Y-89693809D01*
X94025771Y-89693809D02*
X94073390Y-89598571D01*
X94073390Y-89598571D02*
X94121009Y-89550952D01*
X94121009Y-89550952D02*
X94216247Y-89503333D01*
X94216247Y-89503333D02*
X94454342Y-89503333D01*
X94454342Y-89503333D02*
X94549580Y-89550952D01*
X94549580Y-89550952D02*
X94597200Y-89598571D01*
X94597200Y-89598571D02*
X94644819Y-89693809D01*
X94644819Y-89693809D02*
X94644819Y-89979523D01*
X94644819Y-89979523D02*
X94597200Y-90074761D01*
X94597200Y-90074761D02*
X94549580Y-90122380D01*
%TO.C,J2*%
X93644819Y-100663333D02*
X94359104Y-100663333D01*
X94359104Y-100663333D02*
X94501961Y-100710952D01*
X94501961Y-100710952D02*
X94597200Y-100806190D01*
X94597200Y-100806190D02*
X94644819Y-100949047D01*
X94644819Y-100949047D02*
X94644819Y-101044285D01*
X93740057Y-100234761D02*
X93692438Y-100187142D01*
X93692438Y-100187142D02*
X93644819Y-100091904D01*
X93644819Y-100091904D02*
X93644819Y-99853809D01*
X93644819Y-99853809D02*
X93692438Y-99758571D01*
X93692438Y-99758571D02*
X93740057Y-99710952D01*
X93740057Y-99710952D02*
X93835295Y-99663333D01*
X93835295Y-99663333D02*
X93930533Y-99663333D01*
X93930533Y-99663333D02*
X94073390Y-99710952D01*
X94073390Y-99710952D02*
X94644819Y-100282380D01*
X94644819Y-100282380D02*
X94644819Y-99663333D01*
%TO.C,R4*%
X40264819Y-68746666D02*
X39788628Y-69079999D01*
X40264819Y-69318094D02*
X39264819Y-69318094D01*
X39264819Y-69318094D02*
X39264819Y-68937142D01*
X39264819Y-68937142D02*
X39312438Y-68841904D01*
X39312438Y-68841904D02*
X39360057Y-68794285D01*
X39360057Y-68794285D02*
X39455295Y-68746666D01*
X39455295Y-68746666D02*
X39598152Y-68746666D01*
X39598152Y-68746666D02*
X39693390Y-68794285D01*
X39693390Y-68794285D02*
X39741009Y-68841904D01*
X39741009Y-68841904D02*
X39788628Y-68937142D01*
X39788628Y-68937142D02*
X39788628Y-69318094D01*
X39598152Y-67889523D02*
X40264819Y-67889523D01*
X39217200Y-68127618D02*
X39931485Y-68365713D01*
X39931485Y-68365713D02*
X39931485Y-67746666D01*
%TO.C,R3*%
X62637455Y-64907583D02*
X62304122Y-64431392D01*
X62066027Y-64907583D02*
X62066027Y-63907583D01*
X62066027Y-63907583D02*
X62446979Y-63907583D01*
X62446979Y-63907583D02*
X62542217Y-63955202D01*
X62542217Y-63955202D02*
X62589836Y-64002821D01*
X62589836Y-64002821D02*
X62637455Y-64098059D01*
X62637455Y-64098059D02*
X62637455Y-64240916D01*
X62637455Y-64240916D02*
X62589836Y-64336154D01*
X62589836Y-64336154D02*
X62542217Y-64383773D01*
X62542217Y-64383773D02*
X62446979Y-64431392D01*
X62446979Y-64431392D02*
X62066027Y-64431392D01*
X62970789Y-63907583D02*
X63589836Y-63907583D01*
X63589836Y-63907583D02*
X63256503Y-64288535D01*
X63256503Y-64288535D02*
X63399360Y-64288535D01*
X63399360Y-64288535D02*
X63494598Y-64336154D01*
X63494598Y-64336154D02*
X63542217Y-64383773D01*
X63542217Y-64383773D02*
X63589836Y-64479011D01*
X63589836Y-64479011D02*
X63589836Y-64717106D01*
X63589836Y-64717106D02*
X63542217Y-64812344D01*
X63542217Y-64812344D02*
X63494598Y-64859964D01*
X63494598Y-64859964D02*
X63399360Y-64907583D01*
X63399360Y-64907583D02*
X63113646Y-64907583D01*
X63113646Y-64907583D02*
X63018408Y-64859964D01*
X63018408Y-64859964D02*
X62970789Y-64812344D01*
%TO.C,R2*%
X119004819Y-73826666D02*
X118528628Y-74159999D01*
X119004819Y-74398094D02*
X118004819Y-74398094D01*
X118004819Y-74398094D02*
X118004819Y-74017142D01*
X118004819Y-74017142D02*
X118052438Y-73921904D01*
X118052438Y-73921904D02*
X118100057Y-73874285D01*
X118100057Y-73874285D02*
X118195295Y-73826666D01*
X118195295Y-73826666D02*
X118338152Y-73826666D01*
X118338152Y-73826666D02*
X118433390Y-73874285D01*
X118433390Y-73874285D02*
X118481009Y-73921904D01*
X118481009Y-73921904D02*
X118528628Y-74017142D01*
X118528628Y-74017142D02*
X118528628Y-74398094D01*
X118100057Y-73445713D02*
X118052438Y-73398094D01*
X118052438Y-73398094D02*
X118004819Y-73302856D01*
X118004819Y-73302856D02*
X118004819Y-73064761D01*
X118004819Y-73064761D02*
X118052438Y-72969523D01*
X118052438Y-72969523D02*
X118100057Y-72921904D01*
X118100057Y-72921904D02*
X118195295Y-72874285D01*
X118195295Y-72874285D02*
X118290533Y-72874285D01*
X118290533Y-72874285D02*
X118433390Y-72921904D01*
X118433390Y-72921904D02*
X119004819Y-73493332D01*
X119004819Y-73493332D02*
X119004819Y-72874285D01*
%TO.C,J6*%
X19544819Y-96853333D02*
X20259104Y-96853333D01*
X20259104Y-96853333D02*
X20401961Y-96900952D01*
X20401961Y-96900952D02*
X20497200Y-96996190D01*
X20497200Y-96996190D02*
X20544819Y-97139047D01*
X20544819Y-97139047D02*
X20544819Y-97234285D01*
X19544819Y-95948571D02*
X19544819Y-96139047D01*
X19544819Y-96139047D02*
X19592438Y-96234285D01*
X19592438Y-96234285D02*
X19640057Y-96281904D01*
X19640057Y-96281904D02*
X19782914Y-96377142D01*
X19782914Y-96377142D02*
X19973390Y-96424761D01*
X19973390Y-96424761D02*
X20354342Y-96424761D01*
X20354342Y-96424761D02*
X20449580Y-96377142D01*
X20449580Y-96377142D02*
X20497200Y-96329523D01*
X20497200Y-96329523D02*
X20544819Y-96234285D01*
X20544819Y-96234285D02*
X20544819Y-96043809D01*
X20544819Y-96043809D02*
X20497200Y-95948571D01*
X20497200Y-95948571D02*
X20449580Y-95900952D01*
X20449580Y-95900952D02*
X20354342Y-95853333D01*
X20354342Y-95853333D02*
X20116247Y-95853333D01*
X20116247Y-95853333D02*
X20021009Y-95900952D01*
X20021009Y-95900952D02*
X19973390Y-95948571D01*
X19973390Y-95948571D02*
X19925771Y-96043809D01*
X19925771Y-96043809D02*
X19925771Y-96234285D01*
X19925771Y-96234285D02*
X19973390Y-96329523D01*
X19973390Y-96329523D02*
X20021009Y-96377142D01*
X20021009Y-96377142D02*
X20116247Y-96424761D01*
%TO.C,J5*%
X19544819Y-71453333D02*
X20259104Y-71453333D01*
X20259104Y-71453333D02*
X20401961Y-71500952D01*
X20401961Y-71500952D02*
X20497200Y-71596190D01*
X20497200Y-71596190D02*
X20544819Y-71739047D01*
X20544819Y-71739047D02*
X20544819Y-71834285D01*
X19544819Y-70500952D02*
X19544819Y-70977142D01*
X19544819Y-70977142D02*
X20021009Y-71024761D01*
X20021009Y-71024761D02*
X19973390Y-70977142D01*
X19973390Y-70977142D02*
X19925771Y-70881904D01*
X19925771Y-70881904D02*
X19925771Y-70643809D01*
X19925771Y-70643809D02*
X19973390Y-70548571D01*
X19973390Y-70548571D02*
X20021009Y-70500952D01*
X20021009Y-70500952D02*
X20116247Y-70453333D01*
X20116247Y-70453333D02*
X20354342Y-70453333D01*
X20354342Y-70453333D02*
X20449580Y-70500952D01*
X20449580Y-70500952D02*
X20497200Y-70548571D01*
X20497200Y-70548571D02*
X20544819Y-70643809D01*
X20544819Y-70643809D02*
X20544819Y-70881904D01*
X20544819Y-70881904D02*
X20497200Y-70977142D01*
X20497200Y-70977142D02*
X20449580Y-71024761D01*
%TO.C,J4*%
X83064819Y-90503333D02*
X83779104Y-90503333D01*
X83779104Y-90503333D02*
X83921961Y-90550952D01*
X83921961Y-90550952D02*
X84017200Y-90646190D01*
X84017200Y-90646190D02*
X84064819Y-90789047D01*
X84064819Y-90789047D02*
X84064819Y-90884285D01*
X83398152Y-89598571D02*
X84064819Y-89598571D01*
X83017200Y-89836666D02*
X83731485Y-90074761D01*
X83731485Y-90074761D02*
X83731485Y-89455714D01*
%TO.C,J1*%
X83064819Y-100663333D02*
X83779104Y-100663333D01*
X83779104Y-100663333D02*
X83921961Y-100710952D01*
X83921961Y-100710952D02*
X84017200Y-100806190D01*
X84017200Y-100806190D02*
X84064819Y-100949047D01*
X84064819Y-100949047D02*
X84064819Y-101044285D01*
X84064819Y-99663333D02*
X84064819Y-100234761D01*
X84064819Y-99949047D02*
X83064819Y-99949047D01*
X83064819Y-99949047D02*
X83207676Y-100044285D01*
X83207676Y-100044285D02*
X83302914Y-100139523D01*
X83302914Y-100139523D02*
X83350533Y-100234761D01*
%TO.C,C2*%
X88049580Y-72286666D02*
X88097200Y-72334285D01*
X88097200Y-72334285D02*
X88144819Y-72477142D01*
X88144819Y-72477142D02*
X88144819Y-72572380D01*
X88144819Y-72572380D02*
X88097200Y-72715237D01*
X88097200Y-72715237D02*
X88001961Y-72810475D01*
X88001961Y-72810475D02*
X87906723Y-72858094D01*
X87906723Y-72858094D02*
X87716247Y-72905713D01*
X87716247Y-72905713D02*
X87573390Y-72905713D01*
X87573390Y-72905713D02*
X87382914Y-72858094D01*
X87382914Y-72858094D02*
X87287676Y-72810475D01*
X87287676Y-72810475D02*
X87192438Y-72715237D01*
X87192438Y-72715237D02*
X87144819Y-72572380D01*
X87144819Y-72572380D02*
X87144819Y-72477142D01*
X87144819Y-72477142D02*
X87192438Y-72334285D01*
X87192438Y-72334285D02*
X87240057Y-72286666D01*
X87240057Y-71905713D02*
X87192438Y-71858094D01*
X87192438Y-71858094D02*
X87144819Y-71762856D01*
X87144819Y-71762856D02*
X87144819Y-71524761D01*
X87144819Y-71524761D02*
X87192438Y-71429523D01*
X87192438Y-71429523D02*
X87240057Y-71381904D01*
X87240057Y-71381904D02*
X87335295Y-71334285D01*
X87335295Y-71334285D02*
X87430533Y-71334285D01*
X87430533Y-71334285D02*
X87573390Y-71381904D01*
X87573390Y-71381904D02*
X88144819Y-71953332D01*
X88144819Y-71953332D02*
X88144819Y-71334285D01*
%TO.C,C1*%
X75349580Y-72286666D02*
X75397200Y-72334285D01*
X75397200Y-72334285D02*
X75444819Y-72477142D01*
X75444819Y-72477142D02*
X75444819Y-72572380D01*
X75444819Y-72572380D02*
X75397200Y-72715237D01*
X75397200Y-72715237D02*
X75301961Y-72810475D01*
X75301961Y-72810475D02*
X75206723Y-72858094D01*
X75206723Y-72858094D02*
X75016247Y-72905713D01*
X75016247Y-72905713D02*
X74873390Y-72905713D01*
X74873390Y-72905713D02*
X74682914Y-72858094D01*
X74682914Y-72858094D02*
X74587676Y-72810475D01*
X74587676Y-72810475D02*
X74492438Y-72715237D01*
X74492438Y-72715237D02*
X74444819Y-72572380D01*
X74444819Y-72572380D02*
X74444819Y-72477142D01*
X74444819Y-72477142D02*
X74492438Y-72334285D01*
X74492438Y-72334285D02*
X74540057Y-72286666D01*
X75444819Y-71334285D02*
X75444819Y-71905713D01*
X75444819Y-71619999D02*
X74444819Y-71619999D01*
X74444819Y-71619999D02*
X74587676Y-71715237D01*
X74587676Y-71715237D02*
X74682914Y-71810475D01*
X74682914Y-71810475D02*
X74730533Y-71905713D01*
D14*
%TO.C,U2*%
X116525000Y-75530000D02*
X115205000Y-75530000D01*
X116525000Y-68930000D02*
X116525000Y-75530000D01*
X115205000Y-68930000D02*
X116525000Y-68930000D01*
X96835000Y-68930000D02*
X98155000Y-68930000D01*
X96835000Y-75530000D02*
X96835000Y-68930000D01*
X98155000Y-75530000D02*
X96835000Y-75530000D01*
D10*
X99160000Y-77285000D02*
G75*
G03*
X99160000Y-77285000I-100000J0D01*
G01*
%TO.C,U1*%
X71220000Y-67195000D02*
G75*
G03*
X71220000Y-67195000I-100000J0D01*
G01*
D14*
X72005000Y-69055000D02*
X72005000Y-75405000D01*
X52455000Y-69055000D02*
X52455000Y-75405000D01*
D15*
%TO.C,TP3*%
X42090000Y-79830000D02*
X42090000Y-82730000D01*
X39190000Y-79830000D02*
X42090000Y-79830000D01*
X42090000Y-82730000D02*
X39190000Y-82730000D01*
X39190000Y-82730000D02*
X39190000Y-79830000D01*
%TO.C,TP2*%
X34470000Y-79830000D02*
X34470000Y-82730000D01*
X31570000Y-79830000D02*
X34470000Y-79830000D01*
X34470000Y-82730000D02*
X31570000Y-82730000D01*
X31570000Y-82730000D02*
X31570000Y-79830000D01*
%TO.C,TP1*%
X21410000Y-82730000D02*
X21410000Y-79830000D01*
X24310000Y-82730000D02*
X21410000Y-82730000D01*
X21410000Y-79830000D02*
X24310000Y-79830000D01*
X24310000Y-79830000D02*
X24310000Y-82730000D01*
%TO.C,R1*%
X90000000Y-78740000D02*
X89890000Y-78740000D01*
X77640000Y-78740000D02*
X77750000Y-78740000D01*
X77750000Y-76370000D02*
X77750000Y-81110000D01*
X89890000Y-76370000D02*
X77750000Y-76370000D01*
X89890000Y-81110000D02*
X89890000Y-76370000D01*
X77750000Y-81110000D02*
X89890000Y-81110000D01*
%TO.C,J3*%
X97790000Y-90170000D02*
X95190000Y-90170000D01*
X97790000Y-92770000D02*
X120710000Y-92770000D01*
X95190000Y-92770000D02*
X95190000Y-91440000D01*
X120710000Y-92770000D02*
X120710000Y-87570000D01*
X95190000Y-90170000D02*
X95190000Y-87570000D01*
X96520000Y-92770000D02*
X95190000Y-92770000D01*
X97790000Y-92770000D02*
X97790000Y-90170000D01*
X95190000Y-87570000D02*
X120710000Y-87570000D01*
%TO.C,J2*%
X97790000Y-100330000D02*
X95190000Y-100330000D01*
X97790000Y-102930000D02*
X120710000Y-102930000D01*
X95190000Y-102930000D02*
X95190000Y-101600000D01*
X120710000Y-102930000D02*
X120710000Y-97730000D01*
X95190000Y-100330000D02*
X95190000Y-97730000D01*
X96520000Y-102930000D02*
X95190000Y-102930000D01*
X97790000Y-102930000D02*
X97790000Y-100330000D01*
X95190000Y-97730000D02*
X120710000Y-97730000D01*
%TO.C,R4*%
X45550000Y-74650000D02*
X45550000Y-62510000D01*
X45550000Y-62510000D02*
X40810000Y-62510000D01*
X40810000Y-62510000D02*
X40810000Y-74650000D01*
X40810000Y-74650000D02*
X45550000Y-74650000D01*
X43180000Y-74760000D02*
X43180000Y-74650000D01*
X43180000Y-62400000D02*
X43180000Y-62510000D01*
%TO.C,R3*%
X52350000Y-63330000D02*
X64490000Y-63330000D01*
X64490000Y-63330000D02*
X64490000Y-58590000D01*
X64490000Y-58590000D02*
X52350000Y-58590000D01*
X52350000Y-58590000D02*
X52350000Y-63330000D01*
X52240000Y-60960000D02*
X52350000Y-60960000D01*
X64600000Y-60960000D02*
X64490000Y-60960000D01*
%TO.C,R2*%
X124290000Y-79730000D02*
X124290000Y-67590000D01*
X124290000Y-67590000D02*
X119550000Y-67590000D01*
X119550000Y-67590000D02*
X119550000Y-79730000D01*
X119550000Y-79730000D02*
X124290000Y-79730000D01*
X121920000Y-79840000D02*
X121920000Y-79730000D01*
X121920000Y-67480000D02*
X121920000Y-67590000D01*
%TO.C,J6*%
X21530000Y-96520000D02*
X21530000Y-95190000D01*
X21530000Y-95190000D02*
X22860000Y-95190000D01*
X24130000Y-97850000D02*
X31810000Y-97850000D01*
X24130000Y-97850000D02*
X24130000Y-95190000D01*
X24130000Y-95190000D02*
X31810000Y-95190000D01*
X31810000Y-97850000D02*
X31810000Y-95190000D01*
%TO.C,J5*%
X21530000Y-71120000D02*
X21530000Y-69790000D01*
X21530000Y-69790000D02*
X22860000Y-69790000D01*
X24130000Y-72450000D02*
X31810000Y-72450000D01*
X24130000Y-72450000D02*
X24130000Y-69790000D01*
X24130000Y-69790000D02*
X31810000Y-69790000D01*
X31810000Y-72450000D02*
X31810000Y-69790000D01*
%TO.C,J4*%
X81280000Y-87570000D02*
X82610000Y-87570000D01*
X82610000Y-90170000D02*
X82610000Y-92770000D01*
X82610000Y-87570000D02*
X82610000Y-88900000D01*
X80010000Y-87570000D02*
X39310000Y-87570000D01*
X39310000Y-87570000D02*
X39310000Y-92770000D01*
X80010000Y-90170000D02*
X82610000Y-90170000D01*
X82610000Y-92770000D02*
X39310000Y-92770000D01*
X80010000Y-87570000D02*
X80010000Y-90170000D01*
%TO.C,J1*%
X81280000Y-97730000D02*
X82610000Y-97730000D01*
X82610000Y-100330000D02*
X82610000Y-102930000D01*
X82610000Y-97730000D02*
X82610000Y-99060000D01*
X80010000Y-97730000D02*
X39310000Y-97730000D01*
X39310000Y-97730000D02*
X39310000Y-102930000D01*
X80010000Y-100330000D02*
X82610000Y-100330000D01*
X82610000Y-102930000D02*
X39310000Y-102930000D01*
X80010000Y-97730000D02*
X80010000Y-100330000D01*
%TO.C,C2*%
X92480000Y-70119000D02*
X93093000Y-70119000D01*
X92480000Y-70799000D02*
X93664000Y-70799000D01*
X92480000Y-71920000D02*
X94013000Y-71920000D01*
X89172000Y-70879000D02*
X90400000Y-70879000D01*
X89111000Y-70999000D02*
X90400000Y-70999000D01*
X89130000Y-70959000D02*
X90400000Y-70959000D01*
X89469000Y-70439000D02*
X90400000Y-70439000D01*
X92480000Y-70159000D02*
X93139000Y-70159000D01*
X92480000Y-70479000D02*
X93444000Y-70479000D01*
X88864000Y-71960000D02*
X90400000Y-71960000D01*
X89375000Y-70559000D02*
X90400000Y-70559000D01*
X92480000Y-72080000D02*
X94020000Y-72080000D01*
X92480000Y-71399000D02*
X93920000Y-71399000D01*
X89012000Y-71239000D02*
X90400000Y-71239000D01*
X89026000Y-71199000D02*
X90400000Y-71199000D01*
X89539000Y-70359000D02*
X90400000Y-70359000D01*
X88929000Y-71520000D02*
X90400000Y-71520000D01*
X92480000Y-71880000D02*
X94009000Y-71880000D01*
X92480000Y-71279000D02*
X93882000Y-71279000D01*
X92480000Y-71560000D02*
X93960000Y-71560000D01*
X92480000Y-70839000D02*
X93687000Y-70839000D01*
X92480000Y-70719000D02*
X93615000Y-70719000D01*
X92480000Y-72000000D02*
X94018000Y-72000000D01*
X88912000Y-71600000D02*
X90400000Y-71600000D01*
X89291000Y-70679000D02*
X90400000Y-70679000D01*
X89614000Y-70279000D02*
X90400000Y-70279000D01*
X89787000Y-70119000D02*
X90400000Y-70119000D01*
X92480000Y-71079000D02*
X93805000Y-71079000D01*
X88860000Y-72120000D02*
X90400000Y-72120000D01*
X88879000Y-71800000D02*
X90400000Y-71800000D01*
X89075000Y-71079000D02*
X90400000Y-71079000D01*
X88904000Y-71640000D02*
X90400000Y-71640000D01*
X90635000Y-69639000D02*
X92245000Y-69639000D01*
X90189000Y-69839000D02*
X92691000Y-69839000D01*
X89940000Y-69999000D02*
X92940000Y-69999000D01*
X92480000Y-71760000D02*
X93996000Y-71760000D01*
X92480000Y-71039000D02*
X93788000Y-71039000D01*
X90763000Y-69599000D02*
X92117000Y-69599000D01*
X92480000Y-70559000D02*
X93505000Y-70559000D01*
X92480000Y-70599000D02*
X93535000Y-70599000D01*
X88972000Y-71359000D02*
X90400000Y-71359000D01*
X92480000Y-71119000D02*
X93822000Y-71119000D01*
X92480000Y-71239000D02*
X93868000Y-71239000D01*
X89092000Y-71039000D02*
X90400000Y-71039000D01*
X92480000Y-70879000D02*
X93708000Y-70879000D01*
X89655000Y-70239000D02*
X90400000Y-70239000D01*
X89345000Y-70599000D02*
X90400000Y-70599000D01*
X92480000Y-71800000D02*
X94001000Y-71800000D01*
X92480000Y-71199000D02*
X93854000Y-71199000D01*
X92480000Y-71159000D02*
X93838000Y-71159000D01*
X92480000Y-71960000D02*
X94016000Y-71960000D01*
X89058000Y-71119000D02*
X90400000Y-71119000D01*
X88949000Y-71440000D02*
X90400000Y-71440000D01*
X90429000Y-69719000D02*
X92451000Y-69719000D01*
X89886000Y-70039000D02*
X92994000Y-70039000D01*
X90525000Y-69679000D02*
X92355000Y-69679000D01*
X89965000Y-74924775D02*
X89965000Y-74424775D01*
X92480000Y-72120000D02*
X94020000Y-72120000D01*
X88985000Y-71319000D02*
X90400000Y-71319000D01*
X89318000Y-70639000D02*
X90400000Y-70639000D01*
X92480000Y-70919000D02*
X93730000Y-70919000D01*
X89240000Y-70759000D02*
X90400000Y-70759000D01*
X89576000Y-70319000D02*
X90400000Y-70319000D01*
X92480000Y-70199000D02*
X93183000Y-70199000D01*
X90342000Y-69759000D02*
X92538000Y-69759000D01*
X88862000Y-72000000D02*
X90400000Y-72000000D01*
X88875000Y-71840000D02*
X90400000Y-71840000D01*
X88861000Y-72040000D02*
X90400000Y-72040000D01*
X88867000Y-71920000D02*
X90400000Y-71920000D01*
X92480000Y-70319000D02*
X93304000Y-70319000D01*
X92480000Y-70999000D02*
X93769000Y-70999000D01*
X90922000Y-69559000D02*
X91958000Y-69559000D01*
X91156000Y-69519000D02*
X91724000Y-69519000D01*
X92480000Y-71520000D02*
X93951000Y-71520000D01*
X92480000Y-70399000D02*
X93377000Y-70399000D01*
X92480000Y-70959000D02*
X93750000Y-70959000D01*
X92480000Y-71720000D02*
X93990000Y-71720000D01*
X90121000Y-69879000D02*
X92759000Y-69879000D01*
X90057000Y-69919000D02*
X92823000Y-69919000D01*
X89042000Y-71159000D02*
X90400000Y-71159000D01*
X89193000Y-70839000D02*
X90400000Y-70839000D01*
X90262000Y-69799000D02*
X92618000Y-69799000D01*
X92480000Y-70759000D02*
X93640000Y-70759000D01*
X89697000Y-70199000D02*
X90400000Y-70199000D01*
X89405000Y-70519000D02*
X90400000Y-70519000D01*
X89835000Y-70079000D02*
X93045000Y-70079000D01*
X92480000Y-70639000D02*
X93562000Y-70639000D01*
X92480000Y-71359000D02*
X93908000Y-71359000D01*
X92480000Y-71600000D02*
X93968000Y-71600000D01*
X88998000Y-71279000D02*
X90400000Y-71279000D01*
X88884000Y-71760000D02*
X90400000Y-71760000D01*
X92480000Y-71680000D02*
X93983000Y-71680000D01*
X89997000Y-69959000D02*
X92883000Y-69959000D01*
X92480000Y-70279000D02*
X93266000Y-70279000D01*
X92480000Y-71319000D02*
X93895000Y-71319000D01*
X92480000Y-71840000D02*
X94005000Y-71840000D01*
X92480000Y-72040000D02*
X94019000Y-72040000D01*
X92480000Y-71440000D02*
X93931000Y-71440000D01*
X92480000Y-70239000D02*
X93225000Y-70239000D01*
X88960000Y-71399000D02*
X90400000Y-71399000D01*
X89436000Y-70479000D02*
X90400000Y-70479000D01*
X92480000Y-70679000D02*
X93589000Y-70679000D01*
X89265000Y-70719000D02*
X90400000Y-70719000D01*
X89150000Y-70919000D02*
X90400000Y-70919000D01*
X88871000Y-71880000D02*
X90400000Y-71880000D01*
X89503000Y-70399000D02*
X90400000Y-70399000D01*
X88897000Y-71680000D02*
X90400000Y-71680000D01*
X92480000Y-71480000D02*
X93941000Y-71480000D01*
X89216000Y-70799000D02*
X90400000Y-70799000D01*
X89715000Y-74674775D02*
X90215000Y-74674775D01*
X88890000Y-71720000D02*
X90400000Y-71720000D01*
X92480000Y-70439000D02*
X93411000Y-70439000D01*
X92480000Y-71640000D02*
X93976000Y-71640000D01*
X88920000Y-71560000D02*
X90400000Y-71560000D01*
X92480000Y-70519000D02*
X93475000Y-70519000D01*
X92480000Y-70359000D02*
X93341000Y-70359000D01*
X88860000Y-72080000D02*
X90400000Y-72080000D01*
X88939000Y-71480000D02*
X90400000Y-71480000D01*
X89741000Y-70159000D02*
X90400000Y-70159000D01*
X94060000Y-72120000D02*
G75*
G03*
X94060000Y-72120000I-2620000J0D01*
G01*
%TO.C,C1*%
X79780000Y-70119000D02*
X80393000Y-70119000D01*
X79780000Y-70799000D02*
X80964000Y-70799000D01*
X79780000Y-71920000D02*
X81313000Y-71920000D01*
X76472000Y-70879000D02*
X77700000Y-70879000D01*
X76411000Y-70999000D02*
X77700000Y-70999000D01*
X76430000Y-70959000D02*
X77700000Y-70959000D01*
X76769000Y-70439000D02*
X77700000Y-70439000D01*
X79780000Y-70159000D02*
X80439000Y-70159000D01*
X79780000Y-70479000D02*
X80744000Y-70479000D01*
X76164000Y-71960000D02*
X77700000Y-71960000D01*
X76675000Y-70559000D02*
X77700000Y-70559000D01*
X79780000Y-72080000D02*
X81320000Y-72080000D01*
X79780000Y-71399000D02*
X81220000Y-71399000D01*
X76312000Y-71239000D02*
X77700000Y-71239000D01*
X76326000Y-71199000D02*
X77700000Y-71199000D01*
X76839000Y-70359000D02*
X77700000Y-70359000D01*
X76229000Y-71520000D02*
X77700000Y-71520000D01*
X79780000Y-71880000D02*
X81309000Y-71880000D01*
X79780000Y-71279000D02*
X81182000Y-71279000D01*
X79780000Y-71560000D02*
X81260000Y-71560000D01*
X79780000Y-70839000D02*
X80987000Y-70839000D01*
X79780000Y-70719000D02*
X80915000Y-70719000D01*
X79780000Y-72000000D02*
X81318000Y-72000000D01*
X76212000Y-71600000D02*
X77700000Y-71600000D01*
X76591000Y-70679000D02*
X77700000Y-70679000D01*
X76914000Y-70279000D02*
X77700000Y-70279000D01*
X77087000Y-70119000D02*
X77700000Y-70119000D01*
X79780000Y-71079000D02*
X81105000Y-71079000D01*
X76160000Y-72120000D02*
X77700000Y-72120000D01*
X76179000Y-71800000D02*
X77700000Y-71800000D01*
X76375000Y-71079000D02*
X77700000Y-71079000D01*
X76204000Y-71640000D02*
X77700000Y-71640000D01*
X77935000Y-69639000D02*
X79545000Y-69639000D01*
X77489000Y-69839000D02*
X79991000Y-69839000D01*
X77240000Y-69999000D02*
X80240000Y-69999000D01*
X79780000Y-71760000D02*
X81296000Y-71760000D01*
X79780000Y-71039000D02*
X81088000Y-71039000D01*
X78063000Y-69599000D02*
X79417000Y-69599000D01*
X79780000Y-70559000D02*
X80805000Y-70559000D01*
X79780000Y-70599000D02*
X80835000Y-70599000D01*
X76272000Y-71359000D02*
X77700000Y-71359000D01*
X79780000Y-71119000D02*
X81122000Y-71119000D01*
X79780000Y-71239000D02*
X81168000Y-71239000D01*
X76392000Y-71039000D02*
X77700000Y-71039000D01*
X79780000Y-70879000D02*
X81008000Y-70879000D01*
X76955000Y-70239000D02*
X77700000Y-70239000D01*
X76645000Y-70599000D02*
X77700000Y-70599000D01*
X79780000Y-71800000D02*
X81301000Y-71800000D01*
X79780000Y-71199000D02*
X81154000Y-71199000D01*
X79780000Y-71159000D02*
X81138000Y-71159000D01*
X79780000Y-71960000D02*
X81316000Y-71960000D01*
X76358000Y-71119000D02*
X77700000Y-71119000D01*
X76249000Y-71440000D02*
X77700000Y-71440000D01*
X77729000Y-69719000D02*
X79751000Y-69719000D01*
X77186000Y-70039000D02*
X80294000Y-70039000D01*
X77825000Y-69679000D02*
X79655000Y-69679000D01*
X77265000Y-74924775D02*
X77265000Y-74424775D01*
X79780000Y-72120000D02*
X81320000Y-72120000D01*
X76285000Y-71319000D02*
X77700000Y-71319000D01*
X76618000Y-70639000D02*
X77700000Y-70639000D01*
X79780000Y-70919000D02*
X81030000Y-70919000D01*
X76540000Y-70759000D02*
X77700000Y-70759000D01*
X76876000Y-70319000D02*
X77700000Y-70319000D01*
X79780000Y-70199000D02*
X80483000Y-70199000D01*
X77642000Y-69759000D02*
X79838000Y-69759000D01*
X76162000Y-72000000D02*
X77700000Y-72000000D01*
X76175000Y-71840000D02*
X77700000Y-71840000D01*
X76161000Y-72040000D02*
X77700000Y-72040000D01*
X76167000Y-71920000D02*
X77700000Y-71920000D01*
X79780000Y-70319000D02*
X80604000Y-70319000D01*
X79780000Y-70999000D02*
X81069000Y-70999000D01*
X78222000Y-69559000D02*
X79258000Y-69559000D01*
X78456000Y-69519000D02*
X79024000Y-69519000D01*
X79780000Y-71520000D02*
X81251000Y-71520000D01*
X79780000Y-70399000D02*
X80677000Y-70399000D01*
X79780000Y-70959000D02*
X81050000Y-70959000D01*
X79780000Y-71720000D02*
X81290000Y-71720000D01*
X77421000Y-69879000D02*
X80059000Y-69879000D01*
X77357000Y-69919000D02*
X80123000Y-69919000D01*
X76342000Y-71159000D02*
X77700000Y-71159000D01*
X76493000Y-70839000D02*
X77700000Y-70839000D01*
X77562000Y-69799000D02*
X79918000Y-69799000D01*
X79780000Y-70759000D02*
X80940000Y-70759000D01*
X76997000Y-70199000D02*
X77700000Y-70199000D01*
X76705000Y-70519000D02*
X77700000Y-70519000D01*
X77135000Y-70079000D02*
X80345000Y-70079000D01*
X79780000Y-70639000D02*
X80862000Y-70639000D01*
X79780000Y-71359000D02*
X81208000Y-71359000D01*
X79780000Y-71600000D02*
X81268000Y-71600000D01*
X76298000Y-71279000D02*
X77700000Y-71279000D01*
X76184000Y-71760000D02*
X77700000Y-71760000D01*
X79780000Y-71680000D02*
X81283000Y-71680000D01*
X77297000Y-69959000D02*
X80183000Y-69959000D01*
X79780000Y-70279000D02*
X80566000Y-70279000D01*
X79780000Y-71319000D02*
X81195000Y-71319000D01*
X79780000Y-71840000D02*
X81305000Y-71840000D01*
X79780000Y-72040000D02*
X81319000Y-72040000D01*
X79780000Y-71440000D02*
X81231000Y-71440000D01*
X79780000Y-70239000D02*
X80525000Y-70239000D01*
X76260000Y-71399000D02*
X77700000Y-71399000D01*
X76736000Y-70479000D02*
X77700000Y-70479000D01*
X79780000Y-70679000D02*
X80889000Y-70679000D01*
X76565000Y-70719000D02*
X77700000Y-70719000D01*
X76450000Y-70919000D02*
X77700000Y-70919000D01*
X76171000Y-71880000D02*
X77700000Y-71880000D01*
X76803000Y-70399000D02*
X77700000Y-70399000D01*
X76197000Y-71680000D02*
X77700000Y-71680000D01*
X79780000Y-71480000D02*
X81241000Y-71480000D01*
X76516000Y-70799000D02*
X77700000Y-70799000D01*
X77015000Y-74674775D02*
X77515000Y-74674775D01*
X76190000Y-71720000D02*
X77700000Y-71720000D01*
X79780000Y-70439000D02*
X80711000Y-70439000D01*
X79780000Y-71640000D02*
X81276000Y-71640000D01*
X76220000Y-71560000D02*
X77700000Y-71560000D01*
X79780000Y-70519000D02*
X80775000Y-70519000D01*
X79780000Y-70359000D02*
X80641000Y-70359000D01*
X76160000Y-72080000D02*
X77700000Y-72080000D01*
X76239000Y-71480000D02*
X77700000Y-71480000D01*
X77041000Y-70159000D02*
X77700000Y-70159000D01*
X81360000Y-72120000D02*
G75*
G03*
X81360000Y-72120000I-2620000J0D01*
G01*
%TD*%
%LPC*%
D16*
%TO.C,U2*%
X99060000Y-68260000D03*
X101600000Y-68260000D03*
X104140000Y-68260000D03*
X106680000Y-68260000D03*
X109220000Y-68260000D03*
X111760000Y-68260000D03*
X114300000Y-68260000D03*
X114300000Y-76200000D03*
X111760000Y-76200000D03*
X109220000Y-76200000D03*
X106680000Y-76200000D03*
X104140000Y-76200000D03*
X101600000Y-76200000D03*
D17*
X99060000Y-76200000D03*
%TD*%
D18*
%TO.C,U1*%
X71120000Y-68260000D03*
D19*
X68580000Y-68260000D03*
X66040000Y-68260000D03*
X63500000Y-68260000D03*
X60960000Y-68260000D03*
X58420000Y-68260000D03*
X55880000Y-68260000D03*
X53340000Y-68260000D03*
X53340000Y-76200000D03*
X55880000Y-76200000D03*
X58420000Y-76200000D03*
X60960000Y-76200000D03*
X63500000Y-76200000D03*
X66040000Y-76200000D03*
X68580000Y-76200000D03*
X71120000Y-76200000D03*
%TD*%
D20*
%TO.C,H4*%
X123757056Y-59262944D03*
X124460000Y-60960000D03*
X124460000Y-57565888D03*
X126157056Y-61662944D03*
D21*
X126157056Y-59262944D03*
D20*
X128557056Y-59262944D03*
D22*
X127854112Y-57565888D03*
D20*
X127854112Y-60960000D03*
X126157056Y-56862944D03*
%TD*%
%TO.C,H3*%
X123757056Y-103297056D03*
X124460000Y-104994112D03*
X124460000Y-101600000D03*
X126157056Y-105697056D03*
D21*
X126157056Y-103297056D03*
D20*
X128557056Y-103297056D03*
X127854112Y-101600000D03*
X127854112Y-104994112D03*
X126157056Y-100897056D03*
%TD*%
%TO.C,H2*%
X21302944Y-103297056D03*
X22005888Y-104994112D03*
X22005888Y-101600000D03*
X23702944Y-105697056D03*
D21*
X23702944Y-103297056D03*
D20*
X26102944Y-103297056D03*
X25400000Y-101600000D03*
X25400000Y-104994112D03*
X23702944Y-100897056D03*
%TD*%
%TO.C,H1*%
X21302944Y-59262944D03*
X22005888Y-60960000D03*
X22005888Y-57565888D03*
X23702944Y-61662944D03*
D21*
X23702944Y-59262944D03*
D20*
X26102944Y-59262944D03*
X25400000Y-57565888D03*
X25400000Y-60960000D03*
X23702944Y-56862944D03*
%TD*%
D23*
%TO.C,TP3*%
X40640000Y-81280000D03*
%TD*%
%TO.C,TP2*%
X33020000Y-81280000D03*
%TD*%
%TO.C,TP1*%
X22860000Y-81280000D03*
%TD*%
D24*
%TO.C,R1*%
X91440000Y-78740000D03*
D25*
X76200000Y-78740000D03*
%TD*%
D26*
%TO.C,J3*%
X119380000Y-91440000D03*
X116840000Y-88900000D03*
X116840000Y-91440000D03*
X114300000Y-88900000D03*
X114300000Y-91440000D03*
X111760000Y-88900000D03*
X111760000Y-91440000D03*
X109220000Y-88900000D03*
X109220000Y-91440000D03*
X106680000Y-88900000D03*
X106680000Y-91440000D03*
X104140000Y-88900000D03*
X104140000Y-91440000D03*
X101600000Y-88900000D03*
X101600000Y-91440000D03*
X99060000Y-88900000D03*
X99060000Y-91440000D03*
X96520000Y-88900000D03*
D27*
X96520000Y-91440000D03*
%TD*%
D26*
%TO.C,J2*%
X119380000Y-101600000D03*
X116840000Y-99060000D03*
X116840000Y-101600000D03*
X114300000Y-99060000D03*
X114300000Y-101600000D03*
X111760000Y-99060000D03*
X111760000Y-101600000D03*
X109220000Y-99060000D03*
X109220000Y-101600000D03*
X106680000Y-99060000D03*
X106680000Y-101600000D03*
X104140000Y-99060000D03*
X104140000Y-101600000D03*
X101600000Y-99060000D03*
X101600000Y-101600000D03*
X99060000Y-99060000D03*
X99060000Y-101600000D03*
X96520000Y-99060000D03*
D27*
X96520000Y-101600000D03*
%TD*%
D25*
%TO.C,R4*%
X43180000Y-76200000D03*
D24*
X43180000Y-60960000D03*
%TD*%
D25*
%TO.C,R3*%
X50800000Y-60960000D03*
D24*
X66040000Y-60960000D03*
%TD*%
D25*
%TO.C,R2*%
X121920000Y-81280000D03*
D24*
X121920000Y-66040000D03*
%TD*%
D27*
%TO.C,J6*%
X22860000Y-96520000D03*
D26*
X25400000Y-96520000D03*
X27940000Y-96520000D03*
X30480000Y-96520000D03*
%TD*%
D27*
%TO.C,J5*%
X22860000Y-71120000D03*
D26*
X25400000Y-71120000D03*
X27940000Y-71120000D03*
X30480000Y-71120000D03*
%TD*%
D28*
%TO.C,J4*%
X81280000Y-88900000D03*
D26*
X81280000Y-91440000D03*
X78740000Y-88900000D03*
X78740000Y-91440000D03*
X76200000Y-88900000D03*
X76200000Y-91440000D03*
X73660000Y-88900000D03*
X73660000Y-91440000D03*
X71120000Y-88900000D03*
X71120000Y-91440000D03*
X68580000Y-88900000D03*
X68580000Y-91440000D03*
X66040000Y-88900000D03*
X66040000Y-91440000D03*
X63500000Y-88900000D03*
X63500000Y-91440000D03*
X60960000Y-88900000D03*
X60960000Y-91440000D03*
X58420000Y-88900000D03*
X58420000Y-91440000D03*
X55880000Y-88900000D03*
X55880000Y-91440000D03*
X53340000Y-88900000D03*
X53340000Y-91440000D03*
X50800000Y-88900000D03*
X50800000Y-91440000D03*
X48260000Y-88900000D03*
X48260000Y-91440000D03*
X45720000Y-88900000D03*
X45720000Y-91440000D03*
X43180000Y-88900000D03*
X43180000Y-91440000D03*
X40640000Y-88900000D03*
X40640000Y-91440000D03*
%TD*%
D28*
%TO.C,J1*%
X81280000Y-99060000D03*
D26*
X81280000Y-101600000D03*
X78740000Y-99060000D03*
X78740000Y-101600000D03*
X76200000Y-99060000D03*
X76200000Y-101600000D03*
X73660000Y-99060000D03*
X73660000Y-101600000D03*
X71120000Y-99060000D03*
X71120000Y-101600000D03*
X68580000Y-99060000D03*
X68580000Y-101600000D03*
X66040000Y-99060000D03*
X66040000Y-101600000D03*
X63500000Y-99060000D03*
X63500000Y-101600000D03*
X60960000Y-99060000D03*
X60960000Y-101600000D03*
X58420000Y-99060000D03*
X58420000Y-101600000D03*
X55880000Y-99060000D03*
X55880000Y-101600000D03*
X53340000Y-99060000D03*
X53340000Y-101600000D03*
X50800000Y-99060000D03*
X50800000Y-101600000D03*
X48260000Y-99060000D03*
X48260000Y-101600000D03*
X45720000Y-99060000D03*
X45720000Y-101600000D03*
X43180000Y-99060000D03*
X43180000Y-101600000D03*
X40640000Y-99060000D03*
X40640000Y-101600000D03*
%TD*%
D29*
%TO.C,C2*%
X91440000Y-73120000D03*
D30*
X91440000Y-71120000D03*
%TD*%
D29*
%TO.C,C1*%
X78740000Y-73120000D03*
D30*
X78740000Y-71120000D03*
%TD*%
%LPD*%
M02*
