%TF.GenerationSoftware,KiCad,Pcbnew,7.0.5-0*%
%TF.CreationDate,2023-06-05T22:26:43-07:00*%
%TF.ProjectId,PCTGotekAdapter,50435447-6f74-4656-9b41-646170746572,A*%
%TF.SameCoordinates,Original*%
%TF.FileFunction,Copper,L1,Top*%
%TF.FilePolarity,Positive*%
%FSLAX46Y46*%
G04 Gerber Fmt 4.6, Leading zero omitted, Abs format (unit mm)*
G04 Created by KiCad (PCBNEW 7.0.5-0) date 2023-06-05 22:26:43*
%MOMM*%
%LPD*%
G01*
G04 APERTURE LIST*
%TA.AperFunction,ComponentPad*%
%ADD10C,1.270000*%
%TD*%
%TA.AperFunction,ComponentPad*%
%ADD11R,1.270000X1.270000*%
%TD*%
%TA.AperFunction,ComponentPad*%
%ADD12R,1.280000X1.280000*%
%TD*%
%TA.AperFunction,ComponentPad*%
%ADD13C,1.280000*%
%TD*%
%TA.AperFunction,ComponentPad*%
%ADD14C,0.800000*%
%TD*%
%TA.AperFunction,ComponentPad*%
%ADD15C,6.400000*%
%TD*%
%TA.AperFunction,ComponentPad*%
%ADD16C,1.000000*%
%TD*%
%TA.AperFunction,SMDPad,CuDef*%
%ADD17R,2.500000X2.500000*%
%TD*%
%TA.AperFunction,ComponentPad*%
%ADD18O,2.400000X2.400000*%
%TD*%
%TA.AperFunction,ComponentPad*%
%ADD19C,2.400000*%
%TD*%
%TA.AperFunction,ComponentPad*%
%ADD20O,1.700000X1.700000*%
%TD*%
%TA.AperFunction,ComponentPad*%
%ADD21R,1.700000X1.700000*%
%TD*%
%TA.AperFunction,ComponentPad*%
%ADD22R,1.600000X1.600000*%
%TD*%
%TA.AperFunction,ComponentPad*%
%ADD23C,1.600000*%
%TD*%
%TA.AperFunction,ViaPad*%
%ADD24C,0.900000*%
%TD*%
%TA.AperFunction,Conductor*%
%ADD25C,1.000000*%
%TD*%
%TA.AperFunction,Conductor*%
%ADD26C,0.300000*%
%TD*%
G04 APERTURE END LIST*
D10*
%TO.P,U2,14,VCC*%
%TO.N,+5V*%
X99060000Y-68260000D03*
%TO.P,U2,13,6A*%
%TO.N,Net-(J2-Pin_11)*%
X101600000Y-68260000D03*
%TO.P,U2,12,6Y*%
%TO.N,Net-(J1-Pin_18)*%
X104140000Y-68260000D03*
%TO.P,U2,11,5A*%
%TO.N,Net-(J2-Pin_12)*%
X106680000Y-68260000D03*
%TO.P,U2,10,5Y*%
%TO.N,Net-(J1-Pin_20)*%
X109220000Y-68260000D03*
%TO.P,U2,9,4A*%
%TO.N,Net-(J2-Pin_19)*%
X111760000Y-68260000D03*
%TO.P,U2,8,4Y*%
%TO.N,Net-(J1-Pin_22)*%
X114300000Y-68260000D03*
%TO.P,U2,7,GND*%
%TO.N,GND*%
X114300000Y-76200000D03*
%TO.P,U2,6,3Y*%
%TO.N,Net-(J1-Pin_32)*%
X111760000Y-76200000D03*
%TO.P,U2,5,3A*%
%TO.N,Net-(J2-Pin_16)*%
X109220000Y-76200000D03*
%TO.P,U2,4,2Y*%
%TO.N,Net-(J1-Pin_24)*%
X106680000Y-76200000D03*
%TO.P,U2,3,2A*%
%TO.N,Net-(J2-Pin_15)*%
X104140000Y-76200000D03*
%TO.P,U2,2,1Y*%
%TO.N,Net-(J1-Pin_16)*%
X101600000Y-76200000D03*
D11*
%TO.P,U2,1,1A*%
%TO.N,Net-(J2-Pin_5)*%
X99060000Y-76200000D03*
%TD*%
D12*
%TO.P,U1,1,A*%
%TO.N,Net-(J2-Pin_9)*%
X71120000Y-68260000D03*
D13*
%TO.P,U1,2,B*%
%TO.N,Net-(J2-Pin_17)*%
X68580000Y-68260000D03*
%TO.P,U1,3,C*%
%TO.N,Net-(J2-Pin_4)*%
X66040000Y-68260000D03*
%TO.P,U1,4,~{G2A}*%
%TO.N,GND*%
X63500000Y-68260000D03*
%TO.P,U1,5,~{G2B}*%
X60960000Y-68260000D03*
%TO.P,U1,6,G1*%
%TO.N,+5V*%
X58420000Y-68260000D03*
%TO.P,U1,7,Y7*%
%TO.N,unconnected-(U1-Y7-Pad7)*%
X55880000Y-68260000D03*
%TO.P,U1,8,GND*%
%TO.N,GND*%
X53340000Y-68260000D03*
%TO.P,U1,9,Y6*%
%TO.N,Net-(J1-Pin_12)*%
X53340000Y-76200000D03*
%TO.P,U1,10,Y5*%
%TO.N,Net-(J1-Pin_10)*%
X55880000Y-76200000D03*
%TO.P,U1,11,Y4*%
%TO.N,unconnected-(U1-Y4-Pad11)*%
X58420000Y-76200000D03*
%TO.P,U1,12,Y3*%
%TO.N,unconnected-(U1-Y3-Pad12)*%
X60960000Y-76200000D03*
%TO.P,U1,13,Y2*%
%TO.N,unconnected-(U1-Y2-Pad13)*%
X63500000Y-76200000D03*
%TO.P,U1,14,Y1*%
%TO.N,unconnected-(U1-Y1-Pad14)*%
X66040000Y-76200000D03*
%TO.P,U1,15,Y0*%
%TO.N,unconnected-(U1-Y0-Pad15)*%
X68580000Y-76200000D03*
%TO.P,U1,16,VCC*%
%TO.N,+5V*%
X71120000Y-76200000D03*
%TD*%
D14*
%TO.P,H4,1,1*%
%TO.N,GND*%
X123757056Y-59262944D03*
X124460000Y-60960000D03*
X124460000Y-57565888D03*
X126157056Y-61662944D03*
D15*
X126157056Y-59262944D03*
D14*
X128557056Y-59262944D03*
D16*
X127854112Y-57565888D03*
D14*
X127854112Y-60960000D03*
X126157056Y-56862944D03*
%TD*%
%TO.P,H3,1,1*%
%TO.N,GND*%
X123757056Y-103297056D03*
X124460000Y-104994112D03*
X124460000Y-101600000D03*
X126157056Y-105697056D03*
D15*
X126157056Y-103297056D03*
D14*
X128557056Y-103297056D03*
X127854112Y-101600000D03*
X127854112Y-104994112D03*
X126157056Y-100897056D03*
%TD*%
%TO.P,H2,1,1*%
%TO.N,GND*%
X21302944Y-103297056D03*
X22005888Y-104994112D03*
X22005888Y-101600000D03*
X23702944Y-105697056D03*
D15*
X23702944Y-103297056D03*
D14*
X26102944Y-103297056D03*
X25400000Y-101600000D03*
X25400000Y-104994112D03*
X23702944Y-100897056D03*
%TD*%
%TO.P,H1,1,1*%
%TO.N,GND*%
X21302944Y-59262944D03*
X22005888Y-60960000D03*
X22005888Y-57565888D03*
X23702944Y-61662944D03*
D15*
X23702944Y-59262944D03*
D14*
X26102944Y-59262944D03*
X25400000Y-57565888D03*
X25400000Y-60960000D03*
X23702944Y-56862944D03*
%TD*%
D17*
%TO.P,TP3,1,1*%
%TO.N,GND*%
X40640000Y-81280000D03*
%TD*%
%TO.P,TP2,1,1*%
%TO.N,+5V*%
X33020000Y-81280000D03*
%TD*%
%TO.P,TP1,1,1*%
%TO.N,+12V*%
X22860000Y-81280000D03*
%TD*%
D18*
%TO.P,R1,2*%
%TO.N,+5V*%
X91440000Y-78740000D03*
D19*
%TO.P,R1,1*%
%TO.N,Net-(J1-Pin_8)*%
X76200000Y-78740000D03*
%TD*%
D20*
%TO.P,J3,19,Pin_19*%
%TO.N,Net-(J2-Pin_19)*%
X119380000Y-91440000D03*
%TO.P,J3,18,Pin_18*%
%TO.N,Net-(J1-Pin_30)*%
X116840000Y-88900000D03*
%TO.P,J3,17,Pin_17*%
%TO.N,Net-(J2-Pin_17)*%
X116840000Y-91440000D03*
%TO.P,J3,16,Pin_16*%
%TO.N,Net-(J2-Pin_16)*%
X114300000Y-88900000D03*
%TO.P,J3,15,Pin_15*%
%TO.N,Net-(J2-Pin_15)*%
X114300000Y-91440000D03*
%TO.P,J3,14,Pin_14*%
%TO.N,Net-(J1-Pin_8)*%
X111760000Y-88900000D03*
%TO.P,J3,13,Pin_13*%
%TO.N,Net-(J1-Pin_26)*%
X111760000Y-91440000D03*
%TO.P,J3,12,Pin_12*%
%TO.N,Net-(J2-Pin_12)*%
X109220000Y-88900000D03*
%TO.P,J3,11,Pin_11*%
%TO.N,Net-(J2-Pin_11)*%
X109220000Y-91440000D03*
%TO.P,J3,10,Pin_10*%
%TO.N,Net-(J1-Pin_28)*%
X106680000Y-88900000D03*
%TO.P,J3,9,Pin_9*%
%TO.N,Net-(J2-Pin_9)*%
X106680000Y-91440000D03*
%TO.P,J3,8,Pin_8*%
%TO.N,+12V*%
X104140000Y-88900000D03*
%TO.P,J3,7,Pin_7*%
X104140000Y-91440000D03*
%TO.P,J3,6,Pin_6*%
%TO.N,+5V*%
X101600000Y-88900000D03*
%TO.P,J3,5,Pin_5*%
%TO.N,Net-(J2-Pin_5)*%
X101600000Y-91440000D03*
%TO.P,J3,4,Pin_4*%
%TO.N,Net-(J2-Pin_4)*%
X99060000Y-88900000D03*
%TO.P,J3,3,Pin_3*%
%TO.N,GND*%
X99060000Y-91440000D03*
%TO.P,J3,2,Pin_2*%
X96520000Y-88900000D03*
D21*
%TO.P,J3,1,Pin_1*%
X96520000Y-91440000D03*
%TD*%
D20*
%TO.P,J2,19,Pin_19*%
%TO.N,Net-(J2-Pin_19)*%
X119380000Y-101600000D03*
%TO.P,J2,18,Pin_18*%
%TO.N,Net-(J1-Pin_30)*%
X116840000Y-99060000D03*
%TO.P,J2,17,Pin_17*%
%TO.N,Net-(J2-Pin_17)*%
X116840000Y-101600000D03*
%TO.P,J2,16,Pin_16*%
%TO.N,Net-(J2-Pin_16)*%
X114300000Y-99060000D03*
%TO.P,J2,15,Pin_15*%
%TO.N,Net-(J2-Pin_15)*%
X114300000Y-101600000D03*
%TO.P,J2,14,Pin_14*%
%TO.N,Net-(J1-Pin_8)*%
X111760000Y-99060000D03*
%TO.P,J2,13,Pin_13*%
%TO.N,Net-(J1-Pin_26)*%
X111760000Y-101600000D03*
%TO.P,J2,12,Pin_12*%
%TO.N,Net-(J2-Pin_12)*%
X109220000Y-99060000D03*
%TO.P,J2,11,Pin_11*%
%TO.N,Net-(J2-Pin_11)*%
X109220000Y-101600000D03*
%TO.P,J2,10,Pin_10*%
%TO.N,Net-(J1-Pin_28)*%
X106680000Y-99060000D03*
%TO.P,J2,9,Pin_9*%
%TO.N,Net-(J2-Pin_9)*%
X106680000Y-101600000D03*
%TO.P,J2,8,Pin_8*%
%TO.N,+12V*%
X104140000Y-99060000D03*
%TO.P,J2,7,Pin_7*%
X104140000Y-101600000D03*
%TO.P,J2,6,Pin_6*%
%TO.N,+5V*%
X101600000Y-99060000D03*
%TO.P,J2,5,Pin_5*%
%TO.N,Net-(J2-Pin_5)*%
X101600000Y-101600000D03*
%TO.P,J2,4,Pin_4*%
%TO.N,Net-(J2-Pin_4)*%
X99060000Y-99060000D03*
%TO.P,J2,3,Pin_3*%
%TO.N,GND*%
X99060000Y-101600000D03*
%TO.P,J2,2,Pin_2*%
X96520000Y-99060000D03*
D21*
%TO.P,J2,1,Pin_1*%
X96520000Y-101600000D03*
%TD*%
D19*
%TO.P,R4,1*%
%TO.N,Net-(J1-Pin_28)*%
X43180000Y-76200000D03*
D18*
%TO.P,R4,2*%
%TO.N,+5V*%
X43180000Y-60960000D03*
%TD*%
D19*
%TO.P,R3,1*%
%TO.N,Net-(J1-Pin_26)*%
X50800000Y-60960000D03*
D18*
%TO.P,R3,2*%
%TO.N,+5V*%
X66040000Y-60960000D03*
%TD*%
D19*
%TO.P,R2,1*%
%TO.N,Net-(J1-Pin_30)*%
X121920000Y-81280000D03*
D18*
%TO.P,R2,2*%
%TO.N,+5V*%
X121920000Y-66040000D03*
%TD*%
D21*
%TO.P,J6,1,Pin_1*%
%TO.N,+12V*%
X22860000Y-96520000D03*
D20*
%TO.P,J6,2,Pin_2*%
%TO.N,GND*%
X25400000Y-96520000D03*
%TO.P,J6,3,Pin_3*%
X27940000Y-96520000D03*
%TO.P,J6,4,Pin_4*%
%TO.N,+5V*%
X30480000Y-96520000D03*
%TD*%
D21*
%TO.P,J5,1,Pin_1*%
%TO.N,+12V*%
X22860000Y-71120000D03*
D20*
%TO.P,J5,2,Pin_2*%
%TO.N,GND*%
X25400000Y-71120000D03*
%TO.P,J5,3,Pin_3*%
X27940000Y-71120000D03*
%TO.P,J5,4,Pin_4*%
%TO.N,+5V*%
X30480000Y-71120000D03*
%TD*%
D21*
%TO.P,J4,1,Pin_1*%
%TO.N,GND*%
X81280000Y-88900000D03*
D20*
%TO.P,J4,2,Pin_2*%
%TO.N,unconnected-(J4-Pin_2-Pad2)*%
X81280000Y-91440000D03*
%TO.P,J4,3,Pin_3*%
%TO.N,GND*%
X78740000Y-88900000D03*
%TO.P,J4,4,Pin_4*%
%TO.N,unconnected-(J4-Pin_4-Pad4)*%
X78740000Y-91440000D03*
%TO.P,J4,5,Pin_5*%
%TO.N,GND*%
X76200000Y-88900000D03*
%TO.P,J4,6,Pin_6*%
%TO.N,unconnected-(J4-Pin_6-Pad6)*%
X76200000Y-91440000D03*
%TO.P,J4,7,Pin_7*%
%TO.N,GND*%
X73660000Y-88900000D03*
%TO.P,J4,8,Pin_8*%
%TO.N,Net-(J1-Pin_8)*%
X73660000Y-91440000D03*
%TO.P,J4,9,Pin_9*%
%TO.N,GND*%
X71120000Y-88900000D03*
%TO.P,J4,10,Pin_10*%
%TO.N,Net-(J1-Pin_10)*%
X71120000Y-91440000D03*
%TO.P,J4,11,Pin_11*%
%TO.N,GND*%
X68580000Y-88900000D03*
%TO.P,J4,12,Pin_12*%
%TO.N,Net-(J1-Pin_12)*%
X68580000Y-91440000D03*
%TO.P,J4,13,Pin_13*%
%TO.N,GND*%
X66040000Y-88900000D03*
%TO.P,J4,14,Pin_14*%
%TO.N,unconnected-(J4-Pin_14-Pad14)*%
X66040000Y-91440000D03*
%TO.P,J4,15,Pin_15*%
%TO.N,GND*%
X63500000Y-88900000D03*
%TO.P,J4,16,Pin_16*%
%TO.N,Net-(J1-Pin_16)*%
X63500000Y-91440000D03*
%TO.P,J4,17,Pin_17*%
%TO.N,GND*%
X60960000Y-88900000D03*
%TO.P,J4,18,Pin_18*%
%TO.N,Net-(J1-Pin_18)*%
X60960000Y-91440000D03*
%TO.P,J4,19,Pin_19*%
%TO.N,GND*%
X58420000Y-88900000D03*
%TO.P,J4,20,Pin_20*%
%TO.N,Net-(J1-Pin_20)*%
X58420000Y-91440000D03*
%TO.P,J4,21,Pin_21*%
%TO.N,GND*%
X55880000Y-88900000D03*
%TO.P,J4,22,Pin_22*%
%TO.N,Net-(J1-Pin_22)*%
X55880000Y-91440000D03*
%TO.P,J4,23,Pin_23*%
%TO.N,GND*%
X53340000Y-88900000D03*
%TO.P,J4,24,Pin_24*%
%TO.N,Net-(J1-Pin_24)*%
X53340000Y-91440000D03*
%TO.P,J4,25,Pin_25*%
%TO.N,GND*%
X50800000Y-88900000D03*
%TO.P,J4,26,Pin_26*%
%TO.N,Net-(J1-Pin_26)*%
X50800000Y-91440000D03*
%TO.P,J4,27,Pin_27*%
%TO.N,GND*%
X48260000Y-88900000D03*
%TO.P,J4,28,Pin_28*%
%TO.N,Net-(J1-Pin_28)*%
X48260000Y-91440000D03*
%TO.P,J4,29,Pin_29*%
%TO.N,GND*%
X45720000Y-88900000D03*
%TO.P,J4,30,Pin_30*%
%TO.N,Net-(J1-Pin_30)*%
X45720000Y-91440000D03*
%TO.P,J4,31,Pin_31*%
%TO.N,GND*%
X43180000Y-88900000D03*
%TO.P,J4,32,Pin_32*%
%TO.N,Net-(J1-Pin_32)*%
X43180000Y-91440000D03*
%TO.P,J4,33,Pin_33*%
%TO.N,GND*%
X40640000Y-88900000D03*
%TO.P,J4,34,Pin_34*%
%TO.N,unconnected-(J4-Pin_34-Pad34)*%
X40640000Y-91440000D03*
%TD*%
D21*
%TO.P,J1,1,Pin_1*%
%TO.N,GND*%
X81280000Y-99060000D03*
D20*
%TO.P,J1,2,Pin_2*%
%TO.N,unconnected-(J1-Pin_2-Pad2)*%
X81280000Y-101600000D03*
%TO.P,J1,3,Pin_3*%
%TO.N,GND*%
X78740000Y-99060000D03*
%TO.P,J1,4,Pin_4*%
%TO.N,unconnected-(J1-Pin_4-Pad4)*%
X78740000Y-101600000D03*
%TO.P,J1,5,Pin_5*%
%TO.N,GND*%
X76200000Y-99060000D03*
%TO.P,J1,6,Pin_6*%
%TO.N,unconnected-(J1-Pin_6-Pad6)*%
X76200000Y-101600000D03*
%TO.P,J1,7,Pin_7*%
%TO.N,GND*%
X73660000Y-99060000D03*
%TO.P,J1,8,Pin_8*%
%TO.N,Net-(J1-Pin_8)*%
X73660000Y-101600000D03*
%TO.P,J1,9,Pin_9*%
%TO.N,GND*%
X71120000Y-99060000D03*
%TO.P,J1,10,Pin_10*%
%TO.N,Net-(J1-Pin_10)*%
X71120000Y-101600000D03*
%TO.P,J1,11,Pin_11*%
%TO.N,GND*%
X68580000Y-99060000D03*
%TO.P,J1,12,Pin_12*%
%TO.N,Net-(J1-Pin_12)*%
X68580000Y-101600000D03*
%TO.P,J1,13,Pin_13*%
%TO.N,GND*%
X66040000Y-99060000D03*
%TO.P,J1,14,Pin_14*%
%TO.N,unconnected-(J1-Pin_14-Pad14)*%
X66040000Y-101600000D03*
%TO.P,J1,15,Pin_15*%
%TO.N,GND*%
X63500000Y-99060000D03*
%TO.P,J1,16,Pin_16*%
%TO.N,Net-(J1-Pin_16)*%
X63500000Y-101600000D03*
%TO.P,J1,17,Pin_17*%
%TO.N,GND*%
X60960000Y-99060000D03*
%TO.P,J1,18,Pin_18*%
%TO.N,Net-(J1-Pin_18)*%
X60960000Y-101600000D03*
%TO.P,J1,19,Pin_19*%
%TO.N,GND*%
X58420000Y-99060000D03*
%TO.P,J1,20,Pin_20*%
%TO.N,Net-(J1-Pin_20)*%
X58420000Y-101600000D03*
%TO.P,J1,21,Pin_21*%
%TO.N,GND*%
X55880000Y-99060000D03*
%TO.P,J1,22,Pin_22*%
%TO.N,Net-(J1-Pin_22)*%
X55880000Y-101600000D03*
%TO.P,J1,23,Pin_23*%
%TO.N,GND*%
X53340000Y-99060000D03*
%TO.P,J1,24,Pin_24*%
%TO.N,Net-(J1-Pin_24)*%
X53340000Y-101600000D03*
%TO.P,J1,25,Pin_25*%
%TO.N,GND*%
X50800000Y-99060000D03*
%TO.P,J1,26,Pin_26*%
%TO.N,Net-(J1-Pin_26)*%
X50800000Y-101600000D03*
%TO.P,J1,27,Pin_27*%
%TO.N,GND*%
X48260000Y-99060000D03*
%TO.P,J1,28,Pin_28*%
%TO.N,Net-(J1-Pin_28)*%
X48260000Y-101600000D03*
%TO.P,J1,29,Pin_29*%
%TO.N,GND*%
X45720000Y-99060000D03*
%TO.P,J1,30,Pin_30*%
%TO.N,Net-(J1-Pin_30)*%
X45720000Y-101600000D03*
%TO.P,J1,31,Pin_31*%
%TO.N,GND*%
X43180000Y-99060000D03*
%TO.P,J1,32,Pin_32*%
%TO.N,Net-(J1-Pin_32)*%
X43180000Y-101600000D03*
%TO.P,J1,33,Pin_33*%
%TO.N,GND*%
X40640000Y-99060000D03*
%TO.P,J1,34,Pin_34*%
%TO.N,unconnected-(J1-Pin_34-Pad34)*%
X40640000Y-101600000D03*
%TD*%
D22*
%TO.P,C2,1*%
%TO.N,+5V*%
X91440000Y-73120000D03*
D23*
%TO.P,C2,2*%
%TO.N,GND*%
X91440000Y-71120000D03*
%TD*%
D22*
%TO.P,C1,1*%
%TO.N,+5V*%
X78740000Y-73120000D03*
D23*
%TO.P,C1,2*%
%TO.N,GND*%
X78740000Y-71120000D03*
%TD*%
D24*
%TO.N,GND*%
X69134358Y-70819083D03*
X63436903Y-80033470D03*
%TO.N,Net-(J1-Pin_18)*%
X68580000Y-73660000D03*
X60960000Y-73660000D03*
%TO.N,GND*%
X109220000Y-104140000D03*
X58420000Y-104140000D03*
X87815326Y-102253958D03*
X106701870Y-95104411D03*
X108899766Y-71700632D03*
X105003972Y-72468817D03*
X118282593Y-69615559D03*
X118099324Y-81204002D03*
X101600000Y-78740000D03*
X106680000Y-81280000D03*
X58420000Y-71120000D03*
X78740000Y-83820000D03*
X96520000Y-78740000D03*
X83820000Y-78740000D03*
X91440000Y-63500000D03*
X73660000Y-63500000D03*
%TO.N,Net-(J1-Pin_26)*%
X50800000Y-83820000D03*
%TO.N,+12V*%
X22860000Y-78740000D03*
%TO.N,+5V*%
X30480000Y-81280000D03*
%TO.N,GND*%
X38100000Y-81280000D03*
%TO.N,Net-(J1-Pin_22)*%
X55880000Y-83820000D03*
X109220000Y-78740000D03*
%TO.N,Net-(J1-Pin_10)*%
X71120000Y-78740000D03*
%TO.N,Net-(J1-Pin_12)*%
X68580000Y-81280000D03*
%TO.N,GND*%
X111760000Y-63500000D03*
%TO.N,Net-(J2-Pin_17)*%
X68580000Y-58420000D03*
X111760000Y-58420000D03*
%TO.N,Net-(J2-Pin_9)*%
X94812063Y-69412062D03*
%TO.N,Net-(J1-Pin_28)*%
X48260000Y-86360000D03*
X104140000Y-86360000D03*
%TO.N,Net-(J1-Pin_26)*%
X109884561Y-85626213D03*
%TO.N,Net-(J1-Pin_30)*%
X116840000Y-76200000D03*
%TO.N,Net-(J1-Pin_8)*%
X111760000Y-83820000D03*
%TO.N,+12V*%
X104140000Y-96520000D03*
%TO.N,GND*%
X27940000Y-86360000D03*
%TO.N,+5V*%
X101600000Y-93980000D03*
X93980000Y-93980000D03*
%TD*%
D25*
%TO.N,GND*%
X68833441Y-71120000D02*
X66360000Y-71120000D01*
X69134358Y-70819083D02*
X68833441Y-71120000D01*
X69435275Y-71120000D02*
X69134358Y-70819083D01*
D26*
%TO.N,Net-(J1-Pin_32)*%
X43180000Y-91440000D02*
X44380000Y-92640000D01*
X44380000Y-92640000D02*
X97720000Y-92640000D01*
X113010000Y-85812943D02*
X113010000Y-78667710D01*
X97720000Y-92640000D02*
X97809091Y-92550909D01*
X97809091Y-92550909D02*
X97809091Y-90113522D01*
X97809091Y-90113522D02*
X109703535Y-90113522D01*
X109703535Y-90113522D02*
X110420000Y-89397057D01*
X110420000Y-88402943D02*
X113010000Y-85812943D01*
X110420000Y-89397057D02*
X110420000Y-88402943D01*
X113010000Y-78667710D02*
X111760000Y-77417710D01*
X111760000Y-77417710D02*
X111760000Y-76200000D01*
%TO.N,Net-(J1-Pin_26)*%
X103808629Y-85560000D02*
X103758629Y-85610000D01*
X109884561Y-85626213D02*
X109868348Y-85610000D01*
X104521371Y-85610000D02*
X104471371Y-85560000D01*
X109868348Y-85610000D02*
X104521371Y-85610000D01*
X52590000Y-85610000D02*
X50800000Y-83820000D01*
X104471371Y-85560000D02*
X103808629Y-85560000D01*
X103758629Y-85610000D02*
X52590000Y-85610000D01*
%TO.N,Net-(J2-Pin_9)*%
X93660001Y-68260000D02*
X71120000Y-68260000D01*
X94812063Y-69412062D02*
X93660001Y-68260000D01*
%TO.N,Net-(J1-Pin_18)*%
X60960000Y-73660000D02*
X68580000Y-73660000D01*
%TO.N,Net-(J1-Pin_16)*%
X100615000Y-75215000D02*
X98075000Y-75215000D01*
X68720862Y-83320000D02*
X56511371Y-83320000D01*
X97017057Y-87700000D02*
X97720000Y-88402943D01*
X64840000Y-90100000D02*
X63500000Y-91440000D01*
X98075000Y-76690000D02*
X75350862Y-76690000D01*
X101600000Y-76200000D02*
X100615000Y-75215000D01*
X50468629Y-83020000D02*
X47460000Y-86028629D01*
X75350862Y-76690000D02*
X68720862Y-83320000D01*
X97017057Y-90100000D02*
X64840000Y-90100000D01*
X56511371Y-83320000D02*
X56211371Y-83020000D01*
X56211371Y-83020000D02*
X50468629Y-83020000D01*
X98075000Y-75215000D02*
X98075000Y-76690000D01*
X97720000Y-89397057D02*
X97017057Y-90100000D01*
X47460000Y-86028629D02*
X47460000Y-86691371D01*
X47460000Y-86691371D02*
X48468629Y-87700000D01*
X48468629Y-87700000D02*
X97017057Y-87700000D01*
X97720000Y-88402943D02*
X97720000Y-89397057D01*
D25*
%TO.N,GND*%
X40640000Y-81280000D02*
X40640000Y-88900000D01*
D26*
%TO.N,Net-(J1-Pin_30)*%
X116840000Y-76200000D02*
X121920000Y-81280000D01*
D25*
%TO.N,+5V*%
X101600000Y-60960000D02*
X116840000Y-60960000D01*
X116840000Y-60960000D02*
X121920000Y-66040000D01*
X30480000Y-71120000D02*
X30480000Y-69564365D01*
X39084365Y-60960000D02*
X43180000Y-60960000D01*
X30480000Y-69564365D02*
X39084365Y-60960000D01*
%TO.N,GND*%
X53340000Y-68260000D02*
X38072032Y-68260000D01*
X38072032Y-68260000D02*
X30132032Y-76200000D01*
X30132032Y-76200000D02*
X27940000Y-76200000D01*
%TO.N,+5V*%
X35560000Y-93980000D02*
X33020000Y-93980000D01*
X33020000Y-93980000D02*
X30480000Y-96520000D01*
%TO.N,+12V*%
X104140000Y-96520000D02*
X38100000Y-96520000D01*
X38100000Y-96520000D02*
X35560000Y-99060000D01*
X35560000Y-99060000D02*
X33020000Y-99060000D01*
X22860000Y-78740000D02*
X22860000Y-81280000D01*
%TO.N,+5V*%
X30480000Y-81280000D02*
X33020000Y-81280000D01*
D26*
%TO.N,Net-(J1-Pin_22)*%
X68927968Y-83820000D02*
X55880000Y-83820000D01*
X75557968Y-77190000D02*
X68927968Y-83820000D01*
X107670000Y-77190000D02*
X75557968Y-77190000D01*
X109220000Y-78740000D02*
X107670000Y-77190000D01*
%TO.N,Net-(J1-Pin_12)*%
X58420000Y-81280000D02*
X68580000Y-81280000D01*
X53340000Y-76200000D02*
X58420000Y-81280000D01*
%TO.N,Net-(J1-Pin_10)*%
X58420000Y-78740000D02*
X55880000Y-76200000D01*
X58420000Y-78740000D02*
X71120000Y-78740000D01*
D25*
%TO.N,GND*%
X27940000Y-73660000D02*
X27940000Y-96520000D01*
X27940000Y-96520000D02*
X27940000Y-71120000D01*
X27940000Y-73660000D02*
X27940000Y-71120000D01*
X60960000Y-68260000D02*
X58740000Y-66040000D01*
X58740000Y-66040000D02*
X55560000Y-66040000D01*
X55560000Y-66040000D02*
X53340000Y-68260000D01*
X116840000Y-63500000D02*
X111760000Y-63500000D01*
X116840000Y-74487314D02*
X116840000Y-63500000D01*
X115127314Y-76200000D02*
X116840000Y-74487314D01*
X114300000Y-76200000D02*
X115127314Y-76200000D01*
X78740000Y-71120000D02*
X91440000Y-71120000D01*
X60960000Y-68260000D02*
X63500000Y-68260000D01*
X78740000Y-71120000D02*
X69435275Y-71120000D01*
X66360000Y-71120000D02*
X63500000Y-68260000D01*
D26*
%TO.N,Net-(J2-Pin_17)*%
X111760000Y-58420000D02*
X68580000Y-58420000D01*
%TO.N,Net-(J1-Pin_28)*%
X104140000Y-86360000D02*
X48260000Y-86360000D01*
%TO.N,Net-(J1-Pin_8)*%
X111760000Y-83820000D02*
X81280000Y-83820000D01*
X81280000Y-83820000D02*
X76200000Y-78740000D01*
D25*
%TO.N,+5V*%
X101600000Y-60960000D02*
X66040000Y-60960000D01*
X99060000Y-68260000D02*
X99060000Y-63500000D01*
X99060000Y-63500000D02*
X101600000Y-60960000D01*
X91440000Y-73120000D02*
X94200000Y-73120000D01*
X94200000Y-73120000D02*
X99060000Y-68260000D01*
X78740000Y-73120000D02*
X91440000Y-73120000D01*
X78740000Y-73120000D02*
X74200000Y-73120000D01*
X74200000Y-73120000D02*
X71120000Y-76200000D01*
X43180000Y-60960000D02*
X45080000Y-59060000D01*
X45080000Y-59060000D02*
X64140000Y-59060000D01*
X64140000Y-59060000D02*
X66040000Y-60960000D01*
%TO.N,+12V*%
X33020000Y-99060000D02*
X25400000Y-99060000D01*
X25400000Y-99060000D02*
X22860000Y-96520000D01*
%TO.N,+5V*%
X93980000Y-93980000D02*
X35560000Y-93980000D01*
%TO.N,GND*%
X96520000Y-88900000D02*
X81280000Y-88900000D01*
X40640000Y-88900000D02*
X27940000Y-88900000D01*
X81280000Y-99060000D02*
X40640000Y-99060000D01*
X40640000Y-88900000D02*
X81280000Y-88900000D01*
%TO.N,+5V*%
X93980000Y-93980000D02*
X101600000Y-93980000D01*
%TD*%
%TA.AperFunction,Conductor*%
%TO.N,GND*%
G36*
X27480507Y-70910156D02*
G01*
X27440000Y-71048111D01*
X27440000Y-71191889D01*
X27480507Y-71329844D01*
X27506314Y-71370000D01*
X25833686Y-71370000D01*
X25859493Y-71329844D01*
X25900000Y-71191889D01*
X25900000Y-71048111D01*
X25859493Y-70910156D01*
X25833686Y-70870000D01*
X27506314Y-70870000D01*
X27480507Y-70910156D01*
G37*
%TD.AperFunction*%
%TA.AperFunction,Conductor*%
G36*
X121920000Y-63500000D02*
G01*
X129540000Y-63500000D01*
X129540000Y-99060000D01*
X121920000Y-99060000D01*
X121920000Y-106680000D01*
X27940000Y-106680000D01*
X27943346Y-100797461D01*
X25928477Y-100338245D01*
X25880740Y-100299589D01*
X25863658Y-100288496D01*
X25818154Y-100235475D01*
X25808539Y-100166270D01*
X25837866Y-100102853D01*
X25896823Y-100065358D01*
X25931192Y-100060500D01*
X32918259Y-100060500D01*
X35546507Y-100060500D01*
X35548069Y-100060519D01*
X35585283Y-100061462D01*
X35636358Y-100062757D01*
X35636358Y-100062756D01*
X35636363Y-100062757D01*
X35696753Y-100051932D01*
X35701412Y-100051280D01*
X35743607Y-100046988D01*
X35762438Y-100045074D01*
X35795227Y-100034786D01*
X35802840Y-100032918D01*
X35836653Y-100026858D01*
X35893621Y-100004101D01*
X35898053Y-100002524D01*
X35956588Y-99984159D01*
X35986627Y-99967484D01*
X35993708Y-99964122D01*
X36025617Y-99951377D01*
X36076854Y-99917608D01*
X36080851Y-99915187D01*
X36134502Y-99885409D01*
X36160568Y-99863030D01*
X36166843Y-99858300D01*
X36195519Y-99839402D01*
X36238917Y-99796002D01*
X36242336Y-99792834D01*
X36288895Y-99752866D01*
X36309931Y-99725688D01*
X36315101Y-99719818D01*
X38478101Y-97556819D01*
X38539425Y-97523334D01*
X38565783Y-97520500D01*
X40227618Y-97520500D01*
X40294657Y-97540185D01*
X40340412Y-97592989D01*
X40350356Y-97662147D01*
X40321331Y-97725703D01*
X40262553Y-97763477D01*
X40259711Y-97764275D01*
X40176516Y-97786566D01*
X40176507Y-97786570D01*
X39962422Y-97886399D01*
X39962420Y-97886400D01*
X39768926Y-98021886D01*
X39768920Y-98021891D01*
X39601891Y-98188920D01*
X39601886Y-98188926D01*
X39466400Y-98382420D01*
X39466399Y-98382422D01*
X39366570Y-98596507D01*
X39366567Y-98596513D01*
X39309364Y-98809999D01*
X39309364Y-98810000D01*
X40206314Y-98810000D01*
X40180507Y-98850156D01*
X40140000Y-98988111D01*
X40140000Y-99131889D01*
X40180507Y-99269844D01*
X40206314Y-99310000D01*
X39309364Y-99310000D01*
X39366567Y-99523486D01*
X39366570Y-99523492D01*
X39466399Y-99737578D01*
X39601894Y-99931082D01*
X39768917Y-100098105D01*
X39954595Y-100228119D01*
X39998219Y-100282696D01*
X40005412Y-100352195D01*
X39973890Y-100414549D01*
X39954595Y-100431269D01*
X39768594Y-100561508D01*
X39601505Y-100728597D01*
X39465965Y-100922169D01*
X39465964Y-100922171D01*
X39393628Y-101077296D01*
X39367863Y-101132551D01*
X39366098Y-101136335D01*
X39366094Y-101136344D01*
X39304938Y-101364586D01*
X39304936Y-101364596D01*
X39284341Y-101599999D01*
X39284341Y-101600000D01*
X39304936Y-101835403D01*
X39304938Y-101835413D01*
X39366094Y-102063655D01*
X39366096Y-102063659D01*
X39366097Y-102063663D01*
X39407345Y-102152119D01*
X39465965Y-102277830D01*
X39465967Y-102277834D01*
X39519083Y-102353691D01*
X39601505Y-102471401D01*
X39768599Y-102638495D01*
X39845135Y-102692086D01*
X39962165Y-102774032D01*
X39962167Y-102774033D01*
X39962170Y-102774035D01*
X40176337Y-102873903D01*
X40404592Y-102935063D01*
X40575319Y-102950000D01*
X40639999Y-102955659D01*
X40640000Y-102955659D01*
X40640001Y-102955659D01*
X40704681Y-102950000D01*
X40875408Y-102935063D01*
X41103663Y-102873903D01*
X41317830Y-102774035D01*
X41511401Y-102638495D01*
X41678495Y-102471401D01*
X41808426Y-102285841D01*
X41863002Y-102242217D01*
X41932500Y-102235023D01*
X41994855Y-102266546D01*
X42011575Y-102285842D01*
X42141500Y-102471395D01*
X42141505Y-102471401D01*
X42308599Y-102638495D01*
X42385135Y-102692086D01*
X42502165Y-102774032D01*
X42502167Y-102774033D01*
X42502170Y-102774035D01*
X42716337Y-102873903D01*
X42944592Y-102935063D01*
X43115319Y-102950000D01*
X43179999Y-102955659D01*
X43180000Y-102955659D01*
X43180001Y-102955659D01*
X43244681Y-102950000D01*
X43415408Y-102935063D01*
X43643663Y-102873903D01*
X43857830Y-102774035D01*
X44051401Y-102638495D01*
X44218495Y-102471401D01*
X44348426Y-102285841D01*
X44403002Y-102242217D01*
X44472500Y-102235023D01*
X44534855Y-102266546D01*
X44551575Y-102285842D01*
X44681500Y-102471395D01*
X44681505Y-102471401D01*
X44848599Y-102638495D01*
X44925135Y-102692086D01*
X45042165Y-102774032D01*
X45042167Y-102774033D01*
X45042170Y-102774035D01*
X45256337Y-102873903D01*
X45484592Y-102935063D01*
X45655319Y-102950000D01*
X45719999Y-102955659D01*
X45720000Y-102955659D01*
X45720001Y-102955659D01*
X45784681Y-102950000D01*
X45955408Y-102935063D01*
X46183663Y-102873903D01*
X46397830Y-102774035D01*
X46591401Y-102638495D01*
X46758495Y-102471401D01*
X46888426Y-102285841D01*
X46943002Y-102242217D01*
X47012500Y-102235023D01*
X47074855Y-102266546D01*
X47091575Y-102285842D01*
X47221500Y-102471395D01*
X47221505Y-102471401D01*
X47388599Y-102638495D01*
X47465135Y-102692086D01*
X47582165Y-102774032D01*
X47582167Y-102774033D01*
X47582170Y-102774035D01*
X47796337Y-102873903D01*
X48024592Y-102935063D01*
X48195319Y-102950000D01*
X48259999Y-102955659D01*
X48260000Y-102955659D01*
X48260001Y-102955659D01*
X48324681Y-102950000D01*
X48495408Y-102935063D01*
X48723663Y-102873903D01*
X48937830Y-102774035D01*
X49131401Y-102638495D01*
X49298495Y-102471401D01*
X49428426Y-102285841D01*
X49483002Y-102242217D01*
X49552500Y-102235023D01*
X49614855Y-102266546D01*
X49631575Y-102285842D01*
X49761500Y-102471395D01*
X49761505Y-102471401D01*
X49928599Y-102638495D01*
X50005135Y-102692086D01*
X50122165Y-102774032D01*
X50122167Y-102774033D01*
X50122170Y-102774035D01*
X50336337Y-102873903D01*
X50564592Y-102935063D01*
X50735319Y-102950000D01*
X50799999Y-102955659D01*
X50800000Y-102955659D01*
X50800001Y-102955659D01*
X50864681Y-102950000D01*
X51035408Y-102935063D01*
X51263663Y-102873903D01*
X51477830Y-102774035D01*
X51671401Y-102638495D01*
X51838495Y-102471401D01*
X51968426Y-102285841D01*
X52023002Y-102242217D01*
X52092500Y-102235023D01*
X52154855Y-102266546D01*
X52171575Y-102285842D01*
X52301500Y-102471395D01*
X52301505Y-102471401D01*
X52468599Y-102638495D01*
X52545135Y-102692086D01*
X52662165Y-102774032D01*
X52662167Y-102774033D01*
X52662170Y-102774035D01*
X52876337Y-102873903D01*
X53104592Y-102935063D01*
X53275319Y-102950000D01*
X53339999Y-102955659D01*
X53340000Y-102955659D01*
X53340001Y-102955659D01*
X53404681Y-102950000D01*
X53575408Y-102935063D01*
X53803663Y-102873903D01*
X54017830Y-102774035D01*
X54211401Y-102638495D01*
X54378495Y-102471401D01*
X54508426Y-102285841D01*
X54563002Y-102242217D01*
X54632500Y-102235023D01*
X54694855Y-102266546D01*
X54711575Y-102285842D01*
X54841500Y-102471395D01*
X54841505Y-102471401D01*
X55008599Y-102638495D01*
X55085135Y-102692086D01*
X55202165Y-102774032D01*
X55202167Y-102774033D01*
X55202170Y-102774035D01*
X55416337Y-102873903D01*
X55644592Y-102935063D01*
X55815319Y-102950000D01*
X55879999Y-102955659D01*
X55880000Y-102955659D01*
X55880001Y-102955659D01*
X55944681Y-102950000D01*
X56115408Y-102935063D01*
X56343663Y-102873903D01*
X56557830Y-102774035D01*
X56751401Y-102638495D01*
X56918495Y-102471401D01*
X57048426Y-102285841D01*
X57103002Y-102242217D01*
X57172500Y-102235023D01*
X57234855Y-102266546D01*
X57251575Y-102285842D01*
X57381500Y-102471395D01*
X57381505Y-102471401D01*
X57548599Y-102638495D01*
X57625135Y-102692086D01*
X57742165Y-102774032D01*
X57742167Y-102774033D01*
X57742170Y-102774035D01*
X57956337Y-102873903D01*
X58184592Y-102935063D01*
X58355319Y-102950000D01*
X58419999Y-102955659D01*
X58420000Y-102955659D01*
X58420001Y-102955659D01*
X58484681Y-102950000D01*
X58655408Y-102935063D01*
X58883663Y-102873903D01*
X59097830Y-102774035D01*
X59291401Y-102638495D01*
X59458495Y-102471401D01*
X59588426Y-102285841D01*
X59643002Y-102242217D01*
X59712500Y-102235023D01*
X59774855Y-102266546D01*
X59791575Y-102285842D01*
X59921500Y-102471395D01*
X59921505Y-102471401D01*
X60088599Y-102638495D01*
X60165135Y-102692086D01*
X60282165Y-102774032D01*
X60282167Y-102774033D01*
X60282170Y-102774035D01*
X60496337Y-102873903D01*
X60724592Y-102935063D01*
X60895319Y-102950000D01*
X60959999Y-102955659D01*
X60960000Y-102955659D01*
X60960001Y-102955659D01*
X61024681Y-102950000D01*
X61195408Y-102935063D01*
X61423663Y-102873903D01*
X61637830Y-102774035D01*
X61831401Y-102638495D01*
X61998495Y-102471401D01*
X62128426Y-102285841D01*
X62183002Y-102242217D01*
X62252500Y-102235023D01*
X62314855Y-102266546D01*
X62331575Y-102285842D01*
X62461500Y-102471395D01*
X62461505Y-102471401D01*
X62628599Y-102638495D01*
X62705135Y-102692086D01*
X62822165Y-102774032D01*
X62822167Y-102774033D01*
X62822170Y-102774035D01*
X63036337Y-102873903D01*
X63264592Y-102935063D01*
X63435319Y-102950000D01*
X63499999Y-102955659D01*
X63500000Y-102955659D01*
X63500001Y-102955659D01*
X63564681Y-102950000D01*
X63735408Y-102935063D01*
X63963663Y-102873903D01*
X64177830Y-102774035D01*
X64371401Y-102638495D01*
X64538495Y-102471401D01*
X64668426Y-102285841D01*
X64723002Y-102242217D01*
X64792500Y-102235023D01*
X64854855Y-102266546D01*
X64871575Y-102285842D01*
X65001500Y-102471395D01*
X65001505Y-102471401D01*
X65168599Y-102638495D01*
X65245135Y-102692086D01*
X65362165Y-102774032D01*
X65362167Y-102774033D01*
X65362170Y-102774035D01*
X65576337Y-102873903D01*
X65804592Y-102935063D01*
X65975319Y-102950000D01*
X66039999Y-102955659D01*
X66040000Y-102955659D01*
X66040001Y-102955659D01*
X66104681Y-102950000D01*
X66275408Y-102935063D01*
X66503663Y-102873903D01*
X66717830Y-102774035D01*
X66911401Y-102638495D01*
X67078495Y-102471401D01*
X67208426Y-102285841D01*
X67263002Y-102242217D01*
X67332500Y-102235023D01*
X67394855Y-102266546D01*
X67411575Y-102285842D01*
X67541500Y-102471395D01*
X67541505Y-102471401D01*
X67708599Y-102638495D01*
X67785135Y-102692086D01*
X67902165Y-102774032D01*
X67902167Y-102774033D01*
X67902170Y-102774035D01*
X68116337Y-102873903D01*
X68344592Y-102935063D01*
X68515319Y-102950000D01*
X68579999Y-102955659D01*
X68580000Y-102955659D01*
X68580001Y-102955659D01*
X68644681Y-102950000D01*
X68815408Y-102935063D01*
X69043663Y-102873903D01*
X69257830Y-102774035D01*
X69451401Y-102638495D01*
X69618495Y-102471401D01*
X69748426Y-102285841D01*
X69803002Y-102242217D01*
X69872500Y-102235023D01*
X69934855Y-102266546D01*
X69951575Y-102285842D01*
X70081500Y-102471395D01*
X70081505Y-102471401D01*
X70248599Y-102638495D01*
X70325135Y-102692086D01*
X70442165Y-102774032D01*
X70442167Y-102774033D01*
X70442170Y-102774035D01*
X70656337Y-102873903D01*
X70884592Y-102935063D01*
X71055319Y-102950000D01*
X71119999Y-102955659D01*
X71120000Y-102955659D01*
X71120001Y-102955659D01*
X71184681Y-102950000D01*
X71355408Y-102935063D01*
X71583663Y-102873903D01*
X71797830Y-102774035D01*
X71991401Y-102638495D01*
X72158495Y-102471401D01*
X72288426Y-102285841D01*
X72343002Y-102242217D01*
X72412500Y-102235023D01*
X72474855Y-102266546D01*
X72491575Y-102285842D01*
X72621500Y-102471395D01*
X72621505Y-102471401D01*
X72788599Y-102638495D01*
X72865135Y-102692086D01*
X72982165Y-102774032D01*
X72982167Y-102774033D01*
X72982170Y-102774035D01*
X73196337Y-102873903D01*
X73424592Y-102935063D01*
X73595319Y-102950000D01*
X73659999Y-102955659D01*
X73660000Y-102955659D01*
X73660001Y-102955659D01*
X73724681Y-102950000D01*
X73895408Y-102935063D01*
X74123663Y-102873903D01*
X74337830Y-102774035D01*
X74531401Y-102638495D01*
X74698495Y-102471401D01*
X74828426Y-102285841D01*
X74883002Y-102242217D01*
X74952500Y-102235023D01*
X75014855Y-102266546D01*
X75031575Y-102285842D01*
X75161500Y-102471395D01*
X75161505Y-102471401D01*
X75328599Y-102638495D01*
X75405135Y-102692086D01*
X75522165Y-102774032D01*
X75522167Y-102774033D01*
X75522170Y-102774035D01*
X75736337Y-102873903D01*
X75964592Y-102935063D01*
X76135319Y-102950000D01*
X76199999Y-102955659D01*
X76200000Y-102955659D01*
X76200001Y-102955659D01*
X76264681Y-102950000D01*
X76435408Y-102935063D01*
X76663663Y-102873903D01*
X76877830Y-102774035D01*
X77071401Y-102638495D01*
X77238495Y-102471401D01*
X77368426Y-102285841D01*
X77423002Y-102242217D01*
X77492500Y-102235023D01*
X77554855Y-102266546D01*
X77571575Y-102285842D01*
X77701500Y-102471395D01*
X77701505Y-102471401D01*
X77868599Y-102638495D01*
X77945135Y-102692086D01*
X78062165Y-102774032D01*
X78062167Y-102774033D01*
X78062170Y-102774035D01*
X78276337Y-102873903D01*
X78504592Y-102935063D01*
X78675319Y-102950000D01*
X78739999Y-102955659D01*
X78740000Y-102955659D01*
X78740001Y-102955659D01*
X78804681Y-102950000D01*
X78975408Y-102935063D01*
X79203663Y-102873903D01*
X79417830Y-102774035D01*
X79611401Y-102638495D01*
X79778495Y-102471401D01*
X79908426Y-102285841D01*
X79963002Y-102242217D01*
X80032500Y-102235023D01*
X80094855Y-102266546D01*
X80111575Y-102285842D01*
X80241500Y-102471395D01*
X80241505Y-102471401D01*
X80408599Y-102638495D01*
X80485135Y-102692086D01*
X80602165Y-102774032D01*
X80602167Y-102774033D01*
X80602170Y-102774035D01*
X80816337Y-102873903D01*
X81044592Y-102935063D01*
X81215319Y-102950000D01*
X81279999Y-102955659D01*
X81280000Y-102955659D01*
X81280001Y-102955659D01*
X81344681Y-102950000D01*
X81515408Y-102935063D01*
X81743663Y-102873903D01*
X81957830Y-102774035D01*
X82151401Y-102638495D01*
X82318495Y-102471401D01*
X82454035Y-102277830D01*
X82553903Y-102063663D01*
X82615063Y-101835408D01*
X82635659Y-101600000D01*
X82615063Y-101364592D01*
X82553903Y-101136337D01*
X82454035Y-100922171D01*
X82448730Y-100914595D01*
X82318496Y-100728600D01*
X82260859Y-100670963D01*
X82196179Y-100606283D01*
X82162696Y-100544963D01*
X82167680Y-100475271D01*
X82209551Y-100419337D01*
X82240529Y-100402422D01*
X82372086Y-100353354D01*
X82372093Y-100353350D01*
X82487187Y-100267190D01*
X82487190Y-100267187D01*
X82573350Y-100152093D01*
X82573354Y-100152086D01*
X82623596Y-100017379D01*
X82623598Y-100017372D01*
X82629999Y-99957844D01*
X82630000Y-99957827D01*
X82630000Y-99310000D01*
X81713686Y-99310000D01*
X81739493Y-99269844D01*
X81780000Y-99131889D01*
X81780000Y-98988111D01*
X81739493Y-98850156D01*
X81713686Y-98810000D01*
X82630000Y-98810000D01*
X82630000Y-98162172D01*
X82629999Y-98162155D01*
X82623598Y-98102627D01*
X82623596Y-98102620D01*
X82573354Y-97967913D01*
X82573350Y-97967906D01*
X82487190Y-97852812D01*
X82487187Y-97852809D01*
X82372093Y-97766649D01*
X82372086Y-97766645D01*
X82356097Y-97760682D01*
X82300163Y-97718811D01*
X82275746Y-97653347D01*
X82290597Y-97585074D01*
X82340002Y-97535668D01*
X82399430Y-97520500D01*
X96107618Y-97520500D01*
X96174657Y-97540185D01*
X96220412Y-97592989D01*
X96230356Y-97662147D01*
X96201331Y-97725703D01*
X96142553Y-97763477D01*
X96139711Y-97764275D01*
X96056516Y-97786566D01*
X96056507Y-97786570D01*
X95842422Y-97886399D01*
X95842420Y-97886400D01*
X95648926Y-98021886D01*
X95648920Y-98021891D01*
X95481891Y-98188920D01*
X95481886Y-98188926D01*
X95346400Y-98382420D01*
X95346399Y-98382422D01*
X95246570Y-98596507D01*
X95246567Y-98596513D01*
X95189364Y-98809999D01*
X95189364Y-98810000D01*
X96086314Y-98810000D01*
X96060507Y-98850156D01*
X96020000Y-98988111D01*
X96020000Y-99131889D01*
X96060507Y-99269844D01*
X96086314Y-99310000D01*
X95189364Y-99310000D01*
X95246567Y-99523486D01*
X95246570Y-99523492D01*
X95346399Y-99737578D01*
X95481894Y-99931082D01*
X95604334Y-100053522D01*
X95637819Y-100114845D01*
X95632835Y-100184537D01*
X95590963Y-100240470D01*
X95559987Y-100257385D01*
X95427911Y-100306646D01*
X95427906Y-100306649D01*
X95312812Y-100392809D01*
X95312809Y-100392812D01*
X95226649Y-100507906D01*
X95226645Y-100507913D01*
X95176403Y-100642620D01*
X95176401Y-100642627D01*
X95170000Y-100702155D01*
X95170000Y-100702172D01*
X95169999Y-101349999D01*
X95170000Y-101350000D01*
X96086314Y-101350000D01*
X96060507Y-101390156D01*
X96020000Y-101528111D01*
X96020000Y-101671889D01*
X96060507Y-101809844D01*
X96086314Y-101850000D01*
X95170000Y-101850000D01*
X95170000Y-102497844D01*
X95176401Y-102557372D01*
X95176403Y-102557379D01*
X95226645Y-102692086D01*
X95226649Y-102692093D01*
X95312809Y-102807187D01*
X95312812Y-102807190D01*
X95427906Y-102893350D01*
X95427913Y-102893354D01*
X95562620Y-102943596D01*
X95562627Y-102943598D01*
X95622155Y-102949999D01*
X95622172Y-102950000D01*
X96270000Y-102950000D01*
X96270000Y-102035501D01*
X96377685Y-102084680D01*
X96484237Y-102100000D01*
X96555763Y-102100000D01*
X96662315Y-102084680D01*
X96770000Y-102035501D01*
X96770000Y-102950000D01*
X97417828Y-102950000D01*
X97417844Y-102949999D01*
X97477372Y-102943598D01*
X97477379Y-102943596D01*
X97612086Y-102893354D01*
X97612093Y-102893350D01*
X97727187Y-102807190D01*
X97727190Y-102807187D01*
X97813350Y-102692093D01*
X97813354Y-102692086D01*
X97862614Y-102560013D01*
X97904485Y-102504079D01*
X97969949Y-102479662D01*
X98038222Y-102494513D01*
X98066477Y-102515665D01*
X98188917Y-102638105D01*
X98382421Y-102773600D01*
X98596507Y-102873429D01*
X98596516Y-102873433D01*
X98810000Y-102930634D01*
X98810000Y-102035501D01*
X98917685Y-102084680D01*
X99024237Y-102100000D01*
X99095763Y-102100000D01*
X99202315Y-102084680D01*
X99309999Y-102035501D01*
X99310000Y-102930633D01*
X99523483Y-102873433D01*
X99523492Y-102873429D01*
X99737578Y-102773600D01*
X99931082Y-102638105D01*
X100098105Y-102471082D01*
X100228119Y-102285405D01*
X100282696Y-102241781D01*
X100352195Y-102234588D01*
X100414549Y-102266110D01*
X100431269Y-102285405D01*
X100561505Y-102471401D01*
X100728599Y-102638495D01*
X100805135Y-102692086D01*
X100922165Y-102774032D01*
X100922167Y-102774033D01*
X100922170Y-102774035D01*
X101136337Y-102873903D01*
X101364592Y-102935063D01*
X101535319Y-102950000D01*
X101599999Y-102955659D01*
X101600000Y-102955659D01*
X101600001Y-102955659D01*
X101664681Y-102950000D01*
X101835408Y-102935063D01*
X102063663Y-102873903D01*
X102277830Y-102774035D01*
X102471401Y-102638495D01*
X102638495Y-102471401D01*
X102768426Y-102285840D01*
X102823001Y-102242217D01*
X102892499Y-102235023D01*
X102954854Y-102266546D01*
X102971574Y-102285841D01*
X103101505Y-102471401D01*
X103268599Y-102638495D01*
X103345135Y-102692086D01*
X103462165Y-102774032D01*
X103462167Y-102774033D01*
X103462170Y-102774035D01*
X103676337Y-102873903D01*
X103904592Y-102935063D01*
X104075319Y-102950000D01*
X104139999Y-102955659D01*
X104140000Y-102955659D01*
X104140001Y-102955659D01*
X104204681Y-102950000D01*
X104375408Y-102935063D01*
X104603663Y-102873903D01*
X104817830Y-102774035D01*
X105011401Y-102638495D01*
X105178495Y-102471401D01*
X105308426Y-102285840D01*
X105363001Y-102242217D01*
X105432499Y-102235023D01*
X105494854Y-102266546D01*
X105511574Y-102285841D01*
X105641505Y-102471401D01*
X105808599Y-102638495D01*
X105885135Y-102692086D01*
X106002165Y-102774032D01*
X106002167Y-102774033D01*
X106002170Y-102774035D01*
X106216337Y-102873903D01*
X106444592Y-102935063D01*
X106615319Y-102950000D01*
X106679999Y-102955659D01*
X106680000Y-102955659D01*
X106680001Y-102955659D01*
X106744681Y-102950000D01*
X106915408Y-102935063D01*
X107143663Y-102873903D01*
X107357830Y-102774035D01*
X107551401Y-102638495D01*
X107718495Y-102471401D01*
X107848426Y-102285840D01*
X107903001Y-102242217D01*
X107972499Y-102235023D01*
X108034854Y-102266546D01*
X108051574Y-102285841D01*
X108181505Y-102471401D01*
X108348599Y-102638495D01*
X108425135Y-102692086D01*
X108542165Y-102774032D01*
X108542167Y-102774033D01*
X108542170Y-102774035D01*
X108756337Y-102873903D01*
X108984592Y-102935063D01*
X109155319Y-102950000D01*
X109219999Y-102955659D01*
X109220000Y-102955659D01*
X109220001Y-102955659D01*
X109284681Y-102950000D01*
X109455408Y-102935063D01*
X109683663Y-102873903D01*
X109897830Y-102774035D01*
X110091401Y-102638495D01*
X110258495Y-102471401D01*
X110388426Y-102285840D01*
X110443001Y-102242217D01*
X110512499Y-102235023D01*
X110574854Y-102266546D01*
X110591574Y-102285841D01*
X110721505Y-102471401D01*
X110888599Y-102638495D01*
X110965135Y-102692086D01*
X111082165Y-102774032D01*
X111082167Y-102774033D01*
X111082170Y-102774035D01*
X111296337Y-102873903D01*
X111524592Y-102935063D01*
X111695319Y-102950000D01*
X111759999Y-102955659D01*
X111760000Y-102955659D01*
X111760001Y-102955659D01*
X111824681Y-102950000D01*
X111995408Y-102935063D01*
X112223663Y-102873903D01*
X112437830Y-102774035D01*
X112631401Y-102638495D01*
X112798495Y-102471401D01*
X112928426Y-102285840D01*
X112983001Y-102242217D01*
X113052499Y-102235023D01*
X113114854Y-102266546D01*
X113131574Y-102285841D01*
X113261505Y-102471401D01*
X113428599Y-102638495D01*
X113505135Y-102692086D01*
X113622165Y-102774032D01*
X113622167Y-102774033D01*
X113622170Y-102774035D01*
X113836337Y-102873903D01*
X114064592Y-102935063D01*
X114235319Y-102950000D01*
X114299999Y-102955659D01*
X114300000Y-102955659D01*
X114300001Y-102955659D01*
X114364681Y-102950000D01*
X114535408Y-102935063D01*
X114763663Y-102873903D01*
X114977830Y-102774035D01*
X115171401Y-102638495D01*
X115338495Y-102471401D01*
X115468426Y-102285840D01*
X115523001Y-102242217D01*
X115592499Y-102235023D01*
X115654854Y-102266546D01*
X115671574Y-102285841D01*
X115801505Y-102471401D01*
X115968599Y-102638495D01*
X116045135Y-102692086D01*
X116162165Y-102774032D01*
X116162167Y-102774033D01*
X116162170Y-102774035D01*
X116376337Y-102873903D01*
X116604592Y-102935063D01*
X116775319Y-102950000D01*
X116839999Y-102955659D01*
X116840000Y-102955659D01*
X116840001Y-102955659D01*
X116904681Y-102950000D01*
X117075408Y-102935063D01*
X117303663Y-102873903D01*
X117517830Y-102774035D01*
X117711401Y-102638495D01*
X117878495Y-102471401D01*
X118008426Y-102285840D01*
X118063001Y-102242217D01*
X118132499Y-102235023D01*
X118194854Y-102266546D01*
X118211574Y-102285841D01*
X118341505Y-102471401D01*
X118508599Y-102638495D01*
X118585135Y-102692086D01*
X118702165Y-102774032D01*
X118702167Y-102774033D01*
X118702170Y-102774035D01*
X118916337Y-102873903D01*
X119144592Y-102935063D01*
X119315319Y-102950000D01*
X119379999Y-102955659D01*
X119380000Y-102955659D01*
X119380001Y-102955659D01*
X119444681Y-102950000D01*
X119615408Y-102935063D01*
X119843663Y-102873903D01*
X120057830Y-102774035D01*
X120251401Y-102638495D01*
X120418495Y-102471401D01*
X120554035Y-102277830D01*
X120653903Y-102063663D01*
X120715063Y-101835408D01*
X120735659Y-101600000D01*
X120715063Y-101364592D01*
X120653903Y-101136337D01*
X120554035Y-100922171D01*
X120548731Y-100914595D01*
X120418494Y-100728597D01*
X120251402Y-100561506D01*
X120251395Y-100561501D01*
X120227776Y-100544963D01*
X120174854Y-100507906D01*
X120057834Y-100425967D01*
X120057830Y-100425965D01*
X120034659Y-100415160D01*
X119843663Y-100326097D01*
X119843659Y-100326096D01*
X119843655Y-100326094D01*
X119615413Y-100264938D01*
X119615403Y-100264936D01*
X119380001Y-100244341D01*
X119379999Y-100244341D01*
X119144596Y-100264936D01*
X119144586Y-100264938D01*
X118916344Y-100326094D01*
X118916335Y-100326098D01*
X118702171Y-100425964D01*
X118702169Y-100425965D01*
X118508597Y-100561505D01*
X118341508Y-100728594D01*
X118211574Y-100914159D01*
X118156997Y-100957784D01*
X118087498Y-100964976D01*
X118025144Y-100933454D01*
X118008424Y-100914158D01*
X117878494Y-100728597D01*
X117711402Y-100561506D01*
X117711396Y-100561501D01*
X117525842Y-100431575D01*
X117482217Y-100376998D01*
X117475023Y-100307500D01*
X117506546Y-100245145D01*
X117525842Y-100228425D01*
X117637774Y-100150049D01*
X117711401Y-100098495D01*
X117878495Y-99931401D01*
X118014035Y-99737830D01*
X118113903Y-99523663D01*
X118175063Y-99295408D01*
X118195659Y-99060000D01*
X118175063Y-98824592D01*
X118113903Y-98596337D01*
X118014035Y-98382171D01*
X118008731Y-98374595D01*
X117878494Y-98188597D01*
X117711402Y-98021506D01*
X117711395Y-98021501D01*
X117517834Y-97885967D01*
X117517830Y-97885965D01*
X117470921Y-97864091D01*
X117303663Y-97786097D01*
X117303659Y-97786096D01*
X117303655Y-97786094D01*
X117075413Y-97724938D01*
X117075403Y-97724936D01*
X116840001Y-97704341D01*
X116839999Y-97704341D01*
X116604596Y-97724936D01*
X116604586Y-97724938D01*
X116376344Y-97786094D01*
X116376335Y-97786098D01*
X116162171Y-97885964D01*
X116162169Y-97885965D01*
X115968597Y-98021505D01*
X115801505Y-98188597D01*
X115671575Y-98374158D01*
X115616998Y-98417783D01*
X115547500Y-98424977D01*
X115485145Y-98393454D01*
X115468425Y-98374158D01*
X115338494Y-98188597D01*
X115171402Y-98021506D01*
X115171395Y-98021501D01*
X114977834Y-97885967D01*
X114977830Y-97885965D01*
X114930921Y-97864091D01*
X114763663Y-97786097D01*
X114763659Y-97786096D01*
X114763655Y-97786094D01*
X114535413Y-97724938D01*
X114535403Y-97724936D01*
X114300001Y-97704341D01*
X114299999Y-97704341D01*
X114064596Y-97724936D01*
X114064586Y-97724938D01*
X113836344Y-97786094D01*
X113836335Y-97786098D01*
X113622171Y-97885964D01*
X113622169Y-97885965D01*
X113428597Y-98021505D01*
X113261505Y-98188597D01*
X113131575Y-98374158D01*
X113076998Y-98417783D01*
X113007500Y-98424977D01*
X112945145Y-98393454D01*
X112928425Y-98374158D01*
X112798494Y-98188597D01*
X112631402Y-98021506D01*
X112631395Y-98021501D01*
X112437834Y-97885967D01*
X112437830Y-97885965D01*
X112390921Y-97864091D01*
X112223663Y-97786097D01*
X112223659Y-97786096D01*
X112223655Y-97786094D01*
X111995413Y-97724938D01*
X111995403Y-97724936D01*
X111760001Y-97704341D01*
X111759999Y-97704341D01*
X111524596Y-97724936D01*
X111524586Y-97724938D01*
X111296344Y-97786094D01*
X111296335Y-97786098D01*
X111082171Y-97885964D01*
X111082169Y-97885965D01*
X110888597Y-98021505D01*
X110721505Y-98188597D01*
X110591575Y-98374158D01*
X110536998Y-98417783D01*
X110467500Y-98424977D01*
X110405145Y-98393454D01*
X110388425Y-98374158D01*
X110258494Y-98188597D01*
X110091402Y-98021506D01*
X110091395Y-98021501D01*
X109897834Y-97885967D01*
X109897830Y-97885965D01*
X109850921Y-97864091D01*
X109683663Y-97786097D01*
X109683659Y-97786096D01*
X109683655Y-97786094D01*
X109455413Y-97724938D01*
X109455403Y-97724936D01*
X109220001Y-97704341D01*
X109219999Y-97704341D01*
X108984596Y-97724936D01*
X108984586Y-97724938D01*
X108756344Y-97786094D01*
X108756335Y-97786098D01*
X108542171Y-97885964D01*
X108542169Y-97885965D01*
X108348597Y-98021505D01*
X108181505Y-98188597D01*
X108051575Y-98374158D01*
X107996998Y-98417783D01*
X107927500Y-98424977D01*
X107865145Y-98393454D01*
X107848425Y-98374158D01*
X107718494Y-98188597D01*
X107551402Y-98021506D01*
X107551395Y-98021501D01*
X107357834Y-97885967D01*
X107357830Y-97885965D01*
X107310921Y-97864091D01*
X107143663Y-97786097D01*
X107143659Y-97786096D01*
X107143655Y-97786094D01*
X106915413Y-97724938D01*
X106915403Y-97724936D01*
X106680001Y-97704341D01*
X106679999Y-97704341D01*
X106444596Y-97724936D01*
X106444586Y-97724938D01*
X106216344Y-97786094D01*
X106216335Y-97786098D01*
X106002171Y-97885964D01*
X106002169Y-97885965D01*
X105808597Y-98021505D01*
X105641508Y-98188594D01*
X105511574Y-98374159D01*
X105456997Y-98417784D01*
X105387498Y-98424976D01*
X105325144Y-98393454D01*
X105308424Y-98374158D01*
X105178494Y-98188597D01*
X105011402Y-98021506D01*
X105011395Y-98021501D01*
X104817834Y-97885967D01*
X104817830Y-97885965D01*
X104770921Y-97864091D01*
X104603663Y-97786097D01*
X104603659Y-97786096D01*
X104603655Y-97786094D01*
X104391668Y-97729293D01*
X104332007Y-97692928D01*
X104301478Y-97630081D01*
X104309773Y-97560706D01*
X104354258Y-97506828D01*
X104386639Y-97491205D01*
X104430377Y-97477483D01*
X104536577Y-97444163D01*
X104536580Y-97444161D01*
X104536588Y-97444159D01*
X104714502Y-97345409D01*
X104868895Y-97212866D01*
X104993448Y-97051958D01*
X105083060Y-96869271D01*
X105134063Y-96672285D01*
X105144369Y-96469064D01*
X105113556Y-96267929D01*
X105042886Y-96077113D01*
X104935252Y-95904429D01*
X104795059Y-95756947D01*
X104662699Y-95664822D01*
X104628050Y-95640705D01*
X104441056Y-95560459D01*
X104241741Y-95519500D01*
X38113452Y-95519500D01*
X38111889Y-95519480D01*
X38023636Y-95517244D01*
X38023635Y-95517244D01*
X38023626Y-95517244D01*
X37963263Y-95528064D01*
X37958597Y-95528718D01*
X37897564Y-95534925D01*
X37864780Y-95545210D01*
X37857153Y-95547082D01*
X37823349Y-95553141D01*
X37766381Y-95575895D01*
X37761945Y-95577474D01*
X37703414Y-95595840D01*
X37703410Y-95595842D01*
X37673378Y-95612510D01*
X37666284Y-95615879D01*
X37634382Y-95628623D01*
X37634377Y-95628625D01*
X37583156Y-95662381D01*
X37579128Y-95664822D01*
X37525501Y-95694588D01*
X37499434Y-95716965D01*
X37493165Y-95721692D01*
X37464484Y-95740595D01*
X37464478Y-95740600D01*
X37421109Y-95783968D01*
X37417655Y-95787169D01*
X37371102Y-95827136D01*
X37371101Y-95827137D01*
X37350077Y-95854298D01*
X37344884Y-95860193D01*
X35698252Y-97506828D01*
X35181899Y-98023181D01*
X35120576Y-98056666D01*
X35094218Y-98059500D01*
X30894315Y-98059500D01*
X30827276Y-98039815D01*
X30781521Y-97987011D01*
X30771577Y-97917853D01*
X30800602Y-97854297D01*
X30859380Y-97816523D01*
X30862222Y-97815725D01*
X30911040Y-97802644D01*
X30943663Y-97793903D01*
X31157830Y-97694035D01*
X31351401Y-97558495D01*
X31518495Y-97391401D01*
X31654035Y-97197830D01*
X31753903Y-96983663D01*
X31815063Y-96755408D01*
X31826043Y-96629901D01*
X31851495Y-96564834D01*
X31861882Y-96553037D01*
X33398101Y-95016819D01*
X33459425Y-94983334D01*
X33485783Y-94980500D01*
X101650743Y-94980500D01*
X101802439Y-94965074D01*
X101996579Y-94904162D01*
X101996580Y-94904161D01*
X101996588Y-94904159D01*
X102174502Y-94805409D01*
X102328895Y-94672866D01*
X102453448Y-94511958D01*
X102543060Y-94329271D01*
X102594063Y-94132285D01*
X102604369Y-93929064D01*
X102573556Y-93727929D01*
X102502886Y-93537113D01*
X102395252Y-93364429D01*
X102255059Y-93216947D01*
X102122699Y-93124822D01*
X102088050Y-93100705D01*
X101983507Y-93055842D01*
X101901058Y-93020460D01*
X101865448Y-93013142D01*
X101859152Y-93011848D01*
X101797448Y-92979070D01*
X101763259Y-92918137D01*
X101767441Y-92848392D01*
X101808666Y-92791981D01*
X101852018Y-92770612D01*
X102063663Y-92713903D01*
X102277830Y-92614035D01*
X102471401Y-92478495D01*
X102638495Y-92311401D01*
X102768426Y-92125840D01*
X102823001Y-92082217D01*
X102892499Y-92075023D01*
X102954854Y-92106546D01*
X102971574Y-92125841D01*
X103101505Y-92311401D01*
X103268599Y-92478495D01*
X103365384Y-92546264D01*
X103462165Y-92614032D01*
X103462167Y-92614033D01*
X103462170Y-92614035D01*
X103676337Y-92713903D01*
X103904592Y-92775063D01*
X104092918Y-92791539D01*
X104139999Y-92795659D01*
X104140000Y-92795659D01*
X104140001Y-92795659D01*
X104182039Y-92791981D01*
X104375408Y-92775063D01*
X104603663Y-92713903D01*
X104817830Y-92614035D01*
X105011401Y-92478495D01*
X105178495Y-92311401D01*
X105308426Y-92125841D01*
X105363002Y-92082217D01*
X105432500Y-92075023D01*
X105494855Y-92106546D01*
X105511575Y-92125842D01*
X105641500Y-92311395D01*
X105641505Y-92311401D01*
X105808599Y-92478495D01*
X105905384Y-92546264D01*
X106002165Y-92614032D01*
X106002167Y-92614033D01*
X106002170Y-92614035D01*
X106216337Y-92713903D01*
X106444592Y-92775063D01*
X106632918Y-92791539D01*
X106679999Y-92795659D01*
X106680000Y-92795659D01*
X106680001Y-92795659D01*
X106722039Y-92791981D01*
X106915408Y-92775063D01*
X107143663Y-92713903D01*
X107357830Y-92614035D01*
X107551401Y-92478495D01*
X107718495Y-92311401D01*
X107848426Y-92125840D01*
X107903001Y-92082217D01*
X107972499Y-92075023D01*
X108034854Y-92106546D01*
X108051574Y-92125841D01*
X108181505Y-92311401D01*
X108348599Y-92478495D01*
X108445384Y-92546264D01*
X108542165Y-92614032D01*
X108542167Y-92614033D01*
X108542170Y-92614035D01*
X108756337Y-92713903D01*
X108984592Y-92775063D01*
X109172918Y-92791539D01*
X109219999Y-92795659D01*
X109220000Y-92795659D01*
X109220001Y-92795659D01*
X109262039Y-92791981D01*
X109455408Y-92775063D01*
X109683663Y-92713903D01*
X109897830Y-92614035D01*
X110091401Y-92478495D01*
X110258495Y-92311401D01*
X110388426Y-92125841D01*
X110443002Y-92082217D01*
X110512500Y-92075023D01*
X110574855Y-92106546D01*
X110591575Y-92125842D01*
X110721500Y-92311395D01*
X110721505Y-92311401D01*
X110888599Y-92478495D01*
X110985384Y-92546264D01*
X111082165Y-92614032D01*
X111082167Y-92614033D01*
X111082170Y-92614035D01*
X111296337Y-92713903D01*
X111524592Y-92775063D01*
X111712918Y-92791539D01*
X111759999Y-92795659D01*
X111760000Y-92795659D01*
X111760001Y-92795659D01*
X111802039Y-92791981D01*
X111995408Y-92775063D01*
X112223663Y-92713903D01*
X112437830Y-92614035D01*
X112631401Y-92478495D01*
X112798495Y-92311401D01*
X112928426Y-92125840D01*
X112983001Y-92082217D01*
X113052499Y-92075023D01*
X113114854Y-92106546D01*
X113131574Y-92125841D01*
X113261505Y-92311401D01*
X113428599Y-92478495D01*
X113525384Y-92546264D01*
X113622165Y-92614032D01*
X113622167Y-92614033D01*
X113622170Y-92614035D01*
X113836337Y-92713903D01*
X114064592Y-92775063D01*
X114252918Y-92791539D01*
X114299999Y-92795659D01*
X114300000Y-92795659D01*
X114300001Y-92795659D01*
X114342039Y-92791981D01*
X114535408Y-92775063D01*
X114763663Y-92713903D01*
X114977830Y-92614035D01*
X115171401Y-92478495D01*
X115338495Y-92311401D01*
X115468426Y-92125841D01*
X115523002Y-92082217D01*
X115592500Y-92075023D01*
X115654855Y-92106546D01*
X115671575Y-92125842D01*
X115801500Y-92311395D01*
X115801505Y-92311401D01*
X115968599Y-92478495D01*
X116065384Y-92546264D01*
X116162165Y-92614032D01*
X116162167Y-92614033D01*
X116162170Y-92614035D01*
X116376337Y-92713903D01*
X116604592Y-92775063D01*
X116792918Y-92791539D01*
X116839999Y-92795659D01*
X116840000Y-92795659D01*
X116840001Y-92795659D01*
X116882039Y-92791981D01*
X117075408Y-92775063D01*
X117303663Y-92713903D01*
X117517830Y-92614035D01*
X117711401Y-92478495D01*
X117878495Y-92311401D01*
X118008426Y-92125840D01*
X118063001Y-92082217D01*
X118132499Y-92075023D01*
X118194854Y-92106546D01*
X118211574Y-92125841D01*
X118341505Y-92311401D01*
X118508599Y-92478495D01*
X118605384Y-92546264D01*
X118702165Y-92614032D01*
X118702167Y-92614033D01*
X118702170Y-92614035D01*
X118916337Y-92713903D01*
X119144592Y-92775063D01*
X119332918Y-92791539D01*
X119379999Y-92795659D01*
X119380000Y-92795659D01*
X119380001Y-92795659D01*
X119422039Y-92791981D01*
X119615408Y-92775063D01*
X119843663Y-92713903D01*
X120057830Y-92614035D01*
X120251401Y-92478495D01*
X120418495Y-92311401D01*
X120554035Y-92117830D01*
X120653903Y-91903663D01*
X120715063Y-91675408D01*
X120735659Y-91440000D01*
X120715063Y-91204592D01*
X120653903Y-90976337D01*
X120554035Y-90762171D01*
X120553710Y-90761706D01*
X120418494Y-90568597D01*
X120251402Y-90401506D01*
X120251395Y-90401501D01*
X120057834Y-90265967D01*
X120057830Y-90265965D01*
X120057828Y-90265964D01*
X119843663Y-90166097D01*
X119843659Y-90166096D01*
X119843655Y-90166094D01*
X119615413Y-90104938D01*
X119615403Y-90104936D01*
X119380001Y-90084341D01*
X119379999Y-90084341D01*
X119144596Y-90104936D01*
X119144586Y-90104938D01*
X118916344Y-90166094D01*
X118916335Y-90166098D01*
X118702171Y-90265964D01*
X118702169Y-90265965D01*
X118508597Y-90401505D01*
X118341505Y-90568597D01*
X118211575Y-90754158D01*
X118156998Y-90797783D01*
X118087500Y-90804977D01*
X118025145Y-90773454D01*
X118008425Y-90754158D01*
X117878494Y-90568597D01*
X117711402Y-90401506D01*
X117711396Y-90401501D01*
X117525842Y-90271575D01*
X117482217Y-90216998D01*
X117475023Y-90147500D01*
X117506546Y-90085145D01*
X117525842Y-90068425D01*
X117679159Y-89961071D01*
X117711401Y-89938495D01*
X117878495Y-89771401D01*
X118014035Y-89577830D01*
X118113903Y-89363663D01*
X118175063Y-89135408D01*
X118195659Y-88900000D01*
X118175063Y-88664592D01*
X118113903Y-88436337D01*
X118014035Y-88222171D01*
X118008425Y-88214158D01*
X117878494Y-88028597D01*
X117711402Y-87861506D01*
X117711395Y-87861501D01*
X117517834Y-87725967D01*
X117517830Y-87725965D01*
X117391274Y-87666951D01*
X117303663Y-87626097D01*
X117303659Y-87626096D01*
X117303655Y-87626094D01*
X117075413Y-87564938D01*
X117075403Y-87564936D01*
X116840001Y-87544341D01*
X116839999Y-87544341D01*
X116604596Y-87564936D01*
X116604586Y-87564938D01*
X116376344Y-87626094D01*
X116376335Y-87626098D01*
X116162171Y-87725964D01*
X116162169Y-87725965D01*
X115968597Y-87861505D01*
X115801505Y-88028597D01*
X115671575Y-88214158D01*
X115616998Y-88257783D01*
X115547500Y-88264977D01*
X115485145Y-88233454D01*
X115468425Y-88214158D01*
X115338494Y-88028597D01*
X115171402Y-87861506D01*
X115171395Y-87861501D01*
X114977834Y-87725967D01*
X114977830Y-87725965D01*
X114851274Y-87666951D01*
X114763663Y-87626097D01*
X114763659Y-87626096D01*
X114763655Y-87626094D01*
X114535413Y-87564938D01*
X114535403Y-87564936D01*
X114300001Y-87544341D01*
X114299999Y-87544341D01*
X114064596Y-87564936D01*
X114064586Y-87564938D01*
X113836344Y-87626094D01*
X113836335Y-87626098D01*
X113622171Y-87725964D01*
X113622169Y-87725965D01*
X113428597Y-87861505D01*
X113261505Y-88028597D01*
X113131575Y-88214158D01*
X113076998Y-88257783D01*
X113007500Y-88264977D01*
X112945145Y-88233454D01*
X112928425Y-88214158D01*
X112798494Y-88028597D01*
X112631402Y-87861506D01*
X112631395Y-87861501D01*
X112437834Y-87725967D01*
X112437831Y-87725965D01*
X112437830Y-87725965D01*
X112352663Y-87686251D01*
X112311275Y-87666951D01*
X112258836Y-87620778D01*
X112239684Y-87553585D01*
X112259900Y-87486704D01*
X112275994Y-87466893D01*
X113409513Y-86333374D01*
X113422079Y-86323308D01*
X113421925Y-86323121D01*
X113427933Y-86318148D01*
X113427940Y-86318145D01*
X113476532Y-86266399D01*
X113477856Y-86265031D01*
X113498911Y-86243978D01*
X113503401Y-86238188D01*
X113507183Y-86233758D01*
X113540448Y-86198336D01*
X113550674Y-86179733D01*
X113561353Y-86163476D01*
X113574362Y-86146707D01*
X113593663Y-86102102D01*
X113596207Y-86096908D01*
X113619627Y-86054311D01*
X113624906Y-86033750D01*
X113631208Y-86015341D01*
X113639635Y-85995869D01*
X113647232Y-85947899D01*
X113648417Y-85942178D01*
X113660499Y-85895122D01*
X113660500Y-85895120D01*
X113660499Y-85873894D01*
X113662027Y-85854491D01*
X113665345Y-85833543D01*
X113665346Y-85833540D01*
X113663361Y-85812544D01*
X113660972Y-85787261D01*
X113660775Y-85785181D01*
X113660500Y-85779343D01*
X113660500Y-82280500D01*
X113660500Y-78753202D01*
X113662268Y-78737199D01*
X113662026Y-78737177D01*
X113662760Y-78729415D01*
X113660531Y-78658473D01*
X113660500Y-78656525D01*
X113660500Y-78626786D01*
X113660500Y-78626785D01*
X113659579Y-78619498D01*
X113659122Y-78613689D01*
X113657597Y-78565141D01*
X113651676Y-78544763D01*
X113647731Y-78525714D01*
X113645071Y-78504652D01*
X113627185Y-78459479D01*
X113625296Y-78453959D01*
X113611743Y-78407310D01*
X113600940Y-78389044D01*
X113592378Y-78371566D01*
X113584568Y-78351839D01*
X113584565Y-78351835D01*
X113578451Y-78343420D01*
X113556014Y-78312537D01*
X113552811Y-78307661D01*
X113528081Y-78265845D01*
X113528079Y-78265843D01*
X113528078Y-78265841D01*
X113513075Y-78250839D01*
X113500435Y-78236040D01*
X113487961Y-78218870D01*
X113450528Y-78187904D01*
X113446206Y-78183970D01*
X112499841Y-77237605D01*
X112466356Y-77176282D01*
X112471340Y-77106590D01*
X112503984Y-77058287D01*
X112574355Y-76994135D01*
X112602740Y-76968259D01*
X112729558Y-76800325D01*
X112823359Y-76611947D01*
X112880948Y-76409542D01*
X112900365Y-76200000D01*
X113160138Y-76200000D01*
X113179545Y-76409444D01*
X113237111Y-76611769D01*
X113330871Y-76800062D01*
X113337545Y-76808899D01*
X113911656Y-76234790D01*
X113942552Y-76356791D01*
X114012829Y-76464359D01*
X114114226Y-76543280D01*
X114235755Y-76585000D01*
X114268553Y-76585000D01*
X113693887Y-77159663D01*
X113791918Y-77220362D01*
X113791920Y-77220363D01*
X113988063Y-77296348D01*
X114194829Y-77335000D01*
X114405171Y-77335000D01*
X114611935Y-77296348D01*
X114611936Y-77296348D01*
X114808079Y-77220363D01*
X114808080Y-77220362D01*
X114906110Y-77159664D01*
X114906111Y-77159663D01*
X114331448Y-76585000D01*
X114331905Y-76585000D01*
X114426738Y-76569175D01*
X114539742Y-76508020D01*
X114626766Y-76413487D01*
X114678380Y-76295819D01*
X114683812Y-76230260D01*
X115262452Y-76808899D01*
X115262453Y-76808899D01*
X115269128Y-76800061D01*
X115362888Y-76611769D01*
X115420454Y-76409444D01*
X115439862Y-76200000D01*
X115439862Y-76199999D01*
X115884901Y-76199999D01*
X115903252Y-76386331D01*
X115903253Y-76386333D01*
X115957604Y-76565502D01*
X116045862Y-76730623D01*
X116045864Y-76730626D01*
X116164642Y-76875357D01*
X116309373Y-76994135D01*
X116309376Y-76994137D01*
X116429394Y-77058287D01*
X116474499Y-77082396D01*
X116640552Y-77132768D01*
X116653666Y-77136746D01*
X116653668Y-77136747D01*
X116676416Y-77138987D01*
X116834841Y-77154590D01*
X116899626Y-77180751D01*
X116910366Y-77190312D01*
X120291406Y-80571352D01*
X120324891Y-80632675D01*
X120319907Y-80702367D01*
X120319185Y-80704252D01*
X120290492Y-80777363D01*
X120290490Y-80777369D01*
X120290489Y-80777374D01*
X120233777Y-81025845D01*
X120214732Y-81279995D01*
X120214732Y-81280004D01*
X120233777Y-81534154D01*
X120288384Y-81773405D01*
X120290492Y-81782637D01*
X120383607Y-82019888D01*
X120511041Y-82240612D01*
X120669950Y-82439877D01*
X120856783Y-82613232D01*
X121067366Y-82756805D01*
X121067371Y-82756807D01*
X121067372Y-82756808D01*
X121067373Y-82756809D01*
X121189328Y-82815538D01*
X121296992Y-82867387D01*
X121296993Y-82867387D01*
X121296996Y-82867389D01*
X121540542Y-82942513D01*
X121792565Y-82980500D01*
X122047435Y-82980500D01*
X122299458Y-82942513D01*
X122543004Y-82867389D01*
X122772634Y-82756805D01*
X122983217Y-82613232D01*
X123170050Y-82439877D01*
X123328959Y-82240612D01*
X123456393Y-82019888D01*
X123549508Y-81782637D01*
X123606222Y-81534157D01*
X123614384Y-81425232D01*
X123625268Y-81280004D01*
X123625268Y-81279995D01*
X123611305Y-81093666D01*
X123606222Y-81025843D01*
X123549508Y-80777363D01*
X123456393Y-80540112D01*
X123328959Y-80319388D01*
X123170050Y-80120123D01*
X122983217Y-79946768D01*
X122772634Y-79803195D01*
X122772630Y-79803193D01*
X122772627Y-79803191D01*
X122772626Y-79803190D01*
X122543006Y-79692612D01*
X122543008Y-79692612D01*
X122299466Y-79617489D01*
X122299462Y-79617488D01*
X122299458Y-79617487D01*
X122178231Y-79599214D01*
X122047440Y-79579500D01*
X122047435Y-79579500D01*
X121792565Y-79579500D01*
X121792559Y-79579500D01*
X121635609Y-79603157D01*
X121540542Y-79617487D01*
X121540538Y-79617488D01*
X121540539Y-79617488D01*
X121540529Y-79617490D01*
X121334429Y-79681063D01*
X121264566Y-79682013D01*
X121210199Y-79650253D01*
X117830312Y-76270366D01*
X117796827Y-76209043D01*
X117794591Y-76194850D01*
X117776747Y-76013669D01*
X117722396Y-75834499D01*
X117649096Y-75697363D01*
X117634137Y-75669376D01*
X117634135Y-75669373D01*
X117515357Y-75524642D01*
X117370626Y-75405864D01*
X117370623Y-75405862D01*
X117205502Y-75317604D01*
X117026333Y-75263253D01*
X117026331Y-75263252D01*
X116840000Y-75244901D01*
X116653668Y-75263252D01*
X116653666Y-75263253D01*
X116474497Y-75317604D01*
X116309376Y-75405862D01*
X116309373Y-75405864D01*
X116164642Y-75524642D01*
X116045864Y-75669373D01*
X116045862Y-75669376D01*
X115957604Y-75834497D01*
X115903253Y-76013666D01*
X115903252Y-76013668D01*
X115884901Y-76199999D01*
X115439862Y-76199999D01*
X115420454Y-75990555D01*
X115362888Y-75788230D01*
X115269130Y-75599941D01*
X115269128Y-75599937D01*
X115262453Y-75591099D01*
X115262452Y-75591098D01*
X114688342Y-76165207D01*
X114657448Y-76043209D01*
X114587171Y-75935641D01*
X114485774Y-75856720D01*
X114364245Y-75815000D01*
X114331446Y-75815000D01*
X114906111Y-75240335D01*
X114906110Y-75240334D01*
X114808083Y-75179638D01*
X114808077Y-75179636D01*
X114611936Y-75103651D01*
X114405171Y-75065000D01*
X114194829Y-75065000D01*
X113988064Y-75103651D01*
X113988063Y-75103651D01*
X113791923Y-75179635D01*
X113693887Y-75240335D01*
X114268551Y-75815000D01*
X114268095Y-75815000D01*
X114173262Y-75830825D01*
X114060258Y-75891980D01*
X113973234Y-75986513D01*
X113921620Y-76104181D01*
X113916187Y-76169740D01*
X113337545Y-75591099D01*
X113330870Y-75599939D01*
X113237111Y-75788230D01*
X113179545Y-75990555D01*
X113160138Y-76199999D01*
X113160138Y-76200000D01*
X112900365Y-76200000D01*
X112880948Y-75990458D01*
X112823359Y-75788053D01*
X112729558Y-75599675D01*
X112602740Y-75431741D01*
X112447223Y-75289969D01*
X112447221Y-75289967D01*
X112268307Y-75179188D01*
X112268301Y-75179185D01*
X112083684Y-75107665D01*
X112072076Y-75103168D01*
X111865220Y-75064500D01*
X111654780Y-75064500D01*
X111447924Y-75103168D01*
X111447921Y-75103168D01*
X111447921Y-75103169D01*
X111251698Y-75179185D01*
X111251692Y-75179188D01*
X111072778Y-75289967D01*
X111072776Y-75289969D01*
X110917261Y-75431739D01*
X110790442Y-75599674D01*
X110696642Y-75788049D01*
X110667846Y-75889255D01*
X110640175Y-75986513D01*
X110639051Y-75990462D01*
X110619634Y-76199999D01*
X110619634Y-76200000D01*
X110639051Y-76409537D01*
X110639051Y-76409539D01*
X110639052Y-76409542D01*
X110696641Y-76611947D01*
X110696642Y-76611950D01*
X110790442Y-76800325D01*
X110917261Y-76968260D01*
X111069037Y-77106622D01*
X111105319Y-77166333D01*
X111109499Y-77198259D01*
X111109499Y-77332211D01*
X111107732Y-77348219D01*
X111107973Y-77348242D01*
X111107239Y-77356002D01*
X111109469Y-77426945D01*
X111109500Y-77428893D01*
X111109500Y-77458630D01*
X111109501Y-77458650D01*
X111110418Y-77465916D01*
X111110876Y-77471734D01*
X111112402Y-77520277D01*
X111112403Y-77520280D01*
X111118323Y-77540658D01*
X111122268Y-77559706D01*
X111124928Y-77580764D01*
X111124931Y-77580774D01*
X111142813Y-77625940D01*
X111144705Y-77631468D01*
X111158254Y-77678105D01*
X111158255Y-77678107D01*
X111169060Y-77696376D01*
X111177617Y-77713844D01*
X111183226Y-77728010D01*
X111185432Y-77733582D01*
X111213983Y-77772880D01*
X111217188Y-77777759D01*
X111241919Y-77819575D01*
X111241923Y-77819579D01*
X111256925Y-77834581D01*
X111269563Y-77849379D01*
X111282033Y-77866543D01*
X111282036Y-77866547D01*
X111319464Y-77897509D01*
X111323776Y-77901432D01*
X111861287Y-78438942D01*
X112323181Y-78900836D01*
X112356666Y-78962159D01*
X112359500Y-78988517D01*
X112359499Y-82855797D01*
X112339814Y-82922836D01*
X112287010Y-82968591D01*
X112217852Y-82978535D01*
X112177046Y-82965155D01*
X112154902Y-82953319D01*
X112125500Y-82937603D01*
X111946333Y-82883253D01*
X111946331Y-82883252D01*
X111760000Y-82864901D01*
X111573668Y-82883252D01*
X111573666Y-82883253D01*
X111394497Y-82937604D01*
X111229376Y-83025862D01*
X111229373Y-83025864D01*
X111088651Y-83141353D01*
X111024341Y-83168666D01*
X111009986Y-83169500D01*
X81600808Y-83169500D01*
X81533769Y-83149815D01*
X81513127Y-83133181D01*
X77828593Y-79448647D01*
X77795108Y-79387324D01*
X77800092Y-79317632D01*
X77800794Y-79315795D01*
X77829508Y-79242637D01*
X77886222Y-78994157D01*
X77894384Y-78885232D01*
X77905268Y-78740004D01*
X77905268Y-78739995D01*
X77889209Y-78525707D01*
X77886222Y-78485843D01*
X77829508Y-78237363D01*
X77740195Y-78009801D01*
X77734027Y-77940206D01*
X77766465Y-77878322D01*
X77827209Y-77843799D01*
X77855624Y-77840500D01*
X89784376Y-77840500D01*
X89851415Y-77860185D01*
X89897170Y-77912989D01*
X89907114Y-77982147D01*
X89899804Y-78009799D01*
X89851053Y-78134013D01*
X89810492Y-78237362D01*
X89810490Y-78237369D01*
X89753777Y-78485845D01*
X89734732Y-78739995D01*
X89734732Y-78740004D01*
X89753777Y-78994154D01*
X89808384Y-79233405D01*
X89810492Y-79242637D01*
X89903607Y-79479888D01*
X90031041Y-79700612D01*
X90189950Y-79899877D01*
X90376783Y-80073232D01*
X90587366Y-80216805D01*
X90587371Y-80216807D01*
X90587372Y-80216808D01*
X90587373Y-80216809D01*
X90694284Y-80268294D01*
X90816992Y-80327387D01*
X90816993Y-80327387D01*
X90816996Y-80327389D01*
X91060542Y-80402513D01*
X91312565Y-80440500D01*
X91567435Y-80440500D01*
X91819458Y-80402513D01*
X92063004Y-80327389D01*
X92292634Y-80216805D01*
X92503217Y-80073232D01*
X92690050Y-79899877D01*
X92848959Y-79700612D01*
X92976393Y-79479888D01*
X93069508Y-79242637D01*
X93126222Y-78994157D01*
X93134384Y-78885232D01*
X93145268Y-78740004D01*
X93145268Y-78739995D01*
X93129209Y-78525707D01*
X93126222Y-78485843D01*
X93069508Y-78237363D01*
X92980195Y-78009801D01*
X92974027Y-77940206D01*
X93006465Y-77878322D01*
X93067209Y-77843799D01*
X93095624Y-77840500D01*
X107349192Y-77840500D01*
X107416231Y-77860185D01*
X107436873Y-77876819D01*
X108229687Y-78669633D01*
X108263172Y-78730956D01*
X108265409Y-78745160D01*
X108283252Y-78926331D01*
X108283253Y-78926333D01*
X108337604Y-79105502D01*
X108425862Y-79270623D01*
X108425864Y-79270626D01*
X108544642Y-79415357D01*
X108689373Y-79534135D01*
X108689376Y-79534137D01*
X108845320Y-79617490D01*
X108854499Y-79622396D01*
X109033666Y-79676746D01*
X109033668Y-79676747D01*
X109050374Y-79678392D01*
X109220000Y-79695099D01*
X109406331Y-79676747D01*
X109585501Y-79622396D01*
X109750625Y-79534136D01*
X109895357Y-79415357D01*
X110014136Y-79270625D01*
X110102396Y-79105501D01*
X110156747Y-78926331D01*
X110175099Y-78740000D01*
X110156747Y-78553669D01*
X110102396Y-78374499D01*
X110069282Y-78312546D01*
X110014137Y-78209376D01*
X110014135Y-78209373D01*
X109895357Y-78064642D01*
X109750626Y-77945864D01*
X109750623Y-77945862D01*
X109585502Y-77857604D01*
X109406333Y-77803253D01*
X109406331Y-77803252D01*
X109225160Y-77785409D01*
X109160373Y-77759248D01*
X109149633Y-77749687D01*
X108931382Y-77531436D01*
X108897897Y-77470113D01*
X108902881Y-77400421D01*
X108944753Y-77344488D01*
X109010217Y-77320071D01*
X109041842Y-77321865D01*
X109114780Y-77335500D01*
X109114782Y-77335500D01*
X109325218Y-77335500D01*
X109325220Y-77335500D01*
X109532076Y-77296832D01*
X109728304Y-77220813D01*
X109907223Y-77110031D01*
X110062740Y-76968259D01*
X110189558Y-76800325D01*
X110283359Y-76611947D01*
X110340948Y-76409542D01*
X110360365Y-76200000D01*
X110340948Y-75990458D01*
X110283359Y-75788053D01*
X110189558Y-75599675D01*
X110062740Y-75431741D01*
X109907223Y-75289969D01*
X109907221Y-75289967D01*
X109728307Y-75179188D01*
X109728301Y-75179185D01*
X109543684Y-75107665D01*
X109532076Y-75103168D01*
X109325220Y-75064500D01*
X109114780Y-75064500D01*
X108907924Y-75103168D01*
X108907921Y-75103168D01*
X108907921Y-75103169D01*
X108711698Y-75179185D01*
X108711692Y-75179188D01*
X108532778Y-75289967D01*
X108532776Y-75289969D01*
X108377261Y-75431739D01*
X108250442Y-75599674D01*
X108156642Y-75788049D01*
X108127846Y-75889255D01*
X108100175Y-75986513D01*
X108099051Y-75990462D01*
X108079634Y-76199999D01*
X108079634Y-76200000D01*
X108099051Y-76409539D01*
X108110185Y-76448670D01*
X108109597Y-76518537D01*
X108071330Y-76576996D01*
X108007532Y-76605485D01*
X107938460Y-76594960D01*
X107931182Y-76591266D01*
X107919784Y-76585000D01*
X107911368Y-76580373D01*
X107911367Y-76580372D01*
X107911366Y-76580372D01*
X107890801Y-76575092D01*
X107872392Y-76568788D01*
X107868205Y-76566976D01*
X107814498Y-76522285D01*
X107793479Y-76455652D01*
X107798189Y-76419238D01*
X107800948Y-76409542D01*
X107820365Y-76200000D01*
X107800948Y-75990458D01*
X107743359Y-75788053D01*
X107649558Y-75599675D01*
X107522740Y-75431741D01*
X107367223Y-75289969D01*
X107367221Y-75289967D01*
X107188307Y-75179188D01*
X107188301Y-75179185D01*
X107003684Y-75107665D01*
X106992076Y-75103168D01*
X106785220Y-75064500D01*
X106574780Y-75064500D01*
X106367924Y-75103168D01*
X106367921Y-75103168D01*
X106367921Y-75103169D01*
X106171698Y-75179185D01*
X106171692Y-75179188D01*
X105992778Y-75289967D01*
X105992776Y-75289969D01*
X105837261Y-75431739D01*
X105710442Y-75599674D01*
X105616642Y-75788049D01*
X105587846Y-75889255D01*
X105560175Y-75986513D01*
X105559051Y-75990462D01*
X105539634Y-76199999D01*
X105539635Y-76200000D01*
X105544619Y-76253791D01*
X105558544Y-76404059D01*
X105545129Y-76472628D01*
X105496772Y-76523060D01*
X105435073Y-76539500D01*
X105384927Y-76539500D01*
X105317888Y-76519815D01*
X105272133Y-76467011D01*
X105261456Y-76404059D01*
X105275381Y-76253791D01*
X105280365Y-76200000D01*
X105260948Y-75990458D01*
X105203359Y-75788053D01*
X105109558Y-75599675D01*
X104982740Y-75431741D01*
X104827223Y-75289969D01*
X104827221Y-75289967D01*
X104648307Y-75179188D01*
X104648301Y-75179185D01*
X104463684Y-75107665D01*
X104452076Y-75103168D01*
X104245220Y-75064500D01*
X104034780Y-75064500D01*
X103827924Y-75103168D01*
X103827921Y-75103168D01*
X103827921Y-75103169D01*
X103631698Y-75179185D01*
X103631692Y-75179188D01*
X103452778Y-75289967D01*
X103452776Y-75289969D01*
X103297261Y-75431739D01*
X103170442Y-75599674D01*
X103076642Y-75788049D01*
X103047846Y-75889255D01*
X103020175Y-75986513D01*
X103019051Y-75990462D01*
X102999634Y-76199999D01*
X102999635Y-76200000D01*
X103004619Y-76253791D01*
X103018544Y-76404059D01*
X103005129Y-76472628D01*
X102956772Y-76523060D01*
X102895073Y-76539500D01*
X102844927Y-76539500D01*
X102777888Y-76519815D01*
X102732133Y-76467011D01*
X102721456Y-76404059D01*
X102735381Y-76253791D01*
X102740365Y-76200000D01*
X102720948Y-75990458D01*
X102663359Y-75788053D01*
X102569558Y-75599675D01*
X102442740Y-75431741D01*
X102287223Y-75289969D01*
X102287221Y-75289967D01*
X102108307Y-75179188D01*
X102108301Y-75179185D01*
X101923684Y-75107665D01*
X101912076Y-75103168D01*
X101705220Y-75064500D01*
X101494780Y-75064500D01*
X101482462Y-75066802D01*
X101466065Y-75069867D01*
X101396550Y-75062833D01*
X101355604Y-75035658D01*
X101135434Y-74815488D01*
X101125361Y-74802914D01*
X101125174Y-74803070D01*
X101120198Y-74797055D01*
X101087382Y-74766240D01*
X101068432Y-74748445D01*
X101067058Y-74747112D01*
X101046035Y-74726089D01*
X101040240Y-74721594D01*
X101035798Y-74717799D01*
X101000396Y-74684554D01*
X101000388Y-74684548D01*
X100981792Y-74674325D01*
X100965531Y-74663644D01*
X100948763Y-74650637D01*
X100917547Y-74637129D01*
X100904178Y-74631343D01*
X100898956Y-74628786D01*
X100856368Y-74605373D01*
X100856365Y-74605372D01*
X100835801Y-74600092D01*
X100817396Y-74593790D01*
X100797927Y-74585365D01*
X100797921Y-74585363D01*
X100749951Y-74577766D01*
X100744236Y-74576582D01*
X100722275Y-74570944D01*
X100697180Y-74564500D01*
X100697177Y-74564500D01*
X100675955Y-74564500D01*
X100656555Y-74562973D01*
X100635596Y-74559653D01*
X100635595Y-74559653D01*
X100611786Y-74561903D01*
X100587230Y-74564225D01*
X100581392Y-74564500D01*
X98148210Y-74564500D01*
X98124978Y-74562304D01*
X98116170Y-74560624D01*
X98116168Y-74560624D01*
X98106900Y-74561207D01*
X98056491Y-74564378D01*
X98052619Y-74564500D01*
X98034071Y-74564500D01*
X98015672Y-74566823D01*
X98011800Y-74567189D01*
X97958505Y-74570543D01*
X97952140Y-74570944D01*
X97952139Y-74570944D01*
X97943608Y-74573716D01*
X97920841Y-74578804D01*
X97911942Y-74579929D01*
X97911940Y-74579929D01*
X97856356Y-74601936D01*
X97852693Y-74603255D01*
X97795828Y-74621731D01*
X97788251Y-74626540D01*
X97767468Y-74637129D01*
X97759133Y-74640429D01*
X97759131Y-74640430D01*
X97710763Y-74675570D01*
X97707543Y-74677758D01*
X97657065Y-74709793D01*
X97657056Y-74709801D01*
X97650913Y-74716342D01*
X97633429Y-74731756D01*
X97626165Y-74737034D01*
X97626165Y-74737035D01*
X97588055Y-74783099D01*
X97585481Y-74786019D01*
X97544551Y-74829607D01*
X97544549Y-74829610D01*
X97540226Y-74837473D01*
X97527121Y-74856756D01*
X97521404Y-74863667D01*
X97521401Y-74863672D01*
X97495945Y-74917765D01*
X97494178Y-74921233D01*
X97465374Y-74973629D01*
X97465373Y-74973632D01*
X97463141Y-74982324D01*
X97455239Y-75004271D01*
X97451420Y-75012386D01*
X97440222Y-75071092D01*
X97439372Y-75074891D01*
X97424499Y-75132823D01*
X97424499Y-75141797D01*
X97422305Y-75165015D01*
X97420624Y-75173827D01*
X97420624Y-75173830D01*
X97424378Y-75233507D01*
X97424500Y-75237380D01*
X97424500Y-75915500D01*
X97404815Y-75982539D01*
X97352011Y-76028294D01*
X97300500Y-76039500D01*
X75436367Y-76039500D01*
X75420356Y-76037732D01*
X75420334Y-76037974D01*
X75412567Y-76037239D01*
X75341627Y-76039469D01*
X75339679Y-76039500D01*
X75309937Y-76039500D01*
X75309933Y-76039500D01*
X75309923Y-76039501D01*
X75302655Y-76040419D01*
X75296838Y-76040876D01*
X75248298Y-76042402D01*
X75248287Y-76042404D01*
X75227911Y-76048323D01*
X75208870Y-76052266D01*
X75187815Y-76054926D01*
X75187799Y-76054930D01*
X75142633Y-76072812D01*
X75137106Y-76074704D01*
X75090461Y-76088256D01*
X75072189Y-76099062D01*
X75054723Y-76107619D01*
X75034990Y-76115432D01*
X74995692Y-76143983D01*
X74990815Y-76147186D01*
X74977143Y-76155272D01*
X74948994Y-76171920D01*
X74933988Y-76186926D01*
X74919198Y-76199558D01*
X74902029Y-76212032D01*
X74902027Y-76212034D01*
X74871056Y-76249470D01*
X74867124Y-76253791D01*
X72286740Y-78834174D01*
X72225417Y-78867659D01*
X72155725Y-78862675D01*
X72099792Y-78820803D01*
X72075375Y-78755339D01*
X72075504Y-78746092D01*
X72075099Y-78746092D01*
X72075099Y-78740000D01*
X72056747Y-78553668D01*
X72056746Y-78553666D01*
X72041877Y-78504651D01*
X72002396Y-78374499D01*
X71969282Y-78312546D01*
X71914137Y-78209376D01*
X71914135Y-78209373D01*
X71795357Y-78064642D01*
X71650626Y-77945864D01*
X71650623Y-77945862D01*
X71485502Y-77857604D01*
X71306333Y-77803253D01*
X71306331Y-77803252D01*
X71120000Y-77784901D01*
X70933668Y-77803252D01*
X70933666Y-77803253D01*
X70754497Y-77857604D01*
X70589376Y-77945862D01*
X70589373Y-77945864D01*
X70448651Y-78061353D01*
X70384341Y-78088666D01*
X70369986Y-78089500D01*
X58740808Y-78089500D01*
X58673769Y-78069815D01*
X58653127Y-78053181D01*
X58137638Y-77537692D01*
X58104153Y-77476369D01*
X58109137Y-77406677D01*
X58151009Y-77350744D01*
X58216473Y-77326327D01*
X58248098Y-77328121D01*
X58314317Y-77340500D01*
X58314319Y-77340500D01*
X58525681Y-77340500D01*
X58525683Y-77340500D01*
X58733450Y-77301662D01*
X58930542Y-77225308D01*
X59110249Y-77114038D01*
X59266450Y-76971642D01*
X59393827Y-76802968D01*
X59488041Y-76613761D01*
X59488041Y-76613758D01*
X59488043Y-76613756D01*
X59529795Y-76467011D01*
X59545884Y-76410464D01*
X59565386Y-76200000D01*
X59814614Y-76200000D01*
X59834115Y-76410463D01*
X59834116Y-76410466D01*
X59891956Y-76613756D01*
X59891959Y-76613762D01*
X59986173Y-76802968D01*
X60113551Y-76971644D01*
X60208595Y-77058287D01*
X60269751Y-77114038D01*
X60449458Y-77225308D01*
X60449459Y-77225308D01*
X60449460Y-77225309D01*
X60481200Y-77237605D01*
X60646550Y-77301662D01*
X60854317Y-77340500D01*
X60854319Y-77340500D01*
X61065681Y-77340500D01*
X61065683Y-77340500D01*
X61273450Y-77301662D01*
X61470542Y-77225308D01*
X61650249Y-77114038D01*
X61806450Y-76971642D01*
X61933827Y-76802968D01*
X62028041Y-76613761D01*
X62028041Y-76613758D01*
X62028043Y-76613756D01*
X62069795Y-76467011D01*
X62085884Y-76410464D01*
X62105386Y-76200000D01*
X62354614Y-76200000D01*
X62374115Y-76410463D01*
X62374116Y-76410466D01*
X62431956Y-76613756D01*
X62431959Y-76613762D01*
X62526173Y-76802968D01*
X62653551Y-76971644D01*
X62748595Y-77058287D01*
X62809751Y-77114038D01*
X62989458Y-77225308D01*
X62989459Y-77225308D01*
X62989460Y-77225309D01*
X63021200Y-77237605D01*
X63186550Y-77301662D01*
X63394317Y-77340500D01*
X63394319Y-77340500D01*
X63605681Y-77340500D01*
X63605683Y-77340500D01*
X63813450Y-77301662D01*
X64010542Y-77225308D01*
X64190249Y-77114038D01*
X64346450Y-76971642D01*
X64473827Y-76802968D01*
X64568041Y-76613761D01*
X64568041Y-76613758D01*
X64568043Y-76613756D01*
X64609795Y-76467011D01*
X64625884Y-76410464D01*
X64645386Y-76200000D01*
X64894614Y-76200000D01*
X64914115Y-76410463D01*
X64914116Y-76410466D01*
X64971956Y-76613756D01*
X64971959Y-76613762D01*
X65066173Y-76802968D01*
X65193551Y-76971644D01*
X65288595Y-77058287D01*
X65349751Y-77114038D01*
X65529458Y-77225308D01*
X65529459Y-77225308D01*
X65529460Y-77225309D01*
X65561200Y-77237605D01*
X65726550Y-77301662D01*
X65934317Y-77340500D01*
X65934319Y-77340500D01*
X66145681Y-77340500D01*
X66145683Y-77340500D01*
X66353450Y-77301662D01*
X66550542Y-77225308D01*
X66730249Y-77114038D01*
X66886450Y-76971642D01*
X67013827Y-76802968D01*
X67108041Y-76613761D01*
X67108041Y-76613758D01*
X67108043Y-76613756D01*
X67149795Y-76467011D01*
X67165884Y-76410464D01*
X67185386Y-76200000D01*
X67434614Y-76200000D01*
X67454115Y-76410463D01*
X67454116Y-76410466D01*
X67511956Y-76613756D01*
X67511959Y-76613762D01*
X67606173Y-76802968D01*
X67733551Y-76971644D01*
X67828595Y-77058287D01*
X67889751Y-77114038D01*
X68069458Y-77225308D01*
X68069459Y-77225308D01*
X68069460Y-77225309D01*
X68101200Y-77237605D01*
X68266550Y-77301662D01*
X68474317Y-77340500D01*
X68474319Y-77340500D01*
X68685681Y-77340500D01*
X68685683Y-77340500D01*
X68893450Y-77301662D01*
X69090542Y-77225308D01*
X69270249Y-77114038D01*
X69426450Y-76971642D01*
X69553827Y-76802968D01*
X69648041Y-76613761D01*
X69648041Y-76613758D01*
X69648043Y-76613756D01*
X69689795Y-76467011D01*
X69705884Y-76410464D01*
X69725386Y-76200000D01*
X69705884Y-75989536D01*
X69680982Y-75902013D01*
X69648043Y-75786243D01*
X69648040Y-75786237D01*
X69589850Y-75669376D01*
X69553827Y-75597032D01*
X69426450Y-75428358D01*
X69426448Y-75428355D01*
X69270250Y-75285963D01*
X69270249Y-75285962D01*
X69090542Y-75174692D01*
X69090540Y-75174691D01*
X69090539Y-75174690D01*
X68935205Y-75114514D01*
X68893450Y-75098338D01*
X68685683Y-75059500D01*
X68474317Y-75059500D01*
X68266550Y-75098338D01*
X68266547Y-75098338D01*
X68266547Y-75098339D01*
X68069460Y-75174690D01*
X68069459Y-75174691D01*
X67889749Y-75285963D01*
X67733551Y-75428355D01*
X67606173Y-75597031D01*
X67511959Y-75786237D01*
X67511956Y-75786243D01*
X67454116Y-75989533D01*
X67454115Y-75989536D01*
X67434614Y-76199999D01*
X67434614Y-76200000D01*
X67185386Y-76200000D01*
X67165884Y-75989536D01*
X67140982Y-75902013D01*
X67108043Y-75786243D01*
X67108040Y-75786237D01*
X67049850Y-75669376D01*
X67013827Y-75597032D01*
X66886450Y-75428358D01*
X66886448Y-75428355D01*
X66730250Y-75285963D01*
X66730249Y-75285962D01*
X66550542Y-75174692D01*
X66550540Y-75174691D01*
X66550539Y-75174690D01*
X66395205Y-75114514D01*
X66353450Y-75098338D01*
X66145683Y-75059500D01*
X65934317Y-75059500D01*
X65726550Y-75098338D01*
X65726547Y-75098338D01*
X65726547Y-75098339D01*
X65529460Y-75174690D01*
X65529459Y-75174691D01*
X65349749Y-75285963D01*
X65193551Y-75428355D01*
X65066173Y-75597031D01*
X64971959Y-75786237D01*
X64971956Y-75786243D01*
X64914116Y-75989533D01*
X64914115Y-75989536D01*
X64894614Y-76199999D01*
X64894614Y-76200000D01*
X64645386Y-76200000D01*
X64625884Y-75989536D01*
X64600982Y-75902013D01*
X64568043Y-75786243D01*
X64568040Y-75786237D01*
X64509850Y-75669376D01*
X64473827Y-75597032D01*
X64346450Y-75428358D01*
X64346448Y-75428355D01*
X64190250Y-75285963D01*
X64190249Y-75285962D01*
X64010542Y-75174692D01*
X64010540Y-75174691D01*
X64010539Y-75174690D01*
X63855205Y-75114514D01*
X63813450Y-75098338D01*
X63605683Y-75059500D01*
X63394317Y-75059500D01*
X63186550Y-75098338D01*
X63186547Y-75098338D01*
X63186547Y-75098339D01*
X62989460Y-75174690D01*
X62989459Y-75174691D01*
X62809749Y-75285963D01*
X62653551Y-75428355D01*
X62526173Y-75597031D01*
X62431959Y-75786237D01*
X62431956Y-75786243D01*
X62374116Y-75989533D01*
X62374115Y-75989536D01*
X62354614Y-76199999D01*
X62354614Y-76200000D01*
X62105386Y-76200000D01*
X62085884Y-75989536D01*
X62060982Y-75902013D01*
X62028043Y-75786243D01*
X62028040Y-75786237D01*
X61969850Y-75669376D01*
X61933827Y-75597032D01*
X61806450Y-75428358D01*
X61806448Y-75428355D01*
X61650250Y-75285963D01*
X61650249Y-75285962D01*
X61470542Y-75174692D01*
X61470540Y-75174691D01*
X61470539Y-75174690D01*
X61315205Y-75114514D01*
X61273450Y-75098338D01*
X61065683Y-75059500D01*
X60854317Y-75059500D01*
X60646550Y-75098338D01*
X60646547Y-75098338D01*
X60646547Y-75098339D01*
X60449460Y-75174690D01*
X60449459Y-75174691D01*
X60269749Y-75285963D01*
X60113551Y-75428355D01*
X59986173Y-75597031D01*
X59891959Y-75786237D01*
X59891956Y-75786243D01*
X59834116Y-75989533D01*
X59834115Y-75989536D01*
X59814614Y-76199999D01*
X59814614Y-76200000D01*
X59565386Y-76200000D01*
X59545884Y-75989536D01*
X59520982Y-75902013D01*
X59488043Y-75786243D01*
X59488040Y-75786237D01*
X59429850Y-75669376D01*
X59393827Y-75597032D01*
X59266450Y-75428358D01*
X59266448Y-75428355D01*
X59110250Y-75285963D01*
X59110249Y-75285962D01*
X58930542Y-75174692D01*
X58930540Y-75174691D01*
X58930539Y-75174690D01*
X58775205Y-75114514D01*
X58733450Y-75098338D01*
X58525683Y-75059500D01*
X58314317Y-75059500D01*
X58106550Y-75098338D01*
X58106547Y-75098338D01*
X58106547Y-75098339D01*
X57909460Y-75174690D01*
X57909459Y-75174691D01*
X57729749Y-75285963D01*
X57573551Y-75428355D01*
X57446173Y-75597031D01*
X57351959Y-75786237D01*
X57351956Y-75786243D01*
X57294116Y-75989533D01*
X57294115Y-75989536D01*
X57274614Y-76199999D01*
X57274614Y-76200001D01*
X57291402Y-76381182D01*
X57277987Y-76449752D01*
X57229630Y-76500184D01*
X57161683Y-76516466D01*
X57095721Y-76493428D01*
X57080250Y-76480304D01*
X57047428Y-76447482D01*
X57013943Y-76386159D01*
X57011638Y-76348359D01*
X57020594Y-76251717D01*
X57025386Y-76200000D01*
X57005884Y-75989536D01*
X56980982Y-75902013D01*
X56948043Y-75786243D01*
X56948040Y-75786237D01*
X56889850Y-75669376D01*
X56853827Y-75597032D01*
X56726450Y-75428358D01*
X56726448Y-75428355D01*
X56570250Y-75285963D01*
X56570249Y-75285962D01*
X56390542Y-75174692D01*
X56390540Y-75174691D01*
X56390539Y-75174690D01*
X56235205Y-75114514D01*
X56193450Y-75098338D01*
X55985683Y-75059500D01*
X55774317Y-75059500D01*
X55566550Y-75098338D01*
X55566547Y-75098338D01*
X55566547Y-75098339D01*
X55369460Y-75174690D01*
X55369459Y-75174691D01*
X55189749Y-75285963D01*
X55033551Y-75428355D01*
X54906173Y-75597031D01*
X54811959Y-75786237D01*
X54811956Y-75786243D01*
X54754116Y-75989533D01*
X54754115Y-75989536D01*
X54734614Y-76199999D01*
X54734614Y-76200001D01*
X54751402Y-76381182D01*
X54737987Y-76449752D01*
X54689630Y-76500184D01*
X54621683Y-76516466D01*
X54555721Y-76493428D01*
X54540250Y-76480304D01*
X54507428Y-76447482D01*
X54473943Y-76386159D01*
X54471638Y-76348359D01*
X54480594Y-76251717D01*
X54485386Y-76200000D01*
X54465884Y-75989536D01*
X54440982Y-75902013D01*
X54408043Y-75786243D01*
X54408040Y-75786237D01*
X54349850Y-75669376D01*
X54313827Y-75597032D01*
X54186450Y-75428358D01*
X54186448Y-75428355D01*
X54030250Y-75285963D01*
X54030249Y-75285962D01*
X53850542Y-75174692D01*
X53850540Y-75174691D01*
X53850539Y-75174690D01*
X53695205Y-75114514D01*
X53653450Y-75098338D01*
X53445683Y-75059500D01*
X53234317Y-75059500D01*
X53026550Y-75098338D01*
X53026547Y-75098338D01*
X53026547Y-75098339D01*
X52829460Y-75174690D01*
X52829459Y-75174691D01*
X52649749Y-75285963D01*
X52493551Y-75428355D01*
X52366173Y-75597031D01*
X52271959Y-75786237D01*
X52271956Y-75786243D01*
X52214116Y-75989533D01*
X52214115Y-75989536D01*
X52194614Y-76199999D01*
X52194614Y-76200000D01*
X52214115Y-76410463D01*
X52214116Y-76410466D01*
X52271956Y-76613756D01*
X52271959Y-76613762D01*
X52366173Y-76802968D01*
X52493551Y-76971644D01*
X52588595Y-77058287D01*
X52649751Y-77114038D01*
X52829458Y-77225308D01*
X52829459Y-77225308D01*
X52829460Y-77225309D01*
X52861200Y-77237605D01*
X53026550Y-77301662D01*
X53234317Y-77340500D01*
X53234319Y-77340500D01*
X53445682Y-77340500D01*
X53445683Y-77340500D01*
X53478212Y-77334419D01*
X53547728Y-77341449D01*
X53588680Y-77368626D01*
X57899564Y-81679510D01*
X57909635Y-81692080D01*
X57909822Y-81691926D01*
X57914795Y-81697937D01*
X57966542Y-81746531D01*
X57967909Y-81747855D01*
X57988965Y-81768911D01*
X57988968Y-81768913D01*
X57994757Y-81773405D01*
X57999197Y-81777197D01*
X58034607Y-81810448D01*
X58053202Y-81820670D01*
X58069460Y-81831350D01*
X58086236Y-81844363D01*
X58130830Y-81863660D01*
X58136057Y-81866221D01*
X58178632Y-81889627D01*
X58199191Y-81894905D01*
X58217598Y-81901207D01*
X58237074Y-81909636D01*
X58274927Y-81915630D01*
X58285054Y-81917235D01*
X58290764Y-81918417D01*
X58337823Y-81930500D01*
X58359045Y-81930500D01*
X58378442Y-81932026D01*
X58399405Y-81935347D01*
X58444104Y-81931121D01*
X58447770Y-81930775D01*
X58453608Y-81930500D01*
X67829986Y-81930500D01*
X67897025Y-81950185D01*
X67908651Y-81958647D01*
X68049373Y-82074135D01*
X68049376Y-82074137D01*
X68208697Y-82159295D01*
X68214499Y-82162396D01*
X68393666Y-82216746D01*
X68393668Y-82216747D01*
X68580000Y-82235099D01*
X68586092Y-82235099D01*
X68586092Y-82237907D01*
X68642875Y-82248618D01*
X68693634Y-82296632D01*
X68710376Y-82364467D01*
X68687787Y-82430584D01*
X68674175Y-82446740D01*
X68487735Y-82633181D01*
X68426412Y-82666666D01*
X68400054Y-82669500D01*
X56832179Y-82669500D01*
X56765140Y-82649815D01*
X56744498Y-82633181D01*
X56731805Y-82620488D01*
X56721732Y-82607914D01*
X56721545Y-82608070D01*
X56716569Y-82602055D01*
X56683753Y-82571240D01*
X56664803Y-82553445D01*
X56663429Y-82552112D01*
X56642406Y-82531089D01*
X56636611Y-82526594D01*
X56632169Y-82522799D01*
X56596767Y-82489554D01*
X56596759Y-82489548D01*
X56578163Y-82479325D01*
X56561902Y-82468644D01*
X56545134Y-82455637D01*
X56508716Y-82439878D01*
X56500549Y-82436343D01*
X56495327Y-82433786D01*
X56452739Y-82410373D01*
X56452736Y-82410372D01*
X56432172Y-82405092D01*
X56413767Y-82398790D01*
X56394298Y-82390365D01*
X56394292Y-82390363D01*
X56346322Y-82382766D01*
X56340607Y-82381582D01*
X56324143Y-82377355D01*
X56293551Y-82369500D01*
X56293548Y-82369500D01*
X56272326Y-82369500D01*
X56252926Y-82367973D01*
X56231967Y-82364653D01*
X56231966Y-82364653D01*
X56208157Y-82366903D01*
X56183601Y-82369225D01*
X56177763Y-82369500D01*
X50554134Y-82369500D01*
X50538123Y-82367732D01*
X50538101Y-82367974D01*
X50530334Y-82367239D01*
X50459394Y-82369469D01*
X50457446Y-82369500D01*
X50427704Y-82369500D01*
X50427700Y-82369500D01*
X50427690Y-82369501D01*
X50420422Y-82370419D01*
X50414605Y-82370876D01*
X50366065Y-82372402D01*
X50366054Y-82372404D01*
X50345678Y-82378323D01*
X50326637Y-82382266D01*
X50305582Y-82384926D01*
X50305566Y-82384930D01*
X50260400Y-82402812D01*
X50254873Y-82404704D01*
X50208228Y-82418256D01*
X50189956Y-82429062D01*
X50172490Y-82437619D01*
X50152757Y-82445432D01*
X50113459Y-82473983D01*
X50108582Y-82477186D01*
X50094910Y-82485272D01*
X50066761Y-82501920D01*
X50051755Y-82516926D01*
X50036965Y-82529558D01*
X50019796Y-82542032D01*
X50019794Y-82542034D01*
X49988823Y-82579470D01*
X49984891Y-82583791D01*
X47060483Y-85508198D01*
X47047910Y-85518272D01*
X47048065Y-85518459D01*
X47042058Y-85523427D01*
X46993468Y-85575171D01*
X46992114Y-85576567D01*
X46971090Y-85597592D01*
X46971078Y-85597606D01*
X46966587Y-85603394D01*
X46962801Y-85607826D01*
X46929552Y-85643235D01*
X46919322Y-85661842D01*
X46908646Y-85678093D01*
X46895640Y-85694861D01*
X46895636Y-85694867D01*
X46876348Y-85739440D01*
X46873777Y-85744687D01*
X46850372Y-85787259D01*
X46850372Y-85787260D01*
X46845091Y-85807828D01*
X46838791Y-85826230D01*
X46830364Y-85845702D01*
X46822766Y-85893676D01*
X46821581Y-85899399D01*
X46809500Y-85946447D01*
X46809500Y-85967673D01*
X46807973Y-85987072D01*
X46804653Y-86008034D01*
X46809028Y-86054309D01*
X46809225Y-86056396D01*
X46809500Y-86062235D01*
X46809500Y-86605864D01*
X46807732Y-86621875D01*
X46807974Y-86621898D01*
X46807239Y-86629665D01*
X46809468Y-86700607D01*
X46809499Y-86702552D01*
X46809499Y-86732299D01*
X46810418Y-86739575D01*
X46810876Y-86745394D01*
X46812402Y-86793938D01*
X46812403Y-86793941D01*
X46818323Y-86814319D01*
X46822268Y-86833367D01*
X46824928Y-86854425D01*
X46824931Y-86854435D01*
X46842813Y-86899601D01*
X46844705Y-86905129D01*
X46858254Y-86951766D01*
X46858255Y-86951768D01*
X46869060Y-86970037D01*
X46877617Y-86987505D01*
X46883226Y-87001671D01*
X46885432Y-87007243D01*
X46913983Y-87046541D01*
X46917188Y-87051420D01*
X46941919Y-87093236D01*
X46941923Y-87093240D01*
X46956925Y-87108242D01*
X46969563Y-87123040D01*
X46982033Y-87140204D01*
X46982036Y-87140207D01*
X46982037Y-87140208D01*
X47019476Y-87171180D01*
X47023776Y-87175093D01*
X47315571Y-87466888D01*
X47473611Y-87624928D01*
X47507096Y-87686251D01*
X47502112Y-87755943D01*
X47460240Y-87811876D01*
X47457054Y-87814183D01*
X47388921Y-87861890D01*
X47221891Y-88028920D01*
X47221890Y-88028922D01*
X47091574Y-88215031D01*
X47036996Y-88258656D01*
X46967498Y-88265848D01*
X46905143Y-88234326D01*
X46888424Y-88215030D01*
X46758113Y-88028926D01*
X46758108Y-88028920D01*
X46591082Y-87861894D01*
X46397578Y-87726399D01*
X46183492Y-87626570D01*
X46183486Y-87626567D01*
X45970000Y-87569364D01*
X45970000Y-88464498D01*
X45862315Y-88415320D01*
X45755763Y-88400000D01*
X45684237Y-88400000D01*
X45577685Y-88415320D01*
X45469999Y-88464498D01*
X45469999Y-87569364D01*
X45256513Y-87626567D01*
X45256507Y-87626570D01*
X45042422Y-87726399D01*
X45042420Y-87726400D01*
X44848926Y-87861886D01*
X44848920Y-87861891D01*
X44681891Y-88028920D01*
X44681890Y-88028922D01*
X44551575Y-88215031D01*
X44496998Y-88258655D01*
X44427499Y-88265848D01*
X44365145Y-88234326D01*
X44348425Y-88215031D01*
X44218109Y-88028922D01*
X44218108Y-88028920D01*
X44051082Y-87861894D01*
X43857578Y-87726399D01*
X43643492Y-87626570D01*
X43643486Y-87626567D01*
X43430000Y-87569364D01*
X43430000Y-88464498D01*
X43322315Y-88415320D01*
X43215763Y-88400000D01*
X43144237Y-88400000D01*
X43037685Y-88415320D01*
X42930000Y-88464498D01*
X42930000Y-87569364D01*
X42929999Y-87569364D01*
X42716513Y-87626567D01*
X42716507Y-87626570D01*
X42502422Y-87726399D01*
X42502420Y-87726400D01*
X42308926Y-87861886D01*
X42308920Y-87861891D01*
X42141891Y-88028920D01*
X42141890Y-88028922D01*
X42011575Y-88215031D01*
X41956998Y-88258655D01*
X41887499Y-88265848D01*
X41825145Y-88234326D01*
X41808425Y-88215031D01*
X41678109Y-88028922D01*
X41678108Y-88028920D01*
X41511082Y-87861894D01*
X41317578Y-87726399D01*
X41103492Y-87626570D01*
X41103486Y-87626567D01*
X40890000Y-87569364D01*
X40890000Y-88464498D01*
X40782315Y-88415320D01*
X40675763Y-88400000D01*
X40604237Y-88400000D01*
X40497685Y-88415320D01*
X40390000Y-88464498D01*
X40390000Y-87569364D01*
X40389999Y-87569364D01*
X40176513Y-87626567D01*
X40176507Y-87626570D01*
X39962422Y-87726399D01*
X39962420Y-87726400D01*
X39768926Y-87861886D01*
X39768920Y-87861891D01*
X39601891Y-88028920D01*
X39601886Y-88028926D01*
X39466400Y-88222420D01*
X39466399Y-88222422D01*
X39366570Y-88436507D01*
X39366567Y-88436513D01*
X39309364Y-88649999D01*
X39309364Y-88650000D01*
X40206314Y-88650000D01*
X40180507Y-88690156D01*
X40140000Y-88828111D01*
X40140000Y-88971889D01*
X40180507Y-89109844D01*
X40206314Y-89150000D01*
X39309364Y-89150000D01*
X39366567Y-89363486D01*
X39366570Y-89363492D01*
X39466399Y-89577578D01*
X39601894Y-89771082D01*
X39768917Y-89938105D01*
X39954595Y-90068119D01*
X39998219Y-90122696D01*
X40005412Y-90192195D01*
X39973890Y-90254549D01*
X39954595Y-90271269D01*
X39768594Y-90401508D01*
X39601505Y-90568597D01*
X39465965Y-90762169D01*
X39465964Y-90762171D01*
X39366098Y-90976335D01*
X39366094Y-90976344D01*
X39304938Y-91204586D01*
X39304936Y-91204596D01*
X39284341Y-91439999D01*
X39284341Y-91440000D01*
X39304936Y-91675403D01*
X39304938Y-91675413D01*
X39366094Y-91903655D01*
X39366096Y-91903659D01*
X39366097Y-91903663D01*
X39400898Y-91978294D01*
X39465965Y-92117830D01*
X39465967Y-92117834D01*
X39574281Y-92272521D01*
X39601505Y-92311401D01*
X39768599Y-92478495D01*
X39865384Y-92546264D01*
X39962165Y-92614032D01*
X39962167Y-92614033D01*
X39962170Y-92614035D01*
X40176337Y-92713903D01*
X40176343Y-92713904D01*
X40176344Y-92713905D01*
X40257778Y-92735725D01*
X40317439Y-92772090D01*
X40347968Y-92834937D01*
X40339674Y-92904312D01*
X40295188Y-92958190D01*
X40228636Y-92979465D01*
X40225685Y-92979500D01*
X33033452Y-92979500D01*
X33031889Y-92979480D01*
X32943636Y-92977244D01*
X32943635Y-92977244D01*
X32943626Y-92977244D01*
X32883263Y-92988064D01*
X32878597Y-92988718D01*
X32817564Y-92994925D01*
X32784780Y-93005210D01*
X32777153Y-93007082D01*
X32743349Y-93013141D01*
X32686381Y-93035895D01*
X32681945Y-93037474D01*
X32623414Y-93055840D01*
X32623410Y-93055842D01*
X32593378Y-93072510D01*
X32586284Y-93075879D01*
X32554382Y-93088623D01*
X32554377Y-93088625D01*
X32503156Y-93122381D01*
X32499128Y-93124822D01*
X32445501Y-93154588D01*
X32419434Y-93176965D01*
X32413165Y-93181692D01*
X32384484Y-93200595D01*
X32384478Y-93200600D01*
X32341109Y-93243968D01*
X32337655Y-93247169D01*
X32291102Y-93287136D01*
X32270076Y-93314298D01*
X32264885Y-93320192D01*
X30446969Y-95138108D01*
X30385646Y-95171593D01*
X30370097Y-95173955D01*
X30244596Y-95184936D01*
X30244586Y-95184938D01*
X30016344Y-95246094D01*
X30016335Y-95246098D01*
X29802171Y-95345964D01*
X29802169Y-95345965D01*
X29608597Y-95481505D01*
X29441508Y-95648594D01*
X29311269Y-95834595D01*
X29256692Y-95878219D01*
X29187193Y-95885412D01*
X29124839Y-95853890D01*
X29108119Y-95834594D01*
X28978113Y-95648926D01*
X28978108Y-95648920D01*
X28811082Y-95481894D01*
X28617578Y-95346399D01*
X28403492Y-95246570D01*
X28403486Y-95246567D01*
X28190000Y-95189364D01*
X28190000Y-96084498D01*
X28082315Y-96035320D01*
X27975763Y-96020000D01*
X27904237Y-96020000D01*
X27797685Y-96035320D01*
X27690000Y-96084498D01*
X27690000Y-95189364D01*
X27689999Y-95189364D01*
X27476513Y-95246567D01*
X27476507Y-95246570D01*
X27262422Y-95346399D01*
X27262420Y-95346400D01*
X27068926Y-95481886D01*
X27068920Y-95481891D01*
X26901891Y-95648920D01*
X26901890Y-95648922D01*
X26771574Y-95835031D01*
X26716996Y-95878656D01*
X26647498Y-95885848D01*
X26585143Y-95854326D01*
X26568424Y-95835030D01*
X26438113Y-95648926D01*
X26438108Y-95648920D01*
X26271082Y-95481894D01*
X26077578Y-95346399D01*
X25863492Y-95246570D01*
X25863486Y-95246567D01*
X25650000Y-95189364D01*
X25650000Y-96084498D01*
X25542315Y-96035320D01*
X25435763Y-96020000D01*
X25364237Y-96020000D01*
X25257685Y-96035320D01*
X25150000Y-96084498D01*
X25150000Y-95189364D01*
X25149999Y-95189364D01*
X24936513Y-95246567D01*
X24936507Y-95246570D01*
X24722422Y-95346399D01*
X24722420Y-95346400D01*
X24528926Y-95481886D01*
X24406865Y-95603947D01*
X24345542Y-95637431D01*
X24275850Y-95632447D01*
X24219917Y-95590575D01*
X24203002Y-95559598D01*
X24153797Y-95427671D01*
X24153793Y-95427664D01*
X24067547Y-95312455D01*
X24067544Y-95312452D01*
X23952335Y-95226206D01*
X23952328Y-95226202D01*
X23817482Y-95175908D01*
X23817483Y-95175908D01*
X23757883Y-95169501D01*
X23757881Y-95169500D01*
X23757873Y-95169500D01*
X23757864Y-95169500D01*
X21962129Y-95169500D01*
X21962123Y-95169501D01*
X21902516Y-95175908D01*
X21767671Y-95226202D01*
X21767664Y-95226206D01*
X21652455Y-95312452D01*
X21652452Y-95312455D01*
X21566206Y-95427664D01*
X21566202Y-95427671D01*
X21515908Y-95562517D01*
X21509501Y-95622116D01*
X21509500Y-95622135D01*
X21509500Y-97417870D01*
X21509501Y-97417876D01*
X21515908Y-97477483D01*
X21566202Y-97612328D01*
X21566206Y-97612335D01*
X21652452Y-97727544D01*
X21652455Y-97727547D01*
X21767664Y-97813793D01*
X21767671Y-97813797D01*
X21902517Y-97864091D01*
X21902516Y-97864091D01*
X21909444Y-97864835D01*
X21962127Y-97870500D01*
X22744216Y-97870499D01*
X22811255Y-97890183D01*
X22831897Y-97906818D01*
X24351644Y-99426565D01*
X24385129Y-99487888D01*
X24380145Y-99557580D01*
X24338273Y-99613513D01*
X24272809Y-99637930D01*
X24244565Y-99636719D01*
X24090231Y-99612275D01*
X23702945Y-99591978D01*
X23702943Y-99591978D01*
X23315656Y-99612275D01*
X22977899Y-99665770D01*
X20320000Y-99060000D01*
X20320000Y-82577870D01*
X21109500Y-82577870D01*
X21109501Y-82577876D01*
X21115908Y-82637483D01*
X21166202Y-82772328D01*
X21166206Y-82772335D01*
X21252452Y-82887544D01*
X21252455Y-82887547D01*
X21367664Y-82973793D01*
X21367671Y-82973797D01*
X21502517Y-83024091D01*
X21502516Y-83024091D01*
X21509444Y-83024835D01*
X21562127Y-83030500D01*
X24157872Y-83030499D01*
X24217483Y-83024091D01*
X24352331Y-82973796D01*
X24467546Y-82887546D01*
X24553796Y-82772331D01*
X24604091Y-82637483D01*
X24610500Y-82577873D01*
X24610500Y-81330936D01*
X29475631Y-81330936D01*
X29506442Y-81532063D01*
X29506445Y-81532075D01*
X29577111Y-81722881D01*
X29577113Y-81722884D01*
X29577114Y-81722887D01*
X29614352Y-81782630D01*
X29684745Y-81895567D01*
X29684747Y-81895569D01*
X29684748Y-81895571D01*
X29824941Y-82043053D01*
X29953344Y-82132424D01*
X29991949Y-82159294D01*
X29991950Y-82159294D01*
X29991951Y-82159295D01*
X30178942Y-82239540D01*
X30378259Y-82280500D01*
X31145501Y-82280500D01*
X31212540Y-82300185D01*
X31258295Y-82352989D01*
X31269501Y-82404500D01*
X31269501Y-82577876D01*
X31275908Y-82637483D01*
X31326202Y-82772328D01*
X31326206Y-82772335D01*
X31412452Y-82887544D01*
X31412455Y-82887547D01*
X31527664Y-82973793D01*
X31527671Y-82973797D01*
X31662517Y-83024091D01*
X31662516Y-83024091D01*
X31669444Y-83024835D01*
X31722127Y-83030500D01*
X34317872Y-83030499D01*
X34377483Y-83024091D01*
X34512331Y-82973796D01*
X34627546Y-82887546D01*
X34713796Y-82772331D01*
X34764091Y-82637483D01*
X34770500Y-82577873D01*
X34770499Y-81530000D01*
X38890000Y-81530000D01*
X38890000Y-82577844D01*
X38896401Y-82637372D01*
X38896403Y-82637379D01*
X38946645Y-82772086D01*
X38946649Y-82772093D01*
X39032809Y-82887187D01*
X39032812Y-82887190D01*
X39147906Y-82973350D01*
X39147913Y-82973354D01*
X39282620Y-83023596D01*
X39282627Y-83023598D01*
X39342155Y-83029999D01*
X39342172Y-83030000D01*
X40390000Y-83030000D01*
X40390000Y-81530000D01*
X40890000Y-81530000D01*
X40890000Y-83030000D01*
X41937828Y-83030000D01*
X41937844Y-83029999D01*
X41997372Y-83023598D01*
X41997379Y-83023596D01*
X42132086Y-82973354D01*
X42132093Y-82973350D01*
X42247187Y-82887190D01*
X42247190Y-82887187D01*
X42333350Y-82772093D01*
X42333354Y-82772086D01*
X42383596Y-82637379D01*
X42383598Y-82637372D01*
X42389999Y-82577844D01*
X42390000Y-82577827D01*
X42390000Y-81530000D01*
X40890000Y-81530000D01*
X40390000Y-81530000D01*
X38890000Y-81530000D01*
X34770499Y-81530000D01*
X34770499Y-81030000D01*
X38890000Y-81030000D01*
X40390000Y-81030000D01*
X40390000Y-79530000D01*
X40890000Y-79530000D01*
X40890000Y-81030000D01*
X42390000Y-81030000D01*
X42390000Y-79982172D01*
X42389999Y-79982155D01*
X42383598Y-79922627D01*
X42383596Y-79922620D01*
X42333354Y-79787913D01*
X42333350Y-79787906D01*
X42247190Y-79672812D01*
X42247187Y-79672809D01*
X42132093Y-79586649D01*
X42132086Y-79586645D01*
X41997379Y-79536403D01*
X41997372Y-79536401D01*
X41937844Y-79530000D01*
X40890000Y-79530000D01*
X40390000Y-79530000D01*
X39342155Y-79530000D01*
X39282627Y-79536401D01*
X39282620Y-79536403D01*
X39147913Y-79586645D01*
X39147906Y-79586649D01*
X39032812Y-79672809D01*
X39032809Y-79672812D01*
X38946649Y-79787906D01*
X38946645Y-79787913D01*
X38896403Y-79922620D01*
X38896401Y-79922627D01*
X38890000Y-79982155D01*
X38890000Y-81030000D01*
X34770499Y-81030000D01*
X34770499Y-79982128D01*
X34764091Y-79922517D01*
X34755647Y-79899878D01*
X34713797Y-79787671D01*
X34713793Y-79787664D01*
X34627547Y-79672455D01*
X34627544Y-79672452D01*
X34512335Y-79586206D01*
X34512328Y-79586202D01*
X34377482Y-79535908D01*
X34377483Y-79535908D01*
X34317883Y-79529501D01*
X34317881Y-79529500D01*
X34317873Y-79529500D01*
X34317864Y-79529500D01*
X31722129Y-79529500D01*
X31722123Y-79529501D01*
X31662516Y-79535908D01*
X31527671Y-79586202D01*
X31527664Y-79586206D01*
X31412455Y-79672452D01*
X31412452Y-79672455D01*
X31326206Y-79787664D01*
X31326202Y-79787671D01*
X31275908Y-79922517D01*
X31269501Y-79982116D01*
X31269501Y-79982123D01*
X31269500Y-79982135D01*
X31269500Y-80155500D01*
X31249815Y-80222539D01*
X31197011Y-80268294D01*
X31145500Y-80279500D01*
X30429257Y-80279500D01*
X30277560Y-80294925D01*
X30083420Y-80355837D01*
X30083405Y-80355844D01*
X29905500Y-80454589D01*
X29905495Y-80454592D01*
X29751106Y-80587132D01*
X29751104Y-80587134D01*
X29626554Y-80748037D01*
X29626553Y-80748040D01*
X29536940Y-80930728D01*
X29485937Y-81127714D01*
X29475631Y-81330936D01*
X24610500Y-81330936D01*
X24610499Y-79982128D01*
X24604091Y-79922517D01*
X24595647Y-79899878D01*
X24553797Y-79787671D01*
X24553793Y-79787664D01*
X24467547Y-79672455D01*
X24467544Y-79672452D01*
X24352335Y-79586206D01*
X24352328Y-79586202D01*
X24217482Y-79535908D01*
X24217483Y-79535908D01*
X24157883Y-79529501D01*
X24157881Y-79529500D01*
X24157873Y-79529500D01*
X24157865Y-79529500D01*
X23984500Y-79529500D01*
X23917461Y-79509815D01*
X23871706Y-79457011D01*
X23860500Y-79405500D01*
X23860500Y-78689256D01*
X23845074Y-78537560D01*
X23784162Y-78343420D01*
X23784160Y-78343416D01*
X23784159Y-78343412D01*
X23685409Y-78165498D01*
X23685408Y-78165497D01*
X23685407Y-78165495D01*
X23552867Y-78011106D01*
X23552865Y-78011104D01*
X23391962Y-77886554D01*
X23391959Y-77886553D01*
X23391958Y-77886552D01*
X23209271Y-77796940D01*
X23012285Y-77745937D01*
X23012287Y-77745937D01*
X22876804Y-77739066D01*
X22809064Y-77735631D01*
X22809063Y-77735631D01*
X22809061Y-77735631D01*
X22607936Y-77766442D01*
X22607924Y-77766445D01*
X22417118Y-77837111D01*
X22417111Y-77837115D01*
X22244432Y-77944745D01*
X22244427Y-77944749D01*
X22096949Y-78084938D01*
X22096947Y-78084940D01*
X22096947Y-78084941D01*
X22093774Y-78089500D01*
X21980705Y-78251949D01*
X21900459Y-78438943D01*
X21859500Y-78638258D01*
X21859500Y-79405500D01*
X21839815Y-79472539D01*
X21787011Y-79518294D01*
X21735501Y-79529500D01*
X21562130Y-79529500D01*
X21562123Y-79529501D01*
X21502516Y-79535908D01*
X21367671Y-79586202D01*
X21367664Y-79586206D01*
X21252455Y-79672452D01*
X21252452Y-79672455D01*
X21166206Y-79787664D01*
X21166202Y-79787671D01*
X21115908Y-79922517D01*
X21109501Y-79982116D01*
X21109501Y-79982123D01*
X21109500Y-79982135D01*
X21109500Y-82577870D01*
X20320000Y-82577870D01*
X20320000Y-76200004D01*
X41474732Y-76200004D01*
X41493777Y-76454154D01*
X41550138Y-76701089D01*
X41550492Y-76702637D01*
X41643607Y-76939888D01*
X41771041Y-77160612D01*
X41929950Y-77359877D01*
X42116783Y-77533232D01*
X42327366Y-77676805D01*
X42327371Y-77676807D01*
X42327372Y-77676808D01*
X42327373Y-77676809D01*
X42385446Y-77704775D01*
X42556992Y-77787387D01*
X42556993Y-77787387D01*
X42556996Y-77787389D01*
X42800542Y-77862513D01*
X43052565Y-77900500D01*
X43307435Y-77900500D01*
X43559458Y-77862513D01*
X43803004Y-77787389D01*
X43991994Y-77696376D01*
X44032626Y-77676809D01*
X44032626Y-77676808D01*
X44032634Y-77676805D01*
X44243217Y-77533232D01*
X44430050Y-77359877D01*
X44588959Y-77160612D01*
X44716393Y-76939888D01*
X44809508Y-76702637D01*
X44866222Y-76454157D01*
X44881237Y-76253791D01*
X44885268Y-76200004D01*
X44885268Y-76199995D01*
X44866222Y-75945845D01*
X44839969Y-75830825D01*
X44809508Y-75697363D01*
X44716393Y-75460112D01*
X44588959Y-75239388D01*
X44430050Y-75040123D01*
X44243217Y-74866768D01*
X44032634Y-74723195D01*
X44032630Y-74723193D01*
X44032627Y-74723191D01*
X44032626Y-74723190D01*
X43803006Y-74612612D01*
X43803008Y-74612612D01*
X43559466Y-74537489D01*
X43559462Y-74537488D01*
X43559458Y-74537487D01*
X43438231Y-74519214D01*
X43307440Y-74499500D01*
X43307435Y-74499500D01*
X43052565Y-74499500D01*
X43052559Y-74499500D01*
X42895609Y-74523157D01*
X42800542Y-74537487D01*
X42800538Y-74537488D01*
X42800539Y-74537488D01*
X42800533Y-74537489D01*
X42556992Y-74612612D01*
X42327373Y-74723190D01*
X42327372Y-74723191D01*
X42327366Y-74723194D01*
X42327366Y-74723195D01*
X42323121Y-74726089D01*
X42116782Y-74866768D01*
X41929952Y-75040121D01*
X41929950Y-75040123D01*
X41771041Y-75239388D01*
X41643608Y-75460109D01*
X41550492Y-75697362D01*
X41550490Y-75697369D01*
X41493777Y-75945845D01*
X41474732Y-76199995D01*
X41474732Y-76200004D01*
X20320000Y-76200004D01*
X20320000Y-73660000D01*
X60004901Y-73660000D01*
X60023252Y-73846331D01*
X60023253Y-73846333D01*
X60077604Y-74025502D01*
X60165862Y-74190623D01*
X60165864Y-74190626D01*
X60284642Y-74335357D01*
X60429373Y-74454135D01*
X60429376Y-74454137D01*
X60594497Y-74542395D01*
X60594499Y-74542396D01*
X60736148Y-74585365D01*
X60773666Y-74596746D01*
X60773668Y-74596747D01*
X60790374Y-74598392D01*
X60960000Y-74615099D01*
X61146331Y-74596747D01*
X61325501Y-74542396D01*
X61490625Y-74454136D01*
X61519158Y-74430719D01*
X61631349Y-74338647D01*
X61695659Y-74311334D01*
X61710014Y-74310500D01*
X67829986Y-74310500D01*
X67897025Y-74330185D01*
X67908651Y-74338647D01*
X68049373Y-74454135D01*
X68049376Y-74454137D01*
X68214497Y-74542395D01*
X68214499Y-74542396D01*
X68356148Y-74585365D01*
X68393666Y-74596746D01*
X68393668Y-74596747D01*
X68410374Y-74598392D01*
X68580000Y-74615099D01*
X68766331Y-74596747D01*
X68945501Y-74542396D01*
X69110625Y-74454136D01*
X69255357Y-74335357D01*
X69374136Y-74190625D01*
X69462396Y-74025501D01*
X69516747Y-73846331D01*
X69535099Y-73660000D01*
X69516747Y-73473669D01*
X69462396Y-73294499D01*
X69374136Y-73129375D01*
X69374135Y-73129373D01*
X69255357Y-72984642D01*
X69110626Y-72865864D01*
X69110623Y-72865862D01*
X68945502Y-72777604D01*
X68766333Y-72723253D01*
X68766331Y-72723252D01*
X68580000Y-72704901D01*
X68393668Y-72723252D01*
X68393666Y-72723253D01*
X68214497Y-72777604D01*
X68049376Y-72865862D01*
X68049373Y-72865864D01*
X67908651Y-72981353D01*
X67844341Y-73008666D01*
X67829986Y-73009500D01*
X61710014Y-73009500D01*
X61642975Y-72989815D01*
X61631349Y-72981353D01*
X61490626Y-72865864D01*
X61490623Y-72865862D01*
X61325502Y-72777604D01*
X61146333Y-72723253D01*
X61146331Y-72723252D01*
X60960000Y-72704901D01*
X60773668Y-72723252D01*
X60773666Y-72723253D01*
X60594497Y-72777604D01*
X60429376Y-72865862D01*
X60429373Y-72865864D01*
X60284642Y-72984642D01*
X60165864Y-73129373D01*
X60165862Y-73129376D01*
X60077604Y-73294497D01*
X60023253Y-73473666D01*
X60023252Y-73473668D01*
X60004901Y-73660000D01*
X20320000Y-73660000D01*
X20320000Y-72017870D01*
X21509500Y-72017870D01*
X21509501Y-72017876D01*
X21515908Y-72077483D01*
X21566202Y-72212328D01*
X21566206Y-72212335D01*
X21652452Y-72327544D01*
X21652455Y-72327547D01*
X21767664Y-72413793D01*
X21767671Y-72413797D01*
X21902517Y-72464091D01*
X21902516Y-72464091D01*
X21909444Y-72464835D01*
X21962127Y-72470500D01*
X23757872Y-72470499D01*
X23817483Y-72464091D01*
X23952331Y-72413796D01*
X24067546Y-72327546D01*
X24153796Y-72212331D01*
X24203002Y-72080401D01*
X24244872Y-72024468D01*
X24310337Y-72000050D01*
X24378610Y-72014901D01*
X24406865Y-72036053D01*
X24528917Y-72158105D01*
X24722421Y-72293600D01*
X24936507Y-72393429D01*
X24936516Y-72393433D01*
X25150000Y-72450634D01*
X25150000Y-71555501D01*
X25257685Y-71604680D01*
X25364237Y-71620000D01*
X25435763Y-71620000D01*
X25542315Y-71604680D01*
X25650000Y-71555501D01*
X25650000Y-72450633D01*
X25863483Y-72393433D01*
X25863492Y-72393429D01*
X26077578Y-72293600D01*
X26271082Y-72158105D01*
X26438105Y-71991082D01*
X26568425Y-71804968D01*
X26623002Y-71761344D01*
X26692501Y-71754151D01*
X26754855Y-71785673D01*
X26771575Y-71804968D01*
X26901894Y-71991082D01*
X27068917Y-72158105D01*
X27262421Y-72293600D01*
X27476507Y-72393429D01*
X27476516Y-72393433D01*
X27690000Y-72450634D01*
X27690000Y-71555501D01*
X27797685Y-71604680D01*
X27904237Y-71620000D01*
X27975763Y-71620000D01*
X28082315Y-71604680D01*
X28190000Y-71555501D01*
X28190000Y-72450633D01*
X28403483Y-72393433D01*
X28403492Y-72393429D01*
X28617578Y-72293600D01*
X28811082Y-72158105D01*
X28978105Y-71991082D01*
X29108119Y-71805405D01*
X29162696Y-71761781D01*
X29232195Y-71754588D01*
X29294549Y-71786110D01*
X29311269Y-71805405D01*
X29321139Y-71819501D01*
X29441505Y-71991401D01*
X29608599Y-72158495D01*
X29705384Y-72226264D01*
X29802165Y-72294032D01*
X29802167Y-72294033D01*
X29802170Y-72294035D01*
X30016337Y-72393903D01*
X30244592Y-72455063D01*
X30421034Y-72470500D01*
X30479999Y-72475659D01*
X30480000Y-72475659D01*
X30480001Y-72475659D01*
X30538966Y-72470500D01*
X30715408Y-72455063D01*
X30943663Y-72393903D01*
X31157830Y-72294035D01*
X31351401Y-72158495D01*
X31518495Y-71991401D01*
X31654035Y-71797830D01*
X31753903Y-71583663D01*
X31815063Y-71355408D01*
X31835659Y-71120000D01*
X31815063Y-70884592D01*
X31753903Y-70656337D01*
X31654035Y-70442171D01*
X31648731Y-70434595D01*
X31518494Y-70248597D01*
X31516819Y-70246922D01*
X31516315Y-70246000D01*
X31515014Y-70244449D01*
X31515325Y-70244187D01*
X31483334Y-70185599D01*
X31480500Y-70159241D01*
X31480500Y-70030148D01*
X31500185Y-69963109D01*
X31516819Y-69942467D01*
X33199286Y-68260000D01*
X52195116Y-68260000D01*
X52214609Y-68470369D01*
X52272427Y-68673582D01*
X52366596Y-68862698D01*
X52366601Y-68862706D01*
X52373975Y-68872470D01*
X52950786Y-68295659D01*
X52964465Y-68382019D01*
X53020551Y-68492093D01*
X53107907Y-68579449D01*
X53217981Y-68635535D01*
X53304339Y-68649212D01*
X52730255Y-69223296D01*
X52730256Y-69223297D01*
X52829677Y-69284856D01*
X52829683Y-69284859D01*
X53026685Y-69361177D01*
X53234365Y-69400000D01*
X53445635Y-69400000D01*
X53653314Y-69361177D01*
X53850318Y-69284858D01*
X53850319Y-69284857D01*
X53949743Y-69223296D01*
X53375660Y-68649212D01*
X53462019Y-68635535D01*
X53572093Y-68579449D01*
X53659449Y-68492093D01*
X53715535Y-68382019D01*
X53729212Y-68295659D01*
X54306022Y-68872469D01*
X54306024Y-68872469D01*
X54313398Y-68862705D01*
X54313401Y-68862701D01*
X54407572Y-68673581D01*
X54465390Y-68470369D01*
X54484884Y-68260000D01*
X54734614Y-68260000D01*
X54754115Y-68470463D01*
X54754116Y-68470466D01*
X54811956Y-68673756D01*
X54811959Y-68673762D01*
X54906173Y-68862968D01*
X55033551Y-69031644D01*
X55082558Y-69076319D01*
X55189751Y-69174038D01*
X55369458Y-69285308D01*
X55369459Y-69285308D01*
X55369460Y-69285309D01*
X55411213Y-69301484D01*
X55566550Y-69361662D01*
X55774317Y-69400500D01*
X55774319Y-69400500D01*
X55985681Y-69400500D01*
X55985683Y-69400500D01*
X56193450Y-69361662D01*
X56390542Y-69285308D01*
X56570249Y-69174038D01*
X56726450Y-69031642D01*
X56853827Y-68862968D01*
X56948041Y-68673761D01*
X56948041Y-68673758D01*
X56948043Y-68673756D01*
X56981162Y-68557350D01*
X57005884Y-68470464D01*
X57025386Y-68260000D01*
X57274614Y-68260000D01*
X57294115Y-68470463D01*
X57294116Y-68470466D01*
X57351956Y-68673756D01*
X57351959Y-68673762D01*
X57446173Y-68862968D01*
X57573551Y-69031644D01*
X57622558Y-69076319D01*
X57729751Y-69174038D01*
X57909458Y-69285308D01*
X57909459Y-69285308D01*
X57909460Y-69285309D01*
X57951213Y-69301484D01*
X58106550Y-69361662D01*
X58314317Y-69400500D01*
X58314319Y-69400500D01*
X58525681Y-69400500D01*
X58525683Y-69400500D01*
X58733450Y-69361662D01*
X58930542Y-69285308D01*
X59110249Y-69174038D01*
X59266450Y-69031642D01*
X59393827Y-68862968D01*
X59488041Y-68673761D01*
X59488041Y-68673758D01*
X59488043Y-68673756D01*
X59521162Y-68557350D01*
X59545884Y-68470464D01*
X59565386Y-68260000D01*
X59815116Y-68260000D01*
X59834609Y-68470369D01*
X59892427Y-68673582D01*
X59986596Y-68862698D01*
X59986601Y-68862706D01*
X59993975Y-68872470D01*
X60570786Y-68295659D01*
X60584465Y-68382019D01*
X60640551Y-68492093D01*
X60727907Y-68579449D01*
X60837981Y-68635535D01*
X60924339Y-68649212D01*
X60350255Y-69223296D01*
X60350256Y-69223297D01*
X60449677Y-69284856D01*
X60449683Y-69284859D01*
X60646685Y-69361177D01*
X60854365Y-69400000D01*
X61065635Y-69400000D01*
X61273314Y-69361177D01*
X61470318Y-69284858D01*
X61470319Y-69284857D01*
X61569743Y-69223296D01*
X60995660Y-68649212D01*
X61082019Y-68635535D01*
X61192093Y-68579449D01*
X61279449Y-68492093D01*
X61335535Y-68382019D01*
X61349212Y-68295659D01*
X61926022Y-68872469D01*
X61926024Y-68872469D01*
X61933398Y-68862705D01*
X61933401Y-68862701D01*
X62027572Y-68673581D01*
X62085390Y-68470369D01*
X62104884Y-68260000D01*
X62355116Y-68260000D01*
X62374609Y-68470369D01*
X62432427Y-68673582D01*
X62526596Y-68862698D01*
X62526601Y-68862706D01*
X62533975Y-68872470D01*
X63110786Y-68295659D01*
X63124465Y-68382019D01*
X63180551Y-68492093D01*
X63267907Y-68579449D01*
X63377981Y-68635535D01*
X63464339Y-68649212D01*
X62890255Y-69223296D01*
X62890256Y-69223297D01*
X62989677Y-69284856D01*
X62989683Y-69284859D01*
X63186685Y-69361177D01*
X63394365Y-69400000D01*
X63605635Y-69400000D01*
X63813314Y-69361177D01*
X64010318Y-69284858D01*
X64010319Y-69284857D01*
X64109743Y-69223296D01*
X63535660Y-68649212D01*
X63622019Y-68635535D01*
X63732093Y-68579449D01*
X63819449Y-68492093D01*
X63875535Y-68382019D01*
X63889212Y-68295659D01*
X64466022Y-68872469D01*
X64466024Y-68872469D01*
X64473398Y-68862705D01*
X64473401Y-68862701D01*
X64567572Y-68673581D01*
X64625390Y-68470369D01*
X64644884Y-68260000D01*
X64894614Y-68260000D01*
X64914115Y-68470463D01*
X64914116Y-68470466D01*
X64971956Y-68673756D01*
X64971959Y-68673762D01*
X65066173Y-68862968D01*
X65193551Y-69031644D01*
X65242558Y-69076319D01*
X65349751Y-69174038D01*
X65529458Y-69285308D01*
X65529459Y-69285308D01*
X65529460Y-69285309D01*
X65571213Y-69301484D01*
X65726550Y-69361662D01*
X65934317Y-69400500D01*
X65934319Y-69400500D01*
X66145681Y-69400500D01*
X66145683Y-69400500D01*
X66353450Y-69361662D01*
X66550542Y-69285308D01*
X66730249Y-69174038D01*
X66886450Y-69031642D01*
X67013827Y-68862968D01*
X67108041Y-68673761D01*
X67108041Y-68673758D01*
X67108043Y-68673756D01*
X67141162Y-68557350D01*
X67165884Y-68470464D01*
X67185386Y-68260000D01*
X67434614Y-68260000D01*
X67454115Y-68470463D01*
X67454116Y-68470466D01*
X67511956Y-68673756D01*
X67511959Y-68673762D01*
X67606173Y-68862968D01*
X67733551Y-69031644D01*
X67782558Y-69076319D01*
X67889751Y-69174038D01*
X68069458Y-69285308D01*
X68069459Y-69285308D01*
X68069460Y-69285309D01*
X68111213Y-69301484D01*
X68266550Y-69361662D01*
X68474317Y-69400500D01*
X68474319Y-69400500D01*
X68685681Y-69400500D01*
X68685683Y-69400500D01*
X68893450Y-69361662D01*
X69090542Y-69285308D01*
X69270249Y-69174038D01*
X69426450Y-69031642D01*
X69553827Y-68862968D01*
X69648041Y-68673761D01*
X69648041Y-68673758D01*
X69648043Y-68673756D01*
X69681162Y-68557350D01*
X69705884Y-68470464D01*
X69725386Y-68260000D01*
X69714079Y-68137981D01*
X69705884Y-68049536D01*
X69705883Y-68049533D01*
X69648043Y-67846243D01*
X69648040Y-67846237D01*
X69595389Y-67740500D01*
X69553827Y-67657032D01*
X69447935Y-67516809D01*
X69426448Y-67488355D01*
X69270250Y-67345963D01*
X69270249Y-67345962D01*
X69090542Y-67234692D01*
X69090540Y-67234691D01*
X69090539Y-67234690D01*
X68905920Y-67163169D01*
X68893450Y-67158338D01*
X68685683Y-67119500D01*
X68474317Y-67119500D01*
X68266550Y-67158338D01*
X68266547Y-67158338D01*
X68266547Y-67158339D01*
X68069460Y-67234690D01*
X68069459Y-67234691D01*
X67889749Y-67345963D01*
X67733551Y-67488355D01*
X67606173Y-67657031D01*
X67511959Y-67846237D01*
X67511956Y-67846243D01*
X67454116Y-68049533D01*
X67454115Y-68049536D01*
X67434614Y-68259999D01*
X67434614Y-68260000D01*
X67185386Y-68260000D01*
X67174079Y-68137981D01*
X67165884Y-68049536D01*
X67165883Y-68049533D01*
X67108043Y-67846243D01*
X67108040Y-67846237D01*
X67055389Y-67740500D01*
X67013827Y-67657032D01*
X66907935Y-67516809D01*
X66886448Y-67488355D01*
X66730250Y-67345963D01*
X66730249Y-67345962D01*
X66550542Y-67234692D01*
X66550540Y-67234691D01*
X66550539Y-67234690D01*
X66365920Y-67163169D01*
X66353450Y-67158338D01*
X66145683Y-67119500D01*
X65934317Y-67119500D01*
X65726550Y-67158338D01*
X65726547Y-67158338D01*
X65726547Y-67158339D01*
X65529460Y-67234690D01*
X65529459Y-67234691D01*
X65349749Y-67345963D01*
X65193551Y-67488355D01*
X65066173Y-67657031D01*
X64971959Y-67846237D01*
X64971956Y-67846243D01*
X64914116Y-68049533D01*
X64914115Y-68049536D01*
X64894614Y-68259999D01*
X64894614Y-68260000D01*
X64644884Y-68260000D01*
X64644884Y-68259999D01*
X64625390Y-68049630D01*
X64567572Y-67846417D01*
X64473403Y-67657302D01*
X64473401Y-67657299D01*
X64466023Y-67647529D01*
X63889212Y-68224339D01*
X63875535Y-68137981D01*
X63819449Y-68027907D01*
X63732093Y-67940551D01*
X63622019Y-67884465D01*
X63535659Y-67870786D01*
X64109743Y-67296702D01*
X64109742Y-67296701D01*
X64010322Y-67235144D01*
X64010316Y-67235140D01*
X63813314Y-67158822D01*
X63605635Y-67120000D01*
X63394365Y-67120000D01*
X63186680Y-67158823D01*
X62989691Y-67235137D01*
X62989678Y-67235143D01*
X62890255Y-67296702D01*
X63464340Y-67870786D01*
X63377981Y-67884465D01*
X63267907Y-67940551D01*
X63180551Y-68027907D01*
X63124465Y-68137981D01*
X63110787Y-68224340D01*
X62533975Y-67647529D01*
X62526600Y-67657296D01*
X62432427Y-67846418D01*
X62374609Y-68049630D01*
X62355116Y-68259999D01*
X62355116Y-68260000D01*
X62104884Y-68260000D01*
X62104884Y-68259999D01*
X62085390Y-68049630D01*
X62027572Y-67846417D01*
X61933403Y-67657302D01*
X61933401Y-67657299D01*
X61926023Y-67647529D01*
X61349212Y-68224339D01*
X61335535Y-68137981D01*
X61279449Y-68027907D01*
X61192093Y-67940551D01*
X61082019Y-67884465D01*
X60995659Y-67870786D01*
X61569743Y-67296702D01*
X61569742Y-67296701D01*
X61470322Y-67235144D01*
X61470316Y-67235140D01*
X61273314Y-67158822D01*
X61065635Y-67120000D01*
X60854365Y-67120000D01*
X60646680Y-67158823D01*
X60449691Y-67235137D01*
X60449678Y-67235143D01*
X60350255Y-67296702D01*
X60924340Y-67870786D01*
X60837981Y-67884465D01*
X60727907Y-67940551D01*
X60640551Y-68027907D01*
X60584465Y-68137981D01*
X60570787Y-68224340D01*
X59993975Y-67647529D01*
X59986600Y-67657296D01*
X59892427Y-67846418D01*
X59834609Y-68049630D01*
X59815116Y-68259999D01*
X59815116Y-68260000D01*
X59565386Y-68260000D01*
X59554079Y-68137981D01*
X59545884Y-68049536D01*
X59545883Y-68049533D01*
X59488043Y-67846243D01*
X59488040Y-67846237D01*
X59435389Y-67740500D01*
X59393827Y-67657032D01*
X59287935Y-67516809D01*
X59266448Y-67488355D01*
X59110250Y-67345963D01*
X59110249Y-67345962D01*
X58930542Y-67234692D01*
X58930540Y-67234691D01*
X58930539Y-67234690D01*
X58745920Y-67163169D01*
X58733450Y-67158338D01*
X58525683Y-67119500D01*
X58314317Y-67119500D01*
X58106550Y-67158338D01*
X58106547Y-67158338D01*
X58106547Y-67158339D01*
X57909460Y-67234690D01*
X57909459Y-67234691D01*
X57729749Y-67345963D01*
X57573551Y-67488355D01*
X57446173Y-67657031D01*
X57351959Y-67846237D01*
X57351956Y-67846243D01*
X57294116Y-68049533D01*
X57294115Y-68049536D01*
X57274614Y-68259999D01*
X57274614Y-68260000D01*
X57025386Y-68260000D01*
X57014079Y-68137981D01*
X57005884Y-68049536D01*
X57005883Y-68049533D01*
X56948043Y-67846243D01*
X56948040Y-67846237D01*
X56895389Y-67740500D01*
X56853827Y-67657032D01*
X56747935Y-67516809D01*
X56726448Y-67488355D01*
X56570250Y-67345963D01*
X56570249Y-67345962D01*
X56390542Y-67234692D01*
X56390540Y-67234691D01*
X56390539Y-67234690D01*
X56205920Y-67163169D01*
X56193450Y-67158338D01*
X55985683Y-67119500D01*
X55774317Y-67119500D01*
X55566550Y-67158338D01*
X55566547Y-67158338D01*
X55566547Y-67158339D01*
X55369460Y-67234690D01*
X55369459Y-67234691D01*
X55189749Y-67345963D01*
X55033551Y-67488355D01*
X54906173Y-67657031D01*
X54811959Y-67846237D01*
X54811956Y-67846243D01*
X54754116Y-68049533D01*
X54754115Y-68049536D01*
X54734614Y-68259999D01*
X54734614Y-68260000D01*
X54484884Y-68260000D01*
X54484884Y-68259999D01*
X54465390Y-68049630D01*
X54407572Y-67846417D01*
X54313403Y-67657302D01*
X54313401Y-67657299D01*
X54306023Y-67647529D01*
X53729212Y-68224339D01*
X53715535Y-68137981D01*
X53659449Y-68027907D01*
X53572093Y-67940551D01*
X53462019Y-67884465D01*
X53375659Y-67870786D01*
X53949743Y-67296702D01*
X53949742Y-67296701D01*
X53850322Y-67235144D01*
X53850316Y-67235140D01*
X53653314Y-67158822D01*
X53445635Y-67120000D01*
X53234365Y-67120000D01*
X53026680Y-67158823D01*
X52829691Y-67235137D01*
X52829678Y-67235143D01*
X52730255Y-67296702D01*
X53304340Y-67870786D01*
X53217981Y-67884465D01*
X53107907Y-67940551D01*
X53020551Y-68027907D01*
X52964465Y-68137981D01*
X52950787Y-68224340D01*
X52373975Y-67647529D01*
X52366600Y-67657296D01*
X52272427Y-67846418D01*
X52214609Y-68049630D01*
X52195116Y-68259999D01*
X52195116Y-68260000D01*
X33199286Y-68260000D01*
X39462467Y-61996819D01*
X39523790Y-61963334D01*
X39550148Y-61960500D01*
X41743136Y-61960500D01*
X41810175Y-61980185D01*
X41840081Y-62007185D01*
X41929950Y-62119877D01*
X42116783Y-62293232D01*
X42327366Y-62436805D01*
X42327371Y-62436807D01*
X42327372Y-62436808D01*
X42327373Y-62436809D01*
X42399687Y-62471633D01*
X42556992Y-62547387D01*
X42556993Y-62547387D01*
X42556996Y-62547389D01*
X42800542Y-62622513D01*
X43052565Y-62660500D01*
X43307435Y-62660500D01*
X43559458Y-62622513D01*
X43803004Y-62547389D01*
X44032634Y-62436805D01*
X44243217Y-62293232D01*
X44430050Y-62119877D01*
X44588959Y-61920612D01*
X44716393Y-61699888D01*
X44809508Y-61462637D01*
X44866222Y-61214157D01*
X44885268Y-60960000D01*
X44877995Y-60862944D01*
X44869278Y-60746616D01*
X44883898Y-60678293D01*
X44905246Y-60649673D01*
X45458101Y-60096819D01*
X45519425Y-60063334D01*
X45545783Y-60060500D01*
X49144376Y-60060500D01*
X49211415Y-60080185D01*
X49257170Y-60132989D01*
X49267114Y-60202147D01*
X49259804Y-60229799D01*
X49245152Y-60267134D01*
X49170492Y-60457362D01*
X49170490Y-60457369D01*
X49113777Y-60705845D01*
X49094732Y-60959995D01*
X49094732Y-60960004D01*
X49113777Y-61214154D01*
X49165491Y-61440729D01*
X49170492Y-61462637D01*
X49263607Y-61699888D01*
X49391041Y-61920612D01*
X49549950Y-62119877D01*
X49736783Y-62293232D01*
X49947366Y-62436805D01*
X49947371Y-62436807D01*
X49947372Y-62436808D01*
X49947373Y-62436809D01*
X50019687Y-62471633D01*
X50176992Y-62547387D01*
X50176993Y-62547387D01*
X50176996Y-62547389D01*
X50420542Y-62622513D01*
X50672565Y-62660500D01*
X50927435Y-62660500D01*
X51179458Y-62622513D01*
X51423004Y-62547389D01*
X51652634Y-62436805D01*
X51863217Y-62293232D01*
X52050050Y-62119877D01*
X52208959Y-61920612D01*
X52336393Y-61699888D01*
X52429508Y-61462637D01*
X52486222Y-61214157D01*
X52505268Y-60960000D01*
X52486222Y-60705843D01*
X52429508Y-60457363D01*
X52340195Y-60229801D01*
X52334027Y-60160206D01*
X52366465Y-60098322D01*
X52427209Y-60063799D01*
X52455624Y-60060500D01*
X63674217Y-60060500D01*
X63741256Y-60080185D01*
X63761898Y-60096819D01*
X64314749Y-60649670D01*
X64348234Y-60710993D01*
X64350721Y-60746617D01*
X64334732Y-60959995D01*
X64334732Y-60960004D01*
X64353777Y-61214154D01*
X64405491Y-61440729D01*
X64410492Y-61462637D01*
X64503607Y-61699888D01*
X64631041Y-61920612D01*
X64789950Y-62119877D01*
X64976783Y-62293232D01*
X65187366Y-62436805D01*
X65187371Y-62436807D01*
X65187372Y-62436808D01*
X65187373Y-62436809D01*
X65259687Y-62471633D01*
X65416992Y-62547387D01*
X65416993Y-62547387D01*
X65416996Y-62547389D01*
X65660542Y-62622513D01*
X65912565Y-62660500D01*
X66167435Y-62660500D01*
X66419458Y-62622513D01*
X66663004Y-62547389D01*
X66892634Y-62436805D01*
X67103217Y-62293232D01*
X67290050Y-62119877D01*
X67379917Y-62007186D01*
X67437106Y-61967047D01*
X67476864Y-61960500D01*
X98885217Y-61960500D01*
X98952256Y-61980185D01*
X98998011Y-62032989D01*
X99007955Y-62102147D01*
X98978930Y-62165703D01*
X98972898Y-62172181D01*
X98362109Y-62782968D01*
X98360986Y-62784063D01*
X98296951Y-62844935D01*
X98296949Y-62844938D01*
X98261899Y-62895294D01*
X98259062Y-62899056D01*
X98220302Y-62946592D01*
X98220299Y-62946597D01*
X98204392Y-62977047D01*
X98200324Y-62983761D01*
X98180702Y-63011954D01*
X98156509Y-63068330D01*
X98154488Y-63072584D01*
X98126091Y-63126951D01*
X98126090Y-63126952D01*
X98116640Y-63159975D01*
X98114007Y-63167371D01*
X98100459Y-63198943D01*
X98088113Y-63259019D01*
X98086990Y-63263595D01*
X98070113Y-63322577D01*
X98070113Y-63322579D01*
X98067503Y-63356841D01*
X98066414Y-63364608D01*
X98060980Y-63391052D01*
X98059500Y-63398258D01*
X98059500Y-63459597D01*
X98059321Y-63464306D01*
X98054662Y-63525473D01*
X98059002Y-63559549D01*
X98059499Y-63567389D01*
X98059499Y-67692650D01*
X98046500Y-67747919D01*
X97999628Y-67842055D01*
X97996641Y-67848053D01*
X97981440Y-67901477D01*
X97949855Y-67955222D01*
X95760842Y-70144236D01*
X95699519Y-70177721D01*
X95629827Y-70172737D01*
X95573894Y-70130865D01*
X95549477Y-70065401D01*
X95564329Y-69997128D01*
X95577309Y-69977889D01*
X95589439Y-69963109D01*
X95606199Y-69942687D01*
X95694459Y-69777563D01*
X95748810Y-69598393D01*
X95767162Y-69412062D01*
X95750617Y-69244081D01*
X95748810Y-69225730D01*
X95748809Y-69225728D01*
X95748071Y-69223296D01*
X95694459Y-69046561D01*
X95694458Y-69046559D01*
X95606200Y-68881438D01*
X95606198Y-68881435D01*
X95487420Y-68736704D01*
X95342689Y-68617926D01*
X95342686Y-68617924D01*
X95177565Y-68529666D01*
X94998396Y-68475315D01*
X94998394Y-68475314D01*
X94817223Y-68457471D01*
X94752436Y-68431310D01*
X94741696Y-68421749D01*
X94180435Y-67860488D01*
X94170362Y-67847914D01*
X94170175Y-67848070D01*
X94165199Y-67842055D01*
X94132383Y-67811240D01*
X94113433Y-67793445D01*
X94112059Y-67792112D01*
X94091036Y-67771089D01*
X94085241Y-67766594D01*
X94080799Y-67762799D01*
X94045397Y-67729554D01*
X94045389Y-67729548D01*
X94026793Y-67719325D01*
X94010532Y-67708644D01*
X93993764Y-67695637D01*
X93970296Y-67685482D01*
X93949179Y-67676343D01*
X93943957Y-67673786D01*
X93901369Y-67650373D01*
X93901366Y-67650372D01*
X93880802Y-67645092D01*
X93862397Y-67638790D01*
X93842928Y-67630365D01*
X93842922Y-67630363D01*
X93794952Y-67622766D01*
X93789237Y-67621582D01*
X93772773Y-67617355D01*
X93742181Y-67609500D01*
X93742178Y-67609500D01*
X93720956Y-67609500D01*
X93701556Y-67607973D01*
X93680597Y-67604653D01*
X93680596Y-67604653D01*
X93656787Y-67606903D01*
X93632231Y-67609225D01*
X93626393Y-67609500D01*
X72375122Y-67609500D01*
X72308083Y-67589815D01*
X72262328Y-67537011D01*
X72254445Y-67514015D01*
X72254091Y-67512521D01*
X72254091Y-67512517D01*
X72203796Y-67377669D01*
X72203795Y-67377668D01*
X72203793Y-67377664D01*
X72117547Y-67262455D01*
X72117544Y-67262452D01*
X72002335Y-67176206D01*
X72002328Y-67176202D01*
X71867482Y-67125908D01*
X71867483Y-67125908D01*
X71807883Y-67119501D01*
X71807881Y-67119500D01*
X71807873Y-67119500D01*
X71807864Y-67119500D01*
X70432129Y-67119500D01*
X70432123Y-67119501D01*
X70372516Y-67125908D01*
X70237671Y-67176202D01*
X70237664Y-67176206D01*
X70122455Y-67262452D01*
X70122452Y-67262455D01*
X70036206Y-67377664D01*
X70036202Y-67377671D01*
X69985908Y-67512517D01*
X69979501Y-67572116D01*
X69979500Y-67572135D01*
X69979500Y-68947870D01*
X69979501Y-68947876D01*
X69985908Y-69007483D01*
X70036202Y-69142328D01*
X70036206Y-69142335D01*
X70122452Y-69257544D01*
X70122455Y-69257547D01*
X70237664Y-69343793D01*
X70237671Y-69343797D01*
X70372517Y-69394091D01*
X70372516Y-69394091D01*
X70379444Y-69394835D01*
X70432127Y-69400500D01*
X71807872Y-69400499D01*
X71867483Y-69394091D01*
X72002331Y-69343796D01*
X72117546Y-69257546D01*
X72203796Y-69142331D01*
X72254091Y-69007483D01*
X72254091Y-69007477D01*
X72254445Y-69005985D01*
X72255039Y-69004941D01*
X72256802Y-69000215D01*
X72257567Y-69000500D01*
X72289019Y-68945269D01*
X72350930Y-68912883D01*
X72375122Y-68910500D01*
X93339193Y-68910500D01*
X93406232Y-68930185D01*
X93426874Y-68946819D01*
X93821750Y-69341695D01*
X93855235Y-69403018D01*
X93857472Y-69417222D01*
X93875315Y-69598393D01*
X93875316Y-69598395D01*
X93929667Y-69777564D01*
X94017925Y-69942685D01*
X94017927Y-69942688D01*
X94136705Y-70087419D01*
X94281436Y-70206197D01*
X94281439Y-70206199D01*
X94361377Y-70248926D01*
X94446562Y-70294458D01*
X94606477Y-70342968D01*
X94625729Y-70348808D01*
X94625731Y-70348809D01*
X94644082Y-70350616D01*
X94812063Y-70367161D01*
X94998394Y-70348809D01*
X95177564Y-70294458D01*
X95342688Y-70206198D01*
X95367788Y-70185599D01*
X95377892Y-70177307D01*
X95442202Y-70149994D01*
X95511069Y-70161785D01*
X95562630Y-70208937D01*
X95580513Y-70276479D01*
X95559041Y-70342968D01*
X95544238Y-70360841D01*
X93821899Y-72083181D01*
X93760576Y-72116666D01*
X93734218Y-72119500D01*
X92777180Y-72119500D01*
X92710141Y-72099815D01*
X92677913Y-72069811D01*
X92652642Y-72036053D01*
X92597546Y-71962454D01*
X92588449Y-71955644D01*
X92546581Y-71899710D01*
X92541599Y-71830018D01*
X92561191Y-71785253D01*
X92570134Y-71772481D01*
X92666265Y-71566326D01*
X92666269Y-71566317D01*
X92725139Y-71346610D01*
X92725141Y-71346599D01*
X92744966Y-71120002D01*
X92744966Y-71119997D01*
X92725141Y-70893400D01*
X92725139Y-70893389D01*
X92666269Y-70673682D01*
X92666265Y-70673673D01*
X92570133Y-70467516D01*
X92570131Y-70467512D01*
X92519025Y-70394526D01*
X91837953Y-71075598D01*
X91825165Y-70994852D01*
X91767641Y-70881955D01*
X91678045Y-70792359D01*
X91565148Y-70734835D01*
X91484399Y-70722045D01*
X92165472Y-70040973D01*
X92092483Y-69989866D01*
X92092481Y-69989865D01*
X91886326Y-69893734D01*
X91886317Y-69893730D01*
X91666610Y-69834860D01*
X91666599Y-69834858D01*
X91440002Y-69815034D01*
X91439998Y-69815034D01*
X91213400Y-69834858D01*
X91213389Y-69834860D01*
X90993682Y-69893730D01*
X90993673Y-69893734D01*
X90787513Y-69989868D01*
X90714526Y-70040973D01*
X91395598Y-70722046D01*
X91314852Y-70734835D01*
X91201955Y-70792359D01*
X91112359Y-70881955D01*
X91054835Y-70994852D01*
X91042046Y-71075600D01*
X90360973Y-70394527D01*
X90309868Y-70467513D01*
X90213734Y-70673673D01*
X90213730Y-70673682D01*
X90154860Y-70893389D01*
X90154858Y-70893400D01*
X90135034Y-71119997D01*
X90135034Y-71120002D01*
X90154858Y-71346599D01*
X90154860Y-71346610D01*
X90213730Y-71566317D01*
X90213734Y-71566326D01*
X90309865Y-71772481D01*
X90309868Y-71772485D01*
X90318812Y-71785260D01*
X90341138Y-71851467D01*
X90324125Y-71919234D01*
X90291549Y-71955645D01*
X90282456Y-71962452D01*
X90282455Y-71962453D01*
X90282454Y-71962454D01*
X90236031Y-72024468D01*
X90202087Y-72069811D01*
X90146153Y-72111682D01*
X90102820Y-72119500D01*
X80077180Y-72119500D01*
X80010141Y-72099815D01*
X79977913Y-72069811D01*
X79952642Y-72036053D01*
X79897546Y-71962454D01*
X79888449Y-71955644D01*
X79846581Y-71899710D01*
X79841599Y-71830018D01*
X79861191Y-71785253D01*
X79870134Y-71772481D01*
X79966265Y-71566326D01*
X79966269Y-71566317D01*
X80025139Y-71346610D01*
X80025141Y-71346599D01*
X80044966Y-71120002D01*
X80044966Y-71119997D01*
X80025141Y-70893400D01*
X80025139Y-70893389D01*
X79966269Y-70673682D01*
X79966265Y-70673673D01*
X79870133Y-70467516D01*
X79870131Y-70467512D01*
X79819025Y-70394526D01*
X79137953Y-71075598D01*
X79125165Y-70994852D01*
X79067641Y-70881955D01*
X78978045Y-70792359D01*
X78865148Y-70734835D01*
X78784400Y-70722046D01*
X79465472Y-70040974D01*
X79465471Y-70040973D01*
X79392483Y-69989866D01*
X79392481Y-69989865D01*
X79186326Y-69893734D01*
X79186317Y-69893730D01*
X78966610Y-69834860D01*
X78966599Y-69834858D01*
X78740002Y-69815034D01*
X78739998Y-69815034D01*
X78513400Y-69834858D01*
X78513389Y-69834860D01*
X78293682Y-69893730D01*
X78293673Y-69893734D01*
X78087513Y-69989868D01*
X78014527Y-70040972D01*
X78014526Y-70040973D01*
X78695600Y-70722046D01*
X78614852Y-70734835D01*
X78501955Y-70792359D01*
X78412359Y-70881955D01*
X78354835Y-70994852D01*
X78342046Y-71075600D01*
X77660973Y-70394527D01*
X77609868Y-70467513D01*
X77513734Y-70673673D01*
X77513730Y-70673682D01*
X77454860Y-70893389D01*
X77454858Y-70893400D01*
X77435034Y-71119997D01*
X77435034Y-71120002D01*
X77454858Y-71346599D01*
X77454860Y-71346610D01*
X77513730Y-71566317D01*
X77513734Y-71566326D01*
X77609865Y-71772481D01*
X77609868Y-71772485D01*
X77618812Y-71785260D01*
X77641138Y-71851467D01*
X77624125Y-71919234D01*
X77591549Y-71955645D01*
X77582456Y-71962452D01*
X77582455Y-71962453D01*
X77582454Y-71962454D01*
X77536031Y-72024468D01*
X77502087Y-72069811D01*
X77446153Y-72111682D01*
X77402820Y-72119500D01*
X74213493Y-72119500D01*
X74211930Y-72119480D01*
X74123637Y-72117243D01*
X74123628Y-72117243D01*
X74070636Y-72126741D01*
X74063254Y-72128064D01*
X74058595Y-72128718D01*
X73997564Y-72134925D01*
X73997562Y-72134926D01*
X73964780Y-72145210D01*
X73957156Y-72147081D01*
X73949308Y-72148488D01*
X73923349Y-72153141D01*
X73923341Y-72153143D01*
X73866382Y-72175895D01*
X73861946Y-72177474D01*
X73803415Y-72195840D01*
X73803412Y-72195841D01*
X73803410Y-72195842D01*
X73803403Y-72195845D01*
X73773384Y-72212507D01*
X73766290Y-72215876D01*
X73734390Y-72228619D01*
X73734388Y-72228619D01*
X73734383Y-72228622D01*
X73734376Y-72228626D01*
X73734377Y-72228626D01*
X73683154Y-72262383D01*
X73679126Y-72264824D01*
X73625502Y-72294588D01*
X73625499Y-72294590D01*
X73599427Y-72316970D01*
X73593160Y-72321695D01*
X73564482Y-72340598D01*
X73564475Y-72340603D01*
X73521116Y-72383962D01*
X73517661Y-72387164D01*
X73471106Y-72427132D01*
X73471105Y-72427133D01*
X73450076Y-72454300D01*
X73444884Y-72460194D01*
X70825358Y-75079720D01*
X70782471Y-75107665D01*
X70609469Y-75174686D01*
X70609459Y-75174691D01*
X70429749Y-75285963D01*
X70273551Y-75428355D01*
X70146173Y-75597031D01*
X70051959Y-75786237D01*
X70051956Y-75786243D01*
X69994116Y-75989533D01*
X69994115Y-75989536D01*
X69974614Y-76199999D01*
X69974614Y-76200000D01*
X69994115Y-76410463D01*
X69994116Y-76410466D01*
X70051956Y-76613756D01*
X70051959Y-76613762D01*
X70146173Y-76802968D01*
X70273551Y-76971644D01*
X70368595Y-77058287D01*
X70429751Y-77114038D01*
X70609458Y-77225308D01*
X70609459Y-77225308D01*
X70609460Y-77225309D01*
X70641200Y-77237605D01*
X70806550Y-77301662D01*
X71014317Y-77340500D01*
X71014319Y-77340500D01*
X71225681Y-77340500D01*
X71225683Y-77340500D01*
X71433450Y-77301662D01*
X71630542Y-77225308D01*
X71810249Y-77114038D01*
X71966450Y-76971642D01*
X72093827Y-76802968D01*
X72188041Y-76613761D01*
X72205824Y-76551257D01*
X72237408Y-76497511D01*
X74578101Y-74156819D01*
X74639425Y-74123334D01*
X74665783Y-74120500D01*
X77402820Y-74120500D01*
X77469859Y-74140185D01*
X77502085Y-74170187D01*
X77582454Y-74277546D01*
X77626475Y-74310500D01*
X77697664Y-74363793D01*
X77697671Y-74363797D01*
X77832517Y-74414091D01*
X77832516Y-74414091D01*
X77839444Y-74414835D01*
X77892127Y-74420500D01*
X79587872Y-74420499D01*
X79647483Y-74414091D01*
X79782331Y-74363796D01*
X79897546Y-74277546D01*
X79977914Y-74170188D01*
X80033847Y-74128318D01*
X80077180Y-74120500D01*
X90102820Y-74120500D01*
X90169859Y-74140185D01*
X90202085Y-74170187D01*
X90282454Y-74277546D01*
X90326475Y-74310500D01*
X90397664Y-74363793D01*
X90397671Y-74363797D01*
X90532517Y-74414091D01*
X90532516Y-74414091D01*
X90539444Y-74414835D01*
X90592127Y-74420500D01*
X92287872Y-74420499D01*
X92347483Y-74414091D01*
X92482331Y-74363796D01*
X92597546Y-74277546D01*
X92677914Y-74170188D01*
X92733847Y-74128318D01*
X92777180Y-74120500D01*
X94186507Y-74120500D01*
X94188069Y-74120519D01*
X94225283Y-74121462D01*
X94276358Y-74122757D01*
X94276358Y-74122756D01*
X94276363Y-74122757D01*
X94336753Y-74111932D01*
X94341412Y-74111280D01*
X94383607Y-74106988D01*
X94402438Y-74105074D01*
X94435227Y-74094786D01*
X94442840Y-74092918D01*
X94476653Y-74086858D01*
X94533621Y-74064101D01*
X94538053Y-74062524D01*
X94596588Y-74044159D01*
X94626627Y-74027484D01*
X94633708Y-74024122D01*
X94665617Y-74011377D01*
X94716854Y-73977608D01*
X94720851Y-73975187D01*
X94774502Y-73945409D01*
X94800568Y-73923030D01*
X94806843Y-73918300D01*
X94835519Y-73899402D01*
X94878892Y-73856027D01*
X94882350Y-73852823D01*
X94889912Y-73846331D01*
X94928895Y-73812866D01*
X94949928Y-73785691D01*
X94955098Y-73779821D01*
X99363394Y-69371525D01*
X99406278Y-69343581D01*
X99568304Y-69280813D01*
X99747223Y-69170031D01*
X99902740Y-69028259D01*
X100029558Y-68860325D01*
X100123359Y-68671947D01*
X100180948Y-68469542D01*
X100200365Y-68260000D01*
X100459634Y-68260000D01*
X100479051Y-68469537D01*
X100479051Y-68469539D01*
X100479052Y-68469542D01*
X100496159Y-68529666D01*
X100536642Y-68671950D01*
X100623982Y-68847352D01*
X100630442Y-68860325D01*
X100757260Y-69028259D01*
X100882391Y-69142331D01*
X100912776Y-69170030D01*
X100912778Y-69170032D01*
X101091692Y-69280811D01*
X101091698Y-69280814D01*
X101133268Y-69296918D01*
X101287924Y-69356832D01*
X101494780Y-69395500D01*
X101494782Y-69395500D01*
X101705218Y-69395500D01*
X101705220Y-69395500D01*
X101912076Y-69356832D01*
X102108304Y-69280813D01*
X102287223Y-69170031D01*
X102442740Y-69028259D01*
X102569558Y-68860325D01*
X102663359Y-68671947D01*
X102720948Y-68469542D01*
X102740365Y-68260000D01*
X102999634Y-68260000D01*
X103019051Y-68469537D01*
X103019051Y-68469539D01*
X103019052Y-68469542D01*
X103036159Y-68529666D01*
X103076642Y-68671950D01*
X103163982Y-68847352D01*
X103170442Y-68860325D01*
X103297260Y-69028259D01*
X103422391Y-69142331D01*
X103452776Y-69170030D01*
X103452778Y-69170032D01*
X103631692Y-69280811D01*
X103631698Y-69280814D01*
X103673268Y-69296918D01*
X103827924Y-69356832D01*
X104034780Y-69395500D01*
X104034782Y-69395500D01*
X104245218Y-69395500D01*
X104245220Y-69395500D01*
X104452076Y-69356832D01*
X104648304Y-69280813D01*
X104827223Y-69170031D01*
X104982740Y-69028259D01*
X105109558Y-68860325D01*
X105203359Y-68671947D01*
X105260948Y-68469542D01*
X105280365Y-68260000D01*
X105539634Y-68260000D01*
X105559051Y-68469537D01*
X105559051Y-68469539D01*
X105559052Y-68469542D01*
X105576159Y-68529666D01*
X105616642Y-68671950D01*
X105703982Y-68847352D01*
X105710442Y-68860325D01*
X105837260Y-69028259D01*
X105962391Y-69142331D01*
X105992776Y-69170030D01*
X105992778Y-69170032D01*
X106171692Y-69280811D01*
X106171698Y-69280814D01*
X106213268Y-69296918D01*
X106367924Y-69356832D01*
X106574780Y-69395500D01*
X106574782Y-69395500D01*
X106785218Y-69395500D01*
X106785220Y-69395500D01*
X106992076Y-69356832D01*
X107188304Y-69280813D01*
X107367223Y-69170031D01*
X107522740Y-69028259D01*
X107649558Y-68860325D01*
X107743359Y-68671947D01*
X107800948Y-68469542D01*
X107820365Y-68260000D01*
X108079634Y-68260000D01*
X108099051Y-68469537D01*
X108099051Y-68469539D01*
X108099052Y-68469542D01*
X108116159Y-68529666D01*
X108156642Y-68671950D01*
X108243982Y-68847352D01*
X108250442Y-68860325D01*
X108377260Y-69028259D01*
X108502391Y-69142331D01*
X108532776Y-69170030D01*
X108532778Y-69170032D01*
X108711692Y-69280811D01*
X108711698Y-69280814D01*
X108753268Y-69296918D01*
X108907924Y-69356832D01*
X109114780Y-69395500D01*
X109114782Y-69395500D01*
X109325218Y-69395500D01*
X109325220Y-69395500D01*
X109532076Y-69356832D01*
X109728304Y-69280813D01*
X109907223Y-69170031D01*
X110062740Y-69028259D01*
X110189558Y-68860325D01*
X110283359Y-68671947D01*
X110340948Y-68469542D01*
X110360365Y-68260000D01*
X110619634Y-68260000D01*
X110639051Y-68469537D01*
X110639051Y-68469539D01*
X110639052Y-68469542D01*
X110656159Y-68529666D01*
X110696642Y-68671950D01*
X110783982Y-68847352D01*
X110790442Y-68860325D01*
X110917260Y-69028259D01*
X111042391Y-69142331D01*
X111072776Y-69170030D01*
X111072778Y-69170032D01*
X111251692Y-69280811D01*
X111251698Y-69280814D01*
X111293268Y-69296918D01*
X111447924Y-69356832D01*
X111654780Y-69395500D01*
X111654782Y-69395500D01*
X111865218Y-69395500D01*
X111865220Y-69395500D01*
X112072076Y-69356832D01*
X112268304Y-69280813D01*
X112447223Y-69170031D01*
X112602740Y-69028259D01*
X112729558Y-68860325D01*
X112823359Y-68671947D01*
X112880948Y-68469542D01*
X112900365Y-68260000D01*
X113159634Y-68260000D01*
X113179051Y-68469537D01*
X113179051Y-68469539D01*
X113179052Y-68469542D01*
X113196159Y-68529666D01*
X113236642Y-68671950D01*
X113323982Y-68847352D01*
X113330442Y-68860325D01*
X113457260Y-69028259D01*
X113582391Y-69142331D01*
X113612776Y-69170030D01*
X113612778Y-69170032D01*
X113791692Y-69280811D01*
X113791698Y-69280814D01*
X113833268Y-69296918D01*
X113987924Y-69356832D01*
X114194780Y-69395500D01*
X114194782Y-69395500D01*
X114405218Y-69395500D01*
X114405220Y-69395500D01*
X114612076Y-69356832D01*
X114808304Y-69280813D01*
X114987223Y-69170031D01*
X115142740Y-69028259D01*
X115269558Y-68860325D01*
X115363359Y-68671947D01*
X115420948Y-68469542D01*
X115440365Y-68260000D01*
X115420948Y-68050458D01*
X115363359Y-67848053D01*
X115269558Y-67659675D01*
X115142740Y-67491741D01*
X114987223Y-67349969D01*
X114987221Y-67349967D01*
X114808307Y-67239188D01*
X114808301Y-67239185D01*
X114645721Y-67176202D01*
X114612076Y-67163168D01*
X114405220Y-67124500D01*
X114194780Y-67124500D01*
X113987924Y-67163168D01*
X113987921Y-67163168D01*
X113987921Y-67163169D01*
X113791698Y-67239185D01*
X113791692Y-67239188D01*
X113612778Y-67349967D01*
X113612776Y-67349969D01*
X113457261Y-67491739D01*
X113330442Y-67659674D01*
X113236642Y-67848049D01*
X113179051Y-68050462D01*
X113159634Y-68259999D01*
X113159634Y-68260000D01*
X112900365Y-68260000D01*
X112880948Y-68050458D01*
X112823359Y-67848053D01*
X112729558Y-67659675D01*
X112602740Y-67491741D01*
X112447223Y-67349969D01*
X112447221Y-67349967D01*
X112268307Y-67239188D01*
X112268301Y-67239185D01*
X112105721Y-67176202D01*
X112072076Y-67163168D01*
X111865220Y-67124500D01*
X111654780Y-67124500D01*
X111447924Y-67163168D01*
X111447921Y-67163168D01*
X111447921Y-67163169D01*
X111251698Y-67239185D01*
X111251692Y-67239188D01*
X111072778Y-67349967D01*
X111072776Y-67349969D01*
X110917261Y-67491739D01*
X110790442Y-67659674D01*
X110696642Y-67848049D01*
X110639051Y-68050462D01*
X110619634Y-68259999D01*
X110619634Y-68260000D01*
X110360365Y-68260000D01*
X110340948Y-68050458D01*
X110283359Y-67848053D01*
X110189558Y-67659675D01*
X110062740Y-67491741D01*
X109907223Y-67349969D01*
X109907221Y-67349967D01*
X109728307Y-67239188D01*
X109728301Y-67239185D01*
X109565721Y-67176202D01*
X109532076Y-67163168D01*
X109325220Y-67124500D01*
X109114780Y-67124500D01*
X108907924Y-67163168D01*
X108907921Y-67163168D01*
X108907921Y-67163169D01*
X108711698Y-67239185D01*
X108711692Y-67239188D01*
X108532778Y-67349967D01*
X108532776Y-67349969D01*
X108377261Y-67491739D01*
X108250442Y-67659674D01*
X108156642Y-67848049D01*
X108099051Y-68050462D01*
X108079634Y-68259999D01*
X108079634Y-68260000D01*
X107820365Y-68260000D01*
X107800948Y-68050458D01*
X107743359Y-67848053D01*
X107649558Y-67659675D01*
X107522740Y-67491741D01*
X107367223Y-67349969D01*
X107367221Y-67349967D01*
X107188307Y-67239188D01*
X107188301Y-67239185D01*
X107025721Y-67176202D01*
X106992076Y-67163168D01*
X106785220Y-67124500D01*
X106574780Y-67124500D01*
X106367924Y-67163168D01*
X106367921Y-67163168D01*
X106367921Y-67163169D01*
X106171698Y-67239185D01*
X106171692Y-67239188D01*
X105992778Y-67349967D01*
X105992776Y-67349969D01*
X105837261Y-67491739D01*
X105710442Y-67659674D01*
X105616642Y-67848049D01*
X105559051Y-68050462D01*
X105539634Y-68259999D01*
X105539634Y-68260000D01*
X105280365Y-68260000D01*
X105260948Y-68050458D01*
X105203359Y-67848053D01*
X105109558Y-67659675D01*
X104982740Y-67491741D01*
X104827223Y-67349969D01*
X104827221Y-67349967D01*
X104648307Y-67239188D01*
X104648301Y-67239185D01*
X104485721Y-67176202D01*
X104452076Y-67163168D01*
X104245220Y-67124500D01*
X104034780Y-67124500D01*
X103827924Y-67163168D01*
X103827921Y-67163168D01*
X103827921Y-67163169D01*
X103631698Y-67239185D01*
X103631692Y-67239188D01*
X103452778Y-67349967D01*
X103452776Y-67349969D01*
X103297261Y-67491739D01*
X103170442Y-67659674D01*
X103076642Y-67848049D01*
X103019051Y-68050462D01*
X102999634Y-68259999D01*
X102999634Y-68260000D01*
X102740365Y-68260000D01*
X102720948Y-68050458D01*
X102663359Y-67848053D01*
X102569558Y-67659675D01*
X102442740Y-67491741D01*
X102287223Y-67349969D01*
X102287221Y-67349967D01*
X102108307Y-67239188D01*
X102108301Y-67239185D01*
X101945721Y-67176202D01*
X101912076Y-67163168D01*
X101705220Y-67124500D01*
X101494780Y-67124500D01*
X101287924Y-67163168D01*
X101287921Y-67163168D01*
X101287921Y-67163169D01*
X101091698Y-67239185D01*
X101091692Y-67239188D01*
X100912778Y-67349967D01*
X100912776Y-67349969D01*
X100757261Y-67491739D01*
X100630442Y-67659674D01*
X100536642Y-67848049D01*
X100479051Y-68050462D01*
X100459634Y-68259999D01*
X100459634Y-68260000D01*
X100200365Y-68260000D01*
X100180948Y-68050458D01*
X100123359Y-67848053D01*
X100122544Y-67846417D01*
X100073500Y-67747921D01*
X100060500Y-67692650D01*
X100060500Y-63965782D01*
X100080185Y-63898743D01*
X100096814Y-63878106D01*
X101978101Y-61996818D01*
X102039425Y-61963334D01*
X102065783Y-61960500D01*
X116374217Y-61960500D01*
X116441256Y-61980185D01*
X116461898Y-61996819D01*
X120194749Y-65729669D01*
X120228234Y-65790992D01*
X120230721Y-65826616D01*
X120214732Y-66039995D01*
X120214732Y-66040004D01*
X120233777Y-66294154D01*
X120233778Y-66294157D01*
X120290492Y-66542637D01*
X120383607Y-66779888D01*
X120511041Y-67000612D01*
X120669950Y-67199877D01*
X120856783Y-67373232D01*
X121067366Y-67516805D01*
X121067371Y-67516807D01*
X121067372Y-67516808D01*
X121067373Y-67516809D01*
X121182220Y-67572116D01*
X121296992Y-67627387D01*
X121296993Y-67627387D01*
X121296996Y-67627389D01*
X121540542Y-67702513D01*
X121792565Y-67740500D01*
X122047435Y-67740500D01*
X122299458Y-67702513D01*
X122543004Y-67627389D01*
X122772634Y-67516805D01*
X122983217Y-67373232D01*
X123170050Y-67199877D01*
X123328959Y-67000612D01*
X123456393Y-66779888D01*
X123549508Y-66542637D01*
X123606222Y-66294157D01*
X123625268Y-66040000D01*
X123606222Y-65785843D01*
X123549508Y-65537363D01*
X123456393Y-65300112D01*
X123328959Y-65079388D01*
X123170050Y-64880123D01*
X122983217Y-64706768D01*
X122772634Y-64563195D01*
X122772630Y-64563193D01*
X122772627Y-64563191D01*
X122772626Y-64563190D01*
X122543006Y-64452612D01*
X122543008Y-64452612D01*
X122299466Y-64377489D01*
X122299462Y-64377488D01*
X122299458Y-64377487D01*
X122178231Y-64359214D01*
X122047440Y-64339500D01*
X122047435Y-64339500D01*
X121792565Y-64339500D01*
X121792557Y-64339500D01*
X121717033Y-64350884D01*
X121647809Y-64341411D01*
X121610871Y-64315950D01*
X117557012Y-60262092D01*
X117555915Y-60260967D01*
X117495061Y-60196949D01*
X117495060Y-60196948D01*
X117495059Y-60196947D01*
X117467204Y-60177559D01*
X117444709Y-60161902D01*
X117440946Y-60159064D01*
X117393413Y-60120305D01*
X117393406Y-60120300D01*
X117362959Y-60104397D01*
X117356251Y-60100334D01*
X117328049Y-60080705D01*
X117328046Y-60080703D01*
X117328045Y-60080703D01*
X117328041Y-60080701D01*
X117271680Y-60056514D01*
X117267424Y-60054493D01*
X117213057Y-60026094D01*
X117213050Y-60026091D01*
X117213049Y-60026091D01*
X117207008Y-60024362D01*
X117180030Y-60016642D01*
X117172630Y-60014008D01*
X117141057Y-60000459D01*
X117141058Y-60000459D01*
X117080966Y-59988109D01*
X117076391Y-59986986D01*
X117017420Y-59970113D01*
X117017425Y-59970113D01*
X116983158Y-59967503D01*
X116975380Y-59966412D01*
X116941742Y-59959500D01*
X116941741Y-59959500D01*
X116880402Y-59959500D01*
X116875695Y-59959321D01*
X116870121Y-59958896D01*
X116814524Y-59954662D01*
X116794589Y-59957201D01*
X116780440Y-59959003D01*
X116772611Y-59959500D01*
X101613452Y-59959500D01*
X101611889Y-59959480D01*
X101554890Y-59958035D01*
X101523638Y-59957244D01*
X101523637Y-59957244D01*
X101523636Y-59957244D01*
X101521891Y-59957556D01*
X101500026Y-59959500D01*
X67476864Y-59959500D01*
X67409825Y-59939815D01*
X67379917Y-59912813D01*
X67290050Y-59800123D01*
X67103217Y-59626768D01*
X66892634Y-59483195D01*
X66892630Y-59483193D01*
X66892627Y-59483191D01*
X66892626Y-59483190D01*
X66663006Y-59372612D01*
X66663008Y-59372612D01*
X66419466Y-59297489D01*
X66419462Y-59297488D01*
X66419458Y-59297487D01*
X66298231Y-59279214D01*
X66167440Y-59259500D01*
X66167435Y-59259500D01*
X65912565Y-59259500D01*
X65912557Y-59259500D01*
X65837032Y-59270884D01*
X65767807Y-59261411D01*
X65730870Y-59235950D01*
X65370576Y-58875656D01*
X64914920Y-58420000D01*
X67624901Y-58420000D01*
X67643252Y-58606331D01*
X67643253Y-58606333D01*
X67697604Y-58785502D01*
X67785862Y-58950623D01*
X67785864Y-58950626D01*
X67904642Y-59095357D01*
X68049373Y-59214135D01*
X68049376Y-59214137D01*
X68214497Y-59302395D01*
X68214499Y-59302396D01*
X68393666Y-59356746D01*
X68393668Y-59356747D01*
X68410374Y-59358392D01*
X68580000Y-59375099D01*
X68766331Y-59356747D01*
X68945501Y-59302396D01*
X69110625Y-59214136D01*
X69170011Y-59165399D01*
X69251349Y-59098647D01*
X69315659Y-59071334D01*
X69330014Y-59070500D01*
X111009986Y-59070500D01*
X111077025Y-59090185D01*
X111088651Y-59098647D01*
X111229373Y-59214135D01*
X111229376Y-59214137D01*
X111394497Y-59302395D01*
X111394499Y-59302396D01*
X111573666Y-59356746D01*
X111573668Y-59356747D01*
X111590374Y-59358392D01*
X111760000Y-59375099D01*
X111946331Y-59356747D01*
X112125501Y-59302396D01*
X112290625Y-59214136D01*
X112435357Y-59095357D01*
X112554136Y-58950625D01*
X112642396Y-58785501D01*
X112696747Y-58606331D01*
X112715099Y-58420000D01*
X112696747Y-58233669D01*
X112642396Y-58054499D01*
X112642395Y-58054497D01*
X112554137Y-57889376D01*
X112554135Y-57889373D01*
X112435357Y-57744642D01*
X112290626Y-57625864D01*
X112290623Y-57625862D01*
X112125502Y-57537604D01*
X111946333Y-57483253D01*
X111946331Y-57483252D01*
X111760000Y-57464901D01*
X111573668Y-57483252D01*
X111573666Y-57483253D01*
X111394497Y-57537604D01*
X111229376Y-57625862D01*
X111229373Y-57625864D01*
X111088651Y-57741353D01*
X111024341Y-57768666D01*
X111009986Y-57769500D01*
X69330014Y-57769500D01*
X69262975Y-57749815D01*
X69251349Y-57741353D01*
X69110626Y-57625864D01*
X69110623Y-57625862D01*
X68945502Y-57537604D01*
X68766333Y-57483253D01*
X68766331Y-57483252D01*
X68580000Y-57464901D01*
X68393668Y-57483252D01*
X68393666Y-57483253D01*
X68214497Y-57537604D01*
X68049376Y-57625862D01*
X68049373Y-57625864D01*
X67904642Y-57744642D01*
X67785864Y-57889373D01*
X67785862Y-57889376D01*
X67697604Y-58054497D01*
X67643253Y-58233666D01*
X67643252Y-58233668D01*
X67624901Y-58420000D01*
X64914920Y-58420000D01*
X64856973Y-58362053D01*
X64855915Y-58360967D01*
X64795061Y-58296949D01*
X64795060Y-58296948D01*
X64795059Y-58296947D01*
X64767204Y-58277559D01*
X64744709Y-58261902D01*
X64740946Y-58259064D01*
X64693413Y-58220305D01*
X64693406Y-58220300D01*
X64662959Y-58204397D01*
X64656251Y-58200334D01*
X64628049Y-58180705D01*
X64628046Y-58180703D01*
X64628045Y-58180703D01*
X64628041Y-58180701D01*
X64571680Y-58156514D01*
X64567424Y-58154493D01*
X64513057Y-58126094D01*
X64513050Y-58126091D01*
X64513049Y-58126091D01*
X64507008Y-58124362D01*
X64480030Y-58116642D01*
X64472630Y-58114008D01*
X64441057Y-58100459D01*
X64441058Y-58100459D01*
X64380966Y-58088109D01*
X64376391Y-58086986D01*
X64317420Y-58070113D01*
X64317425Y-58070113D01*
X64283158Y-58067503D01*
X64275380Y-58066412D01*
X64241742Y-58059500D01*
X64241741Y-58059500D01*
X64180402Y-58059500D01*
X64175695Y-58059321D01*
X64170121Y-58058896D01*
X64114524Y-58054662D01*
X64094589Y-58057201D01*
X64080440Y-58059003D01*
X64072611Y-58059500D01*
X45093493Y-58059500D01*
X45091930Y-58059480D01*
X45003637Y-58057243D01*
X45003628Y-58057243D01*
X44952476Y-58066412D01*
X44943254Y-58068064D01*
X44938595Y-58068718D01*
X44877564Y-58074925D01*
X44877562Y-58074926D01*
X44844780Y-58085210D01*
X44837156Y-58087081D01*
X44834057Y-58087637D01*
X44803349Y-58093141D01*
X44803341Y-58093143D01*
X44746382Y-58115895D01*
X44741946Y-58117474D01*
X44683415Y-58135840D01*
X44683412Y-58135841D01*
X44683410Y-58135842D01*
X44683403Y-58135845D01*
X44653384Y-58152507D01*
X44646290Y-58155876D01*
X44614390Y-58168619D01*
X44614388Y-58168619D01*
X44614383Y-58168622D01*
X44614376Y-58168626D01*
X44614377Y-58168626D01*
X44563154Y-58202383D01*
X44559126Y-58204824D01*
X44505502Y-58234588D01*
X44505499Y-58234590D01*
X44479427Y-58256970D01*
X44473160Y-58261695D01*
X44444482Y-58280598D01*
X44444475Y-58280603D01*
X44401116Y-58323962D01*
X44397661Y-58327164D01*
X44351106Y-58367132D01*
X44351105Y-58367133D01*
X44330076Y-58394300D01*
X44324884Y-58400194D01*
X43489128Y-59235950D01*
X43427805Y-59269435D01*
X43382966Y-59270884D01*
X43307442Y-59259500D01*
X43307435Y-59259500D01*
X43052565Y-59259500D01*
X43052559Y-59259500D01*
X42895609Y-59283157D01*
X42800542Y-59297487D01*
X42800538Y-59297488D01*
X42800539Y-59297488D01*
X42800533Y-59297489D01*
X42556992Y-59372612D01*
X42327373Y-59483190D01*
X42327372Y-59483191D01*
X42116782Y-59626768D01*
X41929952Y-59800121D01*
X41929950Y-59800123D01*
X41840083Y-59912813D01*
X41782894Y-59952953D01*
X41743136Y-59959500D01*
X39097858Y-59959500D01*
X39096295Y-59959480D01*
X39008002Y-59957243D01*
X39007993Y-59957243D01*
X38947625Y-59968064D01*
X38942960Y-59968718D01*
X38881928Y-59974925D01*
X38881920Y-59974927D01*
X38849146Y-59985210D01*
X38841519Y-59987082D01*
X38807715Y-59993141D01*
X38750749Y-60015894D01*
X38746313Y-60017473D01*
X38687779Y-60035840D01*
X38687777Y-60035841D01*
X38657750Y-60052506D01*
X38650658Y-60055874D01*
X38618748Y-60068621D01*
X38567519Y-60102383D01*
X38563491Y-60104824D01*
X38509867Y-60134588D01*
X38509864Y-60134590D01*
X38483792Y-60156970D01*
X38477525Y-60161695D01*
X38448847Y-60180598D01*
X38448840Y-60180603D01*
X38405481Y-60223962D01*
X38402026Y-60227164D01*
X38355471Y-60267132D01*
X38355470Y-60267133D01*
X38334441Y-60294300D01*
X38329249Y-60300194D01*
X29782091Y-68847352D01*
X29780967Y-68848448D01*
X29716946Y-68909307D01*
X29681899Y-68959659D01*
X29679062Y-68963421D01*
X29640302Y-69010957D01*
X29640299Y-69010962D01*
X29624392Y-69041412D01*
X29620324Y-69048126D01*
X29600702Y-69076319D01*
X29576509Y-69132695D01*
X29574488Y-69136949D01*
X29546091Y-69191316D01*
X29546090Y-69191317D01*
X29536640Y-69224340D01*
X29534007Y-69231736D01*
X29520459Y-69263308D01*
X29508113Y-69323384D01*
X29506990Y-69327960D01*
X29490113Y-69386942D01*
X29490113Y-69386944D01*
X29487503Y-69421206D01*
X29486414Y-69428973D01*
X29480980Y-69455417D01*
X29479500Y-69462623D01*
X29479500Y-69523962D01*
X29479321Y-69528671D01*
X29474662Y-69589839D01*
X29475752Y-69598393D01*
X29479003Y-69623925D01*
X29479500Y-69631753D01*
X29479500Y-70159241D01*
X29459815Y-70226280D01*
X29443181Y-70246922D01*
X29441508Y-70248594D01*
X29311269Y-70434595D01*
X29256692Y-70478219D01*
X29187193Y-70485412D01*
X29124839Y-70453890D01*
X29108119Y-70434594D01*
X28978113Y-70248926D01*
X28978108Y-70248920D01*
X28811082Y-70081894D01*
X28617578Y-69946399D01*
X28403492Y-69846570D01*
X28403486Y-69846567D01*
X28190000Y-69789364D01*
X28190000Y-70684498D01*
X28082315Y-70635320D01*
X27975763Y-70620000D01*
X27904237Y-70620000D01*
X27797685Y-70635320D01*
X27690000Y-70684498D01*
X27690000Y-69789364D01*
X27689999Y-69789364D01*
X27476513Y-69846567D01*
X27476507Y-69846570D01*
X27262422Y-69946399D01*
X27262420Y-69946400D01*
X27068926Y-70081886D01*
X27068920Y-70081891D01*
X26901891Y-70248920D01*
X26901890Y-70248922D01*
X26771575Y-70435031D01*
X26716998Y-70478655D01*
X26647499Y-70485848D01*
X26585145Y-70454326D01*
X26568425Y-70435031D01*
X26438109Y-70248922D01*
X26438108Y-70248920D01*
X26271082Y-70081894D01*
X26077578Y-69946399D01*
X25863492Y-69846570D01*
X25863486Y-69846567D01*
X25650000Y-69789364D01*
X25650000Y-70684498D01*
X25542315Y-70635320D01*
X25435763Y-70620000D01*
X25364237Y-70620000D01*
X25257685Y-70635320D01*
X25150000Y-70684498D01*
X25150000Y-69789364D01*
X25149999Y-69789364D01*
X24936513Y-69846567D01*
X24936507Y-69846570D01*
X24722422Y-69946399D01*
X24722420Y-69946400D01*
X24528926Y-70081886D01*
X24406865Y-70203947D01*
X24345542Y-70237431D01*
X24275850Y-70232447D01*
X24219917Y-70190575D01*
X24203002Y-70159598D01*
X24197272Y-70144236D01*
X24174021Y-70081894D01*
X24153797Y-70027671D01*
X24153793Y-70027664D01*
X24067547Y-69912455D01*
X24067544Y-69912452D01*
X23952335Y-69826206D01*
X23952328Y-69826202D01*
X23817482Y-69775908D01*
X23817483Y-69775908D01*
X23757883Y-69769501D01*
X23757881Y-69769500D01*
X23757873Y-69769500D01*
X23757864Y-69769500D01*
X21962129Y-69769500D01*
X21962123Y-69769501D01*
X21902516Y-69775908D01*
X21767671Y-69826202D01*
X21767664Y-69826206D01*
X21652455Y-69912452D01*
X21652452Y-69912455D01*
X21566206Y-70027664D01*
X21566202Y-70027671D01*
X21515908Y-70162517D01*
X21509501Y-70222116D01*
X21509500Y-70222135D01*
X21509500Y-72017870D01*
X20320000Y-72017870D01*
X20320000Y-63500000D01*
X27940000Y-63500000D01*
X27940000Y-55880000D01*
X121920000Y-55880000D01*
X121920000Y-63500000D01*
G37*
%TD.AperFunction*%
%TA.AperFunction,Conductor*%
G36*
X98600507Y-101390156D02*
G01*
X98560000Y-101528111D01*
X98560000Y-101671889D01*
X98600507Y-101809844D01*
X98626314Y-101850000D01*
X96953686Y-101850000D01*
X96979493Y-101809844D01*
X97020000Y-101671889D01*
X97020000Y-101528111D01*
X96979493Y-101390156D01*
X96953686Y-101350000D01*
X98626314Y-101350000D01*
X98600507Y-101390156D01*
G37*
%TD.AperFunction*%
%TA.AperFunction,Conductor*%
G36*
X96770000Y-101164498D02*
G01*
X96662315Y-101115320D01*
X96555763Y-101100000D01*
X96484237Y-101100000D01*
X96377685Y-101115320D01*
X96270000Y-101164498D01*
X96270000Y-99495501D01*
X96377685Y-99544680D01*
X96484237Y-99560000D01*
X96555763Y-99560000D01*
X96662315Y-99544680D01*
X96770000Y-99495501D01*
X96770000Y-101164498D01*
G37*
%TD.AperFunction*%
%TA.AperFunction,Conductor*%
G36*
X42720507Y-98850156D02*
G01*
X42680000Y-98988111D01*
X42680000Y-99131889D01*
X42720507Y-99269844D01*
X42746314Y-99310000D01*
X41073686Y-99310000D01*
X41099493Y-99269844D01*
X41140000Y-99131889D01*
X41140000Y-98988111D01*
X41099493Y-98850156D01*
X41073686Y-98810000D01*
X42746314Y-98810000D01*
X42720507Y-98850156D01*
G37*
%TD.AperFunction*%
%TA.AperFunction,Conductor*%
G36*
X45260507Y-98850156D02*
G01*
X45220000Y-98988111D01*
X45220000Y-99131889D01*
X45260507Y-99269844D01*
X45286314Y-99310000D01*
X43613686Y-99310000D01*
X43639493Y-99269844D01*
X43680000Y-99131889D01*
X43680000Y-98988111D01*
X43639493Y-98850156D01*
X43613686Y-98810000D01*
X45286314Y-98810000D01*
X45260507Y-98850156D01*
G37*
%TD.AperFunction*%
%TA.AperFunction,Conductor*%
G36*
X47800507Y-98850156D02*
G01*
X47760000Y-98988111D01*
X47760000Y-99131889D01*
X47800507Y-99269844D01*
X47826314Y-99310000D01*
X46153686Y-99310000D01*
X46179493Y-99269844D01*
X46220000Y-99131889D01*
X46220000Y-98988111D01*
X46179493Y-98850156D01*
X46153686Y-98810000D01*
X47826314Y-98810000D01*
X47800507Y-98850156D01*
G37*
%TD.AperFunction*%
%TA.AperFunction,Conductor*%
G36*
X50340507Y-98850156D02*
G01*
X50300000Y-98988111D01*
X50300000Y-99131889D01*
X50340507Y-99269844D01*
X50366314Y-99310000D01*
X48693686Y-99310000D01*
X48719493Y-99269844D01*
X48760000Y-99131889D01*
X48760000Y-98988111D01*
X48719493Y-98850156D01*
X48693686Y-98810000D01*
X50366314Y-98810000D01*
X50340507Y-98850156D01*
G37*
%TD.AperFunction*%
%TA.AperFunction,Conductor*%
G36*
X52880507Y-98850156D02*
G01*
X52840000Y-98988111D01*
X52840000Y-99131889D01*
X52880507Y-99269844D01*
X52906314Y-99310000D01*
X51233686Y-99310000D01*
X51259493Y-99269844D01*
X51300000Y-99131889D01*
X51300000Y-98988111D01*
X51259493Y-98850156D01*
X51233686Y-98810000D01*
X52906314Y-98810000D01*
X52880507Y-98850156D01*
G37*
%TD.AperFunction*%
%TA.AperFunction,Conductor*%
G36*
X55420507Y-98850156D02*
G01*
X55380000Y-98988111D01*
X55380000Y-99131889D01*
X55420507Y-99269844D01*
X55446314Y-99310000D01*
X53773686Y-99310000D01*
X53799493Y-99269844D01*
X53840000Y-99131889D01*
X53840000Y-98988111D01*
X53799493Y-98850156D01*
X53773686Y-98810000D01*
X55446314Y-98810000D01*
X55420507Y-98850156D01*
G37*
%TD.AperFunction*%
%TA.AperFunction,Conductor*%
G36*
X57960507Y-98850156D02*
G01*
X57920000Y-98988111D01*
X57920000Y-99131889D01*
X57960507Y-99269844D01*
X57986314Y-99310000D01*
X56313686Y-99310000D01*
X56339493Y-99269844D01*
X56380000Y-99131889D01*
X56380000Y-98988111D01*
X56339493Y-98850156D01*
X56313686Y-98810000D01*
X57986314Y-98810000D01*
X57960507Y-98850156D01*
G37*
%TD.AperFunction*%
%TA.AperFunction,Conductor*%
G36*
X60500507Y-98850156D02*
G01*
X60460000Y-98988111D01*
X60460000Y-99131889D01*
X60500507Y-99269844D01*
X60526314Y-99310000D01*
X58853686Y-99310000D01*
X58879493Y-99269844D01*
X58920000Y-99131889D01*
X58920000Y-98988111D01*
X58879493Y-98850156D01*
X58853686Y-98810000D01*
X60526314Y-98810000D01*
X60500507Y-98850156D01*
G37*
%TD.AperFunction*%
%TA.AperFunction,Conductor*%
G36*
X63040507Y-98850156D02*
G01*
X63000000Y-98988111D01*
X63000000Y-99131889D01*
X63040507Y-99269844D01*
X63066314Y-99310000D01*
X61393686Y-99310000D01*
X61419493Y-99269844D01*
X61460000Y-99131889D01*
X61460000Y-98988111D01*
X61419493Y-98850156D01*
X61393686Y-98810000D01*
X63066314Y-98810000D01*
X63040507Y-98850156D01*
G37*
%TD.AperFunction*%
%TA.AperFunction,Conductor*%
G36*
X65580507Y-98850156D02*
G01*
X65540000Y-98988111D01*
X65540000Y-99131889D01*
X65580507Y-99269844D01*
X65606314Y-99310000D01*
X63933686Y-99310000D01*
X63959493Y-99269844D01*
X64000000Y-99131889D01*
X64000000Y-98988111D01*
X63959493Y-98850156D01*
X63933686Y-98810000D01*
X65606314Y-98810000D01*
X65580507Y-98850156D01*
G37*
%TD.AperFunction*%
%TA.AperFunction,Conductor*%
G36*
X68120507Y-98850156D02*
G01*
X68080000Y-98988111D01*
X68080000Y-99131889D01*
X68120507Y-99269844D01*
X68146314Y-99310000D01*
X66473686Y-99310000D01*
X66499493Y-99269844D01*
X66540000Y-99131889D01*
X66540000Y-98988111D01*
X66499493Y-98850156D01*
X66473686Y-98810000D01*
X68146314Y-98810000D01*
X68120507Y-98850156D01*
G37*
%TD.AperFunction*%
%TA.AperFunction,Conductor*%
G36*
X70660507Y-98850156D02*
G01*
X70620000Y-98988111D01*
X70620000Y-99131889D01*
X70660507Y-99269844D01*
X70686314Y-99310000D01*
X69013686Y-99310000D01*
X69039493Y-99269844D01*
X69080000Y-99131889D01*
X69080000Y-98988111D01*
X69039493Y-98850156D01*
X69013686Y-98810000D01*
X70686314Y-98810000D01*
X70660507Y-98850156D01*
G37*
%TD.AperFunction*%
%TA.AperFunction,Conductor*%
G36*
X73200507Y-98850156D02*
G01*
X73160000Y-98988111D01*
X73160000Y-99131889D01*
X73200507Y-99269844D01*
X73226314Y-99310000D01*
X71553686Y-99310000D01*
X71579493Y-99269844D01*
X71620000Y-99131889D01*
X71620000Y-98988111D01*
X71579493Y-98850156D01*
X71553686Y-98810000D01*
X73226314Y-98810000D01*
X73200507Y-98850156D01*
G37*
%TD.AperFunction*%
%TA.AperFunction,Conductor*%
G36*
X75740507Y-98850156D02*
G01*
X75700000Y-98988111D01*
X75700000Y-99131889D01*
X75740507Y-99269844D01*
X75766314Y-99310000D01*
X74093686Y-99310000D01*
X74119493Y-99269844D01*
X74160000Y-99131889D01*
X74160000Y-98988111D01*
X74119493Y-98850156D01*
X74093686Y-98810000D01*
X75766314Y-98810000D01*
X75740507Y-98850156D01*
G37*
%TD.AperFunction*%
%TA.AperFunction,Conductor*%
G36*
X78280507Y-98850156D02*
G01*
X78240000Y-98988111D01*
X78240000Y-99131889D01*
X78280507Y-99269844D01*
X78306314Y-99310000D01*
X76633686Y-99310000D01*
X76659493Y-99269844D01*
X76700000Y-99131889D01*
X76700000Y-98988111D01*
X76659493Y-98850156D01*
X76633686Y-98810000D01*
X78306314Y-98810000D01*
X78280507Y-98850156D01*
G37*
%TD.AperFunction*%
%TA.AperFunction,Conductor*%
G36*
X80820507Y-98850156D02*
G01*
X80780000Y-98988111D01*
X80780000Y-99131889D01*
X80820507Y-99269844D01*
X80846314Y-99310000D01*
X79173686Y-99310000D01*
X79199493Y-99269844D01*
X79240000Y-99131889D01*
X79240000Y-98988111D01*
X79199493Y-98850156D01*
X79173686Y-98810000D01*
X80846314Y-98810000D01*
X80820507Y-98850156D01*
G37*
%TD.AperFunction*%
%TA.AperFunction,Conductor*%
G36*
X27480507Y-96310156D02*
G01*
X27440000Y-96448111D01*
X27440000Y-96591889D01*
X27480507Y-96729844D01*
X27506314Y-96770000D01*
X25833686Y-96770000D01*
X25859493Y-96729844D01*
X25900000Y-96591889D01*
X25900000Y-96448111D01*
X25859493Y-96310156D01*
X25833686Y-96270000D01*
X27506314Y-96270000D01*
X27480507Y-96310156D01*
G37*
%TD.AperFunction*%
%TA.AperFunction,Conductor*%
G36*
X95113039Y-90770185D02*
G01*
X95158794Y-90822989D01*
X95170000Y-90874500D01*
X95170000Y-91190000D01*
X96086314Y-91190000D01*
X96060507Y-91230156D01*
X96020000Y-91368111D01*
X96020000Y-91511889D01*
X96060507Y-91649844D01*
X96086314Y-91690000D01*
X95170000Y-91690000D01*
X95170000Y-91865500D01*
X95150315Y-91932539D01*
X95097511Y-91978294D01*
X95046000Y-91989500D01*
X82692503Y-91989500D01*
X82625464Y-91969815D01*
X82579709Y-91917011D01*
X82569765Y-91847853D01*
X82572728Y-91833407D01*
X82582195Y-91798072D01*
X82615063Y-91675408D01*
X82635659Y-91440000D01*
X82615063Y-91204592D01*
X82553903Y-90976337D01*
X82530851Y-90926904D01*
X82520360Y-90857828D01*
X82548879Y-90794044D01*
X82607356Y-90755804D01*
X82643234Y-90750500D01*
X95046000Y-90750500D01*
X95113039Y-90770185D01*
G37*
%TD.AperFunction*%
%TA.AperFunction,Conductor*%
G36*
X97101630Y-91209685D02*
G01*
X97147385Y-91262489D01*
X97158591Y-91314000D01*
X97158591Y-91566000D01*
X97138906Y-91633039D01*
X97086102Y-91678794D01*
X97034591Y-91690000D01*
X96953686Y-91690000D01*
X96979493Y-91649844D01*
X97020000Y-91511889D01*
X97020000Y-91368111D01*
X96979493Y-91230156D01*
X96953686Y-91190000D01*
X97034591Y-91190000D01*
X97101630Y-91209685D01*
G37*
%TD.AperFunction*%
%TA.AperFunction,Conductor*%
G36*
X98600507Y-91230156D02*
G01*
X98560000Y-91368111D01*
X98560000Y-91511889D01*
X98600507Y-91649844D01*
X98626314Y-91690000D01*
X98583591Y-91690000D01*
X98516552Y-91670315D01*
X98470797Y-91617511D01*
X98459591Y-91566000D01*
X98459591Y-91314000D01*
X98479276Y-91246961D01*
X98532080Y-91201206D01*
X98583591Y-91190000D01*
X98626314Y-91190000D01*
X98600507Y-91230156D01*
G37*
%TD.AperFunction*%
%TA.AperFunction,Conductor*%
G36*
X96713039Y-90770185D02*
G01*
X96758794Y-90822989D01*
X96770000Y-90874500D01*
X96770000Y-91004498D01*
X96662315Y-90955320D01*
X96555763Y-90940000D01*
X96484237Y-90940000D01*
X96377685Y-90955320D01*
X96270000Y-91004498D01*
X96270000Y-90874500D01*
X96289685Y-90807461D01*
X96342489Y-90761706D01*
X96394000Y-90750500D01*
X96646000Y-90750500D01*
X96713039Y-90770185D01*
G37*
%TD.AperFunction*%
%TA.AperFunction,Conductor*%
G36*
X95175054Y-88370185D02*
G01*
X95220809Y-88422989D01*
X95230753Y-88492147D01*
X95227790Y-88506594D01*
X95189364Y-88649999D01*
X95189364Y-88650000D01*
X96086314Y-88650000D01*
X96060507Y-88690156D01*
X96020000Y-88828111D01*
X96020000Y-88971889D01*
X96060507Y-89109844D01*
X96086314Y-89150000D01*
X95189364Y-89150000D01*
X95227790Y-89293406D01*
X95226127Y-89363256D01*
X95186965Y-89421119D01*
X95122736Y-89448623D01*
X95108015Y-89449500D01*
X82754000Y-89449500D01*
X82686961Y-89429815D01*
X82641206Y-89377011D01*
X82630000Y-89325500D01*
X82630000Y-89150000D01*
X81713686Y-89150000D01*
X81739493Y-89109844D01*
X81780000Y-88971889D01*
X81780000Y-88828111D01*
X81739493Y-88690156D01*
X81713686Y-88650000D01*
X82630000Y-88650000D01*
X82630000Y-88474500D01*
X82649685Y-88407461D01*
X82702489Y-88361706D01*
X82754000Y-88350500D01*
X95108015Y-88350500D01*
X95175054Y-88370185D01*
G37*
%TD.AperFunction*%
%TA.AperFunction,Conductor*%
G36*
X96377685Y-89384680D02*
G01*
X96484237Y-89400000D01*
X96555763Y-89400000D01*
X96662315Y-89384680D01*
X96766608Y-89337050D01*
X96750315Y-89392539D01*
X96697511Y-89438294D01*
X96646000Y-89449500D01*
X96394000Y-89449500D01*
X96326961Y-89429815D01*
X96281206Y-89377011D01*
X96272415Y-89336604D01*
X96377685Y-89384680D01*
G37*
%TD.AperFunction*%
%TA.AperFunction,Conductor*%
G36*
X42720507Y-88690156D02*
G01*
X42680000Y-88828111D01*
X42680000Y-88971889D01*
X42720507Y-89109844D01*
X42746314Y-89150000D01*
X41073686Y-89150000D01*
X41099493Y-89109844D01*
X41140000Y-88971889D01*
X41140000Y-88828111D01*
X41099493Y-88690156D01*
X41073686Y-88650000D01*
X42746314Y-88650000D01*
X42720507Y-88690156D01*
G37*
%TD.AperFunction*%
%TA.AperFunction,Conductor*%
G36*
X45260507Y-88690156D02*
G01*
X45220000Y-88828111D01*
X45220000Y-88971889D01*
X45260507Y-89109844D01*
X45286314Y-89150000D01*
X43613686Y-89150000D01*
X43639493Y-89109844D01*
X43680000Y-88971889D01*
X43680000Y-88828111D01*
X43639493Y-88690156D01*
X43613686Y-88650000D01*
X45286314Y-88650000D01*
X45260507Y-88690156D01*
G37*
%TD.AperFunction*%
%TA.AperFunction,Conductor*%
G36*
X47800507Y-88690156D02*
G01*
X47760000Y-88828111D01*
X47760000Y-88971889D01*
X47800507Y-89109844D01*
X47826314Y-89150000D01*
X46153686Y-89150000D01*
X46179493Y-89109844D01*
X46220000Y-88971889D01*
X46220000Y-88828111D01*
X46179493Y-88690156D01*
X46153686Y-88650000D01*
X47826314Y-88650000D01*
X47800507Y-88690156D01*
G37*
%TD.AperFunction*%
%TA.AperFunction,Conductor*%
G36*
X50340507Y-88690156D02*
G01*
X50300000Y-88828111D01*
X50300000Y-88971889D01*
X50340507Y-89109844D01*
X50366314Y-89150000D01*
X48693686Y-89150000D01*
X48719493Y-89109844D01*
X48760000Y-88971889D01*
X48760000Y-88828111D01*
X48719493Y-88690156D01*
X48693686Y-88650000D01*
X50366314Y-88650000D01*
X50340507Y-88690156D01*
G37*
%TD.AperFunction*%
%TA.AperFunction,Conductor*%
G36*
X52880507Y-88690156D02*
G01*
X52840000Y-88828111D01*
X52840000Y-88971889D01*
X52880507Y-89109844D01*
X52906314Y-89150000D01*
X51233686Y-89150000D01*
X51259493Y-89109844D01*
X51300000Y-88971889D01*
X51300000Y-88828111D01*
X51259493Y-88690156D01*
X51233686Y-88650000D01*
X52906314Y-88650000D01*
X52880507Y-88690156D01*
G37*
%TD.AperFunction*%
%TA.AperFunction,Conductor*%
G36*
X55420507Y-88690156D02*
G01*
X55380000Y-88828111D01*
X55380000Y-88971889D01*
X55420507Y-89109844D01*
X55446314Y-89150000D01*
X53773686Y-89150000D01*
X53799493Y-89109844D01*
X53840000Y-88971889D01*
X53840000Y-88828111D01*
X53799493Y-88690156D01*
X53773686Y-88650000D01*
X55446314Y-88650000D01*
X55420507Y-88690156D01*
G37*
%TD.AperFunction*%
%TA.AperFunction,Conductor*%
G36*
X57960507Y-88690156D02*
G01*
X57920000Y-88828111D01*
X57920000Y-88971889D01*
X57960507Y-89109844D01*
X57986314Y-89150000D01*
X56313686Y-89150000D01*
X56339493Y-89109844D01*
X56380000Y-88971889D01*
X56380000Y-88828111D01*
X56339493Y-88690156D01*
X56313686Y-88650000D01*
X57986314Y-88650000D01*
X57960507Y-88690156D01*
G37*
%TD.AperFunction*%
%TA.AperFunction,Conductor*%
G36*
X60500507Y-88690156D02*
G01*
X60460000Y-88828111D01*
X60460000Y-88971889D01*
X60500507Y-89109844D01*
X60526314Y-89150000D01*
X58853686Y-89150000D01*
X58879493Y-89109844D01*
X58920000Y-88971889D01*
X58920000Y-88828111D01*
X58879493Y-88690156D01*
X58853686Y-88650000D01*
X60526314Y-88650000D01*
X60500507Y-88690156D01*
G37*
%TD.AperFunction*%
%TA.AperFunction,Conductor*%
G36*
X63040507Y-88690156D02*
G01*
X63000000Y-88828111D01*
X63000000Y-88971889D01*
X63040507Y-89109844D01*
X63066314Y-89150000D01*
X61393686Y-89150000D01*
X61419493Y-89109844D01*
X61460000Y-88971889D01*
X61460000Y-88828111D01*
X61419493Y-88690156D01*
X61393686Y-88650000D01*
X63066314Y-88650000D01*
X63040507Y-88690156D01*
G37*
%TD.AperFunction*%
%TA.AperFunction,Conductor*%
G36*
X65580507Y-88690156D02*
G01*
X65540000Y-88828111D01*
X65540000Y-88971889D01*
X65580507Y-89109844D01*
X65606314Y-89150000D01*
X63933686Y-89150000D01*
X63959493Y-89109844D01*
X64000000Y-88971889D01*
X64000000Y-88828111D01*
X63959493Y-88690156D01*
X63933686Y-88650000D01*
X65606314Y-88650000D01*
X65580507Y-88690156D01*
G37*
%TD.AperFunction*%
%TA.AperFunction,Conductor*%
G36*
X68120507Y-88690156D02*
G01*
X68080000Y-88828111D01*
X68080000Y-88971889D01*
X68120507Y-89109844D01*
X68146314Y-89150000D01*
X66473686Y-89150000D01*
X66499493Y-89109844D01*
X66540000Y-88971889D01*
X66540000Y-88828111D01*
X66499493Y-88690156D01*
X66473686Y-88650000D01*
X68146314Y-88650000D01*
X68120507Y-88690156D01*
G37*
%TD.AperFunction*%
%TA.AperFunction,Conductor*%
G36*
X70660507Y-88690156D02*
G01*
X70620000Y-88828111D01*
X70620000Y-88971889D01*
X70660507Y-89109844D01*
X70686314Y-89150000D01*
X69013686Y-89150000D01*
X69039493Y-89109844D01*
X69080000Y-88971889D01*
X69080000Y-88828111D01*
X69039493Y-88690156D01*
X69013686Y-88650000D01*
X70686314Y-88650000D01*
X70660507Y-88690156D01*
G37*
%TD.AperFunction*%
%TA.AperFunction,Conductor*%
G36*
X73200507Y-88690156D02*
G01*
X73160000Y-88828111D01*
X73160000Y-88971889D01*
X73200507Y-89109844D01*
X73226314Y-89150000D01*
X71553686Y-89150000D01*
X71579493Y-89109844D01*
X71620000Y-88971889D01*
X71620000Y-88828111D01*
X71579493Y-88690156D01*
X71553686Y-88650000D01*
X73226314Y-88650000D01*
X73200507Y-88690156D01*
G37*
%TD.AperFunction*%
%TA.AperFunction,Conductor*%
G36*
X75740507Y-88690156D02*
G01*
X75700000Y-88828111D01*
X75700000Y-88971889D01*
X75740507Y-89109844D01*
X75766314Y-89150000D01*
X74093686Y-89150000D01*
X74119493Y-89109844D01*
X74160000Y-88971889D01*
X74160000Y-88828111D01*
X74119493Y-88690156D01*
X74093686Y-88650000D01*
X75766314Y-88650000D01*
X75740507Y-88690156D01*
G37*
%TD.AperFunction*%
%TA.AperFunction,Conductor*%
G36*
X78280507Y-88690156D02*
G01*
X78240000Y-88828111D01*
X78240000Y-88971889D01*
X78280507Y-89109844D01*
X78306314Y-89150000D01*
X76633686Y-89150000D01*
X76659493Y-89109844D01*
X76700000Y-88971889D01*
X76700000Y-88828111D01*
X76659493Y-88690156D01*
X76633686Y-88650000D01*
X78306314Y-88650000D01*
X78280507Y-88690156D01*
G37*
%TD.AperFunction*%
%TA.AperFunction,Conductor*%
G36*
X80820507Y-88690156D02*
G01*
X80780000Y-88828111D01*
X80780000Y-88971889D01*
X80820507Y-89109844D01*
X80846314Y-89150000D01*
X79173686Y-89150000D01*
X79199493Y-89109844D01*
X79240000Y-88971889D01*
X79240000Y-88828111D01*
X79199493Y-88690156D01*
X79173686Y-88650000D01*
X80846314Y-88650000D01*
X80820507Y-88690156D01*
G37*
%TD.AperFunction*%
%TA.AperFunction,Conductor*%
G36*
X74526659Y-79243767D02*
G01*
X74582592Y-79285639D01*
X74598753Y-79314646D01*
X74636250Y-79410185D01*
X74663607Y-79479888D01*
X74791041Y-79700612D01*
X74949950Y-79899877D01*
X75136783Y-80073232D01*
X75347366Y-80216805D01*
X75347371Y-80216807D01*
X75347372Y-80216808D01*
X75347373Y-80216809D01*
X75454284Y-80268294D01*
X75576992Y-80327387D01*
X75576993Y-80327387D01*
X75576996Y-80327389D01*
X75820542Y-80402513D01*
X76072565Y-80440500D01*
X76327435Y-80440500D01*
X76579458Y-80402513D01*
X76785573Y-80338934D01*
X76855431Y-80337985D01*
X76909799Y-80369745D01*
X80759564Y-84219510D01*
X80769635Y-84232080D01*
X80769822Y-84231926D01*
X80774795Y-84237937D01*
X80826542Y-84286531D01*
X80827909Y-84287855D01*
X80848965Y-84308911D01*
X80848968Y-84308913D01*
X80854757Y-84313405D01*
X80859197Y-84317197D01*
X80894607Y-84350448D01*
X80913202Y-84360670D01*
X80929460Y-84371350D01*
X80946236Y-84384363D01*
X80990830Y-84403660D01*
X80996057Y-84406221D01*
X81038632Y-84429627D01*
X81059191Y-84434905D01*
X81077598Y-84441207D01*
X81097074Y-84449636D01*
X81131392Y-84455071D01*
X81145054Y-84457235D01*
X81150764Y-84458417D01*
X81197823Y-84470500D01*
X81219045Y-84470500D01*
X81238442Y-84472026D01*
X81259405Y-84475347D01*
X81304104Y-84471121D01*
X81307770Y-84470775D01*
X81313608Y-84470500D01*
X109584125Y-84470500D01*
X109651164Y-84490185D01*
X109696919Y-84542989D01*
X109706863Y-84612147D01*
X109677838Y-84675703D01*
X109620123Y-84713159D01*
X109533662Y-84739387D01*
X109519053Y-84743819D01*
X109353937Y-84832075D01*
X109353934Y-84832077D01*
X109232968Y-84931353D01*
X109168658Y-84958666D01*
X109154303Y-84959500D01*
X104759445Y-84959500D01*
X104720363Y-84952043D01*
X104720294Y-84952313D01*
X104716012Y-84951213D01*
X104713792Y-84950790D01*
X104712739Y-84950373D01*
X104692172Y-84945092D01*
X104673767Y-84938790D01*
X104654298Y-84930365D01*
X104654292Y-84930363D01*
X104606322Y-84922766D01*
X104600607Y-84921582D01*
X104584143Y-84917355D01*
X104553551Y-84909500D01*
X104553548Y-84909500D01*
X104532326Y-84909500D01*
X104512926Y-84907973D01*
X104491967Y-84904653D01*
X104491966Y-84904653D01*
X104468157Y-84906903D01*
X104443601Y-84909225D01*
X104437763Y-84909500D01*
X103894135Y-84909500D01*
X103878124Y-84907732D01*
X103878102Y-84907974D01*
X103870334Y-84907239D01*
X103799379Y-84909469D01*
X103797432Y-84909500D01*
X103767704Y-84909500D01*
X103767700Y-84909500D01*
X103767689Y-84909501D01*
X103760433Y-84910417D01*
X103754615Y-84910875D01*
X103706062Y-84912401D01*
X103691502Y-84916630D01*
X103685669Y-84918325D01*
X103666625Y-84922269D01*
X103645571Y-84924929D01*
X103645569Y-84924929D01*
X103600410Y-84942808D01*
X103594885Y-84944699D01*
X103560897Y-84954575D01*
X103526298Y-84959500D01*
X56233883Y-84959500D01*
X56166844Y-84939815D01*
X56121089Y-84887011D01*
X56111145Y-84817853D01*
X56140170Y-84754297D01*
X56197887Y-84716840D01*
X56213852Y-84711996D01*
X56245501Y-84702396D01*
X56410625Y-84614136D01*
X56479501Y-84557611D01*
X56551349Y-84498647D01*
X56615659Y-84471334D01*
X56630014Y-84470500D01*
X68842463Y-84470500D01*
X68858473Y-84472267D01*
X68858496Y-84472026D01*
X68866262Y-84472760D01*
X68866263Y-84472759D01*
X68866264Y-84472760D01*
X68873239Y-84472540D01*
X68937203Y-84470531D01*
X68939151Y-84470500D01*
X68968893Y-84470500D01*
X68976158Y-84469581D01*
X68981984Y-84469122D01*
X69030537Y-84467597D01*
X69050924Y-84461673D01*
X69069964Y-84457731D01*
X69091026Y-84455071D01*
X69136203Y-84437183D01*
X69141703Y-84435300D01*
X69188366Y-84421744D01*
X69206633Y-84410939D01*
X69224104Y-84402380D01*
X69243839Y-84394568D01*
X69283145Y-84366010D01*
X69288011Y-84362813D01*
X69329833Y-84338081D01*
X69344838Y-84323075D01*
X69359636Y-84310436D01*
X69376805Y-84297963D01*
X69407777Y-84260522D01*
X69411691Y-84256221D01*
X74395646Y-79272266D01*
X74456967Y-79238783D01*
X74526659Y-79243767D01*
G37*
%TD.AperFunction*%
%TA.AperFunction,Conductor*%
G36*
X55708098Y-77328121D02*
G01*
X55774317Y-77340500D01*
X55774319Y-77340500D01*
X55985682Y-77340500D01*
X55985683Y-77340500D01*
X56018212Y-77334419D01*
X56087728Y-77341449D01*
X56128680Y-77368626D01*
X57899564Y-79139510D01*
X57909635Y-79152080D01*
X57909822Y-79151926D01*
X57914795Y-79157937D01*
X57966542Y-79206531D01*
X57967909Y-79207855D01*
X57988965Y-79228911D01*
X57988968Y-79228913D01*
X57994757Y-79233405D01*
X57999197Y-79237197D01*
X58006194Y-79243767D01*
X58034607Y-79270448D01*
X58034925Y-79270623D01*
X58053205Y-79280672D01*
X58069470Y-79291357D01*
X58086232Y-79304360D01*
X58086235Y-79304361D01*
X58086236Y-79304362D01*
X58130823Y-79323656D01*
X58136059Y-79326221D01*
X58178632Y-79349627D01*
X58194340Y-79353659D01*
X58199186Y-79354904D01*
X58217598Y-79361207D01*
X58237073Y-79369635D01*
X58276033Y-79375805D01*
X58285046Y-79377233D01*
X58290756Y-79378415D01*
X58337823Y-79390500D01*
X58359050Y-79390500D01*
X58378447Y-79392026D01*
X58399404Y-79395346D01*
X58447761Y-79390774D01*
X58453598Y-79390500D01*
X70369986Y-79390500D01*
X70437025Y-79410185D01*
X70448651Y-79418647D01*
X70589373Y-79534135D01*
X70589376Y-79534137D01*
X70745320Y-79617490D01*
X70754499Y-79622396D01*
X70933666Y-79676746D01*
X70933668Y-79676747D01*
X71120000Y-79695099D01*
X71126092Y-79695099D01*
X71126092Y-79697913D01*
X71182847Y-79708604D01*
X71233617Y-79756606D01*
X71250376Y-79824436D01*
X71227803Y-79890559D01*
X71214174Y-79906740D01*
X69746740Y-81374174D01*
X69685417Y-81407659D01*
X69615725Y-81402675D01*
X69559792Y-81360803D01*
X69535375Y-81295339D01*
X69535504Y-81286092D01*
X69535099Y-81286092D01*
X69535099Y-81280000D01*
X69516747Y-81093668D01*
X69516746Y-81093666D01*
X69497433Y-81030000D01*
X69462396Y-80914499D01*
X69389096Y-80777363D01*
X69374137Y-80749376D01*
X69374135Y-80749373D01*
X69255357Y-80604642D01*
X69110626Y-80485864D01*
X69110623Y-80485862D01*
X68945502Y-80397604D01*
X68766333Y-80343253D01*
X68766331Y-80343252D01*
X68580000Y-80324901D01*
X68393668Y-80343252D01*
X68393666Y-80343253D01*
X68214497Y-80397604D01*
X68049376Y-80485862D01*
X68049373Y-80485864D01*
X67908651Y-80601353D01*
X67844341Y-80628666D01*
X67829986Y-80629500D01*
X58740808Y-80629500D01*
X58673769Y-80609815D01*
X58653127Y-80593181D01*
X55597638Y-77537692D01*
X55564153Y-77476369D01*
X55569137Y-77406677D01*
X55611009Y-77350744D01*
X55676473Y-77326327D01*
X55708098Y-77328121D01*
G37*
%TD.AperFunction*%
%TD*%
%TA.AperFunction,Conductor*%
%TO.N,GND*%
G36*
X27943346Y-100797461D02*
G01*
X27940000Y-106680000D01*
X20444000Y-106680000D01*
X20376961Y-106660315D01*
X20331206Y-106607511D01*
X20320000Y-106556000D01*
X20320000Y-99060000D01*
X27943346Y-100797461D01*
G37*
%TD.AperFunction*%
%TD*%
%TA.AperFunction,Conductor*%
%TO.N,GND*%
G36*
X27940000Y-63500000D02*
G01*
X20320000Y-63500000D01*
X20320000Y-56004000D01*
X20339685Y-55936961D01*
X20392489Y-55891206D01*
X20444000Y-55880000D01*
X27940000Y-55880000D01*
X27940000Y-63500000D01*
G37*
%TD.AperFunction*%
%TD*%
%TA.AperFunction,Conductor*%
%TO.N,GND*%
G36*
X129483039Y-55899685D02*
G01*
X129528794Y-55952489D01*
X129540000Y-56004000D01*
X129540000Y-63500000D01*
X121920000Y-63500000D01*
X121920000Y-55880000D01*
X129416000Y-55880000D01*
X129483039Y-55899685D01*
G37*
%TD.AperFunction*%
%TD*%
%TA.AperFunction,Conductor*%
%TO.N,GND*%
G36*
X129540000Y-106556000D02*
G01*
X129520315Y-106623039D01*
X129467511Y-106668794D01*
X129416000Y-106680000D01*
X121920000Y-106680000D01*
X121920000Y-99060000D01*
X129540000Y-99060000D01*
X129540000Y-106556000D01*
G37*
%TD.AperFunction*%
%TD*%
M02*
