%TF.GenerationSoftware,KiCad,Pcbnew,7.0.5-0*%
%TF.CreationDate,2023-06-05T22:28:17-07:00*%
%TF.ProjectId,PCTGotekAdapter,50435447-6f74-4656-9b41-646170746572,A*%
%TF.SameCoordinates,Original*%
%TF.FileFunction,Drillmap*%
%TF.FilePolarity,Positive*%
%FSLAX45Y45*%
G04 Gerber Fmt 4.5, Leading zero omitted, Abs format (unit mm)*
G04 Created by KiCad (PCBNEW 7.0.5-0) date 2023-06-05 22:28:17*
%MOMM*%
%LPD*%
G01*
G04 APERTURE LIST*
%ADD10C,0.150000*%
%ADD11C,0.200000*%
%ADD12C,0.040000*%
%ADD13C,0.050000*%
%ADD14C,0.077000*%
%ADD15C,0.078000*%
%ADD16C,0.080000*%
%ADD17C,0.100000*%
%ADD18C,0.120000*%
%ADD19C,0.320000*%
G04 APERTURE END LIST*
D10*
X1778000Y-5334000D02*
X13208000Y-5334000D01*
X13208000Y-10922000D01*
X1778000Y-10922000D01*
X1778000Y-5334000D01*
D11*
D12*
X2266000Y-7854000D02*
X2306000Y-7894000D01*
X2306000Y-7854000D02*
X2266000Y-7894000D01*
X2774000Y-8616000D02*
X2814000Y-8656000D01*
X2814000Y-8616000D02*
X2774000Y-8656000D01*
X3028000Y-8108000D02*
X3068000Y-8148000D01*
X3068000Y-8108000D02*
X3028000Y-8148000D01*
X3790000Y-8108000D02*
X3830000Y-8148000D01*
X3830000Y-8108000D02*
X3790000Y-8148000D01*
X4806000Y-8616000D02*
X4846000Y-8656000D01*
X4846000Y-8616000D02*
X4806000Y-8656000D01*
X5060000Y-8362000D02*
X5100000Y-8402000D01*
X5100000Y-8362000D02*
X5060000Y-8402000D01*
X5568000Y-8362000D02*
X5608000Y-8402000D01*
X5608000Y-8362000D02*
X5568000Y-8402000D01*
X5822000Y-7092000D02*
X5862000Y-7132000D01*
X5862000Y-7092000D02*
X5822000Y-7132000D01*
X5822000Y-10394000D02*
X5862000Y-10434000D01*
X5862000Y-10394000D02*
X5822000Y-10434000D01*
X6076000Y-7346000D02*
X6116000Y-7386000D01*
X6116000Y-7346000D02*
X6076000Y-7386000D01*
X6323690Y-7983347D02*
X6363690Y-8023347D01*
X6363690Y-7983347D02*
X6323690Y-8023347D01*
X6838000Y-5822000D02*
X6878000Y-5862000D01*
X6878000Y-5822000D02*
X6838000Y-5862000D01*
X6838000Y-7346000D02*
X6878000Y-7386000D01*
X6878000Y-7346000D02*
X6838000Y-7386000D01*
X6838000Y-8108000D02*
X6878000Y-8148000D01*
X6878000Y-8108000D02*
X6838000Y-8148000D01*
X6893436Y-7061908D02*
X6933436Y-7101908D01*
X6933436Y-7061908D02*
X6893436Y-7101908D01*
X7092000Y-7854000D02*
X7132000Y-7894000D01*
X7132000Y-7854000D02*
X7092000Y-7894000D01*
X7346000Y-6330000D02*
X7386000Y-6370000D01*
X7386000Y-6330000D02*
X7346000Y-6370000D01*
X7854000Y-8362000D02*
X7894000Y-8402000D01*
X7894000Y-8362000D02*
X7854000Y-8402000D01*
X8362000Y-7854000D02*
X8402000Y-7894000D01*
X8402000Y-7854000D02*
X8362000Y-7894000D01*
X8761533Y-10205396D02*
X8801533Y-10245396D01*
X8801533Y-10205396D02*
X8761533Y-10245396D01*
X9124000Y-6330000D02*
X9164000Y-6370000D01*
X9164000Y-6330000D02*
X9124000Y-6370000D01*
X9378000Y-9378000D02*
X9418000Y-9418000D01*
X9418000Y-9378000D02*
X9378000Y-9418000D01*
X9461206Y-6921206D02*
X9501206Y-6961206D01*
X9501206Y-6921206D02*
X9461206Y-6961206D01*
X9632000Y-7854000D02*
X9672000Y-7894000D01*
X9672000Y-7854000D02*
X9632000Y-7894000D01*
X10140000Y-7854000D02*
X10180000Y-7894000D01*
X10180000Y-7854000D02*
X10140000Y-7894000D01*
X10140000Y-9378000D02*
X10180000Y-9418000D01*
X10180000Y-9378000D02*
X10140000Y-9418000D01*
X10394000Y-8616000D02*
X10434000Y-8656000D01*
X10434000Y-8616000D02*
X10394000Y-8656000D01*
X10394000Y-9632000D02*
X10434000Y-9672000D01*
X10434000Y-9632000D02*
X10394000Y-9672000D01*
X10480397Y-7226882D02*
X10520397Y-7266882D01*
X10520397Y-7226882D02*
X10480397Y-7266882D01*
X10648000Y-8108000D02*
X10688000Y-8148000D01*
X10688000Y-8108000D02*
X10648000Y-8148000D01*
X10650187Y-9490441D02*
X10690187Y-9530441D01*
X10690187Y-9490441D02*
X10650187Y-9530441D01*
X10869977Y-7150063D02*
X10909977Y-7190063D01*
X10909977Y-7150063D02*
X10869977Y-7190063D01*
X10902000Y-7854000D02*
X10942000Y-7894000D01*
X10942000Y-7854000D02*
X10902000Y-7894000D01*
X10902000Y-10394000D02*
X10942000Y-10434000D01*
X10942000Y-10394000D02*
X10902000Y-10434000D01*
X10968456Y-8542621D02*
X11008456Y-8582621D01*
X11008456Y-8542621D02*
X10968456Y-8582621D01*
X11156000Y-5822000D02*
X11196000Y-5862000D01*
X11196000Y-5822000D02*
X11156000Y-5862000D01*
X11156000Y-6330000D02*
X11196000Y-6370000D01*
X11196000Y-6330000D02*
X11156000Y-6370000D01*
X11156000Y-8362000D02*
X11196000Y-8402000D01*
X11196000Y-8362000D02*
X11156000Y-8402000D01*
X11664000Y-7600000D02*
X11704000Y-7640000D01*
X11704000Y-7600000D02*
X11664000Y-7640000D01*
X11789932Y-8100400D02*
X11829932Y-8140400D01*
X11829932Y-8100400D02*
X11789932Y-8140400D01*
X11808259Y-6941556D02*
X11848259Y-6981556D01*
X11848259Y-6941556D02*
X11808259Y-6981556D01*
D13*
X2155294Y-5926294D02*
G75*
G03*
X2155294Y-5926294I-25000J0D01*
G01*
X2155294Y-10329706D02*
G75*
G03*
X2155294Y-10329706I-25000J0D01*
G01*
X2225589Y-5756589D02*
G75*
G03*
X2225589Y-5756589I-25000J0D01*
G01*
X2225589Y-6096000D02*
G75*
G03*
X2225589Y-6096000I-25000J0D01*
G01*
X2225589Y-10160000D02*
G75*
G03*
X2225589Y-10160000I-25000J0D01*
G01*
X2225589Y-10499411D02*
G75*
G03*
X2225589Y-10499411I-25000J0D01*
G01*
X2395294Y-5686294D02*
G75*
G03*
X2395294Y-5686294I-25000J0D01*
G01*
X2395294Y-6166294D02*
G75*
G03*
X2395294Y-6166294I-25000J0D01*
G01*
X2395294Y-10089706D02*
G75*
G03*
X2395294Y-10089706I-25000J0D01*
G01*
X2395294Y-10569706D02*
G75*
G03*
X2395294Y-10569706I-25000J0D01*
G01*
X2565000Y-5756589D02*
G75*
G03*
X2565000Y-5756589I-25000J0D01*
G01*
X2565000Y-6096000D02*
G75*
G03*
X2565000Y-6096000I-25000J0D01*
G01*
X2565000Y-10160000D02*
G75*
G03*
X2565000Y-10160000I-25000J0D01*
G01*
X2565000Y-10499411D02*
G75*
G03*
X2565000Y-10499411I-25000J0D01*
G01*
X2635294Y-5926294D02*
G75*
G03*
X2635294Y-5926294I-25000J0D01*
G01*
X2635294Y-10329706D02*
G75*
G03*
X2635294Y-10329706I-25000J0D01*
G01*
X12400706Y-5926294D02*
G75*
G03*
X12400706Y-5926294I-25000J0D01*
G01*
X12400706Y-10329706D02*
G75*
G03*
X12400706Y-10329706I-25000J0D01*
G01*
X12471000Y-5756589D02*
G75*
G03*
X12471000Y-5756589I-25000J0D01*
G01*
X12471000Y-6096000D02*
G75*
G03*
X12471000Y-6096000I-25000J0D01*
G01*
X12471000Y-10160000D02*
G75*
G03*
X12471000Y-10160000I-25000J0D01*
G01*
X12471000Y-10499411D02*
G75*
G03*
X12471000Y-10499411I-25000J0D01*
G01*
X12640706Y-5686294D02*
G75*
G03*
X12640706Y-5686294I-25000J0D01*
G01*
X12640706Y-6166294D02*
G75*
G03*
X12640706Y-6166294I-25000J0D01*
G01*
X12640706Y-10089706D02*
G75*
G03*
X12640706Y-10089706I-25000J0D01*
G01*
X12640706Y-10569706D02*
G75*
G03*
X12640706Y-10569706I-25000J0D01*
G01*
X12810411Y-5756589D02*
G75*
G03*
X12810411Y-5756589I-25000J0D01*
G01*
X12810411Y-6096000D02*
G75*
G03*
X12810411Y-6096000I-25000J0D01*
G01*
X12810411Y-10160000D02*
G75*
G03*
X12810411Y-10160000I-25000J0D01*
G01*
X12810411Y-10499411D02*
G75*
G03*
X12810411Y-10499411I-25000J0D01*
G01*
X12880706Y-5926294D02*
G75*
G03*
X12880706Y-5926294I-25000J0D01*
G01*
X12880706Y-10329706D02*
G75*
G03*
X12880706Y-10329706I-25000J0D01*
G01*
D14*
X9906000Y-6787500D02*
X9906000Y-6864500D01*
X9867500Y-6826000D02*
X9944500Y-6826000D01*
X9906000Y-7581500D02*
X9906000Y-7658500D01*
X9867500Y-7620000D02*
X9944500Y-7620000D01*
X10160000Y-6787500D02*
X10160000Y-6864500D01*
X10121500Y-6826000D02*
X10198500Y-6826000D01*
X10160000Y-7581500D02*
X10160000Y-7658500D01*
X10121500Y-7620000D02*
X10198500Y-7620000D01*
X10414000Y-6787500D02*
X10414000Y-6864500D01*
X10375500Y-6826000D02*
X10452500Y-6826000D01*
X10414000Y-7581500D02*
X10414000Y-7658500D01*
X10375500Y-7620000D02*
X10452500Y-7620000D01*
X10668000Y-6787500D02*
X10668000Y-6864500D01*
X10629500Y-6826000D02*
X10706500Y-6826000D01*
X10668000Y-7581500D02*
X10668000Y-7658500D01*
X10629500Y-7620000D02*
X10706500Y-7620000D01*
X10922000Y-6787500D02*
X10922000Y-6864500D01*
X10883500Y-6826000D02*
X10960500Y-6826000D01*
X10922000Y-7581500D02*
X10922000Y-7658500D01*
X10883500Y-7620000D02*
X10960500Y-7620000D01*
X11176000Y-6787500D02*
X11176000Y-6864500D01*
X11137500Y-6826000D02*
X11214500Y-6826000D01*
X11176000Y-7581500D02*
X11176000Y-7658500D01*
X11137500Y-7620000D02*
X11214500Y-7620000D01*
X11430000Y-6787500D02*
X11430000Y-6864500D01*
X11391500Y-6826000D02*
X11468500Y-6826000D01*
X11430000Y-7581500D02*
X11430000Y-7658500D01*
X11391500Y-7620000D02*
X11468500Y-7620000D01*
D15*
X5361577Y-6853577D02*
X5361577Y-6798423D01*
X5306423Y-6798423D01*
X5306423Y-6853577D01*
X5361577Y-6853577D01*
X5361577Y-7647577D02*
X5361577Y-7592423D01*
X5306423Y-7592423D01*
X5306423Y-7647577D01*
X5361577Y-7647577D01*
X5615577Y-6853577D02*
X5615577Y-6798423D01*
X5560423Y-6798423D01*
X5560423Y-6853577D01*
X5615577Y-6853577D01*
X5615577Y-7647577D02*
X5615577Y-7592423D01*
X5560423Y-7592423D01*
X5560423Y-7647577D01*
X5615577Y-7647577D01*
X5869577Y-6853577D02*
X5869577Y-6798423D01*
X5814423Y-6798423D01*
X5814423Y-6853577D01*
X5869577Y-6853577D01*
X5869577Y-7647577D02*
X5869577Y-7592423D01*
X5814423Y-7592423D01*
X5814423Y-7647577D01*
X5869577Y-7647577D01*
X6123577Y-6853577D02*
X6123577Y-6798423D01*
X6068423Y-6798423D01*
X6068423Y-6853577D01*
X6123577Y-6853577D01*
X6123577Y-7647577D02*
X6123577Y-7592423D01*
X6068423Y-7592423D01*
X6068423Y-7647577D01*
X6123577Y-7647577D01*
X6377577Y-6853577D02*
X6377577Y-6798423D01*
X6322423Y-6798423D01*
X6322423Y-6853577D01*
X6377577Y-6853577D01*
X6377577Y-7647577D02*
X6377577Y-7592423D01*
X6322423Y-7592423D01*
X6322423Y-7647577D01*
X6377577Y-7647577D01*
X6631577Y-6853577D02*
X6631577Y-6798423D01*
X6576423Y-6798423D01*
X6576423Y-6853577D01*
X6631577Y-6853577D01*
X6631577Y-7647577D02*
X6631577Y-7592423D01*
X6576423Y-7592423D01*
X6576423Y-7647577D01*
X6631577Y-7647577D01*
X6885577Y-6853577D02*
X6885577Y-6798423D01*
X6830423Y-6798423D01*
X6830423Y-6853577D01*
X6885577Y-6853577D01*
X6885577Y-7647577D02*
X6885577Y-7592423D01*
X6830423Y-7592423D01*
X6830423Y-7647577D01*
X6885577Y-7647577D01*
X7139577Y-6853577D02*
X7139577Y-6798423D01*
X7084423Y-6798423D01*
X7084423Y-6853577D01*
X7139577Y-6853577D01*
X7139577Y-7647577D02*
X7139577Y-7592423D01*
X7084423Y-7592423D01*
X7084423Y-7647577D01*
X7139577Y-7647577D01*
D16*
X7874000Y-7152000D02*
X7914000Y-7112000D01*
X7874000Y-7072000D01*
X7834000Y-7112000D01*
X7874000Y-7152000D01*
X7874000Y-7352000D02*
X7914000Y-7312000D01*
X7874000Y-7272000D01*
X7834000Y-7312000D01*
X7874000Y-7352000D01*
X9144000Y-7152000D02*
X9184000Y-7112000D01*
X9144000Y-7072000D01*
X9104000Y-7112000D01*
X9144000Y-7152000D01*
X9144000Y-7352000D02*
X9184000Y-7312000D01*
X9144000Y-7272000D01*
X9104000Y-7312000D01*
X9144000Y-7352000D01*
D17*
X2236000Y-7062000D02*
X2336000Y-7162000D01*
X2336000Y-7062000D02*
X2236000Y-7162000D01*
X2336000Y-7112000D02*
G75*
G03*
X2336000Y-7112000I-50000J0D01*
G01*
X2236000Y-9602000D02*
X2336000Y-9702000D01*
X2336000Y-9602000D02*
X2236000Y-9702000D01*
X2336000Y-9652000D02*
G75*
G03*
X2336000Y-9652000I-50000J0D01*
G01*
X2490000Y-7062000D02*
X2590000Y-7162000D01*
X2590000Y-7062000D02*
X2490000Y-7162000D01*
X2590000Y-7112000D02*
G75*
G03*
X2590000Y-7112000I-50000J0D01*
G01*
X2490000Y-9602000D02*
X2590000Y-9702000D01*
X2590000Y-9602000D02*
X2490000Y-9702000D01*
X2590000Y-9652000D02*
G75*
G03*
X2590000Y-9652000I-50000J0D01*
G01*
X2744000Y-7062000D02*
X2844000Y-7162000D01*
X2844000Y-7062000D02*
X2744000Y-7162000D01*
X2844000Y-7112000D02*
G75*
G03*
X2844000Y-7112000I-50000J0D01*
G01*
X2744000Y-9602000D02*
X2844000Y-9702000D01*
X2844000Y-9602000D02*
X2744000Y-9702000D01*
X2844000Y-9652000D02*
G75*
G03*
X2844000Y-9652000I-50000J0D01*
G01*
X2998000Y-7062000D02*
X3098000Y-7162000D01*
X3098000Y-7062000D02*
X2998000Y-7162000D01*
X3098000Y-7112000D02*
G75*
G03*
X3098000Y-7112000I-50000J0D01*
G01*
X2998000Y-9602000D02*
X3098000Y-9702000D01*
X3098000Y-9602000D02*
X2998000Y-9702000D01*
X3098000Y-9652000D02*
G75*
G03*
X3098000Y-9652000I-50000J0D01*
G01*
X4014000Y-8840000D02*
X4114000Y-8940000D01*
X4114000Y-8840000D02*
X4014000Y-8940000D01*
X4114000Y-8890000D02*
G75*
G03*
X4114000Y-8890000I-50000J0D01*
G01*
X4014000Y-9094000D02*
X4114000Y-9194000D01*
X4114000Y-9094000D02*
X4014000Y-9194000D01*
X4114000Y-9144000D02*
G75*
G03*
X4114000Y-9144000I-50000J0D01*
G01*
X4014000Y-9856000D02*
X4114000Y-9956000D01*
X4114000Y-9856000D02*
X4014000Y-9956000D01*
X4114000Y-9906000D02*
G75*
G03*
X4114000Y-9906000I-50000J0D01*
G01*
X4014000Y-10110000D02*
X4114000Y-10210000D01*
X4114000Y-10110000D02*
X4014000Y-10210000D01*
X4114000Y-10160000D02*
G75*
G03*
X4114000Y-10160000I-50000J0D01*
G01*
X4268000Y-8840000D02*
X4368000Y-8940000D01*
X4368000Y-8840000D02*
X4268000Y-8940000D01*
X4368000Y-8890000D02*
G75*
G03*
X4368000Y-8890000I-50000J0D01*
G01*
X4268000Y-9094000D02*
X4368000Y-9194000D01*
X4368000Y-9094000D02*
X4268000Y-9194000D01*
X4368000Y-9144000D02*
G75*
G03*
X4368000Y-9144000I-50000J0D01*
G01*
X4268000Y-9856000D02*
X4368000Y-9956000D01*
X4368000Y-9856000D02*
X4268000Y-9956000D01*
X4368000Y-9906000D02*
G75*
G03*
X4368000Y-9906000I-50000J0D01*
G01*
X4268000Y-10110000D02*
X4368000Y-10210000D01*
X4368000Y-10110000D02*
X4268000Y-10210000D01*
X4368000Y-10160000D02*
G75*
G03*
X4368000Y-10160000I-50000J0D01*
G01*
X4522000Y-8840000D02*
X4622000Y-8940000D01*
X4622000Y-8840000D02*
X4522000Y-8940000D01*
X4622000Y-8890000D02*
G75*
G03*
X4622000Y-8890000I-50000J0D01*
G01*
X4522000Y-9094000D02*
X4622000Y-9194000D01*
X4622000Y-9094000D02*
X4522000Y-9194000D01*
X4622000Y-9144000D02*
G75*
G03*
X4622000Y-9144000I-50000J0D01*
G01*
X4522000Y-9856000D02*
X4622000Y-9956000D01*
X4622000Y-9856000D02*
X4522000Y-9956000D01*
X4622000Y-9906000D02*
G75*
G03*
X4622000Y-9906000I-50000J0D01*
G01*
X4522000Y-10110000D02*
X4622000Y-10210000D01*
X4622000Y-10110000D02*
X4522000Y-10210000D01*
X4622000Y-10160000D02*
G75*
G03*
X4622000Y-10160000I-50000J0D01*
G01*
X4776000Y-8840000D02*
X4876000Y-8940000D01*
X4876000Y-8840000D02*
X4776000Y-8940000D01*
X4876000Y-8890000D02*
G75*
G03*
X4876000Y-8890000I-50000J0D01*
G01*
X4776000Y-9094000D02*
X4876000Y-9194000D01*
X4876000Y-9094000D02*
X4776000Y-9194000D01*
X4876000Y-9144000D02*
G75*
G03*
X4876000Y-9144000I-50000J0D01*
G01*
X4776000Y-9856000D02*
X4876000Y-9956000D01*
X4876000Y-9856000D02*
X4776000Y-9956000D01*
X4876000Y-9906000D02*
G75*
G03*
X4876000Y-9906000I-50000J0D01*
G01*
X4776000Y-10110000D02*
X4876000Y-10210000D01*
X4876000Y-10110000D02*
X4776000Y-10210000D01*
X4876000Y-10160000D02*
G75*
G03*
X4876000Y-10160000I-50000J0D01*
G01*
X5030000Y-8840000D02*
X5130000Y-8940000D01*
X5130000Y-8840000D02*
X5030000Y-8940000D01*
X5130000Y-8890000D02*
G75*
G03*
X5130000Y-8890000I-50000J0D01*
G01*
X5030000Y-9094000D02*
X5130000Y-9194000D01*
X5130000Y-9094000D02*
X5030000Y-9194000D01*
X5130000Y-9144000D02*
G75*
G03*
X5130000Y-9144000I-50000J0D01*
G01*
X5030000Y-9856000D02*
X5130000Y-9956000D01*
X5130000Y-9856000D02*
X5030000Y-9956000D01*
X5130000Y-9906000D02*
G75*
G03*
X5130000Y-9906000I-50000J0D01*
G01*
X5030000Y-10110000D02*
X5130000Y-10210000D01*
X5130000Y-10110000D02*
X5030000Y-10210000D01*
X5130000Y-10160000D02*
G75*
G03*
X5130000Y-10160000I-50000J0D01*
G01*
X5284000Y-8840000D02*
X5384000Y-8940000D01*
X5384000Y-8840000D02*
X5284000Y-8940000D01*
X5384000Y-8890000D02*
G75*
G03*
X5384000Y-8890000I-50000J0D01*
G01*
X5284000Y-9094000D02*
X5384000Y-9194000D01*
X5384000Y-9094000D02*
X5284000Y-9194000D01*
X5384000Y-9144000D02*
G75*
G03*
X5384000Y-9144000I-50000J0D01*
G01*
X5284000Y-9856000D02*
X5384000Y-9956000D01*
X5384000Y-9856000D02*
X5284000Y-9956000D01*
X5384000Y-9906000D02*
G75*
G03*
X5384000Y-9906000I-50000J0D01*
G01*
X5284000Y-10110000D02*
X5384000Y-10210000D01*
X5384000Y-10110000D02*
X5284000Y-10210000D01*
X5384000Y-10160000D02*
G75*
G03*
X5384000Y-10160000I-50000J0D01*
G01*
X5538000Y-8840000D02*
X5638000Y-8940000D01*
X5638000Y-8840000D02*
X5538000Y-8940000D01*
X5638000Y-8890000D02*
G75*
G03*
X5638000Y-8890000I-50000J0D01*
G01*
X5538000Y-9094000D02*
X5638000Y-9194000D01*
X5638000Y-9094000D02*
X5538000Y-9194000D01*
X5638000Y-9144000D02*
G75*
G03*
X5638000Y-9144000I-50000J0D01*
G01*
X5538000Y-9856000D02*
X5638000Y-9956000D01*
X5638000Y-9856000D02*
X5538000Y-9956000D01*
X5638000Y-9906000D02*
G75*
G03*
X5638000Y-9906000I-50000J0D01*
G01*
X5538000Y-10110000D02*
X5638000Y-10210000D01*
X5638000Y-10110000D02*
X5538000Y-10210000D01*
X5638000Y-10160000D02*
G75*
G03*
X5638000Y-10160000I-50000J0D01*
G01*
X5792000Y-8840000D02*
X5892000Y-8940000D01*
X5892000Y-8840000D02*
X5792000Y-8940000D01*
X5892000Y-8890000D02*
G75*
G03*
X5892000Y-8890000I-50000J0D01*
G01*
X5792000Y-9094000D02*
X5892000Y-9194000D01*
X5892000Y-9094000D02*
X5792000Y-9194000D01*
X5892000Y-9144000D02*
G75*
G03*
X5892000Y-9144000I-50000J0D01*
G01*
X5792000Y-9856000D02*
X5892000Y-9956000D01*
X5892000Y-9856000D02*
X5792000Y-9956000D01*
X5892000Y-9906000D02*
G75*
G03*
X5892000Y-9906000I-50000J0D01*
G01*
X5792000Y-10110000D02*
X5892000Y-10210000D01*
X5892000Y-10110000D02*
X5792000Y-10210000D01*
X5892000Y-10160000D02*
G75*
G03*
X5892000Y-10160000I-50000J0D01*
G01*
X6046000Y-8840000D02*
X6146000Y-8940000D01*
X6146000Y-8840000D02*
X6046000Y-8940000D01*
X6146000Y-8890000D02*
G75*
G03*
X6146000Y-8890000I-50000J0D01*
G01*
X6046000Y-9094000D02*
X6146000Y-9194000D01*
X6146000Y-9094000D02*
X6046000Y-9194000D01*
X6146000Y-9144000D02*
G75*
G03*
X6146000Y-9144000I-50000J0D01*
G01*
X6046000Y-9856000D02*
X6146000Y-9956000D01*
X6146000Y-9856000D02*
X6046000Y-9956000D01*
X6146000Y-9906000D02*
G75*
G03*
X6146000Y-9906000I-50000J0D01*
G01*
X6046000Y-10110000D02*
X6146000Y-10210000D01*
X6146000Y-10110000D02*
X6046000Y-10210000D01*
X6146000Y-10160000D02*
G75*
G03*
X6146000Y-10160000I-50000J0D01*
G01*
X6300000Y-8840000D02*
X6400000Y-8940000D01*
X6400000Y-8840000D02*
X6300000Y-8940000D01*
X6400000Y-8890000D02*
G75*
G03*
X6400000Y-8890000I-50000J0D01*
G01*
X6300000Y-9094000D02*
X6400000Y-9194000D01*
X6400000Y-9094000D02*
X6300000Y-9194000D01*
X6400000Y-9144000D02*
G75*
G03*
X6400000Y-9144000I-50000J0D01*
G01*
X6300000Y-9856000D02*
X6400000Y-9956000D01*
X6400000Y-9856000D02*
X6300000Y-9956000D01*
X6400000Y-9906000D02*
G75*
G03*
X6400000Y-9906000I-50000J0D01*
G01*
X6300000Y-10110000D02*
X6400000Y-10210000D01*
X6400000Y-10110000D02*
X6300000Y-10210000D01*
X6400000Y-10160000D02*
G75*
G03*
X6400000Y-10160000I-50000J0D01*
G01*
X6554000Y-8840000D02*
X6654000Y-8940000D01*
X6654000Y-8840000D02*
X6554000Y-8940000D01*
X6654000Y-8890000D02*
G75*
G03*
X6654000Y-8890000I-50000J0D01*
G01*
X6554000Y-9094000D02*
X6654000Y-9194000D01*
X6654000Y-9094000D02*
X6554000Y-9194000D01*
X6654000Y-9144000D02*
G75*
G03*
X6654000Y-9144000I-50000J0D01*
G01*
X6554000Y-9856000D02*
X6654000Y-9956000D01*
X6654000Y-9856000D02*
X6554000Y-9956000D01*
X6654000Y-9906000D02*
G75*
G03*
X6654000Y-9906000I-50000J0D01*
G01*
X6554000Y-10110000D02*
X6654000Y-10210000D01*
X6654000Y-10110000D02*
X6554000Y-10210000D01*
X6654000Y-10160000D02*
G75*
G03*
X6654000Y-10160000I-50000J0D01*
G01*
X6808000Y-8840000D02*
X6908000Y-8940000D01*
X6908000Y-8840000D02*
X6808000Y-8940000D01*
X6908000Y-8890000D02*
G75*
G03*
X6908000Y-8890000I-50000J0D01*
G01*
X6808000Y-9094000D02*
X6908000Y-9194000D01*
X6908000Y-9094000D02*
X6808000Y-9194000D01*
X6908000Y-9144000D02*
G75*
G03*
X6908000Y-9144000I-50000J0D01*
G01*
X6808000Y-9856000D02*
X6908000Y-9956000D01*
X6908000Y-9856000D02*
X6808000Y-9956000D01*
X6908000Y-9906000D02*
G75*
G03*
X6908000Y-9906000I-50000J0D01*
G01*
X6808000Y-10110000D02*
X6908000Y-10210000D01*
X6908000Y-10110000D02*
X6808000Y-10210000D01*
X6908000Y-10160000D02*
G75*
G03*
X6908000Y-10160000I-50000J0D01*
G01*
X7062000Y-8840000D02*
X7162000Y-8940000D01*
X7162000Y-8840000D02*
X7062000Y-8940000D01*
X7162000Y-8890000D02*
G75*
G03*
X7162000Y-8890000I-50000J0D01*
G01*
X7062000Y-9094000D02*
X7162000Y-9194000D01*
X7162000Y-9094000D02*
X7062000Y-9194000D01*
X7162000Y-9144000D02*
G75*
G03*
X7162000Y-9144000I-50000J0D01*
G01*
X7062000Y-9856000D02*
X7162000Y-9956000D01*
X7162000Y-9856000D02*
X7062000Y-9956000D01*
X7162000Y-9906000D02*
G75*
G03*
X7162000Y-9906000I-50000J0D01*
G01*
X7062000Y-10110000D02*
X7162000Y-10210000D01*
X7162000Y-10110000D02*
X7062000Y-10210000D01*
X7162000Y-10160000D02*
G75*
G03*
X7162000Y-10160000I-50000J0D01*
G01*
X7316000Y-8840000D02*
X7416000Y-8940000D01*
X7416000Y-8840000D02*
X7316000Y-8940000D01*
X7416000Y-8890000D02*
G75*
G03*
X7416000Y-8890000I-50000J0D01*
G01*
X7316000Y-9094000D02*
X7416000Y-9194000D01*
X7416000Y-9094000D02*
X7316000Y-9194000D01*
X7416000Y-9144000D02*
G75*
G03*
X7416000Y-9144000I-50000J0D01*
G01*
X7316000Y-9856000D02*
X7416000Y-9956000D01*
X7416000Y-9856000D02*
X7316000Y-9956000D01*
X7416000Y-9906000D02*
G75*
G03*
X7416000Y-9906000I-50000J0D01*
G01*
X7316000Y-10110000D02*
X7416000Y-10210000D01*
X7416000Y-10110000D02*
X7316000Y-10210000D01*
X7416000Y-10160000D02*
G75*
G03*
X7416000Y-10160000I-50000J0D01*
G01*
X7570000Y-8840000D02*
X7670000Y-8940000D01*
X7670000Y-8840000D02*
X7570000Y-8940000D01*
X7670000Y-8890000D02*
G75*
G03*
X7670000Y-8890000I-50000J0D01*
G01*
X7570000Y-9094000D02*
X7670000Y-9194000D01*
X7670000Y-9094000D02*
X7570000Y-9194000D01*
X7670000Y-9144000D02*
G75*
G03*
X7670000Y-9144000I-50000J0D01*
G01*
X7570000Y-9856000D02*
X7670000Y-9956000D01*
X7670000Y-9856000D02*
X7570000Y-9956000D01*
X7670000Y-9906000D02*
G75*
G03*
X7670000Y-9906000I-50000J0D01*
G01*
X7570000Y-10110000D02*
X7670000Y-10210000D01*
X7670000Y-10110000D02*
X7570000Y-10210000D01*
X7670000Y-10160000D02*
G75*
G03*
X7670000Y-10160000I-50000J0D01*
G01*
X7824000Y-8840000D02*
X7924000Y-8940000D01*
X7924000Y-8840000D02*
X7824000Y-8940000D01*
X7924000Y-8890000D02*
G75*
G03*
X7924000Y-8890000I-50000J0D01*
G01*
X7824000Y-9094000D02*
X7924000Y-9194000D01*
X7924000Y-9094000D02*
X7824000Y-9194000D01*
X7924000Y-9144000D02*
G75*
G03*
X7924000Y-9144000I-50000J0D01*
G01*
X7824000Y-9856000D02*
X7924000Y-9956000D01*
X7924000Y-9856000D02*
X7824000Y-9956000D01*
X7924000Y-9906000D02*
G75*
G03*
X7924000Y-9906000I-50000J0D01*
G01*
X7824000Y-10110000D02*
X7924000Y-10210000D01*
X7924000Y-10110000D02*
X7824000Y-10210000D01*
X7924000Y-10160000D02*
G75*
G03*
X7924000Y-10160000I-50000J0D01*
G01*
X8078000Y-8840000D02*
X8178000Y-8940000D01*
X8178000Y-8840000D02*
X8078000Y-8940000D01*
X8178000Y-8890000D02*
G75*
G03*
X8178000Y-8890000I-50000J0D01*
G01*
X8078000Y-9094000D02*
X8178000Y-9194000D01*
X8178000Y-9094000D02*
X8078000Y-9194000D01*
X8178000Y-9144000D02*
G75*
G03*
X8178000Y-9144000I-50000J0D01*
G01*
X8078000Y-9856000D02*
X8178000Y-9956000D01*
X8178000Y-9856000D02*
X8078000Y-9956000D01*
X8178000Y-9906000D02*
G75*
G03*
X8178000Y-9906000I-50000J0D01*
G01*
X8078000Y-10110000D02*
X8178000Y-10210000D01*
X8178000Y-10110000D02*
X8078000Y-10210000D01*
X8178000Y-10160000D02*
G75*
G03*
X8178000Y-10160000I-50000J0D01*
G01*
X9602000Y-8840000D02*
X9702000Y-8940000D01*
X9702000Y-8840000D02*
X9602000Y-8940000D01*
X9702000Y-8890000D02*
G75*
G03*
X9702000Y-8890000I-50000J0D01*
G01*
X9602000Y-9094000D02*
X9702000Y-9194000D01*
X9702000Y-9094000D02*
X9602000Y-9194000D01*
X9702000Y-9144000D02*
G75*
G03*
X9702000Y-9144000I-50000J0D01*
G01*
X9602000Y-9856000D02*
X9702000Y-9956000D01*
X9702000Y-9856000D02*
X9602000Y-9956000D01*
X9702000Y-9906000D02*
G75*
G03*
X9702000Y-9906000I-50000J0D01*
G01*
X9602000Y-10110000D02*
X9702000Y-10210000D01*
X9702000Y-10110000D02*
X9602000Y-10210000D01*
X9702000Y-10160000D02*
G75*
G03*
X9702000Y-10160000I-50000J0D01*
G01*
X9856000Y-8840000D02*
X9956000Y-8940000D01*
X9956000Y-8840000D02*
X9856000Y-8940000D01*
X9956000Y-8890000D02*
G75*
G03*
X9956000Y-8890000I-50000J0D01*
G01*
X9856000Y-9094000D02*
X9956000Y-9194000D01*
X9956000Y-9094000D02*
X9856000Y-9194000D01*
X9956000Y-9144000D02*
G75*
G03*
X9956000Y-9144000I-50000J0D01*
G01*
X9856000Y-9856000D02*
X9956000Y-9956000D01*
X9956000Y-9856000D02*
X9856000Y-9956000D01*
X9956000Y-9906000D02*
G75*
G03*
X9956000Y-9906000I-50000J0D01*
G01*
X9856000Y-10110000D02*
X9956000Y-10210000D01*
X9956000Y-10110000D02*
X9856000Y-10210000D01*
X9956000Y-10160000D02*
G75*
G03*
X9956000Y-10160000I-50000J0D01*
G01*
X10110000Y-8840000D02*
X10210000Y-8940000D01*
X10210000Y-8840000D02*
X10110000Y-8940000D01*
X10210000Y-8890000D02*
G75*
G03*
X10210000Y-8890000I-50000J0D01*
G01*
X10110000Y-9094000D02*
X10210000Y-9194000D01*
X10210000Y-9094000D02*
X10110000Y-9194000D01*
X10210000Y-9144000D02*
G75*
G03*
X10210000Y-9144000I-50000J0D01*
G01*
X10110000Y-9856000D02*
X10210000Y-9956000D01*
X10210000Y-9856000D02*
X10110000Y-9956000D01*
X10210000Y-9906000D02*
G75*
G03*
X10210000Y-9906000I-50000J0D01*
G01*
X10110000Y-10110000D02*
X10210000Y-10210000D01*
X10210000Y-10110000D02*
X10110000Y-10210000D01*
X10210000Y-10160000D02*
G75*
G03*
X10210000Y-10160000I-50000J0D01*
G01*
X10364000Y-8840000D02*
X10464000Y-8940000D01*
X10464000Y-8840000D02*
X10364000Y-8940000D01*
X10464000Y-8890000D02*
G75*
G03*
X10464000Y-8890000I-50000J0D01*
G01*
X10364000Y-9094000D02*
X10464000Y-9194000D01*
X10464000Y-9094000D02*
X10364000Y-9194000D01*
X10464000Y-9144000D02*
G75*
G03*
X10464000Y-9144000I-50000J0D01*
G01*
X10364000Y-9856000D02*
X10464000Y-9956000D01*
X10464000Y-9856000D02*
X10364000Y-9956000D01*
X10464000Y-9906000D02*
G75*
G03*
X10464000Y-9906000I-50000J0D01*
G01*
X10364000Y-10110000D02*
X10464000Y-10210000D01*
X10464000Y-10110000D02*
X10364000Y-10210000D01*
X10464000Y-10160000D02*
G75*
G03*
X10464000Y-10160000I-50000J0D01*
G01*
X10618000Y-8840000D02*
X10718000Y-8940000D01*
X10718000Y-8840000D02*
X10618000Y-8940000D01*
X10718000Y-8890000D02*
G75*
G03*
X10718000Y-8890000I-50000J0D01*
G01*
X10618000Y-9094000D02*
X10718000Y-9194000D01*
X10718000Y-9094000D02*
X10618000Y-9194000D01*
X10718000Y-9144000D02*
G75*
G03*
X10718000Y-9144000I-50000J0D01*
G01*
X10618000Y-9856000D02*
X10718000Y-9956000D01*
X10718000Y-9856000D02*
X10618000Y-9956000D01*
X10718000Y-9906000D02*
G75*
G03*
X10718000Y-9906000I-50000J0D01*
G01*
X10618000Y-10110000D02*
X10718000Y-10210000D01*
X10718000Y-10110000D02*
X10618000Y-10210000D01*
X10718000Y-10160000D02*
G75*
G03*
X10718000Y-10160000I-50000J0D01*
G01*
X10872000Y-8840000D02*
X10972000Y-8940000D01*
X10972000Y-8840000D02*
X10872000Y-8940000D01*
X10972000Y-8890000D02*
G75*
G03*
X10972000Y-8890000I-50000J0D01*
G01*
X10872000Y-9094000D02*
X10972000Y-9194000D01*
X10972000Y-9094000D02*
X10872000Y-9194000D01*
X10972000Y-9144000D02*
G75*
G03*
X10972000Y-9144000I-50000J0D01*
G01*
X10872000Y-9856000D02*
X10972000Y-9956000D01*
X10972000Y-9856000D02*
X10872000Y-9956000D01*
X10972000Y-9906000D02*
G75*
G03*
X10972000Y-9906000I-50000J0D01*
G01*
X10872000Y-10110000D02*
X10972000Y-10210000D01*
X10972000Y-10110000D02*
X10872000Y-10210000D01*
X10972000Y-10160000D02*
G75*
G03*
X10972000Y-10160000I-50000J0D01*
G01*
X11126000Y-8840000D02*
X11226000Y-8940000D01*
X11226000Y-8840000D02*
X11126000Y-8940000D01*
X11226000Y-8890000D02*
G75*
G03*
X11226000Y-8890000I-50000J0D01*
G01*
X11126000Y-9094000D02*
X11226000Y-9194000D01*
X11226000Y-9094000D02*
X11126000Y-9194000D01*
X11226000Y-9144000D02*
G75*
G03*
X11226000Y-9144000I-50000J0D01*
G01*
X11126000Y-9856000D02*
X11226000Y-9956000D01*
X11226000Y-9856000D02*
X11126000Y-9956000D01*
X11226000Y-9906000D02*
G75*
G03*
X11226000Y-9906000I-50000J0D01*
G01*
X11126000Y-10110000D02*
X11226000Y-10210000D01*
X11226000Y-10110000D02*
X11126000Y-10210000D01*
X11226000Y-10160000D02*
G75*
G03*
X11226000Y-10160000I-50000J0D01*
G01*
X11380000Y-8840000D02*
X11480000Y-8940000D01*
X11480000Y-8840000D02*
X11380000Y-8940000D01*
X11480000Y-8890000D02*
G75*
G03*
X11480000Y-8890000I-50000J0D01*
G01*
X11380000Y-9094000D02*
X11480000Y-9194000D01*
X11480000Y-9094000D02*
X11380000Y-9194000D01*
X11480000Y-9144000D02*
G75*
G03*
X11480000Y-9144000I-50000J0D01*
G01*
X11380000Y-9856000D02*
X11480000Y-9956000D01*
X11480000Y-9856000D02*
X11380000Y-9956000D01*
X11480000Y-9906000D02*
G75*
G03*
X11480000Y-9906000I-50000J0D01*
G01*
X11380000Y-10110000D02*
X11480000Y-10210000D01*
X11480000Y-10110000D02*
X11380000Y-10210000D01*
X11480000Y-10160000D02*
G75*
G03*
X11480000Y-10160000I-50000J0D01*
G01*
X11634000Y-8840000D02*
X11734000Y-8940000D01*
X11734000Y-8840000D02*
X11634000Y-8940000D01*
X11734000Y-8890000D02*
G75*
G03*
X11734000Y-8890000I-50000J0D01*
G01*
X11634000Y-9094000D02*
X11734000Y-9194000D01*
X11734000Y-9094000D02*
X11634000Y-9194000D01*
X11734000Y-9144000D02*
G75*
G03*
X11734000Y-9144000I-50000J0D01*
G01*
X11634000Y-9856000D02*
X11734000Y-9956000D01*
X11734000Y-9856000D02*
X11634000Y-9956000D01*
X11734000Y-9906000D02*
G75*
G03*
X11734000Y-9906000I-50000J0D01*
G01*
X11634000Y-10110000D02*
X11734000Y-10210000D01*
X11734000Y-10110000D02*
X11634000Y-10210000D01*
X11734000Y-10160000D02*
G75*
G03*
X11734000Y-10160000I-50000J0D01*
G01*
X11888000Y-9094000D02*
X11988000Y-9194000D01*
X11988000Y-9094000D02*
X11888000Y-9194000D01*
X11988000Y-9144000D02*
G75*
G03*
X11988000Y-9144000I-50000J0D01*
G01*
X11888000Y-10110000D02*
X11988000Y-10210000D01*
X11988000Y-10110000D02*
X11888000Y-10210000D01*
X11988000Y-10160000D02*
G75*
G03*
X11988000Y-10160000I-50000J0D01*
G01*
D18*
X4258000Y-6036000D02*
X4378000Y-6156000D01*
X4378000Y-6036000D02*
X4258000Y-6156000D01*
X4318000Y-6036000D02*
X4318000Y-6156000D01*
X4258000Y-6096000D02*
X4378000Y-6096000D01*
X4258000Y-7560000D02*
X4378000Y-7680000D01*
X4378000Y-7560000D02*
X4258000Y-7680000D01*
X4318000Y-7560000D02*
X4318000Y-7680000D01*
X4258000Y-7620000D02*
X4378000Y-7620000D01*
X5020000Y-6036000D02*
X5140000Y-6156000D01*
X5140000Y-6036000D02*
X5020000Y-6156000D01*
X5080000Y-6036000D02*
X5080000Y-6156000D01*
X5020000Y-6096000D02*
X5140000Y-6096000D01*
X6544000Y-6036000D02*
X6664000Y-6156000D01*
X6664000Y-6036000D02*
X6544000Y-6156000D01*
X6604000Y-6036000D02*
X6604000Y-6156000D01*
X6544000Y-6096000D02*
X6664000Y-6096000D01*
X7560000Y-7814000D02*
X7680000Y-7934000D01*
X7680000Y-7814000D02*
X7560000Y-7934000D01*
X7620000Y-7814000D02*
X7620000Y-7934000D01*
X7560000Y-7874000D02*
X7680000Y-7874000D01*
X9084000Y-7814000D02*
X9204000Y-7934000D01*
X9204000Y-7814000D02*
X9084000Y-7934000D01*
X9144000Y-7814000D02*
X9144000Y-7934000D01*
X9084000Y-7874000D02*
X9204000Y-7874000D01*
X12132000Y-6544000D02*
X12252000Y-6664000D01*
X12252000Y-6544000D02*
X12132000Y-6664000D01*
X12192000Y-6544000D02*
X12192000Y-6664000D01*
X12132000Y-6604000D02*
X12252000Y-6604000D01*
X12132000Y-8068000D02*
X12252000Y-8188000D01*
X12252000Y-8068000D02*
X12132000Y-8188000D01*
X12192000Y-8068000D02*
X12192000Y-8188000D01*
X12132000Y-8128000D02*
X12252000Y-8128000D01*
D19*
X2210294Y-5766294D02*
X2530294Y-6086294D01*
X2530294Y-5766294D02*
X2210294Y-6086294D01*
X2483433Y-6039433D02*
X2483433Y-5813156D01*
X2257156Y-5813156D01*
X2257156Y-6039433D01*
X2483433Y-6039433D01*
X2210294Y-10169706D02*
X2530294Y-10489706D01*
X2530294Y-10169706D02*
X2210294Y-10489706D01*
X2483433Y-10442844D02*
X2483433Y-10216567D01*
X2257156Y-10216567D01*
X2257156Y-10442844D01*
X2483433Y-10442844D01*
X12455706Y-5766294D02*
X12775706Y-6086294D01*
X12775706Y-5766294D02*
X12455706Y-6086294D01*
X12728844Y-6039433D02*
X12728844Y-5813156D01*
X12502567Y-5813156D01*
X12502567Y-6039433D01*
X12728844Y-6039433D01*
X12455706Y-10169706D02*
X12775706Y-10489706D01*
X12775706Y-10169706D02*
X12455706Y-10489706D01*
X12728844Y-10442844D02*
X12728844Y-10216567D01*
X12502567Y-10216567D01*
X12502567Y-10442844D01*
X12728844Y-10442844D01*
D11*
X2031277Y-11240984D02*
X2031277Y-11040984D01*
X2031277Y-11040984D02*
X2078896Y-11040984D01*
X2078896Y-11040984D02*
X2107467Y-11050508D01*
X2107467Y-11050508D02*
X2126515Y-11069555D01*
X2126515Y-11069555D02*
X2136039Y-11088603D01*
X2136039Y-11088603D02*
X2145563Y-11126698D01*
X2145563Y-11126698D02*
X2145563Y-11155270D01*
X2145563Y-11155270D02*
X2136039Y-11193365D01*
X2136039Y-11193365D02*
X2126515Y-11212412D01*
X2126515Y-11212412D02*
X2107467Y-11231460D01*
X2107467Y-11231460D02*
X2078896Y-11240984D01*
X2078896Y-11240984D02*
X2031277Y-11240984D01*
X2231277Y-11240984D02*
X2231277Y-11107650D01*
X2231277Y-11145746D02*
X2240801Y-11126698D01*
X2240801Y-11126698D02*
X2250324Y-11117174D01*
X2250324Y-11117174D02*
X2269372Y-11107650D01*
X2269372Y-11107650D02*
X2288420Y-11107650D01*
X2355086Y-11240984D02*
X2355086Y-11107650D01*
X2355086Y-11040984D02*
X2345563Y-11050508D01*
X2345563Y-11050508D02*
X2355086Y-11060031D01*
X2355086Y-11060031D02*
X2364610Y-11050508D01*
X2364610Y-11050508D02*
X2355086Y-11040984D01*
X2355086Y-11040984D02*
X2355086Y-11060031D01*
X2478896Y-11240984D02*
X2459848Y-11231460D01*
X2459848Y-11231460D02*
X2450324Y-11212412D01*
X2450324Y-11212412D02*
X2450324Y-11040984D01*
X2583658Y-11240984D02*
X2564610Y-11231460D01*
X2564610Y-11231460D02*
X2555086Y-11212412D01*
X2555086Y-11212412D02*
X2555086Y-11040984D01*
X2812229Y-11240984D02*
X2812229Y-11040984D01*
X2812229Y-11040984D02*
X2878896Y-11183841D01*
X2878896Y-11183841D02*
X2945562Y-11040984D01*
X2945562Y-11040984D02*
X2945562Y-11240984D01*
X3126515Y-11240984D02*
X3126515Y-11136222D01*
X3126515Y-11136222D02*
X3116991Y-11117174D01*
X3116991Y-11117174D02*
X3097943Y-11107650D01*
X3097943Y-11107650D02*
X3059848Y-11107650D01*
X3059848Y-11107650D02*
X3040801Y-11117174D01*
X3126515Y-11231460D02*
X3107467Y-11240984D01*
X3107467Y-11240984D02*
X3059848Y-11240984D01*
X3059848Y-11240984D02*
X3040801Y-11231460D01*
X3040801Y-11231460D02*
X3031277Y-11212412D01*
X3031277Y-11212412D02*
X3031277Y-11193365D01*
X3031277Y-11193365D02*
X3040801Y-11174317D01*
X3040801Y-11174317D02*
X3059848Y-11164793D01*
X3059848Y-11164793D02*
X3107467Y-11164793D01*
X3107467Y-11164793D02*
X3126515Y-11155270D01*
X3221753Y-11107650D02*
X3221753Y-11307650D01*
X3221753Y-11117174D02*
X3240801Y-11107650D01*
X3240801Y-11107650D02*
X3278896Y-11107650D01*
X3278896Y-11107650D02*
X3297943Y-11117174D01*
X3297943Y-11117174D02*
X3307467Y-11126698D01*
X3307467Y-11126698D02*
X3316991Y-11145746D01*
X3316991Y-11145746D02*
X3316991Y-11202888D01*
X3316991Y-11202888D02*
X3307467Y-11221936D01*
X3307467Y-11221936D02*
X3297943Y-11231460D01*
X3297943Y-11231460D02*
X3278896Y-11240984D01*
X3278896Y-11240984D02*
X3240801Y-11240984D01*
X3240801Y-11240984D02*
X3221753Y-11231460D01*
X3402705Y-11221936D02*
X3412229Y-11231460D01*
X3412229Y-11231460D02*
X3402705Y-11240984D01*
X3402705Y-11240984D02*
X3393182Y-11231460D01*
X3393182Y-11231460D02*
X3402705Y-11221936D01*
X3402705Y-11221936D02*
X3402705Y-11240984D01*
X3402705Y-11117174D02*
X3412229Y-11126698D01*
X3412229Y-11126698D02*
X3402705Y-11136222D01*
X3402705Y-11136222D02*
X3393182Y-11126698D01*
X3393182Y-11126698D02*
X3402705Y-11117174D01*
X3402705Y-11117174D02*
X3402705Y-11136222D01*
D12*
X1730500Y-11549500D02*
X1770500Y-11589500D01*
X1770500Y-11549500D02*
X1730500Y-11589500D01*
D11*
X2069372Y-11460984D02*
X2088420Y-11460984D01*
X2088420Y-11460984D02*
X2107467Y-11470508D01*
X2107467Y-11470508D02*
X2116991Y-11480031D01*
X2116991Y-11480031D02*
X2126515Y-11499079D01*
X2126515Y-11499079D02*
X2136039Y-11537174D01*
X2136039Y-11537174D02*
X2136039Y-11584793D01*
X2136039Y-11584793D02*
X2126515Y-11622888D01*
X2126515Y-11622888D02*
X2116991Y-11641936D01*
X2116991Y-11641936D02*
X2107467Y-11651460D01*
X2107467Y-11651460D02*
X2088420Y-11660984D01*
X2088420Y-11660984D02*
X2069372Y-11660984D01*
X2069372Y-11660984D02*
X2050324Y-11651460D01*
X2050324Y-11651460D02*
X2040801Y-11641936D01*
X2040801Y-11641936D02*
X2031277Y-11622888D01*
X2031277Y-11622888D02*
X2021753Y-11584793D01*
X2021753Y-11584793D02*
X2021753Y-11537174D01*
X2021753Y-11537174D02*
X2031277Y-11499079D01*
X2031277Y-11499079D02*
X2040801Y-11480031D01*
X2040801Y-11480031D02*
X2050324Y-11470508D01*
X2050324Y-11470508D02*
X2069372Y-11460984D01*
X2221753Y-11641936D02*
X2231277Y-11651460D01*
X2231277Y-11651460D02*
X2221753Y-11660984D01*
X2221753Y-11660984D02*
X2212229Y-11651460D01*
X2212229Y-11651460D02*
X2221753Y-11641936D01*
X2221753Y-11641936D02*
X2221753Y-11660984D01*
X2402705Y-11527650D02*
X2402705Y-11660984D01*
X2355086Y-11451460D02*
X2307467Y-11594317D01*
X2307467Y-11594317D02*
X2431277Y-11594317D01*
X2545563Y-11460984D02*
X2564610Y-11460984D01*
X2564610Y-11460984D02*
X2583658Y-11470508D01*
X2583658Y-11470508D02*
X2593182Y-11480031D01*
X2593182Y-11480031D02*
X2602705Y-11499079D01*
X2602705Y-11499079D02*
X2612229Y-11537174D01*
X2612229Y-11537174D02*
X2612229Y-11584793D01*
X2612229Y-11584793D02*
X2602705Y-11622888D01*
X2602705Y-11622888D02*
X2593182Y-11641936D01*
X2593182Y-11641936D02*
X2583658Y-11651460D01*
X2583658Y-11651460D02*
X2564610Y-11660984D01*
X2564610Y-11660984D02*
X2545563Y-11660984D01*
X2545563Y-11660984D02*
X2526515Y-11651460D01*
X2526515Y-11651460D02*
X2516991Y-11641936D01*
X2516991Y-11641936D02*
X2507467Y-11622888D01*
X2507467Y-11622888D02*
X2497944Y-11584793D01*
X2497944Y-11584793D02*
X2497944Y-11537174D01*
X2497944Y-11537174D02*
X2507467Y-11499079D01*
X2507467Y-11499079D02*
X2516991Y-11480031D01*
X2516991Y-11480031D02*
X2526515Y-11470508D01*
X2526515Y-11470508D02*
X2545563Y-11460984D01*
X2736039Y-11460984D02*
X2755086Y-11460984D01*
X2755086Y-11460984D02*
X2774134Y-11470508D01*
X2774134Y-11470508D02*
X2783658Y-11480031D01*
X2783658Y-11480031D02*
X2793182Y-11499079D01*
X2793182Y-11499079D02*
X2802705Y-11537174D01*
X2802705Y-11537174D02*
X2802705Y-11584793D01*
X2802705Y-11584793D02*
X2793182Y-11622888D01*
X2793182Y-11622888D02*
X2783658Y-11641936D01*
X2783658Y-11641936D02*
X2774134Y-11651460D01*
X2774134Y-11651460D02*
X2755086Y-11660984D01*
X2755086Y-11660984D02*
X2736039Y-11660984D01*
X2736039Y-11660984D02*
X2716991Y-11651460D01*
X2716991Y-11651460D02*
X2707467Y-11641936D01*
X2707467Y-11641936D02*
X2697944Y-11622888D01*
X2697944Y-11622888D02*
X2688420Y-11584793D01*
X2688420Y-11584793D02*
X2688420Y-11537174D01*
X2688420Y-11537174D02*
X2697944Y-11499079D01*
X2697944Y-11499079D02*
X2707467Y-11480031D01*
X2707467Y-11480031D02*
X2716991Y-11470508D01*
X2716991Y-11470508D02*
X2736039Y-11460984D01*
X2888420Y-11660984D02*
X2888420Y-11527650D01*
X2888420Y-11546698D02*
X2897943Y-11537174D01*
X2897943Y-11537174D02*
X2916991Y-11527650D01*
X2916991Y-11527650D02*
X2945563Y-11527650D01*
X2945563Y-11527650D02*
X2964610Y-11537174D01*
X2964610Y-11537174D02*
X2974134Y-11556222D01*
X2974134Y-11556222D02*
X2974134Y-11660984D01*
X2974134Y-11556222D02*
X2983658Y-11537174D01*
X2983658Y-11537174D02*
X3002705Y-11527650D01*
X3002705Y-11527650D02*
X3031277Y-11527650D01*
X3031277Y-11527650D02*
X3050324Y-11537174D01*
X3050324Y-11537174D02*
X3059848Y-11556222D01*
X3059848Y-11556222D02*
X3059848Y-11660984D01*
X3155086Y-11660984D02*
X3155086Y-11527650D01*
X3155086Y-11546698D02*
X3164610Y-11537174D01*
X3164610Y-11537174D02*
X3183658Y-11527650D01*
X3183658Y-11527650D02*
X3212229Y-11527650D01*
X3212229Y-11527650D02*
X3231277Y-11537174D01*
X3231277Y-11537174D02*
X3240801Y-11556222D01*
X3240801Y-11556222D02*
X3240801Y-11660984D01*
X3240801Y-11556222D02*
X3250324Y-11537174D01*
X3250324Y-11537174D02*
X3269372Y-11527650D01*
X3269372Y-11527650D02*
X3297943Y-11527650D01*
X3297943Y-11527650D02*
X3316991Y-11537174D01*
X3316991Y-11537174D02*
X3326515Y-11556222D01*
X3326515Y-11556222D02*
X3326515Y-11660984D01*
X3716991Y-11451460D02*
X3545563Y-11708603D01*
X3974134Y-11460984D02*
X3993182Y-11460984D01*
X3993182Y-11460984D02*
X4012229Y-11470508D01*
X4012229Y-11470508D02*
X4021753Y-11480031D01*
X4021753Y-11480031D02*
X4031277Y-11499079D01*
X4031277Y-11499079D02*
X4040801Y-11537174D01*
X4040801Y-11537174D02*
X4040801Y-11584793D01*
X4040801Y-11584793D02*
X4031277Y-11622888D01*
X4031277Y-11622888D02*
X4021753Y-11641936D01*
X4021753Y-11641936D02*
X4012229Y-11651460D01*
X4012229Y-11651460D02*
X3993182Y-11660984D01*
X3993182Y-11660984D02*
X3974134Y-11660984D01*
X3974134Y-11660984D02*
X3955086Y-11651460D01*
X3955086Y-11651460D02*
X3945563Y-11641936D01*
X3945563Y-11641936D02*
X3936039Y-11622888D01*
X3936039Y-11622888D02*
X3926515Y-11584793D01*
X3926515Y-11584793D02*
X3926515Y-11537174D01*
X3926515Y-11537174D02*
X3936039Y-11499079D01*
X3936039Y-11499079D02*
X3945563Y-11480031D01*
X3945563Y-11480031D02*
X3955086Y-11470508D01*
X3955086Y-11470508D02*
X3974134Y-11460984D01*
X4126515Y-11641936D02*
X4136039Y-11651460D01*
X4136039Y-11651460D02*
X4126515Y-11660984D01*
X4126515Y-11660984D02*
X4116991Y-11651460D01*
X4116991Y-11651460D02*
X4126515Y-11641936D01*
X4126515Y-11641936D02*
X4126515Y-11660984D01*
X4259848Y-11460984D02*
X4278896Y-11460984D01*
X4278896Y-11460984D02*
X4297944Y-11470508D01*
X4297944Y-11470508D02*
X4307468Y-11480031D01*
X4307468Y-11480031D02*
X4316991Y-11499079D01*
X4316991Y-11499079D02*
X4326515Y-11537174D01*
X4326515Y-11537174D02*
X4326515Y-11584793D01*
X4326515Y-11584793D02*
X4316991Y-11622888D01*
X4316991Y-11622888D02*
X4307468Y-11641936D01*
X4307468Y-11641936D02*
X4297944Y-11651460D01*
X4297944Y-11651460D02*
X4278896Y-11660984D01*
X4278896Y-11660984D02*
X4259848Y-11660984D01*
X4259848Y-11660984D02*
X4240801Y-11651460D01*
X4240801Y-11651460D02*
X4231277Y-11641936D01*
X4231277Y-11641936D02*
X4221753Y-11622888D01*
X4221753Y-11622888D02*
X4212229Y-11584793D01*
X4212229Y-11584793D02*
X4212229Y-11537174D01*
X4212229Y-11537174D02*
X4221753Y-11499079D01*
X4221753Y-11499079D02*
X4231277Y-11480031D01*
X4231277Y-11480031D02*
X4240801Y-11470508D01*
X4240801Y-11470508D02*
X4259848Y-11460984D01*
X4516991Y-11660984D02*
X4402706Y-11660984D01*
X4459848Y-11660984D02*
X4459848Y-11460984D01*
X4459848Y-11460984D02*
X4440801Y-11489555D01*
X4440801Y-11489555D02*
X4421753Y-11508603D01*
X4421753Y-11508603D02*
X4402706Y-11518127D01*
X4697944Y-11460984D02*
X4602706Y-11460984D01*
X4602706Y-11460984D02*
X4593182Y-11556222D01*
X4593182Y-11556222D02*
X4602706Y-11546698D01*
X4602706Y-11546698D02*
X4621753Y-11537174D01*
X4621753Y-11537174D02*
X4669372Y-11537174D01*
X4669372Y-11537174D02*
X4688420Y-11546698D01*
X4688420Y-11546698D02*
X4697944Y-11556222D01*
X4697944Y-11556222D02*
X4707468Y-11575269D01*
X4707468Y-11575269D02*
X4707468Y-11622888D01*
X4707468Y-11622888D02*
X4697944Y-11641936D01*
X4697944Y-11641936D02*
X4688420Y-11651460D01*
X4688420Y-11651460D02*
X4669372Y-11660984D01*
X4669372Y-11660984D02*
X4621753Y-11660984D01*
X4621753Y-11660984D02*
X4602706Y-11651460D01*
X4602706Y-11651460D02*
X4593182Y-11641936D01*
X4774134Y-11460984D02*
X4907468Y-11460984D01*
X4907468Y-11460984D02*
X4821753Y-11660984D01*
X4974134Y-11460984D02*
X4974134Y-11499079D01*
X5050325Y-11460984D02*
X5050325Y-11499079D01*
X5345563Y-11737174D02*
X5336039Y-11727650D01*
X5336039Y-11727650D02*
X5316991Y-11699079D01*
X5316991Y-11699079D02*
X5307468Y-11680031D01*
X5307468Y-11680031D02*
X5297944Y-11651460D01*
X5297944Y-11651460D02*
X5288420Y-11603841D01*
X5288420Y-11603841D02*
X5288420Y-11565746D01*
X5288420Y-11565746D02*
X5297944Y-11518127D01*
X5297944Y-11518127D02*
X5307468Y-11489555D01*
X5307468Y-11489555D02*
X5316991Y-11470508D01*
X5316991Y-11470508D02*
X5336039Y-11441936D01*
X5336039Y-11441936D02*
X5345563Y-11432412D01*
X5507468Y-11527650D02*
X5507468Y-11660984D01*
X5459849Y-11451460D02*
X5412230Y-11594317D01*
X5412230Y-11594317D02*
X5536039Y-11594317D01*
X5716991Y-11660984D02*
X5602706Y-11660984D01*
X5659848Y-11660984D02*
X5659848Y-11460984D01*
X5659848Y-11460984D02*
X5640801Y-11489555D01*
X5640801Y-11489555D02*
X5621753Y-11508603D01*
X5621753Y-11508603D02*
X5602706Y-11518127D01*
X5955087Y-11660984D02*
X5955087Y-11460984D01*
X6040801Y-11660984D02*
X6040801Y-11556222D01*
X6040801Y-11556222D02*
X6031277Y-11537174D01*
X6031277Y-11537174D02*
X6012230Y-11527650D01*
X6012230Y-11527650D02*
X5983658Y-11527650D01*
X5983658Y-11527650D02*
X5964610Y-11537174D01*
X5964610Y-11537174D02*
X5955087Y-11546698D01*
X6164610Y-11660984D02*
X6145563Y-11651460D01*
X6145563Y-11651460D02*
X6136039Y-11641936D01*
X6136039Y-11641936D02*
X6126515Y-11622888D01*
X6126515Y-11622888D02*
X6126515Y-11565746D01*
X6126515Y-11565746D02*
X6136039Y-11546698D01*
X6136039Y-11546698D02*
X6145563Y-11537174D01*
X6145563Y-11537174D02*
X6164610Y-11527650D01*
X6164610Y-11527650D02*
X6193182Y-11527650D01*
X6193182Y-11527650D02*
X6212230Y-11537174D01*
X6212230Y-11537174D02*
X6221753Y-11546698D01*
X6221753Y-11546698D02*
X6231277Y-11565746D01*
X6231277Y-11565746D02*
X6231277Y-11622888D01*
X6231277Y-11622888D02*
X6221753Y-11641936D01*
X6221753Y-11641936D02*
X6212230Y-11651460D01*
X6212230Y-11651460D02*
X6193182Y-11660984D01*
X6193182Y-11660984D02*
X6164610Y-11660984D01*
X6345563Y-11660984D02*
X6326515Y-11651460D01*
X6326515Y-11651460D02*
X6316991Y-11632412D01*
X6316991Y-11632412D02*
X6316991Y-11460984D01*
X6497944Y-11651460D02*
X6478896Y-11660984D01*
X6478896Y-11660984D02*
X6440801Y-11660984D01*
X6440801Y-11660984D02*
X6421753Y-11651460D01*
X6421753Y-11651460D02*
X6412230Y-11632412D01*
X6412230Y-11632412D02*
X6412230Y-11556222D01*
X6412230Y-11556222D02*
X6421753Y-11537174D01*
X6421753Y-11537174D02*
X6440801Y-11527650D01*
X6440801Y-11527650D02*
X6478896Y-11527650D01*
X6478896Y-11527650D02*
X6497944Y-11537174D01*
X6497944Y-11537174D02*
X6507468Y-11556222D01*
X6507468Y-11556222D02*
X6507468Y-11575269D01*
X6507468Y-11575269D02*
X6412230Y-11594317D01*
X6583658Y-11651460D02*
X6602706Y-11660984D01*
X6602706Y-11660984D02*
X6640801Y-11660984D01*
X6640801Y-11660984D02*
X6659849Y-11651460D01*
X6659849Y-11651460D02*
X6669372Y-11632412D01*
X6669372Y-11632412D02*
X6669372Y-11622888D01*
X6669372Y-11622888D02*
X6659849Y-11603841D01*
X6659849Y-11603841D02*
X6640801Y-11594317D01*
X6640801Y-11594317D02*
X6612230Y-11594317D01*
X6612230Y-11594317D02*
X6593182Y-11584793D01*
X6593182Y-11584793D02*
X6583658Y-11565746D01*
X6583658Y-11565746D02*
X6583658Y-11556222D01*
X6583658Y-11556222D02*
X6593182Y-11537174D01*
X6593182Y-11537174D02*
X6612230Y-11527650D01*
X6612230Y-11527650D02*
X6640801Y-11527650D01*
X6640801Y-11527650D02*
X6659849Y-11537174D01*
X6736039Y-11737174D02*
X6745563Y-11727650D01*
X6745563Y-11727650D02*
X6764611Y-11699079D01*
X6764611Y-11699079D02*
X6774134Y-11680031D01*
X6774134Y-11680031D02*
X6783658Y-11651460D01*
X6783658Y-11651460D02*
X6793182Y-11603841D01*
X6793182Y-11603841D02*
X6793182Y-11565746D01*
X6793182Y-11565746D02*
X6783658Y-11518127D01*
X6783658Y-11518127D02*
X6774134Y-11489555D01*
X6774134Y-11489555D02*
X6764611Y-11470508D01*
X6764611Y-11470508D02*
X6745563Y-11441936D01*
X6745563Y-11441936D02*
X6736039Y-11432412D01*
D13*
X1770500Y-11833500D02*
G75*
G03*
X1770500Y-11833500I-25000J0D01*
G01*
D11*
X2069372Y-11724984D02*
X2088420Y-11724984D01*
X2088420Y-11724984D02*
X2107467Y-11734508D01*
X2107467Y-11734508D02*
X2116991Y-11744031D01*
X2116991Y-11744031D02*
X2126515Y-11763079D01*
X2126515Y-11763079D02*
X2136039Y-11801174D01*
X2136039Y-11801174D02*
X2136039Y-11848793D01*
X2136039Y-11848793D02*
X2126515Y-11886888D01*
X2126515Y-11886888D02*
X2116991Y-11905936D01*
X2116991Y-11905936D02*
X2107467Y-11915460D01*
X2107467Y-11915460D02*
X2088420Y-11924984D01*
X2088420Y-11924984D02*
X2069372Y-11924984D01*
X2069372Y-11924984D02*
X2050324Y-11915460D01*
X2050324Y-11915460D02*
X2040801Y-11905936D01*
X2040801Y-11905936D02*
X2031277Y-11886888D01*
X2031277Y-11886888D02*
X2021753Y-11848793D01*
X2021753Y-11848793D02*
X2021753Y-11801174D01*
X2021753Y-11801174D02*
X2031277Y-11763079D01*
X2031277Y-11763079D02*
X2040801Y-11744031D01*
X2040801Y-11744031D02*
X2050324Y-11734508D01*
X2050324Y-11734508D02*
X2069372Y-11724984D01*
X2221753Y-11905936D02*
X2231277Y-11915460D01*
X2231277Y-11915460D02*
X2221753Y-11924984D01*
X2221753Y-11924984D02*
X2212229Y-11915460D01*
X2212229Y-11915460D02*
X2221753Y-11905936D01*
X2221753Y-11905936D02*
X2221753Y-11924984D01*
X2412229Y-11724984D02*
X2316991Y-11724984D01*
X2316991Y-11724984D02*
X2307467Y-11820222D01*
X2307467Y-11820222D02*
X2316991Y-11810698D01*
X2316991Y-11810698D02*
X2336039Y-11801174D01*
X2336039Y-11801174D02*
X2383658Y-11801174D01*
X2383658Y-11801174D02*
X2402705Y-11810698D01*
X2402705Y-11810698D02*
X2412229Y-11820222D01*
X2412229Y-11820222D02*
X2421753Y-11839269D01*
X2421753Y-11839269D02*
X2421753Y-11886888D01*
X2421753Y-11886888D02*
X2412229Y-11905936D01*
X2412229Y-11905936D02*
X2402705Y-11915460D01*
X2402705Y-11915460D02*
X2383658Y-11924984D01*
X2383658Y-11924984D02*
X2336039Y-11924984D01*
X2336039Y-11924984D02*
X2316991Y-11915460D01*
X2316991Y-11915460D02*
X2307467Y-11905936D01*
X2545563Y-11724984D02*
X2564610Y-11724984D01*
X2564610Y-11724984D02*
X2583658Y-11734508D01*
X2583658Y-11734508D02*
X2593182Y-11744031D01*
X2593182Y-11744031D02*
X2602705Y-11763079D01*
X2602705Y-11763079D02*
X2612229Y-11801174D01*
X2612229Y-11801174D02*
X2612229Y-11848793D01*
X2612229Y-11848793D02*
X2602705Y-11886888D01*
X2602705Y-11886888D02*
X2593182Y-11905936D01*
X2593182Y-11905936D02*
X2583658Y-11915460D01*
X2583658Y-11915460D02*
X2564610Y-11924984D01*
X2564610Y-11924984D02*
X2545563Y-11924984D01*
X2545563Y-11924984D02*
X2526515Y-11915460D01*
X2526515Y-11915460D02*
X2516991Y-11905936D01*
X2516991Y-11905936D02*
X2507467Y-11886888D01*
X2507467Y-11886888D02*
X2497944Y-11848793D01*
X2497944Y-11848793D02*
X2497944Y-11801174D01*
X2497944Y-11801174D02*
X2507467Y-11763079D01*
X2507467Y-11763079D02*
X2516991Y-11744031D01*
X2516991Y-11744031D02*
X2526515Y-11734508D01*
X2526515Y-11734508D02*
X2545563Y-11724984D01*
X2736039Y-11724984D02*
X2755086Y-11724984D01*
X2755086Y-11724984D02*
X2774134Y-11734508D01*
X2774134Y-11734508D02*
X2783658Y-11744031D01*
X2783658Y-11744031D02*
X2793182Y-11763079D01*
X2793182Y-11763079D02*
X2802705Y-11801174D01*
X2802705Y-11801174D02*
X2802705Y-11848793D01*
X2802705Y-11848793D02*
X2793182Y-11886888D01*
X2793182Y-11886888D02*
X2783658Y-11905936D01*
X2783658Y-11905936D02*
X2774134Y-11915460D01*
X2774134Y-11915460D02*
X2755086Y-11924984D01*
X2755086Y-11924984D02*
X2736039Y-11924984D01*
X2736039Y-11924984D02*
X2716991Y-11915460D01*
X2716991Y-11915460D02*
X2707467Y-11905936D01*
X2707467Y-11905936D02*
X2697944Y-11886888D01*
X2697944Y-11886888D02*
X2688420Y-11848793D01*
X2688420Y-11848793D02*
X2688420Y-11801174D01*
X2688420Y-11801174D02*
X2697944Y-11763079D01*
X2697944Y-11763079D02*
X2707467Y-11744031D01*
X2707467Y-11744031D02*
X2716991Y-11734508D01*
X2716991Y-11734508D02*
X2736039Y-11724984D01*
X2888420Y-11924984D02*
X2888420Y-11791650D01*
X2888420Y-11810698D02*
X2897943Y-11801174D01*
X2897943Y-11801174D02*
X2916991Y-11791650D01*
X2916991Y-11791650D02*
X2945563Y-11791650D01*
X2945563Y-11791650D02*
X2964610Y-11801174D01*
X2964610Y-11801174D02*
X2974134Y-11820222D01*
X2974134Y-11820222D02*
X2974134Y-11924984D01*
X2974134Y-11820222D02*
X2983658Y-11801174D01*
X2983658Y-11801174D02*
X3002705Y-11791650D01*
X3002705Y-11791650D02*
X3031277Y-11791650D01*
X3031277Y-11791650D02*
X3050324Y-11801174D01*
X3050324Y-11801174D02*
X3059848Y-11820222D01*
X3059848Y-11820222D02*
X3059848Y-11924984D01*
X3155086Y-11924984D02*
X3155086Y-11791650D01*
X3155086Y-11810698D02*
X3164610Y-11801174D01*
X3164610Y-11801174D02*
X3183658Y-11791650D01*
X3183658Y-11791650D02*
X3212229Y-11791650D01*
X3212229Y-11791650D02*
X3231277Y-11801174D01*
X3231277Y-11801174D02*
X3240801Y-11820222D01*
X3240801Y-11820222D02*
X3240801Y-11924984D01*
X3240801Y-11820222D02*
X3250324Y-11801174D01*
X3250324Y-11801174D02*
X3269372Y-11791650D01*
X3269372Y-11791650D02*
X3297943Y-11791650D01*
X3297943Y-11791650D02*
X3316991Y-11801174D01*
X3316991Y-11801174D02*
X3326515Y-11820222D01*
X3326515Y-11820222D02*
X3326515Y-11924984D01*
X3716991Y-11715460D02*
X3545563Y-11972603D01*
X3974134Y-11724984D02*
X3993182Y-11724984D01*
X3993182Y-11724984D02*
X4012229Y-11734508D01*
X4012229Y-11734508D02*
X4021753Y-11744031D01*
X4021753Y-11744031D02*
X4031277Y-11763079D01*
X4031277Y-11763079D02*
X4040801Y-11801174D01*
X4040801Y-11801174D02*
X4040801Y-11848793D01*
X4040801Y-11848793D02*
X4031277Y-11886888D01*
X4031277Y-11886888D02*
X4021753Y-11905936D01*
X4021753Y-11905936D02*
X4012229Y-11915460D01*
X4012229Y-11915460D02*
X3993182Y-11924984D01*
X3993182Y-11924984D02*
X3974134Y-11924984D01*
X3974134Y-11924984D02*
X3955086Y-11915460D01*
X3955086Y-11915460D02*
X3945563Y-11905936D01*
X3945563Y-11905936D02*
X3936039Y-11886888D01*
X3936039Y-11886888D02*
X3926515Y-11848793D01*
X3926515Y-11848793D02*
X3926515Y-11801174D01*
X3926515Y-11801174D02*
X3936039Y-11763079D01*
X3936039Y-11763079D02*
X3945563Y-11744031D01*
X3945563Y-11744031D02*
X3955086Y-11734508D01*
X3955086Y-11734508D02*
X3974134Y-11724984D01*
X4126515Y-11905936D02*
X4136039Y-11915460D01*
X4136039Y-11915460D02*
X4126515Y-11924984D01*
X4126515Y-11924984D02*
X4116991Y-11915460D01*
X4116991Y-11915460D02*
X4126515Y-11905936D01*
X4126515Y-11905936D02*
X4126515Y-11924984D01*
X4259848Y-11724984D02*
X4278896Y-11724984D01*
X4278896Y-11724984D02*
X4297944Y-11734508D01*
X4297944Y-11734508D02*
X4307468Y-11744031D01*
X4307468Y-11744031D02*
X4316991Y-11763079D01*
X4316991Y-11763079D02*
X4326515Y-11801174D01*
X4326515Y-11801174D02*
X4326515Y-11848793D01*
X4326515Y-11848793D02*
X4316991Y-11886888D01*
X4316991Y-11886888D02*
X4307468Y-11905936D01*
X4307468Y-11905936D02*
X4297944Y-11915460D01*
X4297944Y-11915460D02*
X4278896Y-11924984D01*
X4278896Y-11924984D02*
X4259848Y-11924984D01*
X4259848Y-11924984D02*
X4240801Y-11915460D01*
X4240801Y-11915460D02*
X4231277Y-11905936D01*
X4231277Y-11905936D02*
X4221753Y-11886888D01*
X4221753Y-11886888D02*
X4212229Y-11848793D01*
X4212229Y-11848793D02*
X4212229Y-11801174D01*
X4212229Y-11801174D02*
X4221753Y-11763079D01*
X4221753Y-11763079D02*
X4231277Y-11744031D01*
X4231277Y-11744031D02*
X4240801Y-11734508D01*
X4240801Y-11734508D02*
X4259848Y-11724984D01*
X4516991Y-11924984D02*
X4402706Y-11924984D01*
X4459848Y-11924984D02*
X4459848Y-11724984D01*
X4459848Y-11724984D02*
X4440801Y-11753555D01*
X4440801Y-11753555D02*
X4421753Y-11772603D01*
X4421753Y-11772603D02*
X4402706Y-11782127D01*
X4612229Y-11924984D02*
X4650325Y-11924984D01*
X4650325Y-11924984D02*
X4669372Y-11915460D01*
X4669372Y-11915460D02*
X4678896Y-11905936D01*
X4678896Y-11905936D02*
X4697944Y-11877365D01*
X4697944Y-11877365D02*
X4707468Y-11839269D01*
X4707468Y-11839269D02*
X4707468Y-11763079D01*
X4707468Y-11763079D02*
X4697944Y-11744031D01*
X4697944Y-11744031D02*
X4688420Y-11734508D01*
X4688420Y-11734508D02*
X4669372Y-11724984D01*
X4669372Y-11724984D02*
X4631277Y-11724984D01*
X4631277Y-11724984D02*
X4612229Y-11734508D01*
X4612229Y-11734508D02*
X4602706Y-11744031D01*
X4602706Y-11744031D02*
X4593182Y-11763079D01*
X4593182Y-11763079D02*
X4593182Y-11810698D01*
X4593182Y-11810698D02*
X4602706Y-11829746D01*
X4602706Y-11829746D02*
X4612229Y-11839269D01*
X4612229Y-11839269D02*
X4631277Y-11848793D01*
X4631277Y-11848793D02*
X4669372Y-11848793D01*
X4669372Y-11848793D02*
X4688420Y-11839269D01*
X4688420Y-11839269D02*
X4697944Y-11829746D01*
X4697944Y-11829746D02*
X4707468Y-11810698D01*
X4774134Y-11724984D02*
X4907468Y-11724984D01*
X4907468Y-11724984D02*
X4821753Y-11924984D01*
X4974134Y-11724984D02*
X4974134Y-11763079D01*
X5050325Y-11724984D02*
X5050325Y-11763079D01*
X5345563Y-12001174D02*
X5336039Y-11991650D01*
X5336039Y-11991650D02*
X5316991Y-11963079D01*
X5316991Y-11963079D02*
X5307468Y-11944031D01*
X5307468Y-11944031D02*
X5297944Y-11915460D01*
X5297944Y-11915460D02*
X5288420Y-11867841D01*
X5288420Y-11867841D02*
X5288420Y-11829746D01*
X5288420Y-11829746D02*
X5297944Y-11782127D01*
X5297944Y-11782127D02*
X5307468Y-11753555D01*
X5307468Y-11753555D02*
X5316991Y-11734508D01*
X5316991Y-11734508D02*
X5336039Y-11705936D01*
X5336039Y-11705936D02*
X5345563Y-11696412D01*
X5402706Y-11724984D02*
X5526515Y-11724984D01*
X5526515Y-11724984D02*
X5459849Y-11801174D01*
X5459849Y-11801174D02*
X5488420Y-11801174D01*
X5488420Y-11801174D02*
X5507468Y-11810698D01*
X5507468Y-11810698D02*
X5516991Y-11820222D01*
X5516991Y-11820222D02*
X5526515Y-11839269D01*
X5526515Y-11839269D02*
X5526515Y-11886888D01*
X5526515Y-11886888D02*
X5516991Y-11905936D01*
X5516991Y-11905936D02*
X5507468Y-11915460D01*
X5507468Y-11915460D02*
X5488420Y-11924984D01*
X5488420Y-11924984D02*
X5431277Y-11924984D01*
X5431277Y-11924984D02*
X5412230Y-11915460D01*
X5412230Y-11915460D02*
X5402706Y-11905936D01*
X5602706Y-11744031D02*
X5612229Y-11734508D01*
X5612229Y-11734508D02*
X5631277Y-11724984D01*
X5631277Y-11724984D02*
X5678896Y-11724984D01*
X5678896Y-11724984D02*
X5697944Y-11734508D01*
X5697944Y-11734508D02*
X5707468Y-11744031D01*
X5707468Y-11744031D02*
X5716991Y-11763079D01*
X5716991Y-11763079D02*
X5716991Y-11782127D01*
X5716991Y-11782127D02*
X5707468Y-11810698D01*
X5707468Y-11810698D02*
X5593182Y-11924984D01*
X5593182Y-11924984D02*
X5716991Y-11924984D01*
X5955087Y-11924984D02*
X5955087Y-11724984D01*
X6040801Y-11924984D02*
X6040801Y-11820222D01*
X6040801Y-11820222D02*
X6031277Y-11801174D01*
X6031277Y-11801174D02*
X6012230Y-11791650D01*
X6012230Y-11791650D02*
X5983658Y-11791650D01*
X5983658Y-11791650D02*
X5964610Y-11801174D01*
X5964610Y-11801174D02*
X5955087Y-11810698D01*
X6164610Y-11924984D02*
X6145563Y-11915460D01*
X6145563Y-11915460D02*
X6136039Y-11905936D01*
X6136039Y-11905936D02*
X6126515Y-11886888D01*
X6126515Y-11886888D02*
X6126515Y-11829746D01*
X6126515Y-11829746D02*
X6136039Y-11810698D01*
X6136039Y-11810698D02*
X6145563Y-11801174D01*
X6145563Y-11801174D02*
X6164610Y-11791650D01*
X6164610Y-11791650D02*
X6193182Y-11791650D01*
X6193182Y-11791650D02*
X6212230Y-11801174D01*
X6212230Y-11801174D02*
X6221753Y-11810698D01*
X6221753Y-11810698D02*
X6231277Y-11829746D01*
X6231277Y-11829746D02*
X6231277Y-11886888D01*
X6231277Y-11886888D02*
X6221753Y-11905936D01*
X6221753Y-11905936D02*
X6212230Y-11915460D01*
X6212230Y-11915460D02*
X6193182Y-11924984D01*
X6193182Y-11924984D02*
X6164610Y-11924984D01*
X6345563Y-11924984D02*
X6326515Y-11915460D01*
X6326515Y-11915460D02*
X6316991Y-11896412D01*
X6316991Y-11896412D02*
X6316991Y-11724984D01*
X6497944Y-11915460D02*
X6478896Y-11924984D01*
X6478896Y-11924984D02*
X6440801Y-11924984D01*
X6440801Y-11924984D02*
X6421753Y-11915460D01*
X6421753Y-11915460D02*
X6412230Y-11896412D01*
X6412230Y-11896412D02*
X6412230Y-11820222D01*
X6412230Y-11820222D02*
X6421753Y-11801174D01*
X6421753Y-11801174D02*
X6440801Y-11791650D01*
X6440801Y-11791650D02*
X6478896Y-11791650D01*
X6478896Y-11791650D02*
X6497944Y-11801174D01*
X6497944Y-11801174D02*
X6507468Y-11820222D01*
X6507468Y-11820222D02*
X6507468Y-11839269D01*
X6507468Y-11839269D02*
X6412230Y-11858317D01*
X6583658Y-11915460D02*
X6602706Y-11924984D01*
X6602706Y-11924984D02*
X6640801Y-11924984D01*
X6640801Y-11924984D02*
X6659849Y-11915460D01*
X6659849Y-11915460D02*
X6669372Y-11896412D01*
X6669372Y-11896412D02*
X6669372Y-11886888D01*
X6669372Y-11886888D02*
X6659849Y-11867841D01*
X6659849Y-11867841D02*
X6640801Y-11858317D01*
X6640801Y-11858317D02*
X6612230Y-11858317D01*
X6612230Y-11858317D02*
X6593182Y-11848793D01*
X6593182Y-11848793D02*
X6583658Y-11829746D01*
X6583658Y-11829746D02*
X6583658Y-11820222D01*
X6583658Y-11820222D02*
X6593182Y-11801174D01*
X6593182Y-11801174D02*
X6612230Y-11791650D01*
X6612230Y-11791650D02*
X6640801Y-11791650D01*
X6640801Y-11791650D02*
X6659849Y-11801174D01*
X6736039Y-12001174D02*
X6745563Y-11991650D01*
X6745563Y-11991650D02*
X6764611Y-11963079D01*
X6764611Y-11963079D02*
X6774134Y-11944031D01*
X6774134Y-11944031D02*
X6783658Y-11915460D01*
X6783658Y-11915460D02*
X6793182Y-11867841D01*
X6793182Y-11867841D02*
X6793182Y-11829746D01*
X6793182Y-11829746D02*
X6783658Y-11782127D01*
X6783658Y-11782127D02*
X6774134Y-11753555D01*
X6774134Y-11753555D02*
X6764611Y-11734508D01*
X6764611Y-11734508D02*
X6745563Y-11705936D01*
X6745563Y-11705936D02*
X6736039Y-11696412D01*
D14*
X1732000Y-12059000D02*
X1732000Y-12136000D01*
X1693500Y-12097500D02*
X1770500Y-12097500D01*
D11*
X2069372Y-11988984D02*
X2088420Y-11988984D01*
X2088420Y-11988984D02*
X2107467Y-11998508D01*
X2107467Y-11998508D02*
X2116991Y-12008031D01*
X2116991Y-12008031D02*
X2126515Y-12027079D01*
X2126515Y-12027079D02*
X2136039Y-12065174D01*
X2136039Y-12065174D02*
X2136039Y-12112793D01*
X2136039Y-12112793D02*
X2126515Y-12150888D01*
X2126515Y-12150888D02*
X2116991Y-12169936D01*
X2116991Y-12169936D02*
X2107467Y-12179460D01*
X2107467Y-12179460D02*
X2088420Y-12188984D01*
X2088420Y-12188984D02*
X2069372Y-12188984D01*
X2069372Y-12188984D02*
X2050324Y-12179460D01*
X2050324Y-12179460D02*
X2040801Y-12169936D01*
X2040801Y-12169936D02*
X2031277Y-12150888D01*
X2031277Y-12150888D02*
X2021753Y-12112793D01*
X2021753Y-12112793D02*
X2021753Y-12065174D01*
X2021753Y-12065174D02*
X2031277Y-12027079D01*
X2031277Y-12027079D02*
X2040801Y-12008031D01*
X2040801Y-12008031D02*
X2050324Y-11998508D01*
X2050324Y-11998508D02*
X2069372Y-11988984D01*
X2221753Y-12169936D02*
X2231277Y-12179460D01*
X2231277Y-12179460D02*
X2221753Y-12188984D01*
X2221753Y-12188984D02*
X2212229Y-12179460D01*
X2212229Y-12179460D02*
X2221753Y-12169936D01*
X2221753Y-12169936D02*
X2221753Y-12188984D01*
X2297944Y-11988984D02*
X2431277Y-11988984D01*
X2431277Y-11988984D02*
X2345563Y-12188984D01*
X2488420Y-11988984D02*
X2621753Y-11988984D01*
X2621753Y-11988984D02*
X2536039Y-12188984D01*
X2736039Y-11988984D02*
X2755086Y-11988984D01*
X2755086Y-11988984D02*
X2774134Y-11998508D01*
X2774134Y-11998508D02*
X2783658Y-12008031D01*
X2783658Y-12008031D02*
X2793182Y-12027079D01*
X2793182Y-12027079D02*
X2802705Y-12065174D01*
X2802705Y-12065174D02*
X2802705Y-12112793D01*
X2802705Y-12112793D02*
X2793182Y-12150888D01*
X2793182Y-12150888D02*
X2783658Y-12169936D01*
X2783658Y-12169936D02*
X2774134Y-12179460D01*
X2774134Y-12179460D02*
X2755086Y-12188984D01*
X2755086Y-12188984D02*
X2736039Y-12188984D01*
X2736039Y-12188984D02*
X2716991Y-12179460D01*
X2716991Y-12179460D02*
X2707467Y-12169936D01*
X2707467Y-12169936D02*
X2697944Y-12150888D01*
X2697944Y-12150888D02*
X2688420Y-12112793D01*
X2688420Y-12112793D02*
X2688420Y-12065174D01*
X2688420Y-12065174D02*
X2697944Y-12027079D01*
X2697944Y-12027079D02*
X2707467Y-12008031D01*
X2707467Y-12008031D02*
X2716991Y-11998508D01*
X2716991Y-11998508D02*
X2736039Y-11988984D01*
X2888420Y-12188984D02*
X2888420Y-12055650D01*
X2888420Y-12074698D02*
X2897943Y-12065174D01*
X2897943Y-12065174D02*
X2916991Y-12055650D01*
X2916991Y-12055650D02*
X2945563Y-12055650D01*
X2945563Y-12055650D02*
X2964610Y-12065174D01*
X2964610Y-12065174D02*
X2974134Y-12084222D01*
X2974134Y-12084222D02*
X2974134Y-12188984D01*
X2974134Y-12084222D02*
X2983658Y-12065174D01*
X2983658Y-12065174D02*
X3002705Y-12055650D01*
X3002705Y-12055650D02*
X3031277Y-12055650D01*
X3031277Y-12055650D02*
X3050324Y-12065174D01*
X3050324Y-12065174D02*
X3059848Y-12084222D01*
X3059848Y-12084222D02*
X3059848Y-12188984D01*
X3155086Y-12188984D02*
X3155086Y-12055650D01*
X3155086Y-12074698D02*
X3164610Y-12065174D01*
X3164610Y-12065174D02*
X3183658Y-12055650D01*
X3183658Y-12055650D02*
X3212229Y-12055650D01*
X3212229Y-12055650D02*
X3231277Y-12065174D01*
X3231277Y-12065174D02*
X3240801Y-12084222D01*
X3240801Y-12084222D02*
X3240801Y-12188984D01*
X3240801Y-12084222D02*
X3250324Y-12065174D01*
X3250324Y-12065174D02*
X3269372Y-12055650D01*
X3269372Y-12055650D02*
X3297943Y-12055650D01*
X3297943Y-12055650D02*
X3316991Y-12065174D01*
X3316991Y-12065174D02*
X3326515Y-12084222D01*
X3326515Y-12084222D02*
X3326515Y-12188984D01*
X3716991Y-11979460D02*
X3545563Y-12236603D01*
X3974134Y-11988984D02*
X3993182Y-11988984D01*
X3993182Y-11988984D02*
X4012229Y-11998508D01*
X4012229Y-11998508D02*
X4021753Y-12008031D01*
X4021753Y-12008031D02*
X4031277Y-12027079D01*
X4031277Y-12027079D02*
X4040801Y-12065174D01*
X4040801Y-12065174D02*
X4040801Y-12112793D01*
X4040801Y-12112793D02*
X4031277Y-12150888D01*
X4031277Y-12150888D02*
X4021753Y-12169936D01*
X4021753Y-12169936D02*
X4012229Y-12179460D01*
X4012229Y-12179460D02*
X3993182Y-12188984D01*
X3993182Y-12188984D02*
X3974134Y-12188984D01*
X3974134Y-12188984D02*
X3955086Y-12179460D01*
X3955086Y-12179460D02*
X3945563Y-12169936D01*
X3945563Y-12169936D02*
X3936039Y-12150888D01*
X3936039Y-12150888D02*
X3926515Y-12112793D01*
X3926515Y-12112793D02*
X3926515Y-12065174D01*
X3926515Y-12065174D02*
X3936039Y-12027079D01*
X3936039Y-12027079D02*
X3945563Y-12008031D01*
X3945563Y-12008031D02*
X3955086Y-11998508D01*
X3955086Y-11998508D02*
X3974134Y-11988984D01*
X4126515Y-12169936D02*
X4136039Y-12179460D01*
X4136039Y-12179460D02*
X4126515Y-12188984D01*
X4126515Y-12188984D02*
X4116991Y-12179460D01*
X4116991Y-12179460D02*
X4126515Y-12169936D01*
X4126515Y-12169936D02*
X4126515Y-12188984D01*
X4259848Y-11988984D02*
X4278896Y-11988984D01*
X4278896Y-11988984D02*
X4297944Y-11998508D01*
X4297944Y-11998508D02*
X4307468Y-12008031D01*
X4307468Y-12008031D02*
X4316991Y-12027079D01*
X4316991Y-12027079D02*
X4326515Y-12065174D01*
X4326515Y-12065174D02*
X4326515Y-12112793D01*
X4326515Y-12112793D02*
X4316991Y-12150888D01*
X4316991Y-12150888D02*
X4307468Y-12169936D01*
X4307468Y-12169936D02*
X4297944Y-12179460D01*
X4297944Y-12179460D02*
X4278896Y-12188984D01*
X4278896Y-12188984D02*
X4259848Y-12188984D01*
X4259848Y-12188984D02*
X4240801Y-12179460D01*
X4240801Y-12179460D02*
X4231277Y-12169936D01*
X4231277Y-12169936D02*
X4221753Y-12150888D01*
X4221753Y-12150888D02*
X4212229Y-12112793D01*
X4212229Y-12112793D02*
X4212229Y-12065174D01*
X4212229Y-12065174D02*
X4221753Y-12027079D01*
X4221753Y-12027079D02*
X4231277Y-12008031D01*
X4231277Y-12008031D02*
X4240801Y-11998508D01*
X4240801Y-11998508D02*
X4259848Y-11988984D01*
X4393182Y-11988984D02*
X4516991Y-11988984D01*
X4516991Y-11988984D02*
X4450325Y-12065174D01*
X4450325Y-12065174D02*
X4478896Y-12065174D01*
X4478896Y-12065174D02*
X4497944Y-12074698D01*
X4497944Y-12074698D02*
X4507468Y-12084222D01*
X4507468Y-12084222D02*
X4516991Y-12103269D01*
X4516991Y-12103269D02*
X4516991Y-12150888D01*
X4516991Y-12150888D02*
X4507468Y-12169936D01*
X4507468Y-12169936D02*
X4497944Y-12179460D01*
X4497944Y-12179460D02*
X4478896Y-12188984D01*
X4478896Y-12188984D02*
X4421753Y-12188984D01*
X4421753Y-12188984D02*
X4402706Y-12179460D01*
X4402706Y-12179460D02*
X4393182Y-12169936D01*
X4640801Y-11988984D02*
X4659849Y-11988984D01*
X4659849Y-11988984D02*
X4678896Y-11998508D01*
X4678896Y-11998508D02*
X4688420Y-12008031D01*
X4688420Y-12008031D02*
X4697944Y-12027079D01*
X4697944Y-12027079D02*
X4707468Y-12065174D01*
X4707468Y-12065174D02*
X4707468Y-12112793D01*
X4707468Y-12112793D02*
X4697944Y-12150888D01*
X4697944Y-12150888D02*
X4688420Y-12169936D01*
X4688420Y-12169936D02*
X4678896Y-12179460D01*
X4678896Y-12179460D02*
X4659849Y-12188984D01*
X4659849Y-12188984D02*
X4640801Y-12188984D01*
X4640801Y-12188984D02*
X4621753Y-12179460D01*
X4621753Y-12179460D02*
X4612229Y-12169936D01*
X4612229Y-12169936D02*
X4602706Y-12150888D01*
X4602706Y-12150888D02*
X4593182Y-12112793D01*
X4593182Y-12112793D02*
X4593182Y-12065174D01*
X4593182Y-12065174D02*
X4602706Y-12027079D01*
X4602706Y-12027079D02*
X4612229Y-12008031D01*
X4612229Y-12008031D02*
X4621753Y-11998508D01*
X4621753Y-11998508D02*
X4640801Y-11988984D01*
X4774134Y-11988984D02*
X4897944Y-11988984D01*
X4897944Y-11988984D02*
X4831277Y-12065174D01*
X4831277Y-12065174D02*
X4859849Y-12065174D01*
X4859849Y-12065174D02*
X4878896Y-12074698D01*
X4878896Y-12074698D02*
X4888420Y-12084222D01*
X4888420Y-12084222D02*
X4897944Y-12103269D01*
X4897944Y-12103269D02*
X4897944Y-12150888D01*
X4897944Y-12150888D02*
X4888420Y-12169936D01*
X4888420Y-12169936D02*
X4878896Y-12179460D01*
X4878896Y-12179460D02*
X4859849Y-12188984D01*
X4859849Y-12188984D02*
X4802706Y-12188984D01*
X4802706Y-12188984D02*
X4783658Y-12179460D01*
X4783658Y-12179460D02*
X4774134Y-12169936D01*
X4974134Y-11988984D02*
X4974134Y-12027079D01*
X5050325Y-11988984D02*
X5050325Y-12027079D01*
X5345563Y-12265174D02*
X5336039Y-12255650D01*
X5336039Y-12255650D02*
X5316991Y-12227079D01*
X5316991Y-12227079D02*
X5307468Y-12208031D01*
X5307468Y-12208031D02*
X5297944Y-12179460D01*
X5297944Y-12179460D02*
X5288420Y-12131841D01*
X5288420Y-12131841D02*
X5288420Y-12093746D01*
X5288420Y-12093746D02*
X5297944Y-12046127D01*
X5297944Y-12046127D02*
X5307468Y-12017555D01*
X5307468Y-12017555D02*
X5316991Y-11998508D01*
X5316991Y-11998508D02*
X5336039Y-11969936D01*
X5336039Y-11969936D02*
X5345563Y-11960412D01*
X5526515Y-12188984D02*
X5412230Y-12188984D01*
X5469372Y-12188984D02*
X5469372Y-11988984D01*
X5469372Y-11988984D02*
X5450325Y-12017555D01*
X5450325Y-12017555D02*
X5431277Y-12036603D01*
X5431277Y-12036603D02*
X5412230Y-12046127D01*
X5697944Y-12055650D02*
X5697944Y-12188984D01*
X5650325Y-11979460D02*
X5602706Y-12122317D01*
X5602706Y-12122317D02*
X5726515Y-12122317D01*
X5955087Y-12188984D02*
X5955087Y-11988984D01*
X6040801Y-12188984D02*
X6040801Y-12084222D01*
X6040801Y-12084222D02*
X6031277Y-12065174D01*
X6031277Y-12065174D02*
X6012230Y-12055650D01*
X6012230Y-12055650D02*
X5983658Y-12055650D01*
X5983658Y-12055650D02*
X5964610Y-12065174D01*
X5964610Y-12065174D02*
X5955087Y-12074698D01*
X6164610Y-12188984D02*
X6145563Y-12179460D01*
X6145563Y-12179460D02*
X6136039Y-12169936D01*
X6136039Y-12169936D02*
X6126515Y-12150888D01*
X6126515Y-12150888D02*
X6126515Y-12093746D01*
X6126515Y-12093746D02*
X6136039Y-12074698D01*
X6136039Y-12074698D02*
X6145563Y-12065174D01*
X6145563Y-12065174D02*
X6164610Y-12055650D01*
X6164610Y-12055650D02*
X6193182Y-12055650D01*
X6193182Y-12055650D02*
X6212230Y-12065174D01*
X6212230Y-12065174D02*
X6221753Y-12074698D01*
X6221753Y-12074698D02*
X6231277Y-12093746D01*
X6231277Y-12093746D02*
X6231277Y-12150888D01*
X6231277Y-12150888D02*
X6221753Y-12169936D01*
X6221753Y-12169936D02*
X6212230Y-12179460D01*
X6212230Y-12179460D02*
X6193182Y-12188984D01*
X6193182Y-12188984D02*
X6164610Y-12188984D01*
X6345563Y-12188984D02*
X6326515Y-12179460D01*
X6326515Y-12179460D02*
X6316991Y-12160412D01*
X6316991Y-12160412D02*
X6316991Y-11988984D01*
X6497944Y-12179460D02*
X6478896Y-12188984D01*
X6478896Y-12188984D02*
X6440801Y-12188984D01*
X6440801Y-12188984D02*
X6421753Y-12179460D01*
X6421753Y-12179460D02*
X6412230Y-12160412D01*
X6412230Y-12160412D02*
X6412230Y-12084222D01*
X6412230Y-12084222D02*
X6421753Y-12065174D01*
X6421753Y-12065174D02*
X6440801Y-12055650D01*
X6440801Y-12055650D02*
X6478896Y-12055650D01*
X6478896Y-12055650D02*
X6497944Y-12065174D01*
X6497944Y-12065174D02*
X6507468Y-12084222D01*
X6507468Y-12084222D02*
X6507468Y-12103269D01*
X6507468Y-12103269D02*
X6412230Y-12122317D01*
X6583658Y-12179460D02*
X6602706Y-12188984D01*
X6602706Y-12188984D02*
X6640801Y-12188984D01*
X6640801Y-12188984D02*
X6659849Y-12179460D01*
X6659849Y-12179460D02*
X6669372Y-12160412D01*
X6669372Y-12160412D02*
X6669372Y-12150888D01*
X6669372Y-12150888D02*
X6659849Y-12131841D01*
X6659849Y-12131841D02*
X6640801Y-12122317D01*
X6640801Y-12122317D02*
X6612230Y-12122317D01*
X6612230Y-12122317D02*
X6593182Y-12112793D01*
X6593182Y-12112793D02*
X6583658Y-12093746D01*
X6583658Y-12093746D02*
X6583658Y-12084222D01*
X6583658Y-12084222D02*
X6593182Y-12065174D01*
X6593182Y-12065174D02*
X6612230Y-12055650D01*
X6612230Y-12055650D02*
X6640801Y-12055650D01*
X6640801Y-12055650D02*
X6659849Y-12065174D01*
X6736039Y-12265174D02*
X6745563Y-12255650D01*
X6745563Y-12255650D02*
X6764611Y-12227079D01*
X6764611Y-12227079D02*
X6774134Y-12208031D01*
X6774134Y-12208031D02*
X6783658Y-12179460D01*
X6783658Y-12179460D02*
X6793182Y-12131841D01*
X6793182Y-12131841D02*
X6793182Y-12093746D01*
X6793182Y-12093746D02*
X6783658Y-12046127D01*
X6783658Y-12046127D02*
X6774134Y-12017555D01*
X6774134Y-12017555D02*
X6764611Y-11998508D01*
X6764611Y-11998508D02*
X6745563Y-11969936D01*
X6745563Y-11969936D02*
X6736039Y-11960412D01*
D15*
X1759077Y-12389077D02*
X1759077Y-12333923D01*
X1703923Y-12333923D01*
X1703923Y-12389077D01*
X1759077Y-12389077D01*
D11*
X2069372Y-12252984D02*
X2088420Y-12252984D01*
X2088420Y-12252984D02*
X2107467Y-12262508D01*
X2107467Y-12262508D02*
X2116991Y-12272031D01*
X2116991Y-12272031D02*
X2126515Y-12291079D01*
X2126515Y-12291079D02*
X2136039Y-12329174D01*
X2136039Y-12329174D02*
X2136039Y-12376793D01*
X2136039Y-12376793D02*
X2126515Y-12414888D01*
X2126515Y-12414888D02*
X2116991Y-12433936D01*
X2116991Y-12433936D02*
X2107467Y-12443460D01*
X2107467Y-12443460D02*
X2088420Y-12452984D01*
X2088420Y-12452984D02*
X2069372Y-12452984D01*
X2069372Y-12452984D02*
X2050324Y-12443460D01*
X2050324Y-12443460D02*
X2040801Y-12433936D01*
X2040801Y-12433936D02*
X2031277Y-12414888D01*
X2031277Y-12414888D02*
X2021753Y-12376793D01*
X2021753Y-12376793D02*
X2021753Y-12329174D01*
X2021753Y-12329174D02*
X2031277Y-12291079D01*
X2031277Y-12291079D02*
X2040801Y-12272031D01*
X2040801Y-12272031D02*
X2050324Y-12262508D01*
X2050324Y-12262508D02*
X2069372Y-12252984D01*
X2221753Y-12433936D02*
X2231277Y-12443460D01*
X2231277Y-12443460D02*
X2221753Y-12452984D01*
X2221753Y-12452984D02*
X2212229Y-12443460D01*
X2212229Y-12443460D02*
X2221753Y-12433936D01*
X2221753Y-12433936D02*
X2221753Y-12452984D01*
X2297944Y-12252984D02*
X2431277Y-12252984D01*
X2431277Y-12252984D02*
X2345563Y-12452984D01*
X2536039Y-12338698D02*
X2516991Y-12329174D01*
X2516991Y-12329174D02*
X2507467Y-12319650D01*
X2507467Y-12319650D02*
X2497944Y-12300603D01*
X2497944Y-12300603D02*
X2497944Y-12291079D01*
X2497944Y-12291079D02*
X2507467Y-12272031D01*
X2507467Y-12272031D02*
X2516991Y-12262508D01*
X2516991Y-12262508D02*
X2536039Y-12252984D01*
X2536039Y-12252984D02*
X2574134Y-12252984D01*
X2574134Y-12252984D02*
X2593182Y-12262508D01*
X2593182Y-12262508D02*
X2602705Y-12272031D01*
X2602705Y-12272031D02*
X2612229Y-12291079D01*
X2612229Y-12291079D02*
X2612229Y-12300603D01*
X2612229Y-12300603D02*
X2602705Y-12319650D01*
X2602705Y-12319650D02*
X2593182Y-12329174D01*
X2593182Y-12329174D02*
X2574134Y-12338698D01*
X2574134Y-12338698D02*
X2536039Y-12338698D01*
X2536039Y-12338698D02*
X2516991Y-12348222D01*
X2516991Y-12348222D02*
X2507467Y-12357746D01*
X2507467Y-12357746D02*
X2497944Y-12376793D01*
X2497944Y-12376793D02*
X2497944Y-12414888D01*
X2497944Y-12414888D02*
X2507467Y-12433936D01*
X2507467Y-12433936D02*
X2516991Y-12443460D01*
X2516991Y-12443460D02*
X2536039Y-12452984D01*
X2536039Y-12452984D02*
X2574134Y-12452984D01*
X2574134Y-12452984D02*
X2593182Y-12443460D01*
X2593182Y-12443460D02*
X2602705Y-12433936D01*
X2602705Y-12433936D02*
X2612229Y-12414888D01*
X2612229Y-12414888D02*
X2612229Y-12376793D01*
X2612229Y-12376793D02*
X2602705Y-12357746D01*
X2602705Y-12357746D02*
X2593182Y-12348222D01*
X2593182Y-12348222D02*
X2574134Y-12338698D01*
X2736039Y-12252984D02*
X2755086Y-12252984D01*
X2755086Y-12252984D02*
X2774134Y-12262508D01*
X2774134Y-12262508D02*
X2783658Y-12272031D01*
X2783658Y-12272031D02*
X2793182Y-12291079D01*
X2793182Y-12291079D02*
X2802705Y-12329174D01*
X2802705Y-12329174D02*
X2802705Y-12376793D01*
X2802705Y-12376793D02*
X2793182Y-12414888D01*
X2793182Y-12414888D02*
X2783658Y-12433936D01*
X2783658Y-12433936D02*
X2774134Y-12443460D01*
X2774134Y-12443460D02*
X2755086Y-12452984D01*
X2755086Y-12452984D02*
X2736039Y-12452984D01*
X2736039Y-12452984D02*
X2716991Y-12443460D01*
X2716991Y-12443460D02*
X2707467Y-12433936D01*
X2707467Y-12433936D02*
X2697944Y-12414888D01*
X2697944Y-12414888D02*
X2688420Y-12376793D01*
X2688420Y-12376793D02*
X2688420Y-12329174D01*
X2688420Y-12329174D02*
X2697944Y-12291079D01*
X2697944Y-12291079D02*
X2707467Y-12272031D01*
X2707467Y-12272031D02*
X2716991Y-12262508D01*
X2716991Y-12262508D02*
X2736039Y-12252984D01*
X2888420Y-12452984D02*
X2888420Y-12319650D01*
X2888420Y-12338698D02*
X2897943Y-12329174D01*
X2897943Y-12329174D02*
X2916991Y-12319650D01*
X2916991Y-12319650D02*
X2945563Y-12319650D01*
X2945563Y-12319650D02*
X2964610Y-12329174D01*
X2964610Y-12329174D02*
X2974134Y-12348222D01*
X2974134Y-12348222D02*
X2974134Y-12452984D01*
X2974134Y-12348222D02*
X2983658Y-12329174D01*
X2983658Y-12329174D02*
X3002705Y-12319650D01*
X3002705Y-12319650D02*
X3031277Y-12319650D01*
X3031277Y-12319650D02*
X3050324Y-12329174D01*
X3050324Y-12329174D02*
X3059848Y-12348222D01*
X3059848Y-12348222D02*
X3059848Y-12452984D01*
X3155086Y-12452984D02*
X3155086Y-12319650D01*
X3155086Y-12338698D02*
X3164610Y-12329174D01*
X3164610Y-12329174D02*
X3183658Y-12319650D01*
X3183658Y-12319650D02*
X3212229Y-12319650D01*
X3212229Y-12319650D02*
X3231277Y-12329174D01*
X3231277Y-12329174D02*
X3240801Y-12348222D01*
X3240801Y-12348222D02*
X3240801Y-12452984D01*
X3240801Y-12348222D02*
X3250324Y-12329174D01*
X3250324Y-12329174D02*
X3269372Y-12319650D01*
X3269372Y-12319650D02*
X3297943Y-12319650D01*
X3297943Y-12319650D02*
X3316991Y-12329174D01*
X3316991Y-12329174D02*
X3326515Y-12348222D01*
X3326515Y-12348222D02*
X3326515Y-12452984D01*
X3716991Y-12243460D02*
X3545563Y-12500603D01*
X3974134Y-12252984D02*
X3993182Y-12252984D01*
X3993182Y-12252984D02*
X4012229Y-12262508D01*
X4012229Y-12262508D02*
X4021753Y-12272031D01*
X4021753Y-12272031D02*
X4031277Y-12291079D01*
X4031277Y-12291079D02*
X4040801Y-12329174D01*
X4040801Y-12329174D02*
X4040801Y-12376793D01*
X4040801Y-12376793D02*
X4031277Y-12414888D01*
X4031277Y-12414888D02*
X4021753Y-12433936D01*
X4021753Y-12433936D02*
X4012229Y-12443460D01*
X4012229Y-12443460D02*
X3993182Y-12452984D01*
X3993182Y-12452984D02*
X3974134Y-12452984D01*
X3974134Y-12452984D02*
X3955086Y-12443460D01*
X3955086Y-12443460D02*
X3945563Y-12433936D01*
X3945563Y-12433936D02*
X3936039Y-12414888D01*
X3936039Y-12414888D02*
X3926515Y-12376793D01*
X3926515Y-12376793D02*
X3926515Y-12329174D01*
X3926515Y-12329174D02*
X3936039Y-12291079D01*
X3936039Y-12291079D02*
X3945563Y-12272031D01*
X3945563Y-12272031D02*
X3955086Y-12262508D01*
X3955086Y-12262508D02*
X3974134Y-12252984D01*
X4126515Y-12433936D02*
X4136039Y-12443460D01*
X4136039Y-12443460D02*
X4126515Y-12452984D01*
X4126515Y-12452984D02*
X4116991Y-12443460D01*
X4116991Y-12443460D02*
X4126515Y-12433936D01*
X4126515Y-12433936D02*
X4126515Y-12452984D01*
X4259848Y-12252984D02*
X4278896Y-12252984D01*
X4278896Y-12252984D02*
X4297944Y-12262508D01*
X4297944Y-12262508D02*
X4307468Y-12272031D01*
X4307468Y-12272031D02*
X4316991Y-12291079D01*
X4316991Y-12291079D02*
X4326515Y-12329174D01*
X4326515Y-12329174D02*
X4326515Y-12376793D01*
X4326515Y-12376793D02*
X4316991Y-12414888D01*
X4316991Y-12414888D02*
X4307468Y-12433936D01*
X4307468Y-12433936D02*
X4297944Y-12443460D01*
X4297944Y-12443460D02*
X4278896Y-12452984D01*
X4278896Y-12452984D02*
X4259848Y-12452984D01*
X4259848Y-12452984D02*
X4240801Y-12443460D01*
X4240801Y-12443460D02*
X4231277Y-12433936D01*
X4231277Y-12433936D02*
X4221753Y-12414888D01*
X4221753Y-12414888D02*
X4212229Y-12376793D01*
X4212229Y-12376793D02*
X4212229Y-12329174D01*
X4212229Y-12329174D02*
X4221753Y-12291079D01*
X4221753Y-12291079D02*
X4231277Y-12272031D01*
X4231277Y-12272031D02*
X4240801Y-12262508D01*
X4240801Y-12262508D02*
X4259848Y-12252984D01*
X4393182Y-12252984D02*
X4516991Y-12252984D01*
X4516991Y-12252984D02*
X4450325Y-12329174D01*
X4450325Y-12329174D02*
X4478896Y-12329174D01*
X4478896Y-12329174D02*
X4497944Y-12338698D01*
X4497944Y-12338698D02*
X4507468Y-12348222D01*
X4507468Y-12348222D02*
X4516991Y-12367269D01*
X4516991Y-12367269D02*
X4516991Y-12414888D01*
X4516991Y-12414888D02*
X4507468Y-12433936D01*
X4507468Y-12433936D02*
X4497944Y-12443460D01*
X4497944Y-12443460D02*
X4478896Y-12452984D01*
X4478896Y-12452984D02*
X4421753Y-12452984D01*
X4421753Y-12452984D02*
X4402706Y-12443460D01*
X4402706Y-12443460D02*
X4393182Y-12433936D01*
X4640801Y-12252984D02*
X4659849Y-12252984D01*
X4659849Y-12252984D02*
X4678896Y-12262508D01*
X4678896Y-12262508D02*
X4688420Y-12272031D01*
X4688420Y-12272031D02*
X4697944Y-12291079D01*
X4697944Y-12291079D02*
X4707468Y-12329174D01*
X4707468Y-12329174D02*
X4707468Y-12376793D01*
X4707468Y-12376793D02*
X4697944Y-12414888D01*
X4697944Y-12414888D02*
X4688420Y-12433936D01*
X4688420Y-12433936D02*
X4678896Y-12443460D01*
X4678896Y-12443460D02*
X4659849Y-12452984D01*
X4659849Y-12452984D02*
X4640801Y-12452984D01*
X4640801Y-12452984D02*
X4621753Y-12443460D01*
X4621753Y-12443460D02*
X4612229Y-12433936D01*
X4612229Y-12433936D02*
X4602706Y-12414888D01*
X4602706Y-12414888D02*
X4593182Y-12376793D01*
X4593182Y-12376793D02*
X4593182Y-12329174D01*
X4593182Y-12329174D02*
X4602706Y-12291079D01*
X4602706Y-12291079D02*
X4612229Y-12272031D01*
X4612229Y-12272031D02*
X4621753Y-12262508D01*
X4621753Y-12262508D02*
X4640801Y-12252984D01*
X4774134Y-12252984D02*
X4907468Y-12252984D01*
X4907468Y-12252984D02*
X4821753Y-12452984D01*
X4974134Y-12252984D02*
X4974134Y-12291079D01*
X5050325Y-12252984D02*
X5050325Y-12291079D01*
X5345563Y-12529174D02*
X5336039Y-12519650D01*
X5336039Y-12519650D02*
X5316991Y-12491079D01*
X5316991Y-12491079D02*
X5307468Y-12472031D01*
X5307468Y-12472031D02*
X5297944Y-12443460D01*
X5297944Y-12443460D02*
X5288420Y-12395841D01*
X5288420Y-12395841D02*
X5288420Y-12357746D01*
X5288420Y-12357746D02*
X5297944Y-12310127D01*
X5297944Y-12310127D02*
X5307468Y-12281555D01*
X5307468Y-12281555D02*
X5316991Y-12262508D01*
X5316991Y-12262508D02*
X5336039Y-12233936D01*
X5336039Y-12233936D02*
X5345563Y-12224412D01*
X5526515Y-12452984D02*
X5412230Y-12452984D01*
X5469372Y-12452984D02*
X5469372Y-12252984D01*
X5469372Y-12252984D02*
X5450325Y-12281555D01*
X5450325Y-12281555D02*
X5431277Y-12300603D01*
X5431277Y-12300603D02*
X5412230Y-12310127D01*
X5697944Y-12252984D02*
X5659848Y-12252984D01*
X5659848Y-12252984D02*
X5640801Y-12262508D01*
X5640801Y-12262508D02*
X5631277Y-12272031D01*
X5631277Y-12272031D02*
X5612229Y-12300603D01*
X5612229Y-12300603D02*
X5602706Y-12338698D01*
X5602706Y-12338698D02*
X5602706Y-12414888D01*
X5602706Y-12414888D02*
X5612229Y-12433936D01*
X5612229Y-12433936D02*
X5621753Y-12443460D01*
X5621753Y-12443460D02*
X5640801Y-12452984D01*
X5640801Y-12452984D02*
X5678896Y-12452984D01*
X5678896Y-12452984D02*
X5697944Y-12443460D01*
X5697944Y-12443460D02*
X5707468Y-12433936D01*
X5707468Y-12433936D02*
X5716991Y-12414888D01*
X5716991Y-12414888D02*
X5716991Y-12367269D01*
X5716991Y-12367269D02*
X5707468Y-12348222D01*
X5707468Y-12348222D02*
X5697944Y-12338698D01*
X5697944Y-12338698D02*
X5678896Y-12329174D01*
X5678896Y-12329174D02*
X5640801Y-12329174D01*
X5640801Y-12329174D02*
X5621753Y-12338698D01*
X5621753Y-12338698D02*
X5612229Y-12348222D01*
X5612229Y-12348222D02*
X5602706Y-12367269D01*
X5955087Y-12452984D02*
X5955087Y-12252984D01*
X6040801Y-12452984D02*
X6040801Y-12348222D01*
X6040801Y-12348222D02*
X6031277Y-12329174D01*
X6031277Y-12329174D02*
X6012230Y-12319650D01*
X6012230Y-12319650D02*
X5983658Y-12319650D01*
X5983658Y-12319650D02*
X5964610Y-12329174D01*
X5964610Y-12329174D02*
X5955087Y-12338698D01*
X6164610Y-12452984D02*
X6145563Y-12443460D01*
X6145563Y-12443460D02*
X6136039Y-12433936D01*
X6136039Y-12433936D02*
X6126515Y-12414888D01*
X6126515Y-12414888D02*
X6126515Y-12357746D01*
X6126515Y-12357746D02*
X6136039Y-12338698D01*
X6136039Y-12338698D02*
X6145563Y-12329174D01*
X6145563Y-12329174D02*
X6164610Y-12319650D01*
X6164610Y-12319650D02*
X6193182Y-12319650D01*
X6193182Y-12319650D02*
X6212230Y-12329174D01*
X6212230Y-12329174D02*
X6221753Y-12338698D01*
X6221753Y-12338698D02*
X6231277Y-12357746D01*
X6231277Y-12357746D02*
X6231277Y-12414888D01*
X6231277Y-12414888D02*
X6221753Y-12433936D01*
X6221753Y-12433936D02*
X6212230Y-12443460D01*
X6212230Y-12443460D02*
X6193182Y-12452984D01*
X6193182Y-12452984D02*
X6164610Y-12452984D01*
X6345563Y-12452984D02*
X6326515Y-12443460D01*
X6326515Y-12443460D02*
X6316991Y-12424412D01*
X6316991Y-12424412D02*
X6316991Y-12252984D01*
X6497944Y-12443460D02*
X6478896Y-12452984D01*
X6478896Y-12452984D02*
X6440801Y-12452984D01*
X6440801Y-12452984D02*
X6421753Y-12443460D01*
X6421753Y-12443460D02*
X6412230Y-12424412D01*
X6412230Y-12424412D02*
X6412230Y-12348222D01*
X6412230Y-12348222D02*
X6421753Y-12329174D01*
X6421753Y-12329174D02*
X6440801Y-12319650D01*
X6440801Y-12319650D02*
X6478896Y-12319650D01*
X6478896Y-12319650D02*
X6497944Y-12329174D01*
X6497944Y-12329174D02*
X6507468Y-12348222D01*
X6507468Y-12348222D02*
X6507468Y-12367269D01*
X6507468Y-12367269D02*
X6412230Y-12386317D01*
X6583658Y-12443460D02*
X6602706Y-12452984D01*
X6602706Y-12452984D02*
X6640801Y-12452984D01*
X6640801Y-12452984D02*
X6659849Y-12443460D01*
X6659849Y-12443460D02*
X6669372Y-12424412D01*
X6669372Y-12424412D02*
X6669372Y-12414888D01*
X6669372Y-12414888D02*
X6659849Y-12395841D01*
X6659849Y-12395841D02*
X6640801Y-12386317D01*
X6640801Y-12386317D02*
X6612230Y-12386317D01*
X6612230Y-12386317D02*
X6593182Y-12376793D01*
X6593182Y-12376793D02*
X6583658Y-12357746D01*
X6583658Y-12357746D02*
X6583658Y-12348222D01*
X6583658Y-12348222D02*
X6593182Y-12329174D01*
X6593182Y-12329174D02*
X6612230Y-12319650D01*
X6612230Y-12319650D02*
X6640801Y-12319650D01*
X6640801Y-12319650D02*
X6659849Y-12329174D01*
X6736039Y-12529174D02*
X6745563Y-12519650D01*
X6745563Y-12519650D02*
X6764611Y-12491079D01*
X6764611Y-12491079D02*
X6774134Y-12472031D01*
X6774134Y-12472031D02*
X6783658Y-12443460D01*
X6783658Y-12443460D02*
X6793182Y-12395841D01*
X6793182Y-12395841D02*
X6793182Y-12357746D01*
X6793182Y-12357746D02*
X6783658Y-12310127D01*
X6783658Y-12310127D02*
X6774134Y-12281555D01*
X6774134Y-12281555D02*
X6764611Y-12262508D01*
X6764611Y-12262508D02*
X6745563Y-12233936D01*
X6745563Y-12233936D02*
X6736039Y-12224412D01*
D16*
X1730500Y-12665500D02*
X1770500Y-12625500D01*
X1730500Y-12585500D01*
X1690500Y-12625500D01*
X1730500Y-12665500D01*
D11*
X2069372Y-12516984D02*
X2088420Y-12516984D01*
X2088420Y-12516984D02*
X2107467Y-12526508D01*
X2107467Y-12526508D02*
X2116991Y-12536031D01*
X2116991Y-12536031D02*
X2126515Y-12555079D01*
X2126515Y-12555079D02*
X2136039Y-12593174D01*
X2136039Y-12593174D02*
X2136039Y-12640793D01*
X2136039Y-12640793D02*
X2126515Y-12678888D01*
X2126515Y-12678888D02*
X2116991Y-12697936D01*
X2116991Y-12697936D02*
X2107467Y-12707460D01*
X2107467Y-12707460D02*
X2088420Y-12716984D01*
X2088420Y-12716984D02*
X2069372Y-12716984D01*
X2069372Y-12716984D02*
X2050324Y-12707460D01*
X2050324Y-12707460D02*
X2040801Y-12697936D01*
X2040801Y-12697936D02*
X2031277Y-12678888D01*
X2031277Y-12678888D02*
X2021753Y-12640793D01*
X2021753Y-12640793D02*
X2021753Y-12593174D01*
X2021753Y-12593174D02*
X2031277Y-12555079D01*
X2031277Y-12555079D02*
X2040801Y-12536031D01*
X2040801Y-12536031D02*
X2050324Y-12526508D01*
X2050324Y-12526508D02*
X2069372Y-12516984D01*
X2221753Y-12697936D02*
X2231277Y-12707460D01*
X2231277Y-12707460D02*
X2221753Y-12716984D01*
X2221753Y-12716984D02*
X2212229Y-12707460D01*
X2212229Y-12707460D02*
X2221753Y-12697936D01*
X2221753Y-12697936D02*
X2221753Y-12716984D01*
X2345563Y-12602698D02*
X2326515Y-12593174D01*
X2326515Y-12593174D02*
X2316991Y-12583650D01*
X2316991Y-12583650D02*
X2307467Y-12564603D01*
X2307467Y-12564603D02*
X2307467Y-12555079D01*
X2307467Y-12555079D02*
X2316991Y-12536031D01*
X2316991Y-12536031D02*
X2326515Y-12526508D01*
X2326515Y-12526508D02*
X2345563Y-12516984D01*
X2345563Y-12516984D02*
X2383658Y-12516984D01*
X2383658Y-12516984D02*
X2402705Y-12526508D01*
X2402705Y-12526508D02*
X2412229Y-12536031D01*
X2412229Y-12536031D02*
X2421753Y-12555079D01*
X2421753Y-12555079D02*
X2421753Y-12564603D01*
X2421753Y-12564603D02*
X2412229Y-12583650D01*
X2412229Y-12583650D02*
X2402705Y-12593174D01*
X2402705Y-12593174D02*
X2383658Y-12602698D01*
X2383658Y-12602698D02*
X2345563Y-12602698D01*
X2345563Y-12602698D02*
X2326515Y-12612222D01*
X2326515Y-12612222D02*
X2316991Y-12621746D01*
X2316991Y-12621746D02*
X2307467Y-12640793D01*
X2307467Y-12640793D02*
X2307467Y-12678888D01*
X2307467Y-12678888D02*
X2316991Y-12697936D01*
X2316991Y-12697936D02*
X2326515Y-12707460D01*
X2326515Y-12707460D02*
X2345563Y-12716984D01*
X2345563Y-12716984D02*
X2383658Y-12716984D01*
X2383658Y-12716984D02*
X2402705Y-12707460D01*
X2402705Y-12707460D02*
X2412229Y-12697936D01*
X2412229Y-12697936D02*
X2421753Y-12678888D01*
X2421753Y-12678888D02*
X2421753Y-12640793D01*
X2421753Y-12640793D02*
X2412229Y-12621746D01*
X2412229Y-12621746D02*
X2402705Y-12612222D01*
X2402705Y-12612222D02*
X2383658Y-12602698D01*
X2545563Y-12516984D02*
X2564610Y-12516984D01*
X2564610Y-12516984D02*
X2583658Y-12526508D01*
X2583658Y-12526508D02*
X2593182Y-12536031D01*
X2593182Y-12536031D02*
X2602705Y-12555079D01*
X2602705Y-12555079D02*
X2612229Y-12593174D01*
X2612229Y-12593174D02*
X2612229Y-12640793D01*
X2612229Y-12640793D02*
X2602705Y-12678888D01*
X2602705Y-12678888D02*
X2593182Y-12697936D01*
X2593182Y-12697936D02*
X2583658Y-12707460D01*
X2583658Y-12707460D02*
X2564610Y-12716984D01*
X2564610Y-12716984D02*
X2545563Y-12716984D01*
X2545563Y-12716984D02*
X2526515Y-12707460D01*
X2526515Y-12707460D02*
X2516991Y-12697936D01*
X2516991Y-12697936D02*
X2507467Y-12678888D01*
X2507467Y-12678888D02*
X2497944Y-12640793D01*
X2497944Y-12640793D02*
X2497944Y-12593174D01*
X2497944Y-12593174D02*
X2507467Y-12555079D01*
X2507467Y-12555079D02*
X2516991Y-12536031D01*
X2516991Y-12536031D02*
X2526515Y-12526508D01*
X2526515Y-12526508D02*
X2545563Y-12516984D01*
X2736039Y-12516984D02*
X2755086Y-12516984D01*
X2755086Y-12516984D02*
X2774134Y-12526508D01*
X2774134Y-12526508D02*
X2783658Y-12536031D01*
X2783658Y-12536031D02*
X2793182Y-12555079D01*
X2793182Y-12555079D02*
X2802705Y-12593174D01*
X2802705Y-12593174D02*
X2802705Y-12640793D01*
X2802705Y-12640793D02*
X2793182Y-12678888D01*
X2793182Y-12678888D02*
X2783658Y-12697936D01*
X2783658Y-12697936D02*
X2774134Y-12707460D01*
X2774134Y-12707460D02*
X2755086Y-12716984D01*
X2755086Y-12716984D02*
X2736039Y-12716984D01*
X2736039Y-12716984D02*
X2716991Y-12707460D01*
X2716991Y-12707460D02*
X2707467Y-12697936D01*
X2707467Y-12697936D02*
X2697944Y-12678888D01*
X2697944Y-12678888D02*
X2688420Y-12640793D01*
X2688420Y-12640793D02*
X2688420Y-12593174D01*
X2688420Y-12593174D02*
X2697944Y-12555079D01*
X2697944Y-12555079D02*
X2707467Y-12536031D01*
X2707467Y-12536031D02*
X2716991Y-12526508D01*
X2716991Y-12526508D02*
X2736039Y-12516984D01*
X2888420Y-12716984D02*
X2888420Y-12583650D01*
X2888420Y-12602698D02*
X2897943Y-12593174D01*
X2897943Y-12593174D02*
X2916991Y-12583650D01*
X2916991Y-12583650D02*
X2945563Y-12583650D01*
X2945563Y-12583650D02*
X2964610Y-12593174D01*
X2964610Y-12593174D02*
X2974134Y-12612222D01*
X2974134Y-12612222D02*
X2974134Y-12716984D01*
X2974134Y-12612222D02*
X2983658Y-12593174D01*
X2983658Y-12593174D02*
X3002705Y-12583650D01*
X3002705Y-12583650D02*
X3031277Y-12583650D01*
X3031277Y-12583650D02*
X3050324Y-12593174D01*
X3050324Y-12593174D02*
X3059848Y-12612222D01*
X3059848Y-12612222D02*
X3059848Y-12716984D01*
X3155086Y-12716984D02*
X3155086Y-12583650D01*
X3155086Y-12602698D02*
X3164610Y-12593174D01*
X3164610Y-12593174D02*
X3183658Y-12583650D01*
X3183658Y-12583650D02*
X3212229Y-12583650D01*
X3212229Y-12583650D02*
X3231277Y-12593174D01*
X3231277Y-12593174D02*
X3240801Y-12612222D01*
X3240801Y-12612222D02*
X3240801Y-12716984D01*
X3240801Y-12612222D02*
X3250324Y-12593174D01*
X3250324Y-12593174D02*
X3269372Y-12583650D01*
X3269372Y-12583650D02*
X3297943Y-12583650D01*
X3297943Y-12583650D02*
X3316991Y-12593174D01*
X3316991Y-12593174D02*
X3326515Y-12612222D01*
X3326515Y-12612222D02*
X3326515Y-12716984D01*
X3716991Y-12507460D02*
X3545563Y-12764603D01*
X3974134Y-12516984D02*
X3993182Y-12516984D01*
X3993182Y-12516984D02*
X4012229Y-12526508D01*
X4012229Y-12526508D02*
X4021753Y-12536031D01*
X4021753Y-12536031D02*
X4031277Y-12555079D01*
X4031277Y-12555079D02*
X4040801Y-12593174D01*
X4040801Y-12593174D02*
X4040801Y-12640793D01*
X4040801Y-12640793D02*
X4031277Y-12678888D01*
X4031277Y-12678888D02*
X4021753Y-12697936D01*
X4021753Y-12697936D02*
X4012229Y-12707460D01*
X4012229Y-12707460D02*
X3993182Y-12716984D01*
X3993182Y-12716984D02*
X3974134Y-12716984D01*
X3974134Y-12716984D02*
X3955086Y-12707460D01*
X3955086Y-12707460D02*
X3945563Y-12697936D01*
X3945563Y-12697936D02*
X3936039Y-12678888D01*
X3936039Y-12678888D02*
X3926515Y-12640793D01*
X3926515Y-12640793D02*
X3926515Y-12593174D01*
X3926515Y-12593174D02*
X3936039Y-12555079D01*
X3936039Y-12555079D02*
X3945563Y-12536031D01*
X3945563Y-12536031D02*
X3955086Y-12526508D01*
X3955086Y-12526508D02*
X3974134Y-12516984D01*
X4126515Y-12697936D02*
X4136039Y-12707460D01*
X4136039Y-12707460D02*
X4126515Y-12716984D01*
X4126515Y-12716984D02*
X4116991Y-12707460D01*
X4116991Y-12707460D02*
X4126515Y-12697936D01*
X4126515Y-12697936D02*
X4126515Y-12716984D01*
X4259848Y-12516984D02*
X4278896Y-12516984D01*
X4278896Y-12516984D02*
X4297944Y-12526508D01*
X4297944Y-12526508D02*
X4307468Y-12536031D01*
X4307468Y-12536031D02*
X4316991Y-12555079D01*
X4316991Y-12555079D02*
X4326515Y-12593174D01*
X4326515Y-12593174D02*
X4326515Y-12640793D01*
X4326515Y-12640793D02*
X4316991Y-12678888D01*
X4316991Y-12678888D02*
X4307468Y-12697936D01*
X4307468Y-12697936D02*
X4297944Y-12707460D01*
X4297944Y-12707460D02*
X4278896Y-12716984D01*
X4278896Y-12716984D02*
X4259848Y-12716984D01*
X4259848Y-12716984D02*
X4240801Y-12707460D01*
X4240801Y-12707460D02*
X4231277Y-12697936D01*
X4231277Y-12697936D02*
X4221753Y-12678888D01*
X4221753Y-12678888D02*
X4212229Y-12640793D01*
X4212229Y-12640793D02*
X4212229Y-12593174D01*
X4212229Y-12593174D02*
X4221753Y-12555079D01*
X4221753Y-12555079D02*
X4231277Y-12536031D01*
X4231277Y-12536031D02*
X4240801Y-12526508D01*
X4240801Y-12526508D02*
X4259848Y-12516984D01*
X4393182Y-12516984D02*
X4516991Y-12516984D01*
X4516991Y-12516984D02*
X4450325Y-12593174D01*
X4450325Y-12593174D02*
X4478896Y-12593174D01*
X4478896Y-12593174D02*
X4497944Y-12602698D01*
X4497944Y-12602698D02*
X4507468Y-12612222D01*
X4507468Y-12612222D02*
X4516991Y-12631269D01*
X4516991Y-12631269D02*
X4516991Y-12678888D01*
X4516991Y-12678888D02*
X4507468Y-12697936D01*
X4507468Y-12697936D02*
X4497944Y-12707460D01*
X4497944Y-12707460D02*
X4478896Y-12716984D01*
X4478896Y-12716984D02*
X4421753Y-12716984D01*
X4421753Y-12716984D02*
X4402706Y-12707460D01*
X4402706Y-12707460D02*
X4393182Y-12697936D01*
X4707468Y-12716984D02*
X4593182Y-12716984D01*
X4650325Y-12716984D02*
X4650325Y-12516984D01*
X4650325Y-12516984D02*
X4631277Y-12545555D01*
X4631277Y-12545555D02*
X4612229Y-12564603D01*
X4612229Y-12564603D02*
X4593182Y-12574127D01*
X4888420Y-12516984D02*
X4793182Y-12516984D01*
X4793182Y-12516984D02*
X4783658Y-12612222D01*
X4783658Y-12612222D02*
X4793182Y-12602698D01*
X4793182Y-12602698D02*
X4812229Y-12593174D01*
X4812229Y-12593174D02*
X4859849Y-12593174D01*
X4859849Y-12593174D02*
X4878896Y-12602698D01*
X4878896Y-12602698D02*
X4888420Y-12612222D01*
X4888420Y-12612222D02*
X4897944Y-12631269D01*
X4897944Y-12631269D02*
X4897944Y-12678888D01*
X4897944Y-12678888D02*
X4888420Y-12697936D01*
X4888420Y-12697936D02*
X4878896Y-12707460D01*
X4878896Y-12707460D02*
X4859849Y-12716984D01*
X4859849Y-12716984D02*
X4812229Y-12716984D01*
X4812229Y-12716984D02*
X4793182Y-12707460D01*
X4793182Y-12707460D02*
X4783658Y-12697936D01*
X4974134Y-12516984D02*
X4974134Y-12555079D01*
X5050325Y-12516984D02*
X5050325Y-12555079D01*
X5345563Y-12793174D02*
X5336039Y-12783650D01*
X5336039Y-12783650D02*
X5316991Y-12755079D01*
X5316991Y-12755079D02*
X5307468Y-12736031D01*
X5307468Y-12736031D02*
X5297944Y-12707460D01*
X5297944Y-12707460D02*
X5288420Y-12659841D01*
X5288420Y-12659841D02*
X5288420Y-12621746D01*
X5288420Y-12621746D02*
X5297944Y-12574127D01*
X5297944Y-12574127D02*
X5307468Y-12545555D01*
X5307468Y-12545555D02*
X5316991Y-12526508D01*
X5316991Y-12526508D02*
X5336039Y-12497936D01*
X5336039Y-12497936D02*
X5345563Y-12488412D01*
X5507468Y-12583650D02*
X5507468Y-12716984D01*
X5459849Y-12507460D02*
X5412230Y-12650317D01*
X5412230Y-12650317D02*
X5536039Y-12650317D01*
X5764610Y-12716984D02*
X5764610Y-12516984D01*
X5850325Y-12716984D02*
X5850325Y-12612222D01*
X5850325Y-12612222D02*
X5840801Y-12593174D01*
X5840801Y-12593174D02*
X5821753Y-12583650D01*
X5821753Y-12583650D02*
X5793182Y-12583650D01*
X5793182Y-12583650D02*
X5774134Y-12593174D01*
X5774134Y-12593174D02*
X5764610Y-12602698D01*
X5974134Y-12716984D02*
X5955087Y-12707460D01*
X5955087Y-12707460D02*
X5945563Y-12697936D01*
X5945563Y-12697936D02*
X5936039Y-12678888D01*
X5936039Y-12678888D02*
X5936039Y-12621746D01*
X5936039Y-12621746D02*
X5945563Y-12602698D01*
X5945563Y-12602698D02*
X5955087Y-12593174D01*
X5955087Y-12593174D02*
X5974134Y-12583650D01*
X5974134Y-12583650D02*
X6002706Y-12583650D01*
X6002706Y-12583650D02*
X6021753Y-12593174D01*
X6021753Y-12593174D02*
X6031277Y-12602698D01*
X6031277Y-12602698D02*
X6040801Y-12621746D01*
X6040801Y-12621746D02*
X6040801Y-12678888D01*
X6040801Y-12678888D02*
X6031277Y-12697936D01*
X6031277Y-12697936D02*
X6021753Y-12707460D01*
X6021753Y-12707460D02*
X6002706Y-12716984D01*
X6002706Y-12716984D02*
X5974134Y-12716984D01*
X6155087Y-12716984D02*
X6136039Y-12707460D01*
X6136039Y-12707460D02*
X6126515Y-12688412D01*
X6126515Y-12688412D02*
X6126515Y-12516984D01*
X6307468Y-12707460D02*
X6288420Y-12716984D01*
X6288420Y-12716984D02*
X6250325Y-12716984D01*
X6250325Y-12716984D02*
X6231277Y-12707460D01*
X6231277Y-12707460D02*
X6221753Y-12688412D01*
X6221753Y-12688412D02*
X6221753Y-12612222D01*
X6221753Y-12612222D02*
X6231277Y-12593174D01*
X6231277Y-12593174D02*
X6250325Y-12583650D01*
X6250325Y-12583650D02*
X6288420Y-12583650D01*
X6288420Y-12583650D02*
X6307468Y-12593174D01*
X6307468Y-12593174D02*
X6316991Y-12612222D01*
X6316991Y-12612222D02*
X6316991Y-12631269D01*
X6316991Y-12631269D02*
X6221753Y-12650317D01*
X6393182Y-12707460D02*
X6412230Y-12716984D01*
X6412230Y-12716984D02*
X6450325Y-12716984D01*
X6450325Y-12716984D02*
X6469372Y-12707460D01*
X6469372Y-12707460D02*
X6478896Y-12688412D01*
X6478896Y-12688412D02*
X6478896Y-12678888D01*
X6478896Y-12678888D02*
X6469372Y-12659841D01*
X6469372Y-12659841D02*
X6450325Y-12650317D01*
X6450325Y-12650317D02*
X6421753Y-12650317D01*
X6421753Y-12650317D02*
X6402706Y-12640793D01*
X6402706Y-12640793D02*
X6393182Y-12621746D01*
X6393182Y-12621746D02*
X6393182Y-12612222D01*
X6393182Y-12612222D02*
X6402706Y-12593174D01*
X6402706Y-12593174D02*
X6421753Y-12583650D01*
X6421753Y-12583650D02*
X6450325Y-12583650D01*
X6450325Y-12583650D02*
X6469372Y-12593174D01*
X6545563Y-12793174D02*
X6555087Y-12783650D01*
X6555087Y-12783650D02*
X6574134Y-12755079D01*
X6574134Y-12755079D02*
X6583658Y-12736031D01*
X6583658Y-12736031D02*
X6593182Y-12707460D01*
X6593182Y-12707460D02*
X6602706Y-12659841D01*
X6602706Y-12659841D02*
X6602706Y-12621746D01*
X6602706Y-12621746D02*
X6593182Y-12574127D01*
X6593182Y-12574127D02*
X6583658Y-12545555D01*
X6583658Y-12545555D02*
X6574134Y-12526508D01*
X6574134Y-12526508D02*
X6555087Y-12497936D01*
X6555087Y-12497936D02*
X6545563Y-12488412D01*
D17*
X1670500Y-12839500D02*
X1770500Y-12939500D01*
X1770500Y-12839500D02*
X1670500Y-12939500D01*
X1770500Y-12889500D02*
G75*
G03*
X1770500Y-12889500I-50000J0D01*
G01*
D11*
X2136039Y-12980984D02*
X2021753Y-12980984D01*
X2078896Y-12980984D02*
X2078896Y-12780984D01*
X2078896Y-12780984D02*
X2059848Y-12809555D01*
X2059848Y-12809555D02*
X2040801Y-12828603D01*
X2040801Y-12828603D02*
X2021753Y-12838127D01*
X2221753Y-12961936D02*
X2231277Y-12971460D01*
X2231277Y-12971460D02*
X2221753Y-12980984D01*
X2221753Y-12980984D02*
X2212229Y-12971460D01*
X2212229Y-12971460D02*
X2221753Y-12961936D01*
X2221753Y-12961936D02*
X2221753Y-12980984D01*
X2355086Y-12780984D02*
X2374134Y-12780984D01*
X2374134Y-12780984D02*
X2393182Y-12790508D01*
X2393182Y-12790508D02*
X2402705Y-12800031D01*
X2402705Y-12800031D02*
X2412229Y-12819079D01*
X2412229Y-12819079D02*
X2421753Y-12857174D01*
X2421753Y-12857174D02*
X2421753Y-12904793D01*
X2421753Y-12904793D02*
X2412229Y-12942888D01*
X2412229Y-12942888D02*
X2402705Y-12961936D01*
X2402705Y-12961936D02*
X2393182Y-12971460D01*
X2393182Y-12971460D02*
X2374134Y-12980984D01*
X2374134Y-12980984D02*
X2355086Y-12980984D01*
X2355086Y-12980984D02*
X2336039Y-12971460D01*
X2336039Y-12971460D02*
X2326515Y-12961936D01*
X2326515Y-12961936D02*
X2316991Y-12942888D01*
X2316991Y-12942888D02*
X2307467Y-12904793D01*
X2307467Y-12904793D02*
X2307467Y-12857174D01*
X2307467Y-12857174D02*
X2316991Y-12819079D01*
X2316991Y-12819079D02*
X2326515Y-12800031D01*
X2326515Y-12800031D02*
X2336039Y-12790508D01*
X2336039Y-12790508D02*
X2355086Y-12780984D01*
X2545563Y-12780984D02*
X2564610Y-12780984D01*
X2564610Y-12780984D02*
X2583658Y-12790508D01*
X2583658Y-12790508D02*
X2593182Y-12800031D01*
X2593182Y-12800031D02*
X2602705Y-12819079D01*
X2602705Y-12819079D02*
X2612229Y-12857174D01*
X2612229Y-12857174D02*
X2612229Y-12904793D01*
X2612229Y-12904793D02*
X2602705Y-12942888D01*
X2602705Y-12942888D02*
X2593182Y-12961936D01*
X2593182Y-12961936D02*
X2583658Y-12971460D01*
X2583658Y-12971460D02*
X2564610Y-12980984D01*
X2564610Y-12980984D02*
X2545563Y-12980984D01*
X2545563Y-12980984D02*
X2526515Y-12971460D01*
X2526515Y-12971460D02*
X2516991Y-12961936D01*
X2516991Y-12961936D02*
X2507467Y-12942888D01*
X2507467Y-12942888D02*
X2497944Y-12904793D01*
X2497944Y-12904793D02*
X2497944Y-12857174D01*
X2497944Y-12857174D02*
X2507467Y-12819079D01*
X2507467Y-12819079D02*
X2516991Y-12800031D01*
X2516991Y-12800031D02*
X2526515Y-12790508D01*
X2526515Y-12790508D02*
X2545563Y-12780984D01*
X2736039Y-12780984D02*
X2755086Y-12780984D01*
X2755086Y-12780984D02*
X2774134Y-12790508D01*
X2774134Y-12790508D02*
X2783658Y-12800031D01*
X2783658Y-12800031D02*
X2793182Y-12819079D01*
X2793182Y-12819079D02*
X2802705Y-12857174D01*
X2802705Y-12857174D02*
X2802705Y-12904793D01*
X2802705Y-12904793D02*
X2793182Y-12942888D01*
X2793182Y-12942888D02*
X2783658Y-12961936D01*
X2783658Y-12961936D02*
X2774134Y-12971460D01*
X2774134Y-12971460D02*
X2755086Y-12980984D01*
X2755086Y-12980984D02*
X2736039Y-12980984D01*
X2736039Y-12980984D02*
X2716991Y-12971460D01*
X2716991Y-12971460D02*
X2707467Y-12961936D01*
X2707467Y-12961936D02*
X2697944Y-12942888D01*
X2697944Y-12942888D02*
X2688420Y-12904793D01*
X2688420Y-12904793D02*
X2688420Y-12857174D01*
X2688420Y-12857174D02*
X2697944Y-12819079D01*
X2697944Y-12819079D02*
X2707467Y-12800031D01*
X2707467Y-12800031D02*
X2716991Y-12790508D01*
X2716991Y-12790508D02*
X2736039Y-12780984D01*
X2888420Y-12980984D02*
X2888420Y-12847650D01*
X2888420Y-12866698D02*
X2897943Y-12857174D01*
X2897943Y-12857174D02*
X2916991Y-12847650D01*
X2916991Y-12847650D02*
X2945563Y-12847650D01*
X2945563Y-12847650D02*
X2964610Y-12857174D01*
X2964610Y-12857174D02*
X2974134Y-12876222D01*
X2974134Y-12876222D02*
X2974134Y-12980984D01*
X2974134Y-12876222D02*
X2983658Y-12857174D01*
X2983658Y-12857174D02*
X3002705Y-12847650D01*
X3002705Y-12847650D02*
X3031277Y-12847650D01*
X3031277Y-12847650D02*
X3050324Y-12857174D01*
X3050324Y-12857174D02*
X3059848Y-12876222D01*
X3059848Y-12876222D02*
X3059848Y-12980984D01*
X3155086Y-12980984D02*
X3155086Y-12847650D01*
X3155086Y-12866698D02*
X3164610Y-12857174D01*
X3164610Y-12857174D02*
X3183658Y-12847650D01*
X3183658Y-12847650D02*
X3212229Y-12847650D01*
X3212229Y-12847650D02*
X3231277Y-12857174D01*
X3231277Y-12857174D02*
X3240801Y-12876222D01*
X3240801Y-12876222D02*
X3240801Y-12980984D01*
X3240801Y-12876222D02*
X3250324Y-12857174D01*
X3250324Y-12857174D02*
X3269372Y-12847650D01*
X3269372Y-12847650D02*
X3297943Y-12847650D01*
X3297943Y-12847650D02*
X3316991Y-12857174D01*
X3316991Y-12857174D02*
X3326515Y-12876222D01*
X3326515Y-12876222D02*
X3326515Y-12980984D01*
X3716991Y-12771460D02*
X3545563Y-13028603D01*
X3974134Y-12780984D02*
X3993182Y-12780984D01*
X3993182Y-12780984D02*
X4012229Y-12790508D01*
X4012229Y-12790508D02*
X4021753Y-12800031D01*
X4021753Y-12800031D02*
X4031277Y-12819079D01*
X4031277Y-12819079D02*
X4040801Y-12857174D01*
X4040801Y-12857174D02*
X4040801Y-12904793D01*
X4040801Y-12904793D02*
X4031277Y-12942888D01*
X4031277Y-12942888D02*
X4021753Y-12961936D01*
X4021753Y-12961936D02*
X4012229Y-12971460D01*
X4012229Y-12971460D02*
X3993182Y-12980984D01*
X3993182Y-12980984D02*
X3974134Y-12980984D01*
X3974134Y-12980984D02*
X3955086Y-12971460D01*
X3955086Y-12971460D02*
X3945563Y-12961936D01*
X3945563Y-12961936D02*
X3936039Y-12942888D01*
X3936039Y-12942888D02*
X3926515Y-12904793D01*
X3926515Y-12904793D02*
X3926515Y-12857174D01*
X3926515Y-12857174D02*
X3936039Y-12819079D01*
X3936039Y-12819079D02*
X3945563Y-12800031D01*
X3945563Y-12800031D02*
X3955086Y-12790508D01*
X3955086Y-12790508D02*
X3974134Y-12780984D01*
X4126515Y-12961936D02*
X4136039Y-12971460D01*
X4136039Y-12971460D02*
X4126515Y-12980984D01*
X4126515Y-12980984D02*
X4116991Y-12971460D01*
X4116991Y-12971460D02*
X4126515Y-12961936D01*
X4126515Y-12961936D02*
X4126515Y-12980984D01*
X4259848Y-12780984D02*
X4278896Y-12780984D01*
X4278896Y-12780984D02*
X4297944Y-12790508D01*
X4297944Y-12790508D02*
X4307468Y-12800031D01*
X4307468Y-12800031D02*
X4316991Y-12819079D01*
X4316991Y-12819079D02*
X4326515Y-12857174D01*
X4326515Y-12857174D02*
X4326515Y-12904793D01*
X4326515Y-12904793D02*
X4316991Y-12942888D01*
X4316991Y-12942888D02*
X4307468Y-12961936D01*
X4307468Y-12961936D02*
X4297944Y-12971460D01*
X4297944Y-12971460D02*
X4278896Y-12980984D01*
X4278896Y-12980984D02*
X4259848Y-12980984D01*
X4259848Y-12980984D02*
X4240801Y-12971460D01*
X4240801Y-12971460D02*
X4231277Y-12961936D01*
X4231277Y-12961936D02*
X4221753Y-12942888D01*
X4221753Y-12942888D02*
X4212229Y-12904793D01*
X4212229Y-12904793D02*
X4212229Y-12857174D01*
X4212229Y-12857174D02*
X4221753Y-12819079D01*
X4221753Y-12819079D02*
X4231277Y-12800031D01*
X4231277Y-12800031D02*
X4240801Y-12790508D01*
X4240801Y-12790508D02*
X4259848Y-12780984D01*
X4393182Y-12780984D02*
X4516991Y-12780984D01*
X4516991Y-12780984D02*
X4450325Y-12857174D01*
X4450325Y-12857174D02*
X4478896Y-12857174D01*
X4478896Y-12857174D02*
X4497944Y-12866698D01*
X4497944Y-12866698D02*
X4507468Y-12876222D01*
X4507468Y-12876222D02*
X4516991Y-12895269D01*
X4516991Y-12895269D02*
X4516991Y-12942888D01*
X4516991Y-12942888D02*
X4507468Y-12961936D01*
X4507468Y-12961936D02*
X4497944Y-12971460D01*
X4497944Y-12971460D02*
X4478896Y-12980984D01*
X4478896Y-12980984D02*
X4421753Y-12980984D01*
X4421753Y-12980984D02*
X4402706Y-12971460D01*
X4402706Y-12971460D02*
X4393182Y-12961936D01*
X4612229Y-12980984D02*
X4650325Y-12980984D01*
X4650325Y-12980984D02*
X4669372Y-12971460D01*
X4669372Y-12971460D02*
X4678896Y-12961936D01*
X4678896Y-12961936D02*
X4697944Y-12933365D01*
X4697944Y-12933365D02*
X4707468Y-12895269D01*
X4707468Y-12895269D02*
X4707468Y-12819079D01*
X4707468Y-12819079D02*
X4697944Y-12800031D01*
X4697944Y-12800031D02*
X4688420Y-12790508D01*
X4688420Y-12790508D02*
X4669372Y-12780984D01*
X4669372Y-12780984D02*
X4631277Y-12780984D01*
X4631277Y-12780984D02*
X4612229Y-12790508D01*
X4612229Y-12790508D02*
X4602706Y-12800031D01*
X4602706Y-12800031D02*
X4593182Y-12819079D01*
X4593182Y-12819079D02*
X4593182Y-12866698D01*
X4593182Y-12866698D02*
X4602706Y-12885746D01*
X4602706Y-12885746D02*
X4612229Y-12895269D01*
X4612229Y-12895269D02*
X4631277Y-12904793D01*
X4631277Y-12904793D02*
X4669372Y-12904793D01*
X4669372Y-12904793D02*
X4688420Y-12895269D01*
X4688420Y-12895269D02*
X4697944Y-12885746D01*
X4697944Y-12885746D02*
X4707468Y-12866698D01*
X4878896Y-12847650D02*
X4878896Y-12980984D01*
X4831277Y-12771460D02*
X4783658Y-12914317D01*
X4783658Y-12914317D02*
X4907468Y-12914317D01*
X4974134Y-12780984D02*
X4974134Y-12819079D01*
X5050325Y-12780984D02*
X5050325Y-12819079D01*
X5345563Y-13057174D02*
X5336039Y-13047650D01*
X5336039Y-13047650D02*
X5316991Y-13019079D01*
X5316991Y-13019079D02*
X5307468Y-13000031D01*
X5307468Y-13000031D02*
X5297944Y-12971460D01*
X5297944Y-12971460D02*
X5288420Y-12923841D01*
X5288420Y-12923841D02*
X5288420Y-12885746D01*
X5288420Y-12885746D02*
X5297944Y-12838127D01*
X5297944Y-12838127D02*
X5307468Y-12809555D01*
X5307468Y-12809555D02*
X5316991Y-12790508D01*
X5316991Y-12790508D02*
X5336039Y-12761936D01*
X5336039Y-12761936D02*
X5345563Y-12752412D01*
X5526515Y-12980984D02*
X5412230Y-12980984D01*
X5469372Y-12980984D02*
X5469372Y-12780984D01*
X5469372Y-12780984D02*
X5450325Y-12809555D01*
X5450325Y-12809555D02*
X5431277Y-12828603D01*
X5431277Y-12828603D02*
X5412230Y-12838127D01*
X5716991Y-12980984D02*
X5602706Y-12980984D01*
X5659848Y-12980984D02*
X5659848Y-12780984D01*
X5659848Y-12780984D02*
X5640801Y-12809555D01*
X5640801Y-12809555D02*
X5621753Y-12828603D01*
X5621753Y-12828603D02*
X5602706Y-12838127D01*
X5888420Y-12847650D02*
X5888420Y-12980984D01*
X5840801Y-12771460D02*
X5793182Y-12914317D01*
X5793182Y-12914317D02*
X5916991Y-12914317D01*
X6145563Y-12980984D02*
X6145563Y-12780984D01*
X6231277Y-12980984D02*
X6231277Y-12876222D01*
X6231277Y-12876222D02*
X6221753Y-12857174D01*
X6221753Y-12857174D02*
X6202706Y-12847650D01*
X6202706Y-12847650D02*
X6174134Y-12847650D01*
X6174134Y-12847650D02*
X6155087Y-12857174D01*
X6155087Y-12857174D02*
X6145563Y-12866698D01*
X6355087Y-12980984D02*
X6336039Y-12971460D01*
X6336039Y-12971460D02*
X6326515Y-12961936D01*
X6326515Y-12961936D02*
X6316991Y-12942888D01*
X6316991Y-12942888D02*
X6316991Y-12885746D01*
X6316991Y-12885746D02*
X6326515Y-12866698D01*
X6326515Y-12866698D02*
X6336039Y-12857174D01*
X6336039Y-12857174D02*
X6355087Y-12847650D01*
X6355087Y-12847650D02*
X6383658Y-12847650D01*
X6383658Y-12847650D02*
X6402706Y-12857174D01*
X6402706Y-12857174D02*
X6412230Y-12866698D01*
X6412230Y-12866698D02*
X6421753Y-12885746D01*
X6421753Y-12885746D02*
X6421753Y-12942888D01*
X6421753Y-12942888D02*
X6412230Y-12961936D01*
X6412230Y-12961936D02*
X6402706Y-12971460D01*
X6402706Y-12971460D02*
X6383658Y-12980984D01*
X6383658Y-12980984D02*
X6355087Y-12980984D01*
X6536039Y-12980984D02*
X6516991Y-12971460D01*
X6516991Y-12971460D02*
X6507468Y-12952412D01*
X6507468Y-12952412D02*
X6507468Y-12780984D01*
X6688420Y-12971460D02*
X6669372Y-12980984D01*
X6669372Y-12980984D02*
X6631277Y-12980984D01*
X6631277Y-12980984D02*
X6612230Y-12971460D01*
X6612230Y-12971460D02*
X6602706Y-12952412D01*
X6602706Y-12952412D02*
X6602706Y-12876222D01*
X6602706Y-12876222D02*
X6612230Y-12857174D01*
X6612230Y-12857174D02*
X6631277Y-12847650D01*
X6631277Y-12847650D02*
X6669372Y-12847650D01*
X6669372Y-12847650D02*
X6688420Y-12857174D01*
X6688420Y-12857174D02*
X6697944Y-12876222D01*
X6697944Y-12876222D02*
X6697944Y-12895269D01*
X6697944Y-12895269D02*
X6602706Y-12914317D01*
X6774134Y-12971460D02*
X6793182Y-12980984D01*
X6793182Y-12980984D02*
X6831277Y-12980984D01*
X6831277Y-12980984D02*
X6850325Y-12971460D01*
X6850325Y-12971460D02*
X6859849Y-12952412D01*
X6859849Y-12952412D02*
X6859849Y-12942888D01*
X6859849Y-12942888D02*
X6850325Y-12923841D01*
X6850325Y-12923841D02*
X6831277Y-12914317D01*
X6831277Y-12914317D02*
X6802706Y-12914317D01*
X6802706Y-12914317D02*
X6783658Y-12904793D01*
X6783658Y-12904793D02*
X6774134Y-12885746D01*
X6774134Y-12885746D02*
X6774134Y-12876222D01*
X6774134Y-12876222D02*
X6783658Y-12857174D01*
X6783658Y-12857174D02*
X6802706Y-12847650D01*
X6802706Y-12847650D02*
X6831277Y-12847650D01*
X6831277Y-12847650D02*
X6850325Y-12857174D01*
X6926515Y-13057174D02*
X6936039Y-13047650D01*
X6936039Y-13047650D02*
X6955087Y-13019079D01*
X6955087Y-13019079D02*
X6964611Y-13000031D01*
X6964611Y-13000031D02*
X6974134Y-12971460D01*
X6974134Y-12971460D02*
X6983658Y-12923841D01*
X6983658Y-12923841D02*
X6983658Y-12885746D01*
X6983658Y-12885746D02*
X6974134Y-12838127D01*
X6974134Y-12838127D02*
X6964611Y-12809555D01*
X6964611Y-12809555D02*
X6955087Y-12790508D01*
X6955087Y-12790508D02*
X6936039Y-12761936D01*
X6936039Y-12761936D02*
X6926515Y-12752412D01*
D18*
X1650500Y-13093500D02*
X1770500Y-13213500D01*
X1770500Y-13093500D02*
X1650500Y-13213500D01*
X1710500Y-13093500D02*
X1710500Y-13213500D01*
X1650500Y-13153500D02*
X1770500Y-13153500D01*
D11*
X2136039Y-13244984D02*
X2021753Y-13244984D01*
X2078896Y-13244984D02*
X2078896Y-13044984D01*
X2078896Y-13044984D02*
X2059848Y-13073555D01*
X2059848Y-13073555D02*
X2040801Y-13092603D01*
X2040801Y-13092603D02*
X2021753Y-13102127D01*
X2221753Y-13225936D02*
X2231277Y-13235460D01*
X2231277Y-13235460D02*
X2221753Y-13244984D01*
X2221753Y-13244984D02*
X2212229Y-13235460D01*
X2212229Y-13235460D02*
X2221753Y-13225936D01*
X2221753Y-13225936D02*
X2221753Y-13244984D01*
X2307467Y-13064031D02*
X2316991Y-13054508D01*
X2316991Y-13054508D02*
X2336039Y-13044984D01*
X2336039Y-13044984D02*
X2383658Y-13044984D01*
X2383658Y-13044984D02*
X2402705Y-13054508D01*
X2402705Y-13054508D02*
X2412229Y-13064031D01*
X2412229Y-13064031D02*
X2421753Y-13083079D01*
X2421753Y-13083079D02*
X2421753Y-13102127D01*
X2421753Y-13102127D02*
X2412229Y-13130698D01*
X2412229Y-13130698D02*
X2297944Y-13244984D01*
X2297944Y-13244984D02*
X2421753Y-13244984D01*
X2545563Y-13044984D02*
X2564610Y-13044984D01*
X2564610Y-13044984D02*
X2583658Y-13054508D01*
X2583658Y-13054508D02*
X2593182Y-13064031D01*
X2593182Y-13064031D02*
X2602705Y-13083079D01*
X2602705Y-13083079D02*
X2612229Y-13121174D01*
X2612229Y-13121174D02*
X2612229Y-13168793D01*
X2612229Y-13168793D02*
X2602705Y-13206888D01*
X2602705Y-13206888D02*
X2593182Y-13225936D01*
X2593182Y-13225936D02*
X2583658Y-13235460D01*
X2583658Y-13235460D02*
X2564610Y-13244984D01*
X2564610Y-13244984D02*
X2545563Y-13244984D01*
X2545563Y-13244984D02*
X2526515Y-13235460D01*
X2526515Y-13235460D02*
X2516991Y-13225936D01*
X2516991Y-13225936D02*
X2507467Y-13206888D01*
X2507467Y-13206888D02*
X2497944Y-13168793D01*
X2497944Y-13168793D02*
X2497944Y-13121174D01*
X2497944Y-13121174D02*
X2507467Y-13083079D01*
X2507467Y-13083079D02*
X2516991Y-13064031D01*
X2516991Y-13064031D02*
X2526515Y-13054508D01*
X2526515Y-13054508D02*
X2545563Y-13044984D01*
X2736039Y-13044984D02*
X2755086Y-13044984D01*
X2755086Y-13044984D02*
X2774134Y-13054508D01*
X2774134Y-13054508D02*
X2783658Y-13064031D01*
X2783658Y-13064031D02*
X2793182Y-13083079D01*
X2793182Y-13083079D02*
X2802705Y-13121174D01*
X2802705Y-13121174D02*
X2802705Y-13168793D01*
X2802705Y-13168793D02*
X2793182Y-13206888D01*
X2793182Y-13206888D02*
X2783658Y-13225936D01*
X2783658Y-13225936D02*
X2774134Y-13235460D01*
X2774134Y-13235460D02*
X2755086Y-13244984D01*
X2755086Y-13244984D02*
X2736039Y-13244984D01*
X2736039Y-13244984D02*
X2716991Y-13235460D01*
X2716991Y-13235460D02*
X2707467Y-13225936D01*
X2707467Y-13225936D02*
X2697944Y-13206888D01*
X2697944Y-13206888D02*
X2688420Y-13168793D01*
X2688420Y-13168793D02*
X2688420Y-13121174D01*
X2688420Y-13121174D02*
X2697944Y-13083079D01*
X2697944Y-13083079D02*
X2707467Y-13064031D01*
X2707467Y-13064031D02*
X2716991Y-13054508D01*
X2716991Y-13054508D02*
X2736039Y-13044984D01*
X2888420Y-13244984D02*
X2888420Y-13111650D01*
X2888420Y-13130698D02*
X2897943Y-13121174D01*
X2897943Y-13121174D02*
X2916991Y-13111650D01*
X2916991Y-13111650D02*
X2945563Y-13111650D01*
X2945563Y-13111650D02*
X2964610Y-13121174D01*
X2964610Y-13121174D02*
X2974134Y-13140222D01*
X2974134Y-13140222D02*
X2974134Y-13244984D01*
X2974134Y-13140222D02*
X2983658Y-13121174D01*
X2983658Y-13121174D02*
X3002705Y-13111650D01*
X3002705Y-13111650D02*
X3031277Y-13111650D01*
X3031277Y-13111650D02*
X3050324Y-13121174D01*
X3050324Y-13121174D02*
X3059848Y-13140222D01*
X3059848Y-13140222D02*
X3059848Y-13244984D01*
X3155086Y-13244984D02*
X3155086Y-13111650D01*
X3155086Y-13130698D02*
X3164610Y-13121174D01*
X3164610Y-13121174D02*
X3183658Y-13111650D01*
X3183658Y-13111650D02*
X3212229Y-13111650D01*
X3212229Y-13111650D02*
X3231277Y-13121174D01*
X3231277Y-13121174D02*
X3240801Y-13140222D01*
X3240801Y-13140222D02*
X3240801Y-13244984D01*
X3240801Y-13140222D02*
X3250324Y-13121174D01*
X3250324Y-13121174D02*
X3269372Y-13111650D01*
X3269372Y-13111650D02*
X3297943Y-13111650D01*
X3297943Y-13111650D02*
X3316991Y-13121174D01*
X3316991Y-13121174D02*
X3326515Y-13140222D01*
X3326515Y-13140222D02*
X3326515Y-13244984D01*
X3716991Y-13035460D02*
X3545563Y-13292603D01*
X3974134Y-13044984D02*
X3993182Y-13044984D01*
X3993182Y-13044984D02*
X4012229Y-13054508D01*
X4012229Y-13054508D02*
X4021753Y-13064031D01*
X4021753Y-13064031D02*
X4031277Y-13083079D01*
X4031277Y-13083079D02*
X4040801Y-13121174D01*
X4040801Y-13121174D02*
X4040801Y-13168793D01*
X4040801Y-13168793D02*
X4031277Y-13206888D01*
X4031277Y-13206888D02*
X4021753Y-13225936D01*
X4021753Y-13225936D02*
X4012229Y-13235460D01*
X4012229Y-13235460D02*
X3993182Y-13244984D01*
X3993182Y-13244984D02*
X3974134Y-13244984D01*
X3974134Y-13244984D02*
X3955086Y-13235460D01*
X3955086Y-13235460D02*
X3945563Y-13225936D01*
X3945563Y-13225936D02*
X3936039Y-13206888D01*
X3936039Y-13206888D02*
X3926515Y-13168793D01*
X3926515Y-13168793D02*
X3926515Y-13121174D01*
X3926515Y-13121174D02*
X3936039Y-13083079D01*
X3936039Y-13083079D02*
X3945563Y-13064031D01*
X3945563Y-13064031D02*
X3955086Y-13054508D01*
X3955086Y-13054508D02*
X3974134Y-13044984D01*
X4126515Y-13225936D02*
X4136039Y-13235460D01*
X4136039Y-13235460D02*
X4126515Y-13244984D01*
X4126515Y-13244984D02*
X4116991Y-13235460D01*
X4116991Y-13235460D02*
X4126515Y-13225936D01*
X4126515Y-13225936D02*
X4126515Y-13244984D01*
X4259848Y-13044984D02*
X4278896Y-13044984D01*
X4278896Y-13044984D02*
X4297944Y-13054508D01*
X4297944Y-13054508D02*
X4307468Y-13064031D01*
X4307468Y-13064031D02*
X4316991Y-13083079D01*
X4316991Y-13083079D02*
X4326515Y-13121174D01*
X4326515Y-13121174D02*
X4326515Y-13168793D01*
X4326515Y-13168793D02*
X4316991Y-13206888D01*
X4316991Y-13206888D02*
X4307468Y-13225936D01*
X4307468Y-13225936D02*
X4297944Y-13235460D01*
X4297944Y-13235460D02*
X4278896Y-13244984D01*
X4278896Y-13244984D02*
X4259848Y-13244984D01*
X4259848Y-13244984D02*
X4240801Y-13235460D01*
X4240801Y-13235460D02*
X4231277Y-13225936D01*
X4231277Y-13225936D02*
X4221753Y-13206888D01*
X4221753Y-13206888D02*
X4212229Y-13168793D01*
X4212229Y-13168793D02*
X4212229Y-13121174D01*
X4212229Y-13121174D02*
X4221753Y-13083079D01*
X4221753Y-13083079D02*
X4231277Y-13064031D01*
X4231277Y-13064031D02*
X4240801Y-13054508D01*
X4240801Y-13054508D02*
X4259848Y-13044984D01*
X4497944Y-13111650D02*
X4497944Y-13244984D01*
X4450325Y-13035460D02*
X4402706Y-13178317D01*
X4402706Y-13178317D02*
X4526515Y-13178317D01*
X4583658Y-13044984D02*
X4716991Y-13044984D01*
X4716991Y-13044984D02*
X4631277Y-13244984D01*
X4783658Y-13064031D02*
X4793182Y-13054508D01*
X4793182Y-13054508D02*
X4812229Y-13044984D01*
X4812229Y-13044984D02*
X4859849Y-13044984D01*
X4859849Y-13044984D02*
X4878896Y-13054508D01*
X4878896Y-13054508D02*
X4888420Y-13064031D01*
X4888420Y-13064031D02*
X4897944Y-13083079D01*
X4897944Y-13083079D02*
X4897944Y-13102127D01*
X4897944Y-13102127D02*
X4888420Y-13130698D01*
X4888420Y-13130698D02*
X4774134Y-13244984D01*
X4774134Y-13244984D02*
X4897944Y-13244984D01*
X4974134Y-13044984D02*
X4974134Y-13083079D01*
X5050325Y-13044984D02*
X5050325Y-13083079D01*
X5345563Y-13321174D02*
X5336039Y-13311650D01*
X5336039Y-13311650D02*
X5316991Y-13283079D01*
X5316991Y-13283079D02*
X5307468Y-13264031D01*
X5307468Y-13264031D02*
X5297944Y-13235460D01*
X5297944Y-13235460D02*
X5288420Y-13187841D01*
X5288420Y-13187841D02*
X5288420Y-13149746D01*
X5288420Y-13149746D02*
X5297944Y-13102127D01*
X5297944Y-13102127D02*
X5307468Y-13073555D01*
X5307468Y-13073555D02*
X5316991Y-13054508D01*
X5316991Y-13054508D02*
X5336039Y-13025936D01*
X5336039Y-13025936D02*
X5345563Y-13016412D01*
X5450325Y-13130698D02*
X5431277Y-13121174D01*
X5431277Y-13121174D02*
X5421753Y-13111650D01*
X5421753Y-13111650D02*
X5412230Y-13092603D01*
X5412230Y-13092603D02*
X5412230Y-13083079D01*
X5412230Y-13083079D02*
X5421753Y-13064031D01*
X5421753Y-13064031D02*
X5431277Y-13054508D01*
X5431277Y-13054508D02*
X5450325Y-13044984D01*
X5450325Y-13044984D02*
X5488420Y-13044984D01*
X5488420Y-13044984D02*
X5507468Y-13054508D01*
X5507468Y-13054508D02*
X5516991Y-13064031D01*
X5516991Y-13064031D02*
X5526515Y-13083079D01*
X5526515Y-13083079D02*
X5526515Y-13092603D01*
X5526515Y-13092603D02*
X5516991Y-13111650D01*
X5516991Y-13111650D02*
X5507468Y-13121174D01*
X5507468Y-13121174D02*
X5488420Y-13130698D01*
X5488420Y-13130698D02*
X5450325Y-13130698D01*
X5450325Y-13130698D02*
X5431277Y-13140222D01*
X5431277Y-13140222D02*
X5421753Y-13149746D01*
X5421753Y-13149746D02*
X5412230Y-13168793D01*
X5412230Y-13168793D02*
X5412230Y-13206888D01*
X5412230Y-13206888D02*
X5421753Y-13225936D01*
X5421753Y-13225936D02*
X5431277Y-13235460D01*
X5431277Y-13235460D02*
X5450325Y-13244984D01*
X5450325Y-13244984D02*
X5488420Y-13244984D01*
X5488420Y-13244984D02*
X5507468Y-13235460D01*
X5507468Y-13235460D02*
X5516991Y-13225936D01*
X5516991Y-13225936D02*
X5526515Y-13206888D01*
X5526515Y-13206888D02*
X5526515Y-13168793D01*
X5526515Y-13168793D02*
X5516991Y-13149746D01*
X5516991Y-13149746D02*
X5507468Y-13140222D01*
X5507468Y-13140222D02*
X5488420Y-13130698D01*
X5764610Y-13244984D02*
X5764610Y-13044984D01*
X5850325Y-13244984D02*
X5850325Y-13140222D01*
X5850325Y-13140222D02*
X5840801Y-13121174D01*
X5840801Y-13121174D02*
X5821753Y-13111650D01*
X5821753Y-13111650D02*
X5793182Y-13111650D01*
X5793182Y-13111650D02*
X5774134Y-13121174D01*
X5774134Y-13121174D02*
X5764610Y-13130698D01*
X5974134Y-13244984D02*
X5955087Y-13235460D01*
X5955087Y-13235460D02*
X5945563Y-13225936D01*
X5945563Y-13225936D02*
X5936039Y-13206888D01*
X5936039Y-13206888D02*
X5936039Y-13149746D01*
X5936039Y-13149746D02*
X5945563Y-13130698D01*
X5945563Y-13130698D02*
X5955087Y-13121174D01*
X5955087Y-13121174D02*
X5974134Y-13111650D01*
X5974134Y-13111650D02*
X6002706Y-13111650D01*
X6002706Y-13111650D02*
X6021753Y-13121174D01*
X6021753Y-13121174D02*
X6031277Y-13130698D01*
X6031277Y-13130698D02*
X6040801Y-13149746D01*
X6040801Y-13149746D02*
X6040801Y-13206888D01*
X6040801Y-13206888D02*
X6031277Y-13225936D01*
X6031277Y-13225936D02*
X6021753Y-13235460D01*
X6021753Y-13235460D02*
X6002706Y-13244984D01*
X6002706Y-13244984D02*
X5974134Y-13244984D01*
X6155087Y-13244984D02*
X6136039Y-13235460D01*
X6136039Y-13235460D02*
X6126515Y-13216412D01*
X6126515Y-13216412D02*
X6126515Y-13044984D01*
X6307468Y-13235460D02*
X6288420Y-13244984D01*
X6288420Y-13244984D02*
X6250325Y-13244984D01*
X6250325Y-13244984D02*
X6231277Y-13235460D01*
X6231277Y-13235460D02*
X6221753Y-13216412D01*
X6221753Y-13216412D02*
X6221753Y-13140222D01*
X6221753Y-13140222D02*
X6231277Y-13121174D01*
X6231277Y-13121174D02*
X6250325Y-13111650D01*
X6250325Y-13111650D02*
X6288420Y-13111650D01*
X6288420Y-13111650D02*
X6307468Y-13121174D01*
X6307468Y-13121174D02*
X6316991Y-13140222D01*
X6316991Y-13140222D02*
X6316991Y-13159269D01*
X6316991Y-13159269D02*
X6221753Y-13178317D01*
X6393182Y-13235460D02*
X6412230Y-13244984D01*
X6412230Y-13244984D02*
X6450325Y-13244984D01*
X6450325Y-13244984D02*
X6469372Y-13235460D01*
X6469372Y-13235460D02*
X6478896Y-13216412D01*
X6478896Y-13216412D02*
X6478896Y-13206888D01*
X6478896Y-13206888D02*
X6469372Y-13187841D01*
X6469372Y-13187841D02*
X6450325Y-13178317D01*
X6450325Y-13178317D02*
X6421753Y-13178317D01*
X6421753Y-13178317D02*
X6402706Y-13168793D01*
X6402706Y-13168793D02*
X6393182Y-13149746D01*
X6393182Y-13149746D02*
X6393182Y-13140222D01*
X6393182Y-13140222D02*
X6402706Y-13121174D01*
X6402706Y-13121174D02*
X6421753Y-13111650D01*
X6421753Y-13111650D02*
X6450325Y-13111650D01*
X6450325Y-13111650D02*
X6469372Y-13121174D01*
X6545563Y-13321174D02*
X6555087Y-13311650D01*
X6555087Y-13311650D02*
X6574134Y-13283079D01*
X6574134Y-13283079D02*
X6583658Y-13264031D01*
X6583658Y-13264031D02*
X6593182Y-13235460D01*
X6593182Y-13235460D02*
X6602706Y-13187841D01*
X6602706Y-13187841D02*
X6602706Y-13149746D01*
X6602706Y-13149746D02*
X6593182Y-13102127D01*
X6593182Y-13102127D02*
X6583658Y-13073555D01*
X6583658Y-13073555D02*
X6574134Y-13054508D01*
X6574134Y-13054508D02*
X6555087Y-13025936D01*
X6555087Y-13025936D02*
X6545563Y-13016412D01*
X1570500Y-13317500D02*
X1770500Y-13517500D01*
X1770500Y-13317500D02*
X1570500Y-13517500D01*
X1741211Y-13488211D02*
X1741211Y-13346789D01*
X1599789Y-13346789D01*
X1599789Y-13488211D01*
X1741211Y-13488211D01*
X2012229Y-13308984D02*
X2136039Y-13308984D01*
X2136039Y-13308984D02*
X2069372Y-13385174D01*
X2069372Y-13385174D02*
X2097944Y-13385174D01*
X2097944Y-13385174D02*
X2116991Y-13394698D01*
X2116991Y-13394698D02*
X2126515Y-13404222D01*
X2126515Y-13404222D02*
X2136039Y-13423269D01*
X2136039Y-13423269D02*
X2136039Y-13470888D01*
X2136039Y-13470888D02*
X2126515Y-13489936D01*
X2126515Y-13489936D02*
X2116991Y-13499460D01*
X2116991Y-13499460D02*
X2097944Y-13508984D01*
X2097944Y-13508984D02*
X2040801Y-13508984D01*
X2040801Y-13508984D02*
X2021753Y-13499460D01*
X2021753Y-13499460D02*
X2012229Y-13489936D01*
X2221753Y-13489936D02*
X2231277Y-13499460D01*
X2231277Y-13499460D02*
X2221753Y-13508984D01*
X2221753Y-13508984D02*
X2212229Y-13499460D01*
X2212229Y-13499460D02*
X2221753Y-13489936D01*
X2221753Y-13489936D02*
X2221753Y-13508984D01*
X2307467Y-13328031D02*
X2316991Y-13318508D01*
X2316991Y-13318508D02*
X2336039Y-13308984D01*
X2336039Y-13308984D02*
X2383658Y-13308984D01*
X2383658Y-13308984D02*
X2402705Y-13318508D01*
X2402705Y-13318508D02*
X2412229Y-13328031D01*
X2412229Y-13328031D02*
X2421753Y-13347079D01*
X2421753Y-13347079D02*
X2421753Y-13366127D01*
X2421753Y-13366127D02*
X2412229Y-13394698D01*
X2412229Y-13394698D02*
X2297944Y-13508984D01*
X2297944Y-13508984D02*
X2421753Y-13508984D01*
X2545563Y-13308984D02*
X2564610Y-13308984D01*
X2564610Y-13308984D02*
X2583658Y-13318508D01*
X2583658Y-13318508D02*
X2593182Y-13328031D01*
X2593182Y-13328031D02*
X2602705Y-13347079D01*
X2602705Y-13347079D02*
X2612229Y-13385174D01*
X2612229Y-13385174D02*
X2612229Y-13432793D01*
X2612229Y-13432793D02*
X2602705Y-13470888D01*
X2602705Y-13470888D02*
X2593182Y-13489936D01*
X2593182Y-13489936D02*
X2583658Y-13499460D01*
X2583658Y-13499460D02*
X2564610Y-13508984D01*
X2564610Y-13508984D02*
X2545563Y-13508984D01*
X2545563Y-13508984D02*
X2526515Y-13499460D01*
X2526515Y-13499460D02*
X2516991Y-13489936D01*
X2516991Y-13489936D02*
X2507467Y-13470888D01*
X2507467Y-13470888D02*
X2497944Y-13432793D01*
X2497944Y-13432793D02*
X2497944Y-13385174D01*
X2497944Y-13385174D02*
X2507467Y-13347079D01*
X2507467Y-13347079D02*
X2516991Y-13328031D01*
X2516991Y-13328031D02*
X2526515Y-13318508D01*
X2526515Y-13318508D02*
X2545563Y-13308984D01*
X2736039Y-13308984D02*
X2755086Y-13308984D01*
X2755086Y-13308984D02*
X2774134Y-13318508D01*
X2774134Y-13318508D02*
X2783658Y-13328031D01*
X2783658Y-13328031D02*
X2793182Y-13347079D01*
X2793182Y-13347079D02*
X2802705Y-13385174D01*
X2802705Y-13385174D02*
X2802705Y-13432793D01*
X2802705Y-13432793D02*
X2793182Y-13470888D01*
X2793182Y-13470888D02*
X2783658Y-13489936D01*
X2783658Y-13489936D02*
X2774134Y-13499460D01*
X2774134Y-13499460D02*
X2755086Y-13508984D01*
X2755086Y-13508984D02*
X2736039Y-13508984D01*
X2736039Y-13508984D02*
X2716991Y-13499460D01*
X2716991Y-13499460D02*
X2707467Y-13489936D01*
X2707467Y-13489936D02*
X2697944Y-13470888D01*
X2697944Y-13470888D02*
X2688420Y-13432793D01*
X2688420Y-13432793D02*
X2688420Y-13385174D01*
X2688420Y-13385174D02*
X2697944Y-13347079D01*
X2697944Y-13347079D02*
X2707467Y-13328031D01*
X2707467Y-13328031D02*
X2716991Y-13318508D01*
X2716991Y-13318508D02*
X2736039Y-13308984D01*
X2888420Y-13508984D02*
X2888420Y-13375650D01*
X2888420Y-13394698D02*
X2897943Y-13385174D01*
X2897943Y-13385174D02*
X2916991Y-13375650D01*
X2916991Y-13375650D02*
X2945563Y-13375650D01*
X2945563Y-13375650D02*
X2964610Y-13385174D01*
X2964610Y-13385174D02*
X2974134Y-13404222D01*
X2974134Y-13404222D02*
X2974134Y-13508984D01*
X2974134Y-13404222D02*
X2983658Y-13385174D01*
X2983658Y-13385174D02*
X3002705Y-13375650D01*
X3002705Y-13375650D02*
X3031277Y-13375650D01*
X3031277Y-13375650D02*
X3050324Y-13385174D01*
X3050324Y-13385174D02*
X3059848Y-13404222D01*
X3059848Y-13404222D02*
X3059848Y-13508984D01*
X3155086Y-13508984D02*
X3155086Y-13375650D01*
X3155086Y-13394698D02*
X3164610Y-13385174D01*
X3164610Y-13385174D02*
X3183658Y-13375650D01*
X3183658Y-13375650D02*
X3212229Y-13375650D01*
X3212229Y-13375650D02*
X3231277Y-13385174D01*
X3231277Y-13385174D02*
X3240801Y-13404222D01*
X3240801Y-13404222D02*
X3240801Y-13508984D01*
X3240801Y-13404222D02*
X3250324Y-13385174D01*
X3250324Y-13385174D02*
X3269372Y-13375650D01*
X3269372Y-13375650D02*
X3297943Y-13375650D01*
X3297943Y-13375650D02*
X3316991Y-13385174D01*
X3316991Y-13385174D02*
X3326515Y-13404222D01*
X3326515Y-13404222D02*
X3326515Y-13508984D01*
X3716991Y-13299460D02*
X3545563Y-13556603D01*
X3974134Y-13308984D02*
X3993182Y-13308984D01*
X3993182Y-13308984D02*
X4012229Y-13318508D01*
X4012229Y-13318508D02*
X4021753Y-13328031D01*
X4021753Y-13328031D02*
X4031277Y-13347079D01*
X4031277Y-13347079D02*
X4040801Y-13385174D01*
X4040801Y-13385174D02*
X4040801Y-13432793D01*
X4040801Y-13432793D02*
X4031277Y-13470888D01*
X4031277Y-13470888D02*
X4021753Y-13489936D01*
X4021753Y-13489936D02*
X4012229Y-13499460D01*
X4012229Y-13499460D02*
X3993182Y-13508984D01*
X3993182Y-13508984D02*
X3974134Y-13508984D01*
X3974134Y-13508984D02*
X3955086Y-13499460D01*
X3955086Y-13499460D02*
X3945563Y-13489936D01*
X3945563Y-13489936D02*
X3936039Y-13470888D01*
X3936039Y-13470888D02*
X3926515Y-13432793D01*
X3926515Y-13432793D02*
X3926515Y-13385174D01*
X3926515Y-13385174D02*
X3936039Y-13347079D01*
X3936039Y-13347079D02*
X3945563Y-13328031D01*
X3945563Y-13328031D02*
X3955086Y-13318508D01*
X3955086Y-13318508D02*
X3974134Y-13308984D01*
X4126515Y-13489936D02*
X4136039Y-13499460D01*
X4136039Y-13499460D02*
X4126515Y-13508984D01*
X4126515Y-13508984D02*
X4116991Y-13499460D01*
X4116991Y-13499460D02*
X4126515Y-13489936D01*
X4126515Y-13489936D02*
X4126515Y-13508984D01*
X4326515Y-13508984D02*
X4212229Y-13508984D01*
X4269372Y-13508984D02*
X4269372Y-13308984D01*
X4269372Y-13308984D02*
X4250325Y-13337555D01*
X4250325Y-13337555D02*
X4231277Y-13356603D01*
X4231277Y-13356603D02*
X4212229Y-13366127D01*
X4402706Y-13328031D02*
X4412229Y-13318508D01*
X4412229Y-13318508D02*
X4431277Y-13308984D01*
X4431277Y-13308984D02*
X4478896Y-13308984D01*
X4478896Y-13308984D02*
X4497944Y-13318508D01*
X4497944Y-13318508D02*
X4507468Y-13328031D01*
X4507468Y-13328031D02*
X4516991Y-13347079D01*
X4516991Y-13347079D02*
X4516991Y-13366127D01*
X4516991Y-13366127D02*
X4507468Y-13394698D01*
X4507468Y-13394698D02*
X4393182Y-13508984D01*
X4393182Y-13508984D02*
X4516991Y-13508984D01*
X4688420Y-13308984D02*
X4650325Y-13308984D01*
X4650325Y-13308984D02*
X4631277Y-13318508D01*
X4631277Y-13318508D02*
X4621753Y-13328031D01*
X4621753Y-13328031D02*
X4602706Y-13356603D01*
X4602706Y-13356603D02*
X4593182Y-13394698D01*
X4593182Y-13394698D02*
X4593182Y-13470888D01*
X4593182Y-13470888D02*
X4602706Y-13489936D01*
X4602706Y-13489936D02*
X4612229Y-13499460D01*
X4612229Y-13499460D02*
X4631277Y-13508984D01*
X4631277Y-13508984D02*
X4669372Y-13508984D01*
X4669372Y-13508984D02*
X4688420Y-13499460D01*
X4688420Y-13499460D02*
X4697944Y-13489936D01*
X4697944Y-13489936D02*
X4707468Y-13470888D01*
X4707468Y-13470888D02*
X4707468Y-13423269D01*
X4707468Y-13423269D02*
X4697944Y-13404222D01*
X4697944Y-13404222D02*
X4688420Y-13394698D01*
X4688420Y-13394698D02*
X4669372Y-13385174D01*
X4669372Y-13385174D02*
X4631277Y-13385174D01*
X4631277Y-13385174D02*
X4612229Y-13394698D01*
X4612229Y-13394698D02*
X4602706Y-13404222D01*
X4602706Y-13404222D02*
X4593182Y-13423269D01*
X4831277Y-13308984D02*
X4850325Y-13308984D01*
X4850325Y-13308984D02*
X4869372Y-13318508D01*
X4869372Y-13318508D02*
X4878896Y-13328031D01*
X4878896Y-13328031D02*
X4888420Y-13347079D01*
X4888420Y-13347079D02*
X4897944Y-13385174D01*
X4897944Y-13385174D02*
X4897944Y-13432793D01*
X4897944Y-13432793D02*
X4888420Y-13470888D01*
X4888420Y-13470888D02*
X4878896Y-13489936D01*
X4878896Y-13489936D02*
X4869372Y-13499460D01*
X4869372Y-13499460D02*
X4850325Y-13508984D01*
X4850325Y-13508984D02*
X4831277Y-13508984D01*
X4831277Y-13508984D02*
X4812229Y-13499460D01*
X4812229Y-13499460D02*
X4802706Y-13489936D01*
X4802706Y-13489936D02*
X4793182Y-13470888D01*
X4793182Y-13470888D02*
X4783658Y-13432793D01*
X4783658Y-13432793D02*
X4783658Y-13385174D01*
X4783658Y-13385174D02*
X4793182Y-13347079D01*
X4793182Y-13347079D02*
X4802706Y-13328031D01*
X4802706Y-13328031D02*
X4812229Y-13318508D01*
X4812229Y-13318508D02*
X4831277Y-13308984D01*
X4974134Y-13308984D02*
X4974134Y-13347079D01*
X5050325Y-13308984D02*
X5050325Y-13347079D01*
X5345563Y-13585174D02*
X5336039Y-13575650D01*
X5336039Y-13575650D02*
X5316991Y-13547079D01*
X5316991Y-13547079D02*
X5307468Y-13528031D01*
X5307468Y-13528031D02*
X5297944Y-13499460D01*
X5297944Y-13499460D02*
X5288420Y-13451841D01*
X5288420Y-13451841D02*
X5288420Y-13413746D01*
X5288420Y-13413746D02*
X5297944Y-13366127D01*
X5297944Y-13366127D02*
X5307468Y-13337555D01*
X5307468Y-13337555D02*
X5316991Y-13318508D01*
X5316991Y-13318508D02*
X5336039Y-13289936D01*
X5336039Y-13289936D02*
X5345563Y-13280412D01*
X5507468Y-13375650D02*
X5507468Y-13508984D01*
X5459849Y-13299460D02*
X5412230Y-13442317D01*
X5412230Y-13442317D02*
X5536039Y-13442317D01*
X5764610Y-13508984D02*
X5764610Y-13308984D01*
X5850325Y-13508984D02*
X5850325Y-13404222D01*
X5850325Y-13404222D02*
X5840801Y-13385174D01*
X5840801Y-13385174D02*
X5821753Y-13375650D01*
X5821753Y-13375650D02*
X5793182Y-13375650D01*
X5793182Y-13375650D02*
X5774134Y-13385174D01*
X5774134Y-13385174D02*
X5764610Y-13394698D01*
X5974134Y-13508984D02*
X5955087Y-13499460D01*
X5955087Y-13499460D02*
X5945563Y-13489936D01*
X5945563Y-13489936D02*
X5936039Y-13470888D01*
X5936039Y-13470888D02*
X5936039Y-13413746D01*
X5936039Y-13413746D02*
X5945563Y-13394698D01*
X5945563Y-13394698D02*
X5955087Y-13385174D01*
X5955087Y-13385174D02*
X5974134Y-13375650D01*
X5974134Y-13375650D02*
X6002706Y-13375650D01*
X6002706Y-13375650D02*
X6021753Y-13385174D01*
X6021753Y-13385174D02*
X6031277Y-13394698D01*
X6031277Y-13394698D02*
X6040801Y-13413746D01*
X6040801Y-13413746D02*
X6040801Y-13470888D01*
X6040801Y-13470888D02*
X6031277Y-13489936D01*
X6031277Y-13489936D02*
X6021753Y-13499460D01*
X6021753Y-13499460D02*
X6002706Y-13508984D01*
X6002706Y-13508984D02*
X5974134Y-13508984D01*
X6155087Y-13508984D02*
X6136039Y-13499460D01*
X6136039Y-13499460D02*
X6126515Y-13480412D01*
X6126515Y-13480412D02*
X6126515Y-13308984D01*
X6307468Y-13499460D02*
X6288420Y-13508984D01*
X6288420Y-13508984D02*
X6250325Y-13508984D01*
X6250325Y-13508984D02*
X6231277Y-13499460D01*
X6231277Y-13499460D02*
X6221753Y-13480412D01*
X6221753Y-13480412D02*
X6221753Y-13404222D01*
X6221753Y-13404222D02*
X6231277Y-13385174D01*
X6231277Y-13385174D02*
X6250325Y-13375650D01*
X6250325Y-13375650D02*
X6288420Y-13375650D01*
X6288420Y-13375650D02*
X6307468Y-13385174D01*
X6307468Y-13385174D02*
X6316991Y-13404222D01*
X6316991Y-13404222D02*
X6316991Y-13423269D01*
X6316991Y-13423269D02*
X6221753Y-13442317D01*
X6393182Y-13499460D02*
X6412230Y-13508984D01*
X6412230Y-13508984D02*
X6450325Y-13508984D01*
X6450325Y-13508984D02*
X6469372Y-13499460D01*
X6469372Y-13499460D02*
X6478896Y-13480412D01*
X6478896Y-13480412D02*
X6478896Y-13470888D01*
X6478896Y-13470888D02*
X6469372Y-13451841D01*
X6469372Y-13451841D02*
X6450325Y-13442317D01*
X6450325Y-13442317D02*
X6421753Y-13442317D01*
X6421753Y-13442317D02*
X6402706Y-13432793D01*
X6402706Y-13432793D02*
X6393182Y-13413746D01*
X6393182Y-13413746D02*
X6393182Y-13404222D01*
X6393182Y-13404222D02*
X6402706Y-13385174D01*
X6402706Y-13385174D02*
X6421753Y-13375650D01*
X6421753Y-13375650D02*
X6450325Y-13375650D01*
X6450325Y-13375650D02*
X6469372Y-13385174D01*
X6545563Y-13585174D02*
X6555087Y-13575650D01*
X6555087Y-13575650D02*
X6574134Y-13547079D01*
X6574134Y-13547079D02*
X6583658Y-13528031D01*
X6583658Y-13528031D02*
X6593182Y-13499460D01*
X6593182Y-13499460D02*
X6602706Y-13451841D01*
X6602706Y-13451841D02*
X6602706Y-13413746D01*
X6602706Y-13413746D02*
X6593182Y-13366127D01*
X6593182Y-13366127D02*
X6583658Y-13337555D01*
X6583658Y-13337555D02*
X6574134Y-13318508D01*
X6574134Y-13318508D02*
X6555087Y-13289936D01*
X6555087Y-13289936D02*
X6545563Y-13280412D01*
M02*
