%TF.GenerationSoftware,KiCad,Pcbnew,7.0.5-0*%
%TF.CreationDate,2023-06-05T22:28:17-07:00*%
%TF.ProjectId,PCTGotekAdapter,50435447-6f74-4656-9b41-646170746572,A*%
%TF.SameCoordinates,Original*%
%TF.FileFunction,Drillmap*%
%TF.FilePolarity,Positive*%
%FSLAX45Y45*%
G04 Gerber Fmt 4.5, Leading zero omitted, Abs format (unit mm)*
G04 Created by KiCad (PCBNEW 7.0.5-0) date 2023-06-05 22:28:17*
%MOMM*%
%LPD*%
G01*
G04 APERTURE LIST*
%ADD10C,0.150000*%
%ADD11C,0.200000*%
G04 APERTURE END LIST*
D10*
X1778000Y-5334000D02*
X13208000Y-5334000D01*
X13208000Y-10922000D01*
X1778000Y-10922000D01*
X1778000Y-5334000D01*
D11*
X2031277Y-11240984D02*
X2031277Y-11040984D01*
X2031277Y-11040984D02*
X2078896Y-11040984D01*
X2078896Y-11040984D02*
X2107467Y-11050508D01*
X2107467Y-11050508D02*
X2126515Y-11069555D01*
X2126515Y-11069555D02*
X2136039Y-11088603D01*
X2136039Y-11088603D02*
X2145563Y-11126698D01*
X2145563Y-11126698D02*
X2145563Y-11155270D01*
X2145563Y-11155270D02*
X2136039Y-11193365D01*
X2136039Y-11193365D02*
X2126515Y-11212412D01*
X2126515Y-11212412D02*
X2107467Y-11231460D01*
X2107467Y-11231460D02*
X2078896Y-11240984D01*
X2078896Y-11240984D02*
X2031277Y-11240984D01*
X2231277Y-11240984D02*
X2231277Y-11107650D01*
X2231277Y-11145746D02*
X2240801Y-11126698D01*
X2240801Y-11126698D02*
X2250324Y-11117174D01*
X2250324Y-11117174D02*
X2269372Y-11107650D01*
X2269372Y-11107650D02*
X2288420Y-11107650D01*
X2355086Y-11240984D02*
X2355086Y-11107650D01*
X2355086Y-11040984D02*
X2345563Y-11050508D01*
X2345563Y-11050508D02*
X2355086Y-11060031D01*
X2355086Y-11060031D02*
X2364610Y-11050508D01*
X2364610Y-11050508D02*
X2355086Y-11040984D01*
X2355086Y-11040984D02*
X2355086Y-11060031D01*
X2478896Y-11240984D02*
X2459848Y-11231460D01*
X2459848Y-11231460D02*
X2450324Y-11212412D01*
X2450324Y-11212412D02*
X2450324Y-11040984D01*
X2583658Y-11240984D02*
X2564610Y-11231460D01*
X2564610Y-11231460D02*
X2555086Y-11212412D01*
X2555086Y-11212412D02*
X2555086Y-11040984D01*
X2812229Y-11240984D02*
X2812229Y-11040984D01*
X2812229Y-11040984D02*
X2878896Y-11183841D01*
X2878896Y-11183841D02*
X2945562Y-11040984D01*
X2945562Y-11040984D02*
X2945562Y-11240984D01*
X3126515Y-11240984D02*
X3126515Y-11136222D01*
X3126515Y-11136222D02*
X3116991Y-11117174D01*
X3116991Y-11117174D02*
X3097943Y-11107650D01*
X3097943Y-11107650D02*
X3059848Y-11107650D01*
X3059848Y-11107650D02*
X3040801Y-11117174D01*
X3126515Y-11231460D02*
X3107467Y-11240984D01*
X3107467Y-11240984D02*
X3059848Y-11240984D01*
X3059848Y-11240984D02*
X3040801Y-11231460D01*
X3040801Y-11231460D02*
X3031277Y-11212412D01*
X3031277Y-11212412D02*
X3031277Y-11193365D01*
X3031277Y-11193365D02*
X3040801Y-11174317D01*
X3040801Y-11174317D02*
X3059848Y-11164793D01*
X3059848Y-11164793D02*
X3107467Y-11164793D01*
X3107467Y-11164793D02*
X3126515Y-11155270D01*
X3221753Y-11107650D02*
X3221753Y-11307650D01*
X3221753Y-11117174D02*
X3240801Y-11107650D01*
X3240801Y-11107650D02*
X3278896Y-11107650D01*
X3278896Y-11107650D02*
X3297943Y-11117174D01*
X3297943Y-11117174D02*
X3307467Y-11126698D01*
X3307467Y-11126698D02*
X3316991Y-11145746D01*
X3316991Y-11145746D02*
X3316991Y-11202888D01*
X3316991Y-11202888D02*
X3307467Y-11221936D01*
X3307467Y-11221936D02*
X3297943Y-11231460D01*
X3297943Y-11231460D02*
X3278896Y-11240984D01*
X3278896Y-11240984D02*
X3240801Y-11240984D01*
X3240801Y-11240984D02*
X3221753Y-11231460D01*
X3402705Y-11221936D02*
X3412229Y-11231460D01*
X3412229Y-11231460D02*
X3402705Y-11240984D01*
X3402705Y-11240984D02*
X3393182Y-11231460D01*
X3393182Y-11231460D02*
X3402705Y-11221936D01*
X3402705Y-11221936D02*
X3402705Y-11240984D01*
X3402705Y-11117174D02*
X3412229Y-11126698D01*
X3412229Y-11126698D02*
X3402705Y-11136222D01*
X3402705Y-11136222D02*
X3393182Y-11126698D01*
X3393182Y-11126698D02*
X3402705Y-11117174D01*
X3402705Y-11117174D02*
X3402705Y-11136222D01*
M02*
