M48
; DRILL file {KiCad 7.0.5-0} date 2023 June 05, Monday 22:27:48
; FORMAT={-:-/ absolute / metric / decimal}
; #@! TF.CreationDate,2023-06-05T22:27:48-07:00
; #@! TF.GenerationSoftware,Kicad,Pcbnew,7.0.5-0
; #@! TF.FileFunction,Plated,1,2,PTH
FMAT,2
METRIC
; #@! TA.AperFunction,Plated,PTH,ViaDrill
T1C0.400
; #@! TA.AperFunction,Plated,PTH,ComponentDrill
T2C0.500
; #@! TA.AperFunction,Plated,PTH,ComponentDrill
T3C0.770
; #@! TA.AperFunction,Plated,PTH,ComponentDrill
T4C0.780
; #@! TA.AperFunction,Plated,PTH,ComponentDrill
T5C0.800
; #@! TA.AperFunction,Plated,PTH,ComponentDrill
T6C1.000
; #@! TA.AperFunction,Plated,PTH,ComponentDrill
T7C1.200
; #@! TA.AperFunction,Plated,PTH,ComponentDrill
T8C3.200
%
G90
G05
T1
X22.86Y-78.74
X27.94Y-86.36
X30.48Y-81.28
X38.1Y-81.28
X48.26Y-86.36
X50.8Y-83.82
X55.88Y-83.82
X58.42Y-71.12
X58.42Y-104.14
X60.96Y-73.66
X63.437Y-80.033
X68.58Y-58.42
X68.58Y-73.66
X68.58Y-81.28
X69.134Y-70.819
X71.12Y-78.74
X73.66Y-63.5
X78.74Y-83.82
X83.82Y-78.74
X87.815Y-102.254
X91.44Y-63.5
X93.98Y-93.98
X94.812Y-69.412
X96.52Y-78.74
X101.6Y-78.74
X101.6Y-93.98
X104.14Y-86.36
X104.14Y-96.52
X105.004Y-72.469
X106.68Y-81.28
X106.702Y-95.104
X108.9Y-71.701
X109.22Y-78.74
X109.22Y-104.14
X109.885Y-85.626
X111.76Y-58.42
X111.76Y-63.5
X111.76Y-83.82
X116.84Y-76.2
X118.099Y-81.204
X118.283Y-69.616
T2
X21.303Y-59.263
X21.303Y-103.297
X22.006Y-57.566
X22.006Y-60.96
X22.006Y-101.6
X22.006Y-104.994
X23.703Y-56.863
X23.703Y-61.663
X23.703Y-100.897
X23.703Y-105.697
X25.4Y-57.566
X25.4Y-60.96
X25.4Y-101.6
X25.4Y-104.994
X26.103Y-59.263
X26.103Y-103.297
X123.757Y-59.263
X123.757Y-103.297
X124.46Y-57.566
X124.46Y-60.96
X124.46Y-101.6
X124.46Y-104.994
X126.157Y-56.863
X126.157Y-61.663
X126.157Y-100.897
X126.157Y-105.697
X127.854Y-57.566
X127.854Y-60.96
X127.854Y-101.6
X127.854Y-104.994
X128.557Y-59.263
X128.557Y-103.297
T3
X99.06Y-68.26
X99.06Y-76.2
X101.6Y-68.26
X101.6Y-76.2
X104.14Y-68.26
X104.14Y-76.2
X106.68Y-68.26
X106.68Y-76.2
X109.22Y-68.26
X109.22Y-76.2
X111.76Y-68.26
X111.76Y-76.2
X114.3Y-68.26
X114.3Y-76.2
T4
X53.34Y-68.26
X53.34Y-76.2
X55.88Y-68.26
X55.88Y-76.2
X58.42Y-68.26
X58.42Y-76.2
X60.96Y-68.26
X60.96Y-76.2
X63.5Y-68.26
X63.5Y-76.2
X66.04Y-68.26
X66.04Y-76.2
X68.58Y-68.26
X68.58Y-76.2
X71.12Y-68.26
X71.12Y-76.2
T5
X78.74Y-71.12
X78.74Y-73.12
X91.44Y-71.12
X91.44Y-73.12
T6
X22.86Y-71.12
X22.86Y-96.52
X25.4Y-71.12
X25.4Y-96.52
X27.94Y-71.12
X27.94Y-96.52
X30.48Y-71.12
X30.48Y-96.52
X40.64Y-88.9
X40.64Y-91.44
X40.64Y-99.06
X40.64Y-101.6
X43.18Y-88.9
X43.18Y-91.44
X43.18Y-99.06
X43.18Y-101.6
X45.72Y-88.9
X45.72Y-91.44
X45.72Y-99.06
X45.72Y-101.6
X48.26Y-88.9
X48.26Y-91.44
X48.26Y-99.06
X48.26Y-101.6
X50.8Y-88.9
X50.8Y-91.44
X50.8Y-99.06
X50.8Y-101.6
X53.34Y-88.9
X53.34Y-91.44
X53.34Y-99.06
X53.34Y-101.6
X55.88Y-88.9
X55.88Y-91.44
X55.88Y-99.06
X55.88Y-101.6
X58.42Y-88.9
X58.42Y-91.44
X58.42Y-99.06
X58.42Y-101.6
X60.96Y-88.9
X60.96Y-91.44
X60.96Y-99.06
X60.96Y-101.6
X63.5Y-88.9
X63.5Y-91.44
X63.5Y-99.06
X63.5Y-101.6
X66.04Y-88.9
X66.04Y-91.44
X66.04Y-99.06
X66.04Y-101.6
X68.58Y-88.9
X68.58Y-91.44
X68.58Y-99.06
X68.58Y-101.6
X71.12Y-88.9
X71.12Y-91.44
X71.12Y-99.06
X71.12Y-101.6
X73.66Y-88.9
X73.66Y-91.44
X73.66Y-99.06
X73.66Y-101.6
X76.2Y-88.9
X76.2Y-91.44
X76.2Y-99.06
X76.2Y-101.6
X78.74Y-88.9
X78.74Y-91.44
X78.74Y-99.06
X78.74Y-101.6
X81.28Y-88.9
X81.28Y-91.44
X81.28Y-99.06
X81.28Y-101.6
X96.52Y-88.9
X96.52Y-91.44
X96.52Y-99.06
X96.52Y-101.6
X99.06Y-88.9
X99.06Y-91.44
X99.06Y-99.06
X99.06Y-101.6
X101.6Y-88.9
X101.6Y-91.44
X101.6Y-99.06
X101.6Y-101.6
X104.14Y-88.9
X104.14Y-91.44
X104.14Y-99.06
X104.14Y-101.6
X106.68Y-88.9
X106.68Y-91.44
X106.68Y-99.06
X106.68Y-101.6
X109.22Y-88.9
X109.22Y-91.44
X109.22Y-99.06
X109.22Y-101.6
X111.76Y-88.9
X111.76Y-91.44
X111.76Y-99.06
X111.76Y-101.6
X114.3Y-88.9
X114.3Y-91.44
X114.3Y-99.06
X114.3Y-101.6
X116.84Y-88.9
X116.84Y-91.44
X116.84Y-99.06
X116.84Y-101.6
X119.38Y-91.44
X119.38Y-101.6
T7
X43.18Y-60.96
X43.18Y-76.2
X50.8Y-60.96
X66.04Y-60.96
X76.2Y-78.74
X91.44Y-78.74
X121.92Y-66.04
X121.92Y-81.28
T8
X23.703Y-59.263
X23.703Y-103.297
X126.157Y-59.263
X126.157Y-103.297
T0
M30
