%TF.GenerationSoftware,KiCad,Pcbnew,7.0.5-0*%
%TF.CreationDate,2023-06-05T22:26:43-07:00*%
%TF.ProjectId,PCTGotekAdapter,50435447-6f74-4656-9b41-646170746572,A*%
%TF.SameCoordinates,Original*%
%TF.FileFunction,Legend,Bot*%
%TF.FilePolarity,Positive*%
%FSLAX46Y46*%
G04 Gerber Fmt 4.6, Leading zero omitted, Abs format (unit mm)*
G04 Created by KiCad (PCBNEW 7.0.5-0) date 2023-06-05 22:26:43*
%MOMM*%
%LPD*%
G01*
G04 APERTURE LIST*
G04 Aperture macros list*
%AMRoundRect*
0 Rectangle with rounded corners*
0 $1 Rounding radius*
0 $2 $3 $4 $5 $6 $7 $8 $9 X,Y pos of 4 corners*
0 Add a 4 corners polygon primitive as box body*
4,1,4,$2,$3,$4,$5,$6,$7,$8,$9,$2,$3,0*
0 Add four circle primitives for the rounded corners*
1,1,$1+$1,$2,$3*
1,1,$1+$1,$4,$5*
1,1,$1+$1,$6,$7*
1,1,$1+$1,$8,$9*
0 Add four rect primitives between the rounded corners*
20,1,$1+$1,$2,$3,$4,$5,0*
20,1,$1+$1,$4,$5,$6,$7,0*
20,1,$1+$1,$6,$7,$8,$9,0*
20,1,$1+$1,$8,$9,$2,$3,0*%
G04 Aperture macros list end*
%ADD10C,1.346000*%
%ADD11RoundRect,0.038000X0.635000X-0.635000X0.635000X0.635000X-0.635000X0.635000X-0.635000X-0.635000X0*%
%ADD12RoundRect,0.038000X-0.640000X0.640000X-0.640000X-0.640000X0.640000X-0.640000X0.640000X0.640000X0*%
%ADD13C,1.356000*%
%ADD14C,0.876000*%
%ADD15C,6.476000*%
%ADD16C,1.076000*%
%ADD17O,2.476000X2.476000*%
%ADD18C,2.476000*%
%ADD19O,1.776000X1.776000*%
%ADD20RoundRect,0.038000X0.850000X-0.850000X0.850000X0.850000X-0.850000X0.850000X-0.850000X-0.850000X0*%
%ADD21RoundRect,0.038000X-0.850000X0.850000X-0.850000X-0.850000X0.850000X-0.850000X0.850000X0.850000X0*%
%ADD22RoundRect,0.038000X0.800000X-0.800000X0.800000X0.800000X-0.800000X0.800000X-0.800000X-0.800000X0*%
%ADD23C,1.676000*%
G04 APERTURE END LIST*
%LPC*%
D10*
%TO.C,U2*%
X99060000Y-68260000D03*
X101600000Y-68260000D03*
X104140000Y-68260000D03*
X106680000Y-68260000D03*
X109220000Y-68260000D03*
X111760000Y-68260000D03*
X114300000Y-68260000D03*
X114300000Y-76200000D03*
X111760000Y-76200000D03*
X109220000Y-76200000D03*
X106680000Y-76200000D03*
X104140000Y-76200000D03*
X101600000Y-76200000D03*
D11*
X99060000Y-76200000D03*
%TD*%
D12*
%TO.C,U1*%
X71120000Y-68260000D03*
D13*
X68580000Y-68260000D03*
X66040000Y-68260000D03*
X63500000Y-68260000D03*
X60960000Y-68260000D03*
X58420000Y-68260000D03*
X55880000Y-68260000D03*
X53340000Y-68260000D03*
X53340000Y-76200000D03*
X55880000Y-76200000D03*
X58420000Y-76200000D03*
X60960000Y-76200000D03*
X63500000Y-76200000D03*
X66040000Y-76200000D03*
X68580000Y-76200000D03*
X71120000Y-76200000D03*
%TD*%
D14*
%TO.C,H4*%
X123757056Y-59262944D03*
X124460000Y-60960000D03*
X124460000Y-57565888D03*
X126157056Y-61662944D03*
D15*
X126157056Y-59262944D03*
D14*
X128557056Y-59262944D03*
D16*
X127854112Y-57565888D03*
D14*
X127854112Y-60960000D03*
X126157056Y-56862944D03*
%TD*%
%TO.C,H3*%
X123757056Y-103297056D03*
X124460000Y-104994112D03*
X124460000Y-101600000D03*
X126157056Y-105697056D03*
D15*
X126157056Y-103297056D03*
D14*
X128557056Y-103297056D03*
X127854112Y-101600000D03*
X127854112Y-104994112D03*
X126157056Y-100897056D03*
%TD*%
%TO.C,H2*%
X21302944Y-103297056D03*
X22005888Y-104994112D03*
X22005888Y-101600000D03*
X23702944Y-105697056D03*
D15*
X23702944Y-103297056D03*
D14*
X26102944Y-103297056D03*
X25400000Y-101600000D03*
X25400000Y-104994112D03*
X23702944Y-100897056D03*
%TD*%
%TO.C,H1*%
X21302944Y-59262944D03*
X22005888Y-60960000D03*
X22005888Y-57565888D03*
X23702944Y-61662944D03*
D15*
X23702944Y-59262944D03*
D14*
X26102944Y-59262944D03*
X25400000Y-57565888D03*
X25400000Y-60960000D03*
X23702944Y-56862944D03*
%TD*%
D17*
%TO.C,R1*%
X91440000Y-78740000D03*
D18*
X76200000Y-78740000D03*
%TD*%
D19*
%TO.C,J3*%
X119380000Y-91440000D03*
X116840000Y-88900000D03*
X116840000Y-91440000D03*
X114300000Y-88900000D03*
X114300000Y-91440000D03*
X111760000Y-88900000D03*
X111760000Y-91440000D03*
X109220000Y-88900000D03*
X109220000Y-91440000D03*
X106680000Y-88900000D03*
X106680000Y-91440000D03*
X104140000Y-88900000D03*
X104140000Y-91440000D03*
X101600000Y-88900000D03*
X101600000Y-91440000D03*
X99060000Y-88900000D03*
X99060000Y-91440000D03*
X96520000Y-88900000D03*
D20*
X96520000Y-91440000D03*
%TD*%
D19*
%TO.C,J2*%
X119380000Y-101600000D03*
X116840000Y-99060000D03*
X116840000Y-101600000D03*
X114300000Y-99060000D03*
X114300000Y-101600000D03*
X111760000Y-99060000D03*
X111760000Y-101600000D03*
X109220000Y-99060000D03*
X109220000Y-101600000D03*
X106680000Y-99060000D03*
X106680000Y-101600000D03*
X104140000Y-99060000D03*
X104140000Y-101600000D03*
X101600000Y-99060000D03*
X101600000Y-101600000D03*
X99060000Y-99060000D03*
X99060000Y-101600000D03*
X96520000Y-99060000D03*
D20*
X96520000Y-101600000D03*
%TD*%
D18*
%TO.C,R4*%
X43180000Y-76200000D03*
D17*
X43180000Y-60960000D03*
%TD*%
D18*
%TO.C,R3*%
X50800000Y-60960000D03*
D17*
X66040000Y-60960000D03*
%TD*%
D18*
%TO.C,R2*%
X121920000Y-81280000D03*
D17*
X121920000Y-66040000D03*
%TD*%
D20*
%TO.C,J6*%
X22860000Y-96520000D03*
D19*
X25400000Y-96520000D03*
X27940000Y-96520000D03*
X30480000Y-96520000D03*
%TD*%
D20*
%TO.C,J5*%
X22860000Y-71120000D03*
D19*
X25400000Y-71120000D03*
X27940000Y-71120000D03*
X30480000Y-71120000D03*
%TD*%
D21*
%TO.C,J4*%
X81280000Y-88900000D03*
D19*
X81280000Y-91440000D03*
X78740000Y-88900000D03*
X78740000Y-91440000D03*
X76200000Y-88900000D03*
X76200000Y-91440000D03*
X73660000Y-88900000D03*
X73660000Y-91440000D03*
X71120000Y-88900000D03*
X71120000Y-91440000D03*
X68580000Y-88900000D03*
X68580000Y-91440000D03*
X66040000Y-88900000D03*
X66040000Y-91440000D03*
X63500000Y-88900000D03*
X63500000Y-91440000D03*
X60960000Y-88900000D03*
X60960000Y-91440000D03*
X58420000Y-88900000D03*
X58420000Y-91440000D03*
X55880000Y-88900000D03*
X55880000Y-91440000D03*
X53340000Y-88900000D03*
X53340000Y-91440000D03*
X50800000Y-88900000D03*
X50800000Y-91440000D03*
X48260000Y-88900000D03*
X48260000Y-91440000D03*
X45720000Y-88900000D03*
X45720000Y-91440000D03*
X43180000Y-88900000D03*
X43180000Y-91440000D03*
X40640000Y-88900000D03*
X40640000Y-91440000D03*
%TD*%
D21*
%TO.C,J1*%
X81280000Y-99060000D03*
D19*
X81280000Y-101600000D03*
X78740000Y-99060000D03*
X78740000Y-101600000D03*
X76200000Y-99060000D03*
X76200000Y-101600000D03*
X73660000Y-99060000D03*
X73660000Y-101600000D03*
X71120000Y-99060000D03*
X71120000Y-101600000D03*
X68580000Y-99060000D03*
X68580000Y-101600000D03*
X66040000Y-99060000D03*
X66040000Y-101600000D03*
X63500000Y-99060000D03*
X63500000Y-101600000D03*
X60960000Y-99060000D03*
X60960000Y-101600000D03*
X58420000Y-99060000D03*
X58420000Y-101600000D03*
X55880000Y-99060000D03*
X55880000Y-101600000D03*
X53340000Y-99060000D03*
X53340000Y-101600000D03*
X50800000Y-99060000D03*
X50800000Y-101600000D03*
X48260000Y-99060000D03*
X48260000Y-101600000D03*
X45720000Y-99060000D03*
X45720000Y-101600000D03*
X43180000Y-99060000D03*
X43180000Y-101600000D03*
X40640000Y-99060000D03*
X40640000Y-101600000D03*
%TD*%
D22*
%TO.C,C2*%
X91440000Y-73120000D03*
D23*
X91440000Y-71120000D03*
%TD*%
D22*
%TO.C,C1*%
X78740000Y-73120000D03*
D23*
X78740000Y-71120000D03*
%TD*%
%LPD*%
M02*
